/* XPM */
static char * 0_xpm[] = {
"42 49 705 2",
"  	c None",
". 	c #E1B482",
"+ 	c #DDB177",
"@ 	c #DDB279",
"# 	c #E3BB84",
"$ 	c #D2A269",
"% 	c #C78132",
"& 	c #CE7121",
"* 	c #CF7322",
"= 	c #E39B1E",
"- 	c #F8C23A",
"; 	c #F5B13E",
"> 	c #D47714",
", 	c #D0721E",
"' 	c #CB7D33",
") 	c #DBA76B",
"! 	c #C88240",
"~ 	c #CF7122",
"{ 	c #DC7317",
"] 	c #DA7317",
"^ 	c #DC7018",
"/ 	c #D87112",
"( 	c #F4AD31",
"_ 	c #F8BB38",
": 	c #DB891F",
"< 	c #DA701B",
"[ 	c #D86F18",
"} 	c #DA7116",
"| 	c #D76D12",
"1 	c #BE7632",
"2 	c #D3B087",
"3 	c #CA772B",
"4 	c #D77316",
"5 	c #D97319",
"6 	c #D87319",
"7 	c #D97317",
"8 	c #DB7217",
"9 	c #D77211",
"0 	c #D87F1B",
"a 	c #D87A12",
"b 	c #D97011",
"c 	c #D7701A",
"d 	c #D57019",
"e 	c #D87216",
"f 	c #DA710E",
"g 	c #D47413",
"h 	c #CB7627",
"i 	c #D4995C",
"j 	c #D49E68",
"k 	c #CE6D22",
"l 	c #D5720D",
"m 	c #D1890F",
"n 	c #E08B23",
"o 	c #D7750E",
"p 	c #D8720F",
"q 	c #D47012",
"r 	c #CC770C",
"s 	c #D77718",
"t 	c #E67C26",
"u 	c #DC741A",
"v 	c #D86F1A",
"w 	c #D67119",
"x 	c #D77216",
"y 	c #DA7111",
"z 	c #D97112",
"A 	c #D3721A",
"B 	c #DA6E17",
"C 	c #E2A775",
"D 	c #D9A36B",
"E 	c #D0771D",
"F 	c #D97A13",
"G 	c #F1B733",
"H 	c #FACF2D",
"I 	c #FCC93A",
"J 	c #DD8015",
"K 	c #D57D14",
"L 	c #F5B53F",
"M 	c #E7A12C",
"N 	c #D67216",
"O 	c #DA6F1D",
"P 	c #E57C26",
"Q 	c #DC741E",
"R 	c #D9711A",
"S 	c #DB7116",
"T 	c #DA7215",
"U 	c #D87313",
"V 	c #D87015",
"W 	c #DD6E17",
"X 	c #D47425",
"Y 	c #7D7144",
"Z 	c #3E6A74",
"` 	c #4E7477",
" .	c #DA711E",
"..	c #D4780B",
"+.	c #F9BC39",
"@.	c #FACB36",
"#.	c #F9CF32",
"$.	c #F6BD34",
"%.	c #D37915",
"&.	c #DE8A21",
"*.	c #FCC143",
"=.	c #D7871B",
"-.	c #D27015",
";.	c #DB7521",
">.	c #DA7219",
",.	c #E67C25",
"'.	c #D97419",
").	c #E06E0F",
"!.	c #DC710F",
"~.	c #D97212",
"{.	c #DB7115",
"].	c #DD7018",
"^.	c #C57123",
"/.	c #706851",
"(.	c #779492",
"_.	c #C77333",
":.	c #DE7019",
"<.	c #DD8F18",
"[.	c #FEC739",
"}.	c #FDC736",
"|.	c #F9C438",
"1.	c #DA8913",
"2.	c #D77315",
"3.	c #DC7016",
"4.	c #E0771A",
"5.	c #D58236",
"6.	c #E7C18E",
"7.	c #E1AB76",
"8.	c #CD7A2D",
"9.	c #DA822C",
"0.	c #D67111",
"a.	c #D97215",
"b.	c #D97217",
"c.	c #D8711B",
"d.	c #D9721C",
"e.	c #D27114",
"f.	c #B27240",
"g.	c #CD8342",
"h.	c #DA7113",
"i.	c #D77212",
"j.	c #D8901D",
"k.	c #FFBF40",
"l.	c #F3B132",
"m.	c #D88110",
"n.	c #D77611",
"o.	c #E66B16",
"p.	c #D07530",
"q.	c #E7BE87",
"r.	c #C5874C",
"s.	c #D98029",
"t.	c #DB751B",
"u.	c #DA7118",
"v.	c #D97219",
"w.	c #D9721A",
"x.	c #DA7318",
"y.	c #D67310",
"z.	c #D47020",
"A.	c #E5B891",
"B.	c #CE9A59",
"C.	c #D0700E",
"D.	c #D86E14",
"E.	c #D86F15",
"F.	c #DA7115",
"G.	c #DB7515",
"H.	c #DD7512",
"I.	c #DC720D",
"J.	c #D77714",
"K.	c #D37825",
"L.	c #C68940",
"M.	c #E17D28",
"N.	c #DC741B",
"O.	c #D87214",
"P.	c #D87113",
"Q.	c #D17E3B",
"R.	c #C37420",
"S.	c #D6700D",
"T.	c #D66F18",
"U.	c #D96F17",
"V.	c #DC7116",
"W.	c #DB7215",
"X.	c #D8700F",
"Y.	c #DB720F",
"Z.	c #CD7424",
"`.	c #DEBA8A",
" +	c #CB782B",
".+	c #EA7F29",
"++	c #D67117",
"@+	c #D97216",
"#+	c #DA7314",
"$+	c #D2741F",
"%+	c #756A46",
"&+	c #608D86",
"*+	c #D37416",
"=+	c #DD6F11",
"-+	c #DA6E15",
";+	c #D87115",
">+	c #D97114",
",+	c #D87012",
"'+	c #DA701F",
")+	c #D47F4A",
"!+	c #DDA775",
"~+	c #DE7020",
"{+	c #E37F26",
"]+	c #DB7519",
"^+	c #DA7216",
"/+	c #DA701A",
"(+	c #987243",
"_+	c #3B6D64",
":+	c #396B6F",
"<+	c #759799",
"[+	c #D3914D",
"}+	c #D88413",
"|+	c #DA7913",
"1+	c #D87114",
"2+	c #D87213",
"3+	c #D97213",
"4+	c #CB7531",
"5+	c #CD7329",
"6+	c #DA711B",
"7+	c #E57E21",
"8+	c #DB7417",
"9+	c #D97015",
"0+	c #D97115",
"a+	c #DB6F17",
"b+	c #BE7733",
"c+	c #526A5E",
"d+	c #336F76",
"e+	c #3F6869",
"f+	c #D28222",
"g+	c #FBC645",
"h+	c #F1A633",
"i+	c #DC6D19",
"j+	c #DB6F16",
"k+	c #DA7112",
"l+	c #DA7214",
"m+	c #D7A56D",
"n+	c #DEA96E",
"o+	c #D86C14",
"p+	c #E27C1F",
"q+	c #D67217",
"r+	c #D67318",
"s+	c #D2711A",
"t+	c #7A6B55",
"u+	c #426D78",
"v+	c #DB8A22",
"w+	c #FCC448",
"x+	c #DF9024",
"y+	c #D27112",
"z+	c #DE6D18",
"A+	c #E26D15",
"B+	c #DB7212",
"C+	c #D4741C",
"D+	c #CE6E1D",
"E+	c #D87013",
"F+	c #D77116",
"G+	c #E17F22",
"H+	c #D6741B",
"I+	c #D5731D",
"J+	c #D97018",
"K+	c #B37F52",
"L+	c #DAA471",
"M+	c #DB7317",
"N+	c #DB7C12",
"O+	c #D58013",
"P+	c #E09524",
"Q+	c #D77A0F",
"R+	c #DA710D",
"S+	c #DB7218",
"T+	c #CE8C4C",
"U+	c #D28A4B",
"V+	c #D77117",
"W+	c #D77017",
"X+	c #D77219",
"Y+	c #E27E26",
"Z+	c #D9731C",
"`+	c #D98033",
" @	c #D6843E",
".@	c #DB6F1D",
"+@	c #D37618",
"@@	c #F7BD3B",
"#@	c #FCCA37",
"$@	c #F2B133",
"%@	c #D1730B",
"&@	c #DD6B1F",
"*@	c #E3B38D",
"=@	c #DAB186",
"-@	c #D7711A",
";@	c #D76F1A",
">@	c #D97118",
",@	c #E87925",
"'@	c #D57121",
")@	c #C87621",
"!@	c #7E8377",
"~@	c #D07A30",
"{@	c #DA7016",
"]@	c #E99328",
"^@	c #FAC933",
"/@	c #F9CD31",
"(@	c #F4B439",
"_@	c #CA720B",
":@	c #D46D1F",
"<@	c #D26D19",
"[@	c #D96F1A",
"}@	c #D87016",
"|@	c #D97016",
"1@	c #DE6E1A",
"2@	c #DF7C2D",
"3@	c #C97727",
"4@	c #5D6A61",
"5@	c #4F757A",
"6@	c #CD7327",
"7@	c #F5B534",
"8@	c #FCCB31",
"9@	c #FAC333",
"0@	c #DD891A",
"a@	c #D37112",
"b@	c #C87222",
"c@	c #D37322",
"d@	c #D76F18",
"e@	c #D96F14",
"f@	c #DB7012",
"g@	c #D4731E",
"h@	c #D57D2F",
"i@	c #637066",
"j@	c #366D74",
"k@	c #3C716F",
"l@	c #CE7422",
"m@	c #D77013",
"n@	c #F2B038",
"o@	c #F7BD36",
"p@	c #E08D11",
"q@	c #D87311",
"r@	c #D56F18",
"s@	c #C9752A",
"t@	c #CB7121",
"u@	c #D76F15",
"v@	c #DB6E12",
"w@	c #D7720E",
"x@	c #D37318",
"y@	c #CF7226",
"z@	c #6C7C70",
"A@	c #37707E",
"B@	c #46808A",
"C@	c #50757C",
"D@	c #CF721E",
"E@	c #DB6D15",
"F@	c #D97A15",
"G@	c #CF7C0C",
"H@	c #DE760A",
"I@	c #D67416",
"J@	c #D0731B",
"K@	c #CE7E34",
"L@	c #CA6F20",
"M@	c #D96F15",
"N@	c #D97113",
"O@	c #D97010",
"P@	c #D47318",
"Q@	c #CD7229",
"R@	c #556660",
"S@	c #4B8596",
"T@	c #3B7B84",
"U@	c #3F6F74",
"V@	c #D07222",
"W@	c #DB6F12",
"X@	c #D7710F",
"Y@	c #D96F0F",
"Z@	c #E06F11",
"`@	c #DB7118",
" #	c #D4721C",
".#	c #D37C35",
"+#	c #CA701D",
"@#	c #D17517",
"##	c #D47A10",
"$#	c #DC7117",
"%#	c #D47218",
"&#	c #C1772C",
"*#	c #596970",
"=#	c #3B778B",
"-#	c #498184",
";#	c #5D7E86",
">#	c #CF7024",
",#	c #DB6E0F",
"'#	c #D6720C",
")#	c #DB6D10",
"!#	c #E06D14",
"~#	c #DD6F19",
"{#	c #D8711C",
"]#	c #D37C36",
"^#	c #CB711E",
"/#	c #EEAC3A",
"(#	c #F7B936",
"_#	c #DF6F13",
":#	c #D77018",
"<#	c #B68333",
"[#	c #70827E",
"}#	c #D27934",
"|#	c #D67F10",
"1#	c #D97C13",
"2#	c #D96D0F",
"3#	c #DC6F14",
"4#	c #D87018",
"5#	c #D17C37",
"6#	c #D57522",
"7#	c #D87912",
"8#	c #FDCB3E",
"9#	c #F7BD35",
"0#	c #D47214",
"a#	c #E87B2A",
"b#	c #DBAF73",
"c#	c #D58C48",
"d#	c #D6761A",
"e#	c #F6BA44",
"f#	c #EBA637",
"g#	c #D7710E",
"h#	c #D96F16",
"i#	c #D07D38",
"j#	c #D2721C",
"k#	c #D87E11",
"l#	c #F1A729",
"m#	c #DC8D20",
"n#	c #D97D21",
"o#	c #D57420",
"p#	c #DFBF99",
"q#	c #D9AA69",
"r#	c #DC872A",
"s#	c #FCC351",
"t#	c #DD972A",
"u#	c #D1710D",
"v#	c #D96E10",
"w#	c #DD6E15",
"x#	c #CE772D",
"y#	c #D7AA83",
"z#	c #D3711A",
"A#	c #D87513",
"B#	c #DE7312",
"C#	c #DD7A23",
"D#	c #D7781A",
"E#	c #C6791C",
"F#	c #80846C",
"G#	c #D27418",
"H#	c #E38622",
"I#	c #D47010",
"J#	c #D36E0F",
"K#	c #D66F11",
"L#	c #DD6F12",
"M#	c #D3721D",
"N#	c #CA8A4A",
"O#	c #D57119",
"P#	c #E47A23",
"Q#	c #DC7322",
"R#	c #D37117",
"S#	c #A57830",
"T#	c #496E6B",
"U#	c #CC7423",
"V#	c #D47211",
"W#	c #D57012",
"X#	c #D67013",
"Y#	c #D77015",
"Z#	c #D87020",
"`#	c #CB711F",
" $	c #D66E18",
".$	c #DE7920",
"+$	c #DC761E",
"@$	c #D66F1B",
"#$	c #D37319",
"$$	c #857244",
"%$	c #407176",
"&$	c #467377",
"*$	c #D68D45",
"=$	c #D77113",
"-$	c #D67015",
";$	c #D76F13",
">$	c #D86F12",
",$	c #D67017",
"'$	c #E4BA89",
")$	c #E1BB85",
"!$	c #DC6F19",
"~$	c #DC7326",
"{$	c #D37C1E",
"]$	c #E08D25",
"^$	c #DC8119",
"/$	c #CB761D",
"($	c #61685F",
"_$	c #377079",
":$	c #3B7076",
"<$	c #E0B682",
"[$	c #D47013",
"}$	c #DB7015",
"|$	c #DB6E15",
"1$	c #D96E16",
"2$	c #D7883D",
"3$	c #D1853B",
"4$	c #E27927",
"5$	c #DF7725",
"6$	c #E19624",
"7$	c #F9C83D",
"8$	c #F1AE39",
"9$	c #AC7230",
"0$	c #46676B",
"a$	c #326E7A",
"b$	c #346B79",
"c$	c #96ABB2",
"d$	c #CD731E",
"e$	c #DC6F17",
"f$	c #DC6E14",
"g$	c #DC7C29",
"h$	c #D17117",
"i$	c #D17314",
"j$	c #F2B233",
"k$	c #F8CB36",
"l$	c #DB9B29",
"m$	c #A8855D",
"n$	c #3D6D6F",
"o$	c #326D75",
"p$	c #366F76",
"q$	c #859FA5",
"r$	c #D59757",
"s$	c #D57218",
"t$	c #DB7017",
"u$	c #DA7117",
"v$	c #DD6F18",
"w$	c #DE6E18",
"x$	c #D27B2A",
"y$	c #DA9861",
"z$	c #D47622",
"A$	c #D57113",
"B$	c #D07310",
"C$	c #E3A12D",
"D$	c #E8A52E",
"E$	c #C37524",
"F$	c #9CBAB9",
"G$	c #8AA9AB",
"H$	c #D67B26",
"I$	c #D6770D",
"J$	c #CF852A",
"K$	c #DBB27D",
"L$	c #DF7421",
"M$	c #D76E11",
"N$	c #D76F0C",
"O$	c #D9700C",
"P$	c #D27315",
"Q$	c #986F45",
"R$	c #DCB58B",
"S$	c #D3761D",
"T$	c #DE7112",
"U$	c #E3700F",
"V$	c #D87418",
"W$	c #D47827",
"X$	c #DA9E63",
"Y$	c #CD915A",
"Z$	c #D07E26",
"`$	c #DA6E12",
" %	c #D77011",
".%	c #D9720B",
"+%	c #B8762C",
"@%	c #4A6E65",
"#%	c #D2843F",
"$%	c #D97019",
"%%	c #DC7215",
"&%	c #DB7319",
"*%	c #DF7111",
"=%	c #DE6E11",
"-%	c #CE6D1A",
";%	c #CD7C31",
">%	c #DC9243",
",%	c #DD9443",
"'%	c #D7893B",
")%	c #D58132",
"!%	c #D3781A",
"~%	c #D68416",
"{%	c #D97512",
"]%	c #DB7014",
"^%	c #DC6D1A",
"/%	c #D67115",
"(%	c #C37822",
"_%	c #717159",
":%	c #366F70",
"<%	c #8C9EA8",
"[%	c #D07930",
"}%	c #D77317",
"|%	c #DC7318",
"1%	c #DE7116",
"2%	c #D87010",
"3%	c #D7700E",
"4%	c #CF740F",
"5%	c #D46F11",
"6%	c #D96E1A",
"7%	c #DB7820",
"8%	c #D88619",
"9%	c #F6BB34",
"0%	c #FBCB35",
"a%	c #E59120",
"b%	c #DA6E1E",
"c%	c #CA7620",
"d%	c #867343",
"e%	c #3D6A7F",
"f%	c #366C77",
"g%	c #688689",
"h%	c #CA7424",
"i%	c #D87116",
"j%	c #D97315",
"k%	c #DE7215",
"l%	c #DF7114",
"m%	c #D97412",
"n%	c #CD760C",
"o%	c #CD820D",
"p%	c #D77619",
"q%	c #E47929",
"r%	c #D9781C",
"s%	c #F5BB3D",
"t%	c #FED13B",
"u%	c #FDD036",
"v%	c #E09521",
"w%	c #A57940",
"x%	c #4F6D69",
"y%	c #3D6C7C",
"z%	c #396A78",
"A%	c #5E8388",
"B%	c #E8BF8D",
"C%	c #D87117",
"D%	c #DD7115",
"E%	c #DF7014",
"F%	c #DA7511",
"G%	c #E39724",
"H%	c #FDC642",
"I%	c #E89839",
"J%	c #D77C25",
"K%	c #E49E28",
"L%	c #FBCE35",
"M%	c #FFCD2E",
"N%	c #F0BF34",
"O%	c #DD7714",
"P%	c #D07317",
"Q%	c #A48134",
"R%	c #87917E",
"S%	c #608A8A",
"T%	c #3A6775",
"U%	c #5F7F8C",
"V%	c #D1AC87",
"W%	c #CA7239",
"X%	c #D1761B",
"Y%	c #D1761D",
"Z%	c #D4760D",
"`%	c #F9C13D",
" &	c #F6C54D",
".&	c #DF8724",
"+&	c #D57114",
"@&	c #F2AF33",
"#&	c #FCCA2C",
"$&	c #EFAF23",
"%&	c #DA7F10",
"&&	c #D46F29",
"*&	c #A0744B",
"=&	c #406E5D",
"-&	c #49737C",
";&	c #7C938D",
">&	c #5C6A58",
",&	c #9B7734",
"'&	c #C97627",
")&	c #D27817",
"!&	c #E79133",
"~&	c #E28623",
"{&	c #DC7212",
"]&	c #DE7013",
"^&	c #DF841C",
"/&	c #DC891A",
"(&	c #D0711C",
"_&	c #B37231",
":&	c #777152",
"<&	c #347074",
"[&	c #2E6D80",
"}&	c #3D6A77",
"|&	c #508188",
"1&	c #326E78",
"2&	c #3A6F70",
"3&	c #6C735F",
"4&	c #CEA675",
"5&	c #B37F3B",
"6&	c #CE7C3E",
"7&	c #CC7525",
"8&	c #CE6F21",
"9&	c #C07634",
"0&	c #9C713A",
"a&	c #B2A388",
"b&	c #739B9C",
"c&	c #567A82",
"d&	c #4E6D71",
"e&	c #386B75",
"f&	c #4A7A87",
"g&	c #5A858F",
"h&	c #496D6E",
"i&	c #556A68",
"j&	c #656A60",
"k&	c #B4A991",
"l&	c #757E78",
"m&	c #446D6C",
"n&	c #749993",
"o&	c #4D7178",
"p&	c #80A2A8",
"q&	c #3A696D",
"r&	c #3D6A79",
"s&	c #859AA1",
"t&	c #719394",
"u&	c #577E75",
"v&	c #759B94",
"                                                                                    ",
"                                                                                    ",
"                                                                                    ",
"                                                                                    ",
"                                            . + @ #                                 ",
"                                    $ % & * = - ; > , ' )                           ",
"                                ! ~ { ] ^ / ( _ : < [ } | 1 2                       ",
"                              3 4 5 6 7 8 9 0 a b c d e f g h i                     ",
"                          j k l m n o p q r s t u v w x y z A B C                   ",
"                        D E F G H I J K L M N O P Q R S T U V W X Y Z `             ",
"                         ...+.@.#.$.%.&.*.=.-.;.>.,.'.).!.~.{.^ ].^./.(.            ",
"                      _.:.<.[.}.|.1.2.3.4.5.6.  7.8.9.0.y a.b.c.d.e.f.              ",
"                    g.h.i.j.k.l.m.n.o.p.q.          r.s.t.u.v.w.x.y.z.A.            ",
"                  B.C.D.E.F.G.H.I.J.K.                L.M.N.>.x.] O.P.Q.            ",
"                  R.S.T.U.V.W.X.Y.Z.`.                   +.+++x.@+] #+$+%+&+        ",
"                  *+=+-+;+>+h.,+'+)+                    !+~+{+]+^+a.a./+(+_+:+<+    ",
"                [+}+|+/ 1+2+3+O.4+                        5+6+7+8+9+0+a+b+c+d+e+    ",
"                f+g+h+9 i+j+k+l+m+                        n+o+1+p+N q+r+s+t+u+      ",
"                v+w+x+y+z+A+B+C+                            D+E+F+G+H+I+J+K+        ",
"              L+M+N+O+P+Q+R+S+T+                            U+V+W+X+Y+Z+6+`+        ",
"               @.@+@@@#@$@%@&@*@                            =@-@;@W+>@,@'@)@!@      ",
"              ~@{@]@^@/@(@_@:@                                <@[@}@|@1@2@3@4@5@    ",
"              6@/ 7@8@9@0@a@b@                                c@d@e@|@f@g@h@i@j@k@  ",
"              l@m@n@o@p@q@r@s@                                t@u@v@/ w@x@y@z@A@B@C@",
"              D@E@F@G@H@I@J@K@                                L@M@9+N@O@P@Q@R@S@T@U@",
"              V@W@X@Y@Z@`@ #.#                                +#T @###$#%#&#*#=#-#;#",
"              >#,#'#)#!#~#{#]#                                ^#E+/#(#_#:#<#[#      ",
"              }#v@|#1#2#3#4#5#                                6#7#8#9#0#a#b#        ",
"              c#d#e#f#g#W@h#i#                                j#k#l#m#n#o#p#        ",
"              q#r#s#t#u#v#w#x#                              y#z#A#B#C#D#E#F#        ",
"                G#H#I#J#K#L#M#                              N#O#7 P#Q#R#S#T#        ",
"                U#V#W#X#m@Y#Z#                              `# $.$+$@$#$$$%$&$      ",
"                *$=$-$;$>$,$E.'$                          )$!$~${$]$^$/$($_$:$      ",
"                <$[$>+}$|$1$/ 2$                          3$4$5$6$7$8$9$0$a$b$c$    ",
"                  d$;+S e$f$0+>@                          g$h$i$j$k$l$m$n$o$p$q$    ",
"                  r$s$;+t$u$v$w$x$                      y$z$A$B$C$D$E$    F$G$      ",
"                    H$;+} u$^ ^ I$J$                  K$L$M$N$O$P$7 Q$              ",
"                    R$S$T$U$8 6 V$'.W$X$            Y$Z$k+`$-+ %.%+%@%              ",
"                      #%$%%%7 6 6 &%*%=%-%;%>%,%'%)%!%~%{%]%^%/%(%_%:%<%            ",
"                        [%}%2.b.M+|%1%2%3%4%5%6%7%8%9%0%a%M@b%c%d%e%f%g%            ",
"                          h%;$i%j%k%l%m%n%o%p%q%r%s%t%u%v%0.E@w%x%y%z%A%            ",
"                          B%z$C%} D%E%F%G%H%I%J%K%L%M%N%O%P%Q%R%  S%T%U%            ",
"                            V%W%X%Y%5 Z%`% &.&+&@&#&$&%&&&*&=&-&                    ",
"                            ;&>&,&'&&%)&!&~&{&]&^&/&(&_&:&<&[&}&                    ",
"                            |&1&2&3&4&5&6&7&z#8&9&0&a&    b&c&d&                    ",
"                            e&f&g&    h&i&j&k&  l&m&n&                              ",
"                            o&p&      q&r&s&      t&u&                              ",
"                                      v&                                            ",
"                                                                                    "};
