/* XPM */
static char * 3_xpm[] = {
"39 52 627 2",
"  	c None",
". 	c #8FA8A5",
"+ 	c #799893",
"@ 	c #90A09F",
"# 	c #82A29F",
"$ 	c #759C9B",
"% 	c #8AADAC",
"& 	c #84A4A1",
"* 	c #88A49A",
"= 	c #4B6960",
"- 	c #3E757A",
"; 	c #486F72",
"> 	c #DD9F62",
", 	c #CE8C4A",
"' 	c #CA9D76",
") 	c #B4A38D",
"! 	c #989E9A",
"~ 	c #B0AFA7",
"{ 	c #5F7A73",
"] 	c #8D9D94",
"^ 	c #618D81",
"/ 	c #3E6D68",
"( 	c #406E6C",
"_ 	c #6F9299",
": 	c #35697B",
"< 	c #387078",
"[ 	c #7F9B9E",
"} 	c #E1BE95",
"| 	c #CB772E",
"1 	c #D1782E",
"2 	c #C97626",
"3 	c #DE9B5D",
"4 	c #D9A370",
"5 	c #E89E5C",
"6 	c #C47331",
"7 	c #BD7448",
"8 	c #DEA076",
"9 	c #DEB080",
"0 	c #AD8350",
"a 	c #9A7742",
"b 	c #9F743C",
"c 	c #A47338",
"d 	c #B68548",
"e 	c #966D39",
"f 	c #8C6F42",
"g 	c #836942",
"h 	c #CEB196",
"i 	c #9E9982",
"j 	c #586E68",
"k 	c #446B80",
"l 	c #7898A5",
"m 	c #D4B494",
"n 	c #E8AF72",
"o 	c #D66E1D",
"p 	c #D19859",
"q 	c #EDA86E",
"r 	c #D87627",
"s 	c #CD711F",
"t 	c #E4A36B",
"u 	c #E6A363",
"v 	c #D17D30",
"w 	c #DB8D4D",
"x 	c #D77121",
"y 	c #DE6F16",
"z 	c #DA7116",
"A 	c #DA7019",
"B 	c #D76F18",
"C 	c #D66D19",
"D 	c #D56D2E",
"E 	c #C17726",
"F 	c #9A7535",
"G 	c #CC8A4B",
"H 	c #CC772A",
"I 	c #E9B98E",
"J 	c #D77E39",
"K 	c #CE7421",
"L 	c #E4A269",
"M 	c #E9A465",
"N 	c #D2772D",
"O 	c #ECC594",
"P 	c #D77E41",
"Q 	c #DA6E1D",
"R 	c #DE7017",
"S 	c #DC7015",
"T 	c #DD6F16",
"U 	c #DB6F15",
"V 	c #DA6D15",
"W 	c #D96F19",
"X 	c #D57009",
"Y 	c #D47117",
"Z 	c #C37821",
"` 	c #A39878",
" .	c #4B787D",
"..	c #36686C",
"+.	c #416B6D",
"@.	c #94A9AD",
"#.	c #E4A263",
"$.	c #DA7C28",
"%.	c #D17017",
"&.	c #E4B283",
"*.	c #E7A06B",
"=.	c #E17C32",
"-.	c #D37421",
";.	c #E3A068",
">.	c #E9A05E",
",.	c #D8751D",
"'.	c #D67019",
").	c #D57020",
"!.	c #DA6F1F",
"~.	c #DD7016",
"{.	c #DB7015",
"].	c #DA7015",
"^.	c #DA7013",
"/.	c #DA6F15",
"(.	c #D87016",
"_.	c #D6720F",
":.	c #D37114",
"<.	c #D7720F",
"[.	c #B17838",
"}.	c #456D6D",
"|.	c #3D6F7C",
"1.	c #567880",
"2.	c #E49D58",
"3.	c #CE751E",
"4.	c #CC6F1A",
"5.	c #D9893D",
"6.	c #E1A369",
"7.	c #EAA165",
"8.	c #DF751F",
"9.	c #D88E4C",
"0.	c #DBB18A",
"a.	c #E39858",
"b.	c #D26C10",
"c.	c #D87114",
"d.	c #D77118",
"e.	c #DB6F1A",
"f.	c #DB6F14",
"g.	c #D97014",
"h.	c #D97113",
"i.	c #D87012",
"j.	c #DA6F11",
"k.	c #C1752F",
"l.	c #4F6D61",
"m.	c #5D8586",
"n.	c #C4803B",
"o.	c #D0771E",
"p.	c #D1741F",
"q.	c #E99B51",
"r.	c #E7A664",
"s.	c #D79A54",
"t.	c #C48F4D",
"u.	c #CE8B4C",
"v.	c #D67017",
"w.	c #D66F15",
"x.	c #D97016",
"y.	c #DA6F14",
"z.	c #DA7014",
"A.	c #DB6F11",
"B.	c #C27734",
"C.	c #7F9080",
"D.	c #BD7F32",
"E.	c #DE8E45",
"F.	c #F39D64",
"G.	c #F19F63",
"H.	c #D28938",
"I.	c #E4C088",
"J.	c #E5B88E",
"K.	c #CC7022",
"L.	c #D36F15",
"M.	c #D47014",
"N.	c #D77018",
"O.	c #D8711A",
"P.	c #D97115",
"Q.	c #D96F16",
"R.	c #D96F17",
"S.	c #DA7017",
"T.	c #D96F10",
"U.	c #C69767",
"V.	c #DCA071",
"W.	c #DAA87E",
"X.	c #E7C49E",
"Y.	c #DB9861",
"Z.	c #DB8E47",
"`.	c #DB8F4A",
" +	c #DA904C",
".+	c #D49650",
"++	c #DC8C39",
"@+	c #D97213",
"#+	c #D97112",
"$+	c #D97013",
"%+	c #DA6F18",
"&+	c #D57218",
"*+	c #A37736",
"=+	c #617665",
"-+	c #91B1AE",
";+	c #D29B61",
">+	c #D1741C",
",+	c #D97214",
"'+	c #D97212",
")+	c #D97114",
"!+	c #D77012",
"~+	c #E26E16",
"{+	c #C1732F",
"]+	c #616558",
"^+	c #396C79",
"/+	c #38726C",
"(+	c #5D8480",
"_+	c #DAA577",
":+	c #C67424",
"<+	c #D87413",
"[+	c #D97215",
"}+	c #DA7512",
"|+	c #D16F27",
"1+	c #6E6A55",
"2+	c #426B68",
"3+	c #356F79",
"4+	c #2E7573",
"5+	c #35726C",
"6+	c #92B1AF",
"7+	c #E3A870",
"8+	c #DA701D",
"9+	c #DA7111",
"0+	c #D8700E",
"a+	c #DA7115",
"b+	c #DC7214",
"c+	c #D47215",
"d+	c #BF7831",
"e+	c #8F8475",
"f+	c #D5A668",
"g+	c #D76F1E",
"h+	c #DC7216",
"i+	c #D87018",
"j+	c #DB6F1B",
"k+	c #DB7018",
"l+	c #AA7635",
"m+	c #606B5D",
"n+	c #377568",
"o+	c #CCA05A",
"p+	c #C87722",
"q+	c #D6701D",
"r+	c #DA7117",
"s+	c #DA7216",
"t+	c #D97119",
"u+	c #D87119",
"v+	c #D6711F",
"w+	c #B2713D",
"x+	c #596860",
"y+	c #3C7079",
"z+	c #307173",
"A+	c #507D85",
"B+	c #D1A35A",
"C+	c #CE7711",
"D+	c #D57212",
"E+	c #D6823D",
"F+	c #D07627",
"G+	c #DB7317",
"H+	c #D8701D",
"I+	c #D27322",
"J+	c #B27433",
"K+	c #626756",
"L+	c #3B757D",
"M+	c #3E7376",
"N+	c #386878",
"O+	c #3E6A6D",
"P+	c #DCB182",
"Q+	c #CF7318",
"R+	c #E06E1E",
"S+	c #D0935B",
"T+	c #D7944E",
"U+	c #D96F0F",
"V+	c #D5721A",
"W+	c #CC7321",
"X+	c #876743",
"Y+	c #4D6E6B",
"Z+	c #416C7D",
"`+	c #CF7321",
" @	c #DE6D17",
".@	c #D46A1F",
"+@	c #D38132",
"@@	c #D97012",
"#@	c #D9720F",
"$@	c #D47020",
"%@	c #CE7129",
"&@	c #B87132",
"*@	c #D1A474",
"=@	c #D7985E",
"-@	c #DC6E17",
";@	c #D4944E",
">@	c #D6964E",
",@	c #D87419",
"'@	c #DA7213",
")@	c #D87214",
"!@	c #DA7214",
"~@	c #D97316",
"{@	c #D87416",
"]@	c #D27716",
"^@	c #D0781E",
"/@	c #CF7B33",
"(@	c #DEA272",
"_@	c #C47B2E",
":@	c #DC7019",
"<@	c #D77310",
"[@	c #D47311",
"}@	c #D87315",
"|@	c #DA7317",
"1@	c #D97318",
"2@	c #DA7219",
"3@	c #DA721B",
"4@	c #D77316",
"5@	c #D6730D",
"6@	c #D2701A",
"7@	c #CE7027",
"8@	c #D78F55",
"9@	c #6B8E8C",
"0@	c #CC833C",
"a@	c #D0721B",
"b@	c #D96F18",
"c@	c #DE6D19",
"d@	c #D97118",
"e@	c #D77115",
"f@	c #D87219",
"g@	c #DB7218",
"h@	c #E4802A",
"i@	c #D9741F",
"j@	c #D7721D",
"k@	c #DB6F13",
"l@	c #DE6E13",
"m@	c #DD7014",
"n@	c #DC7225",
"o@	c #CF9C6B",
"p@	c #526B6B",
"q@	c #376D85",
"r@	c #E4B075",
"s@	c #D59350",
"t@	c #C37E36",
"u@	c #D5751E",
"v@	c #D6711D",
"w@	c #D6741E",
"x@	c #D56F19",
"y@	c #D9731A",
"z@	c #DA741C",
"A@	c #E47E28",
"B@	c #DB7521",
"C@	c #DB7017",
"D@	c #DD7012",
"E@	c #DE6F13",
"F@	c #D8711B",
"G@	c #E57F28",
"H@	c #D77725",
"I@	c #88724C",
"J@	c #688086",
"K@	c #E8B98B",
"L@	c #E4B07F",
"M@	c #E09D5E",
"N@	c #D38C4A",
"O@	c #D27E34",
"P@	c #DE8031",
"Q@	c #D97725",
"R@	c #DA701A",
"S@	c #DD6D18",
"T@	c #E17928",
"U@	c #D5751C",
"V@	c #DC6C13",
"W@	c #C67326",
"X@	c #C5AB8B",
"Y@	c #E19E65",
"Z@	c #D3722C",
"`@	c #DF7F36",
" #	c #D87525",
".#	c #D66D1B",
"+#	c #D36F1A",
"@#	c #D46D17",
"##	c #BD7433",
"$#	c #718482",
"%#	c #E0AA7F",
"&#	c #D9782E",
"*#	c #DC721C",
"=#	c #D7701B",
"-#	c #D56F1C",
";#	c #DB6F16",
">#	c #D16F1C",
",#	c #5B6960",
"'#	c #366E69",
")#	c #607F7C",
"!#	c #D89C64",
"~#	c #D67218",
"{#	c #D8721A",
"]#	c #D97018",
"^#	c #DA6F17",
"/#	c #D86E17",
"(#	c #7E6F40",
"_#	c #447475",
":#	c #D87D2B",
"<#	c #D97117",
"[#	c #DC6E18",
"}#	c #BD8B50",
"|#	c #CC7729",
"1#	c #E58024",
"2#	c #DA7519",
"3#	c #D87116",
"4#	c #D38E4E",
"5#	c #CF7A2C",
"6#	c #D77216",
"7#	c #E58023",
"8#	c #D87216",
"9#	c #D77218",
"0#	c #AC6E32",
"a#	c #C97321",
"b#	c #D67014",
"c#	c #D77315",
"d#	c #E17D20",
"e#	c #D7741B",
"f#	c #9A6E3D",
"g#	c #486B6D",
"h#	c #DCB07E",
"i#	c #CB955D",
"j#	c #DCB991",
"k#	c #CD7017",
"l#	c #D77013",
"m#	c #D67215",
"n#	c #D57115",
"o#	c #E07E25",
"p#	c #8A7045",
"q#	c #3C717B",
"r#	c #C37D3E",
"s#	c #D28337",
"t#	c #D48A44",
"u#	c #D57727",
"v#	c #D08C4A",
"w#	c #D79960",
"x#	c #D46E18",
"y#	c #D77014",
"z#	c #D66E15",
"A#	c #D4751D",
"B#	c #AAA181",
"C#	c #799BA4",
"D#	c #D6A66D",
"E#	c #D07420",
"F#	c #CD8137",
"G#	c #D17522",
"H#	c #D39D65",
"I#	c #D07621",
"J#	c #DA6E1A",
"K#	c #DB6E15",
"L#	c #D96E18",
"M#	c #DF6C11",
"N#	c #CE7630",
"O#	c #C58841",
"P#	c #D96E22",
"Q#	c #DD9854",
"R#	c #DE9B5B",
"S#	c #C68241",
"T#	c #D99B5A",
"U#	c #D08E55",
"V#	c #D5A67E",
"W#	c #D08C47",
"X#	c #D56F10",
"Y#	c #DE6D18",
"Z#	c #D77019",
"`#	c #A47649",
" $	c #C4873F",
".$	c #DA710F",
"+$	c #E66E08",
"@$	c #E4873F",
"#$	c #DCB47E",
"$$	c #CA9963",
"%$	c #D8B488",
"&$	c #D17422",
"*$	c #D37218",
"=$	c #DC6E19",
"-$	c #D5701A",
";$	c #C37827",
">$	c #676E58",
",$	c #608B85",
"'$	c #D59F5E",
")$	c #D8700D",
"!$	c #DF6D0B",
"~$	c #D98E45",
"{$	c #D4A76B",
"]$	c #C97523",
"^$	c #D0924E",
"/$	c #CF781B",
"($	c #D76E1E",
"_$	c #D6701C",
":$	c #D6711A",
"<$	c #D57216",
"[$	c #A1793C",
"}$	c #466873",
"|$	c #3A6E6B",
"1$	c #DD6E0D",
"2$	c #D77217",
"3$	c #D77924",
"4$	c #D8853B",
"5$	c #D37B3B",
"6$	c #DE6C23",
"7$	c #DE6C16",
"8$	c #D77A22",
"9$	c #D28E4C",
"0$	c #DCB690",
"a$	c #CE7725",
"b$	c #D57513",
"c$	c #D7711E",
"d$	c #DD7D2D",
"e$	c #D37422",
"f$	c #D4711B",
"g$	c #C4752C",
"h$	c #9A8C71",
"i$	c #698D94",
"j$	c #6C9A99",
"k$	c #D5742D",
"l$	c #D46E20",
"m$	c #DD6C16",
"n$	c #D76E1B",
"o$	c #D56E19",
"p$	c #D86E13",
"q$	c #E67B20",
"r$	c #DD781D",
"s$	c #D96F14",
"t$	c #C88139",
"u$	c #DBB78B",
"v$	c #E1AB7C",
"w$	c #D8772D",
"x$	c #D86B13",
"y$	c #DA6E11",
"z$	c #DB7014",
"A$	c #CF8848",
"B$	c #CC7117",
"C$	c #7A6853",
"D$	c #DAAB74",
"E$	c #D47419",
"F$	c #DD700F",
"G$	c #D76F1B",
"H$	c #D76F1A",
"I$	c #E67E21",
"J$	c #E2791E",
"K$	c #DF7012",
"L$	c #E16F07",
"M$	c #DB6F0C",
"N$	c #D57417",
"O$	c #D4751E",
"P$	c #D4721C",
"Q$	c #DB7119",
"R$	c #DA6D16",
"S$	c #DA6D14",
"T$	c #DC6D14",
"U$	c #DF9C5D",
"V$	c #D5B387",
"W$	c #9B713D",
"X$	c #45686D",
"Y$	c #4B7178",
"Z$	c #CB873E",
"`$	c #DC7415",
" %	c #D36F20",
".%	c #DE7B27",
"+%	c #D87817",
"@%	c #D1701D",
"#%	c #D97314",
"$%	c #DA7215",
"%%	c #D87218",
"&%	c #DA7312",
"*%	c #D97317",
"=%	c #D97319",
"-%	c #DB7117",
";%	c #D96F15",
">%	c #D96E13",
",%	c #D0731E",
"'%	c #D9893C",
")%	c #A2763D",
"!%	c #4D6B67",
"~%	c #316F7F",
"{%	c #386F77",
"]%	c #C87B35",
"^%	c #D4711C",
"/%	c #DD7F2E",
"(%	c #DCA45C",
"_%	c #CE8852",
":%	c #E26C18",
"<%	c #D77215",
"[%	c #DA7313",
"}%	c #DC7116",
"|%	c #DF7117",
"1%	c #DE7018",
"2%	c #DC6E1A",
"3%	c #CE721B",
"4%	c #CF9F65",
"5%	c #456D77",
"6%	c #456371",
"7%	c #D78239",
"8%	c #D8731D",
"9%	c #E6BC86",
"0%	c #D39E60",
"a%	c #D66E16",
"b%	c #D57118",
"c%	c #D77214",
"d%	c #DB7213",
"e%	c #DB7217",
"f%	c #DA7218",
"g%	c #D97218",
"h%	c #D7721A",
"i%	c #CD7526",
"j%	c #D7AD78",
"k%	c #CB874C",
"l%	c #CB7B35",
"m%	c #D58F49",
"n%	c #CF7B2E",
"o%	c #D86C16",
"p%	c #D37013",
"q%	c #D47116",
"r%	c #DC7013",
"s%	c #DB7118",
"t%	c #DB6F12",
"u%	c #DC6F11",
"v%	c #DE7216",
"w%	c #CA7932",
"x%	c #D69D57",
"y%	c #D57B35",
"z%	c #D16A26",
"A%	c #D57416",
"B%	c #D47313",
"C%	c #DC7220",
"D%	c #CB7528",
"E%	c #D4965E",
"F%	c #E8BC8F",
"G%	c #E2B990",
"H%	c #E3B88F",
"I%	c #E3B68C",
"J%	c #E5B68F",
"                                                                              ",
"                                                                              ",
"                  . +       @                                                 ",
"                  # $     % &       * =       - ;                             ",
"            > , ' ) ! ~   { ]     ^ / (   _ : < [                             ",
"          } | 1 2 3 4 5 6 7 8 9 0 a b c d e f g h i j k l                     ",
"          m   n o p   q r s t u v   w x y z A B C D E F                       ",
"              G H     I J K L M N O P Q R S T U V W X Y Z `  ...+.@.          ",
"            #.$.%.&.  *.=.-.;.>.,.'.).!.~.{.].^./.(._.:.<.[.}.|.1.            ",
"            2.3.4.5.6.7.8.9.0.a.b.c.d.e.S f.g.g.g.h.h.i.j.k.l.m.              ",
"            n.o.p.q.r.s.t.    u.v.w.x.S {.f.g.g.g.y.y.z.A.B.C.                ",
"              D.E.F.G.H.I.  J.K.L.M.N.O.P.g.h.g.Q.R.R.S.T.U.                  ",
"                      V.W.X.Y.Z.`. +.+++@+#+$+g.Q.W %+&+*+=+-+                ",
"                                      ;+>+,+'+P.)+!+~+{+]+^+/+(+              ",
"                                    _+:+<+@+@+[+,+}+|+1+2+3+4+5+6+            ",
"                                  7+8+9+0+@+a+b+c+d+e+                        ",
"                                f+g+h+)+x.i+j+k+l+m+n+                        ",
"                              o+p+q+r+s+t+u+v+w+x+y+z+A+                      ",
"                            B+C+D+E+F+G+H+I+J+K+L+M+N+O+                      ",
"                          P+Q+R+S+  T+U+V+W+X+Y+Z+                            ",
"                          `+ @.@    +@@@D+#@$@%@&@*@                          ",
"                        =@j+-@w.;@>@,@'@)@!@~@,+{@]@^@/@(@                    ",
"                        _@O.:@#+<@[@)@,+[+}@|@1@2@3@4@5@6@7@8@      9@        ",
"                          0@a@b@c@%+d@e@1@f@g@,@h@i@j@z k@l@m@n@o@p@q@        ",
"                              r@s@t@u@v@w@x@3@y@z@A@B@C@D@E@F@G@H@I@J@        ",
"                                          K@L@M@N@O@P@Q@R@S@T@U@V@W@X@        ",
"                                                      Y@Z@`@ #.#+#@###$#      ",
"                                                        %#&#*#=#-#;#>#,#'#)#  ",
"                                                          !#~#{#]#^#/#(#_#    ",
"                                                            :#1@<#C@[#}#      ",
"                                                            |#1#2#3#<#4#      ",
"                                                            5#6#7#8#9#0#      ",
"                                                            a#b#c#d#e#f#g#    ",
"                  h#i#j#                                    k#l#m#n#o#p#q#    ",
"                r#s#t#u#v#                                w#x#y#z#y#A#B#C#    ",
"              D#E#    F#G#H#                              I#J#K#L#M#N#        ",
"              O#P#Q#R#S#T#U#V#                          W#X#U Y#Z#)+`#        ",
"               $.$+$@$      #$$$                      %$&$*$3#=$-$;$>$,$      ",
"              '$)$!$~$      {$]$^$                    /$J#($_$:$<$[$}$|$      ",
"                ].1$2$3$4$5$6$7$8$9$              0$a$b$c$d$e$f$g$h$i$j$      ",
"                k$l$m$n$o$3#p$q$r$s$3#t$u$    v$w$x$y$z$A$    B$C$            ",
"                D$E$F$G$H$d@I$J$h+K$L$M$N$O$P$Q$R$S$T$E@U$  V$W$X$Y$          ",
"                  Z$`$k+ %.%+%@%#%$%%%)@&%*%=%{#-%/.;%>%,%'%)%!%~%{%          ",
"                    ]%^%/%(%    _%:%N.<%[%}%R |%1%2%]#Q.3%4%    5%6%          ",
"                      7%8%9%    0%a%b%c%d%e%g@|@f%g%h%i%j%                    ",
"                        k%l%m%n%o%p%q%c.r%s%C@t%u%v%w%                        ",
"                            x%y%z%A%B%)@r+C%g+D%E%F%                          ",
"                                    G%H%I%J%                                  ",
"                                                                              ",
"                                                                              ",
"                                                                              ",
"                                                                              "};
