/* XPM */
static char * 4_xpm[] = {
"39 54 511 2",
"  	c None",
". 	c #E9D251",
"+ 	c #F3DA6C",
"@ 	c #EDD766",
"# 	c #F9CD31",
"$ 	c #F7D878",
"% 	c #5E8489",
"& 	c #598188",
"* 	c #8CA8AB",
"= 	c #EBD64E",
"- 	c #E8CE44",
"; 	c #EAD87D",
"> 	c #F2E694",
", 	c #F7D165",
"' 	c #F1DF9B",
") 	c #436F7A",
"! 	c #37717F",
"~ 	c #36707E",
"{ 	c #336F7C",
"] 	c #396D7C",
"^ 	c #7596A4",
"/ 	c #709286",
"( 	c #4C7462",
"_ 	c #436F5A",
": 	c #406D67",
"< 	c #55777F",
"[ 	c #97AA67",
"} 	c #E8CF58",
"| 	c #F8D23B",
"1 	c #6C8D90",
"2 	c #3B6E7C",
"3 	c #387280",
"4 	c #36717F",
"5 	c #386E7E",
"6 	c #376A7C",
"7 	c #386A7C",
"8 	c #4A7876",
"9 	c #799198",
"0 	c #416B72",
"a 	c #366E77",
"b 	c #396D7B",
"c 	c #376B7A",
"d 	c #477C93",
"e 	c #5A90A8",
"f 	c #45726A",
"g 	c #A39B5A",
"h 	c #EFDF7F",
"i 	c #367171",
"j 	c #37727B",
"k 	c #3E7B88",
"l 	c #397683",
"m 	c #38707F",
"n 	c #37707E",
"o 	c #33727D",
"p 	c #37757E",
"q 	c #3A717B",
"r 	c #396E79",
"s 	c #31717A",
"t 	c #2F737A",
"u 	c #327279",
"v 	c #3F7B84",
"w 	c #73ABB7",
"x 	c #70B3BB",
"y 	c #41818F",
"z 	c #5B7575",
"A 	c #507C7F",
"B 	c #327072",
"C 	c #5896A0",
"D 	c #76B4C1",
"E 	c #51909C",
"F 	c #33727E",
"G 	c #316F7B",
"H 	c #5E9EA7",
"I 	c #69A6B2",
"J 	c #306C76",
"K 	c #346F7A",
"L 	c #33717A",
"M 	c #32717B",
"N 	c #32717E",
"O 	c #4D8A99",
"P 	c #79AFBE",
"Q 	c #5C97A4",
"R 	c #326F85",
"S 	c #537B7F",
"T 	c #366C73",
"U 	c #306F76",
"V 	c #5796A0",
"W 	c #6EACB9",
"X 	c #3D7B88",
"Y 	c #357480",
"Z 	c #306F79",
"` 	c #71B1BA",
" .	c #61A0A8",
"..	c #347279",
"+.	c #337179",
"@.	c #32717A",
"#.	c #33727C",
"$.	c #32717C",
"%.	c #33707D",
"&.	c #3E7684",
"*.	c #36707D",
"=.	c #337081",
"-.	c #587D60",
";.	c #EDD755",
">.	c #F7D766",
",.	c #679C9D",
"'.	c #37727F",
").	c #316F7D",
"!.	c #32707C",
"~.	c #317079",
"{.	c #34707A",
"].	c #34717B",
"^.	c #34717E",
"/.	c #397681",
"(.	c #357378",
"_.	c #327479",
":.	c #32727A",
"<.	c #36757F",
"[.	c #5A98A2",
"}.	c #57969E",
"|.	c #36737C",
"1.	c #396F7C",
"2.	c #37717E",
"3.	c #386E7F",
"4.	c #5F7C5E",
"5.	c #F7D14F",
"6.	c #F6D23E",
"7.	c #F3E69C",
"8.	c #336C71",
"9.	c #336F79",
"0.	c #35707A",
"a.	c #37707B",
"b.	c #37707C",
"c.	c #39727C",
"d.	c #376E72",
"e.	c #5B9397",
"f.	c #38727C",
"g.	c #5995A0",
"h.	c #71AFB9",
"i.	c #609FA6",
"j.	c #347179",
"k.	c #386E7B",
"l.	c #336F7B",
"m.	c #56845A",
"n.	c #EFD965",
"o.	c #F5EA9B",
"p.	c #376F76",
"q.	c #32707D",
"r.	c #33707B",
"s.	c #3A6F7B",
"t.	c #38707C",
"u.	c #337278",
"v.	c #7A939F",
"w.	c #3C737C",
"x.	c #70ACB5",
"y.	c #70AEB7",
"z.	c #36767C",
"A.	c #316F76",
"B.	c #37707D",
"C.	c #326F7D",
"D.	c #63857E",
"E.	c #829FA5",
"F.	c #366D74",
"G.	c #32707A",
"H.	c #33717C",
"I.	c #34707B",
"J.	c #35717B",
"K.	c #36707B",
"L.	c #38707B",
"M.	c #356F7B",
"N.	c #477F86",
"O.	c #3B7177",
"P.	c #448388",
"Q.	c #3C7982",
"R.	c #327077",
"S.	c #376E7A",
"T.	c #38707D",
"U.	c #327080",
"V.	c #6E877E",
"W.	c #50747D",
"X.	c #346D76",
"Y.	c #337079",
"Z.	c #356F7C",
"`.	c #35707B",
" +	c #33717B",
".+	c #3A6F75",
"++	c #386E6F",
"@+	c #337274",
"#+	c #337078",
"$+	c #336F7A",
"%+	c #376E7B",
"&+	c #32717F",
"*+	c #738963",
"=+	c #F4D246",
"-+	c #EFDB65",
";+	c #386C76",
">+	c #326D77",
",+	c #3B6F7A",
"'+	c #7E9CA2",
")+	c #386C6D",
"!+	c #326E79",
"~+	c #346E7C",
"{+	c #356E7C",
"]+	c #306E7C",
"^+	c #728C60",
"/+	c #EED346",
"(+	c #F7CB57",
"_+	c #8AABB2",
":+	c #357079",
"<+	c #326F7A",
"[+	c #476D7B",
"}+	c #477779",
"|+	c #326E77",
"1+	c #336D79",
"2+	c #356D7F",
"3+	c #386D7C",
"4+	c #367380",
"5+	c #6D8B69",
"6+	c #E5E18F",
"7+	c #5F858D",
"8+	c #33727A",
"9+	c #4F8F95",
"0+	c #44838D",
"a+	c #34707C",
"b+	c #34717C",
"c+	c #327179",
"d+	c #37727C",
"e+	c #87A1AC",
"f+	c #5E878A",
"g+	c #346E79",
"h+	c #346F7C",
"i+	c #386D7E",
"j+	c #316C84",
"k+	c #7F9C97",
"l+	c #3C6B75",
"m+	c #52969D",
"n+	c #74B9BC",
"o+	c #54959E",
"p+	c #386E7A",
"q+	c #4D7183",
"r+	c #729599",
"s+	c #396F79",
"t+	c #33707C",
"u+	c #356E7F",
"v+	c #35747C",
"w+	c #7C9A6D",
"x+	c #91AFB1",
"y+	c #366C77",
"z+	c #62A4AC",
"A+	c #66A8AD",
"B+	c #387980",
"C+	c #436977",
"D+	c #8EACB3",
"E+	c #3C707B",
"F+	c #36727C",
"G+	c #32717D",
"H+	c #357080",
"I+	c #386F7E",
"J+	c #36737D",
"K+	c #83945E",
"L+	c #F2CA56",
"M+	c #F5E597",
"N+	c #618A8A",
"O+	c #346E77",
"P+	c #3E7A84",
"Q+	c #38757D",
"R+	c #2F6D75",
"S+	c #347079",
"T+	c #337178",
"U+	c #67828E",
"V+	c #3C6F7A",
"W+	c #35727C",
"X+	c #34727E",
"Y+	c #39707E",
"Z+	c #37717D",
"`+	c #397181",
" @	c #869357",
".@	c #F5D03D",
"+@	c #EDD554",
"@@	c #3D6A6F",
"#@	c #346F79",
"$@	c #47838E",
"%@	c #67A4AD",
"&@	c #39767F",
"*@	c #346C76",
"=@	c #3A7476",
"-@	c #366A75",
";@	c #3A707E",
">@	c #376E7D",
",@	c #84966E",
"'@	c #396F75",
")@	c #346E7A",
"!@	c #5C99A4",
"~@	c #6EAFB8",
"{@	c #35737F",
"]@	c #366A73",
"^@	c #88A4A8",
"/@	c #36717C",
"(@	c #376F7D",
"_@	c #3A6F7D",
":@	c #38727D",
"<@	c #819C8F",
"[@	c #71939D",
"}@	c #366F79",
"|@	c #4F8C98",
"1@	c #458692",
"2@	c #306D7A",
"3@	c #3B6B74",
"4@	c #376C73",
"5@	c #3A6F7C",
"6@	c #7D9068",
"7@	c #ECD979",
"8@	c #406F7B",
"9@	c #346F7B",
"0@	c #35717D",
"a@	c #33717D",
"b@	c #336E7B",
"c@	c #4E838C",
"d@	c #8DB8BA",
"e@	c #7AA2A4",
"f@	c #6B9497",
"g@	c #588288",
"h@	c #46727B",
"i@	c #43707C",
"j@	c #386E76",
"k@	c #376F78",
"l@	c #346D75",
"m@	c #33707A",
"n@	c #39707F",
"o@	c #829155",
"p@	c #EED14C",
"q@	c #F5CD56",
"r@	c #336D78",
"s@	c #326D79",
"t@	c #356E79",
"u@	c #377178",
"v@	c #367277",
"w@	c #357176",
"x@	c #377279",
"y@	c #37717B",
"z@	c #37717C",
"A@	c #356F7D",
"B@	c #35707D",
"C@	c #396F7F",
"D@	c #3A6F7E",
"E@	c #336F7D",
"F@	c #779475",
"G@	c #84A0A4",
"H@	c #336C77",
"I@	c #326E78",
"J@	c #346D79",
"K@	c #36707A",
"L@	c #36727A",
"M@	c #37727A",
"N@	c #35707C",
"O@	c #36727D",
"P@	c #386E7D",
"Q@	c #3B6F7D",
"R@	c #36717D",
"S@	c #317380",
"T@	c #6A8F92",
"U@	c #728F94",
"V@	c #356D79",
"W@	c #356D7B",
"X@	c #366F7B",
"Y@	c #39707D",
"Z@	c #36707C",
"`@	c #35727B",
" #	c #326F75",
".#	c #337076",
"+#	c #346F7F",
"@#	c #356E86",
"##	c #396E7D",
"$#	c #376F81",
"%#	c #5A8074",
"&#	c #819DA2",
"*#	c #356F7A",
"=#	c #3F6D77",
"-#	c #3F6D76",
";#	c #4D7B82",
">#	c #5E9093",
",#	c #6F9EA0",
"'#	c #85A4A6",
")#	c #6F949B",
"!#	c #38707E",
"~#	c #366E7A",
"{#	c #316E81",
"]#	c #427559",
"^#	c #E7D653",
"/#	c #F7D24C",
"(#	c #F9DC6D",
"_#	c #407575",
":#	c #306C74",
"<#	c #357078",
"[#	c #386F74",
"}#	c #406E74",
"|#	c #6E8E97",
"1#	c #316E7A",
"2#	c #326F7B",
"3#	c #366F7C",
"4#	c #37707F",
"5#	c #317084",
"6#	c #3C725C",
"7#	c #E0CE5C",
"8#	c #F6D666",
"9#	c #8DB1B4",
"0#	c #84A6A9",
"a#	c #91B1B3",
"b#	c #366C79",
"c#	c #33707F",
"d#	c #347083",
"e#	c #3B716E",
"f#	c #386B78",
"g#	c #35717E",
"h#	c #386F7B",
"i#	c #387178",
"j#	c #377275",
"k#	c #396D79",
"l#	c #367080",
"m#	c #377180",
"n#	c #3A7081",
"o#	c #447D7D",
"p#	c #ADAF87",
"q#	c #3D6E79",
"r#	c #376F7E",
"s#	c #376F7A",
"t#	c #437E8B",
"u#	c #3F7889",
"v#	c #989A5E",
"w#	c #F4CF43",
"x#	c #F3D758",
"y#	c #4A7A82",
"z#	c #39707A",
"A#	c #3A707A",
"B#	c #3A7076",
"C#	c #437C80",
"D#	c #3A797F",
"E#	c #2E7281",
"F#	c #8D9766",
"G#	c #EDD347",
"H#	c #E6D754",
"I#	c #528087",
"J#	c #3A707C",
"K#	c #447C84",
"L#	c #3D777F",
"M#	c #37747D",
"N#	c #2E7273",
"O#	c #748F7A",
"P#	c #668F96",
"Q#	c #376C7A",
"R#	c #427986",
"S#	c #3D7680",
"T#	c #357076",
"U#	c #628889",
"V#	c #70959C",
"W#	c #437987",
"X#	c #3E7885",
"Y#	c #609BA6",
"Z#	c #5A847F",
"`#	c #88AAB1",
" $	c #417786",
".$	c #407A86",
"+$	c #61A0A7",
"@$	c #35707F",
"#$	c #527B6F",
"$$	c #F0CE54",
"%$	c #F4D872",
"&$	c #8EB1B3",
"*$	c #3A7079",
"=$	c #39747E",
"-$	c #56949E",
";$	c #35757F",
">$	c #316E79",
",$	c #52796D",
"'$	c #F8CE4A",
")$	c #396C75",
"!$	c #356F78",
"~$	c #2E6C75",
"{$	c #30707B",
"]$	c #336F7E",
"^$	c #4F7871",
"/$	c #ECD580",
"($	c #3C6D75",
"_$	c #316F77",
":$	c #417E88",
"<$	c #3E7E89",
"[$	c #336E7D",
"}$	c #588182",
"|$	c #3D6C78",
"1$	c #306F77",
"2$	c #6BA8B1",
"3$	c #5A9AA7",
"4$	c #658D91",
"5$	c #447076",
"6$	c #36717A",
"7$	c #317179",
"8$	c #44818A",
"9$	c #347581",
"0$	c #81A8A9",
"a$	c #7A999B",
"b$	c #347178",
"c$	c #32727B",
"d$	c #31717B",
"e$	c #3A6F77",
"f$	c #517B84",
"g$	c #33727B",
"h$	c #37717A",
"i$	c #7FA2A7",
"j$	c #477076",
"k$	c #376A6F",
"l$	c #6F959A",
"                                                                              ",
"                                                                              ",
"                                                                              ",
"                                                                              ",
"                                                                              ",
"                                                . +                           ",
"                                              @ # $                           ",
"                          % & *               = - ;     > , '                 ",
"                        ) ! ~ { ] ^         / ( _ : < [ } |                   ",
"                      1 2 3 4 5 6 7 8   9 0 a b c d e f g h                   ",
"                      i j k l m n o p q r s t u v w x y z                     ",
"                    A B C D E F G H I J K L M N O P Q R S                     ",
"                    T U V W X Y Z `  ...+.@.#.$.%.&.*.=.-.;.>.                ",
"                  ,.'.).!.~.{.].^./.(._.:.<.[.}.|.1.2.3.4.5.6.7.              ",
"                  8.M ).!.9.0.a.b.c.d.e.f.g.h.i.j.k.*.l.m.n.o.                ",
"                  p.Z q.r.{.a.s.t.u.v.  w.x.y.z.A.k.B.C.D.                    ",
"                E.F.G.H.I.J.K.L.M.N.    O.P.Q.R.9.S.T.U.V.                    ",
"                W.X.Y.{.Z.`.K. +.+      ++@+#+$+K %+T.&+*+=+-+                ",
"                ;+>+$+M.M.r.].,+'+      )+A.!+~+{+k.T.]+^+/+(+                ",
"              _+:+~.<+M.M.r.@.[+        }+|+1+{+2+3+T.4+5+6+                  ",
"              7+8+9+0+a+b+c+d+e+        f+X.g+h+2+i+t.j+k+                    ",
"              l+m+n+o+M ].p+q+          r+s+K.t+u+5 T.v+w+                    ",
"            x+y+z+A+B+@.{.C+            D+E+F+G+H+I+t.J+K+L+M+                ",
"            N+O+P+Q+R+S+T+U+              V+W+X+4 Y+Z+`+ @.@+@                ",
"            @@#@$@%@&@*@=@                -@G.I.2.;@Z+>@,@                    ",
"            '@)@!@~@{@]@^@                -@+./@(@_@~ :@<@                    ",
"          [@}@Z.|@1@2@3@                  4@T+K.1.5@~ m 6@7@                  ",
"          8@g+9@0@a@b@c@d@e@f@g@h@i@j@k@l@#@m@K.5@_@~ n@o@p@q@                ",
"          }@r@g+I.I.s@t@u@v@w@x@y@z@A@B@b+r.b+! C@D@*.E@F@                    ",
"        G@H@I@9.I.I.K J@K@L@M@j a.B.2.N@b+b+O@*.P@Q@R@S@T@                    ",
"        U@V@9.9.I.I.9@W@X@M@j t.Y@Z@`@ #.#+#@#(@##;@b.$#%#                    ",
"        &#*#r.r. +`.`.B@k.=#-#;#>#,#'#    )#!#~#k.5@!#{#]#^#/#(#              ",
"          _#:#|+<#[#}#|#                    S.1#2#3#4#5#6#7#8#                ",
"            9#0#a#                          b#c#c#3#B.d#e#                    ",
"                                            f#4 g#h#i#4 j#                    ",
"                                            k#l#m#n#B.~ o#p#                  ",
"                                            q#r#Y+D@s#t#u#v#w#x#              ",
"                                            y#z#A#B#C#D#E#F#G#H#              ",
"                                            I#J#J#K#L#M#N#O#                  ",
"                                            P#Q#R#S#:+!#T#U#                  ",
"                                            V#W#X#b.Y#%@%.Z#                  ",
"                                            `# $3#.$h.+$@$#$$$%$              ",
"                                            &$*$z@=$-$;$>$,$'$6.              ",
"                                              )$!$0.~${$]$^$/$                ",
"                                              ($!$_$:$<$[$}$                  ",
"                                              |$s#1$2$3$C.4$                  ",
"                                              5$6$7$8$9$G.0$                  ",
"                                              a$b$c$].d$e$                    ",
"                                                f${.g$h$i$                    ",
"                                                  j$k$l$                      ",
"                                                                              ",
"                                                                              ",
"                                                                              ",
"                                                                              "};
