/* XPM */
static char * 5_xpm[] = {
"41 54 667 2",
"  	c None",
". 	c #D8C2A4",
"+ 	c #D28E59",
"@ 	c #BF8F4B",
"# 	c #D98A47",
"$ 	c #E08C41",
"% 	c #D49867",
"& 	c #C98450",
"* 	c #DEC6A5",
"= 	c #D8965C",
"- 	c #CF8E5A",
"; 	c #AF803D",
"> 	c #D67324",
", 	c #CF7D31",
"' 	c #DEAC77",
") 	c #DDC09B",
"! 	c #A0B9A9",
"~ 	c #8CA69E",
"{ 	c #87A997",
"] 	c #87B4AB",
"^ 	c #CB7423",
"/ 	c #DA761E",
"( 	c #E2A067",
"_ 	c #A39869",
": 	c #94A9A8",
"< 	c #7BA5BB",
"[ 	c #70ADB8",
"} 	c #71B1AF",
"| 	c #70B0B2",
"1 	c #72B1B3",
"2 	c #74B3BB",
"3 	c #76B4BC",
"4 	c #A0CACF",
"5 	c #B08951",
"6 	c #A28F67",
"7 	c #90A99F",
"8 	c #9DCAC8",
"9 	c #6FB3AD",
"0 	c #76B3B3",
"a 	c #74B0B4",
"b 	c #78B2B8",
"c 	c #73B3BB",
"d 	c #71B6BA",
"e 	c #76B8B7",
"f 	c #CF782B",
"g 	c #C37A26",
"h 	c #DE9263",
"i 	c #86A899",
"j 	c #77B0B3",
"k 	c #74AFBD",
"l 	c #70B4AD",
"m 	c #A8C7CC",
"n 	c #7BB6B6",
"o 	c #8DC8C8",
"p 	c #8DC6C5",
"q 	c #9DD2CA",
"r 	c #CD7F3B",
"s 	c #D37815",
"t 	c #DE6D1E",
"u 	c #CD7527",
"v 	c #B6AA7E",
"w 	c #A9C7B3",
"x 	c #85BCBD",
"y 	c #8DC9CE",
"z 	c #79B9C0",
"A 	c #6AAEB8",
"B 	c #92CACC",
"C 	c #95C7C4",
"D 	c #72B7B5",
"E 	c #A9C9CD",
"F 	c #9CC0BF",
"G 	c #B9DCDC",
"H 	c #75B5AE",
"I 	c #C37731",
"J 	c #C5763F",
"K 	c #B3B59A",
"L 	c #AACED2",
"M 	c #8FC7C6",
"N 	c #6EB4B6",
"O 	c #78B3B9",
"P 	c #8DCBD0",
"Q 	c #78B8BC",
"R 	c #6DAEB0",
"S 	c #6EB0B8",
"T 	c #71B0BB",
"U 	c #79B3AE",
"V 	c #9AD1D1",
"W 	c #73B4B2",
"X 	c #6EB6B0",
"Y 	c #9BA489",
"Z 	c #96A4A0",
"` 	c #98C8CB",
" .	c #6FB3B3",
"..	c #83C3C5",
"+.	c #8AC5C9",
"@.	c #76AFB2",
"#.	c #74B0AE",
"$.	c #91BBBF",
"%.	c #8CBEC0",
"&.	c #6DB1B6",
"*.	c #6FAEBB",
"=.	c #A2CFD2",
"-.	c #9FCFCE",
";.	c #72B6B2",
">.	c #66B4AF",
",.	c #68B7B7",
"'.	c #6BB9B8",
").	c #6DB9B7",
"!.	c #95C4C3",
"~.	c #7DB6B1",
"{.	c #6FAFB7",
"].	c #6EABB7",
"^.	c #98C8CD",
"/.	c #74B6B1",
"(.	c #74B4B3",
"_.	c #83C2C3",
":.	c #84B6B8",
"<.	c #74B1B6",
"[.	c #6EB1BC",
"}.	c #73B7B9",
"|.	c #75B7BA",
"1.	c #6EB6B9",
"2.	c #6DB6B8",
"3.	c #6FB3B6",
"4.	c #6EB4B4",
"5.	c #70B7B7",
"6.	c #6FB8B6",
"7.	c #80B2B2",
"8.	c #CC7731",
"9.	c #DC6D1C",
"0.	c #D9712C",
"a.	c #B68A3F",
"b.	c #7FAEA7",
"c.	c #7EB9C1",
"d.	c #7FB5BD",
"e.	c #7FADB5",
"f.	c #A5CBD2",
"g.	c #9ECCCD",
"h.	c #79B8B5",
"i.	c #6BB6B4",
"j.	c #A3CED1",
"k.	c #72ADB7",
"l.	c #6EB3BC",
"m.	c #6FB5BC",
"n.	c #71B5BA",
"o.	c #71B4B9",
"p.	c #70B4B9",
"q.	c #70B6B7",
"r.	c #7DB0B2",
"s.	c #D1701E",
"t.	c #D4750C",
"u.	c #D27521",
"v.	c #A49271",
"w.	c #98C6D0",
"x.	c #A1C7D0",
"y.	c #96C3C2",
"z.	c #85C7C3",
"A.	c #6DB6B5",
"B.	c #A4CDCE",
"C.	c #71B4B8",
"D.	c #6FB6BA",
"E.	c #78BDC2",
"F.	c #72B6B9",
"G.	c #72B5B9",
"H.	c #70B5BA",
"I.	c #70B6BA",
"J.	c #6FB6B9",
"K.	c #70B6B9",
"L.	c #97C7C9",
"M.	c #D8AF86",
"N.	c #CC781B",
"O.	c #CF781B",
"P.	c #9CA08B",
"Q.	c #92C7C8",
"R.	c #6FACB1",
"S.	c #7AA9AE",
"T.	c #77AFAA",
"U.	c #70B1B5",
"V.	c #75B0B8",
"W.	c #98C7CE",
"X.	c #95CDCE",
"Y.	c #71B5B2",
"Z.	c #6EB6B5",
"`.	c #70B6B5",
" +	c #74B9BA",
".+	c #7ABCBF",
"++	c #74B5BA",
"@+	c #72B6BA",
"#+	c #71B5B9",
"$+	c #70B5B9",
"%+	c #7EB3BA",
"&+	c #DDB97C",
"*+	c #B87E3D",
"=+	c #90A193",
"-+	c #92CACB",
";+	c #6FB1B4",
">+	c #77ACB1",
",+	c #88C3BE",
"'+	c #6FB2B1",
")+	c #70B0B9",
"!+	c #72B0BA",
"~+	c #73B0BA",
"{+	c #70B6B4",
"]+	c #70B5B4",
"^+	c #71B4B5",
"/+	c #73B4B7",
"(+	c #75B9BA",
"_+	c #7CBDC1",
":+	c #75B1B8",
"<+	c #7CB1BA",
"[+	c #8DC1C5",
"}+	c #AFD5D8",
"|+	c #84ADA9",
"1+	c #81BDBE",
"2+	c #94CFD3",
"3+	c #96CBD2",
"4+	c #91C4CD",
"5+	c #6EB3B7",
"6+	c #74B2BA",
"7+	c #73B0BB",
"8+	c #6DB3BB",
"9+	c #6FB3BB",
"0+	c #70B3B7",
"a+	c #70B1B3",
"b+	c #74B2B2",
"c+	c #7EB7B8",
"d+	c #87BCBE",
"e+	c #9FCFD1",
"f+	c #B3D1D4",
"g+	c #8EBDBB",
"h+	c #70B2B2",
"i+	c #73B1B4",
"j+	c #77B4B7",
"k+	c #71AFB3",
"l+	c #72B5B8",
"m+	c #73B3B7",
"n+	c #73B1B7",
"o+	c #74B0B2",
"p+	c #90C1C3",
"q+	c #A1D1CF",
"r+	c #8AB1A9",
"s+	c #7CC3C1",
"t+	c #6AB3B3",
"u+	c #69B4B2",
"v+	c #69B5B2",
"w+	c #78AFB1",
"x+	c #ADD3D6",
"y+	c #B4793F",
"z+	c #A4BAA3",
"A+	c #85C8C9",
"B+	c #6CB1B2",
"C+	c #68B4B1",
"D+	c #86B7BA",
"E+	c #E1955B",
"F+	c #DFA267",
"G+	c #A8BAA2",
"H+	c #6FB2B3",
"I+	c #6FAFB3",
"J+	c #6DB1B4",
"K+	c #69B3B3",
"L+	c #84B6BB",
"M+	c #ABD2D1",
"N+	c #A0CBCA",
"O+	c #98C4C4",
"P+	c #93C0C0",
"Q+	c #99C3C4",
"R+	c #A7C9CB",
"S+	c #C4A17E",
"T+	c #CE752B",
"U+	c #C3772C",
"V+	c #939B75",
"W+	c #69B5B3",
"X+	c #6EB0B3",
"Y+	c #6CB2B3",
"Z+	c #6AB2B4",
"`+	c #78B3B7",
" @	c #9AD1D0",
".@	c #7DB6B2",
"+@	c #73B1AE",
"@@	c #71B6B6",
"#@	c #6FB5B7",
"$@	c #6EB5B8",
"%@	c #6CB5B7",
"&@	c #6CB4B6",
"*@	c #71B3B5",
"=@	c #72B0B2",
"-@	c #7FAFB2",
";@	c #9CC7CA",
">@	c #DEB585",
",@	c #CE873F",
"'@	c #9C9C7B",
")@	c #6CB3B9",
"!@	c #6DB2B8",
"~@	c #6CB1B8",
"{@	c #6EB2B7",
"]@	c #6FB1B5",
"^@	c #6EB2B2",
"/@	c #71B6B1",
"(@	c #70B5B3",
"_@	c #70B4B8",
":@	c #70B3BB",
"<@	c #6FB4BA",
"[@	c #6FB4B9",
"}@	c #6FB5B9",
"|@	c #6EB5B9",
"1@	c #A0C9C6",
"2@	c #AFC0BE",
"3@	c #73B1BA",
"4@	c #6DB3B6",
"5@	c #6DB3B9",
"6@	c #6EB2B8",
"7@	c #6FB3B8",
"8@	c #70B3BA",
"9@	c #70B3BC",
"0@	c #6EB5BA",
"a@	c #6CB6BA",
"b@	c #6BB6B9",
"c@	c #69B6B9",
"d@	c #6AB6B7",
"e@	c #71B4B7",
"f@	c #7CB1B6",
"g@	c #A3AA9F",
"h@	c #71B3B8",
"i@	c #6AB4B4",
"j@	c #6DB4B8",
"k@	c #6DB4B9",
"l@	c #6DB5BA",
"m@	c #6DB6BA",
"n@	c #6FB4BB",
"o@	c #70B4B6",
"p@	c #7BB3B4",
"q@	c #D9995A",
"r@	c #D46E18",
"s@	c #A48F6B",
"t@	c #71B6BB",
"u@	c #6BB5B6",
"v@	c #6EB4BA",
"w@	c #6CB4BA",
"x@	c #6EB5BB",
"y@	c #6FB1BB",
"z@	c #90B7BE",
"A@	c #CF7C31",
"B@	c #D46F14",
"C@	c #DA6F0F",
"D@	c #B48857",
"E@	c #70B4B4",
"F@	c #6FB4B8",
"G@	c #6DB5B8",
"H@	c #6DB6B9",
"I@	c #6CB6B9",
"J@	c #6FB5B8",
"K@	c #6EB3B9",
"L@	c #97C6C8",
"M@	c #CB8E5A",
"N@	c #D16F19",
"O@	c #D07419",
"P@	c #B5834D",
"Q@	c #78B1A9",
"R@	c #6FB3BA",
"S@	c #70B4BA",
"T@	c #71B2BB",
"U@	c #6EB4B7",
"V@	c #6EB5B5",
"W@	c #67B0B0",
"X@	c #DAAA77",
"Y@	c #C3926F",
"Z@	c #86AA9C",
"`@	c #6BB7B6",
" #	c #6CB6B6",
".#	c #6CB6B8",
"+#	c #71B3B9",
"@#	c #71AEB3",
"##	c #78B2B4",
"$#	c #82BCBB",
"%#	c #8CC4C4",
"&#	c #8EC6C4",
"*#	c #8CC4C5",
"=#	c #7FBBBF",
"-#	c #75B3B7",
";#	c #6FB6B6",
">#	c #6CB5B4",
",#	c #6FB5B5",
"'#	c #6FB4B7",
")#	c #6DB5B6",
"!#	c #65B9B6",
"~#	c #6AB8B3",
"{#	c #67B7B4",
"]#	c #84BCBC",
"^#	c #77B5B4",
"/#	c #6EB6AE",
"(#	c #6BB5B0",
"_#	c #6FB8B4",
":#	c #6EB5B3",
"<#	c #74B3B2",
"[#	c #ACD0D3",
"}#	c #8ABDBC",
"|#	c #6FB4AE",
"1#	c #6CB6B2",
"2#	c #6AB7B5",
"3#	c #65B8B3",
"4#	c #6FB3B4",
"5#	c #7EBABA",
"6#	c #6FAFAF",
"7#	c #9BC3C4",
"8#	c #7DB3AF",
"9#	c #7CB4AF",
"0#	c #8BBFBC",
"a#	c #89BEBA",
"b#	c #6EB6B1",
"c#	c #6FB3B7",
"d#	c #6BB6B5",
"e#	c #6FB5B3",
"f#	c #98C7CA",
"g#	c #7CB8B7",
"h#	c #AACECE",
"i#	c #7EADAF",
"j#	c #6EB4B5",
"k#	c #6FB4B4",
"l#	c #72B3B3",
"m#	c #84B2B6",
"n#	c #87C1C6",
"o#	c #79B1AE",
"p#	c #73ADAE",
"q#	c #7BB3B5",
"r#	c #9ECCCB",
"s#	c #A7D1D2",
"t#	c #6FB5B4",
"u#	c #93CAC9",
"v#	c #8BC1BE",
"w#	c #72B1B5",
"x#	c #77B4B9",
"y#	c #70B5B5",
"z#	c #6BB5B7",
"A#	c #6BB3BA",
"B#	c #6CB2B9",
"C#	c #75B4AF",
"D#	c #A0D4D3",
"E#	c #70ADB4",
"F#	c #6DB3B5",
"G#	c #6EB4B2",
"H#	c #6EB6B2",
"I#	c #6FB7B7",
"J#	c #71B3B6",
"K#	c #A1C7C7",
"L#	c #6BB3B8",
"M#	c #6DB2B9",
"N#	c #6EB1B8",
"O#	c #6EB3B6",
"P#	c #6DB4B5",
"Q#	c #A2C3CD",
"R#	c #76AEB8",
"S#	c #6CB6B5",
"T#	c #70B6B6",
"U#	c #70B5B7",
"V#	c #A3C9CB",
"W#	c #85B4B4",
"X#	c #6BB3B7",
"Y#	c #6BB3B9",
"Z#	c #6FB5BA",
"`#	c #78ABB2",
" $	c #79B1BA",
".$	c #75B2B8",
"+$	c #73B2B5",
"@$	c #6EB6B7",
"#$	c #6DB7B6",
"$$	c #6CB8B6",
"%$	c #9EC6C9",
"&$	c #74AEB0",
"*$	c #6CB4B8",
"=$	c #6EB3B8",
"-$	c #6CB5B9",
";$	c #6EB3BA",
">$	c #78AEB5",
",$	c #7BB4B2",
"'$	c #6FB5B6",
")$	c #6DB8B8",
"!$	c #6BB8B8",
"~$	c #6BB8B7",
"{$	c #9CC6C9",
"]$	c #78B2B5",
"^$	c #6BB5B9",
"/$	c #74AAB1",
"($	c #ABD1CB",
"_$	c #69B1AD",
":$	c #7BB8B8",
"<$	c #7AB4B7",
"[$	c #76BABD",
"}$	c #97C1C4",
"|$	c #75B0AA",
"1$	c #71B4BA",
"2$	c #70B5B8",
"3$	c #6EB6BA",
"4$	c #73ACB2",
"5$	c #98C0C4",
"6$	c #B7D5D7",
"7$	c #84B0AF",
"8$	c #78B4B9",
"9$	c #9DC5C8",
"0$	c #85BFB6",
"a$	c #70B5BB",
"b$	c #6FB6B7",
"c$	c #6DB4B6",
"d$	c #86B9B8",
"e$	c #A9CFD0",
"f$	c #71B1B6",
"g$	c #B0D6D7",
"h$	c #A6D6D0",
"i$	c #7CBABC",
"j$	c #74B4B9",
"k$	c #6FB6B8",
"l$	c #69B8B8",
"m$	c #84BCB9",
"n$	c #AAD1CD",
"o$	c #6CB7B2",
"p$	c #70B2B7",
"q$	c #74B2B1",
"r$	c #7FB8B8",
"s$	c #76B0B6",
"t$	c #78B0B3",
"u$	c #78B8BD",
"v$	c #70B7B3",
"w$	c #95C6C5",
"x$	c #78B2AD",
"y$	c #6DB4B1",
"z$	c #74B1B7",
"A$	c #78B0B1",
"B$	c #97C8C8",
"C$	c #82BCBA",
"D$	c #6EB4B8",
"E$	c #85BBBE",
"F$	c #89BBB8",
"G$	c #70BDBA",
"H$	c #76BBC0",
"I$	c #72B7BC",
"J$	c #82BAC2",
"K$	c #ABD3D1",
"L$	c #73B5B0",
"M$	c #6CB4B1",
"N$	c #6EB2B4",
"O$	c #71B2B8",
"P$	c #75B8BC",
"Q$	c #6EBABA",
"R$	c #69B7B8",
"S$	c #ADD8D9",
"T$	c #6EB2AE",
"U$	c #74B9BD",
"V$	c #71B7BC",
"W$	c #72B5BC",
"X$	c #71B6BC",
"Y$	c #74B3BA",
"Z$	c #77B1B4",
"`$	c #8ABFC2",
" %	c #99CBCC",
".%	c #9BCDCD",
"+%	c #87B9BC",
"@%	c #72AFB1",
"#%	c #6AB4B5",
"$%	c #6EB3B5",
"%%	c #70B1B6",
"&%	c #75BCBD",
"*%	c #6DB6B6",
"=%	c #66B5B2",
"-%	c #67B7B1",
";%	c #80AFAF",
">%	c #8FBFBF",
",%	c #75BABF",
"'%	c #72B7BB",
")%	c #6DB5B7",
"!%	c #6AB6B6",
"~%	c #6AB7B4",
"{%	c #6AB9B6",
"]%	c #67B7B2",
"^%	c #66B7B1",
"/%	c #6AB5B2",
"(%	c #6FB2B4",
"_%	c #75B1B4",
":%	c #76B2B9",
"<%	c #79BCC2",
"[%	c #72B2B6",
"}%	c #97C0C8",
"|%	c #95BEC4",
"1%	c #71B4AF",
"2%	c #6EB1AA",
"3%	c #81B5B9",
"4%	c #71BBC2",
"5%	c #71B7BA",
"6%	c #72B6BB",
"7%	c #74B5BB",
"8%	c #72B7BA",
"9%	c #69BAB8",
"0%	c #68B1AE",
"a%	c #6DB5B1",
"b%	c #6CB5B2",
"c%	c #6BB6B3",
"d%	c #6AB5B0",
"e%	c #71B4B2",
"f%	c #8CBDBF",
"g%	c #8CB6BD",
"h%	c #7DB8C0",
"i%	c #72B7BE",
"j%	c #97CACE",
"k%	c #75B0AF",
"l%	c #B3D9D9",
"m%	c #87B4BA",
"n%	c #70B6BC",
"o%	c #75BAC1",
"p%	c #78BCC3",
"q%	c #72B6BC",
"r%	c #71B6B9",
"s%	c #7DBCBD",
"t%	c #ADD8DA",
"u%	c #8BC6C6",
"v%	c #6EB3B1",
"w%	c #6DB3B3",
"x%	c #80BBB8",
"y%	c #77B2B7",
"z%	c #6BB9BE",
"A%	c #8BC6C8",
"B%	c #7FAEB0",
"C%	c #B1D3D6",
"D%	c #87B9BD",
"E%	c #74BBBE",
"F%	c #72BDC0",
"G%	c #71B7BB",
"H%	c #6DB9B9",
"I%	c #6BB0AE",
"J%	c #6EB4B3",
"K%	c #74B2B9",
"L%	c #68BBBD",
"M%	c #6EB6AF",
"N%	c #7BAEAC",
"O%	c #A0CFCC",
"P%	c #8CC0C0",
"Q%	c #62B4AD",
"R%	c #68BDBA",
"S%	c #76B9BB",
"T%	c #75B1B5",
"U%	c #75AFB0",
"V%	c #8CC6C6",
"W%	c #98D0D1",
"X%	c #75B5B6",
"Y%	c #70B5B6",
"Z%	c #6CB2B0",
"`%	c #6FB0B7",
" &	c #6EB1B3",
".&	c #80BCB1",
"+&	c #9DC8CE",
"@&	c #80B9BD",
"#&	c #7BB9B3",
"$&	c #74B1AC",
"%&	c #6FB3AF",
"&&	c #6CB0B1",
"*&	c #70B4B7",
"=&	c #72B5B6",
"-&	c #7FB7BC",
";&	c #86B6BE",
">&	c #71B7B6",
",&	c #71B4B1",
"'&	c #92BDC0",
")&	c #A2D1CC",
"!&	c #84BBB6",
"~&	c #78B2B3",
"{&	c #77B3B5",
"]&	c #76B2B4",
"^&	c #82BBBD",
"/&	c #86B9BD",
"(&	c #9AC7CD",
"                                                    .                             ",
"                                                    + @                           ",
"                                                    # $ %                         ",
"                                      &           * = - ;                         ",
"                                      > , ' )       ! ~ { ]                       ",
"                                      ^ / ( _ : < [ } | 1 2 3 4                   ",
"                                      5 6 7 8     9 0 a b c d e                   ",
"                        f g h         i j k       l m     n o p q                 ",
"                        r s t u v w x y z A B C D E       F   G H                 ",
"                          I J K L M N O P Q R S T         U V W X                 ",
"                          Y Z `  ...+.@.#.$.%.&.*.=.  -.;.>.,.'.).!.              ",
"                        ~.{.].^./.(._.:.      <.[.}.|.1.2.3.4.5.6.7.              ",
"              8.9.0.a.b.c.d.e.f.g.h.i.j.      k.l.m.n.n.o.p.N q.q.r.              ",
"              s.t.u.v.  w.x.    y.z.A.      B.C.D.E.F.F.G.H.I.J.K.L.              ",
"              M.N.O.P.Q.R.S.    T.U.V.W.  X.Y.Z.`. +.+++@+#+$+K.%+                ",
"                &+*+=+-+;+>+$.,+'+)+!+~+2 @+{+]+^+/+(+_+:+<+[+}+                  ",
"                    |+1+2+3+4+5+6+7+8+9+0+a+b+c+d+e+f+                            ",
"                    g+h+i+j+k+l+m+n+o+p+q+                                        ",
"                    r+s+t+u+v+w+x+                                                ",
"                  y+z+A+a+B+C+D+                                                  ",
"                E+F+G+H+I+J+K+L+      M+N+O+P+Q+R+                                ",
"              S+T+U+V+W+X+Y+Z+`+ @.@+@@@#@$@%@&@*@=@-@;@                          ",
"                >@,@'@)@!@~@{@]@^@/@(@_@:@<@[@[@}@}@|@|@(.1@                      ",
"                    2@3@%@4@5@6@7@N $@8@9@<@[@[@0@a@b@c@d@e@f@                    ",
"                    g@h@i@i@j@5@k@l@m@n@:@8@[@[@[@[@|@|@$@[@o@p@                  ",
"                q@r@s@t@u@u@[@n@v@w@w@n@:@8@[@[@[@[@[@[@<@}@x@y@z@                ",
"              A@B@C@D@E@F@G@n@n@0@H@I@J@J@J@J@}@[@[@<@<@<@<@K@w@*@L@              ",
"              M@N@O@P@Q@R@S@T@T@<@[@[@$@$@$@$@|@[@[@F@F@F@F@5+U@V@W@              ",
"                  X@Y@Z@4.`@ #.#G@+#@###$#%#&#*#=#-#;#>#,#'#)#!#~#{#]#            ",
"                        ^#/#(#_#:#<#[#              }#|#1#U@2#3#4#5#6#            ",
"                        7#8#9#0#                      a#b#c#d#e#f#  g#h#          ",
"                                                        i#j#k#l#    m#n#          ",
"                o#p#q#r#                                s#e@t#l#u#v#w#x#          ",
"              y#z#A#B#,#C#D#                              E#F#G#{+H#I#J#          ",
"            K#L#A#M#N#O#)#P#Q#                            R#j@S#Z.T#q.U#V#        ",
"            W#X#Y#M#N#K@|@Z#`#                             $.$+$@$#$$$#$%$        ",
"            &$*$=$=$!@5@-$;$>$                            ,$    '$)$!$~${$        ",
"            ]$[@[@[@<@v@^$;$/$                            ($    _$:$<$[$}$        ",
"            |$1$2$H.J@J.3$Z#4$                            5$6$7$      8$9$        ",
"            0$G.K.a$b$I#J.J.c$                          d$V.0 e$      f$g$        ",
"            h$i$j$a$k$k$k$k$l$m$                      n$o$p$q$      r$s$          ",
"              t$u$H.H.H.H.H.J.v$w$                    x$y$z$A$B$  C$D$E$          ",
"              F$G$H$t@t@t@t@t@d I$J$              K$L$M$N$O$P$Q$R$G@w#S$          ",
"                T$U$E.V$t@t@t@t@W$X$Y$Z$`$ %.%+%@%#%$%%%6@&%*%=%-%:#;%            ",
"                >%[@,%H$t@t@t@t@I$'%)%!%~%{%]%^%/%(%_%:%<%[%}%|%1%2%              ",
"                  3%S@4%H$5%t@6%7%8%9%0%a%b%c%d%e%f%g%h%i%j%    k%l%              ",
"                    m%n%o%p%q%I$r%@+s%t%u%v%w%x%      y%z%A%  B%C%                ",
"                      D%2$E%F%G%H%7@     @I%J%        K%L%M%N%O%                  ",
"                        P%Q%R%S%T%U%V%W%X%Y%Z%      j `% &.&                      ",
"                            +&@&#&$&%&&&*&U#=&-&;&>&,&'&                          ",
"                                  )&!&~&{&]&^&/&(&                                ",
"                                                                                  ",
"                                                                                  ",
"                                                                                  "};
