/* XPM */
static char * 6_xpm[] = {
"35 52 630 2",
"  	c None",
". 	c #83BBB0",
"+ 	c #66B6B3",
"@ 	c #6EB5B1",
"# 	c #7DB1AF",
"$ 	c #80AFA0",
"% 	c #7DAFA1",
"& 	c #77B2B0",
"* 	c #7FBBBB",
"= 	c #91B8B2",
"- 	c #78B4B5",
"; 	c #E1AD82",
"> 	c #CB834B",
", 	c #BE7B3D",
"' 	c #C07B37",
") 	c #AF8657",
"! 	c #B8AE8D",
"~ 	c #6FB4C3",
"{ 	c #89ACA0",
"] 	c #B38B49",
"^ 	c #C67325",
"/ 	c #DB6F19",
"( 	c #DC6F14",
"_ 	c #DE7114",
": 	c #DC7112",
"< 	c #D97215",
"[ 	c #CD771E",
"} 	c #CB8348",
"| 	c #8DAB99",
"1 	c #B4863E",
"2 	c #DC7218",
"3 	c #DE711A",
"4 	c #DD7017",
"5 	c #DB7113",
"6 	c #D97412",
"7 	c #DC7213",
"8 	c #DD7214",
"9 	c #D67515",
"0 	c #DB7120",
"a 	c #C77A30",
"b 	c #BC7C3B",
"c 	c #D47714",
"d 	c #D37404",
"e 	c #DA7213",
"f 	c #DF6C19",
"g 	c #DD7015",
"h 	c #D67513",
"i 	c #D57512",
"j 	c #D17610",
"k 	c #D57A12",
"l 	c #DD6F0C",
"m 	c #DD710D",
"n 	c #CE8241",
"o 	c #D06F2E",
"p 	c #D77119",
"q 	c #DA8714",
"r 	c #F4B22F",
"s 	c #E48E1F",
"t 	c #DC6E15",
"u 	c #DD6F13",
"v 	c #D27610",
"w 	c #D59520",
"x 	c #F7BC43",
"y 	c #F1AB35",
"z 	c #D17407",
"A 	c #DD700D",
"B 	c #DA701F",
"C 	c #8DBDC3",
"D 	c #83B0B6",
"E 	c #99A49E",
"F 	c #C77C3D",
"G 	c #DA6D12",
"H 	c #D2730E",
"I 	c #F3C239",
"J 	c #FCC730",
"K 	c #E7A222",
"L 	c #D5720E",
"M 	c #DB7210",
"N 	c #E89F32",
"O 	c #FCCD40",
"P 	c #F9CD3A",
"Q 	c #FDBD3F",
"R 	c #D5740D",
"S 	c #DF710F",
"T 	c #E36E12",
"U 	c #E5B691",
"V 	c #7EA9AE",
"W 	c #70B4B9",
"X 	c #67B8BA",
"Y 	c #6DB3B6",
"Z 	c #8EA59B",
"` 	c #B6814A",
" .	c #D6711A",
"..	c #DF6B10",
"+.	c #E28220",
"@.	c #FAC748",
"#.	c #F0B337",
"$.	c #D27E0F",
"%.	c #D3720F",
"&.	c #E68D28",
"*.	c #FDC242",
"=.	c #FBCC3A",
"-.	c #FAC738",
";.	c #E58D1E",
">.	c #D87114",
",.	c #DD7112",
"'.	c #D27420",
").	c #6CB4BD",
"!.	c #66BABD",
"~.	c #82AC98",
"{.	c #B28340",
"].	c #D6711B",
"^.	c #D97119",
"/.	c #E37B29",
"(.	c #DA751A",
"_.	c #DD8317",
":.	c #D4770C",
"<.	c #DA7110",
"[.	c #DB6F13",
"}.	c #E78C26",
"|.	c #F6B53C",
"1.	c #EBA932",
"2.	c #DD8C1C",
"3.	c #D2730C",
"4.	c #D97214",
"5.	c #DA7118",
"6.	c #D4A577",
"7.	c #7AB9BC",
"8.	c #74B3B3",
"9.	c #A68B4F",
"0.	c #D07314",
"a.	c #D6750F",
"b.	c #DF7B1F",
"c.	c #D5731C",
"d.	c #D97217",
"e.	c #DC7210",
"f.	c #DB710E",
"g.	c #DD6F11",
"h.	c #DE7014",
"i.	c #D4720F",
"j.	c #CE740A",
"k.	c #CF730E",
"l.	c #DC6F0E",
"m.	c #D17422",
"n.	c #DDA771",
"o.	c #A09E81",
"p.	c #C2792F",
"q.	c #D57218",
"r.	c #DF7C1A",
"s.	c #DA7618",
"t.	c #D97418",
"u.	c #D87113",
"v.	c #DA7011",
"w.	c #DA7010",
"x.	c #DA6F11",
"y.	c #DA7114",
"z.	c #D97114",
"A.	c #D97111",
"B.	c #DA700C",
"C.	c #CE7218",
"D.	c #CC8A49",
"E.	c #D17B34",
"F.	c #DC711F",
"G.	c #E5802B",
"H.	c #DE721A",
"I.	c #D97518",
"J.	c #D77214",
"K.	c #D4710D",
"L.	c #E89529",
"M.	c #EB982D",
"N.	c #D56E0D",
"O.	c #DB7012",
"P.	c #D9731B",
"Q.	c #D17225",
"R.	c #CD9256",
"S.	c #CC9E68",
"T.	c #D4731A",
"U.	c #EA7C25",
"V.	c #DB7117",
"W.	c #DA7216",
"X.	c #DE831C",
"Y.	c #FCC746",
"Z.	c #E7A433",
"`.	c #D46F0A",
" +	c #DC7514",
".+	c #CB934B",
"++	c #ABA890",
"@+	c #CB7532",
"#+	c #DA7D26",
"$+	c #E1761C",
"%+	c #DC7016",
"&+	c #DC7115",
"*+	c #DC7216",
"=+	c #D97118",
"-+	c #DA771E",
";+	c #E9942B",
">+	c #D5731D",
",+	c #C67730",
"'+	c #DEB780",
")+	c #7CB2AE",
"!+	c #72B1B5",
"~+	c #74AEAC",
"{+	c #AF8649",
"]+	c #DB7E24",
"^+	c #DF7C22",
"/+	c #DA7115",
"(+	c #DC7015",
"_+	c #DD7117",
":+	c #DD711A",
"<+	c #DC6F22",
"[+	c #DD6E17",
"}+	c #C48538",
"|+	c #7CB1B0",
"1+	c #70B5B7",
"2+	c #6FB2B8",
"3+	c #83AB96",
"4+	c #CD832C",
"5+	c #DD7617",
"6+	c #D77015",
"7+	c #DA7015",
"8+	c #DC7116",
"9+	c #DB7317",
"0+	c #DE7015",
"a+	c #DB721A",
"b+	c #D38F54",
"c+	c #99C1C0",
"d+	c #6DB4B0",
"e+	c #6EB5BC",
"f+	c #A8A07B",
"g+	c #D27513",
"h+	c #D77012",
"i+	c #D77013",
"j+	c #D97014",
"k+	c #DE7016",
"l+	c #D97314",
"m+	c #E16F13",
"n+	c #CD843C",
"o+	c #86BAB5",
"p+	c #7DB9BB",
"q+	c #BC864D",
"r+	c #D96E0F",
"s+	c #D76E12",
"t+	c #DA7014",
"u+	c #DF701A",
"v+	c #D67416",
"w+	c #D17836",
"x+	c #A1B8A8",
"y+	c #BF7D30",
"z+	c #DA6F18",
"A+	c #DB6F14",
"B+	c #DB7017",
"C+	c #D47625",
"D+	c #D17315",
"E+	c #D97212",
"F+	c #D97112",
"G+	c #DB7213",
"H+	c #D67718",
"I+	c #DA995F",
"J+	c #BDA275",
"K+	c #D47515",
"L+	c #D87211",
"M+	c #D97013",
"N+	c #DB7114",
"O+	c #D27319",
"P+	c #9BC9C6",
"Q+	c #86B0A9",
"R+	c #B1884E",
"S+	c #DC721C",
"T+	c #DD7012",
"U+	c #DA7113",
"V+	c #D97113",
"W+	c #DB7116",
"X+	c #CF8133",
"Y+	c #D4AA73",
"Z+	c #CD8D38",
"`+	c #C67F28",
" @	c #C7761F",
".@	c #CF7318",
"+@	c #D37319",
"@@	c #D2721C",
"#@	c #CD8138",
"$@	c #D6A673",
"%@	c #6AB8B1",
"&@	c #78B4A9",
"*@	c #C37A39",
"=@	c #DE6E20",
"-@	c #DC7013",
";@	c #DA7013",
">@	c #D97015",
",@	c #DDA161",
"'@	c #DCB173",
")@	c #D3772B",
"!@	c #E26D18",
"~@	c #D87714",
"{@	c #E99D1E",
"]@	c #F5B330",
"^@	c #E28B17",
"/@	c #DB7214",
"(@	c #DB6E14",
"_@	c #DA6F13",
":@	c #D9710F",
"<@	c #D1710C",
"[@	c #C77616",
"}@	c #C58D41",
"|@	c #69BAB4",
"1@	c #7BB3A7",
"2@	c #C77331",
"3@	c #DA7120",
"4@	c #D87314",
"5@	c #D96F1B",
"6@	c #DC7018",
"7@	c #D67115",
"8@	c #DC710E",
"9@	c #D27124",
"0@	c #DA6F1B",
"a@	c #E47711",
"b@	c #FDC43E",
"c@	c #FAC540",
"d@	c #D78916",
"e@	c #E17B1D",
"f@	c #D97414",
"g@	c #D5760D",
"h@	c #DB8A17",
"i@	c #F4BA3B",
"j@	c #FBBF44",
"k@	c #C38642",
"l@	c #6AB9B2",
"m@	c #83B09F",
"n@	c #C67725",
"o@	c #E26E20",
"p@	c #DC7113",
"q@	c #DC6F1F",
"r@	c #DA7210",
"s@	c #D5710E",
"t@	c #D46F0F",
"u@	c #D87213",
"v@	c #D9700E",
"w@	c #E38A23",
"x@	c #DE831E",
"y@	c #DC7413",
"z@	c #EC902B",
"A@	c #FDC046",
"B@	c #E39026",
"C@	c #D5870D",
"D@	c #FCCE3D",
"E@	c #FCC842",
"F@	c #F7B141",
"G@	c #D67417",
"H@	c #C58849",
"I@	c #75B3AB",
"J@	c #8EA99A",
"K@	c #C97923",
"L@	c #E16E1D",
"M@	c #DD7116",
"N@	c #DD7115",
"O@	c #DC7315",
"P@	c #DC901A",
"Q@	c #EEAF2F",
"R@	c #F6B43B",
"S@	c #E69526",
"T@	c #D7750E",
"U@	c #D77310",
"V@	c #D67411",
"W@	c #D27710",
"X@	c #ECA12F",
"Y@	c #F2AD2C",
"Z@	c #D17B09",
"`@	c #ECA829",
" #	c #FBC736",
".#	c #F5B035",
"+#	c #DC7E16",
"@#	c #D87111",
"##	c #D37219",
"$#	c #D5843C",
"%#	c #CF7623",
"&#	c #DC711A",
"*#	c #DC7118",
"=#	c #DC7215",
"-#	c #DC7314",
";#	c #DA7C14",
">#	c #F8C63B",
",#	c #F9D03A",
"'#	c #FCCC43",
")#	c #DA8C19",
"!#	c #D57510",
"~#	c #D3701A",
"{#	c #CD7527",
"]#	c #D58035",
"^#	c #DF8033",
"/#	c #D77521",
"(#	c #D57318",
"_#	c #D88615",
":#	c #DF8F17",
"<#	c #D3770B",
"[#	c #D7700F",
"}#	c #DF6F0E",
"|#	c #DB6F12",
"1#	c #DFAA77",
"2#	c #D27423",
"3#	c #DA7319",
"4#	c #DB7218",
"5#	c #DB7216",
"6#	c #DB7314",
"7#	c #E58D21",
"8#	c #F8CE3F",
"9#	c #FBD33F",
"0#	c #E8A92B",
"a#	c #CE760B",
"b#	c #D08651",
"c#	c #DEAC74",
"d#	c #CA7521",
"e#	c #D67412",
"f#	c #D87313",
"g#	c #DA6F15",
"h#	c #CA7D36",
"i#	c #D17322",
"j#	c #D6741A",
"k#	c #DB7217",
"l#	c #DA7E17",
"m#	c #EBAD30",
"n#	c #E09D22",
"o#	c #CD7719",
"p#	c #D79258",
"q#	c #D9A267",
"r#	c #D77216",
"s#	c #DB7115",
"t#	c #CF701E",
"u#	c #DE8130",
"v#	c #D5721B",
"w#	c #D97216",
"x#	c #D57411",
"y#	c #D47312",
"z#	c #DA711A",
"A#	c #DDA564",
"B#	c #CF7418",
"C#	c #D67217",
"D#	c #D77217",
"E#	c #DA6F16",
"F#	c #DA7016",
"G#	c #D48C44",
"H#	c #D88031",
"I#	c #E07D25",
"J#	c #D97318",
"K#	c #DA7317",
"L#	c #D67315",
"M#	c #D87215",
"N#	c #D07124",
"O#	c #CC7F30",
"P#	c #D67219",
"Q#	c #D87016",
"R#	c #D96F16",
"S#	c #DB7016",
"T#	c #CD7723",
"U#	c #CD884F",
"V#	c #DD741C",
"W#	c #DD7B24",
"X#	c #D9731A",
"Y#	c #DC8033",
"Z#	c #D58D48",
"`#	c #D7721B",
" $	c #D77219",
".$	c #D96F17",
"+$	c #D97016",
"@$	c #D27219",
"#$	c #D7A577",
"$$	c #D96B13",
"%$	c #D77923",
"&$	c #E07C25",
"*$	c #D97218",
"=$	c #D07825",
"-$	c #DD9453",
";$	c #D87116",
">$	c #DB7014",
",$	c #D57219",
"'$	c #D86E18",
")$	c #D46F17",
"!$	c #D8731C",
"~$	c #E68125",
"{$	c #C9751B",
"]$	c #D89256",
"^$	c #D5721E",
"/$	c #DC6F13",
"($	c #D57119",
"_$	c #D16E20",
":$	c #D67117",
"<$	c #E37D20",
"[$	c #D67013",
"}$	c #D36F14",
"|$	c #DFA480",
"1$	c #D78C51",
"2$	c #D5711A",
"3$	c #D97311",
"4$	c #D57410",
"5$	c #DD6F14",
"6$	c #DB7015",
"7$	c #D37B36",
"8$	c #D6701B",
"9$	c #DE6B11",
"0$	c #CB7E28",
"a$	c #D3762F",
"b$	c #DC7D11",
"c$	c #F3B031",
"d$	c #E09426",
"e$	c #D17411",
"f$	c #D87012",
"g$	c #D3711C",
"h$	c #DB9C62",
"i$	c #D9701C",
"j$	c #DA7116",
"k$	c #CF7316",
"l$	c #D29D5B",
"m$	c #ED9F27",
"n$	c #FAD032",
"o$	c #DE9221",
"p$	c #CD760F",
"q$	c #D67211",
"r$	c #D6721E",
"s$	c #C47D40",
"t$	c #D7721A",
"u$	c #D57316",
"v$	c #D47316",
"w$	c #CE7122",
"x$	c #E6BB89",
"y$	c #DEAC77",
"z$	c #D67114",
"A$	c #E48B21",
"B$	c #E79B23",
"C$	c #D5750C",
"D$	c #D6740F",
"E$	c #DA7424",
"F$	c #D99B65",
"G$	c #C87B33",
"H$	c #DB6E11",
"I$	c #D57416",
"J$	c #DB7118",
"K$	c #CE7729",
"L$	c #CD792D",
"M$	c #D87417",
"N$	c #DA7314",
"O$	c #D9790E",
"P$	c #DE7713",
"Q$	c #DE7418",
"R$	c #DD742C",
"S$	c #D4701F",
"T$	c #DB7011",
"U$	c #DA7315",
"V$	c #DB7215",
"W$	c #D67419",
"X$	c #CB7628",
"Y$	c #DC904D",
"Z$	c #E8B68F",
"`$	c #D4985D",
" %	c #C47722",
".%	c #D7701C",
"+%	c #DD6F1E",
"@%	c #D87518",
"#%	c #D48311",
"$%	c #F1C33C",
"%%	c #F3B846",
"&%	c #E07F2B",
"*%	c #D58338",
"=%	c #D08345",
"-%	c #DF7113",
";%	c #DE7117",
">%	c #DC7217",
",%	c #DC7311",
"'%	c #E07012",
")%	c #D47116",
"!%	c #E26D17",
"~%	c #DB6F1B",
"{%	c #D7711D",
"]%	c #D7711A",
"^%	c #D3741D",
"/%	c #DE710B",
"(%	c #DD6F19",
"_%	c #E46B28",
":%	c #DC781B",
"<%	c #F3BC34",
"[%	c #FACF44",
"}%	c #ECAB38",
"|%	c #D67019",
"1%	c #E2B37F",
"2%	c #CD7712",
"3%	c #DC720B",
"4%	c #DD6F1B",
"5%	c #DD711B",
"6%	c #DA7316",
"7%	c #DB7313",
"8%	c #DD7018",
"9%	c #DF8E23",
"0%	c #F9CE44",
"a%	c #F3B738",
"b%	c #D77609",
"c%	c #CC833C",
"d%	c #CA7C2F",
"e%	c #D96E1C",
"f%	c #D97316",
"g%	c #DB7C21",
"h%	c #E99338",
"i%	c #D8741B",
"j%	c #D08840",
"k%	c #C97831",
"l%	c #D77018",
"m%	c #D87217",
"n%	c #DF7115",
"o%	c #DF7114",
"p%	c #DC7921",
"q%	c #DD7A2A",
"r%	c #D76E24",
"s%	c #C78B51",
"t%	c #CC8442",
"u%	c #DF7112",
"v%	c #DE7115",
"w%	c #DA721A",
"x%	c #DA711B",
"y%	c #DA721B",
"z%	c #DF761E",
"A%	c #E37B26",
"B%	c #CA742D",
"C%	c #D79A64",
"D%	c #D99356",
"E%	c #D5782E",
"F%	c #D96E1B",
"G%	c #DC7117",
"H%	c #D97419",
"I%	c #D3741A",
"J%	c #D07421",
"K%	c #D38341",
"L%	c #E59F62",
"M%	c #E3B88D",
"                                    . + @ #                           ",
"                                    $ % & *                           ",
"                      = -       ; > , ' ) !                           ",
"                        ~ { ] ^ / ( _ : < [ }                         ",
"                        | 1 2 3 4 5 6 7 8 9 0 a                       ",
"                        b c d e f g h i j k l m n                     ",
"                      o p q r s t u v w x y z A B                     ",
"              C D E F G H I J K L M N O P Q R S T U                   ",
"        V W X Y Z `  ...+.@.#.$.%.&.*.=.-.;.>.,.'.                    ",
"          ).!.~.{.].^./.(._.:.<.[.}.|.1.2.3.4.5.6.                    ",
"          7.8.9.0.a.b.c.d.e.f.g.h.i.j.k.i.l.m.n.                      ",
"            o.p.q.r.s.t.u.v.w.x.y.z.A.B.C.D.                          ",
"            E.F.G.H.I.J.K.L.M.N.O.P.Q.R.                              ",
"          S.T.U.H.V.W.>.X.Y.Z.`. +.+                                  ",
"        ++@+#+$+%+&+*+=+-+;+>+,+'+                                    ",
"  )+!+~+{+]+^+/+(+*+_+:+<+[+}+                                        ",
"|+1+2+3+4+5+6+7+(+8+9+0+a+b+                                          ",
"c+d+e+f+g+h+i+j+(+k+l+m+n+                                            ",
"  o+p+q+r+s+s+t+g u+v+w+                                              ",
"    x+y+z+A+[.A+(+B+C+                                                ",
"      D+E+F+F+F+G+H+I+                                                ",
"    J+K+L+F+F+M+N+O+                                                  ",
"P+Q+R+S+T+U+V+j+W+X+      Y+Z+`+ @.@+@@@#@$@                          ",
"%@&@*@=@-@;@j+>@=+,@'@)@!@~@{@]@^@/@(@_@:@<@[@}@                      ",
"|@1@2@3@4@V+t+5@6@7@8@9@0@a@b@c@d@7 e@f@g@h@i@j@k@                    ",
"l@m@n@o@e p@%+q@8+r@s@t@u@v@w@x@y@z@A@B@C@D@E@F@G@H@                  ",
"I@J@K@L@M@8 N@O@P@Q@R@S@T@L+U@V@W@X@Y@Z@`@ #.#+#@###$#                ",
"    %#&#*#=#-#;#>#,#'#)#!#u@~#{#]#^#/#(#_#:#<#[#l.}#|#1#              ",
"    2#3#4#5#6#7#8#9#0#a#j b#          c#d#e#f#4.5 -@g#h#              ",
"    i#j#k#5#O@l#m#n#o#p#                q#t.r#r#s#(+V.t#              ",
"    u#v#w#5#W+x#y#z#A#                    B#C#D#j+A+E#F#G#            ",
"    H#I#J#K#k#L#M#N#                      O#P#D#Q#R#R#S#T#            ",
"    U#V#W#X#6+M#w#Y#                      Z#`# $.$+$t+z.@$            ",
"    #$$$%$&$*$>.z.=$                      -$`#d.;$>@>$V+,$            ",
"      '$)$!$~$M#< {$                      ]$^$B+z./$( U+($            ",
"      _$[.:$I.<$[$}$|$                    1$2$3$4$p@5$6$ .            ",
"      7$8$>.z.J.z.9$0$                    a$b$c$d$e$f$z#g$            ",
"      h$i$j$y./+S#( k$l$                  f$m$n$o$p$q$r$s$            ",
"        t$[.>$s#S#u$v$w$x$              y$z$A$B$C$D$E+E$F$            ",
"        G$H$( &+S#I$I$J$K$              L$r#M$N$O$P$Q$R$              ",
"          S$T$(+/+s#U$V$W$X$Y$Z$    `$ %.%+%@%#%$%%%&%*%              ",
"          =%_ -%;%>%U$,%'%)%!%~%{%]%^%/%(%_%:%<%[%}%|%1%              ",
"            2%3%4%5%6%7%6#< < < < < w#N+&+8%9%0%a%b%c%                ",
"              d%e%4 f%6%9+5#W.W.W.6%K#=#N@7%g%h%i%j%                  ",
"                k%l% $m%*+n%N@N@6%K#k#-%o%p%q%r%s%                    ",
"                  t%g$=#u%o%_ v%6%w%x%y%z%A%B%C%                      ",
"                      D%E%F%8+G%H%I%J%K%L%M%                          ",
"                                                                      ",
"                                                                      ",
"                                                                      ",
"                                                                      ",
"                                                                      "};
