/* XPM */
static char * 8_xpm[] = {
"34 48 621 2",
"  	c None",
". 	c #679092",
"+ 	c #307179",
"@ 	c #3B6A75",
"# 	c #829DA2",
"$ 	c #638289",
"% 	c #A1C2C1",
"& 	c #367073",
"* 	c #478288",
"= 	c #55898D",
"- 	c #81ADAD",
"; 	c #7AA8A9",
"> 	c #407078",
", 	c #3A6C74",
"' 	c #356C71",
") 	c #397378",
"! 	c #689E9C",
"~ 	c #6EACB0",
"{ 	c #76B3BA",
"] 	c #70B3B2",
"^ 	c #6DB4B1",
"/ 	c #70B7B4",
"( 	c #6DB8B5",
"_ 	c #6DB5B7",
": 	c #73B5B9",
"< 	c #5F9FA4",
"[ 	c #458287",
"} 	c #377377",
"| 	c #A9C7C3",
"1 	c #7AB3AA",
"2 	c #73B5AC",
"3 	c #6EAFB1",
"4 	c #6FB2B8",
"5 	c #6DB5B4",
"6 	c #6CB6B1",
"7 	c #74B9B7",
"8 	c #8EC5C6",
"9 	c #7CB5BA",
"0 	c #6DB5BA",
"a 	c #6AB5B8",
"b 	c #70B2B7",
"c 	c #6AAAAD",
"d 	c #9ED4C6",
"e 	c #84B5AA",
"f 	c #8BBFC5",
"g 	c #6EB1B8",
"h 	c #6FB3B2",
"i 	c #87B9B7",
"j 	c #6EB2B9",
"k 	c #6FB2B9",
"l 	c #6DB3B8",
"m 	c #71B5BA",
"n 	c #7AB7B3",
"o 	c #AAC7C6",
"p 	c #9DCCC5",
"q 	c #96C4BC",
"r 	c #AFD6D9",
"s 	c #69B4B4",
"t 	c #70B1B0",
"u 	c #A1CCCC",
"v 	c #6FB3B9",
"w 	c #6DB2BA",
"x 	c #6DB2B8",
"y 	c #6AB5B6",
"z 	c #72B6B3",
"A 	c #699C9D",
"B 	c #77969E",
"C 	c #8EC3BE",
"D 	c #91C5C1",
"E 	c #ABCDCE",
"F 	c #8DBDBF",
"G 	c #66B7B4",
"H 	c #6DB5B1",
"I 	c #98CBC8",
"J 	c #6FB5B2",
"K 	c #6FB4BB",
"L 	c #70B3BB",
"M 	c #72B2BB",
"N 	c #397680",
"O 	c #35707A",
"P 	c #4D7480",
"Q 	c #94BEBC",
"R 	c #6DB6B0",
"S 	c #99CDCD",
"T 	c #A1BEC6",
"U 	c #88BFBE",
"V 	c #71B4B2",
"W 	c #66B6B1",
"X 	c #68B7B2",
"Y 	c #6EB2B3",
"Z 	c #73B1B6",
"` 	c #6EB3B8",
" .	c #6BB4B9",
"..	c #6FB4BA",
"+.	c #70B4BB",
"@.	c #61A1A9",
"#.	c #36717B",
"$.	c #476F7D",
"%.	c #9EC5C7",
"&.	c #6CB2AD",
"*.	c #78C1BE",
"=.	c #89C9C9",
"-.	c #7CB0B2",
";.	c #A8D6D5",
">.	c #6EB2AD",
",.	c #6CB9B3",
"'.	c #6BB6B3",
").	c #6AB7B5",
"!.	c #66B7B3",
"~.	c #65B6B6",
"{.	c #69B6BD",
"].	c #6EB3BE",
"^.	c #6EB2BE",
"/.	c #6DB4BB",
"(.	c #6EB4B8",
"_.	c #6FB5B9",
":.	c #6DB4B9",
"<.	c #6EB0B7",
"[.	c #46808A",
"}.	c #73B0AF",
"|.	c #6BB3B1",
"1.	c #6EB3B1",
"2.	c #74B2B4",
"3.	c #74B3B4",
"4.	c #74B1B2",
"5.	c #6AB2AE",
"6.	c #6CB6B2",
"7.	c #6AB6B2",
"8.	c #6CB6B4",
"9.	c #6EB5B5",
"0.	c #6FB4B5",
"a.	c #74B7BA",
"b.	c #6FB3B8",
"c.	c #6CB5B8",
"d.	c #6CB7B7",
"e.	c #6CB6B5",
"f.	c #6CB5B4",
"g.	c #6DB4B5",
"h.	c #6EB4B9",
"i.	c #6FB4B9",
"j.	c #6CB5B9",
"k.	c #81B7BF",
"l.	c #70B0B4",
"m.	c #6CB2B7",
"n.	c #73B4B5",
"o.	c #8BB9BB",
"p.	c #9BCCCE",
"q.	c #6EB3B6",
"r.	c #6CB3B4",
"s.	c #6DB3B6",
"t.	c #6CB6B9",
"u.	c #79B0B6",
"v.	c #95BCC0",
"w.	c #ADD1D2",
"x.	c #A5C9CC",
"y.	c #79B4B0",
"z.	c #70B5B5",
"A.	c #6DB6B9",
"B.	c #6EB6B9",
"C.	c #6DB5B8",
"D.	c #72ADB3",
"E.	c #A2D0C8",
"F.	c #6AB3B8",
"G.	c #6BB1BB",
"H.	c #75B3B4",
"I.	c #6DAEB6",
"J.	c #6EB2B8",
"K.	c #6EB1B7",
"L.	c #6FB2B6",
"M.	c #89BDC1",
"N.	c #7CB5B8",
"O.	c #6DB6BB",
"P.	c #70B5BB",
"Q.	c #70B5BA",
"R.	c #6FB6B8",
"S.	c #4F9294",
"T.	c #2D6F6E",
"U.	c #366E73",
"V.	c #546876",
"W.	c #9CCAC3",
"X.	c #6BB2B7",
"Y.	c #79B8BB",
"Z.	c #96C6C7",
"`.	c #68B4B7",
" +	c #6EB2B6",
".+	c #72B0B3",
"++	c #7BB4B1",
"@+	c #71B4BC",
"#+	c #71B6BC",
"$+	c #71B6BB",
"%+	c #6FB6BA",
"&+	c #60A6A7",
"*+	c #30726E",
"=+	c #3C7378",
"-+	c #A1CDC7",
";+	c #6CB1B5",
">+	c #6DB1BB",
",+	c #6FB0B6",
"'+	c #88BABB",
")+	c #67B7B6",
"!+	c #6FB3B6",
"~+	c #76B1B4",
"{+	c #72B1B9",
"]+	c #6EB6B8",
"^+	c #66A3A7",
"/+	c #43716F",
"(+	c #B2D9D6",
"_+	c #6CB2B5",
":+	c #6CB2BD",
"<+	c #70B2BA",
"[+	c #73B5B7",
"}+	c #6FB6B5",
"|+	c #6CB7B8",
"1+	c #6FB5B5",
"2+	c #7AB1B4",
"3+	c #74B2B8",
"4+	c #6EB3B9",
"5+	c #6EB7B8",
"6+	c #8DBEC5",
"7+	c #71B2B7",
"8+	c #68B5B9",
"9+	c #6FB3B7",
"0+	c #71B5B7",
"a+	c #6DB7B8",
"b+	c #6FB7B5",
"c+	c #72B2B0",
"d+	c #77B2BA",
"e+	c #70B4B9",
"f+	c #70B7BB",
"g+	c #6FB7B9",
"h+	c #7FAEB5",
"i+	c #79B2B6",
"j+	c #68B7B6",
"k+	c #6CB5B5",
"l+	c #6EB5B8",
"m+	c #6FB6BB",
"n+	c #6FB6B9",
"o+	c #70B7B1",
"p+	c #B5D9D9",
"q+	c #75AFB7",
"r+	c #70B6B9",
"s+	c #6EB7BA",
"t+	c #74BDBE",
"u+	c #559399",
"v+	c #A7BDC2",
"w+	c #ABD0D3",
"x+	c #6BBAB3",
"y+	c #6DB8B4",
"z+	c #70B6B7",
"A+	c #6FB5BE",
"B+	c #6FB6BC",
"C+	c #6FB7B7",
"D+	c #6FB8B3",
"E+	c #76B3B1",
"F+	c #8BB7B8",
"G+	c #71B3B7",
"H+	c #73BABA",
"I+	c #71B8B9",
"J+	c #34747C",
"K+	c #41787A",
"L+	c #7CBAB8",
"M+	c #70B6B3",
"N+	c #70B5B7",
"O+	c #70B6B5",
"P+	c #72B6B5",
"Q+	c #72B2B3",
"R+	c #A8D5D6",
"S+	c #85C0B6",
"T+	c #71B2AD",
"U+	c #68B7B3",
"V+	c #6CB7B5",
"W+	c #75B9B9",
"X+	c #74BDBB",
"Y+	c #538D93",
"Z+	c #416F7B",
"`+	c #3F6B7A",
" @	c #90AEB4",
".@	c #B6D3D9",
"+@	c #78AEB0",
"@@	c #6FB6B6",
"#@	c #70B5BD",
"$@	c #72B4BA",
"%@	c #6EAFB2",
"&@	c #7AB5B4",
"*@	c #9EC7CA",
"=@	c #A9D0D2",
"-@	c #74B0B0",
";@	c #68B7AD",
">@	c #68BBB2",
",@	c #76BBB8",
"'@	c #7FB6B9",
")@	c #79B8B8",
"!@	c #6AB4AF",
"~@	c #457B7C",
"{@	c #4B7779",
"]@	c #4F777B",
"^@	c #769496",
"/@	c #A1C7C7",
"(@	c #6FB6B1",
"_@	c #6FB6B4",
":@	c #70B5B9",
"<@	c #70B6BA",
"[@	c #6BB4B8",
"}@	c #69B6B8",
"|@	c #74AFB6",
"1@	c #73B2B6",
"2@	c #77BBBC",
"3@	c #6EB9B6",
"4@	c #6BB8B5",
"5@	c #77AFB1",
"6@	c #7CB5B3",
"7@	c #83B8B5",
"8@	c #6DB3AF",
"9@	c #6DB6B8",
"0@	c #6DB6B6",
"a@	c #6DB5B6",
"b@	c #6CB5B6",
"c@	c #6EB6B5",
"d@	c #6FB8B4",
"e@	c #73BFBA",
"f@	c #73BEB9",
"g@	c #7EB6B7",
"h@	c #96C1C6",
"i@	c #82B3B5",
"j@	c #6FB4AF",
"k@	c #6DB1B2",
"l@	c #6EB7B7",
"m@	c #6FB7B4",
"n@	c #70B7B5",
"o@	c #71B6B3",
"p@	c #70B3B3",
"q@	c #6BB7B4",
"r@	c #6BB6B2",
"s@	c #70B7B3",
"t@	c #73B6B2",
"u@	c #7FBABB",
"v@	c #82BEBC",
"w@	c #69B4B1",
"x@	c #6CB3B2",
"y@	c #73B8B4",
"z@	c #6EB2B4",
"A@	c #6BB4BB",
"B@	c #6FB5BD",
"C@	c #6EB7B9",
"D@	c #6FB4B2",
"E@	c #9CC8C9",
"F@	c #66B5B2",
"G@	c #6DB2AE",
"H@	c #7CB7B6",
"I@	c #9BC9CD",
"J@	c #7CBABA",
"K@	c #74B9B9",
"L@	c #74B2B3",
"M@	c #99CBCE",
"N@	c #578481",
"O@	c #3A7176",
"P@	c #446B6E",
"Q@	c #7FB4B5",
"R@	c #6CB3B3",
"S@	c #6CB5BA",
"T@	c #99CACA",
"U@	c #68B8B1",
"V@	c #6BB2AD",
"W@	c #A4CFD0",
"X@	c #74B5B5",
"Y@	c #77BABE",
"Z@	c #79B4BB",
"`@	c #79B4BC",
" #	c #6AA8B0",
".#	c #3C7A83",
"+#	c #32717C",
"@#	c #527C82",
"##	c #86B5B5",
"$#	c #70B3B8",
"%#	c #6CB4B8",
"&#	c #6BB5B7",
"*#	c #6CB5B7",
"=#	c #94BFBE",
"-#	c #6AB0AC",
";#	c #7AB9B8",
">#	c #B8D6DC",
",#	c #73AFB2",
"'#	c #70B4B8",
")#	c #77B8BC",
"!#	c #75B6BD",
"~#	c #6EB4BC",
"{#	c #62ABB5",
"]#	c #3B7B86",
"^#	c #9DC0C2",
"/#	c #B1D9D6",
"(#	c #6DB4BA",
"_#	c #6BB3B8",
":#	c #6BB5B8",
"<#	c #6AB6B6",
"[#	c #6EB7B4",
"}#	c #67BBB5",
"|#	c #7BB7B6",
"1#	c #93BFC0",
"2#	c #72B1B1",
"3#	c #7BB7B7",
"4#	c #78BCBA",
"5#	c #74B8B6",
"6#	c #6DB4B6",
"7#	c #6EB5B7",
"8#	c #6FB5B7",
"9#	c #70B5B3",
"0#	c #75BBBC",
"a#	c #70B4BC",
"b#	c #679CA5",
"c#	c #84B6AF",
"d#	c #74B1B4",
"e#	c #6CB3B9",
"f#	c #74B3B1",
"g#	c #8EC8C4",
"h#	c #7DB3B3",
"i#	c #88B5B9",
"j#	c #97C4C7",
"k#	c #9ED0CE",
"l#	c #93C4C1",
"m#	c #83BFBA",
"n#	c #7AB1B2",
"o#	c #73B0B8",
"p#	c #6EB6BD",
"q#	c #6DB7B9",
"r#	c #6FB7B6",
"s#	c #71B7BB",
"t#	c #75BAC0",
"u#	c #72B7BE",
"v#	c #97B8BE",
"w#	c #A4BFBE",
"x#	c #75B3AB",
"y#	c #71B1B3",
"z#	c #6FB5B8",
"A#	c #73B2BA",
"B#	c #7EB5B4",
"C#	c #B1DDD5",
"D#	c #9FC2C9",
"E#	c #72B3B4",
"F#	c #6BB8B7",
"G#	c #71B5BB",
"H#	c #7ABDC5",
"I#	c #75B6BE",
"J#	c #619EA5",
"K#	c #326F78",
"L#	c #386F71",
"M#	c #688D88",
"N#	c #72B3AF",
"O#	c #70B3B4",
"P#	c #71B0B8",
"Q#	c #98CAC2",
"R#	c #6EB5B3",
"S#	c #70B5BC",
"T#	c #79BDC4",
"U#	c #73B2B9",
"V#	c #35727B",
"W#	c #366D6F",
"X#	c #82A4A0",
"Y#	c #B0D1CD",
"Z#	c #6EB2B1",
"`#	c #6FB4B7",
" $	c #84B8BC",
".$	c #7CB2B5",
"+$	c #6FB5BC",
"@$	c #7EB8BF",
"#$	c #5A7B80",
"$$	c #AFD1CD",
"%$	c #6DB3B4",
"&$	c #6CB2B9",
"*$	c #ACD5D7",
"=$	c #97C2C9",
"-$	c #70B4BD",
";$	c #6CB7BD",
">$	c #74AFB5",
",$	c #B1D2CF",
"'$	c #6FB3B3",
")$	c #B0D7D9",
"!$	c #98C7CD",
"~$	c #71B5BC",
"{$	c #71B4BF",
"]$	c #6EB7BE",
"^$	c #74B1B7",
"/$	c #73B4B1",
"($	c #70B4B5",
"_$	c #70B4B7",
":$	c #72B8B6",
"<$	c #A7CFCE",
"[$	c #8DC0C5",
"}$	c #71B7BC",
"|$	c #6EB7BB",
"1$	c #75B2B9",
"2$	c #A2BFC3",
"3$	c #73B8BB",
"4$	c #77BDBB",
"5$	c #7CB1B0",
"6$	c #71B0B2",
"7$	c #6FB6B2",
"8$	c #98CBC9",
"9$	c #9BCDCB",
"0$	c #6EB0AF",
"a$	c #66A2AA",
"b$	c #4C787D",
"c$	c #80AEB8",
"d$	c #73B9BB",
"e$	c #76BCBD",
"f$	c #6CB9B4",
"g$	c #83B6B7",
"h$	c #84B9BD",
"i$	c #6BB2B5",
"j$	c #71B4B3",
"k$	c #74B4B3",
"l$	c #508F90",
"m$	c #3B6F73",
"n$	c #7EA0A1",
"o$	c #8CB9C5",
"p$	c #69B7BB",
"q$	c #6EB4BA",
"r$	c #72B7BD",
"s$	c #77BCC1",
"t$	c #70B7B8",
"u$	c #6EB7B6",
"v$	c #6CB9B7",
"w$	c #7AACAF",
"x$	c #9BC1C8",
"y$	c #B2C9CE",
"z$	c #7EB0B7",
"A$	c #70B1B1",
"B$	c #6FB3B0",
"C$	c #74AFAC",
"D$	c #77B0B0",
"E$	c #A6D0D1",
"F$	c #7CBBBB",
"G$	c #7DB4B5",
"H$	c #487777",
"I$	c #3F6B70",
"J$	c #476869",
"K$	c #B7DADC",
"L$	c #70B2B6",
"M$	c #73B9BF",
"N$	c #77BCC2",
"O$	c #6FB7B8",
"P$	c #6BB5B6",
"Q$	c #70B2B9",
"R$	c #71B2B8",
"S$	c #72B3B8",
"T$	c #71B2B6",
"U$	c #72B6BC",
"V$	c #69B6B9",
"W$	c #73B1AB",
"X$	c #99C3CB",
"Y$	c #75B2B5",
"Z$	c #69B3B1",
"`$	c #94C0C3",
" %	c #91B9C4",
".%	c #78BAC3",
"+%	c #6EB2B7",
"@%	c #70B3BA",
"#%	c #6CB6B7",
"$%	c #6CB6B8",
"%%	c #6EB5B9",
"&%	c #66B6B6",
"*%	c #90C2BE",
"=%	c #85B4BE",
"-%	c #71B1B4",
";%	c #6FB1B2",
">%	c #5D858C",
",%	c #73B0B6",
"'%	c #6DB5B3",
")%	c #6EB6BA",
"!%	c #69B7B7",
"~%	c #9CD1D1",
"{%	c #A7C8CB",
"]%	c #72B3B6",
"^%	c #498D8F",
"/%	c #406B72",
"(%	c #93CCC6",
"_%	c #68B5AD",
":%	c #6BB4B0",
"<%	c #70B3B9",
"[%	c #80BDBB",
"}%	c #8EC4C7",
"|%	c #77B2B5",
"1%	c #5CA2A1",
"2%	c #2E7174",
"3%	c #317175",
"4%	c #8AAFB2",
"5%	c #9FC3C1",
"6%	c #74B0AE",
"7%	c #71B3B6",
"8%	c #73B5B8",
"9%	c #73ACB2",
"0%	c #41737B",
"a%	c #3B6C76",
"b%	c #356F77",
"c%	c #689293",
"d%	c #84B6BC",
"e%	c #73B3B8",
"f%	c #6FB7BB",
"g%	c #6AB7B8",
"h%	c #6BB6BA",
"i%	c #6CB4B6",
"j%	c #6BB6B9",
"k%	c #6AB6B8",
"l%	c #6EB1AB",
"m%	c #A0CFC8",
"n%	c #A3CACC",
"o%	c #76B4B2",
"p%	c #6CB7AF",
"q%	c #69B5B2",
"r%	c #68B5B7",
"s%	c #6DB5B9",
"t%	c #71B3B9",
"u%	c #6DB0B5",
"v%	c #7EB0B3",
"w%	c #B8D4D5",
"x%	c #A9CCD2",
"y%	c #A3C8D0",
"z%	c #99C7CB",
"A%	c #94C4C7",
"B%	c #98C4C8",
"C%	c #9EC6CA",
"D%	c #AED3D5",
"                        . + @             # $                       ",
"                      % & * = -     ; > , ' )                       ",
"                      ! ~ { ] ^ / ( _ : < [ }                       ",
"                  | 1 2 3 4 5 6 7 8 9 0 a b c                       ",
"                d e     f g h i       j k l m n                     ",
"            o p q       r s t       u v w x j y z A B               ",
"          C D E         F G H     I J K K K K K L M N O P           ",
"        Q R S T       U V W X Y Z `  .........+.L L @.#.$.          ",
"      %.&.*.=.-.  ;.>.,.'.).!.~.{.].^./.(.(.(._...:.<.[.            ",
"      }.|.1.2.3.4.5.6.7.8.9.0.a.b.b.c.d.e.f.g.h.i.j.j k.            ",
"      l.m.n.o.p.q.r.s.t.l u.v.w.        x.y.z.A...B.C.D.            ",
"    E.F.G.H.    I.J.K.L.M.                  N.O.P.Q.A.R.S.T.U.V.    ",
"    W.X.G.Y.  Z.`. +.+++                      @+#+$+%+R.&+*+=+      ",
"    -+;+>+,+'+] )+!+~+                        {+i.i.Q.]+^+/+        ",
"    (+_+:+<+[+}+|+1+2+                        3+4+i.%+5+6+          ",
"      7+8+9+0+R.a+b+c+                        d+..e+f+g+h+          ",
"      i+j+k+l+m+n+b+o+p+                      q+Q.r+s+t+u+v+        ",
"      w+x+y+z+A+B+C+D+E+                    F+G+]+z+H+I+J+K+        ",
"        L+M+N+m+B+R.O+P+Q+R+              S+T+U+V+W+X+Y+Z+`+ @      ",
"        .@+@@@Q.#@R.z+$@b %@&@*@      =@-@;@>@,@'@)@!@~@{@]@^@      ",
"          /@(@_@:@r+<@m v [@}@i.3+|@1@2@3@4@5@    6@                ",
"            7@8@!+i.%+s+9@0@a@b@c.b@c@d@e@f@g@  h@i@                ",
"              j@k@K B+m+l@m@n@o@p@q@r@s@t@u@v@w@x@                  ",
"              y@z@A@B@<@C@D@E@    F@G@H@  I@J@K@L@M@  N@O@P@        ",
"            Q@R@b@S@B+m+5+T@      U@V@    W@X@Y@Z@`@ #.#+#@#        ",
"          ##$#%#&#*#@@c@z       =#-#;#  >#,#b '#)#!#~#{#]#^#        ",
"        /#-@(#_#:#<#[#}#|#    1#2#3#4#5#6#7#P.8#9#0#a#w b#          ",
"        c#d#j e#j._ }+z+f#g#h#i#j#k#l#m#n#o#p#q#r#s#t#u#o#v#w#      ",
"        x#y#$#....z#v A#B#C#              D#E#F#<@G#K H#I#J#K#L#M#  ",
"        N#O#z#i.i.z#e+P#                    Q#R#..S#S#@+T#U#V#W#X#  ",
"      Y#Z#s.l+..i.`#1+ $                      .$+$S#P.a#p#@$#$      ",
"      $$%$&$(#..i.`#R#*$                      =$+$S#S#-$;$>$        ",
"      ,$'$9+h.h.i.`#R#)$                      !$S#~$-${$]$^$        ",
"        /$($_$i.i.`#:$<$                      [$~$}$f+|$A.1$2$      ",
"        f#1+`#i.i.3$4$5$                      6$6#7$8$9$0$a$b$      ",
"        c$S@i.i.d$e$[#f$g$                  h$i$7$j$    k$l$m$n$    ",
"        o$p$q$r$s$t$u$v$o@w$x$          y$z$A$B$C$D$E$F$G$H$I$J$    ",
"        K$L$M$N$v <@O$a+).P$` Q$R$R$S$T$U$V$W$    X$Y$Z$`$          ",
"           %.%+%@%P.r+C.#%$%j.A.%%i.i.i.(#&%*%    =%-%;%>%          ",
"            ,%'%e.Q.Q.)%t.t.t.t.%%i.i.i.(#!%~%  {%]%L.^%/%          ",
"            (%_%:%7#Q.A.t.t.t.t.%%i.i.i.<%b@[%}%|%a+1%2%3%4%        ",
"              5%6%!+i.9@t.t.t.t.%%i.i._.i.z.7%:@8%9%0%a%b%c%        ",
"                  d%e%f%g%h%*#i%7#9+C.j%V$k%n+l%m%                  ",
"                    n%o%p%q%r%r%s%t%b u%8#;%v%                      ",
"                          w%x%y%z%A%B%C%D%                          ",
"                                                                    ",
"                                                                    ",
"                                                                    "};
