/* XPM */
static char * 9_xpm[] = {
"36 49 556 2",
"  	c None",
". 	c #89C1C4",
"+ 	c #74B2B5",
"@ 	c #76B7A8",
"# 	c #92C2B9",
"$ 	c #8ABEB5",
"% 	c #7EAFA8",
"& 	c #A0CAC7",
"* 	c #6AB8AD",
"= 	c #75B6AF",
"- 	c #B9DADB",
"; 	c #77ABAC",
"> 	c #67B7AC",
", 	c #7BBBB0",
"' 	c #6DB7B8",
") 	c #72B5AE",
"! 	c #97BDAF",
"~ 	c #A7B886",
"{ 	c #B2C27A",
"] 	c #BDC075",
"^ 	c #CBCC7D",
"/ 	c #B9C072",
"( 	c #B1BE7C",
"_ 	c #9DB78A",
": 	c #ABCAAD",
"< 	c #A9CCCE",
"[ 	c #88B4B8",
"} 	c #78AFAF",
"| 	c #7BAEAC",
"1 	c #A3CCCA",
"2 	c #75B2A7",
"3 	c #93B879",
"4 	c #D2C762",
"5 	c #EBC64B",
"6 	c #F0C237",
"7 	c #F6CC32",
"8 	c #F8D326",
"9 	c #F8D136",
"0 	c #F9D138",
"a 	c #FBCD34",
"b 	c #F6CF40",
"c 	c #EAD14F",
"d 	c #CAC16F",
"e 	c #89B38B",
"f 	c #73AFA8",
"g 	c #73B1B7",
"h 	c #8CBFBE",
"i 	c #AFC8AB",
"j 	c #C7CA6E",
"k 	c #F3D045",
"l 	c #F8C541",
"m 	c #DC931C",
"n 	c #C67604",
"o 	c #EBAB2D",
"p 	c #FDCA35",
"q 	c #FECD33",
"r 	c #FECD35",
"s 	c #FEC939",
"t 	c #FDCB35",
"u 	c #F7D238",
"v 	c #DDD450",
"w 	c #AFC971",
"x 	c #8EAF91",
"y 	c #78AFBA",
"z 	c #97C1B8",
"A 	c #EFD654",
"B 	c #FBD439",
"C 	c #FDCE40",
"D 	c #F6C441",
"E 	c #D07D08",
"F 	c #DD7C0C",
"G 	c #FAC237",
"H 	c #FBD02B",
"I 	c #F9CF35",
"J 	c #FCD03B",
"K 	c #FAD03A",
"L 	c #FAD032",
"M 	c #FBCF2A",
"N 	c #FCD02E",
"O 	c #FCD035",
"P 	c #F6D335",
"Q 	c #DCCB5D",
"R 	c #7CB4A3",
"S 	c #A7BD78",
"T 	c #EDC759",
"U 	c #FDCD3F",
"V 	c #FBCB31",
"W 	c #FDCE2D",
"X 	c #FACC31",
"Y 	c #EAB224",
"Z 	c #FCC334",
"` 	c #FBCA3B",
" .	c #F5CE44",
"..	c #F7D150",
"+.	c #F8D154",
"@.	c #F9D04D",
"#.	c #FACE3A",
"$.	c #FCCF31",
"%.	c #FDCF30",
"&.	c #FFD030",
"*.	c #FED032",
"=.	c #F9CE3A",
"-.	c #EED75A",
";.	c #B7C598",
">.	c #98C1C0",
",.	c #92BFC2",
"'.	c #9AC4C4",
").	c #BAB97F",
"!.	c #EED24A",
"~.	c #FBCC33",
"{.	c #E4A629",
"].	c #C5840A",
"^.	c #F8C735",
"/.	c #FBCF30",
"(.	c #FAD02F",
"_.	c #F2D34C",
":.	c #F5E087",
"<.	c #F8D04E",
"[.	c #FECE31",
"}.	c #FDD228",
"|.	c #FBD22F",
"1.	c #FBD137",
"2.	c #FBCD44",
"3.	c #D9D366",
"4.	c #88B89B",
"5.	c #72B3B5",
"6.	c #78B2B5",
"7.	c #EED561",
"8.	c #F6CD35",
"9.	c #ECB029",
"0.	c #CF7A0E",
"a.	c #C67B06",
"b.	c #F6C033",
"c.	c #FBCE31",
"d.	c #F6D146",
"e.	c #F4D154",
"f.	c #FDD12E",
"g.	c #FECF33",
"h.	c #FFCD36",
"i.	c #FECE3A",
"j.	c #F9CC48",
"k.	c #C0C666",
"l.	c #78B39C",
"m.	c #F5CF34",
"n.	c #FDC53B",
"o.	c #D58114",
"p.	c #D47213",
"q.	c #DA9019",
"r.	c #FEC836",
"s.	c #FACE36",
"t.	c #F6E491",
"u.	c #F8D14C",
"v.	c #FECE37",
"w.	c #FED039",
"x.	c #FECE38",
"y.	c #FECF30",
"z.	c #EFD23B",
"A.	c #D8DBA3",
"B.	c #FCC937",
"C.	c #FEC639",
"D.	c #C77705",
"E.	c #D77F17",
"F.	c #F9C13B",
"G.	c #FECA39",
"H.	c #F4CF42",
"I.	c #F3DD89",
"J.	c #F7D148",
"K.	c #FED037",
"L.	c #FED034",
"M.	c #FDCF32",
"N.	c #F4DF7B",
"O.	c #F8E695",
"P.	c #FBCD2A",
"Q.	c #FBD334",
"R.	c #E1AA1B",
"S.	c #EDB12E",
"T.	c #FFC940",
"U.	c #F2CD47",
"V.	c #F3D96D",
"W.	c #FACF3C",
"X.	c #FED036",
"Y.	c #FED033",
"Z.	c #EECE57",
"`.	c #C0D3B4",
" +	c #F7E98C",
".+	c #FACC2E",
"++	c #F8CF29",
"@+	c #FBCD2F",
"#+	c #FECA34",
"$+	c #FFCC33",
"%+	c #FFCA3C",
"&+	c #FACB41",
"*+	c #F6CF3F",
"=+	c #FECE36",
"-+	c #FECF36",
";+	c #F5CE43",
">+	c #A2B97F",
",+	c #7CB7B6",
"'+	c #ACD1CF",
")+	c #FACD33",
"!+	c #FCCD2F",
"~+	c #FECD30",
"{+	c #FECC35",
"]+	c #FFCB37",
"^+	c #FDCA36",
"/+	c #F7DB72",
"(+	c #F3D562",
"_+	c #F9CF34",
":+	c #FDCE36",
"<+	c #FECF37",
"[+	c #FDCB38",
"}+	c #B5C076",
"|+	c #70B6AE",
"1+	c #78B3AD",
"2+	c #F7CF34",
"3+	c #FDCC30",
"4+	c #FCCA33",
"5+	c #FCC735",
"6+	c #FFCD35",
"7+	c #FDCD32",
"8+	c #FACE34",
"9+	c #FCE49D",
"0+	c #F8E495",
"a+	c #F5D132",
"b+	c #FECE35",
"c+	c #FECD32",
"d+	c #CAC267",
"e+	c #8BB3A9",
"f+	c #F2D54D",
"g+	c #FEC839",
"h+	c #E2A024",
"i+	c #D1920C",
"j+	c #FDCC33",
"k+	c #FDCE32",
"l+	c #F6D34F",
"m+	c #FCCD36",
"n+	c #FFCF31",
"o+	c #EBD476",
"p+	c #F4E587",
"q+	c #F6D33A",
"r+	c #FECB3D",
"s+	c #D0830B",
"t+	c #D99A15",
"u+	c #FDCE35",
"v+	c #FDCE31",
"w+	c #FDCF34",
"x+	c #F5D346",
"y+	c #FAE69A",
"z+	c #F1E09B",
"A+	c #FDCF36",
"B+	c #FFCF2F",
"C+	c #FDD039",
"D+	c #F4DD82",
"E+	c #F2D562",
"F+	c #FCCD3C",
"G+	c #F0BF29",
"H+	c #FDCA3A",
"I+	c #FECD37",
"J+	c #FECF31",
"K+	c #FCCE32",
"L+	c #FBCF3A",
"M+	c #FCD15D",
"N+	c #EDD568",
"O+	c #FBD336",
"P+	c #FDCF31",
"Q+	c #FDCC39",
"R+	c #DACF73",
"S+	c #F5E79C",
"T+	c #F0D23F",
"U+	c #FACB32",
"V+	c #FFCB39",
"W+	c #FECD38",
"X+	c #FECE33",
"Y+	c #FECD31",
"Z+	c #FFCE32",
"`+	c #FCCD33",
" @	c #F7CF43",
".@	c #EBDE66",
"+@	c #F6E68E",
"@@	c #F4D545",
"#@	c #F7D036",
"$@	c #FBD339",
"%@	c #FFD135",
"&@	c #F6D13B",
"*@	c #C2C869",
"=@	c #9CC2B8",
"-@	c #F0DF6E",
";@	c #F9CD30",
">@	c #FECD2F",
",@	c #FECC3A",
"'@	c #FFCD31",
")@	c #FFCD32",
"!@	c #FFCE33",
"~@	c #FDD128",
"{@	c #FECE34",
"]@	c #FBCE36",
"^@	c #F7CD38",
"/@	c #F9CC40",
"(@	c #F7CD3F",
"_@	c #F9CF3C",
":@	c #FDCF2D",
"<@	c #FED02D",
"[@	c #FCD234",
"}@	c #FED235",
"|@	c #FED136",
"1@	c #F8D13C",
"2@	c #C4CC76",
"3@	c #77B1A9",
"4@	c #91C3C1",
"5@	c #EFD44C",
"6@	c #FECC2F",
"7@	c #FECD36",
"8@	c #FFCC32",
"9@	c #FFCD33",
"0@	c #FCD033",
"a@	c #FDD134",
"b@	c #FDCF33",
"c@	c #FCCD31",
"d@	c #FCCE34",
"e@	c #FBCF36",
"f@	c #FCD23A",
"g@	c #FDD242",
"h@	c #B3BD7D",
"i@	c #73B3B9",
"j@	c #74ADB6",
"k@	c #FACE3F",
"l@	c #FDCE2A",
"m@	c #FFCE30",
"n@	c #FFCC35",
"o@	c #FECF34",
"p@	c #FFCD37",
"q@	c #FDCB3E",
"r@	c #ECB631",
"s@	c #F4BD33",
"t@	c #F8CB37",
"u@	c #FAD33D",
"v@	c #F7D74E",
"w@	c #A4B786",
"x@	c #70B3BF",
"y@	c #82B5BC",
"z@	c #F9CD51",
"A@	c #FCCE3B",
"B@	c #FAD033",
"C@	c #FCD032",
"D@	c #FFCF34",
"E@	c #FDCD34",
"F@	c #F7B93A",
"G@	c #D57207",
"H@	c #DE981D",
"I@	c #FBCE40",
"J@	c #FDD440",
"K@	c #F5D453",
"L@	c #F8DA62",
"M@	c #F6D43A",
"N@	c #F7D330",
"O@	c #FED134",
"P@	c #FFD034",
"Q@	c #FFCF35",
"R@	c #FECF35",
"S@	c #FFCC34",
"T@	c #DB8612",
"U@	c #D96D0A",
"V@	c #EBAF32",
"W@	c #FDD146",
"X@	c #FAD03E",
"Y@	c #F4D456",
"Z@	c #ECE168",
"`@	c #F4CE48",
" #	c #F9CE3C",
".#	c #FECA37",
"+#	c #FECC31",
"@#	c #F9CF37",
"##	c #FBD034",
"$#	c #FACA31",
"%#	c #C27C06",
"&#	c #DD9327",
"*#	c #FDCB46",
"=#	c #FBD337",
"-#	c #F9CF3D",
";#	c #F0E17B",
">#	c #F8EB94",
",#	c #F8E890",
"'#	c #F8E78F",
")#	c #F5E896",
"!#	c #F7EA99",
"~#	c #FBD33C",
"{#	c #FBD135",
"]#	c #F1C03C",
"^#	c #FBCC4A",
"/#	c #FDD13C",
"(#	c #FCD331",
"_#	c #F9CE3D",
":#	c #F7D968",
"<#	c #FAD035",
"[#	c #FED338",
"}#	c #FED03D",
"|#	c #FECF38",
"1#	c #FECF2F",
"2#	c #F8D248",
"3#	c #F1D359",
"4#	c #FED12A",
"5#	c #FCD232",
"6#	c #FDD136",
"7#	c #FED038",
"8#	c #FECE32",
"9#	c #F9DD83",
"0#	c #F5D159",
"a#	c #FCD03E",
"b#	c #FFD038",
"c#	c #FDD037",
"d#	c #FCCB35",
"e#	c #FACA34",
"f#	c #FAC730",
"g#	c #FBD132",
"h#	c #F7D049",
"i#	c #F7E38C",
"j#	c #EECF4C",
"k#	c #FBCF34",
"l#	c #FFCE39",
"m#	c #FECD45",
"n#	c #FDCE3E",
"o#	c #F0B22A",
"p#	c #D78910",
"q#	c #FAC544",
"r#	c #F4D97A",
"s#	c #F8D55E",
"t#	c #F7CE38",
"u#	c #F9CE37",
"v#	c #FCCF36",
"w#	c #FFCE36",
"x#	c #FFCE3B",
"y#	c #FECE3E",
"z#	c #FCC738",
"A#	c #D0870B",
"B#	c #D87A0E",
"C#	c #F5C159",
"D#	c #F2D665",
"E#	c #F8D437",
"F#	c #FCD431",
"G#	c #FCD238",
"H#	c #FCCE47",
"I#	c #FECD47",
"J#	c #FFD02F",
"K#	c #FAC836",
"L#	c #CA8907",
"M#	c #E9A12F",
"N#	c #FAE093",
"O#	c #F6D470",
"P#	c #F7CC3F",
"Q#	c #F9D432",
"R#	c #FDD333",
"S#	c #FFCF38",
"T#	c #FFCE35",
"U#	c #FCCF32",
"V#	c #FED035",
"W#	c #FBC935",
"X#	c #F4D05C",
"Y#	c #F7E28D",
"Z#	c #F3D667",
"`#	c #F9CE42",
" $	c #FECB37",
".$	c #FCC534",
"+$	c #F5C032",
"@$	c #EDB532",
"#$	c #FDCA41",
"$$	c #FED23D",
"%$	c #FFCD3C",
"&$	c #FDD233",
"*$	c #F3D669",
"=$	c #F7D04B",
"-$	c #FCD13B",
";$	c #FED13B",
">$	c #F8C736",
",$	c #D78110",
"'$	c #D97110",
")$	c #CE8422",
"!$	c #F5BF3B",
"~$	c #FBCF2F",
"{$	c #F9D42E",
"]$	c #F2CC4D",
"^$	c #F9E597",
"/$	c #EECE3A",
"($	c #F4C539",
"_$	c #F3BD2B",
":$	c #FDCE33",
"<$	c #FCCA37",
"[$	c #DC991A",
"}$	c #D47819",
"|$	c #DA751F",
"1$	c #DB911E",
"2$	c #FDC738",
"3$	c #FFCE31",
"4$	c #FCCF2E",
"5$	c #FBCF32",
"6$	c #F6D047",
"7$	c #F9E598",
"8$	c #F8CC45",
"9$	c #F1AE2C",
"0$	c #D17915",
"a$	c #D08313",
"b$	c #FDCB3B",
"c$	c #FECC33",
"d$	c #FECB3F",
"e$	c #CF8312",
"f$	c #D9812B",
"g$	c #DC8A2C",
"h$	c #F5BC2E",
"i$	c #FECD34",
"j$	c #FECF2A",
"k$	c #FACE40",
"l$	c #F7E397",
"m$	c #FACB42",
"n$	c #D48C0F",
"o$	c #D27E13",
"p$	c #F1B034",
"q$	c #F9CC31",
"r$	c #D3951F",
"s$	c #DE9D21",
"t$	c #FCC638",
"u$	c #FECB33",
"v$	c #FECC30",
"w$	c #F3CF53",
"x$	c #F4D75F",
"y$	c #F6C633",
"z$	c #F5C335",
"A$	c #F8CC33",
"B$	c #FBD02A",
"C$	c #FECD3D",
"D$	c #FDCC35",
"E$	c #EDD251",
"F$	c #F4D54A",
"G$	c #F6CB30",
"H$	c #F7CE2D",
"I$	c #FFD137",
"J$	c #FCD13A",
"K$	c #FCCF3F",
"L$	c #FBCC40",
"M$	c #F3D85F",
"N$	c #F7D751",
"O$	c #FACA3A",
"P$	c #FECF3C",
"Q$	c #FFD23C",
"R$	c #FFD03C",
"S$	c #FFCF3A",
"T$	c #FECF3A",
"U$	c #FECF3B",
"V$	c #F3D146",
"W$	c #EAE062",
"X$	c #F3DB7D",
"Y$	c #FAD13C",
"Z$	c #FBD13C",
"`$	c #F9CC45",
" %	c #F6D05F",
".%	c #F9DE8C",
"+%	c #F5E291",
"@%	c #FAE695",
"                                                                        ",
"                                                                        ",
"                                                                        ",
"                                . +       @ #                           ",
"                      $ %     & * = -   ; > ,                           ",
"                      ' ) !   ~ { ] ^ / ( _ :   < [ } |                 ",
"                    1 2 3 4 5 6 7 8 9 0 a b c d e f g h                 ",
"                    i j k l m n o p q q r s t u v w x                   ",
"              y z   A B C D E F G H I J K L M N O P Q                   ",
"              R S T U V W X Y Z `  ...+.@.#.$.%.&.*.=.-.;.>.,.'.        ",
"              ).!.~.{.].^./.(._.          :.<.[.}.|.1.2.3.4.5.6.        ",
"              7.8.9.0.a.b.c.d.                e.f.g.h.i.j.k.l.          ",
"              m.n.o.p.q.r.s.t.                  u.v.w.x.y.z.A.          ",
"              B.C.D.E.F.G.H.                    I.J.J K.L.M.N.          ",
"            O.P.Q.R.S.p T.U.                      V.W.X.X.Y.Z.`.        ",
"             +.+++@+#+$+%+&+                        *+r =+-+;+>+,+'+    ",
"              )+X !+~+{+]+^+/+                      (+_+:+<+[+}+|+1+    ",
"              2+3+4+G.5+6+7+8+9+                    0+a+b+-+c+d+e+      ",
"              f+q g+h+i+j+k+*.l+                      m+n+L.X.o+        ",
"              p+q+r+s+t+u+v+g.w+x+y+                z+A+B+*.C+D+        ",
"                E+F+G+H+I+J+n+J+K+L+M+              N+O+*.P+Q+R+        ",
"                S+T+U+V+W+X+Y+Z+J+%.`+ @.@      +@@@#@$@%@L.&@*@=@      ",
"                  -@;@>@,@h.'@)@!@Z+~@{@]@^@/@(@_@:@<@[@}@|@1@2@3@4@    ",
"                    5@6@7@!@8@8@9@!@0@a@b@c+q g.L.Y.c@d@e@f@g@h@i@j@    ",
"                      k@l@m@n@$+9@!@X+a@o@Z+n+$+p@q@r@s@t@u@v@w@x@y@    ",
"                        z@A@B@/.M.C@0@a@L.D@D@E@=+F@G@H@I@J@K@          ",
"                          L@M@N@C@C@0@0@O@P@Q@R@S@T@U@V@W@X@Y@          ",
"                              Z@`@ #,@.#+#@# .##$#%#&#*#=#-#;#          ",
"                                    >#,#'#)#!#~#{#]#^#/#(#_#            ",
"                                            :#<#[#}#|#1#W 2#            ",
"                                          3#4#5#6#7#u+8#b+9#            ",
"                                        0#a#b#c#d#e#f#g#h#              ",
"                                    i#j#k#l#m#n#^+o#p#q#r#              ",
"                                  s#t#u#v#w#x#y#z#A#B#C#                ",
"                              D#E#F#G#H#I#v.J#|#K#L#M#N#                ",
"                          O#P#Q#R#}@}#S#T#U#J+V#x.W#X#                  ",
"                    Y#Z#`# $.$+$@$#$$$%$L././.&$w.@.                    ",
"                *$=$-$;$x.>$,$'$)$!$8@8@J+~$(.{$]$                      ",
"            ^$/$($_$>@:$<$[$}$|$1$2$$+8@3$4$5$6$7$                      ",
"            8$9$0$a$b$c$d$e$f$g$h$i$S@)@'@j$k$l$                        ",
"            m$n$o$p$q$+##$r$s$t$u$6+S@8@v$w$                            ",
"            x$y$z$A$B$c+C$X+[.:$6+{+S@D$E$                              ",
"              F$G$H$4$I$%$l#<+c#J$K$L$M$                                ",
"                N$O$P$Q$R$S$T$U$V$W$                                    ",
"                  X$=$Y$Z$`$ %.%                                        ",
"                      +%@%                                              ",
"                                                                        ",
"                                                                        ",
"                                                                        "};
