/* XPM */
static char *a[] = {
/* columns rows colors chars-per-pixel */
"60 64 219 2 ",
"   c #C60D10",
".  c #C61612",
"X  c #CB1E17",
"o  c #D61519",
"O  c #DC151B",
"+  c #D41B1B",
"@  c #DB1B1D",
"#  c #E2161E",
"$  c #E21A1F",
"%  c #C62215",
"&  c #C92317",
"*  c #C6261A",
"=  c #CC251A",
"-  c #CA281F",
";  c #D9201D",
":  c #D0211B",
">  c #C33C1E",
",  c #D33F1D",
"<  c #DE1F20",
"1  c #E61A21",
"2  c #EC1B24",
"3  c #C92C23",
"4  c #D72524",
"5  c #DB2424",
"6  c #D32B24",
"7  c #DB2B24",
"8  c #D92A29",
"9  c #CB3725",
"0  c #DB3125",
"q  c #D23C26",
"w  c #D4312C",
"e  c #D83A27",
"r  c #CF3530",
"t  c #E32223",
"y  c #EC2225",
"u  c #EE2A25",
"i  c #ED252B",
"p  c #EE2B2D",
"a  c #E02924",
"s  c #EE2D32",
"d  c #EF3334",
"f  c #EE3B35",
"g  c #EE3A3A",
"h  c #EF3438",
"j  c #B57E31",
"k  c #D4411E",
"l  c #C74625",
"z  c #C54B27",
"x  c #CB4A2A",
"c  c #D54A25",
"v  c #CA532D",
"b  c #DE5D2A",
"n  c #D3433B",
"m  c #DB5936",
"M  c #C74E31",
"N  c #E34827",
"B  c #E75E2A",
"V  c #E55028",
"C  c #E54937",
"Z  c #F0423B",
"A  c #E5513B",
"S  c #DF6228",
"D  c #C76139",
"F  c #C2713A",
"G  c #C06B2F",
"H  c #E56B2B",
"J  c #E3732B",
"K  c #E8782E",
"L  c #E36539",
"P  c #E36836",
"I  c #E9703A",
"U  c #EF3D40",
"Y  c #D94741",
"T  c #D8594A",
"R  c #DA5F50",
"E  c #E94745",
"W  c #F04443",
"Q  c #F04845",
"!  c #F04948",
"~  c #F1524F",
"^  c #F04F51",
"/  c #E95553",
"(  c #F25B5A",
")  c #F15656",
"_  c #E2554F",
"`  c #DD654A",
"'  c #D6724E",
"]  c #DB6A53",
"[  c #D47851",
"{  c #C8794A",
"}  c #E16846",
"|  c #E47B46",
" . c #EA6557",
".. c #F2635B",
"X. c #F2655C",
"o. c #E27658",
"O. c #EB6B67",
"+. c #F26462",
"@. c #F36B64",
"#. c #F36C69",
"$. c #E87768",
"%. c #F3726A",
"&. c #F47A6E",
"*. c #F37365",
"=. c #E77A75",
"-. c #F47D72",
";. c #F47B76",
":. c #AF8C35",
">. c #B88337",
",. c #EC8636",
"<. c #F28F36",
"1. c #F79F3B",
"2. c #BE8D43",
"3. c #BD9D4C",
"4. c #BFB25E",
"5. c #EC8544",
"6. c #ED8B48",
"7. c #F29544",
"8. c #F0924A",
"9. c #E5825A",
"0. c #EF914C",
"q. c #C1A256",
"w. c #D58761",
"e. c #CF9761",
"r. c #D8946D",
"t. c #E68866",
"y. c #ED9969",
"u. c #E2837D",
"i. c #E78676",
"p. c #F58276",
"a. c #F5847C",
"s. c #F58A7E",
"d. c #EB997B",
"f. c #ED9971",
"g. c #CDA267",
"h. c #CFAA71",
"j. c #D1AF77",
"k. c #DEA37D",
"l. c #D8B77D",
"z. c #C7B76D",
"x. c #F1A575",
"c. c #F3B17B",
"v. c #EEA271",
"b. c #E58B84",
"n. c #E88B84",
"m. c #F58782",
"M. c #F58C87",
"N. c #E3938C",
"B. c #EA9685",
"V. c #F39185",
"C. c #F5938C",
"Z. c #F79E95",
"A. c #F79A94",
"S. c #E99D94",
"D. c #DFAF82",
"F. c #D9BA82",
"G. c #D8B686",
"H. c #DEBB93",
"J. c #EEA686",
"K. c #F3AF8C",
"L. c #F2A881",
"P. c #F5B28C",
"I. c #F7BF8D",
"U. c #EDAC98",
"Y. c #F6A49A",
"T. c #F8A59C",
"R. c #F4AA92",
"E. c #F5BB93",
"W. c #F2B59A",
"Q. c #F3AEA1",
"!. c #F8ABA3",
"~. c #F8ABA6",
"^. c #F2B2A4",
"/. c #F8B1A6",
"(. c #F6BFA4",
"). c #F9B5AF",
"_. c #F4BBAD",
"`. c #F5B7AC",
"'. c #F9BAB2",
"]. c #FABFBB",
"[. c #D9C18E",
"{. c #DDC391",
"}. c #FAC488",
"|. c #E0C89A",
" X c #DDD6A9",
".X c #E2CDA3",
"XX c #F5C3AC",
"oX c #F6C5AB",
"OX c #E0D6AC",
"+X c #F8CCB5",
"@X c #FAC3BB",
"#X c #F7CDBD",
"$X c #F7C7B8",
"%X c #EAD6B7",
"&X c #E8D7B5",
"*X c #F9D3BC",
"=X c #FAC4C0",
"-X c #F9CDC8",
";X c #F4D3C2",
":X c #F7D3CA",
">X c #FADBCD",
",X c #FAD5C7",
"<X c #FBD7D1",
"1X c #FBDED3",
"2X c #FCDED8",
"3X c #F6DAD8",
"4X c #FCE3CB",
"5X c #FBE3D2",
"6X c #FCE5DE",
"7X c #FDECDC",
"8X c #F3EBD9",
"9X c #FDECE5",
"0X c #FDEEE8",
"qX c #FAE6E2",
"wX c #FEF3EF",
"eX c #FEF6F4",
"rX c #FEF9F7",
"tX c #FFFDFC",
"yX c None",
/* pixels */
"yXyXyXyXyXyXyXyXyXyXyXyXyXyXyXyXyXyXyXyXyXyXyXyXyXyXyXyXyXyXyXyXyXyXyXyXyXyXyXyXyXyXyXyXyXyXyXyXyXyXyXyXyXyXyXyXyXyXyXyX",
"yXyXyXyXyXyXyXyXyXyXyXyXyXyXyXyXyXyXyXyXyXyXyXyXyXyXyXyXyXyXyXyXyXyXyXyXyXyXyXyXyXyXyXyXyXyXyXyXyXyXyXyXyXyXyXyXyXyXyXyX",
"yXyXyXyXyXyXyXyXyXyXyXyXyXyXyXyXyXyXyXyXyXyXyXyXyXyXyXyXyXyXyXyXyXyXyXyXyXyXyXyXyXyXyXyXyXyXyXyXyXyXyXyXyXyXyXyXyXyXyXyX",
"yXyXyXyXyXyXyXyXyXyXyXyXyXyXyXyXyXyXyXyXyXyXyXyXyXyXyXyXyXyXyXyXyXyXyXyXyXyXyXyXyXyXyXyXyXyXyXyXyXyXyXyXyXyXyXyXyXyXyXyX",
"yXyXyXyXyXyXyXyXyXyXyXyXyXyXyXyXyXyXyXyXyXyXyXyXyXyXyXyXyXyXyXyXyXyXyXyXyXyXyXyXyXyXyXyXyXyXyXyXyXyXyXyXyXyXyXyXyXyXyXyX",
"yXyXyXyXyXyXyXyXyXyXyXyXyXyXyXyXyXyXyXyXyXyXyXyXyXyXyXyXyXyXyXyXyXyXyXyXyXyXyXyXyXyXyXyXyXyXyXyXyXyXyXyXyXyXyXyXyXyXyXyX",
"yXyXyXyXyXyXyXyXyXyXyXyXyXyXyXyXyXyXyXyXyXyXyXyXyXyXyXyXyXyXyXyXyXyXyXyXyXyXyXyXyXyXyXyXyXyXyXyXyXyXyXyXyXyXyXyXyXyXyXyX",
"yXyXyXyXyXyXyXyXyXyXyXyXyXyXyXyXyXyXyXyXyXyXyXyXyXyXyXyXyXyXyXyXyXyXyXyXyXyXyXyXyXyXyXyXyXyXyXyXyXyXyXyXyXyXyXyXyXyXyXyX",
"yXyXyXyXyXyXyXyXyXyXyXyXyXyXyXyXyXyXyXyXyXyXyXyXyXyXyXyXyXyXyXyXyXyXyXyXyXyXyXyXyXyXyXyXyXyXyXyXyXyXyXyXyXyXyXyXyXyXyXyX",
"yXyXyXyXyXyXyXyXyXyXyXyXyXyXyXyXyXyXyXyXyXyXyXyXyXyXyXyXyXyXyXyXyXyXyXyXyXyXyXyXyXyXyXyXyXyXyXyXyXyXyXyXyXyXyXyXyXyXyXyX",
"yXyXyXyXyXyXyXyXyXyXyXyXyXyXyXyXyXyXyXyXyXyXyXyXyXyXyXyXyXyXyXyXyXyXyXyXyXyXyXyXyXyXyXyXyXyXyXyXyXyXyXyXyXyXyXyXyXyXyXyX",
"yXyXyXyXyXyXyXyXyXyXyXyXyXyXyXyXyXyXyXyXyXyXyXyXyXyXyXyXyXyXyXyXyXyXyXyXyXyXyXyXyXyXyXyXyXyXyXyXyXyXyXyXyXyXyXyXyXyXyXyX",
"yXyXyXyXyXyXyXyXyXyXyXyXyXyXyXyXyXyXyXyXyXyXyXyXyXyXyXyXyXyXyXyXyXyXyXyXyXyXyXyXyXyXyXyXyXyXyXyXyXyXyXyXyXyXyXyXyXyXyXyX",
"yXyXyXyXyXyXyXyXyXyXyXyXyXyXyXyXyXyXyXyXyXyXyXyXyXyXyXyXyXyXyXyXyXyXyXyXyXyXyXyXyXyXyXyXyXyXyXyXyXyXyXyXyXyXyXyXyXyXyXyX",
"yXyXyXyXyXyXyXyXyXyXyXyXyXyXyXyXyXyXyXyXyXyXyXyXyXyXyXyXyXyXyXyXyXyXyXyXyXyXyXyXyXyXyXyXyXyXyXyXyXyXyXyXyXyXyXyXyXyXyXyX",
"yXyXyXyXyXyXyXyXyXyXyXyXyXyXyXyXyXyXyXyXyXyXyXyXyXyXyXyXyXyXyXyXyXyXyXyXyXyXyXyXyXyXyXyXyXyXyXyXyXyXyXyXyXyXyXyXyXyXyXyX",
"yXyXyXyXyXyXyXyXyXyXyXyXyXyXyXyXyXyXyXyXyXyXyXyXyXyXyXyXyXyXyXyXyXyXyXyXyXyXyXyXyXyXyXyXyXyXyXyXyXyXyXyXyXyXyXyXyXyXyXyX",
"yXyXyXyXyXyXyXyXyXyXyXyXyXyXyXyXyXyXyXyXyXyXyXyX2X2X2X<X!.!.T.T.C.V.V.V.k.j.D.U.W.%X%X%X%XyXyXyXyXyXyXyXyXyXyXyXyXyXyXyX",
"yXyXyXyXyXyXyXyXyXyXyXyXyXyXyXyXyXyXyXyXyXyXyXyX2X2X2X<X!.!.T.Y.C.V.V.V.k.j.G.R.(.&X%X%X%XyXyXyXyXyXyXyXyXyXyXyXyXyXyXyX",
"yXyXyXyXyXyXyXyXyXyXyXyXyXyXyXyXyXyXyXyXyXyXrX-XT.T.C.C.+.+.+.+./ _ _ T R T ' w.r.[.{.OXOXtXtXyXyXyXyXyXyXyXyXyXyXyXyXyX",
"yXyXyXyXyXyXyXyXyXyXyXyXyXyXyXyXyXyXyXyXyXrXrX-XC.C.m.;.) ) ^ ^ E Y U Y Y Y T { w.F.F. X XtXtXyXyXyXyXyXyXyXyXyXyXyXyXyX",
"yXyXyXyXyXyXyXyXyXyXyXyXyXyXyXyXyXyXyXyXrXrXrX=X;.&.( ( s s s s < 8 < 8 3 9 M T { z.z. X XtXtXyXyXyXyXyXyXyXyXyXyXyXyXyX",
"yXyXyXyXyXyXyXyXyXyXyXyXyXyXyXyXyXyXyXrXrXeXrX@X%.+.^ U 2 2 2 2 o o o + X * 9 M F 4.z. X XtXtXyXyXyXyXyXyXyXyXyXyXyXyXyX",
"yXyXyXyXyXyXyXyXyXyXyXyXyXyXyXyXyXyXyX<X<X<X<X!.( ^ h U 2 2 2 2 o o < o + X 9 x D 3.4.[.[.8X8XyXyXyXyXyXyXyXyXyXyXyXyXyX",
"yXyXyXyXyXyXyXyXyXyXyXyXyXyXyXyXyXyXyX'.).).'.m.Q U p i 2 2 2 2 O O O O # O 8 r v 2.2.j.j.%X%XyXyXyXyXyXyXyXyXyXyXyXyXyX",
"yXyXyXyXyXyXyXyXyXyXyXyXyXyXyXyXyXyXyX/./././.a.U g i i 2 2 2 2 O O O O O < 4 9 v >.2.h.h.&X&XyXyXyXyXyXyXyXyXyXyXyXyXyX",
"yXyXyXyXyXyXyXyXyXyXyXyXyXyXyXyXyXyXyXY.Y.Y.Y.&.h h 2 2 2 2 2 2 # O O # O # 5 q x j >.g.g.|..XyXyXyXyXyXyXyXyXyXyXyXyXyX",
"yXyXyXyXyXyXyXyXyXyXyXyXyXyXyXyXyXyXyXZ.C.M.s...h s 2 2 2 2 2 2 # # # # # # 5 0 c G F e.e.|.|.yXyXyXyXyXyXyXyXyXyXyXyXyX",
"yXyXyXyXyXyXyXyXyXyXyXyXyXyXyXyXyX0X0XC.%.) Z d i 2 2 2 2 2 2 2 2 2 2 2 2 2 2 t 7 q c [ [ F.F.yXyXyXyXyXyXyXyXyXyXyXyXyX",
"yXyXyXyXyXyXyXyXyXyXyXyXyXyXyXyXyX0X0XC.#.^ f s 2 i 2 2 2 2 2 2 2 2 2 2 2 2 y t 7 q n ' [ F.F.yXyXyXyXyXyXyXyXyXyXyXyXyX",
"yXyXyXyXyXyXyXyXyXyXyXyXyXyXyXqX6X6X6XM.#.Q p i 2 2 2 2 2 2 2 2 2 2 2 2 2 2 1 t a e e ' ' l.l.yXyXyXyXyXyXyXyXyXyXyXyXyX",
"yXyXyXyXyXyXyXyXyXyXyXyXyXyXyX6X6X6X6XM.#.Q p p 2 2 2 2 i 2 2 2 2 2 2 2 2 2 y a 5 0 c ' ' l.l.yXyXyXyXyXyXyXyXyXyXyXyXyX",
"yXyXyXyXyXyXyXyXyXyXyXyXyXyXyX%.%.%.%.W U i 2 2 2 2 2 s s.s.s.V.-.&.*.X.f 1 1 1 # O + z z :.:.G.H.;X1XyXyXyXyXyXyXyXyXyX",
"yXyXyXyXyXyXyXyXyXyXyXyXyXyXyX%.%.%.%.! h i 2 2 2 2 2 s s.s.V.d.p.&.X.X.g 2 1 # # o O z z :.:.G.H.%X1XyXyXyXyXyXyXyXyXyX",
"yXyXyXyXyXyXyXyXyXyXyXyXyXyXyX%.%.+.+.W h i 2 2 2 2 2 p p.p.s.p.*.*.X...h 2 1 # # o @ l l >.j G.H.;X1XyXyXyXyXyXyXyXyXyX",
"yXyXyXyXyXyXyXyXyXyXyXyXyXyXyX%.%.+.+.U h i 2 2 2 2 2 u p.p.p.s.*.*.X...g 2 1 # # # ; l l >.j j.H.;X1XyXyXyXyXyXyXyXyXyX",
"yXyXyXyXyXyXyXyXyXyXyXyXyX@X@X%.%.U s i i 2 2 2 2 2 2 2 Z Z Z Z C f f f t 1 # O O O O = = > > N.U.:XqXyXyXyXyXyXyXyXyXyX",
"yXyXyXyXyXyXyXyXyXyXyXyXyX@X@X%.#.i 2 2 2 2 2 2 2 2 2 2 u u u u u u u u y # # # O O O X : & % b.S.:X0XyXyXyXyXyXyXyXyXyX",
"yXyXyXyXyXyXyXyXyXyXyX'.)./.~.+.+.i 2 2 2 2 2 2 2 2 2 2 u u u u u u u y 2 1 # # # O O + + : & u.N.-X6XyXyXyXyXyXyXyXyXyX",
"yXyXyXyXyXyXyXyXyXyXyX'.).Y.Y.( ( i 2 2 2 2 2 2 2 2 2 2 y u u u u u y y 2 1 1 # # O O @ @ : = =.b.@X1XyXyXyXyXyXyXyXyXyX",
"yXyXyXyXyXyXyXyXyXyX<X).~.;.&.! ! i 2 2 2 2 2 2 2 2 2 2 y y y y $ y y y 2 2 1 1 1 # # # # @ @ O.=.!.@XyXyXyXyXyXyXyXyXyX",
"yXyXyXyXyXyXyXyXyXeX6X~.Z.W Z d h 2 2 2 2 2 2 2 2 2 2 2 2 2 2 2 2 2 2 2 2 2 2 2 2 2 2 1 1 # # ( @.V.Z.yXyXyXyXyXyXyXyXyX",
"yXyXyXyXyXyXyXyXyX9X<X!.A.g Z s s 2 2 2 2 2 2 2 2 2 1 2 2 2 1 2 y $ 2 2 1 2 2 1 2 2 1 1 1 # 1 / ..a.C.Y.yXyXyXyXyXyXyXyX",
"yXyXyXyXyXyXyXyXyX:X].C.m.h h p i 2 2 2 2 2 2 2 1 t t 1 t 5 @ t $ $ # # 1 1 1 1 1 2 2 1 1 1 1 ! / #.;.Z.'.'.yXyXyXyXyXyX",
"yXyXyXyXyXyXyXyXyX=X'.M.a.s s i i 2 2 2 2 2 2 2 t t 5 t ; ; ; 4 < < O @ # # 1 1 # 2 2 1 1 # 2 E ! ..@.A.].@XyXyXyXyXyXyX",
"yXyXyXyXyXyXyXyXyXC.m.+.( 2 2 2 2 2 2 2 2 2 2 2 5 4 : 6 * * * * & & X X + + O O 1 2 2 2 2 2 2 p p f f M.=X<XeXeXyXyXyXyX",
"yXyXyXyXyXyXyXyXyXC.a...( 2 2 1 2 2 2 2 2 2 2 i 8 8 w 9 3 3 3 3 = = : 3 + o o < # 2 2 2 2 2 2 p p d f m.=X<XwXwXyXyXyXyX",
"yXyXyXyXyXyX^.!.B. ./ E E 1 1 1 2 2 2 2 2 2 i U $.=.n.b.N.N.N.N.N.N.u.=.T w w 4 < o o o O O @ 5 7 0 8 $.Y._.,X:XyXyXyXyX",
"yXyXyXyXyXyXQ.Q.V. . .C Z t $ $ $ 2 2 2 $ 2 2 W =.=.n.n.N.N.N.N.N.N.u.=.T r 8 4 ; O o + + ; ; 5 7 0 0 $.Q.`.:X;XyXyXyXyX",
"yXyXyXyX6X1X$X^.=.c e 0 0 ; ; $ $ 2 $ y y y y +.].-XqXqXeXrXrXeXeXrX3X3Xb.Y r r 3     . . % % = = & = ] b.J.Q.Q.yXyXyXyX",
"yXyXyXyX2X1X#X/.i.0 e a 0 @ ; 1 # $ 1 2 y y y #.=X-X0X0XtXtXtXtXtXtXqX3Xb.Y n r 3     . . % % % & = = R i.B.W.W.yXyXyXyX",
"yXyXyXyX*X#X(.T.f.L P P H B H V N N N N N C C $.`.`.yXyXyXyXyXyXyXyXyXyX$.] ` ` m , k c c B S S b m m o.d.B.R.R.yXyXyXyX",
"yXyXyXyX+X+XoXE.f.} I I I H K B H c V N V A E $.!.W.yXyXyXyXyXyXyXyXyXyXo.$.] ` m c c B S J J P P P P 9.d.L.P.K.yXyXyXyX",
"yXyXyXyXXXXXW.P.x.5.6.,.,.<.<.K K S H P L } } o.yXyXyXyXyXyXyXyXyXyXyXyXw.t.o.| | S S K K <.<.5.,.5.| y.x.L.P.P.yXyXyXyX",
"yXyXyXyX(.(.E.P.x.7.8.7.7.1.1.K ,.J J I } } } } yXyXyXyXyXyXyXyXyXyXyXyXt.t.w.9.5.J J <.<.1.1.8.8.6.6.y.x.L.P.P.yXyXyXyX",
"yXyXyXyXyXyXyXyXP.E.I.I.I.}.}.c.x.v.y.d.d.d.d.B.yXyXyXyXyXyXyXyXyXyXyXyXW.W.P.J.J.y.v.c.L.}.}.}.E.E.W.P.yXyXyXyXyXyXyXyX",
"yXyXyXyXyXyXyXyXyX5X5X4X4X4X4X+X+XoXoXXXXXXXXX$XyXyXyXyXyXyXyXyXyXyXyXyX;X;X=X#X$XoX+X*X*X4X4X5X5X5X5XyXyXyXyXyXyXyXyXyX",
"yXyXyXyXyXyXyXyXyX9X9X7X7X7X7X,X,X+XoX+X#X;X#X#XyXyXyXyXyXyXyXyXyXyXyXyX<X>X>X,X,X#X*X>X4X7X7X9X9X9X0XyXyXyXyXyXyXyXyXyX",
"yXyXyXyXyXyXyXyXyXtXtXrXrXeXeX7X6X1X>X1X1X1X1X1XyXyXyXyXyXyXyXyXyXyXyXyX6X6X6XqX6X6X6X0X0XrXtXtXtXtXtXyXyXyXyXyXyXyXyXyX",
"yXyXyXyXyXyXyXyXyXtXrXrXrXwXeX6X6X1X>X5X1X1X1XyXyXyXyXyXyXyXyXyXyXyXyXyXyXqX6X6X6X5X6X0X0XrXrXtXtXtXtXyXyXyXyXyXyXyXyXyX",
"yXyXyXyXyXyXyXyXyXyXyXyXyXyXyXyXyXyXyXyXyXyXyXyXyXyXyXyXyXyXyXyXyXyXyXyXyXyXyXyXyXyXyXyXyXyXyXyXyXyXyXyXyXyXyXyXyXyXyXyX",
"yXyXyXyXyXyXyXyXyXyXyXyXyXyXyXyXyXyXyXyXyXyXyXyXyXyXyXyXyXyXyXyXyXyXyXyXyXyXyXyXyXyXyXyXyXyXyXyXyXyXyXyXyXyXyXyXyXyXyXyX",
"yXyXyXyXyXyXyXyXyXyXyXyXyXyXyXyXyXyXyXyXyXyXyXyXyXyXyXyXyXyXyXyXyXyXyXyXyXyXyXyXyXyXyXyXyXyXyXyXyXyXyXyXyXyXyXyXyXyXyXyX",
"yXyXyXyXyXyXyXyXyXyXyXyXyXyXyXyXyXyXyXyXyXyXyXyXyXyXyXyXyXyXyXyXyXyXyXyXyXyXyXyXyXyXyXyXyXyXyXyXyXyXyXyXyXyXyXyXyXyXyXyX"
};
