/* XPM */
static char *b[] = {
/* columns rows colors chars-per-pixel */
"64 64 93 2 ",
"   c #FF9B0A",
".  c #FFA60C",
"X  c #FDA314",
"o  c #FFAD14",
"O  c #FDA51C",
"+  c #FDAE1B",
"@  c #FFB117",
"#  c #FEB41C",
"$  c #FFB91F",
"%  c #FDA723",
"&  c #FEAC24",
"*  c #FDAC2A",
"=  c #FEB423",
"-  c #FFBC24",
";  c #FEB42C",
":  c #FEBE29",
">  c #FDAE33",
",  c #FCAE38",
"<  c #FEB631",
"1  c #FDBA34",
"2  c #FEB43B",
"3  c #FFC127",
"4  c #FFC42B",
"5  c #FFC82F",
"6  c #FEC533",
"7  c #FFCD34",
"8  c #FDC53B",
"9  c #FECB3C",
"0  c #FDB442",
"q  c #FDBB44",
"w  c #FDB64B",
"e  c #FEBA4D",
"r  c #FEBC53",
"t  c #FCBE5E",
"y  c #FDBE61",
"u  c #FDC444",
"i  c #FECA44",
"p  c #FDC74C",
"a  c #FECA4B",
"s  c #FED04E",
"d  c #FEC156",
"f  c #FCC854",
"g  c #FCC85A",
"h  c #FDD05C",
"j  c #FDC264",
"k  c #FCC46B",
"l  c #FDCE6E",
"z  c #FED263",
"x  c #FED46B",
"c  c #FDC571",
"v  c #FDCC73",
"b  c #FDCB7C",
"n  c #FED573",
"m  c #FDD37A",
"M  c #FED97F",
"N  c #F9C782",
"B  c #FDCD83",
"V  c #FCCD8B",
"C  c #FDD382",
"Z  c #FED983",
"A  c #FCD38C",
"S  c #FEDA8D",
"D  c #FDD494",
"F  c #FEDB94",
"G  c #FDD59B",
"H  c #FDDA9C",
"J  c #FEE09E",
"K  c #FDD6A1",
"L  c #FDDBA3",
"P  c #FDDCAB",
"I  c #FDDEB3",
"U  c #FEE2A2",
"Y  c #FEE0AD",
"T  c #FDE0B4",
"R  c #FEE8B6",
"E  c #FEE4BB",
"W  c #FEE9B9",
"Q  c #FDE6C5",
"!  c #FEE8C7",
"~  c #FDE6CA",
"^  c #FEE9CD",
"/  c #FEECD3",
"(  c #FEEEDC",
")  c #FEF0D2",
"_  c #FEF0DC",
"`  c #FEF4E5",
"'  c #FFF8E7",
"]  c #FEF5EA",
"[  c #FFF8EC",
"{  c #FEF7F0",
"}  c #FEF9F4",
"|  c #FFFEFD",
" . c None",
/* pixels */
" . . . . . . . . . . . . . . . . . . . . . . . . . . . . . . . . . . . . . . . . . . . . . . . . . . . . . . . . . . . . . . . .",
" . . . . . . . . . . . . . . . . . . . . . . . . . . . . . . . . . . . . . . . . . . . . . . . . . . . . . . . . . . . . . . . .",
" . . . . . . . . . . . . . . . . . . . . . . . . . . . . . . . . . . . . . . . . . . . . . . . . . . . . . . . . . . . . . . . .",
" . . . . . . . . . . . . . . . . . . . . . . . . . . . . . . . . . . . . . . . . . . . . . . . . . . . . . . . . . . . . . . . .",
" . . . . . . . . . . . . . . . . . . . . . . . . . . . . . . . . . . . . . . . . . . . . . . . . . . . . . . . . . . . . . . . .",
" . . . . . . . . . . . . . . . . . . . . . . . . . . . . . . . . . . . . . . . . . . . . . . . . . . . . . . . . . . . . . . . .",
" . . . . . . . . . . . . . . . . . . . . . . . . . . . . . . . . . . . . . . . . . . . . . . . . . . . . . . . . . . . . . . . .",
" . . . . . . . . . . . . . . . . . . . . . . . . . . . . . . . . . . . . . . . . . . . . . . . . . . . . . . . . . . . . . . . .",
" . . . . . . . . . . . . . . . . . . . . . . . . . . . . . . . . . . . . . . . . . . . . . . . . . . . . . . . . . . . . . . . .",
" . . . . . . . . .| | } } ] ` ^ ! Y P H H F A F H H L P E E W W ^ ^ ( / ` ] ] [ } | | | |  . . . . . . . . . . . . . . . . . . .",
" . . . . . . . .[ } [ ` ` / / R R H J S S C C S S F F F U P U U E E E Q ^ / / ) _ ` ] ] ]  . . . . . . . . . . . . . . . . . . .",
" . . . . . .( ` ( / / Q E U U F J M M n n x x x n n m M Z Z Z Z F F F F H L U U Y T T T T  . . . . . . . . . . . . . . . . . . .",
" . . . . . .( ( ^ ~ Q T Y S S M M n n x x z z x x x x x M n n n Z Z Z Z A A A S F G K P I  . . . . . . . . . . . . . . . . . . .",
" . . . .{ { ( ( I V N k g 6 6 6 7 7 7 7 7 7 7 7 7 7 7 7 7 7 7 7 7 7 7 6 5 4 1 : ; * 0 c V ] ]  . . . . . . . . . . . . . . . . .",
" . . . .] ] ( / I N N k g 5 6 6 7 7 7 7 7 7 7 7 7 7 7 7 7 7 7 7 7 7 7 7 5 4 : : ; % 0 c B ` `  . . . . . . . . . . . . . . . . .",
" . . . .( ( / / /  . .g f 7 6 7 7 7 7 7 7 7 7 7 7 7 7 7 7 7 7 7 7 7 7 7 5 4 4 : + O * w y P P ~ ^  . . . . . . . . . . . . . . .",
" . . . .( ( / ^ ^  . .g f 7 7 7 7 7 7 7 7 7 7 7 7 7 7 7 7 7 7 7 7 7 7 7 5 5 4 : % O * w y P P ~ Q  . . . . . . . . . . . . . . .",
" . . . .~ ~ ~ ~ !  . . . .7 7 7 7 7 7 7 7 7 7 7 7 7 7 7 7 7 7 7 7 7 7 7 5 4 4 - +   O * , j k T I | |  . . . . . . . . . . . . .",
" . . . .Q ~ ~ Q !  . . . .7 7 7 7 7 7 7 7 7 7 7 7 7 7 7 7 7 7 7 7 7 7 7 5 4 4 - +   X * > y y I I | |  . . . . . . . . . . . . .",
" . . . ./ ( ( ( _  . . . .7 7 7 7 7 7 7 7 7 7 7 7 7 6 9 z h z z 9 7 6 7 5 4 : - # X + & * , 0 G G | |  . . . . . . . . . . . . .",
" . . . .( ( ( ` _  . . . .7 7 7 7 7 7 7 7 7 7 7 7 6 7 9 z z x x 9 7 7 6 4 4 - - = + + & = > , D D } |  . . . . . . . . . . . . .",
" . . . .] ] ] ] '  . . . .7 7 7 7 7 7 7 7 7 7 7 5 7 5 i b m C V 9 9 9 8 4 - - - - # # = O O % A A } |  . . . . . . . . . . . . .",
" . . . .} { ] ] '  . . . .7 7 7 7 7 9 7 7 7 7 7 6 6 6 i N C A A 9 8 8 8 4 - - - - $ # + + . O B B } |  . . . . . . . . . . . . .",
" . . . .( ( ( ( '  . . . .7 7 7 7 7 7 7 7 7 7 7 7 6 6 p C C D A 8 8 8 8 5 4 3 3 $ $ = + + X O A C } |  . . . . . . . . . . . . .",
" . . . ./ / ~ / /  . . . .7 7 7 7 7 7 7 7 7 7 7 7 5 5 9 C C A A 8 8 8 9 6 7 4 4 - # # + + X O A A } |  . . . . . . . . . . . . .",
" . . . .~ ~ ~ ~ ~  . . . .7 7 7 7 7 7 7 7 7 7 7 7 7 7 i B C A A 9 8 8 9 6 7 4 4 $ # # # + X O A A | |  . . . . . . . . . . . . .",
" . . . .Q Q Q Q ~  . . . .7 7 7 7 7 7 7 7 7 7 7 6 6 5 i M C S S 9 8 8 9 7 7 5 4 - # # + + X O A A | |  . . . . . . . . . . . . .",
" . . . ./ / / / /  . . . .7 7 7 7 7 7 7 7 7 7 7 7 7 6 i n n n M 8 8 9 6 7 7 4 4 - @ # # + % * D D } |  . . . . . . . . . . . . .",
" . . . .} } } | }  . . . .7 7 5 7 7 3 5 5 7 7 7 7 7 7 7 9 i s 7 6 7 6 6 7 7 5 4 $ o o & & 0 w H H } |  . . . . . . . . . . . . .",
" . . . .} } } } |  . . . .7 7 5 7 7 4 4 5 7 7 7 7 7 7 7 7 9 7 s 7 6 7 7 7 7 4 4 # o o & * 0 w H H | |  . . . . . . . . . . . . .",
" . . . .| } | | |  . . . .7 7 5 7 4 4 5 5 7 5 7 7 7 7 7 7 7 7 7 7 7 7 7 7 7 4 4 $ o + = ; 0 w H H | |  . . . . . . . . . . . . .",
" . . . .| | | } }  . . . .7 7 6 5 4 3 5 5 5 5 7 7 7 7 7 7 7 7 7 7 7 7 7 6 7 6 4 # o + * * 0 w L L | |  . . . . . . . . . . . . .",
" . . . .` ] ] ] ]  . . . .7 7 6 7 3 4 3 3 3 3 3 3 3 3 4 7 7 7 7 7 7 7 7 7 7 7 7 5 4 1 0 q j j I P [ }  . . . . . . . . . . . . .",
" . . . .] ] ] ` ]  . . . .7 7 6 5 5 3 3 3 3 3 3 3 3 3 4 7 7 7 7 7 7 7 7 7 7 7 6 5 4 6 0 w g y P I ] }  . . . . . . . . . . . . .",
" . . . .] ] ] ] ]  . . . .7 7 5 5 4 3 3 3 3 3 3 3 3 4 5 7 7 7 7 7 7 7 7 7 7 7 5 4 - 4 8 u t j L L ` ]  . . . . . . . . . . . . .",
" . . . .] ] ] ] ]  . . . .7 6 5 5 4 3 3 3 3 3 3 3 4 4 7 7 7 7 7 7 7 7 7 7 7 7 5 5 : 4 8 q t j L L ` `  . . . . . . . . . . . . .",
" . . . .| | } [ ( T P S n 6 6 4 3 $ $ $ $ 3 3 3 5 5 7 7 5 6 6 6 7 7 7 7 7 7 7 7 7 7 5 4 : = ; k j P P  . . . . . . . . . . . . .",
" . . . .| | } [ / T L S m 6 6 - 3 @ @ $ $ 3 3 5 5 7 7 7 5 5 5 5 7 7 7 7 7 7 7 7 7 7 5 3 - @ @ e r V G  . . . . . . . . . . . . .",
" . . . .| | } } ) Q T S m 9 8 - 3 $ $ - 3 3 3 4 5 5 7 7 9 i 9 i 7 9 9 9 7 7 7 7 7 7 6 3 - # # r r B V G P  . . . . . . . . . . .",
" . . . .| | } [ _ ^ E F C 9 8 : 3 $ $ 3 3 3 3 5 5 7 7 7 i p f f 7 s 9 9 7 7 7 7 7 7 5 3 - @ # d d N B K L  . . . . . . . . . . .",
" . . . . .| | [ ] ` ^ U S 8 8 6 3 - 3 4 4 4 5 5 7 7 7 9 x x b v s s i a 9 7 7 7 7 7 7 7 3 $ $ q q y y K I /  . . . . . . . . . .",
" . . . . . . . . .| ' W H 8 1 6 5 4 4 5 4 7 7 7 7 7 7 s F H K K h h g g 9 7 7 7 7 7 7 7 4 - - 1 1 0 0 K T ] |  . . . . . . . . .",
" . . . . . . . . .| ` W J 8 2 6 6 4 4 5 5 7 7 7 7 7 7 s A A G G g g f f i 7 7 7 7 7 7 5 4 - 3 ; < 2 0 K T [ |  . . . . . . . . .",
" . . . . . . . . .| ' W J 8 u 7 6 5 5 6 7 7 7 7 7 7 7 s m v N m p a a a 9 7 7 7 7 7 7 3 3 $ $ ; ; 2 2 G T ] |  . . . . . . . . .",
" . . . . . . . . .| ' W H 8 8 6 7 7 7 7 7 7 7 7 7 7 7 i k v v b p p p i 9 7 7 7 7 7 7 4 3 $ $ ; ; , , G T ` |  . . . . . . . . .",
" . . . . . . . . .| ' W U u u 7 9 7 7 7 7 7 7 7 7 7 7 9 u u u u 6 6 6 9 7 7 7 7 7 7 5 4 3 @ # $ = * * G Y ` |  . . . . . . . . .",
" . . . . . . . . .| ' R U u 8 8 7 7 7 7 7 7 7 7 7 7 7 9 u u u u 8 6 6 6 7 7 7 7 7 7 5 3 3 @ @ $ = * > G I ` |  . . . . . . . . .",
" . . . . . . . . .| ' R U u p 9 i 7 7 7 7 7 7 7 7 7 7 7 8 i i 9 7 7 6 6 7 7 7 7 7 5 4 3 3 @ @ 6 2 t t G P  . . . . . . . . . . .",
" . . . . . . . . .| ' W U i u 8 i 7 7 7 7 7 7 7 7 7 7 7 9 8 9 9 7 7 7 6 7 7 7 7 5 5 4 - - @ # 2 2 g y G P  . . . . . . . . . . .",
" . . . . . . . . .| ' W U i i 8 9 7 7 7 7 7 7 7 7 7 7 7 7 7 7 7 7 7 7 7 7 7 7 5 5 3 3 - # . . e q V V  . . . . . . . . . . . . .",
" . . . . . . . . .| ' W U u i i i 7 7 7 7 7 7 7 7 7 7 7 7 7 7 7 7 7 7 7 7 7 6 5 4 4 3 $ # . X w r V D  . . . . . . . . . . . . .",
" . . . . . . . . .| ] E L q q 1 1 : : : 4 3 4 3 3 4 4 4 : : : : 3 3 3 3 - - - - ; - ; 1 1 0 q B B T Q  . . . . . . . . . . . . .",
" . . . . . . . . .| ] E L q q 1 1 - - - - - - - - - - - - - - - - 3 - - # # = = = ; ; 2 0 r r A A ^ ~  . . . . . . . . . . . . .",
" . . . . . . . . .| ` E H 0 0 < ; $ & # = # & # = + = + + = = # # # # # + + + O & * < 0 w k c P L ( `  . . . . . . . . . . . . .",
" . . . . . . . . .| ` T L 0 0 ; > + + + + + + # + + + = + + + + @ # @ @ O X O O % * > w r b b T I ` ]  . . . . . . . . . . . . .",
" . . . . . . . . . .` ~ E V C b b v l v l v v v l l v v v v m v x l v x v c c c b b B V B  . . . . . . . . . . . . . . . . . . .",
" . . . . . . . . . . ./ / ^ Q E Q T E W E E E E E E E E E E Q E E W Q E Q Q Q Q ^ ^ Q Q E  . . . . . . . . . . . . . . . . . . .",
" . . . . . . . . . . .( _ / _ / / / ^ ^ / ) / / / / / / ) / / / ) ) ) / ) _ _ _ _ ` _ ) _  . . . . . . . . . . . . . . . . . . .",
" . . . . . . . . . . . . .} } [ ] ] [ [ } } } } } } } } } } } [ | | } } | | | } | | | | |  . . . . . . . . . . . . . . . . . . .",
" . . . . . . . . . . . . .} } [ } ] [ } [ } } [ } [ [ } } } [ } } } } | } } | | | | | | |  . . . . . . . . . . . . . . . . . . .",
" . . . . . . . . . . . . . . . . . . . . . . . . . . . . . . . . . . . . . . . . . . . . . . . . . . . . . . . . . . . . . . . .",
" . . . . . . . . . . . . . . . . . . . . . . . . . . . . . . . . . . . . . . . . . . . . . . . . . . . . . . . . . . . . . . . .",
" . . . . . . . . . . . . . . . . . . . . . . . . . . . . . . . . . . . . . . . . . . . . . . . . . . . . . . . . . . . . . . . .",
" . . . . . . . . . . . . . . . . . . . . . . . . . . . . . . . . . . . . . . . . . . . . . . . . . . . . . . . . . . . . . . . ."
};
