/* XPM */
static char *c[] = {
/* columns rows colors chars-per-pixel */
"60 64 214 2 ",
"   c #DB3C2A",
".  c #EA3B28",
"X  c #F03D28",
"o  c #B97833",
"O  c #B27F2F",
"+  c #D7442C",
"@  c #D2552D",
"#  c #D5562E",
"$  c #E85731",
"%  c #EE4A31",
"&  c #C8652F",
"*  c #DC6634",
"=  c #CD7731",
"-  c #C87C38",
";  c #D16D33",
":  c #EF6638",
">  c #E8694E",
",  c #E1754F",
"<  c #E9785A",
"1  c #F1785D",
"2  c #F07E62",
"3  c #DC7841",
"4  c #4B9712",
"5  c #549B15",
"6  c #45920E",
"7  c #5CA41B",
"8  c #57A117",
"9  c #63A41B",
"0  c #6CA31C",
"q  c #62A81F",
"w  c #62A015",
"e  c #7AA91E",
"r  c #65AB22",
"t  c #6BAC24",
"y  c #6EA720",
"u  c #73AD25",
"i  c #7BAD23",
"p  c #78AE29",
"a  c #6CB027",
"s  c #6EB129",
"d  c #74B52C",
"f  c #7CB22D",
"g  c #78B82F",
"h  c #78B52C",
"j  c #7CBB33",
"k  c #7BB333",
"l  c #7CAF35",
"z  c #7FB040",
"x  c #B0812C",
"c  c #AD8B35",
"v  c #B38433",
"b  c #B48836",
"n  c #A79837",
"m  c #AB9936",
"M  c #B59435",
"N  c #A48A2D",
"B  c #88AF2E",
"V  c #81AB23",
"C  c #84B02D",
"Z  c #9CAB3A",
"A  c #82B334",
"S  c #8BB332",
"D  c #83BD35",
"F  c #89BC36",
"G  c #85B53B",
"H  c #84BF3D",
"J  c #8EBD3B",
"K  c #8CB53B",
"L  c #92B63B",
"P  c #94BB3E",
"I  c #A0A439",
"U  c #C58132",
"Y  c #85C139",
"T  c #8CC53D",
"R  c #92C63E",
"E  c #8AB743",
"W  c #94BB43",
"Q  c #94BB4B",
"!  c #9BBC49",
"~  c #9FBF54",
"^  c #8EB851",
"/  c #A1BF52",
"(  c #ADAA4B",
")  c #B69E47",
"_  c #C6974A",
"`  c #D89355",
"'  c #E6895B",
"]  c #ED956D",
"[  c #F49B77",
"{  c #F58B70",
"}  c #DAB364",
"|  c #D4AB66",
" . c #E1A46C",
".. c #F5A57C",
"X. c #95C740",
"o. c #9BC542",
"O. c #9AC842",
"+. c #99C648",
"@. c #9EC056",
"#. c #8FC740",
"$. c #A3C646",
"%. c #A3C945",
"&. c #ABCA45",
"*. c #A4CB4C",
"=. c #AACB4B",
"-. c #B3CD4D",
";. c #ABCD52",
":. c #A4C25B",
">. c #A9C659",
",. c #B8CB53",
"<. c #ADD05C",
"1. c #B6D059",
"2. c #BCD25B",
"3. c #9FC262",
"4. c #ACC662",
"5. c #A8C665",
"6. c #B5CA6A",
"7. c #B5CC66",
"8. c #AED163",
"9. c #B4D364",
"0. c #BAD46A",
"q. c #ADCC74",
"w. c #B3CB73",
"e. c #BBCD74",
"r. c #B6CD7A",
"t. c #BAD476",
"y. c #BED27B",
"u. c #BDD97A",
"i. c #B8D473",
"p. c #C2D66A",
"a. c #C0CE75",
"s. c #C5DA7D",
"d. c #C7D879",
"f. c #F79D81",
"g. c #F6AC87",
"h. c #F4B28A",
"j. c #F7AB93",
"k. c #F8BB97",
"l. c #ECAF83",
"z. c #BAD083",
"x. c #C8D684",
"c. c #CBDC85",
"v. c #C2D58C",
"b. c #CEDE8B",
"n. c #C5D585",
"m. c #D4DE8A",
"M. c #D1DD83",
"N. c #CBD996",
"B. c #CCDB9C",
"V. c #C7D792",
"C. c #D3DD9A",
"Z. c #EACA98",
"A. c #F3C69D",
"S. c #DAE18E",
"D. c #D2E093",
"F. c #D5E29A",
"G. c #DCE296",
"H. c #CFE195",
"J. c #E2E49C",
"K. c #E0E397",
"L. c #D2DEA3",
"P. c #F9CCAA",
"I. c #FAC8A5",
"U. c #F8D3AD",
"Y. c #FBCCBC",
"T. c #FAD3B6",
"R. c #EAD2A0",
"E. c #DDE5A4",
"W. c #DBE4AA",
"Q. c #D4E0A8",
"!. c #DCE5B7",
"~. c #E1E8AC",
"^. c #ECE9AC",
"/. c #E4E6A6",
"(. c #E4EAB5",
"). c #EAEAB3",
"_. c #E4EABC",
"`. c #ECECBA",
"'. c #E3E7B5",
"]. c #F4EEBD",
"[. c #FBD8C4",
"{. c #FCDED0",
"}. c #DEE9C6",
"|. c #E9EEC4",
" X c #E4ECCC",
".X c #EAEECC",
"XX c #E5EBC1",
"oX c #FDE5C3",
"OX c #F3EFC4",
"+X c #F8EFC0",
"@X c #EBF0CB",
"#X c #EEF0C6",
"$X c #FAF0C4",
"%X c #F3F1CD",
"&X c #FCF2CB",
"*X c #E7EED0",
"=X c #FCE5D6",
"-X c #FDEAD7",
";X c #EDF2D4",
":X c #EDF3DC",
">X c #F5F2D2",
",X c #FCF4D3",
"<X c #F3F5DC",
"1X c #FBF6DC",
"2X c #EFF3E0",
"3X c #F4F6E3",
"4X c #FCF7E0",
"5X c #F6F8E6",
"6X c #FDF8E4",
"7X c #F7F9EB",
"8X c #FCFAED",
"9X c #FEFCF4",
"0X c #FFFEFD",
"qX c None",
/* pixels */
"qXqXqXqXqXqXqXqXqXqXqXqXqXqXqXqXqXqXqXqXqXqXqXqXqXqXqXqXqXqXqXqXqXqXqXqXqXqXqXqXqXqXqXqXqXqXqXqXqXqXqXqXqXqXqXqXqXqXqXqX",
"qXqXqXqXqXqXqXqXqXqXqXqXqXqXqXqXqXqXqXqXqXqXqXqXqXqXqXqXqXqXqXqXqXqXqXqXqXqXqXqXqXqXqXqXqXqXqXqXqXqXqXqXqXqXqXqXqXqXqXqX",
"qXqXqXqXqXqXqXqXqXqXqXqXqXqXqXqXqXqXqXqXqXqXqXqXqXqXqXqXqXqXqXqXqXqXqXqXqXqXqXqXqXqXqXqXqXqXqXqXqXqXqXqXqXqXqXqXqXqXqXqX",
"qXqXqXqXqXqXqXqXqXqXqXqXqXqXqXqXqXqXqXqXqXqXqXqXqXqXqXqXqXqXqXqXqXqXqXqXqXqXqXqXqXqXqXqXqXqXqXqXqXqXqXqXqXqXqXqXqXqXqXqX",
"qXqXqXqXqXqXqXqXqXqXqXqXqXqXqX8X8X8X8X9X9X9X9X=XT.P.A.I.oXoXoXoXg.g.h.h.A.P.T.[.=X0X0X0X0XqXqXqXqXqXqXqXqXqXqXqXqXqXqXqX",
"qXqXqXqXqXqXqXqXqXqXqXqXqXqXqX8X8X8X8X9X9X9X9X=XT.U.A.I.oXoXoXOXg...l.l.k.P.T.[.=X0X0X0X0XqXqXqXqXqXqXqXqXqXqXqXqXqXqXqX",
"qXqXqXqXqXqXqXqXqXqXqXqXqXqXqX{.{.{.{.{.=X=X{.[.k.k.k.k.U.U.U.U...[ [ [ l.k.I.U.oX9X9X9X9XqXqXqXqXqXqXqXqXqXqXqXqXqXqXqX",
"qXqXqXqXqXqXqXqXqXqXqXqXqXqXqXY.Y.Y.Y.[.[.[.[.Y.j.h.g.g.A.A.A.A.] ] ] ] ..h.k.P.T.8X8X8X8XqXqXqXqXqXqXqXqXqXqXqXqXqXqXqX",
"qXqXqXqXqXqXqXqXqXqXqXqXqXqXqXj.j.{ f.f.f.f.f.[ < < , <  . . . ., , , , ' '  .l.A.%X%X1X1XqXqXqXqXqXqXqXqXqXqXqXqXqXqXqX",
"qXqXqXqXqXqXqXqXqXqXqXqXqXU.P.{ 2 % X % % % : $ +     + = = = U # # @ @ # * 3 `  .^.^.$XOX6X6XqXqXqXqXqXqXqXqXqXqXqXqXqX",
"qXqXqXqXqXqXqXqXqXqXqXqXqXI.I.2 2 % . % : : : * @ @ + @ U U U U & & & & & ; - _ | G.G.`.`.1X4XqXqXqXqXqXqXqXqXqXqXqXqXqX",
"qXqXqXqXqXqXqXqXqXqXqXqXqXk.k.1 < % . $ : * = - & o o - M M M M O O O o O O b ) ( u.z.E.E.,X,XqXqXqXqXqXqXqXqXqXqXqXqXqX",
"qXqXqXqXqXqXqXqXqXqXqXqXqXk.k.1 1 % . @ * ; - - b v v b I M m m c c c c N N n ( ( i.i.L.L.>X&XqXqXqXqXqXqXqXqXqXqXqXqXqX",
"qXqXqXqXqXqXqXqXqXqXqXqXqX[ [ > > +   & o c n Z W W T #.T T #.T #.#.Y Y d a a s d j j i.i.].].qXqXqXqXqXqXqXqXqXqXqXqXqX",
"qXqXqXqXqXqXqXqXqXqXqXqXqX[ [ > > +   & o c n Z P W #.T T T T T #.#.Y H g a a s d j Y i.i.].].qXqXqXqXqXqXqXqXqXqXqXqXqX",
"qXqXqXqXqXqXqXqXqXqXqXR.Z.} } _ _ v x c n I Z L T T T T Y Y Y Y j j j j d s d g g j Y t.i.OX].qXqXqXqXqXqXqXqXqXqXqXqXqX",
"qXqXqXqXqXqXqXqXqXqXqXR.Z.} } _ _ v O c m I I P T T #.T Y Y Y Y j j j k d s s g g j #.t.t.].+XqXqXqXqXqXqXqXqXqXqXqXqXqX",
"qXqXqXqXqXqXqXqXqX8X1X(./.,.,.&.&.R R R R R R R Y Y #.R j j Y Y d s d s d g g g g j j t.t.&X&XqXqXqXqXqXqXqXqXqXqXqXqXqX",
"qXqXqXqXqXqXqXqXqX8X<X(.E.,.,.%.$.R o.R X.X.R R Y T X.#.j j Y Y s a s s d g g g j j H t.t.&X&XqXqXqXqXqXqXqXqXqXqXqXqXqX",
"qXqXqXqXqXqXqXqXqX%X`.F.b.%.%.R R o.R P Y Y J D g g d s a a d t t t t t r 7 q r a s j w.w.&X&XqXqXqXqXqXqXqXqXqXqXqXqXqX",
"qXqXqXqXqXqXqXqXqXOX`.D.c.O.O.X.X.X.X.T Y Y Y j d s s a r r t t t t y u 7 5 5 r r s k q.w.&X&XqXqXqXqXqXqXqXqXqXqXqXqXqX",
"qXqXqXqXqXqXqXqXqX)./.c.s.R R #.R X.X.Y Y Y D g r r r q 9 9 9 0 t u y y 5 4 5 5 7 a k q.w.&X&XqXqXqXqXqXqXqXqXqXqXqXqXqX",
"qXqXqXqXqXqXqXqXqX^.J.s.u.T #.T T X.X.T Y D j d q 7 7 7 w w 5 9 u y 0 0 5 6 4 5 5 t s q.q.&X&XqXqXqXqXqXqXqXqXqXqXqXqXqX",
"qXqXqXqXqX0X5X>X~.S.M.0.9.T T T T T T Y j j j j E l E E 3.~ 3.5.q.q.5.3.^ z z G l p A r.t.&X,XqXqXqXqXqXqXqXqXqXqXqXqXqX",
"qXqXqXqX0X0X3X;XE.d.p.1.;.T T T T H Y j j j j E @.@.:.4.L.L.L.L.!.!.L.L.v.w.5./ ! B K y.y.,X,XqXqXqXqXqXqXqXqXqXqXqXqXqX",
"qXqXqXqX0X0X3X;XE.p.p.;.;.T T #.R T T D D j j X.:.4.6.w.'.'.XX_.*X*XXX'.B.n.r.6./ B K a.y.,X,XqXqXqXqXqXqXqXqXqXqXqXqXqX",
"qXqXqXqX0X0X5X;XF.2.1.;.=.R R R R R R Y Y Y D +.6.6.a.x.%X,X1X1X8X8X4X1X'.C.x.a.4.B K d.a.,X,XqXqXqXqXqXqXqXqXqXqXqXqXqX",
"qXqXqXqX9X9X<X|.F.-.;.*.%.T T R R R R T T Y P <.x.x.N.C.>X>X1X1X8X8X4X1X'.C.x.e.w./ 4.C.C.1X1XqXqXqXqXqXqXqXqXqXqXqXqXqX",
"qXqXqXqX,X,X`.'.s.R R R R j D Y Y R R R R %.&.s..X;X7X7XqXqXqXqXqXqXqXqXqXqXqXqXqX<X<X5X5X9X9XqXqXqXqXqXqXqXqXqXqXqXqXqX",
"qXqXqXqX,X,X`.~.u.R R R T j g Y Y R R R R %.&.s..X:X9X7XqXqXqXqXqXqXqXqXqXqXqXqXqX3X3X7X7X0X9XqXqXqXqXqXqXqXqXqXqXqXqXqX",
"qXqXqXqX,X,X`.E.u.R T Y Y j j Y F T T O.&.&.&.c.<X5X0X0XqXqXqXqXqXqXqXqXqXqXqXqXqX9X9X0X0X0X0XqXqXqXqXqXqXqXqXqXqXqXqXqX",
"qXqXqXqX,X,X`.E.u.R T T Y g j Y F T T O.%.&.&.s.<X5X0X0XqXqXqXqXqXqXqXqXqXqXqXqXqX9X9X0X0X0X0XqXqXqXqXqXqXqXqXqXqXqXqXqX",
"qXqXqXqX$X$X^.E.t.T T F D g g d d t t F R *.-.c.<X5X0X0XqXqXqXqXqXqXqXqXqXqXqXqXqX9X9X9X9X9X9XqXqXqXqXqXqXqXqXqXqXqXqXqX",
"qXqXqXqX$XOX).E.t.T T F F g g d d t t D R =.-.D.<X5X0X0XqXqXqXqXqXqXqXqXqXqXqXqXqX9X9X9X9X9X9XqXqXqXqXqXqXqXqXqXqXqXqXqX",
"qXqXqXqX&X&X).E.d.R T D D d d a a s d J R &.-.c.;X<X9X9XqXqXqXqXqXqXqXqXqXqXqXqXqX3X3X7X7X9X8XqXqXqXqXqXqXqXqXqXqXqXqXqX",
"qXqXqXqX&X&X`.E.u.R T D D d d d s s t R O.&.-.c.;X<X9X9XqXqXqXqXqXqXqXqXqXqXqXqXqX<X<X7X7X8X8XqXqXqXqXqXqXqXqXqXqXqXqXqX",
"qXqXqXqX5X8X%X(.b.*.R F D q 7 d h D Y R O.%.%.p.E./.].].9X9X9X9X8X8X4X6X].J.m.m.d.p.s.E.W.&X,XqXqXqXqXqXqXqXqXqXqXqXqXqX",
"qXqXqXqX9X9X<X|.b.=.%.J D 5 5 d d Y T R R O.R 9.S.G./.^.9X9X9X9X9X8X6X1X].K.K.M.d.=.1.D.D.$X$XqXqXqXqXqXqXqXqXqXqXqXqXqX",
"qXqXqXqX9X9X<X@XD.=.%.J D 8 7 g d T T #.R R R <.M.S.G.G.<X<X<X3X>X>X%X|./.m.M.d.0.%.*.S.c.].].qXqXqXqXqXqXqXqXqXqXqXqXqX",
"qXqXqXqX9X9X<X@XF.=.$.J G 7 7 g g T T #.R R R <.s.d.D.G.@X@X;X;X|.|.(.'.C.x.d.p.2.R *.d.d.].].qXqXqXqXqXqXqXqXqXqXqXqXqX",
"qXqXqXqX0X9X3X;XF.<.>.W W r r g j T T T R R R +.1.9.9.i.F.F.G.F.b.b.c.x.i.8.<.<.;.O.+.d.u.^.^.qXqXqXqXqXqXqXqXqXqXqXqXqX",
"qXqXqXqX0X0X5X<XE.7.7.$.+.a a j j T T T T R #.X.R #.#.O.2.2.2.2.=.&.%.%.O.X.X.X.R R O.9.0.J.J.qXqXqXqXqXqXqXqXqXqXqXqXqX",
"qXqXqXqX0X0X5X;XW.d.0.:.+.a t j j Y T T T #.R R T T #.#.1.1.1.1.&.&.%.O.X.X.#.#.#.#.+.9.9.G.K.qXqXqXqXqXqXqXqXqXqXqXqXqX",
"qXqXqXqX0X0X5X;X'.m.s.5.@.t t g d Y Y T T T T T #.T T #.;.;.=.;.o.O.O.O.#.T T #.T T #.8.8.S.S.~.~.qXqXqXqXqXqXqXqXqXqXqX",
"qXqXqXqX0X0X5X;X(.G.m.6.:.u t g d j D T T T T T T T T #.*.*.*.*.o.o.X.X.X.T T T T T #.<.<.S.m.~.(.qXqXqXqXqXqXqXqXqXqXqX",
"qXqXqXqXqXqXqXqXqX%X(.x.y.u u u s d d D T T T T #.T #.T #.#.X.X.T #.T #.#.T T #.#.T #.;.;.p.p.(.|.7X0XqXqXqXqXqXqXqXqXqX",
"qXqXqXqXqXqXqXqXqX%X(.x.y.u u u u d d j Y Y T T T T T T T T X.X.T T T T Y T T T T T T =.*.p.p.(.|.7X0XqXqXqXqXqXqXqXqXqX",
"qXqXqXqXqXqXqXqXqXqXqXB.N.w.6.@.:.A g d d d d g j j j j j j j j j j j j j g d d g d d G G O.o.L.!.3X9XqXqXqXqXqXqXqXqXqX",
"qXqXqXqXqXqXqXqXqXqXqXB.N.w.w./ ~ A f d d d d g j j j j j j j j j j j j g g d d d d g K K +.+.L.W.3X9XqXqXqXqXqXqXqXqXqX",
"qXqXqXqXqXqXqXqXqXqXqXqXqX.X|.e.e.L B p t r 7 r s s g g s s s s t r t r r 7 q 7 7 8 7 0 0 i p v.B.<X9XqXqXqXqXqXqXqXqXqX",
"qXqXqXqXqXqXqXqXqXqXqXqXqX%X%Xy.e.L B u y r 7 r t d g g s s s s r r r r r 7 5 r 7 8 5 0 0 i p v.B.:X9XqXqXqXqXqXqXqXqXqX",
"qXqXqXqXqXqXqXqXqXqXqXqXqXqXqXC.L.v.z.5.Q G f p u h p p d f f f A k l l G G G E G E E Q W / / L.!.3X9XqXqXqXqXqXqXqXqXqX",
"qXqXqXqXqXqXqXqXqXqXqXqXqXqXqXW.W.B.B.5.~ J A C i i u i f f p f A A G K E E E E Q Q Q :./ >.>.Q.!.5X9XqXqXqXqXqXqXqXqXqX",
"qXqXqXqXqXqXqXqXqXqXqXqXqXqXqX%X%X.X.Xx.6.@.L S i i e i B B C C L L W W ~ ~ / / / 4.4.6.6.y.a.'.XX3X8XqXqXqXqXqXqXqXqXqX",
"qXqXqXqXqXqXqXqXqXqXqXqXqXqXqX6X6X6X6XN.e.:.P S V V i i B B B C W ! W ! / / >.>.4.6.6.a.a.x.x._.|.3X8XqXqXqXqXqXqXqXqXqX",
"qXqXqXqXqXqXqXqXqXqXqXqXqXqXqXqXqXqXqXW.C.V.v.z.r.r.q.r.z.z.z.z.v.v.v.v.N.B.B.N.V.qXqXqXqXqXqXqXqXqXqXqXqXqXqXqXqXqXqXqX",
"qXqXqXqXqXqXqXqXqXqXqXqXqXqXqXqXqXqXqX X X X X X X X}.}. X X X X.X*X*X*X;X;X*X X XqXqXqXqXqXqXqXqXqXqXqXqXqXqXqXqXqXqXqX",
"qXqXqXqXqXqXqXqXqXqXqXqXqXqXqXqXqXqXqX2X2X2X:X:X:X:X:X:X2X2X2X2X2X3X2X2X3X3X3X2X2XqXqXqXqXqXqXqXqXqXqXqXqXqXqXqXqXqXqXqX",
"qXqXqXqXqXqXqXqXqXqXqXqXqXqXqXqXqXqXqX0X0X0X0X0X9X9X0X0X0X0X0X0X0X0X0X0X0X0X0X0X0XqXqXqXqXqXqXqXqXqXqXqXqXqXqXqXqXqXqXqX",
"qXqXqXqXqXqXqXqXqXqXqXqXqXqXqXqXqXqXqX0X0X0X0X0X9X9X0X0X0X0X0X0X0X0X0X0X0X0X0X0X0XqXqXqXqXqXqXqXqXqXqXqXqXqXqXqXqXqXqXqX",
"qXqXqXqXqXqXqXqXqXqXqXqXqXqXqXqXqXqXqXqXqXqXqXqXqXqXqXqXqXqXqXqXqXqXqXqXqXqXqXqXqXqXqXqXqXqXqXqXqXqXqXqXqXqXqXqXqXqXqXqX",
"qXqXqXqXqXqXqXqXqXqXqXqXqXqXqXqXqXqXqXqXqXqXqXqXqXqXqXqXqXqXqXqXqXqXqXqXqXqXqXqXqXqXqXqXqXqXqXqXqXqXqXqXqXqXqXqXqXqXqXqX",
"qXqXqXqXqXqXqXqXqXqXqXqXqXqXqXqXqXqXqXqXqXqXqXqXqXqXqXqXqXqXqXqXqXqXqXqXqXqXqXqXqXqXqXqXqXqXqXqXqXqXqXqXqXqXqXqXqXqXqXqX",
"qXqXqXqXqXqXqXqXqXqXqXqXqXqXqXqXqXqXqXqXqXqXqXqXqXqXqXqXqXqXqXqXqXqXqXqXqXqXqXqXqXqXqXqXqXqXqXqXqXqXqXqXqXqXqXqXqXqXqXqX"
};
