/* XPM */
static char * d_xpm[] = {
"64 67 420 2",
"  	c None",
". 	c #FFFFFE",
"+ 	c #FEFEFD",
"@ 	c #FEFEFE",
"# 	c #FFFFFF",
"$ 	c #F8FBF6",
"% 	c #EFF6E9",
"& 	c #E1EED6",
"* 	c #E9F2E1",
"= 	c #FEFFFE",
"- 	c #F7FAF3",
"; 	c #ECF4E5",
"> 	c #D5E8C6",
", 	c #C6E0AF",
"' 	c #B9D99B",
") 	c #A9D381",
"! 	c #93C951",
"~ 	c #8BC645",
"{ 	c #81C05A",
"] 	c #7ABC68",
"^ 	c #88C351",
"/ 	c #D0E5BD",
"( 	c #FCFCFC",
"_ 	c #FFFEFE",
": 	c #FDFEFB",
"< 	c #F6FAF2",
"[ 	c #EBF4E5",
"} 	c #DEECD2",
"| 	c #D2E6C0",
"1 	c #C5DFAE",
"2 	c #B3D791",
"3 	c #A6D17B",
"4 	c #94C951",
"5 	c #8BC64B",
"6 	c #86C664",
"7 	c #82C67F",
"8 	c #7EC68F",
"9 	c #79C69E",
"0 	c #74C7AD",
"a 	c #6EC7BA",
"b 	c #6AC7C5",
"c 	c #65C7CD",
"d 	c #4AB2BC",
"e 	c #289EAA",
"f 	c #3EA3A1",
"g 	c #7FBF5F",
"h 	c #BCDB9F",
"i 	c #FBFDF9",
"j 	c #FBFCFC",
"k 	c #F3F8EE",
"l 	c #E4EFDA",
"m 	c #D4E7C3",
"n 	c #C4DEAC",
"o 	c #B4D793",
"p 	c #A2CF73",
"q 	c #91C84D",
"r 	c #8AC64E",
"s 	c #86C66A",
"t 	c #81C680",
"u 	c #7EC691",
"v 	c #78C7A3",
"w 	c #74C7AE",
"x 	c #68C7C8",
"y 	c #65C7CF",
"z 	c #65C7D0",
"A 	c #54B9C3",
"B 	c #2B9FAB",
"C 	c #31A0A7",
"D 	c #75BA70",
"E 	c #AAD381",
"F 	c #F4F9F0",
"G 	c #FDFDFC",
"H 	c #EAF3E2",
"I 	c #ACD486",
"J 	c #96C63F",
"K 	c #B2C83C",
"L 	c #ACC857",
"M 	c #78C7A2",
"N 	c #73C7B2",
"O 	c #6EC7BD",
"P 	c #4FB6C0",
"Q 	c #54BAC3",
"R 	c #31A2AE",
"S 	c #299EA9",
"T 	c #68B382",
"U 	c #9ACB64",
"V 	c #E9F2E2",
"W 	c #E0EDD5",
"X 	c #97C847",
"Y 	c #DACB39",
"Z 	c #FDCE34",
"` 	c #FFCE34",
" .	c #E8CC6A",
"..	c #62C5CE",
"+.	c #3FAAB6",
"@.	c #31A3AF",
"#.	c #57AC90",
"$.	c #8EC653",
"%.	c #DBEBCE",
"&.	c #F6FAF3",
"*.	c #97C955",
"=.	c #E9CC37",
"-.	c #E9CC69",
";.	c #34A4B0",
">.	c #43ADB8",
",.	c #47A69C",
"'.	c #84C254",
").	c #C8E1B2",
"!.	c #FDFEFC",
"~.	c #FAFBFA",
"{.	c #BEC93B",
"].	c #64C6CF",
"^.	c #2BA0AC",
"/.	c #5DC0CA",
"(.	c #4EB4BF",
"_.	c #299EAB",
":.	c #38A2A3",
"<.	c #7CBD64",
"[.	c #B5D894",
"}.	c #F9FBF6",
"|.	c #FBFBFB",
"1.	c #C2DEA9",
"2.	c #D7CB38",
"3.	c #46AEB9",
"4.	c #38A6B1",
"5.	c #56BBC5",
"6.	c #2DA0AC",
"7.	c #2D9FA8",
"8.	c #70B876",
"9.	c #A4D078",
"0.	c #F1F7EC",
"a.	c #FDFEFD",
"b.	c #CCE3B8",
"c.	c #C9C93A",
"d.	c #53B8C2",
"e.	c #4CB3BD",
"f.	c #63C6CF",
"g.	c #62B086",
"h.	c #96CA5E",
"i.	c #E5F0DB",
"j.	c #EDF5E7",
"k.	c #9AC73F",
"l.	c #F7CD35",
"m.	c #5CC0C9",
"n.	c #61C4CD",
"o.	c #39A7B2",
"p.	c #52AA95",
"q.	c #8AC450",
"r.	c #CAE1B4",
"s.	c #A9C73D",
"t.	c #F0CD36",
"u.	c #FECE34",
"v.	c #60C3CC",
"w.	c #30A2AE",
"x.	c #42A49F",
"y.	c #82C05A",
"z.	c #C1DDA8",
"A.	c #C9E2B3",
"B.	c #8EC63E",
"C.	c #B3C83C",
"D.	c #D8CB39",
"E.	c #CECB6B",
"F.	c #61C4CC",
"G.	c #5BBFC8",
"H.	c #57BBC5",
"I.	c #53B9C2",
"J.	c #34A0A5",
"K.	c #80BF5D",
"L.	c #EEF5E7",
"M.	c #9DCD66",
"N.	c #C5C93A",
"O.	c #F4CD36",
"P.	c #47AFBA",
"Q.	c #5CBFC8",
"R.	c #5EC1CA",
"S.	c #3BA4B0",
"T.	c #2294A1",
"U.	c #6FB67A",
"V.	c #D5E7C3",
"W.	c #FDFEFE",
"X.	c #F9FBF7",
"Y.	c #9FCD6A",
"Z.	c #DCCB38",
"`.	c #5FC2CC",
" +	c #299FAB",
".+	c #2498A5",
"++	c #107B8B",
"@+	c #2498A4",
"#+	c #66B284",
"$+	c #C9E1B4",
"%+	c #BBC83B",
"&+	c #5FC3CC",
"*+	c #5FC2CB",
"=+	c #3FAAB5",
"-+	c #269BA8",
";+	c #1E8D9B",
">+	c #5CAE8C",
",+	c #BBDA9C",
"'+	c #B0D58C",
")+	c #E4CC38",
"!+	c #50B6C0",
"~+	c #289DAA",
"{+	c #117C8C",
"]+	c #52AA94",
"^+	c #AED489",
"/+	c #A6D07A",
"(+	c #ECCC37",
"_+	c #56BAC4",
":+	c #2D9BA7",
"<+	c #41A49E",
"[+	c #A1CE71",
"}+	c #B8D99B",
"|+	c #6BC7C3",
"1+	c #64C7D0",
"2+	c #3CA8B3",
"3+	c #33A0A5",
"4+	c #8EC847",
"5+	c #E0EDD4",
"6+	c #A6C73D",
"7+	c #FCCE35",
"8+	c #83C67C",
"9+	c #84C672",
"0+	c #73C7B0",
"a+	c #66C7CF",
"b+	c #45AEB9",
"c+	c #88C448",
"d+	c #F6FAF1",
"e+	c #BAD99C",
"f+	c #B6C83C",
"g+	c #F9CE35",
"h+	c #C1DEA7",
"i+	c #A8D17D",
"j+	c #86C665",
"k+	c #76C7A8",
"l+	c #67C7CC",
"m+	c #47B0BB",
"n+	c #4BB2BC",
"o+	c #81C059",
"p+	c #EDF4E6",
"q+	c #FCFDFA",
"r+	c #BFDCA5",
"s+	c #9AC73D",
"t+	c #CFCA3A",
"u+	c #FACE35",
"v+	c #E5F0DA",
"w+	c #B1D68E",
"x+	c #89C65A",
"y+	c #79C79E",
"z+	c #68C7CA",
"A+	c #33A3AF",
"B+	c #4BB3BD",
"C+	c #51B7C1",
"D+	c #79BC68",
"E+	c #E4F0DA",
"F+	c #FBFBFC",
"G+	c #B0D58B",
"H+	c #B7C83C",
"I+	c #F5CD35",
"J+	c #ECF4E4",
"K+	c #BBDA9E",
"L+	c #8DC752",
"M+	c #79C79F",
"N+	c #56BBC4",
"O+	c #5CBFC9",
"P+	c #55BAC4",
"Q+	c #72B876",
"R+	c #D7E8C9",
"S+	c #CAE2B5",
"T+	c #B7C83B",
"U+	c #E2EED6",
"V+	c #84C673",
"W+	c #5BBFC9",
"X+	c #6BB47E",
"Y+	c #CDE3BA",
"Z+	c #FEFDFD",
"`+	c #FBFCF9",
" @	c #95C955",
".@	c #F3CD35",
"+@	c #E8F2E0",
"@@	c #60C3CD",
"#@	c #2598A5",
"$@	c #269AA7",
"%@	c #60AF8A",
"&@	c #C0DDA7",
"*@	c #ECF4E6",
"=@	c #A6C83C",
"-@	c #4AB1BC",
";@	c #2394A1",
">@	c #54AB92",
",@	c #B4D893",
"'@	c #EBF4E4",
")@	c #A7C73E",
"!@	c #2A9FAB",
"~@	c #127E8D",
"{@	c #137E8E",
"]@	c #279CA9",
"^@	c #48A79B",
"/@	c #A3D073",
"(@	c #FAFCF7",
"_@	c #94C84E",
":@	c #5DC0C9",
"<@	c #178392",
"[@	c #2293A0",
"}@	c #3BA2A2",
"|@	c #96CA57",
"1@	c #BDC93B",
"2@	c #1A8795",
"3@	c #1F8F9C",
"4@	c #8BC544",
"5@	c #FAFCF8",
"6@	c #AAD282",
"7@	c #BCC93B",
"8@	c #F6CD35",
"9@	c #F0F6EB",
"0@	c #CDE3B9",
"a@	c #88C65D",
"b@	c #78C7A1",
"c@	c #39A6B2",
"d@	c #1C8A99",
"e@	c #21929F",
"f@	c #83C154",
"g@	c #F1F7ED",
"h@	c #C5DFAD",
"i@	c #95C748",
"j@	c #BCC96C",
"k@	c #D5E8C4",
"l@	c #D3E7C3",
"m@	c #A9D27F",
"n@	c #89C655",
"o@	c #7DC790",
"p@	c #70C7B8",
"q@	c #359BA8",
"r@	c #127D8D",
"s@	c #1B8896",
"t@	c #289DA9",
"u@	c #7DBD63",
"v@	c #E6F1DC",
"w@	c #FCFCFD",
"x@	c #CDE4B9",
"y@	c #85C66E",
"z@	c #8AC64D",
"A@	c #7FC789",
"B@	c #72C7B3",
"C@	c #66C7CD",
"D@	c #76BA6F",
"E@	c #DCEBCF",
"F@	c #E9F3E1",
"G@	c #6FC7BB",
"H@	c #59BEC7",
"I@	c #6CB57C",
"J@	c #D2E6C1",
"K@	c #5DC1CA",
"L@	c #64B186",
"M@	c #63C6CE",
"N@	c #5AAD8F",
"O@	c #B8D998",
"P@	c #FDFDFD",
"Q@	c #2DA1AD",
"R@	c #4EA897",
"S@	c #ABD383",
"T@	c #52B8C2",
"U@	c #3DA39F",
"V@	c #49B1BB",
"W@	c #30A0A7",
"X@	c #8CC643",
"Y@	c #62C4CD",
"Z@	c #3EAAB5",
"`@	c #6AB47F",
" #	c #9FCD6D",
".#	c #FCFDFB",
"+#	c #35A5B0",
"@#	c #33A0A6",
"##	c #77BA6D",
"$#	c #ACD485",
"%#	c #F5F9F1",
"&#	c #57BCC5",
"*#	c #40A4A0",
"=#	c #81C05B",
"-#	c #BEDCA3",
";#	c #4FB5BF",
">#	c #299EAA",
",#	c #50A996",
"'#	c #89C452",
")#	c #D3E6C2",
"!#	c #FCFDFC",
"~#	c #44AEB9",
"{#	c #61B089",
"]#	c #94C95A",
"^#	c #E3EFD9",
"/#	c #FDFDFE",
"(#	c #3AA7B2",
"_#	c #2C9FA8",
":#	c #70B778",
"<#	c #A3CF74",
"[#	c #F0F6EA",
"}#	c #32A2AE",
"|#	c #38A1A4",
"1#	c #7CBD66",
"2#	c #46A59C",
"3#	c #84C154",
"4#	c #C7E0B1",
"5#	c #FDFDFB",
"6#	c #FCFCFB",
"7#	c #83C56A",
"8#	c #57AC91",
"9#	c #DAEACC",
"0#	c #7EBE5E",
"a#	c #67B282",
"b#	c #9BCC66",
"c#	c #E9F3E2",
"d#	c #4AA79A",
"e#	c #4BA79A",
"f#	c #75BA6F",
"g#	c #A9D281",
"h#	c #FAFCF9",
"i#	c #B6D896",
"j#	c #AAD380",
"k#	c #C3DEAB",
"l#	c #FEFFFF",
"m#	c #FAFBFB",
"                                                                                                                                ",
"                                                                                                                                ",
"                                                                                                                                ",
"                                                                                                                                ",
"                                                                                                                                ",
"                                                                                                                                ",
"                                                                          .                                                     ",
"                                                        + @ + # # # # # # # # +                                                 ",
"                                        @ # # . @ . # # # # # # # # # # # # # # @                                               ",
"                          + @ # # # # # # # # # # # # # # # # . . + $ % & * . # # =                                             ",
"                  # = # # # # # # # # # # # # # # # - ; & > , ' ) ! ~ { ] ^ / @ # # @ (                                         ",
"              @ # # # # # # # # _ : < [ } | 1 2 3 4 5 6 7 8 9 0 a b c d e f g h i # # . j                                       ",
"            = # # # # k l m n o p q r s t u v w a x y z z z z z z z z z A B C D E F # # # G                                     ",
"            # # # H I J K L M N O x z z z z z z z z z z z z z z z z z P P Q R S T U V # # # +                                   ",
"          . # # W X Y Z `  .z z z z z z z z z z z z z z z z z z z z ..e e B +.@.e #.$.%.. # # @                                 ",
"          # # &.*.=.` ` ` -.z z z z z z z z z z z z z z z z z z z z ..e e e e ;.>.e ,.'.).!.# # # ~.                            ",
"        . # # m {.` ` ` ` -.z z z z z z z z z z z z z z z z z z z z ].^.e e e e /.(._.:.<.[.}.# # # |.                          ",
"        @ # # 1.2.` ` ` ` -.z z z z z z z z z z z z z z z z z z z z z 3.e e e 4.].z 5.6.7.8.9.0.# # # a.                        ",
"        _ # # b.c.` ` ` ` -.z z z z z z z z z z z z z z z z z z z z z ].d.e.A f.z z z /.;.e g.h.i.. # # @                       ",
"        . # # j.k.l.` ` ` -.z z z z z z z z z z z z z z z z z z z z m.n.z z z z z z z z n.o.e p.q.> # # # @                     ",
"          # # . r.s.t.u.` -.z z z z z z z z z z z z z z z z z z z v.e w.v.z z z z z z z z e.e e x.y.z.G # #                     ",
"          @ # # + A.B.C.D.E.z z z z z z z z z z z z z z z z z z z F.e e Q z G.H.z z z z z I.e e e J.K.W # # @                   ",
"          @ # # L.M.N.O.` -.z z z z z z z z z z z z z z z z z z z z d P...v.B _.Q.z z z R.S.T.e e e U.V.# # W.                  ",
"          # # X.Y.Z.` ` ` -.z z z z z z z z z z z z z z z z z z z z z z z `.B  +G.z z z >..+++@+e e #+$+# # @                   ",
"        + # # | %+` ` ` ` -.z z z z z z z z z z z z z z z z z z z z z z z z &+*+z z z z =+-+++;+e e >+,+# # (                   ",
"        + # # '+)+` ` ` ` -.z z z z z z z z z z z z z z z z z z z z z z z z z z z z z z !+~+{+T.e e ]+^+# # @                   ",
"        @ # # /+(+` ` ` ` -.z z z z z z z z z z z z z z z z z z z z z z z z z z z z z z z _+:+e e e <+[+# # _                   ",
"        + # # }+Y ` ` ` ` -.z z z z z z z z z z z z z z |+z z z z z z z z z z z z 1+5.v.z z 2+e e e 3+4++ # #                   ",
"        @ # # 5+6+7+` ` ` -.z z z z z z z z z z z z z z 8+9+0+a+z z z z z z z z z /.e 6.R.z b+e e e S c+d+# #                   ",
"          # # + e+f+g+` ` -.z z z z z z z z z z z z z z 8+h+i+j+k+l+z z z z z z z R.e e m+z n+e e e e o+p+# #                   ",
"          @ # # q+r+s+t+u+-.z z z z z z z z z z z z z z 8+& @ v+w+x+y+z+z z z z z z A+e B+z C+e e e e D+E+# # F+                ",
"          + # # q+G+H+I+` -.z z z z z z z z z z z z z z 8+& # # . J+K+L+M+z z z z z N+6.O+z P+e e e e Q+R+# # G                 ",
"          . # . S+T+Z ` ` -.z z z z z z z z z z z z z z 8+& # # # # . U+V+z z z z z z z z z W+e e e e X+Y+# # Z+                ",
"          # # `+ @.@` ` ` -.z z z z z z z z z z z z z z 8+& # # # # # +@V+z z z z z z z z z @@#@$@e e %@&@# # #                 ",
"          # # *@=@` ` ` ` -.z z z z z z z z z z z z z z 8+& # # # # # +@V+z z z z z z z z z -@{+{+;@e >@,@. # .                 ",
"          # # '@)@` ` ` ` -.z z z z z z z z z z z z z z 8+& # # # # # +@V+z z z z z z z z ..!@~@++{@]@^@/@. # .                 ",
"          # # (@_@I+` ` ` -.z z z z z z z z z z z z z z 8+& # # # # # +@V+z z z z z z z z :@e <@++++[@}@|@+ # #                 ",
"          # # # 1 1@u.` ` -.z z z z z z z z z z z z z z 8+& # # # # @ %.V+z z z z z z z z *+e 2@++++3@e 4@5@# #                 ",
"          @ # # 5@6@7@8@` -.z z z z z z z z z z z z z z 8+& # = 9@0@p a@b@z z z z z z z z z c@d@++++e@e f@g@# #                 ",
"            @ # # 5@h@i@T+j@z z z z z z z z z z z z z z 8+k@l@m@n@o@p@z z z z z z z z z z z *+q@r@s@t@e u@v@# # w@              ",
"              = # # # < x@y@z z z z z z z z z z z z z z 8+z@A@B@C@z z z z z z z z z z z z z z Q e e e e D@E@# # =               ",
"                = # # # F@y@z z z z z z z z z z z z z z G@l+z z z z z z z z z z z z z z z z z H@e e e e I@J@# # @               ",
"                  @ # # F@y@z z z z z z z z z z z z z z z z z z z z z z z z z z z z z z z z z K@e e e e L@h@# # @               ",
"                    # # F@y@z z z z z z z z z z z z z z z z z z z z z z z z z z z z z z z z z M@e e e e N@O@# # P@              ",
"                    # # F@y@z z z z z z z z z z z z z z z z z z z z z z z z z z z z z z z z z z Q@e e e R@S@# # @               ",
"                    # # F@y@z z z z z z z z z z z z z z z z z z z z z z z z z z z z z z z z z T@!@e e e U@M.. # #               ",
"                    # # F@y@z z z z z z z z z z z z z z z z z z z z z z z z z z z z z z z ].V@e e e e e W@X@q+# #               ",
"                    # # F@y@z z z z z z z z z z z z z z z z z z z z z z z z z z z z z z Y@Z@e e e e e S `@ #.## #               ",
"                    # # F@y@z z z z z z z z z z z z z z z z z z z z z z z z z z z z z R.+#e e e e e @###$#%## # =               ",
"                    # # F@y@z z z z z z z z z z z z z z z z z z z z z z z z z z z z &#6.e e e e e *#=#-#i # # #                 ",
"                    # # F@y@z z z z z z z z z z z z z z z z z z z z z z z z z z z ;#>#e e e e e ,#'#)#@ # # . !#                ",
"                    # # F@y@z z z z z z z z z z z z z z z z z z z z z z z z z f.~#e e e e e e {#]#^## # # /#                    ",
"                    # # F@y@z z z z z z z z z z z z z z z z z z z z z z z z v.(#e e e e e _#:#<#[## # # @                       ",
"                    # # F@y@z z z z z z z z z z z z z z z z z z z z z z z G.}#e e e e e |#1#o }.# # # !#                        ",
"                    # # F@y@z z z z z z z z z z z z z z z z z z z z z z Q B e e e e e 2#3#4#5## # # 6#                          ",
"                    # # F@7#Q.Q.Q.Q.Q.Q.Q.Q.Q.Q.Q.Q.Q.Q.Q.Q.Q.Q.Q.Q.Q.d e e e e e e 8#$.9#@ # # @                               ",
"                    # # F@0#e e e e e e e e e e e e e e e e e e e e e e e e e e S a#b#c## # # +                                 ",
"                    # # F@o+d#d#d#d#d#d#d#d#d#d#d#d#d#d#d#d#d#d#d#d#d#d#d#d#d#e#f#g#k # # # a.                                  ",
"                    # # h#i#j#j#j#j#j#j#j#j#j#j#j#j#j#j#j#j#j#j#j#j#j#j#j#j#j#j#k#`+# # = P@                                    ",
"                    = # # = = l#l#l#l#l#l#l#l#l#l#l#l#l#l#l#l#l#l#l#l#l#l#l#l#l#. # # = m#                                      ",
"                      . # # # # # # # # # # # # # # # # # # # # # # # # # # # # # # a.                                          ",
"                        @ @ @ @ @ @ @ @ @ @ @ @ @ @ @ @ @ @ @ @ @ @ @ @ @ @ @ @ @ P@                                            ",
"                                                                                                                                ",
"                                                                                                                                ",
"                                                                                                                                ",
"                                                                                                                                ",
"                                                                                                                                "};
