/* XPM */
static char *d[] = {
/* columns rows colors chars-per-pixel */
"60 64 204 2 ",
"   c #EACE3D",
".  c #F4CD36",
"X  c #F6CE37",
"o  c #BACC6F",
"O  c #BBCD73",
"+  c #B3CC78",
"@  c #B2CD77",
"#  c #DBCE4D",
"$  c #D9CF48",
"%  c #CFCE54",
"&  c #D2CE52",
"*  c #DED257",
"=  c #E6CD43",
"-  c #E6CE49",
";  c #E9D149",
":  c #F0D043",
">  c #CACC65",
",  c #C2CC6D",
"<  c #D3D261",
"1  c #EFDD7A",
"2  c #F0DE7C",
"3  c #F2DC73",
"4  c #1A8997",
"5  c #1C8B99",
"6  c #3BA596",
"7  c #32A29E",
"8  c #2595A2",
"9  c #2A9BA6",
"0  c #289EAA",
"q  c #2EA0A9",
"w  c #37A6A5",
"e  c #3DA9AA",
"r  c #3AA8AA",
"t  c #3EA7B3",
"y  c #3DABB6",
"u  c #3EADB8",
"i  c #35A7B2",
"p  c #5FB88A",
"a  c #4BAD9C",
"s  c #42AA9B",
"d  c #53B29C",
"f  c #58B698",
"g  c #61BA8F",
"h  c #65BE98",
"j  c #47AEA4",
"k  c #4AAEA2",
"l  c #44ADAB",
"z  c #4EB2A2",
"x  c #4DB2AB",
"c  c #51B4A3",
"v  c #50B6AE",
"b  c #5AB8AA",
"n  c #42ADB4",
"m  c #43AEB9",
"M  c #46B1BB",
"N  c #4BB5BD",
"B  c #48B1B5",
"V  c #55B9B4",
"C  c #59BBB3",
"Z  c #5BBDB8",
"A  c #50B7BA",
"S  c #6DB6AD",
"D  c #60B9AC",
"F  c #67BAA6",
"G  c #6ABDB1",
"H  c #7BBDB0",
"J  c #70BFB2",
"K  c #71BFAF",
"L  c #67C09C",
"P  c #6EC7AE",
"I  c #7DC3AC",
"U  c #7AC8AD",
"Y  c #74C5AD",
"T  c #6AC4BC",
"R  c #6EC8BE",
"E  c #6AC4B6",
"W  c #74C2B2",
"Q  c #7BC4B1",
"!  c #75CAB6",
"~  c #7CCCB4",
"^  c #75C8BE",
"/  c #7BCCB9",
"(  c #4DB7C1",
")  c #4FB8C2",
"_  c #53BBC4",
"`  c #58BEC6",
"'  c #59BFC8",
"]  c #5CC1CA",
"[  c #67C7C7",
"{  c #69C7C3",
"}  c #6DC8C4",
"|  c #64C6CD",
" . c #69C7C9",
".. c #6CC9C9",
"X. c #7CCDC7",
"o. c #7ACCC9",
"O. c #65C7D0",
"+. c #87C899",
"@. c #B6D69C",
"#. c #88C9A3",
"$. c #89C9AC",
"%. c #82C5B0",
"&. c #82CCB4",
"*. c #84C7BC",
"=. c #81CEBB",
"-. c #8ECCBE",
";. c #8CCDB1",
":. c #93CEBD",
">. c #95CFB5",
",. c #8ED2BD",
"<. c #89D0B8",
"1. c #96D0B2",
"2. c #9CD2B5",
"3. c #94D3BC",
"4. c #9CD4BC",
"5. c #A4D6BC",
"6. c #A9D6BB",
"7. c #A4D9BB",
"8. c #A9D9BB",
"9. c #B6DCB5",
"0. c #B3DAAB",
"q. c #D9DE92",
"w. c #EDDF83",
"e. c #E9E087",
"r. c #E9E18D",
"t. c #E5E18E",
"y. c #E7E395",
"u. c #DAE7B7",
"i. c #D5E4AA",
"p. c #ECE9AC",
"a. c #E6E7A6",
"s. c #EBEBB4",
"d. c #ECEDBC",
"f. c #8ECBC3",
"g. c #8BD3C7",
"h. c #81D0C9",
"j. c #94D2C3",
"k. c #96D7CC",
"l. c #9FD3C8",
"z. c #9DD5C6",
"x. c #95CFC3",
"c. c #A4D6C3",
"v. c #ADDBC5",
"b. c #A3DBCD",
"n. c #ACDCCC",
"m. c #A7D8C4",
"M. c #B4DECA",
"N. c #B2DEC5",
"B. c #B5E0C3",
"V. c #BDE0C0",
"C. c #B3E0CE",
"Z. c #BEE3CA",
"A. c #BDE3D1",
"S. c #B9E4D8",
"D. c #B5E2D0",
"F. c #C5E5CA",
"G. c #CCE6C9",
"H. c #CBE9CD",
"J. c #C5E6C7",
"K. c #D5EDCE",
"L. c #DBEECD",
"P. c #C3E5D4",
"I. c #CEE8D1",
"U. c #C1E5D9",
"Y. c #C5E9DF",
"T. c #CDE9DE",
"R. c #D3EBD2",
"E. c #D2EBDC",
"W. c #DAEEDA",
"Q. c #DBEFD1",
"!. c #DFF0D0",
"~. c #ECEEC3",
"^. c #E1ECC8",
"/. c #EDF1CB",
"(. c #E8F0C9",
"). c #F1F0C5",
"_. c #F2F1CC",
"`. c #E6F1D3",
"'. c #EBF3D4",
"]. c #E2F1DC",
"[. c #EBF4DC",
"{. c #F2F4D5",
"}. c #F4F5DA",
"|. c #F2EFC2",
" X c #CFEAE0",
".X c #D2EBE0",
"XX c #DDEFE3",
"oX c #DFF0E6",
"OX c #DFF1E8",
"+X c #E0F1E4",
"@X c #ECF6E2",
"#X c #E1F2E8",
"$X c #E8F5ED",
"%X c #F2F7E4",
"&X c #F4FAEA",
"*X c #F8F9EA",
"=X c #F4F8E7",
"-X c #EBF7F2",
";X c #EEF8F3",
":X c #F3F9F3",
">X c #F9FCF5",
",X c #FEFEFD",
"<X c #F7FCFA",
"1X c None",
/* pixels */
"1X1X1X1X1X1X1X1X1X1X1X1X1X1X1X1X1X1X1X1X1X1X1X1X1X1X1X1X1X1X1X1X1X1X1X1X1X1X1X1X1X1X1X1X1X1X1X1X1X1X1X1X1X1X1X1X1X1X1X1X",
"1X1X1X1X1X1X1X1X1X1X1X1X1X1X1X1X1X1X1X1X1X1X1X1X1X1X1X1X1X1X1X1X1X1X1X1X1X1X1X1X1X1X1X1X1X1X1X1X1X1X1X1X1X1X1X1X1X1X1X1X",
"1X1X1X1X1X1X1X1X1X1X1X1X1X1X1X1X1X1X1X1X1X1X1X1X1X1X1X1X1X1X1X1X1X1X1X1X1X1X1X1X1X1X1X1X1X1X1X1X1X1X1X1X1X1X1X1X1X1X1X1X",
"1X1X1X1X1X1X1X1X1X1X1X1X1X1X1X1X1X1X1X1X1X1X1X1X1X1X1X1X1X1X1X1X1X1X1X1X1X1X1X1X1X1X1X1X1X1X1X1X1X1X1X1X1X1X1X1X1X1X1X1X",
"1X1X1X1X1X1X1X1X1X1X1X1X1X1X1X1X1X1X1X1X1X1X1X1X1X1X1X1X1X1X1X1X1X1X1X1X1X1X1X1X1X1X1X1X1X1X1X1X1X1X1X1X1X1X1X1X1X1X1X1X",
"1X1X1X1X1X1X1X1X1X1X1X1X1X1X1X1X1X1X1X1X1X1X1X1X1X1X1X1X1X1X1X1X1X1X1X1X1X1X1X1X1X1X1X1X1X1X1X1X1X1X1X1X1X1X1X1X1X1X1X1X",
"1X1X1X1X1X1X1X1X1X1X1X1X1X1X1X1X1X1X1X1X1X1X1X1X1X1X1X1X1X1X1X1X1X1X1X1X1X1X1X1X1X1X1X1X1X1X1X1X1X1X1X1X1X1X1X1X1X1X1X1X",
"1X1X1X1X1X1X1X1X1X1X1X1X1X1X1X1X1X1X1X1X1X1X1X1X1X1X1X1X1X1X1X1X1X1X1X1X1X1X1X1X1X1X1X1X1X1X1X1X1X1X1X1X1X1X1X1X1X1X1X1X",
"1X1X1X1X1X1X1X1X1X1X1X1X1X1X1X1X1X1X1X1X1X1X1X1X1X1X1X1X1X1X1X1X1X1X1X1X1X1X1X1X1X1X1X1X1X1X1X1X1X1X1X1X1X1X1X1X1X1X1X1X",
"1X1X1X1X1X1X1X1X1X,X,X,X,X>X:X%X%X[.[.`.!.!.K.K.H.H.H.J.B.B.v.N.2.1.7.7.I.%X@X@X@X1X1X1X1X1X1X1X1X1X1X1X1X1X1X1X1X1X1X1X",
"1X1X1X1X1X1X1X1X=X*X*X*X&X@X@X+X+XW.W.K.K.H.H.F.J.Z.Z.B.v.8.m.m.1.;.1.3.M.W.W.W.W.1X1X1X1X1X1X1X1X1X1X1X1X1X1X1X1X1X1X1X",
"1X1X1X1X1X1X}.}._.).|.^.L.G.G.P.P.A.A.D.C.C.D.C.b.b.b.b.j.k.j.k./ ! Q %.5.M.M.M.M.1X1X1X1X1X1X1X1X1X1X1X1X1X1X1X1X1X1X1X",
"1X1X1X1X1X1X}.{.~.s.p.u.u.9.J.M.C.C.b.b.b.b.b.b.k.k.k.k.g.g.g.g.R E Y W -.4.c.v.v.1X1X1X1X1X1X1X1X1X1X1X1X1X1X1X1X1X1X1X",
"1X1X1X1X&X&X{.).y.* < O + +.+.! ! [ [ [ [ [ O.O.O.O.O.O.] | O.| u y n y j a b Q 2.L.L.L.Q.1X1X1X1X1X1X1X1X1X1X1X1X1X1X1X",
"1X1X1X1X&X&X{.).y.* < O + +.+.! ! { [ [ [ O.O.O.O.O.O.O.| | | [ m y y m j a D Q :.K.K.L.Q.1X1X1X1X1X1X1X1X1X1X1X1X1X1X1X",
"1X1X1X1X@X@X/.d.r.; * , O #.#.! ! [ [ O.] O.O.O.O.O.O.O.| O.] O.N M B B A C D T o.j.j.6.5.1X1X1X1X1X1X1X1X1X1X1X1X1X1X1X",
"1X1X1X1X@X@X/.d.w.- * , O #.#.! !  . .| | | O.O.O.O.O.O.] O.| ] N M M m A V Z T ^ k.k.6.5.1X1X1X1X1X1X1X1X1X1X1X1X1X1X1X",
"1X1X1X1X[.[.~.p.1 . = > O $.$.^ ^ | ..O.O.O.O.O.O.O.O.O.O.O.O.O.) ) ) ) _ ] ] ] ` b C %.%.J.J.1X1X1X1X1X1X1X1X1X1X1X1X1X",
"1X1X1X1X[.[.~.p.1 . = > , $.$.^ ^ | | O.O.O.O.O.O.O.O.O.O.O.O.] ) ) ) ) ` ] ] ] Z v b %.%.J.J.1X1X1X1X1X1X1X1X1X1X1X1X1X",
"1X1X1X1X[.@X/.s.w.  # > O $.$.} } | O.O.O.O.O.O.O.O.O.O.O.O.O.O._ ) _ _ ` ] ` ` _ n l D D I I m.n.+X&X1X1X1X1X1X1X1X1X1X",
"1X1X1X1X@X@X/.d.w.$ # o , $.$.} } O.O.O.O.O.O.O.O.O.O.O.O.O.O.O.) ) _ _ ' ] ` _ N n l b b F F c.n.].&X1X1X1X1X1X1X1X1X1X",
"1X1X1X1X&X&X/.d.w.  # O + $.$.} ^ | O.O.O.O.O.O.O.O.O.O.O.O.O.O._ _ _ ` ' ' ` ) N m m l l a a 5.n.oX&X1X1X1X1X1X1X1X1X1X",
"1X1X1X1X&X&X'.d.w.= # O + $.$.^ ^ | O.O.O.O.O.O.O.O.O.O.O.O.] O._ _ ` ` ' ' _ ) N m m e e 6 6 4.n.+X&X1X1X1X1X1X1X1X1X1X",
"1X1X1X1X%X[.~.s.w.= - , O $.$.^ } ..O.O.O.O.O.| [ O.[ [ O.[ O.O.' ` ] ' ] ' ' _ _ M B e e 7 7 f.m.W.%X1X1X1X1X1X1X1X1X1X",
"1X1X1X1X(.'.d.p.1 X = > , $.$.^ ^ O.O.O.O.O.O.|  .{ [ [ [ [ O.O.] ] ] ] ] ] ] ' _ N M e e 9 q f.l.W.@X1X1X1X1X1X1X1X1X1X",
"1X1X1X1X`.`.d.a.1 X ; > , $.$.} ^ ..O.O.O.O.O.|  . .{ { [  .O.[ O.] ] ] ] ] ] ] _ ( N e e q q f.l.E.[.1X1X1X1X1X1X1X1X1X",
"1X1X1X1X(.`.s.p.3 X : > , $.$.^ o...O.O.O.O.O.| [ { R R  . . . .O.O.| | ] ] ] ] ` ) ( y y 0 0 f.l.R.[.1X1X1X1X1X1X1X1X1X",
"1X1X1X1X'.'.d.p.3   = > O $.$.^ ^ | O.O.O.O.O. .{ { ! ^ h.h.X.h....... .| ] ] ] ` ) ( y y 0 0 f.l.R.[.1X1X1X1X1X1X1X1X1X",
"1X1X1X1X>X>X}.).r.$ & o @ $.$.^ ^ | O.O.O.O.O.o./ / ~ <.H.F.I.I.=./ / / } | ] ] ` ) ) u u 0 0 *.f.F.L.1X1X1X1X1X1X1X1X1X",
"1X1X1X1X>X>X}.).r.$ & o @ $.$.^ ^ | O.O.O.O.O.} / / U ;.H.H.H.H.-./ / / } | | ] ` ) ( u u 0 0 *.:.F.L.1X1X1X1X1X1X1X1X1X",
"1X1X1X1X>X>X}._.y.$ % o + $.$.^ ^ | O.O.O.O.O.../ ~ &.,.R.R.K.K.<.=./ /  .| ] ] ' _ _ u u 0 0 *.:.F.L.1X1X1X1X1X1X1X1X1X",
"1X1X1X1X>X>X}._.y.$ % o + $.$.^ ^ ..O.O.O.O.O.} / ~ &.,.K.K.K.K.,./ / / } | | ] ` _ _ u u 0 0 *.:.F.L.1X1X1X1X1X1X1X1X1X",
"1X1X1X1X[.[.).s.2 . = > , $.$.^ } O.O.O.O.O.O.} ~ ~ &.3.>X>X,X,XB.8.c.z.o.O.O.O.| ' ' t t 4 4 S H 6.M.1X1X1X1X1X1X1X1X1X",
"1X1X1X1X[.[./.s.2 X = > , $.$.^ ^ ..O.O.O.O.O.} ~ ~ &.3.>X>X,X,XZ.8.c.b.o.O.O.| O.' ' t t 4 4 S H 6.J.1X1X1X1X1X1X1X1X1X",
"1X1X1X1X[.@X~.s.w.: - , O $.$.^ ^ ..O.O.O.O.O.} ~ ~ &.,.;X;X;X:XN.7.4.4.X.O.O.O.O.' ' u y 4 5 S H 6.9.1X1X1X1X1X1X1X1X1X",
"1X1X1X1X@X@X/.s.w.: * , O $.$.^ } ..O.O.O.O.O.../ / &.3.-X-X;X;XN.7.4.4.X.O.O.O.O.' ' m u 4 5 S H 6.V.1X1X1X1X1X1X1X1X1X",
"1X1X1X1X>X>X*X}.d.w.q.@.@.U U { } ..O.O.O.O.O.} / ! U &.C.C.C.B.g./ / / ..O.O.O.O.' ' m m 8 8 S Q 4.8.1X1X1X1X1X1X1X1X1X",
"1X1X1X1X,X,X>X*X{.a.i.9.0.U U { } | O.O.O.O.O.{ ! ! U %.4.4.4.4.^ R } R  .O.O.O.O.' ' M ( 8 8 G W 3.7.1X1X1X1X1X1X1X1X1X",
"1X1X1X1X,X,X>X=X'.s.u.9.0.U U R } ..O.O.O.| | { ^ ! U / 3.3.3.3.^ R T {  .O.| | O.' ' m m 8 9 G W 3.7.1X1X1X1X1X1X1X1X1X",
"1X1X1X1X,X,X>X=X{.d.d.9.8.U U R R | O.O.O.O.| ..^ ! ! ! ,.3.g.3.^ R  . .| O.O.| | | O.N m 0 0 G W 2.7.1X1X1X1X1X1X1X1X1X",
"1X1X1X1X1X,X>X*X%X}.`.Z.M.Y Y R R | O.O.O.| | ..} } } } X.X.X.X.{ {  .O.O.O.O.| | O.] ( N 0 q G W 1.5.1X1X1X1X1X1X1X1X1X",
"1X1X1X1X1X1X1X1X1X,X;X XS.P P { } | O.O.O.O.O.O.O.O.O.O.O.O.O.O.| | O.O.O.O.O.O.O.O.] ) ) i i G E $.1.1X1X1X1X1X1X1X1X1X",
"1X1X1X1X1X1X1X1X1X,X;X XS.P P { { O.O.O.O.O.O.O.O.O.O.O.O.O.O.O.O.O.O.O.O.O.O.] | ] ] ) ) i w G K >.1.1X1X1X1X1X1X1X1X1X",
"1X1X1X1X1X1X1X1X1X,X;X XU.P P [ [ | O.O.O.O.O.O.O.O.O.O.O.O.O.O.O.O.O.O.O.O.O.] ] ] ] N M w w K I 1.6.1X1X1X1X1X1X1X1X1X",
"1X1X1X1X1X1X1X1X1X,X:X XU.P P [  .O.O.O.O.O.O.O.O.O.O.O.O.O.O.O.O.O.O.O.O.O.O.] ] ) _ B M w w K Q 2.6.1X1X1X1X1X1X1X1X1X",
"1X1X1X1X1X1X1X1X1X,X;X XU.P P T T | O.O.O.O.O.O.O.O.O.O.O.O.O.O.O.O.O.O.O.O.] ] _ M m e r 6 6 I $.m.M.1X1X1X1X1X1X1X1X1X",
"1X1X1X1X1X1X1X1X1X,X:XT.U.P P T T | O.O.O.O.O.O.O.O.O.O.O.O.O.O.O.O.O.| | | ] ] _ M m l e 6 s #.$.v.M.1X1X1X1X1X1X1X1X1X",
"1X1X1X1X1X1X1X1X1X<X-XY.S.P P R { | O.O.O.O.O.O.O.O.O.O.O.O.O.O.O.O.| | ] ( ( N B e l b D %.%.1.2.1X1X1X1X1X1X1X1X1X1X1X",
"1X1X1X1X1X1X1X1X1X<X-XY.S.P P [ R O.O.O.O.O.O.O.O.O.O.O.O.O.O.O.O.O.| | ` ) N N m l l D D %.%.2.2.1X1X1X1X1X1X1X1X1X1X1X",
"1X1X1X1X1X1X1X1X1X,X;XY.S.P P T T O.O.O.O.O.O.O.O.O.O.O.O.O.O.O.O.O.] ] M i t l j s a %.%.F.F.1X1X1X1X1X1X1X1X1X1X1X1X1X",
"1X1X1X1X1X1X1X1X1X,X;X XS.P P T T O.O.O.O.O.O.O.O.O.O.O.O.O.O.O.O.O.| ` M i i w w s a %.%.G.G.1X1X1X1X1X1X1X1X1X1X1X1X1X",
"1X1X1X1X1X1X1X1X1X,X;XP.C.L L b D Z Z Z Z Z Z Z Z Z Z Z Z Z Z Z V V V A x j c F K :.:.m.c.1X1X1X1X1X1X1X1X1X1X1X1X1X1X1X",
"1X1X1X1X1X1X1X1X1X,X-XP.C.h h b b C C C C Z b C C C Z C V b C V v v v v c k b S Q c.c.v.v.1X1X1X1X1X1X1X1X1X1X1X1X1X1X1X",
"1X1X1X1X1X1X1X1X1X,X-XA.N.g g f f c c c c c c c c c c c c c c c k j z z d d F H :.I.I.I.R.1X1X1X1X1X1X1X1X1X1X1X1X1X1X1X",
"1X1X1X1X1X1X1X1X1X,X;XZ.N.p g f f z z z c z z z d z d z c z c z s s s a d f F %.4.[.].].[.1X1X1X1X1X1X1X1X1X1X1X1X1X1X1X",
"1X1X1X1X1X1X1X1X1X1X$XT.P.2.2.2.4.x.3.j.j.3.j.j.k.3.j.j.j.j.j.j.-.f.-.:.:.:.5.v.M.1X1X1X1X1X1X1X1X1X1X1X1X1X1X1X1X1X1X1X",
"1X1X1X1X1X1X1X1X1X1X1XOXoXE.E.E..X.X.XT.T.T.T.T..X.X X X X X X.XT.T.T.T..X.XE.E.E.1X1X1X1X1X1X1X1X1X1X1X1X1X1X1X1X1X1X1X",
"1X1X1X1X1X1X1X1X1X1X1XOXoX+X#X#X#X#XOXOXOXOXOXOX#X#XOX#X#XOXOX#XOXOXOXOX#X#X#X#X#X1X1X1X1X1X1X1X1X1X1X1X1X1X1X1X1X1X1X1X",
"1X1X1X1X1X1X1X1X1X1X1X1X1X>X>X>X>X>X>X>X>X>X>X>X>X>X>X>X<X>X>X>X>X>X>X>X>X>X,X,X,X1X1X1X1X1X1X1X1X1X1X1X1X1X1X1X1X1X1X1X",
"1X1X1X1X1X1X1X1X1X1X1X1X1X>X>X>X<X>X>X>X>X>X>X&X>X>X>X>X>X>X>X>X>X>X>X>X>X>X>X,X,X1X1X1X1X1X1X1X1X1X1X1X1X1X1X1X1X1X1X1X",
"1X1X1X1X1X1X1X1X1X1X1X1X1X1X1X1X1X1X1X1X1X1X1X1X1X1X1X1X1X1X1X1X1X1X1X1X1X1X1X1X1X1X1X1X1X1X1X1X1X1X1X1X1X1X1X1X1X1X1X1X",
"1X1X1X1X1X1X1X1X1X1X1X1X1X1X1X1X1X1X1X1X1X1X1X1X1X1X1X1X1X1X1X1X1X1X1X1X1X1X1X1X1X1X1X1X1X1X1X1X1X1X1X1X1X1X1X1X1X1X1X1X",
"1X1X1X1X1X1X1X1X1X1X1X1X1X1X1X1X1X1X1X1X1X1X1X1X1X1X1X1X1X1X1X1X1X1X1X1X1X1X1X1X1X1X1X1X1X1X1X1X1X1X1X1X1X1X1X1X1X1X1X1X",
"1X1X1X1X1X1X1X1X1X1X1X1X1X1X1X1X1X1X1X1X1X1X1X1X1X1X1X1X1X1X1X1X1X1X1X1X1X1X1X1X1X1X1X1X1X1X1X1X1X1X1X1X1X1X1X1X1X1X1X1X"
};
