/* XPM */
static char * e_xpm[] = {
"64 70 447 2",
"  	c None",
". 	c #FEFEFD",
"+ 	c #FFFFFF",
"@ 	c #FFFFFE",
"# 	c #FDFEFD",
"$ 	c #FFFEFE",
"% 	c #FEFFFE",
"& 	c #FEFEFE",
"* 	c #FBFDFD",
"= 	c #DFF0F2",
"- 	c #CBE8EB",
"; 	c #CEE9EC",
"> 	c #E9F5F6",
", 	c #FCFEFE",
"' 	c #D0EAEC",
") 	c #9BD6DC",
"! 	c #81D0D6",
"~ 	c #8FD2D9",
"{ 	c #BBE1E5",
"] 	c #F3F9FA",
"^ 	c #F4FAFA",
"/ 	c #D2EBED",
"( 	c #C4E5E9",
"_ 	c #D7EDEF",
": 	c #F8FBFC",
"< 	c #E5F3F4",
"[ 	c #85D0D6",
"} 	c #6DC8BF",
"| 	c #77C7A8",
"1 	c #75C7AC",
"2 	c #69C7C6",
"3 	c #A0D8DD",
"4 	c #F8FCFC",
"5 	c #9CD7DC",
"6 	c #6FC7BB",
"7 	c #80C683",
"8 	c #87C665",
"9 	c #84C676",
"0 	c #76C7A8",
"a 	c #79CCD3",
"b 	c #E4F2F4",
"c 	c #D3EBED",
"d 	c #72CAD0",
"e 	c #72C7B2",
"f 	c #78C7A3",
"g 	c #71C7B5",
"h 	c #77CCD3",
"i 	c #DAEEF0",
"j 	c #E6F3F4",
"k 	c #72CBCF",
"l 	c #80C789",
"m 	c #8CC63E",
"n 	c #8BC648",
"o 	c #77C7A5",
"p 	c #89D1D7",
"q 	c #A3D9DE",
"r 	c #74C7AD",
"s 	c #8BC643",
"t 	c #80C684",
"u 	c #75CBD2",
"v 	c #CAE8EA",
"w 	c #6AC7C7",
"x 	c #85C66D",
"y 	c #83C779",
"z 	c #6DC9CC",
"A 	c #E3F2F3",
"B 	c #FDFEFE",
"C 	c #8AD1D7",
"D 	c #7FC68B",
"E 	c #8CC63F",
"F 	c #6BC7C3",
"G 	c #78C7A1",
"H 	c #65C7D1",
"I 	c #83C67B",
"J 	c #7FC78A",
"K 	c #DCEFF1",
"L 	c #6DC7BF",
"M 	c #89C656",
"N 	c #7DC793",
"O 	c #89C658",
"P 	c #6DC7BE",
"Q 	c #8CC640",
"R 	c #6BC7C4",
"S 	c #FAFDFD",
"T 	c #B3DFE3",
"U 	c #7AC79B",
"V 	c #8BC642",
"W 	c #7DC78F",
"X 	c #74C7AF",
"Y 	c #FCFEFD",
"Z 	c #6FCAD2",
"` 	c #67C8D1",
" .	c #66C7D0",
"..	c #80C687",
"+.	c #8DC540",
"@.	c #83C67C",
"#.	c #8CC540",
"$.	c #75C5A9",
"%.	c #67C7D0",
"&.	c #7DCDD5",
"*.	c #F7FBFC",
"=.	c #C5E5E8",
"-.	c #90B6CD",
";.	c #BA9CCA",
">.	c #BA9CC9",
",.	c #9E7CB0",
"'.	c #88609E",
").	c #88609F",
"!.	c #8764A0",
"~.	c #67C4CF",
"{.	c #F5FAFB",
"].	c #A7DADF",
"^.	c #A0AECC",
"/.	c #BB9BCA",
"(.	c #BA9AC9",
"_.	c #BB9BC9",
":.	c #956FA9",
"<.	c #885E9E",
"[.	c #8277A7",
"}.	c #80CED6",
"|.	c #FEFFFF",
"1.	c #80CED5",
"2.	c #AFA4CB",
"3.	c #B595C5",
"4.	c #8B62A0",
"5.	c #9975AD",
"6.	c #B898C7",
"7.	c #8A609F",
"8.	c #7C91B3",
"9.	c #F3FAFA",
"0.	c #6AC6D0",
"a.	c #B99CCA",
"b.	c #A17DB3",
"c.	c #9974AC",
"d.	c #B392C3",
"e.	c #76A4BC",
"f.	c #C4E5E8",
"g.	c #FCFDFC",
"h.	c #7EBECE",
"i.	c #BA9BC9",
"j.	c #8E66A3",
"k.	c #A280B5",
"l.	c #A988BB",
"m.	c #6EB6C6",
"n.	c #DDEFF1",
"o.	c #FDFDFD",
"p.	c #C4E6E8",
"q.	c #92B6CD",
"r.	c #885F9E",
"s.	c #8C63A1",
"t.	c #9F7BB1",
"u.	c #87609F",
"v.	c #68C3CE",
"w.	c #A1ADCC",
"x.	c #9B76AE",
"y.	c #8376A7",
"z.	c #7CCDD5",
"A.	c #B0A3CB",
"B.	c #A987BA",
"C.	c #A17EB3",
"D.	c #A784B8",
"E.	c #9873AB",
"F.	c #9872AB",
"G.	c #AF8EBF",
"H.	c #8A619F",
"I.	c #7D8FB2",
"J.	c #A4D9DE",
"K.	c #F2F9F9",
"L.	c #6BC5CF",
"M.	c #BA9BCA",
"N.	c #B999C8",
"O.	c #8A61A0",
"P.	c #AD8CBD",
"Q.	c #B393C3",
"R.	c #76A3BC",
"S.	c #C2E4E8",
"T.	c #FCFCFC",
"U.	c #DAEEEF",
"V.	c #81BDCE",
"W.	c #AB8ABC",
"X.	c #AA88BB",
"Y.	c #6EB5C6",
"Z.	c #FAFBFA",
"`.	c #C0E3E6",
" +	c #93B5CD",
".+	c #B08FC0",
"++	c #AC8BBD",
"@+	c #B594C4",
"#+	c #A07CB2",
"$+	c #68C2CE",
"%+	c #F1F9F9",
"&+	c #9FD8DD",
"*+	c #A3ACCC",
"=+	c #9069A5",
"-+	c #9670AA",
";+	c #7ACDD5",
">+	c #79CCD4",
",+	c #B1A2CA",
"'+	c #B493C3",
")+	c #AB89BC",
"!+	c #7D8EB1",
"~+	c #A4D9DF",
"{+	c #EEF7F7",
"]+	c #6DC4CF",
"^+	c #AD8CBE",
"/+	c #A887BA",
"(+	c #B291C2",
"_+	c #A380B5",
":+	c #987EB1",
"<+	c #817EAA",
"[+	c #7C8FB2",
"}+	c #77A0BB",
"|+	c #6CB9C8",
"1+	c #C3E5E8",
"2+	c #D9EEF0",
"3+	c #83BDCE",
"4+	c #AF8DBF",
"5+	c #A785B9",
"6+	c #9E7DB2",
"7+	c #9385B3",
"8+	c #858DB3",
"9+	c #7A99B7",
"0+	c #74A7BE",
"a+	c #6FB4C5",
"b+	c #69C0CC",
"c+	c #6BC8D1",
"d+	c #8BD1D8",
"e+	c #BFE3E6",
"f+	c #D4ECEE",
"g+	c #FAFCFC",
"h+	c #FAFAFB",
"i+	c #BEE3E6",
"j+	c #94B4CD",
"k+	c #B191C1",
"l+	c #9B77AE",
"m+	c #936CA7",
"n+	c #8090B3",
"o+	c #779FBA",
"p+	c #71AFC2",
"q+	c #67C5CF",
"r+	c #79CDD4",
"s+	c #9BD6DB",
"t+	c #B2DEE3",
"u+	c #C9E7EA",
"v+	c #DEF0F2",
"w+	c #EDF7F7",
"x+	c #9DD7DD",
"y+	c #A5AACC",
"z+	c #9F7CB2",
"A+	c #87629F",
"B+	c #65C6CF",
"C+	c #BCE2E5",
"D+	c #E7F4F5",
"E+	c #99D5DB",
"F+	c #A7A9CB",
"G+	c #8667A2",
"H+	c #69C8D1",
"I+	c #FAFCFD",
"J+	c #ACDCE1",
"K+	c #9D79AF",
"L+	c #856DA3",
"M+	c #67C4CE",
"N+	c #78CCD3",
"O+	c #88D1D7",
"P+	c #95D4DA",
"Q+	c #A8DBE0",
"R+	c #B5DFE4",
"S+	c #BEE2E7",
"T+	c #D0EAED",
"U+	c #EBF6F6",
"V+	c #F6FBFB",
"W+	c #BCE2E6",
"X+	c #B998C8",
"Y+	c #AC8DBE",
"Z+	c #A98DBD",
"`+	c #A391BE",
" @	c #9E95BE",
".@	c #999CC0",
"+@	c #92A0C0",
"@@	c #8BA1BF",
"#@	c #85A6C1",
"$@	c #7CA8C0",
"%@	c #77ADC2",
"&@	c #6FB3C5",
"*@	c #6DB8C7",
"=@	c #69BFCC",
"-@	c #D1EAED",
";@	c #FEFEFC",
">@	c #8CB8CD",
",@	c #9C77AF",
"'@	c #B797C6",
")@	c #B494C4",
"!@	c #9C77AE",
"~@	c #946DA8",
"{@	c #9772AB",
"]@	c #A988BA",
"^@	c #74A6BE",
"/@	c #CEE9EB",
"(@	c #77C1CF",
"_@	c #AD8BBD",
":@	c #9570A9",
"<@	c #B696C6",
"[@	c #926BA6",
"}@	c #8A60A0",
"|@	c #B898C8",
"1@	c #AE8DBF",
"2@	c #72ACC0",
"3@	c #68C6D0",
"4@	c #B695C6",
"5@	c #AD8BBE",
"6@	c #70B1C4",
"7@	c #FAFBFB",
"8@	c #6AC9D1",
"9@	c #B4A0CA",
"0@	c #B999C9",
"a@	c #916AA6",
"b@	c #E2F2F4",
"c@	c #AEA4CB",
"d@	c #8F66A3",
"e@	c #895F9F",
"f@	c #A583B7",
"g@	c #B493C4",
"h@	c #A886B9",
"i@	c #B797C7",
"j@	c #A683B7",
"k@	c #6CBAC9",
"l@	c #E8F4F6",
"m@	c #FBFCFB",
"n@	c #9BD7DB",
"o@	c #A6AACB",
"p@	c #8E65A3",
"q@	c #885D9E",
"r@	c #67C2CD",
"s@	c #EEF7F8",
"t@	c #AEDDE1",
"u@	c #9EAECC",
"v@	c #66C5CF",
"w@	c #F7FCFC",
"x@	c #C1E3E7",
"y@	c #B796C6",
"z@	c #8665A1",
"A@	c #CFEAEC",
"B@	c #8BB9CE",
"C@	c #A583B6",
"D@	c #916BA6",
"E@	c #8570A5",
"F@	c #70CAD3",
"G@	c #9771AB",
"H@	c #89609F",
"I@	c #BA9ACA",
"J@	c #B08EC0",
"K@	c #AC8CBD",
"L@	c #A78ABB",
"M@	c #A08FBC",
"N@	c #9996BD",
"O@	c #9199BC",
"P@	c #8A9FBE",
"Q@	c #7B9DBA",
"R@	c #75A6BE",
"S@	c #71AEC2",
"T@	c #6DB7C7",
"U@	c #92D3D9",
"V@	c #73C3CF",
"W@	c #B696C5",
"X@	c #9C78AF",
"Y@	c #8F67A3",
"Z@	c #8B62A1",
"`@	c #8372A6",
" #	c #6ABECB",
".#	c #6BCAD1",
"+#	c #8DD2D8",
"@#	c #A1D8DE",
"##	c #AEDCE1",
"$#	c #BEE2E6",
"%#	c #C6E6E9",
"&#	c #DFF1F3",
"*#	c #69C6D0",
"=#	c #A27FB4",
"-#	c #D5EDEE",
";#	c #F6FAFB",
">#	c #72CAD2",
",#	c #B190C1",
"'#	c #B0DEE2",
")#	c #DDF0F1",
"!#	c #DFF1F2",
"~#	c #E7F3F5",
"{#	c #EAF5F6",
"]#	c #ADA5CB",
"^#	c #956FA8",
"/#	c #8E8DB5",
"(#	c #7DBBCC",
"_#	c #7DBBCD",
":#	c #7CBCCD",
"<#	c #7BBDCD",
"[#	c #79BCCC",
"}#	c #79BDCD",
"|#	c #77BDCD",
"1#	c #76BCCD",
"2#	c #6DB8C8",
"3#	c #BDE2E5",
"4#	c #9ED7DC",
"5#	c #A4ABCB",
"6#	c #9670A9",
"7#	c #75CBD3",
"8#	c #F9FCFC",
"9#	c #B1DEE2",
"0#	c #9CB0CC",
"a#	c #70B1C3",
"b#	c #C5E6E9",
"c#	c #94B5CD",
"d#	c #8F66A4",
"e#	c #7F87AE",
"f#	c #8AD2D8",
"g#	c #89BACE",
"h#	c #A481B6",
"i#	c #6BBCC9",
"j#	c #E0F1F2",
"k#	c #7FBECE",
"l#	c #7A97B6",
"m#	c #A6D9DF",
"n#	c #71C3CF",
"o#	c #9D78AF",
"p#	c #8668A2",
"q#	c #69C4CE",
"r#	c #EFF7F8",
"s#	c #F7FBFB",
"t#	c #75A6BD",
"u#	c #78CCD4",
"v#	c #956EA9",
"w#	c #76CBD3",
"x#	c #89D1D8",
"y#	c #ACA6CB",
"z#	c #AB89BB",
"A#	c #6FB3C4",
"B#	c #A3ABCC",
"C#	c #7E88AF",
"D#	c #8ED2D8",
"E#	c #9BB1CD",
"F#	c #6ABDCA",
"G#	c #E2F1F3",
"H#	c #7999B7",
"I#	c #8995B9",
"J#	c #7D8CB1",
"K#	c #7B93B4",
"L#	c #A2D8DE",
"M#	c #FCFCFD",
"N#	c #FBFBFB",
"                                                                                                                                ",
"                                                                                                                                ",
"                                                                                                                                ",
"                                            . + @ #         @ @ + + $ .         % + .                                           ",
"                                        & + + + + + + . & + + + + + + + + & @ + + + + + $ .                                     ",
"                                    . + + + + + + + + + + + + + + + + + + + + + + + + + + + .                                   ",
"                                  & + + + * = - ; > & + + , ' ) ! ~ { ] + + + ^ / ( _ : + + + .                                 ",
"                                  + + + < [ } | 1 2 3 ] 4 5 6 7 8 9 0 a b & c d e f g h i + + +                                 ",
"                                @ + + j k l m m m n o p q r s m m m m t u v w x m m m y z A + + &                               ",
"                            . + + + B C D m m m m m E 1 F n m m m m m m G H I m m m m m J ~ & + + +                             ",
"                          . + + + + K L E m m m m m m M N m m m m m m m O P m m m m m m Q R > + + + + .                         ",
"                          + + + S 4 T U m m m m m m m m V m m m m m m m m W m m m m m m m X ; 4 Y + + %                         ",
"                        $ + + > Z `  ...+.+.+.+.+.+.+.+.+.+.+.+.+.+.+.+.+.@.+.+.+.+.+.+.#.$. .%.&.*.+ +                         ",
"                        + + + =.-.;.;.>.>.>.>.>.>.>.>.>.>.>.>.>.>.>.>.>.>.>.>.>.>.>.>.>.,.'.).!.~.{.+ +                         ",
"                        $ + + ].^././././.(./././././././././././././././././././././._.:.<.<.[.}.& + +                         ",
"                        @ + |.1.2./././.3.4.5.6./././././././././././././././././././.(.7.<.<.8.].+ + .                         ",
"                        + + 9.0.a./././.b.<.<.c.(././././././././././././././././././.d.<.<.<.e.f.+ + g.                        ",
"                      . + + K h./././.i.j.<.<.<.k././././././././././././././././././.l.<.<.<.m.n.+ + o.                        ",
"                      . + + p.q./././.(.r.<.<.<.s././././././././././././././././././.t.<.<.u.v.^ + @                           ",
"                      + + % q w././././.x.<.<.<.j././././././././././././././././././.:.<.<.y.z.% + +                           ",
"                      + + & &.A./.B.C.(.(.D.E.F.G./././././././././././././././././.(.H.<.<.I.J.+ + @                           ",
"                      + + K.L.M.N.O.<.P././././././././././././././././././././././.Q.<.<.<.R.S.+ + T.                          ",
"                    + + + U.V./.3.<.<.W././././././././././././././././././././././.X.<.<.<.Y.n.+ + Z.                          ",
"                    $ + + `. +/./..+++/.(.@+/./././././././././././././././././././.#+<.<.).$+%++ +                             ",
"                    & + + &+*+/./././.6.=+<..+/././././././././././././././././././.-+<.<.y.;+& + +                             ",
"                    @ + & >+,+/./././.'+<.<.)+/./././././././././././././././././.(.4.<.<.!+~++ + .                             ",
"                    + + {+]+/./././././.^+/+(././././././././././././././.6.(+W._+:+<+[+}+|+1++ + o.                            ",
"                  . + + 2+3+/./././././././././././././././._.3.4+5+6+7+8+9+0+a+b+c+d+].e+f+g++ + h+                            ",
"                  & + + i+j+/./././././././././././.k+_+l+m+n+o+p+|+q+r+s+t+u+v+w+, + + + + + + &                               ",
"                  + + |.x+y+/./././././././././././.z+<.<.A+B+C+/ D+{.& & + + + + + + + + + + &                                 ",
"                  + + |.E+F+/./././././././././././.x.<.<.G+H+I+% % & + + + + + + + + + + + +                                   ",
"                  + + |.J+^././././.N.K+.+/././././.E.<.<.L+M+c+N+O+P+Q+R+S+u+T+2+< U+V++ + + o.                                ",
"                  . + + W+j+/./././.5+<.j.(././././.(.X+@+(+Y+Z+`+ @.@+@@@#@$@%@&@*@=@q+-@+ + %                                 ",
"                  ;@+ + ' >@/./././.,@<.<.'@/././././././././././././././././.)@<.<.<.R.e++ + %                                 ",
"                  . + + K V././././.!@<.~@(./.(+{@]@/././././././././././././.(+<.<.<.^@/@+ + h+                                ",
"                    + + D+(@/./././._@:@<@/./.[@<.}@|@/./././././././././././.1@<.<.<.2@-@+ + +                                 ",
"                    + + ^ 3@/./././././././.4@<.<.<.@+/./././././././././././.5@<.<.<.6@i + + 7@                                ",
"                    + + B 8@9@/./././.(.0@/.N.s.<.a@(././././././././././././.B.<.<.<.Y.b@+ + @                                 ",
"                    & + + d+c@/././..+d@e@f@/.g@h@i@/././././././././././././.j@<.<.<.k@l@+ + m@                                ",
"                    & + + n@o@/./.6.p@<.<.4.0@/./././././././././././././././._+<.<.q@r@s@+ +                                   ",
"                    & + + t@u@/./.h@<.<.<.<.@+/./././././././././././././././.z+<.<.<.v@w@+ +                                   ",
"                    @ + + x@j+/./.t.<.<.<.<.y@/./././././././././././././././.!@<.<.z@%., + +                                   ",
"                    + + + A@B@/./.C@<.<.<.D@/././././././././././././././././.c.<.<.E@F@% + +                                   ",
"                    + + + v+V././.N.G@<.H@1@/././././././.I@X+)@J@K@L@M@N@O@P@Q@R@S@T@U@& + +                                   ",
"                      + + > V@/././.i.d.W@/./././././.X@Y@Z@`@m. #r@.#r++#@###$#%#f+&#V++ + + + &                               ",
"                      + + w@*#;./././././././././././.=#<.<.).b+-#;#* + + + + + + + + + + + + + + &                             ",
"                      + + B >#9@/././././././././././.,#<.<.<.0+'#_ )#v+v+v+!#~#~#~#~#D+> > {#, + + .                           ",
"                      + + |.p ]#/./././././././././././.E.^#^#/#(#_#_#:#<#[#[#[#}#|#1#2#*@k@b+3#+ + @                           ",
"                      + + % 4#5#/././././././././././././././././././././././././.i._.6#<.<.y.7#8#+ + .                         ",
"                      @ + + 9#0#/././././././././././././././././././././././././././.)+<.<.<.a#/@+ + &                         ",
"                      & + + b#c#/././././././././././././././././././././././././././.(.d#<.<.e#f#B + +                         ",
"                      . + + -@g#/./././././././././././././././././././././././././././.h#<.<.).i#j#+ + #                       ",
"                      . + + v+k#/./././././././././././././././././././././././././././.<@7.<.<.l#m#@ + @                       ",
"                        + + U+n#/././././././././././././././././././././././././././././.o#<.<.p#q#r#+ + .                     ",
"                        + + s#3@a././././././././././././././././././././././././././././.,#<.<.<.t#W++ + &                     ",
"                        @ + |.u#9@/././././././././././././././././././././././././././././.v#<.<.[.w#8#+ + g.                  ",
"                        & + + x#y#/././././././././././././././././././././././././././././.z#<.<.<.A#' + + &                   ",
"                        & + + @#B#/././././././././././././././././././././././././././././.(.p@<.<.C#D#|.+ +                   ",
"                        + + + T E#/./././././././././././././././././././././././././././././._+<.<.u.F#G#+ + #                 ",
"                        + + + =. +/./././././././././././././././././././././././././././././.<@7.<.<.H#Q+@ + @                 ",
"                        + + + c h.*+*+*+*+*+*+*+*+*+*+*+*+*+*+*+*+*+*+*+*+*+*+*+*+*+*+*+*+*+*+B#I#J#J#K#H+8#+ +                 ",
"                          + + V+J+L#L#L#L#L#L#L#L#L#L#L#L#L#L#L#L#L#L#L#L#L#L#L#L#L#L#L#L#L#L#L#L#L#L#L#e+|.+ +                 ",
"                          $ + + + + + + + + + + + + + + + + + + + + + + + + + + + + + + + + + + + + + + + + + g.                ",
"                            @ + + + + + + + + + + + + + + + + + + + + + + + + + + + + + + + + + + + + + + + o.                  ",
"                              B % |.|.|.|.|.|.|.|.|.|.+ + + + + + + + |.+ |.+ |.|.|.|.|.|.|.|.|.|.|.|.|.M#N#                    ",
"                                                                                                                                ",
"                                                                                                                                ",
"                                                                                                                                ",
"                                                                                                                                ",
"                                                                                                                                "};
