/* XPM */
static char *e[] = {
/* columns rows colors chars-per-pixel */
"60 64 181 2 ",
"   c #91BE55",
".  c #8FBF62",
"X  c #99AF71",
"o  c #9DB476",
"O  c #9CB47C",
"+  c #8DC543",
"@  c #8CC54C",
"#  c #89C555",
"$  c #86C55C",
"%  c #8FC859",
"&  c #92C054",
"*  c #90C851",
"=  c #92C05D",
"-  c #8FC064",
";  c #8DC06B",
":  c #85C561",
">  c #92CA65",
",  c #93C267",
"<  c #96C674",
"1  c #9ED074",
"2  c #A2D279",
"3  c #8D6AA5",
"4  c #8F67A4",
"5  c #936EA9",
"6  c #916CA7",
"7  c #8874AA",
"8  c #8B7AAE",
"9  c #8773A9",
"0  c #9671AB",
"q  c #9974AD",
"w  c #9D77B0",
"e  c #9D7BB1",
"r  c #A37EB5",
"t  c #9EA983",
"y  c #9FAB8B",
"u  c #9AB583",
"i  c #9CB588",
"p  c #98A898",
"a  c #A1AF8D",
"s  c #A4B087",
"d  c #A2B08D",
"f  c #A4AD99",
"g  c #A1B193",
"h  c #8D83B2",
"j  c #9D84B7",
"k  c #9D8EBC",
"l  c #9684B5",
"z  c #9191BA",
"x  c #A480B7",
"c  c #A683B9",
"v  c #A986BB",
"b  c #A38CBC",
"n  c #AC8BBE",
"m  c #A491BE",
"M  c #A894BF",
"N  c #ACB9B8",
"B  c #95C786",
"V  c #98D08E",
"C  c #98C592",
"Z  c #A4D483",
"A  c #A6D58E",
"S  c #A5D592",
"D  c #A9D795",
"F  c #ADD99E",
"G  c #ACD893",
"H  c #A5CEAF",
"J  c #A3D6AC",
"K  c #B3DCA5",
"L  c #B2DCAA",
"P  c #AEC0B9",
"I  c #B6C8BF",
"U  c #A9D4B2",
"Y  c #B4DEB2",
"T  c #B9D8BC",
"R  c #B7E0B1",
"E  c #B9E0B2",
"W  c #B7E0BB",
"Q  c #BCE1BC",
"!  c #C1E4BC",
"~  c #AF8DC0",
"^  c #B18FC1",
"/  c #A594C0",
"(  c #AB92C2",
")  c #A49AC2",
"_  c #AC99C6",
"`  c #AC9EC8",
"'  c #B594C5",
"]  c #B897C7",
"[  c #B898C7",
"{  c #B897C8",
"}  c #B49ECA",
"|  c #BB9BCA",
" . c #B09AC6",
".. c #94A4C5",
"X. c #94A9C7",
"o. c #A4A1C7",
"O. c #ADA1C6",
"+. c #A4A5C9",
"@. c #ADA2CB",
"#. c #A7A9CB",
"$. c #AAADCD",
"%. c #B2A2CB",
"&. c #B2ABCB",
"*. c #AAB1CE",
"=. c #B6B1CE",
"-. c #BAAED0",
";. c #B5AFD0",
":. c #AEB3D2",
">. c #A6B8D0",
",. c #AFBBD5",
"<. c #B2B6D3",
"1. c #BCB4D3",
"2. c #B3BBD6",
"3. c #BBBCD6",
"4. c #B5BDD8",
"5. c #BCBED9",
"6. c #C2B9D7",
"7. c #C0BDD9",
"8. c #B4C0C0",
"9. c #ACCCDC",
"0. c #B7C1D7",
"q. c #B9C0D7",
"w. c #B5C2DA",
"e. c #BBC3DB",
"r. c #BDC9DD",
"t. c #ACD2DF",
"y. c #BFE4C0",
"u. c #BFE5C9",
"i. c #AFD9E2",
"p. c #B2D3E0",
"a. c #BCD6E3",
"s. c #B0DAE3",
"d. c #B8DDE6",
"f. c #C3CFD3",
"g. c #C6C5DD",
"h. c #C8C3DD",
"j. c #C3CADD",
"k. c #CACADD",
"l. c #C4D5D2",
"z. c #C1E4C4",
"x. c #C5E6CC",
"c. c #C9E8C8",
"v. c #C7E4D0",
"b. c #C6E8D1",
"n. c #CAE9D4",
"m. c #CCEBD9",
"M. c #D3EDDD",
"N. c #D0EBD3",
"B. c #C1CEE0",
"V. c #C5D4E3",
"C. c #CDD3E3",
"Z. c #CADCE6",
"A. c #CBDDE8",
"S. c #D4D6E6",
"D. c #D3D8E6",
"F. c #D6D7E8",
"G. c #D5DBE9",
"H. c #DADDEB",
"J. c #C4E3EA",
"K. c #CEE3EB",
"L. c #D3EEE4",
"P. c #D8EEE5",
"I. c #D4E6ED",
"U. c #DDE2EE",
"Y. c #D4E9EE",
"T. c #DCF1E5",
"R. c #D5F0E9",
"E. c #D9F1EE",
"W. c #DBECF1",
"Q. c #DCF1F3",
"!. c #E3F4ED",
"~. c #E3EBF2",
"^. c #E3F3F3",
"/. c #EAF1F5",
"(. c #ECF7F8",
"). c #ECF8F9",
"_. c #F2F2F7",
"`. c #F5F5F9",
"'. c #F2FAFB",
"]. c #FDFEFE",
"[. c None",
/* pixels */
"[.[.[.[.[.[.[.[.[.[.[.[.[.[.[.[.[.[.[.[.[.[.[.[.[.[.[.[.[.[.[.[.[.[.[.[.[.[.[.[.[.[.[.[.[.[.[.[.[.[.[.[.[.[.[.[.[.[.[.[.",
"[.[.[.[.[.[.[.[.[.[.[.[.[.[.[.[.[.[.[.[.[.[.[.[.[.[.[.[.[.[.[.[.[.[.[.[.[.[.[.[.[.[.[.[.[.[.[.[.[.[.[.[.[.[.[.[.[.[.[.[.",
"[.[.[.[.[.[.[.[.[.[.[.[.[.[.[.[.[.[.[.[.[.[.[.[.[.[.[.[.[.[.[.[.[.[.[.[.[.[.[.[.[.[.[.[.[.[.[.[.[.[.[.[.[.[.[.[.[.[.[.[.",
"[.[.[.[.[.[.[.[.[.[.[.[.[.[.[.[.[.[.[.[.[.[.[.[.[.[.[.[.[.[.[.[.[.[.[.[.[.[.[.[.[.[.[.[.[.[.[.[.[.[.[.[.[.[.[.[.[.[.[.[.",
"[.[.[.[.[.[.[.[.[.[.[.[.[.[.[.'.'.'.'.T.m.b.u.n.R.R.E.P.W W W W L.L.L.M.n.u.b.m.L.!.E.Q.^.[.[.[.[.[.[.[.[.[.[.[.[.[.[.[.",
"[.[.[.[.[.[.[.[.[.[.[.[.[.[.[.'.'.'.'.M.M.b.u.n.R.R.E.P.T Q W W L.L.L.L.n.b.b.m.M.!.^.^.Q.[.[.[.[.[.[.[.[.[.[.[.[.[.[.[.",
"[.[.[.[.[.[.[.[.[.[.[.[.[.[.[.^.!.!.!.N.c.Q E z.b.N.n.b.K L L L x.b.x.x.y.Q y.u.c.P.P.P.P.[.[.[.[.[.[.[.[.[.[.[.[.[.[.[.",
"[.[.[.[.[.[.[.[.[.[.[.[.[.[.[.!.!.T.!.c.! R K Y z.z.c.z.F F F F y.z.Q Q R L Y Q z.n.n.M.M.[.[.[.[.[.[.[.[.[.[.[.[.[.[.[.",
"[.[.[.[.[.[.[.[.[.[.[.[.[.[.[.M.M.b.c.K D Z 2 Z A A D A 1 1 2 2 S D S V Z 2 Z A D R R x.c.[.[.[.[.[.[.[.[.[.[.[.[.[.[.[.",
"[.[.[.[.[.[.[.[.[.[.[.[.[.'.'.b.b.U J 1 > * + @ * # # * + + + + $ : $ $ @ + @ % > B V W W ).).[.[.[.[.[.[.[.[.[.[.[.[.[.",
"[.[.[.[.[.[.[.[.[.[.[.[.[.(.(.v.v.U H B <       - - - -     = & ; ; ; ; = &   , < B C T T /./.[.[.[.[.[.[.[.[.[.[.[.[.[.",
"[.[.[.[.[.[.[.[.[.[.[.[.[.^.~.l.l.P N f s O X O u O s o o o o o u i u u u o O O i p g 8.I W.W.[.[.[.[.[.[.[.[.[.[.[.[.[.",
"[.[.[.[.[.[.[.[.[.[.[.[.[.~.W.f.j.N N f a a t s i g g a s s s s g g g g a s a a p p p =.P E.W.[.[.[.[.[.[.[.[.[.[.[.[.[.",
"[.[.[.[.[.[.[.[.[.[.[.[.[.A.Z.6.1.' ' ^ ~ n n ^ | | | | | | | | | %.| | | | ] n j 5 w ` O.V.V.[.[.[.[.[.[.[.[.[.[.[.[.[.",
"[.[.[.[.[.[.[.[.[.[.[.[.[.A.Z.1.6.' ' ~ ~ ~ n ^ | | | | | | | | | | | | | | ' n c q w @.O.V.V.[.[.[.[.[.[.[.[.[.[.[.[.[.",
"[.[.[.[.[.[.[.[.[.[.[.[.[.V.V.-.-.^ ~ ~ r r v n ' ] | | | | | | | | | | [ | ' n c q q @.O.I.I.[.[.[.[.[.[.[.[.[.[.[.[.[.",
"[.[.[.[.[.[.[.[.[.[.[.[.[.V.V.-.-.' ~ n c v c ~ ' { [ | | | | | | | | [ | | ' M c 0 q O.O.I.I.[.[.[.[.[.[.[.[.[.[.[.[.[.",
"[.[.[.[.[.[.[.[.[.[.[.[.[.r.r.%.@.~ v x e e w v ' { | | | | | | | | | | | | ' n c 3 5 &.&.Q.Q.[.[.[.[.[.[.[.[.[.[.[.[.[.",
"[.[.[.[.[.[.[.[.[.[.[.[.[.r.r.%.%.n n x r w w c { { | | | | | | | | | | | | ] n c 3 0 &.&.E.Q.[.[.[.[.[.[.[.[.[.[.[.[.[.",
"[.[.[.[.[.[.[.[.[.].`.H.D.4.2.@.@.n v v v v v ~ { [ | | | | | | | | | | [ ' n n j 9 8 =.=./.).[.[.[.[.[.[.[.[.[.[.[.[.[.",
"[.[.[.[.[.[.[.[.[.].`.H.S.2.2.` @.n v v v v n ^ { { | | | | | | | | | | [ ' n b j 7 h =.=.).).[.[.[.[.[.[.[.[.[.[.[.[.[.",
"[.[.[.[.[.[.[.[.[.].`.H.F.:.<.` ` n v n ^ ^ ^ ' [ | | | | | | | | | | | [ ' ' b j 7 h =.1.'.'.[.[.[.[.[.[.[.[.[.[.[.[.[.",
"[.[.[.[.[.[.[.[.[.].`.H.H.:.:.` _ v v ~ ^ ' { { | | | | | | | | [ [ | | [ ' M b j 8 h =.1.'.].[.[.[.[.[.[.[.[.[.[.[.[.[.",
"[.[.[.[.[.[.[.[.[.].`.H.F.$.$.`  .( ^ ' { { { ' ' ^ ' ^ -.%.&.%.6.-.-.6.-.-.=.&.&.o.&.k.j.[.[.[.[.[.[.[.[.[.[.[.[.[.[.[.",
"[.[.[.[.[.[.[.[.[.'./.H.C.} @.} } { { { | | | ' n n n n $.$.$.$.1.1.g.5.j.j.j.j.j.j.j.C.Z.[.[.[.[.[.[.[.[.[.[.[.[.[.[.[.",
"[.[.[.[.[.[.[.[.[.'./.F.C.@.@.} } { { | | | | ] n v v n $.$.:.*.5.q.e.e.j.B.B.B.V.C.C.I.G.[.[.[.[.[.[.[.[.[.[.[.[.[.[.[.",
"[.[.[.[.[.[.[.[.[.'./.F.C.@.@.} %.| | | | | [ ' v v r v *.$.:.:.e.r.r.r.V.V.C.A.K.W.W.W.W.[.[.[.[.[.[.[.[.[.[.[.[.[.[.[.",
"[.[.[.[.[.[.[.[.[.'./.F.C.@.@.` ` ' ' { [ [ [ ' n v c v $.$.>.>.0.e.w.0.e.r.V.V.Z.W.W.W.W.[.[.[.[.[.[.[.[.[.[.[.[.[.[.[.",
"[.[.[.[.[.[.[.[.[.'./.F.C.@.@./ ( c v n ^ ^ ' ' ^ n n ~ #.#.$.#.,.<.:.:.*.*.*.0.j.Y.W.I.W.[.[.[.[.[.[.[.[.[.[.[.[.[.[.[.",
"[.[.[.[.[.[.[.[.[.'./.F.C.@.@.~ ( c r n ^ ' ' ' ^ n n ~ #.#.$.#.:.<.:.:.*.#.:.0.j.I.I.I.I.[.[.[.[.[.[.[.[.[.[.[.[.[.[.[.",
"[.[.[.[.[.[.[.[.[.'./.F.C.@.@.^ ~ c r n ^ ^ ' ' ^ n n n #.#.#.#.:.:.=.*.#.#.*.0.j.I.I.I.I.[.[.[.[.[.[.[.[.[.[.[.[.[.[.[.",
"[.[.[.[.[.[.[.[.[.'.~.F.C.` @.n ~ r r ^ ^ ' ' ^ ^ ^ n ^ #.@.#.#.:.:.*.*.*.+.*.2.j.I.I.I.W.[.[.[.[.[.[.[.[.[.[.[.[.[.[.[.",
"[.[.[.[.[.[.[.[.[.].`.U.F.#.#._ { v ~ x x x x v { ^ { { | | | | | | ' ' r 6 e / %.Z.Z.Z.J.[.[.[.[.[.[.[.[.[.[.[.[.[.[.[.",
"[.[.[.[.[.[.[.[.[.].`.H.F.#.#._ ' ~ ~ v x x x v ^ { { { | | | | | | ' ' r 6 e / &.Z.Z.Z.A.[.[.[.[.[.[.[.[.[.[.[.[.[.[.[.",
"[.[.[.[.[.[.[.[.[.].`.H.F.$.$._ _ n v v v x r v ^ { | | | | | | | | ' ' r 5 j M &.Z.Z.A.A.[.[.[.[.[.[.[.[.[.[.[.[.[.[.[.",
"[.[.[.[.[.[.[.[.[.].`.H.F.$.#._ _ v v v x x r v ^ { | | | | | | | | ' ' r 5 e M &.Z.J.A.Z.[.[.[.[.[.[.[.[.[.[.[.[.[.[.[.",
"[.[.[.[.[.[.[.[.[.].`.U.F.:.:./ k 0 5 r c n ^ { | | | | | | | | [ ] ' n r 0 x ) &.I.K.K.K.[.[.[.[.[.[.[.[.[.[.[.[.[.[.[.",
"[.[.[.[.[.[.[.[.[.].`.U.G.<.<.k b 5 4 w c ~ { { | | | | { { | | ] ] ' ' r 0 x _ <.Y.Y.K.Y.[.[.[.[.[.[.[.[.[.[.[.[.[.[.[.",
"[.[.[.[.[.[.[.[.[.].`.U.F.<.2./ / w q r c ^ ' { { { { { { } } } %.%. . .n c m @.1.K.K.W.Y.[.[.[.[.[.[.[.[.[.[.[.[.[.[.[.",
"[.[.[.[.[.[.[.[.[.].`.H.F.2.2./ / w w c v ~ { ' { { ^ ^ } } } ` %.-.%.@._ M ) &.0.K.Y.W.W.[.[.[.[.[.[.[.[.[.[.[.[.[.[.[.",
"[.[.[.[.[.[.[.[.[.].`.U.F.4.4.` ` ~ ~ ~ ~ { { ^ ~ ~ ~ ~ o.o.o.+.<.w.,.,.,.:.,.w.r.Y.Y.W.W.[.[.[.[.[.[.[.[.[.[.[.[.[.[.[.",
"[.[.[.[.[.[.[.[.[.[.[.[.[.4.4.-.;.| | | | | | ^ v c r x ....X.X.t.i.i.i.i.i.d.J.J.Y.Y.^.~.].].[.[.[.[.[.[.[.[.[.[.[.[.[.",
"[.[.[.[.[.[.[.[.[.[.[.[.[.e.w.-.;.| | | | | | { v v x ~ ....X.X.9.t.i.p.i.p.a.V.V.Z.Z.I.I.'.'.[.[.[.[.[.[.[.[.[.[.[.[.[.",
"[.[.[.[.[.[.[.[.[.[.[.[.[.r.r.-.-.| | | { | { { ~ ~ ~ ( ..+.+.+.w.w.w.w.e.r.e.0.3.3.3.C.C.^.^.[.[.[.[.[.[.[.[.[.[.[.[.[.",
"[.[.[.[.[.[.[.[.[.[.[.[.[.r.r.-.1.| | | | | | { ^ ^ ^ ^ +.@.#.@.<.2.4.3.5.5.5.2.<.&.=.j.j.E.Q.[.[.[.[.[.[.[.[.[.[.[.[.[.",
"[.[.[.[.[.[.[.[.[.[.[.[.[.B.r.1.1.| | | | | | | | | | | | | | | | | | | | | ' n v q e +.+.s.s.[.[.[.[.[.[.[.[.[.[.[.[.[.",
"[.[.[.[.[.[.[.[.[.[.[.[.[.V.r.6.6.| | | | | | | | | | | | | | | | | | | | | ' n v q e +.+.s.s.[.[.[.[.[.[.[.[.[.[.[.[.[.",
"[.[.[.[.[.[.[.[.[.[.[.[.[.A.V.6.7.| | | | | | | | | | | | | | | | | | | | | { ' n x c M ) >.*.C.F.[.[.[.[.[.[.[.[.[.[.[.",
"[.[.[.[.[.[.[.[.[.[.[.[.[.V.V.6.6.| | | | | | | | | | | | | | | | | | | | | ] ' n x c ) ) >.>.C.D.[.[.[.[.[.[.[.[.[.[.[.",
"[.[.[.[.[.[.[.[.[.[.[.[.[.A.Z.6.7.| | | | | | | | | | | | | | | | | | | | | { ' ' n n m m z z k.S._.].[.[.[.[.[.[.[.[.[.",
"[.[.[.[.[.[.[.[.[.[.[.[.[.Z.Z.6.6.| | | | | | | | | | | | | | | | | | | | | | ' ' n n b k z z k.S._.].[.[.[.[.[.[.[.[.[.",
"[.[.[.[.[.[.[.[.[.[.[.[.[.K.K.7.g.} } } } } -.| } } } } } } } } %.| %.%.} } } }  ._ ) k k h h 0.j.~./.[.[.[.[.[.[.[.[.[.",
"[.[.[.[.[.[.[.[.[.[.[.[.[.K.K.5.7.%.} } } } } } } %.%.%.%.} } } | %.%.%.} } %.} } _ _ k k h h 3.g.I./.[.[.[.[.[.[.[.[.[.",
"[.[.[.[.[.[.[.[.[.[.[.[.[.K.I.5.g.%.%.%.%.%.%.} %.%.%.%.%.%.%.} %.%.%.%.%.%.%.` %.@.` k k 8 8 ,.0.G.W.[.[.[.[.[.[.[.[.[.",
"[.[.[.[.[.[.[.[.[.[.[.[.[.I.K.q.7.%.` ` %.@.| } %.} } %.` ` @.} @.%.@.%.@.%.%.` @.@.` k k 8 8 *.4.A.Y.[.[.[.[.[.[.[.[.[.",
"[.[.[.[.[.[.[.[.[.[.[.[.[.Q.~.F.F.B.h.h.B.h.h.B.B.h.h.h.h.h.h.B.h.h.h.h.h.h.g.h.g.g.g.3.3.&.&.k.Z.U.^.[.[.[.[.[.[.[.[.[.",
"[.[.[.[.[.[.[.[.[.[.[.[.[.(.`.~.~.~.H.U.U.U.U.H.U.U.U.U.U.I.U.U.U.U.U.H.U.U.U.U.U.U.U.G.H.D.D.~.^./.).[.[.[.[.[.[.[.[.[.",
"[.[.[.[.[.[.[.[.[.[.[.[.[.'.'./.(.~.~.~.~.~.~.~.~.~.~.~.~.~.~.~.~.~.~.~.~.~.~.~.~.~.~.~.U.U.W././.).'.[.[.[.[.[.[.[.[.[.",
"[.[.[.[.[.[.[.[.[.[.[.[.[.'.].'.'.).).).).).).)._._.).).).).).).).).).).).).`.(.).).).).).).).'.'.].'.[.[.[.[.[.[.[.[.[.",
"[.[.[.[.[.[.[.[.[.[.[.[.[.].].'.'.).).).).).).).).(.).).).).).).).).).).).).).).).).).).).).).'.).'.].[.[.[.[.[.[.[.[.[.",
"[.[.[.[.[.[.[.[.[.[.[.[.[.[.[.[.[.[.[.[.[.[.[.[.[.[.[.[.[.[.[.[.[.[.[.[.[.[.[.[.[.[.[.[.[.[.[.[.[.[.[.[.[.[.[.[.[.[.[.[.",
"[.[.[.[.[.[.[.[.[.[.[.[.[.[.[.[.[.[.[.[.[.[.[.[.[.[.[.[.[.[.[.[.[.[.[.[.[.[.[.[.[.[.[.[.[.[.[.[.[.[.[.[.[.[.[.[.[.[.[.[.",
"[.[.[.[.[.[.[.[.[.[.[.[.[.[.[.[.[.[.[.[.[.[.[.[.[.[.[.[.[.[.[.[.[.[.[.[.[.[.[.[.[.[.[.[.[.[.[.[.[.[.[.[.[.[.[.[.[.[.[.[.",
"[.[.[.[.[.[.[.[.[.[.[.[.[.[.[.[.[.[.[.[.[.[.[.[.[.[.[.[.[.[.[.[.[.[.[.[.[.[.[.[.[.[.[.[.[.[.[.[.[.[.[.[.[.[.[.[.[.[.[.[."
};
