/* XPM */
static char * h_xpm[] = {
"64 65 568 2",
"  	c None",
". 	c #FEFEFE",
"+ 	c #FFFEFF",
"@ 	c #FFFFFE",
"# 	c #FFFFFF",
"$ 	c #FEFFFE",
"% 	c #FEFEFD",
"& 	c #FDFEFC",
"* 	c #FAFDFD",
"= 	c #E5F3F4",
"- 	c #E2F2F3",
"; 	c #F5FAFA",
"> 	c #E2F1F3",
", 	c #CAE7EA",
"' 	c #AEDDE1",
") 	c #8AD1D8",
"! 	c #67C8CF",
"~ 	c #5ABFBE",
"{ 	c #60C3C8",
"] 	c #E9F5F6",
"^ 	c #CEE9EC",
"/ 	c #CFEAEC",
"( 	c #D5ECEF",
"_ 	c #D7EDF0",
": 	c #DDF0F2",
"< 	c #EDF7F8",
"[ 	c #F0F8F9",
"} 	c #F4FAFB",
"| 	c #FBFDFD",
"1 	c #F3FAFA",
"2 	c #DCEFF0",
"3 	c #C5E5E8",
"4 	c #A7DADF",
"5 	c #83CFD6",
"6 	c #63C6CC",
"7 	c #58BDBB",
"8 	c #4DB4A8",
"9 	c #3EAA8F",
"0 	c #2B9F72",
"a 	c #07954C",
"b 	c #009245",
"c 	c #54BAB4",
"d 	c #DEF1F2",
"e 	c #D3EBEE",
"f 	c #5CC0C0",
"g 	c #4DB4A9",
"h 	c #50B6AD",
"i 	c #51B8AF",
"j 	c #54BAB3",
"k 	c #59BDBB",
"l 	c #5BBFBF",
"m 	c #5CC1C2",
"n 	c #5FC3C6",
"o 	c #62C5CA",
"p 	c #64C6CD",
"q 	c #69C8D0",
"r 	c #70CAD3",
"s 	c #85D0D7",
"t 	c #EAF5F6",
"u 	c #F9F9FA",
"v 	c #FDFEFE",
"w 	c #DAEEF0",
"x 	c #BEE3E6",
"y 	c #A1D8DD",
"z 	c #78CDD4",
"A 	c #61C4C9",
"B 	c #56BBB7",
"C 	c #49B1A2",
"D 	c #3BA78A",
"E 	c #239C69",
"F 	c #059449",
"G 	c #02893E",
"H 	c #02833A",
"I 	c #009345",
"J 	c #D9EEF0",
"K 	c #CDE9EC",
"L 	c #4DB4A7",
"M 	c #019345",
"N 	c #069449",
"O 	c #0D743A",
"P 	c #105F32",
"Q 	c #4EA7A6",
"R 	c #CDE9EB",
"S 	c #ECF6F7",
"T 	c #AFDDE1",
"U 	c #5DC1C3",
"V 	c #46AF9D",
"W 	c #37A685",
"X 	c #1E9A61",
"Y 	c #019346",
"Z 	c #016020",
"` 	c #005514",
" .	c #01712D",
"..	c #51B7AE",
"+.	c #D5ECEE",
"@.	c #CBE8EB",
"#.	c #4CB3A7",
"$.	c #01722E",
"%.	c #499E9B",
"&.	c #C7E6E9",
"*.	c #FDFDFD",
"=.	c #BDE2E5",
"-.	c #7CC9C8",
";.	c #BECB9F",
">.	c #BCBE6E",
",.	c #01863C",
"'.	c #027A33",
").	c #4EB5AA",
"!.	c #D1EAED",
"~.	c #C7E5E9",
"{.	c #48B0A0",
"].	c #017530",
"^.	c #449892",
"/.	c #C0E4E7",
"(.	c #9BC9B7",
"_.	c #F5CD4F",
":.	c #FFCE34",
"<.	c #E5C538",
"[.	c #017832",
"}.	c #015615",
"|.	c #018B40",
"1.	c #4BB2A4",
"2.	c #C9E7EA",
"3.	c #BFE3E6",
"4.	c #43AD99",
"5.	c #007832",
"6.	c #42938D",
"7.	c #B9E0E5",
"8.	c #F1F9F9",
"9.	c #78C9CA",
"0.	c #F6CE4F",
"a.	c #F3CB36",
"b.	c #017D36",
"c.	c #01833A",
"d.	c #49B0A0",
"e.	c #C2E4E8",
"f.	c #B8E0E4",
"g.	c #41AB94",
"h.	c #017933",
"i.	c #3A8A7E",
"j.	c #ADDCE1",
"k.	c #D4ECEE",
"l.	c #ADC9AC",
"m.	c #FFCE35",
"n.	c #FECE34",
"o.	c #2E9744",
"p.	c #018D41",
"q.	c #009244",
"r.	c #02712D",
"s.	c #015E1D",
"t.	c #018F42",
"u.	c #45AE9C",
"v.	c #BFE3E7",
"w.	c #B5DFE3",
"x.	c #3FAA91",
"y.	c #017B35",
"z.	c #368477",
"A.	c #A1D8DE",
"B.	c #D0EAEC",
"C.	c #B4CAA7",
"D.	c #6C9F43",
"E.	c #018A3F",
"F.	c #016D2A",
"G.	c #019043",
"H.	c #009144",
"I.	c #43AD97",
"J.	c #BCE2E6",
"K.	c #FDFEFD",
"L.	c #B1DEE2",
"M.	c #3CA98C",
"N.	c #017E36",
"O.	c #338071",
"P.	c #9DD6DC",
"Q.	c #FAFBFB",
"R.	c #84C8C3",
"S.	c #FCCE3C",
"T.	c #85A541",
"U.	c #009344",
"V.	c #41AB93",
"W.	c #B6E0E4",
"X.	c #ABDCE0",
"Y.	c #38A787",
"Z.	c #018038",
"`.	c #2C7763",
" +	c #90D3D9",
".+	c #FEFFFF",
"++	c #A2D9DE",
"@+	c #B9CAA3",
"#+	c #FECE36",
"$+	c #A5AD3F",
"%+	c #01893F",
"&+	c #016725",
"*+	c #017731",
"=+	c #3DA88D",
"-+	c #B2DEE2",
";+	c #FAF9FA",
">+	c #A3D9DF",
",+	c #36A583",
"'+	c #018239",
")+	c #226E52",
"!+	c #85CFD7",
"~+	c #F7FBFB",
"{+	c #9AD6DB",
"]+	c #98C9B9",
"^+	c #D8CC85",
"/+	c #ECCD5D",
"(+	c #ADB452",
"_+	c #018C40",
":+	c #016926",
"<+	c #36A584",
"[+	c #A7DBE0",
"}+	c #9DD6DD",
"|+	c #33A37E",
"1+	c #01843B",
"2+	c #126135",
"3+	c #79CDD5",
"4+	c #C3E5E8",
"5+	c #74C8CA",
"6+	c #BDCA9F",
"7+	c #E1CD76",
"8+	c #BCB954",
"9+	c #015D1C",
"0+	c #32A37D",
"a+	c #9FD8DE",
"b+	c #96D5DA",
"c+	c #2FA178",
"d+	c #00863D",
"e+	c #095A25",
"f+	c #6BC9D2",
"g+	c #C2E4E7",
"h+	c #92C9BC",
"i+	c #F2CD56",
"j+	c #DDC139",
"k+	c #019344",
"l+	c #016A28",
"m+	c #30A27A",
"n+	c #9BD6DC",
"o+	c #91D3D9",
"p+	c #2CA074",
"q+	c #01893E",
"r+	c #02561A",
"s+	c #61C4CA",
"t+	c #EEF7F7",
"u+	c #7AC9CA",
"v+	c #F4CD52",
"w+	c #EAC637",
"x+	c #2DA075",
"y+	c #96D4DA",
"z+	c #FBFBFB",
"A+	c #8DD2D9",
"B+	c #2B9F71",
"C+	c #008B40",
"D+	c #60C0C7",
"E+	c #F2F9FA",
"F+	c #BCCAA1",
"G+	c #F7CB35",
"H+	c #0E9345",
"I+	c #279D6D",
"J+	c #89D1D8",
"K+	c #8BD1D8",
"L+	c #2A9E70",
"M+	c #5EBDC3",
"N+	c #EFF8F9",
"O+	c #B0DDE2",
"P+	c #D4CC88",
"Q+	c #409844",
"R+	c #219B65",
"S+	c #7FCED5",
"T+	c #82CFD6",
"U+	c #1D9A60",
"V+	c #018E42",
"W+	c #5BB8BD",
"X+	c #EAF5F7",
"Y+	c #B9E1E5",
"Z+	c #CACB95",
"`+	c #77A142",
" @	c #18995C",
".@	c #79CDD4",
"+@	c #EDF7F7",
"@@	c #6DC9D2",
"#@	c #0D9650",
"$@	c #018F43",
"%@	c #57B3B6",
"&@	c #E3F2F4",
"*@	c #DEF0F2",
"=@	c #90C9BD",
"-@	c #FDCE37",
";@	c #90A741",
">@	c #0D9652",
",@	c #A3D9DE",
"'@	c #84CFD6",
")@	c #68C8CF",
"!@	c #55BAB5",
"~@	c #4AB2A4",
"{@	c #029346",
"]@	c #019144",
"^@	c #005615",
"/@	c #52ADAD",
"(@	c #DBEFF1",
"_@	c #9FD7DD",
":@	c #B9CBA2",
"<@	c #A7AE3E",
"[@	c #027530",
"}@	c #01883E",
"|@	c #04944A",
"1@	c #4EB5A9",
"2@	c #43AE98",
"3@	c #37A684",
"4@	c #239C68",
"5@	c #0A944D",
"6@	c #005716",
"7@	c #51A9AA",
"8@	c #9AD6DC",
"9@	c #9AC9B8",
"0@	c #DECC7B",
"a@	c #FBCE3F",
"b@	c #C0B73D",
"c@	c #016624",
"d@	c #008239",
"e@	c #005A19",
"f@	c #4DA4A2",
"g@	c #FBFBFC",
"h@	c #7AC8C8",
"i@	c #D3CC88",
"j@	c #FCCE3A",
"k@	c #CDBB3B",
"l@	c #018C41",
"m@	c #019245",
"n@	c #016F2C",
"o@	c #015A1A",
"p@	c #005E1C",
"q@	c #C4E5E8",
"r@	c #FFFEFE",
"s@	c #E3F2F3",
"t@	c #7FC8C7",
"u@	c #F1CD5B",
"v@	c #DEC239",
"w@	c #015716",
"x@	c #026C29",
"y@	c #016120",
"z@	c #469994",
"A@	c #FBFCFC",
"B@	c #9DD7DC",
"C@	c #D6CC85",
"D@	c #EEC836",
"E@	c #017C35",
"F@	c #016523",
"G@	c #42948D",
"H@	c #BAE1E5",
"I@	c #FCFEFE",
"J@	c #6DC9CF",
"K@	c #FBCE40",
"L@	c #FBCD34",
"M@	c #1C9445",
"N@	c #015514",
"O@	c #008F42",
"P@	c #016826",
"Q@	c #3D8D84",
"R@	c #B0DDE1",
"S@	c #F9FDFD",
"T@	c #6CC8CA",
"U@	c #529A44",
"V@	c #017F37",
"W@	c #017C36",
"X@	c #348474",
"Y@	c #A4D9DF",
"Z@	c #ECCD61",
"`@	c #7CA341",
" #	c #015F1E",
".#	c #015D1D",
"+#	c #016B29",
"@#	c #327E6E",
"##	c #9CD7DC",
"$#	c #FBFCFB",
"%#	c #A9CAAE",
"&#	c #FECE35",
"*#	c #99AA40",
"=#	c #015A19",
"-#	c #016927",
";#	c #016E2B",
">#	c #2C7863",
",#	c #92D3DA",
"'#	c #FCFCFC",
")#	c #FAFCFD",
"!#	c #95D4DA",
"~#	c #F8CE44",
"{#	c #ABAF3F",
"]#	c #017B34",
"^#	c #005B1A",
"/#	c #018E41",
"(#	c #236E54",
"_#	c #83CFD7",
":#	c #F8FBFC",
"<#	c #B0DEE3",
"[#	c #7BC8C9",
"}#	c #B6CAA5",
"|#	c #CFCB90",
"1#	c #D1CB8E",
"2#	c #94B681",
"3#	c #019244",
"4#	c #01732F",
"5#	c #015717",
"6#	c #017430",
"7#	c #196540",
"8#	c #79CCD4",
"9#	c #EEF7F8",
"0#	c #C9E7E9",
"a#	c #B5DFE4",
"b#	c #53B8B2",
"c#	c #017732",
"d#	c #01712C",
"e#	c #018139",
"f#	c #017531",
"g#	c #005918",
"h#	c #015817",
"i#	c #095C27",
"j#	c #70CBD3",
"k#	c #E6F3F5",
"l#	c #59BEBC",
"m#	c #015C1C",
"n#	c #005513",
"o#	c #FCFDFD",
"p#	c #008C40",
"q#	c #009143",
"r#	c #0F5E30",
"s#	c #2F7B69",
"t#	c #2B9870",
"u#	c #5FBFC5",
"v#	c #FCFEFD",
"w#	c #6BC9D0",
"x#	c #0A954E",
"y#	c #17633C",
"z#	c #338070",
"A#	c #449791",
"B#	c #52ABAB",
"C#	c #5CBABF",
"D#	c #6DC9D1",
"E#	c #92D4DA",
"F#	c #80CED6",
"G#	c #3BA88B",
"H#	c #017E37",
"I#	c #5DBCC2",
"J#	c #EFF8F8",
"K#	c #239C66",
"L#	c #317E6C",
"M#	c #6CC9D1",
"N#	c #9BD6DD",
"O#	c #D4EBEE",
"P#	c #E8F4F6",
"Q#	c #3BA98B",
"R#	c #018138",
"S#	c #5BB9BD",
"T#	c #30A279",
"U#	c #307D6B",
"V#	c #B2DEE3",
"W#	c #3DA98D",
"X#	c #59B4B8",
"Y#	c #2F7A67",
"Z#	c #96D5DB",
"`#	c #B1DEE3",
" $	c #53AEAF",
".$	c #DCEFF1",
"+$	c #45AE9B",
"@$	c #2E7865",
"#$	c #94D4DB",
"$$	c #F4F5F5",
"%$	c #00863C",
"&$	c #50AAAA",
"*$	c #D2EAEE",
"=$	c #4DB5A9",
"-$	c #2B7460",
";$	c #91D2D9",
">$	c #FCFCFD",
",$	c #E7E8E9",
"'$	c #B4DEE3",
")$	c #00893E",
"!$	c #4EA4A4",
"~$	c #D2EBEE",
"{$	c #FBFBFA",
"]$	c #DDEFF1",
"^$	c #55BBB6",
"/$	c #1E6B49",
"($	c #E9E9EB",
"_$	c #3EAA90",
":$	c #008B3F",
"<$	c #489D98",
"[$	c #C5E6E9",
"}$	c #5BBFC0",
"|$	c #196641",
"1$	c #7FCFD6",
"2$	c #EAEAEC",
"3$	c #40AA93",
"4$	c #008D41",
"5$	c #459894",
"6$	c #BEE2E6",
"7$	c #61C5CA",
"8$	c #146139",
"9$	c #71CBD3",
"0$	c #ECEDEF",
"a$	c #008E42",
"b$	c #42958D",
"c$	c #B9E1E4",
"d$	c #71CAD3",
"e$	c #0F9653",
"f$	c #115F33",
"g$	c #6FCAD2",
"h$	c #EBECEE",
"i$	c #40A792",
"j$	c #3F8F87",
"k$	c #AFDDE2",
"l$	c #8AD1D9",
"m$	c #288B66",
"n$	c #016B28",
"o$	c #105E31",
"p$	c #E9E9ED",
"q$	c #40928A",
"r$	c #368577",
"s$	c #9ED7DD",
"t$	c #0D5B2C",
"u$	c #69C8CF",
"v$	c #FEFEFF",
"w$	c #ECECEF",
"x$	c #307F6D",
"y$	c #9DD7DD",
"z$	c #B6DFE4",
"A$	c #41928B",
"B$	c #075922",
"C$	c #67C6CE",
"D$	c #EEEEF0",
"E$	c #439590",
"F$	c #2E7967",
"G$	c #4BA09D",
"H$	c #15623A",
"I$	c #17643D",
"J$	c #65C5CD",
"K$	c #F8FCFC",
"L$	c #F9FAF9",
"M$	c #C1E3E7",
"N$	c #58B3B7",
"O$	c #499E9A",
"P$	c #479A97",
"Q$	c #449792",
"R$	c #41948E",
"S$	c #40918A",
"T$	c #408F87",
"U$	c #3C8A80",
"V$	c #348373",
"W$	c #2E7A67",
"X$	c #2C7764",
"Y$	c #247055",
"Z$	c #1F6A4D",
"`$	c #2B7763",
" %	c #78CCD3",
".%	c #6EC9D1",
"+%	c #6DCAD1",
"@%	c #D3EBED",
"#%	c #BEE3E7",
"$%	c #B4DFE3",
"%%	c #ACDBE1",
"&%	c #98D5DB",
"*%	c #8AD1D7",
"=%	c #7ACDD4",
"-%	c #70CAD1",
";%	c #B3DFE3",
">%	c #FCFCFB",
",%	c #FAFAFB",
"'%	c #F9FAFA",
")%	c #FDFDFE",
"                                                                                                                                ",
"                                                                                                                                ",
"                                                                                                                                ",
"                                                                                                                                ",
"                                                                                                                                ",
"                                                                                                                                ",
"                                            . + . @ # # $ %               @ . &                                                 ",
"                                  . . # # # # # # # # # # # %         . # # # # # # # # # # # # # # # .                         ",
"                        . @ # @ # # # # # # # # # * = - $ # #       . # # # # # # # # # # # # # # # # # # %                     ",
"                  . # # # # # # # # # @ ; > , ' ) ! ~ { ] # #       # # * ^ / ( _ : = ] < [ } | @ $ . # # #                     ",
"              % # # # # # # $ 1 2 3 4 5 6 7 8 9 0 a b c d # #       # # e f g h i j k l m n o p q r s t # # u                   ",
"            % # # # v w x y z A B C D E F G H I I I I i J # #     . # # K L I I I I I I I I M N O P Q R # # %                   ",
"          . # # # S T U V W X Y I I I I b Z `  .I I I ..+.# #     # # # @.#.I I I I I I I I I I $.` %.&.# # *.                  ",
"        . # # v =.-.;.>.I I I I I I I I ,.` ` ` '.I I ).!.# # u   # # # ~.{.I I I I I I I I I I ].` ^./.# # %                   ",
"        . # # x (._.:.<.I I I I I I I I [.` ` ` }.|.I 1.2.# # #   # # # 3.4.I I I I I I I I I I 5.` 6.7.# # v                   ",
"        # # 8.9.0.:.:.a.I I I I I I I I b.` ` ` ` c.I d.e.# # $   # # # f.g.I I I I I I I I I I h.` i.j.# # .                   ",
"        # # k.l.m.:.:.n.o.I I I I I p.q.q.r.}.` s.t.I u.v.# # *.  # # # w.x.I I I I I I I I I I y.` z.A.# # .                   ",
"      . # # B.C.:.:.:.:.D.I I I I E.}.F.I I G.E.H.I I I.J.# # K.  # # # L.M.I I I I I I I I I I N.` O.P.@ # Q.                  ",
"        # # ] R.S.:.:.:.T.I I I I y.` }.U.I I I I I I V.W.# # #   # # # X.Y.I I I I I I I I I I Z.` `. +.+# .+                  ",
"        . # # ++@+#+:.:.$+I I I I %+&+*+I I I I I I I =+-+# # ;+  @ # # >+,+I I I I I I I I I I '+` )+!+@ # #                   ",
"        . # # ~+{+]+^+/+(+I I I I I I I _+:+*+I I I I <+[+# # .   @ # # }+|+I I I I I I I I I I 1+` 2+3+# # #                   ",
"        . # # . 4+5+6+7+8+I I I I I I I ].` 9+M I I I 0+a+# # @   # # # b+c+I I I I I I I I I I d+` e+f+@ # #                   ",
"        @ # # g+h+i+:.:.j+k+I I I I I I E.l+y.I I I I m+n+# # .   # # # o+p+I I I I I I I I I I q+` r+s+* # #                   ",
"        # # t+u+v+:.:.:.w+I I I I I I I I I I I I I I x+y+# # z+  . # # A+B+I I I I I I I I I I C+` ` D+E+# #                   ",
"      % # # 4+F+:.:.:.:.G+H+I I I I I I I I I I I I I I+J+# # # # # # # K+L+I I I I I I I I I I p.` ` M+N+# @                   ",
"      % # # O+P+:.:.:.:.n.Q+I I I I I I I I I I I I I R+S+# # # # # # # T+U+I I I I I I I I I I V+` ` W+X+# #                   ",
"      % # # Y+Z+:.:.:.:.n.`+I I I I I I I I I I I I I  @.@# .+. * +@w &.@@#@I I I I I I I I I I $@` ` %@&@# #                   ",
"      . # # *@=@-@:.:.:.:.;@I I I I I I I I G. .[.I I >@@@Y+,@'@)@U !@~@x.{@I I I I I I I I I I ]@^@` /@(@# #                   ",
"        # # $ _@:@#+:.:.:.<@I I I I I I I I [@` ` }@I |@1@2@3@4@5@I I I I I I I I I I I I I I I I 6@` 7@+.# # *.                ",
"        . # # ~+8@9@0@a@:.b@I I I I I I I I c@` ` d@I I I I I I I I I I I I I I I I I I I I I I I e@` f@^ # # g@                ",
"          # # # R h@i@j@:.k@I I I I I l@m@I n@` o@p.I I I I I I I I I I I I I I I I I I I I I I I p@` %.q@# # r@                ",
"        r@# # s@t@u@:.:.:.v@I I I I p.w@x@I H.'+p.I I I I I I I I I I I I I I I I I I I I I I I I y@` z@v.# # A@                ",
"        . # # B@C@:.:.:.:.D@I I I I E@` ` V+I I I I I I I I I I I I I I I I I I I I I I I I I I I F@` G@H@# # .                 ",
"        @ # I@J@K@:.:.:.:.L@M@I I I ].` N@O@I I I I I I I I I I I I I I I I I I I I I I I I I I I P@` Q@R@# # .                 ",
"        # # S@T@:.:.:.:.:.:.U@I I I V@` W@I I I I I I I I I I I I I I I I I I I I I I I I I I I I l+` X@Y@# # .                 ",
"        . # $ S+Z@:.:.:.:.:.`@I I I m@q+I I ,. #.#}@I I I I I I I I I I I I I I I I I I I I I I I +#` @#### # $#                ",
"        . # # e.%#&#:.:.:.:.*#I I I I I I V+=#` ` -#I I I I I I I I I I I I I I I I I I I I I I I ;#` >#,## # '#                ",
"          # # )#!#C.~#:.:.:.{#I I I I I I ]#` ` ` ^#M I I I I I I I I I ]@/#I I I I I I I I I I I $.` (#_## # #                 ",
"          . # # :#<#[#}#|#1#2#I I I I I I n@` ` ` s.I I I I I 3#E.V@4#F@5#:+I I I I I I I I I I I 6#` 7#8#. # #                 ",
"            $ # # # 9#0#a#B@b#I I I I I I c#` ` ` d#I _+e#f#&+g#N@` ` ` ` h#3#I I I I I I I I I I *+` i#j#v # #                 ",
"              . # # # # # k#l#I I I I I I G.P@N@m#_+_+` ` ` ` ` ` ` ` ` ` ` q+I I I I I I I I I I h.` n#p o## #                 ",
"                *.@ # # # } { U.I I I I I I I p#q#I _+` ` ` ` ` ` ` ` r#s#G@t#I I I I I I I I I I E@` ` u#1 # #                 ",
"                    *.@ # v#w#x#I I I I I I I I I I _+` ` n#y#z#A#B#C#D#E#F#G#I I I I I I I I I I H#` ` I#J## #                 ",
"                      @ # # 5 K#I I I I I I I I I I _+` ` L#M#N#f.O#P#I@@ L.Q#I I I I I I I I I I R#` ` S#t # #                 ",
"                      @ # # 8@T#I I I I I I I I I I _+` ` U#n+# # # # # # V#W#I I I I I I I I I I '+` ` X#- # #                 ",
"                      # # # R@9 I I I I I I I I I I _+` ` Y#Z## # # # # # `#9 I I I I I I I I I I c.` `  $.$# # v               ",
"                      # # # J.+$I I I I I I I I I I _+` ` @$#$# # *.$$# # `#9 I I I I I I I I I I %$` ` &$_ # # K.              ",
"                      % # # *$=$I I I I I I I I I I _+` ` -$;$# # >$,$# # '$9 I I I I I I I I I I )$N@` !$~$# # {$              ",
"                        # # ]$^$I I I I I I I I I I _+` ` /$s $ # . ($# # a#_$I I I I I I I I I I :$` ` <$[$# # #               ",
"                        # # ] }$I I I I I I I I I I _+` ` |$1$$ # # 2$# # a#3$I I I I I I I I I I 4$` ` 5$6$# # >$              ",
"                        # # ~+7$Y I I I I I I I I I _+` ` 8$9$+ # # 0$# # a#3$I I I I I I I I I I a$` ` b$c$# # '#              ",
"                        # # K.d$e$I I I I I I I I I _+` ` f$g$@ # # h$# # a#i$_+l@p.p.V+G.]@I I I G.` ` j$k$# # #               ",
"                        # # # l$m$c#].].].6#$.$.$.$.n$` ` o$M#$ # # p$# # H@q$` ` ` ` ` ` ` ` }.h#=#` ` r$4 # # .               ",
"                        . # # s$z#` ` ` ` ` ` ` ` ` ` ` ` t$u$v$# # w$# # H@G@` ` ` ` ` ` ` ` ` ` ` ` ` x$y$# # @               ",
"                        r@# # z$A$` ` ` ` ` ` ` ` ` ` ` ` B$C$v # # D$# # H@E$` ` ` ` ` ` ` ` ` ` ` ` ` F$y+# # >$              ",
"                        r@# # e.G$H$H$H$H$H$H$H$H$H$H$H$H$I$J$K$# # L$# # M$N$O$P$Q$R$S$T$U$V$U#W$X$Y$Z$`$5 # # .               ",
"                          # # k# %.%.%.%.%.%.%.%.%.%.%.%.%+%{+v # # '## # ~+@%[$#%H@f.$%k$%%++n+&%!#*%=%-%;%# # %               ",
"                          @ # # .+.+.+.+.+.+.+.+.+.+.+.+.+.+# # # o#  . # # # # # # # # # # # # # # # # # # # # o#              ",
"                          . # # # # # # # # # # # # # # # # # # $       . # # # # # # # # # # # # # # # # # # .                 ",
"                            % . @ @ @ @ @ @ @ @ @ @ @ @ @ @ . *.          >%,%# # . K.. @ '%@ .+)%*.. @ @ . *.                  ",
"                                                                                                                                ",
"                                                                                                                                ",
"                                                                                                                                ",
"                                                                                                                                ",
"                                                                                                                                "};
