/* XPM */
static char *h[] = {
/* columns rows colors chars-per-pixel */
"64 64 215 2 ",
"   c #00621E",
".  c #026E2A",
"X  c #006A25",
"o  c #01732D",
"O  c #00782F",
"+  c #047531",
"@  c #087232",
"#  c #017C34",
"$  c #0E753B",
"%  c #0A7C3B",
"&  c #067D38",
"*  c #12733D",
"=  c #107C3D",
"-  c #147B43",
";  c #1C7A4A",
":  c #197643",
">  c #237B4D",
",  c #227748",
"<  c #2B7D54",
"1  c #267E51",
"2  c #018036",
"3  c #018439",
"4  c #018A3E",
"5  c #08853D",
"6  c #349C3F",
"7  c #439B3C",
"8  c #65AB3E",
"9  c #6FAC3D",
"0  c #70AD3F",
"q  c #078440",
"w  c #0B8544",
"e  c #018E41",
"r  c #0A8B47",
"t  c #0C8C4A",
"y  c #1A844A",
"u  c #158549",
"i  c #009345",
"p  c #0A9546",
"a  c #05944A",
"s  c #09944D",
"d  c #119543",
"f  c #1A9944",
"g  c #198E52",
"h  c #0C9652",
"j  c #149B55",
"k  c #149C5B",
"l  c #189758",
"z  c #279B43",
"x  c #369E41",
"c  c #2A865A",
"v  c #258251",
"b  c #35845D",
"n  c #1C9E61",
"m  c #368961",
"M  c #289D64",
"N  c #39996A",
"B  c #1DA167",
"V  c #23A46C",
"C  c #2DA56B",
"Z  c #24A064",
"A  c #29A772",
"S  c #2BA875",
"D  c #3EAB7A",
"F  c #38A878",
"G  c #32A76E",
"H  c #4AA341",
"J  c #40A659",
"K  c #50A540",
"L  c #7AB353",
"P  c #7BB34F",
"I  c #42986C",
"U  c #569D7C",
"Y  c #479B72",
"T  c #42AA65",
"R  c #45A97B",
"E  c #50AA79",
"W  c #73B86B",
"Q  c #86B23C",
"!  c #B0BB3A",
"~  c #C7C23B",
"^  c #D3C53C",
"/  c #F9CE3A",
"(  c #F7CE3C",
")  c #E9CA3A",
"_  c #84B242",
"`  c #8AB854",
"'  c #98BC57",
"]  c #98B94B",
"[  c #ACBC42",
"{  c #80BD73",
"}  c #82BA67",
"|  c #B9C149",
" . c #A8C15C",
".. c #80C07F",
"X. c #B5C971",
"o. c #C8C858",
"O. c #DFCF5C",
"+. c #D4C846",
"@. c #E7CC46",
"#. c #EDD04E",
"$. c #C2C967",
"%. c #D3CE6A",
"&. c #CBCF75",
"*. c #ECDA7D",
"=. c #5D9F81",
"-. c #47AC84",
";. c #5BA484",
":. c #58A989",
">. c #4EB487",
",. c #4BB488",
"<. c #53B58C",
"1. c #57B68C",
"2. c #5BBB95",
"3. c #5CBD98",
"4. c #62A385",
"5. c #6CAC8B",
"6. c #63AA8A",
"7. c #72AB8C",
"8. c #7AAE94",
"9. c #72AD95",
"0. c #6DB193",
"q. c #62BE9A",
"w. c #65BB97",
"e. c #74B295",
"r. c #7EB49A",
"t. c #7AB99D",
"y. c #78B59A",
"u. c #69AB93",
"i. c #7CBBA2",
"p. c #6AC19D",
"a. c #70C19F",
"s. c #6AC2A3",
"d. c #74C4A6",
"f. c #7AC5AA",
"g. c #76C7AA",
"h. c #7DCBB1",
"j. c #84BAA2",
"k. c #88BCA5",
"l. c #85C385",
"z. c #B1CF8D",
"x. c #88C2AA",
"c. c #93C3AC",
"v. c #95C8AA",
"b. c #84CDB4",
"n. c #8ACCB7",
"m. c #99C7B2",
"M. c #9BCBBB",
"N. c #95CAB7",
"B. c #94D3BE",
"V. c #8CD0BB",
"C. c #B5D6A9",
"Z. c #A3CCBC",
"A. c #A6CDBB",
"S. c #B8DBB7",
"D. c #ABD3B0",
"F. c #D9DC9C",
"G. c #EBDD88",
"H. c #E2DE96",
"J. c #DBDFA6",
"K. c #C9DDB4",
"L. c #D6E3BB",
"P. c #D8E1B0",
"I. c #E1E6BA",
"U. c #8DD2C0",
"Y. c #95D4C3",
"T. c #9BD5C4",
"R. c #ABD1C1",
"E. c #ABD5CC",
"W. c #A6D9CB",
"Q. c #B3D4C4",
"!. c #B3D8CC",
"~. c #ACDED3",
"^. c #A3DCD3",
"/. c #B7DBD3",
"(. c #BCE3DB",
"). c #B5E2D7",
"_. c #BFE0C5",
"`. c #B8E5E6",
"'. c #C1DBCE",
"]. c #C9DED4",
"[. c #C4DDD4",
"{. c #DAE7C8",
"}. c #C4E4DD",
"|. c #CCE2DA",
" X c #DBEBD9",
".X c #C7E2C8",
"XX c #E3EBCB",
"oX c #E3E9C4",
"OX c #E6EDD5",
"+X c #E4EEDA",
"@X c #E9F0DC",
"#X c #CCE9E3",
"$X c #C6E8E3",
"%X c #D4EAE3",
"&X c #DCEBE4",
"*X c #DAEEE9",
"=X c #D4EEED",
"-X c #DCF1EC",
";X c #DEF0E6",
":X c #DBF1F3",
">X c #E1EFEA",
",X c #E2EFE1",
"<X c #EAF2E3",
"1X c #E4F2ED",
"2X c #EBF4EC",
"3X c #F2F7EC",
"4X c #E4F4F4",
"5X c #EBF5F3",
"6X c #EBF8F8",
"7X c #ECF8F6",
"8X c #F2F9F5",
"9X c #F4FBFA",
"0X c #FEFEFE",
"qX c #F8FBF6",
"wX c None",
/* pixels */
"wXwXwXwXwXwXwXwXwXwXwXwXwXwXwXwXwXwXwXwXwXwXwXwXwXwXwXwXwXwXwXwXwXwXwXwXwXwXwXwXwXwXwXwXwXwXwXwXwXwXwXwXwXwXwXwXwXwXwXwXwXwXwXwX",
"wXwXwXwXwXwXwXwXwXwXwXwXwXwXwXwXwXwXwXwXwXwXwXwXwXwXwXwXwXwXwXwXwXwXwXwXwXwXwXwXwXwXwXwXwXwXwXwXwXwXwXwXwXwXwXwXwXwXwXwXwXwXwXwX",
"wXwXwXwXwXwXwXwXwXwXwXwXwXwXwXwXwXwXwXwXwXwXwXwXwXwXwXwXwXwXwXwXwXwXwXwXwXwXwXwXwXwXwXwXwXwXwXwXwXwXwXwXwXwXwXwXwXwXwXwXwXwXwXwX",
"wXwXwXwXwXwXwXwXwXwXwXwXwXwXwXwXwXwXwXwXwXwXwXwXwXwXwXwXwXwXwXwXwXwXwXwXwXwXwXwXwXwXwXwXwXwXwXwXwXwXwXwXwXwXwXwXwXwXwXwXwXwXwXwX",
"wXwXwXwXwXwXwXwXwXwXwXwXwXwXwXwXwXwXwXwXwXwXwXwX0X0X0X0XwXwXwXwXwXwXwXwXwXwXwXwXwXwXwXwXwXwXwXwXwXwXwXwXwXwXwXwXwXwXwXwXwXwXwXwX",
"wXwXwXwXwXwXwXwXwXwXwXwXwXwXwXwXwXwXwXwXwXwXwX0X0X0X0X0XwXwXwXwXwXwXwXwXwXwXwXwXwXwXwXwXwXwXwXwXwXwXwXwXwXwXwXwXwXwXwXwXwXwXwXwX",
"wXwXwXwXwXwXwXwXwXwXwXwXwXwXwXwXwXwXwXwXwXwXwX1X1X4X1X4XwXwXwXwXwXwXwXwXwXwXwXwXwXwXwXwXwXwXwXwXwXwXwXwXwXwXwXwXwXwXwXwXwXwXwXwX",
"wXwXwXwXwXwXwXwXwXwXwXwXwXwXwXwXwXwXwXwXwXwXwX#X$X#X%X%XwXwXwXwXwXwXwXwXwXwXwXwXwXwXwXwXwXwXwXwXwXwXwXwXwXwXwXwXwXwXwXwXwXwXwXwX",
"wXwXwXwXwXwXwXwXwXwXwXwXwXwXwXwXwXwXwXwXwXwXwXY.B.B.T.W.wXwXwXwXwXwXwXwXwXwXwXwXwXwXwXwXwXwXwXwXwXwXwXwXwXwXwXwXwXwXwXwXwXwXwXwX",
"wXwXwXwXwXwXwXwXwX9X6X6X6X-X*X$X}.~.~.B.V.b.b.q.2.2.2.h.4X4X9X9X0X0X9X9X~.Y.Y.U.V.h.b.b.b.n.V.Y.Y.E.E.*X1X9X0XwXwXwXwXwXwXwXwXwX",
"wXwXwXwXwXwXwXwX2X3X2X-X X}.).W.W.T.Y.x.g.s.w.3.<.<.<.g.:X4X9X9X0X0X9X9X^.V.U.h.h.s.s.g.d.g.f.V.n.Y.T.|.*XqX0XwXwXwXwXwXwXwXwXwX",
"wXwXwXwXwXwX<X<XOXXX{.K.S.b.b.g.g.p.p.;.;.E R R -.F -.w.:X:X9X9X0X0X7X7XU.g.s.s.3.>.>.1.1.1.1.w.0.i.j.'.|.5X0XwXwXwXwXwXwXwXwXwX",
"wXwXwXwXwXwX<X<XOXL.L.S.D.p.p.3.w.<.<.R Y N N N N S N 3.:X:X9X9X0X0X7X5Xn.p.q.3.>.R D ,.D R R 1.1.e.e.!.[.5X0XwXwXwXwXwXwXwXwXwX",
"wXwXwXwX6X6X<XOXP.&.X...W a p i i i i # o X   + w w t Y %X*X6X6X0X0X5X1Xq.F S S k i a i i i i l g m m m.S.1X0XwXwXwXwXwXwXwXwXwX",
"wXwXwXwX6X6X,XOXJ.&.X...W p p i i i i # o X   + w w t R #X=X6X6X0X0X2X1Xp.D S S k i i i i i i f g m m c.Q.>X0XwXwXwXwXwXwXwXwXwX",
"wXwXwXwX6X:X+XXXH.O.| ` L p p 4 4 3 2 # # + + - t t h D $X=X6X6X0X0X4X1Xq.S S S k i i i i i a j g c c m.Q.1X0XwXwXwXwXwXwXwXwXwX",
"wXwXwXwX4X4X+XXXH.O.o.` L p p 4 4 4 3 2 2 O o 5 t s h D |.#X6X6X0X0X1X1Xp.D S A k i i i i i i g g c c c.Q.<X0XwXwXwXwXwXwXwXwXwX",
"wXwXwXwX-X-XXXoX*./ ^ Q P d d 4 5 2 2 3 2 3 4 5 a h h D #X#X4X4X0X0X5X1X3.S A V k i i i i i i g u c c c.Q.1X0XwXwXwXwXwXwXwXwXwX",
"wXwXwXwX-X-X XI.*./ ^ Q 8 4 p 4 5 3 2 3 3 4 4 p a h p D #X#X6X4X0X0X5X1X3.S A V k i i i i i i t u c c m.Q.1X0XwXwXwXwXwXwXwXwXwX",
"wXwXwXwX1X-XOXXXH.O.o.] P 6 6 4 4 4 5 3 3 3 3 4 a s s F #X#X4X4X0X0X5X1X3.S V V j i i i i i i t t c c c.A.>X0XwXwXwXwXwXwXwXwXwX",
"wXwXwXwX1X1XOXXXH.O.o.' L z z d d 4 4 3 3 2 2 4 a s s D $X#X:X6X0X0X4X1X2.V V B k i i i i i i t r c c c.A.<X0XwXwXwXwXwXwXwXwXwX",
"wXwXwXwX7X5X+XOXJ.%.$.' L z z d f 4 i 4 3 2 2 4 a p s D $X=X6X:X0X0X1X1X2.A V B j i i i i i i p p y v k.A.>X0XwXwXwXwXwXwXwXwXwX",
"wXwXwXwX7X7X<XOXJ.%.X.' ` z z f f i i 4 3 2 2 5 p s s D $X=X:X6X0X0X5X1X2.A B B k i i i i i i p p ; ; k.A.>X0XwXwXwXwXwXwXwXwXwX",
"wXwXwXwX2X2XOXoXG.#.o.' ` x x z z i i 4 4 4 4 4 i a a G (.(.=X=X-X-X#X}.,.V B B h i i i i i i r r ; - k.A.>X0XwXwXwXwXwXwXwXwXwX",
"wXwXwXwX<X<XXXI.*./ @. .` x x 6 6 i i i i i 4 i i i a G ~.~.#X=X$X(.~.~.,.B B k h i i i i i i w w - : j.Z.&X9XwXwXwXwXwXwXwXwXwX",
"wXwXwXwX,X,XXXL.*./ ^ | ] x x 6 6 i i i i 4 4 4 i i i G ^.~.`.$X(.(.W.~.D B k k h i i i i i i w w - - j.Z.&X9XwXwXwXwXwXwXwXwXwX",
"wXwXwXwX X%XXXI.*./ ) ! ! x H 6 x i i i i 4 4 4 i i i C ^.^.`.`.~.~.T.T.D B k k h i i i i i i w w - - j.Z.%X9XwXwXwXwXwXwXwXwXwX",
"wXwXwXwX;X,XXXI.G.@.@.| ! K H 6 x 4 i i 4 4 4 4 i 4 i Z h.h.B.B.h.b.g.g.S k k j s i i i i i i w w - * j.Z.%X9XwXwXwXwXwXwXwXwXwX",
"wXwXwXwX8X8X<XOXF.%.$. .' 0 8 6 x 4 4 4 3 2 2 3 4 4 4 i j j j j k k k k s a a i i i i i i i i q 5 $ $ r.m.|.6XwXwXwXwXwXwXwXwXwX",
"wXwXwXwX8XqX@X@XJ.%.$. .' 8 8 6 x 4 4 3 3 2 2 2 3 3 4 4 j j j j j j j j s a i i i i i i i i i q q $ * t.m.#X6XwXwXwXwXwXwXwXwXwX",
"wXwXwXwX9X9X<X@XJ.&.$. .' 8 8 6 x 4 4 3 3 2 2 2 3 3 4 4 i i i i i i i i i i i i i i i i i a a q q $ $ r.m.#X6XwXwXwXwXwXwXwXwXwX",
"wXwXwXwX9X9X<X@XJ.&.$. . .8 8 6 x 4 4 3 3 2 O 2 3 4 4 4 i i i i i i i i i i i i i i i i i a a q q $ % r.m.%X6XwXwXwXwXwXwXwXwXwX",
"wXwXwXwX:X:X+XoXG.( ) ^ ~ Q Q 7 7 2 3 3 3 2 3 4 4 4 4 4 i i a a i i i i i i i i i i i i i i i 2 2 @ @ e.c.}.4XwXwXwXwXwXwXwXwXwX",
"wXwXwXwX:X:X XoXG.( ) ~ ~ Q Q 7 7 5 3 3 3 3 3 3 4 4 4 e i i i a i i i i i i i i i i i i i i i 2 2 + @ e.c.}.4XwXwXwXwXwXwXwXwXwX",
"wXwXwXwX4X4X+XXXG.#.@.+.| 0 Q H 7 5 3 2 2 2 2 3 3 4 e e i i p p i 4 i 4 4 i i i i i i i i i i 2 2 @ @ e.c.}.4XwXwXwXwXwXwXwXwXwX",
"wXwXwXwX4X4X+XXXG.#.+.+.+.Q 0 7 7 3 3 2 2 2 2 2 2 4 e i i i p p 4 i 4 i i 4 i i i i i i i i i 2 2 @ @ 8.c.$X4XwXwXwXwXwXwXwXwXwX",
"wXwXwXwX9X9X3X3XoXH.F.z.z.} W J J p 4 3 2 o o o # o # # 3 3 5 3 + # & & 3 2 3 3 4 i i i i i i 2 2 o o 0.x.}.:XwXwXwXwXwXwXwXwXwX",
"wXwXwXwX0X0XqX3X@XL.K.C.z...{ J J i i 3 # o o o o o o o # # # # o o o + # # 2 2 4 i i i i i i 2 2 o o 0.x.(.:XwXwXwXwXwXwXwXwXwX",
"wXwXwXwX0X0XqX8X@X{.L.C.C.....J J i i 3 # + o o + o o o & & & & = = = % w w 5 5 e i i i i i i # 2 . . 0.k.}.:XwXwXwXwXwXwXwXwXwX",
"wXwXwXwX0X0XqX8X<XXX.XK.C.l.l.D T p i 3 # & @ + + o o O % % & % y y y y y t t r e i i i i i i 2 2 o . 0.x.(.:XwXwXwXwXwXwXwXwXwX",
"wXwXwXwXwX0X9XqX2X<X+X.X.Xv.v.T R a i 4 4 4 4 2 & # + + - - : = I I I I M M M l l e a i i i i 2 # . . u.x./.=XwXwXwXwXwXwXwXwXwX",
"wXwXwXwXwXwXwXwXwX0X9X-X#XY.Y.>.>.a i i i i i 4 3 3 # & ; ; , , 7.9.0.5.:.-.R F n e i i i i i # 2 . . 5.k./.$XwXwXwXwXwXwXwXwXwX",
"wXwXwXwXwXwXwXwXwX0X7X*X#XW.T.>.>.a i i i i i 4 3 # # % ; > > , j.j.t.r.<.-.-.D M i i i i i i 2 2 o . 5.k.~.$XwXwXwXwXwXwXwXwXwX",
"wXwXwXwXwXwXwXwXwX0X8X*X|.~.~.,.<.p i i i i 4 4 3 3 & - < < < < Z.A.M.m.w.2.-.-.M i i i i i i 2 # o o 5.j.!.#XwXwXwXwXwXwXwXwXwX",
"wXwXwXwXwXwXwXwXwX0X8X%X#X~.~.,.<.a i i i 4 i 4 3 & & u m < < m Q.Q.R.R.i.2.<.-.V i i i i i i # 2 o o 5.j.E.#XwXwXwXwXwXwXwXwXwX",
"wXwXwXwXwXwXwXwXwXwXwXwXwX(.).3.3.p i i i i i 4 3 3 # y 4.4.y.9.0X0X5X5XB.s.q.1.C i i i i i i 2 2 + o 6.t.E.}.wXwXwXwXwXwXwXwXwX",
"wXwXwXwXwXwXwXwXwXwXwXwXwX(.).3.3.i i i i i i 4 3 # & y 4.4.9.9.0X0X5X5XB.d.q.1.A i i i i i i 2 2 O o 6.t.E.}.wXwXwXwXwXwXwXwXwX",
"wXwXwXwXwXwXwXwXwXwXwXwXwX#X}.p.p.a i i 4 i i 4 # # & ; =.=.4.4.9X9X4X4XV.d.3.<.C e e e 4 4 4 # # o O U e.M./.wXwXwXwXwXwXwXwXwX",
"wXwXwXwXwXwXwXwXwXwXwXwXwX$X}.p.s.s i e e i i 4 2 # # y =.=.=.4.9X9X4X4XV.i.w.<.C e e i e e e # # O o U e.Z./.wXwXwXwXwXwXwXwXwX",
"wXwXwXwXwXwXwXwXwXwXwXwXwX%X#Xp.w.a i e e e e 3 2 # + y Y U =.=.0X0X4X4XN.i.w.<.M 3 3 3 3 3 2 # # X . E 9.T./.wXwXwXwXwXwXwXwXwX",
"wXwXwXwXwXwXwXwXwXwXwXwXwX%X#Xp.w.p e e 4 e e 3 2 # + - =.U =.=.0X0X4X4XM.i.2.<.M 5 3 3 2 3 2 # # . . U 0.M./.wXwXwXwXwXwXwXwXwX",
"wXwXwXwXwXwXwXwXwXwXwXwXwX-X-Xt.i.y y w w 5 5 % $ $ * > =.=.;.;.9X9X5X5XT.k.i.u.I y - - - u - $ $ * = U 9.M.~.wXwXwXwXwXwXwXwXwX",
"wXwXwXwXwXwXwXwXwXwXwXwXwX4X:Xt.r.> y w w % % $ $ * * 1 U 4.;.;.9X9X5X5XR.k.i.u.Y y ; ; ; ; - - $ * * 6.8.M.E.wXwXwXwXwXwXwXwXwX",
"wXwXwXwXwXwXwXwXwXwXwXwXwX6X:Xj.j.1 > - - $ $ * * * * 1 =.4.6.6.9X9X5X5XE.n.i.y.U > 1 > < , > : * , * 6.e.M.E.wXwXwXwXwXwXwXwXwX",
"wXwXwXwXwXwXwXwXwXwXwXwXwX6X4Xj.j.< > : : $ $ * : * : 1 ;.;.u.u.9X9X5X5XE.k.k.k.U < < < > , , , , , ; U e.M.E.wXwXwXwXwXwXwXwXwX",
"wXwXwXwXwXwXwXwXwXwXwXwXwXwX4XA.A.j.8.7.7.5.5.7.7.7.7.j.Z.Z.Z.R.wXwXwXwX[./.!.Q.k.8.j.r.j.8.8.8.j.7.8.A.A.|.|.wXwXwXwXwXwXwXwXwX",
"wXwXwXwXwXwXwXwXwXwXwXwXwXwXwX|.|.].]./.'.'.'.'.'.'.'.].*X&X&X&XwXwXwXwX>X1X*X%X|.|.].].].].].].].].].&X&X1X6XwXwXwXwXwXwXwXwXwX",
"wXwXwXwXwXwXwXwXwXwXwXwXwXwXwX|.|.%X&X X X&X&X%X X%X%X&X2X2X5X2XwXwXwXwX5X5X5X4X>X&X,X&X&X,X>X&X&X,X&X1X5X5X8XwXwXwXwXwXwXwXwXwX",
"wXwXwXwXwXwXwXwXwXwXwXwXwXwXwXwXwX9X9X0X0X0X0X0X9X9X9X9X0X0X0X0XwXwXwXwX0X0X0X0X0X0X0X0X0X0X0X0X0X0X0X0X0X0X0XwXwXwXwXwXwXwXwXwX",
"wXwXwXwXwXwXwXwXwXwXwXwXwXwXwXwXwX9X9X0X0X0X0X9X9X9X9X9X0X0X0X0XwXwXwXwX0X0X0X0X0X0X0X0X0X0X0X0X0X0X0X0X0X0X0XwXwXwXwXwXwXwXwXwX",
"wXwXwXwXwXwXwXwXwXwXwXwXwXwXwXwXwXwXwXwXwXwXwXwXwXwXwXwXwXwXwXwXwXwXwXwXwXwXwXwXwXwXwXwXwXwXwXwXwXwXwXwXwXwXwXwXwXwXwXwXwXwXwXwX",
"wXwXwXwXwXwXwXwXwXwXwXwXwXwXwXwXwXwXwXwXwXwXwXwXwXwXwXwXwXwXwXwXwXwXwXwXwXwXwXwXwXwXwXwXwXwXwXwXwXwXwXwXwXwXwXwXwXwXwXwXwXwXwXwX",
"wXwXwXwXwXwXwXwXwXwXwXwXwXwXwXwXwXwXwXwXwXwXwXwXwXwXwXwXwXwXwXwXwXwXwXwXwXwXwXwXwXwXwXwXwXwXwXwXwXwXwXwXwXwXwXwXwXwXwXwXwXwXwXwX",
"wXwXwXwXwXwXwXwXwXwXwXwXwXwXwXwXwXwXwXwXwXwXwXwXwXwXwXwXwXwXwXwXwXwXwXwXwXwXwXwXwXwXwXwXwXwXwXwXwXwXwXwXwXwXwXwXwXwXwXwXwXwXwXwX"
};
