/* XPM */
static char *i[] = {
/* columns rows colors chars-per-pixel */
"51 64 85 1 ",
"  c #FEA70F",
". c #FEA614",
"X c #FFAD15",
"o c #FDA519",
"O c #FDAB1A",
"+ c #FFB117",
"@ c #FEB31C",
"# c #FFB91F",
"$ c #FDAB26",
"% c #FDAD2B",
"& c #FEB423",
"* c #FFBC23",
"= c #FEB62E",
"- c #FEBE29",
"; c #FDAE33",
": c #FEB334",
"> c #FEBC33",
", c #FDB23B",
"< c #FDBA3C",
"1 c #FFC126",
"2 c #FFC42A",
"3 c #FFC82E",
"4 c #FEC432",
"5 c #FFCC32",
"6 c #FFC33C",
"7 c #FFCE3A",
"8 c #FDB644",
"9 c #FEBB45",
"0 c #FDB548",
"q c #FDBA4C",
"w c #FDBC54",
"e c #FDBD5D",
"r c #FDBE61",
"t c #F8BC74",
"y c #FEC344",
"u c #FFCA46",
"i c #FEC24A",
"p c #FFCD4B",
"a c #FFD14D",
"s c #FEC454",
"d c #FFCD55",
"f c #FBC15D",
"g c #FFD155",
"h c #FFD258",
"j c #FEC565",
"k c #FDC569",
"l c #FECD6E",
"z c #FDC673",
"x c #FDC975",
"c c #FDC779",
"v c #FDC87D",
"b c #FED275",
"n c #FED77F",
"m c #FED97E",
"M c #FDCD83",
"N c #FBCC8C",
"B c #FCD584",
"V c #FDD18D",
"C c #F9CC95",
"Z c #FDD293",
"A c #FDD897",
"S c #FED59A",
"D c #FDD99D",
"F c #FBD4A6",
"G c #FDDAA4",
"H c #FBD7AC",
"J c #FDDCAD",
"K c #FDDDB0",
"L c #FCDFBB",
"P c #FEE1B2",
"I c #FDE4BD",
"U c #FDE5C3",
"Y c #FEE9C3",
"T c #FCE6C9",
"R c #FDEACD",
"E c #FDECD3",
"W c #FDEEDB",
"Q c #FEF0D5",
"! c #FEF1DD",
"~ c #FEF2E3",
"^ c #FEF6EB",
"/ c #FFF8EE",
"( c #FEFAF3",
") c #FFFFFD",
"_ c None",
/* pixels */
"___________________________________________________",
"___________________________________________________",
"___________________________________________________",
"___________________________________________________",
"_____________)))()((///~~~~WWWWW___________________",
"_____________))()()((//~~!~!WWWW___________________",
"___________^^//~!Q!QQQQRUYYUIUUY___________________",
"___________^~~~EQRRYYIIPPPPPJJKK___________________",
"__________^WELLFDBBBnnmbllllklMB___________________",
"_________)~TLCNfe<<4444-*&&&O%qj((((_______________",
"_________(~RLCNef<<4444-@&&@O%qj^/(/_______________",
"_________/~RICCff<<4443*@@@@O$9f~W~~_______________",
"_________^~RUCCef<<4353*@@@@X&9fWWWW_______________",
"_________WWWW______5535*@@@+X&8iTTTT_______________",
"_________WWWW______35331@@+++@<sTTTT_______________",
"_________/!UU______33331#**#&&<iJJJJ_______________",
"_________/!UU______3353-***&@&6iJKJJ_______________",
"_________)~PGee____111121331-16iCZCZ_______________",
"_________)^PDee____111132331*-6iZZZZ_______________",
"_________^!UI______553335333136yccSS/)_____________",
"_________^WTT______553353333236yzcSS()_____________",
"_________WWEE______5355555333366rrSD()_____________",
"_________WWWW______5555533332566eeSD()_____________",
"_________^~TUt_____555533333334600VC()_____________",
"_________(~UKtt____575533223334>;;MM/)_____________",
"_________)~LHtt____555533322334>;;MM/)_____________",
"_________)^LHtt____7555322223322%%vv/)_____________",
"_________)/TLtt____5533322223322%$cz^)_____________",
"_________))/(______1222112223311OXjjE~_____________",
"_________))((______1123212223321OXljE~_____________",
"_________))))______2112212233332OOjjR~_____________",
"_________))))______1211122223322XOjjE~_____________",
"_________)/ETFF____333322111221#&@ssGP_____________",
"_________)/ETFF____3333211112211@&ssGP_____________",
"_________)/WRJJ____3533221112221@&ssGJ_____________",
"_________)/WEKJ____5533211112111#@ssGJ_____________",
"_____________^^IIAAau552**#*2111**iiMN_____________",
"_____________)(IYAAga752###*1111*1iyzv_____________",
"_____________)(IIAAga551***1221111yyzcMZ___________",
"_____________)(IIDAga5511*113312119ykzMZ___________",
"_____________)/PJADha555533333332266eeMDT__________",
"_______________DDDDha75555355555336>88ZJW)_________",
"_______________DDDDha7755555555535>488VG!)_________",
"_______________GGGGha7755555555555>>::BD!)_________",
"_______________GGGGha7755555753555>2;;vD!)_________",
"_______________GGJGha7553555555555--ooxZE(_________",
"_______________GGGGha7553355555355--OozZE(_________",
"_______________JJJGga5553332222111@&..kMI^_________",
"_______________JJJGgp5532232121111&@..kBU~_________",
"_______________JJJJdu4111-**&#+#+++X. ecJR_________",
"_______________JJJJdi3111**#+@#+++X+  exJR_________",
"_______________JKJJw9=&>><:><<<9ii9iqqBSUW_________",
"_______________KKKKw9=&:<<<<8899sdsseeZGUW_________",
"_______________KKJKw0;$:880qqwwekjzxvvGKRW_________",
"_______________PKKJw0%$,000qfeerzzcvNVKIEW_________",
"_______________EEETSNMcVVZZZSSSZ___________________",
"_______________//^~ERTTRQEEEEERR___________________",
"_______________((((~~W!~~~^^~^~~___________________",
"_______________)))))))))))))))))___________________",
"_______________)))))))))))))))))___________________",
"___________________________________________________",
"___________________________________________________",
"___________________________________________________",
"___________________________________________________"
};
