/* XPM */
static char * j_xpm[] = {
"64 64 563 2",
"  	c None",
". 	c #FFFFFF",
"+ 	c #FEFFFE",
"@ 	c #FFFFFD",
"# 	c #FFFAEB",
"$ 	c #FFEECA",
"% 	c #FFF3D4",
"& 	c #FFFDF5",
"* 	c #FFFFFE",
"= 	c #FFF9EF",
"- 	c #FAEDDB",
"; 	c #EDDBCC",
"> 	c #EDC489",
", 	c #EDD09F",
"' 	c #FAE9CC",
") 	c #FFFAF0",
"! 	c #FFFCF8",
"~ 	c #FFF3DC",
"{ 	c #FFF2DA",
"] 	c #FAEFDD",
"^ 	c #FDF0DC",
"/ 	c #FFF2D9",
"( 	c #FFF6E7",
"_ 	c #FFFBF4",
": 	c #FBE3BA",
"< 	c #E4BB93",
"[ 	c #BE9FC8",
"} 	c #BD9DC9",
"| 	c #BF9FC7",
"1 	c #E6BC90",
"2 	c #FBE4BD",
"3 	c #FFF9ED",
"4 	c #FDEDD5",
"5 	c #F6CB77",
"6 	c #F4C76F",
"7 	c #E6BE82",
"8 	c #EDC279",
"9 	c #F5C768",
"0 	c #F7D8A1",
"a 	c #FFF8ED",
"b 	c #FFFEFC",
"c 	c #FFF7EB",
"d 	c #FAF4F1",
"e 	c #F9F4F3",
"f 	c #FFF8EB",
"g 	c #FFF8EE",
"h 	c #FFFEFD",
"i 	c #FCE2B0",
"j 	c #E1BA9B",
"k 	c #BF9EC5",
"l 	c #BB9BCA",
"m 	c #C09EC5",
"n 	c #E4BC9C",
"o 	c #FCD16C",
"p 	c #EEC68A",
"q 	c #C6A3BE",
"r 	c #C2A0C2",
"s 	c #C09FC3",
"t 	c #C1A0C3",
"u 	c #C09FC2",
"v 	c #D5B0AA",
"w 	c #FBD893",
"x 	c #FEF5E7",
"y 	c #FBDA99",
"z 	c #FACF6B",
"A 	c #DEBBAB",
"B 	c #D8B7B5",
"C 	c #FACF6F",
"D 	c #FBD686",
"E 	c #FEF7EA",
"F 	c #FFFDF9",
"G 	c #FFE2AA",
"H 	c #E0BAA5",
"I 	c #BA9BCA",
"J 	c #C3A1C0",
"K 	c #CBA6B6",
"L 	c #C7A3BC",
"M 	c #BB9BC9",
"N 	c #BA9ACB",
"O 	c #C4A1BA",
"P 	c #E0B98C",
"Q 	c #F8D288",
"R 	c #D6B2AE",
"S 	c #C9A5B8",
"T 	c #C2A0C1",
"U 	c #C09EC4",
"V 	c #CCA7B2",
"W 	c #D9B49D",
"X 	c #F9DC9A",
"Y 	c #FFF8E8",
"Z 	c #FED988",
"` 	c #D5AEA5",
" .	c #B89ACD",
"..	c #B99ACB",
"+.	c #BC9CC7",
"@.	c #CDA9AD",
"#.	c #F6C75A",
"$.	c #CAA6B8",
"%.	c #B899CD",
"&.	c #BA9BCB",
"*.	c #BA9ACA",
"=.	c #C7A4B9",
"-.	c #F7CC6F",
";.	c #FFF3DE",
">.	c #FFEBC8",
",.	c #FFE8BB",
"'.	c #FFE9BC",
").	c #FFE7B7",
"!.	c #FFD56A",
"~.	c #D6B1A8",
"{.	c #B79BCE",
"].	c #BA9CCC",
"^.	c #B99CCC",
"/.	c #C0A1C5",
"(.	c #D9B3A5",
"_.	c #C2A2C3",
":.	c #B99BCD",
"<.	c #C3A2C3",
"[.	c #F6CA6E",
"}.	c #FFF4DF",
"|.	c #FFFAF3",
"1.	c #FFD571",
"2.	c #FBB70F",
"3.	c #FAAE1F",
"4.	c #FAAE20",
"5.	c #FAAE21",
"6.	c #FAAF2F",
"7.	c #E1988A",
"8.	c #D087A8",
"9.	c #D188A7",
"0.	c #D088A7",
"a.	c #D188A6",
"b.	c #D490A0",
"c.	c #F6BA5C",
"d.	c #FFE4B7",
"e.	c #FFF1D4",
"f.	c #FFF0D3",
"g.	c #FFEFD2",
"h.	c #FFF7EA",
"i.	c #FFD475",
"j.	c #F5871D",
"k.	c #F15825",
"l.	c #F15C25",
"m.	c #EF5626",
"n.	c #EE5227",
"o.	c #EF5528",
"p.	c #F05B2B",
"q.	c #F15B2B",
"r.	c #F15A2B",
"s.	c #F15B2A",
"t.	c #EF5C2E",
"u.	c #ED6635",
"v.	c #F48C2E",
"w.	c #FAB235",
"x.	c #FCBE39",
"y.	c #FCBD39",
"z.	c #FBBC38",
"A.	c #F9BA35",
"B.	c #F9BA36",
"C.	c #FCC62E",
"D.	c #FEE8BD",
"E.	c #FED475",
"F.	c #F5861C",
"G.	c #F15625",
"H.	c #F15A25",
"I.	c #E93F16",
"J.	c #E42306",
"K.	c #E83B14",
"L.	c #EF5622",
"M.	c #F15B26",
"N.	c #F15F26",
"O.	c #F26526",
"P.	c #F26726",
"Q.	c #EE5E21",
"R.	c #E5420D",
"S.	c #E6400C",
"T.	c #E6440C",
"U.	c #F6AB17",
"V.	c #F15A24",
"W.	c #E83C15",
"X.	c #E31D04",
"Y.	c #E42507",
"Z.	c #E83A13",
"`.	c #EF5722",
" +	c #F15925",
".+	c #ED4E1F",
"++	c #E42207",
"@+	c #E41F05",
"#+	c #E42606",
"$+	c #F6A816",
"%+	c #E93D15",
"&+	c #E41E04",
"*+	c #E42005",
"=+	c #E83B13",
"-+	c #EF5522",
";+	c #F15B25",
">+	c #ED4F1F",
",+	c #E42307",
"'+	c #E42105",
")+	c #E42806",
"!+	c #E31C03",
"~+	c #E41F04",
"{+	c #E42609",
"]+	c #EF5321",
"^+	c #F15924",
"/+	c #ED4C1D",
"(+	c #EF5623",
"_+	c #EC4B1D",
":+	c #E94017",
"<+	c #EA4017",
"[+	c #E94319",
"}+	c #F05623",
"|+	c #F05823",
"1+	c #ED4B1C",
"2+	c #E62D0C",
"3+	c #EE5020",
"4+	c #EE5120",
"5+	c #E73310",
"6+	c #E42407",
"7+	c #F15824",
"8+	c #F15723",
"9+	c #F05824",
"0+	c #ED4D1E",
"a+	c #EB4419",
"b+	c #E7320E",
"c+	c #EA4419",
"d+	c #F15A23",
"e+	c #F05923",
"f+	c #F25A25",
"g+	c #F05421",
"h+	c #E83712",
"i+	c #E73410",
"j+	c #E6300E",
"k+	c #E42205",
"l+	c #E52507",
"m+	c #EB4318",
"n+	c #EF5221",
"o+	c #E93E16",
"p+	c #E93D14",
"q+	c #E93C14",
"r+	c #E83812",
"s+	c #E42004",
"t+	c #FED371",
"u+	c #F58413",
"v+	c #F05125",
"w+	c #F15524",
"x+	c #F15525",
"y+	c #EC471D",
"z+	c #EB411A",
"A+	c #EE4C20",
"B+	c #E41D04",
"C+	c #E31703",
"D+	c #E30B03",
"E+	c #E30903",
"F+	c #E40903",
"G+	c #E40803",
"H+	c #E41703",
"I+	c #F5A700",
"J+	c #FFE9BA",
"K+	c #FFFCF6",
"L+	c #FFE1AA",
"M+	c #F8A852",
"N+	c #F68B0D",
"O+	c #F68D18",
"P+	c #F68D16",
"Q+	c #F68D17",
"R+	c #F68C18",
"S+	c #F58216",
"T+	c #F25F0F",
"U+	c #F1551F",
"V+	c #EE5221",
"W+	c #E83912",
"X+	c #E31905",
"Y+	c #E52500",
"Z+	c #E95100",
"`+	c #ED7B00",
" @	c #ED7E00",
".@	c #EE7E00",
"+@	c #EE7F05",
"@@	c #F9C380",
"#@	c #FFF1D6",
"$@	c #FFD67F",
"%@	c #FFD782",
"&@	c #FFD882",
"*@	c #FFD682",
"=@	c #FCC981",
"-@	c #F59C7D",
";@	c #F4824F",
">@	c #F26B22",
",@	c #EF5320",
"'@	c #E52A0A",
")@	c #E64C02",
"!@	c #EC7A4F",
"~@	c #F5A87D",
"{@	c #FED381",
"]@	c #FED782",
"^@	c #FDD782",
"/@	c #FFD884",
"(@	c #FFF1DB",
"_@	c #FFFCF7",
":@	c #FFFBF7",
"<@	c #FEF7F4",
"[@	c #FED896",
"}@	c #F79714",
"|@	c #F05321",
"1@	c #E41704",
"2@	c #F19400",
"3@	c #FEDBA1",
"4@	c #FEF8F5",
"5@	c #FFDF9B",
"6@	c #F89B12",
"7@	c #F29700",
"8@	c #FFE1A7",
"9@	c #F79B12",
"0@	c #E5290A",
"a@	c #E41E05",
"b@	c #E85600",
"c@	c #F3BAA4",
"d@	c #FFFEFF",
"e@	c #FFDF9C",
"f@	c #F05723",
"g@	c #EB471B",
"h@	c #E52B0B",
"i@	c #E30000",
"j@	c #ED9170",
"k@	c #FEEBC9",
"l@	c #FFFEFB",
"m@	c #FEDF9C",
"n@	c #F79A0C",
"o@	c #E7330F",
"p@	c #E30804",
"q@	c #EE8200",
"r@	c #FED985",
"s@	c #F7F9F9",
"t@	c #FEE2A4",
"u@	c #F79E31",
"v@	c #F15623",
"w@	c #E7320F",
"x@	c #E30803",
"y@	c #EE8300",
"z@	c #FFDA88",
"A@	c #FFEFC6",
"B@	c #F7AB6F",
"C@	c #F1551D",
"D@	c #E30A03",
"E@	c #EE8100",
"F@	c #FED788",
"G@	c #F8BBAD",
"H@	c #F2560A",
"I@	c #F05724",
"J@	c #E73511",
"K@	c #E31103",
"L@	c #ED7300",
"M@	c #FCC885",
"N@	c #FFFAF5",
"O@	c #FCCFB7",
"P@	c #F67F14",
"Q@	c #E83611",
"R@	c #E41C04",
"S@	c #E63B00",
"T@	c #EF8F57",
"U@	c #FEE6B5",
"V@	c #FFFCF5",
"W@	c #FEE0B7",
"X@	c #F8A01A",
"Y@	c #EB451A",
"Z@	c #F05422",
"`@	c #E93C15",
" #	c #E30300",
".#	c #EA6C22",
"+#	c #FDD479",
"@#	c #FFFAEF",
"##	c #FFE8B7",
"$#	c #F9AC1C",
"%#	c #EA451A",
"&#	c #EA3D16",
"*#	c #E30F03",
"=#	c #EA6A01",
"-#	c #FDCE66",
";#	c #FFF9EE",
">#	c #FAAC1C",
",#	c #EE5220",
"'#	c #E72C0C",
")#	c #E42206",
"!#	c #F05522",
"~#	c #E41E03",
"{#	c #E40F03",
"]#	c #EA6B05",
"^#	c #FED068",
"/#	c #FAAB1C",
"(#	c #F05622",
"_#	c #EC4118",
":#	c #E83511",
"<#	c #ED5120",
"[#	c #F15522",
"}#	c #EC4418",
"|#	c #E6310F",
"1#	c #EA4218",
"2#	c #E52808",
"3#	c #E41303",
"4#	c #E96201",
"5#	c #FAC266",
"6#	c #FEF7EE",
"7#	c #EC491C",
"8#	c #E52607",
"9#	c #E42406",
"0#	c #E63310",
"a#	c #EF5422",
"b#	c #F05924",
"c#	c #EA4117",
"d#	c #E52B00",
"e#	c #EB755B",
"f#	c #FCECE6",
"g#	c #FFFEFE",
"h#	c #FFE6B5",
"i#	c #FAAA1C",
"j#	c #E62D0B",
"k#	c #EC4B1B",
"l#	c #F05A25",
"m#	c #EA4318",
"n#	c #E41900",
"o#	c #E7542C",
"p#	c #FBCC81",
"q#	c #FFF6E6",
"r#	c #FFEED0",
"s#	c #FFE09F",
"t#	c #FFE1A1",
"u#	c #FEE1A1",
"v#	c #FFDDA0",
"w#	c #FBBF9F",
"x#	c #F7AE9F",
"y#	c #F69C72",
"z#	c #F47C22",
"A#	c #ED4C1E",
"B#	c #EA4319",
"C#	c #E41A04",
"D#	c #E74F09",
"E#	c #FBC141",
"F#	c #FFEED1",
"G#	c #FBC17D",
"H#	c #F89D00",
"I#	c #F89E12",
"J#	c #F79E12",
"K#	c #F89F11",
"L#	c #F79A11",
"M#	c #F47402",
"N#	c #F25800",
"O#	c #F15317",
"P#	c #F15725",
"Q#	c #EF5523",
"R#	c #EC491B",
"S#	c #F25B25",
"T#	c #E41B04",
"U#	c #E7500E",
"V#	c #FBC148",
"W#	c #FFF3DF",
"X#	c #FFFDFA",
"Y#	c #FFDD94",
"Z#	c #F79600",
"`#	c #F05225",
" $	c #EC471A",
".$	c #E7500F",
"+$	c #FBC349",
"@$	c #FFDD96",
"#$	c #F79813",
"$$	c #EB4519",
"%$	c #E6480C",
"&$	c #F6AF45",
"*$	c #FDEEDE",
"=$	c #E62E0D",
"-$	c #EC4A1C",
";$	c #EA4016",
">$	c #E52D05",
",$	c #E9673A",
"'$	c #F8E2DC",
")$	c #E42608",
"!$	c #E52708",
"~$	c #E74B0D",
"{$	c #F8B646",
"]$	c #FEF0DE",
"^$	c #EE4F1F",
"/$	c #E52809",
"($	c #E41904",
"_$	c #E74F0C",
":$	c #FBC347",
"<$	c #EA4317",
"[$	c #E30F04",
"}$	c #E74F00",
"|$	c #F4A748",
"1$	c #FDE4BF",
"2$	c #FFFBF3",
"3$	c #FFDE96",
"4$	c #E30C04",
"5$	c #E75300",
"6$	c #F2A555",
"7$	c #FEE5B8",
"8$	c #F79812",
"9$	c #F05A24",
"0$	c #E52608",
"a$	c #E31904",
"b$	c #E75200",
"c$	c #F3A459",
"d$	c #FEE4B3",
"e$	c #FFFDFB",
"f$	c #FFDD95",
"g$	c #F6960D",
"h$	c #EF4F20",
"i$	c #EF5421",
"j$	c #EF5423",
"k$	c #F05521",
"l$	c #ED511E",
"m$	c #E63610",
"n$	c #E5400A",
"o$	c #F3A027",
"p$	c #FFE2A8",
"q$	c #F18D00",
"r$	c #E51F09",
"s$	c #E52C0B",
"t$	c #E62B0B",
"u$	c #E62C0B",
"v$	c #E52B0A",
"w$	c #E42906",
"x$	c #F28F20",
"y$	c #FCCB70",
"z$	c #EF8C00",
"A$	c #E42405",
"B$	c #E42706",
"C$	c #E42807",
"D$	c #E43312",
"E$	c #F6A729",
"F$	c #FFE5B4",
"G$	c #EF8B00",
"H$	c #E30001",
"I$	c #E41203",
"J$	c #E41204",
"K$	c #E41100",
"L$	c #E41F00",
"M$	c #EE7200",
"N$	c #F49C0F",
"O$	c #F6A916",
"P$	c #F6A815",
"Q$	c #F6A814",
"R$	c #F6AB2F",
"S$	c #F5BE84",
"T$	c #FCE1C0",
"U$	c #FFDC91",
"V$	c #F7AE00",
"W$	c #F19300",
"X$	c #F29500",
"Y$	c #F29400",
"Z$	c #F2982F",
"`$	c #F2AE83",
" %	c #F9CEAF",
".%	c #FEE2BC",
"+%	c #FFEABF",
"@%	c #FFF5D8",
"#%	c #FFFDF6",
"$%	c #FFE9C1",
"%%	c #FFE09E",
"&%	c #FFE1A0",
"*%	c #FFE4A9",
"=%	c #FFF4D5",
"-%	c #FFFEF7",
"                                                                                                                                ",
"                                                . . . .                                                                         ",
"                                            . . . . . . . . . . . . . . . .         +                                           ",
"                                          . . @ # $ % & . . . . . . . . . . .     . * +                                         ",
"                                        . . = - ; > , ' ) . ! ~ { ] ^ / ( . . . . . . . . . .                                   ",
"                                      . . _ : < [ } | 1 2 3 4 5 6 7 8 9 0 a b = c d e f g h . .                                 ",
"                                      * ! i j k l l l m n o p q r s t u v w x y z A B C D E * . .                               ",
"                          . . . . . . F G H t I l l l l J K L M l l l N O P Q R S T U V W X Y . .                               ",
"                        . . . . . . . F Z `  .l l l l l N ..N l l l l l +.@.#.$.%.&.&.*.=.-.;.. . . . . . . .                   ",
"                      . F >.,.'.'.'.'.).!.~.{.].].].].].].].].].].].].].^./.(._.^.].].:.<.[.}.. . . . . . . . .                 ",
"                      . |.1.2.3.4.4.4.5.6.7.8.9.9.9.9.9.9.9.9.9.9.9.9.9.9.0.8.0.a.a.a.0.b.c.d.e.f.f.f.f.f.g.h.. .               ",
"                      . |.i.j.k.l.l.l.l.l.m.n.o.p.q.q.q.q.q.q.q.q.q.q.q.q.q.q.r.q.q.s.t.u.v.w.x.y.z.A.B.B.C.D.. .               ",
"                      . |.E.F.G.H.H.H.H.H.I.J.K.L.H.H.H.H.H.H.H.H.H.H.H.H.H.H.H.H.H.H.H.M.N.O.P.P.Q.R.S.T.U.'.. .               ",
"                      . |.E.F.G.H.H.H.H.V.W.X.Y.Z.`.H.H.H.H.H.H.H.H.H.H.H.H.H.H.H.H.H.H.H.H.H. +H..+++@+#+$+'.. .               ",
"                      . |.E.F.G.H.H.H.H.H.%+&+*+Y.=+-+H.H.H.H.H.H.H.H.H.H.H.H.H.H.H.H.H.H.H.H.H.;+>+,+'+)+$+'.. .               ",
"                      . |.E.F.G.H.H.H.;+H.W.!+~+X.{+]+;+H.H.H.H.H.H.H.H.H.H.H.H.H.H.H.H.H.H.H.H.;+>+,+'+)+$+'.. .               ",
"                      . |.E.F.G.H.;+^+/+(+_+:+<+:+[+}+H.H.H.H.H.H.H.H.H.H.H.H.H.H.H.H.H.H.H.H.H.;+>+,+'+)+$+'.. .               ",
"                      . |.E.F.G.H.|+1+2+3+H.H.H.H.H.H.H.H.H.H.H.H.H.H.H.H.H.H.H.H.H.H.H.H.H.H.H.;+>+,+'+)+$+'.. .               ",
"                      . |.E.F.G.;+4+5+5+]+H.H.H.H.H.H.H.H.H.H.H.H.H.H.H.H.H.H.H.H.H.H.H.H.H.H.H.;+>+6+'+)+$+'.. .               ",
"                      . |.E.F.G.H.^+}+}+^+7+8+9+H.H.H.H.H.H.H.H.H.H.H.H.H.H.H.H.H.H.H.H.9+9+9+9+9+0+,+'+)+$+'.. .               ",
"                      . |.E.F.G.H.H.H.H.V.a+b+c+ +H.H.H.H.H.H.H.H.H.H.H.H.H.d+d+e+^+f+g+h+i+i+i+i+j+k+'+)+$+'.. .               ",
"                      . |.E.F.G.H.H.H.H.V.K.l+m+ +H.H.H.H.H.H.H.H.H.H.H.n+o+p+p+p+q+%+r+k+~+~+~+~+s+'+'+)+$+'.. .               ",
"                      . |.t+u+v+w+w+x+x+w+y+z+A+x+G. +H.H.H.H.H.H.H.H.;+0+@+&+~+~+~+B+C+D+E+E+E+E+F+G+G+H+I+J+. .               ",
"                      . K+L+M+N+O+P+Q+Q+O+O+O+O+R+S+T+U+ +H.H.H.H.H.H.;+V+W+6+'+'+X+Y+Z+`+ @ @ @ @ @ @.@+@@@#@. .               ",
"                      . * ) G $@%@%@%@%@%@%@%@&@*@=@-@;@>@ +H.H.H.H.H.H.H.,@'@*+@+)@!@~@{@%@%@]@]@]@^@]@/@(@. . .               ",
"                        . * F K+_@_@_@_@_@_@_@_@_@:@<@[@}@G.H.H.H.H.H.H.H.|@'@*+1@2@3@4@:@_@_@_@_@_@_@_@_@b . . *               ",
"                          . . . . . . . . . . . . . b 5@6@G.H.H.H.H.H.H.H.]+'@*+1@7@8@* . . . . . . . . . . . .                 ",
"                                            . . . . b 5@9@G.H.H.H.H.H.H.H.]+0@*+a@b@c@d@. . . .                                 ",
"                                                  . b e@9@G.H.H.H.H.H.H.H.f@g@h@*+i@j@k@l@. .                                   ",
"                                                    l@m@n@G.H.H.H.H.H.H.H.H.|+o@~+p@q@r@! . s@                                  ",
"                                                    b t@u@v@H.H.H.H.H.H.H.H.f@w@~+x@y@z@! . s@                                  ",
"                                                    h A@B@C@H.H.H.H.H.H.H.H.f@w@~+D@E@F@! . .                                   ",
"                                                    . F G@H@H.H.H.H.H.H.H.H.I@J@'+K@L@M@N@. .                                   ",
"                                                    . . O@P@H.H.H.H.H.H.H.H. +n+Q@R@S@T@U@V@.                                   ",
"                                                    . . W@X@;+9+Y@Z@H.H.H.H.H.H.`@~+ #.#+#@#.                                   ",
"                                                    . . ##$#f@%#0@&#]+H.H.;+H. +K.~+*#=#-#;#.                                   ",
"                                                    . . ).>#,#'#)#5+>+H.!#4+ + +K.~#{#]#^#;#. .                                 ",
"                                                    . . )./#(#_#:#<#H.[#}#|#4+9+1#2#3#4#5#6#. . .                               ",
"                            . . . . . . . . . . . . . . )./#H.9+}+^+;+7#8#9#0#a#b#c#&+d#e#f#* . .                               ",
"                          . . * h h h h h h h h h h b g#h#i#;+H. + +H.g@'+j#k#|+l#m#~+n#o#p#q#. .                               ",
"                          . . r#s#t#t#t#t#u#u#t#t#v#w#x#y#z#;+f@<+K.3+-+A#>+|+H.H.B#~+C#D#E#;.. .                               ",
"                          h F#G#H#I#I#I#I#J#J#I#K#L#M#N#O#P#Q#1#8#&+R#S#;+;+H.H.H.c+~+T#U#V#W#. .                               ",
"                          X#Y#Z#`#P#P#P#P#P#P#P#P#P# +H.H.;+3+Y.'+'+ $^+H.H.H.H.H.a+'+T#.$+$}.. . .                             ",
"                          X#@$#$G.H.H.H.H.H.H.H.H.H.H.H.H.;+3+l+'+'+ $^+H.H.H.H.H.$$)#R@%$&$*$. . .                             ",
"                          X#@$#$G.H.H.H.H.H.H.H.H.H.H.H.H.;+4+=$)#'+-$;+H.H.H.H.f@;$s+*+>$,$'$. . .                             ",
"                          X#@$#$G.H.H.H.H.H.H.H.H.H.H.H.H.H.^+3+=$)$_+;+H.H.H.9+<+!$'+R@~${$]$. . .                             ",
"                          X#@$#$G.H.H.H.H.H.H.H.H.H.H.H.H.H.H.^+4+^$}+H.H.H.e+:+/$s+'+($_$:$}.. . .                             ",
"                          X#@$#$G.H.H.H.H.H.H.H.H.H.H.H.H.H.H.H.;+;+H.H.H.f@<$2#~+'+[$}$|$1$2$. .                               ",
"                          X#3$#$G.H.H.H.H.H.H.H.H.H.H.H.H.H.H.H.;+;+;+;+H.^$/$*+'+4$5$6$7$_@. .                                 ",
"                          X#@$8$G.H.H.H.H.H.H.H.H.H.H.H.H.H.;+9$V+^$^$^$A#c#0$'+a$b$c$d$X#. .                                   ",
"                        . e$f$g$h$a#a#i$a#i$i$j$a#a#i$i$Z@g+k$l$m$!$Y.l+Y.J.'+k+n$o$p$e$. . .                                   ",
"                        . e$f$q$r$s$s$s$s$s$s$s$s$s$s$s$t$t$u$v$9#'+'+'+'+'+'+w$x$y$A@* . .                                     ",
"                        . e$f$z$D@*+*+*+*+*+*+*+*+*+*+*+*+*+*+*+'+A$B$)+)+)+C$D$E$F$V@. .                                       ",
"                        . e$f$G$H$I$I$I$I$I$I$I$I$I$I$I$I$I$J$K$L$M$N$O$P$Q$R$S$T$a . .                                         ",
"                        . e$U$V$W$X$X$X$X$X$X$X$X$X$X$X$X$X$Y$Z$`$ %.%'.'.'.+%@%#%. .                                           ",
"                        . b $%%%t#t#t#t#t#t#t#t#t#t#t#t#t#t#&%*%=%-%. . . . . . . .                                             ",
"                        . . g#h h h h h h h h h h h h h h h h h * . . . . . . . .                                               ",
"                          . . . . . . . . . . . . . . . . . . . . . . . .                                                       ",
"                            . . . . . . . . . . . . . . . .                                                                     ",
"                                                                                                                                ",
"                                                                                                                                ",
"                                                                                                                                ",
"                                                                                                                                ",
"                                                                                                                                "};
