/* XPM */
static char * j_xpm[] = {
"54 54 106 2",
"  	c None",
". 	c #FFFFFF",
"+ 	c #FDFFFC",
"@ 	c #FFF8E2",
"# 	c #FFCE34",
"$ 	c #FEE591",
"% 	c #FFFEFF",
"& 	c #FECE34",
"* 	c #BB9BC9",
"= 	c #BA9BCB",
"- 	c #BB9BCA",
"; 	c #FEFFFD",
"> 	c #FFCE32",
", 	c #E6BD6A",
"' 	c #FECF33",
") 	c #BA9BC9",
"! 	c #B99AC8",
"~ 	c #FFCE35",
"{ 	c #FECE35",
"] 	c #FDCD33",
"^ 	c #BB9BC8",
"/ 	c #FFCE36",
"( 	c #BB9BCC",
"_ 	c #BA9AC9",
": 	c #CFAB98",
"< 	c #C9A5AB",
"[ 	c #FFD961",
"} 	c #B99CCA",
"| 	c #BA9CC9",
"1 	c #FFFFFE",
"2 	c #F15A25",
"3 	c #F15924",
"4 	c #F15A24",
"5 	c #EB6136",
"6 	c #F69A2D",
"7 	c #FFCE33",
"8 	c #FDCE34",
"9 	c #E32005",
"0 	c #E42105",
"a 	c #F05A24",
"b 	c #E31F05",
"c 	c #F05B23",
"d 	c #E22006",
"e 	c #F25B24",
"f 	c #F05924",
"g 	c #F25924",
"h 	c #F15A23",
"i 	c #F05922",
"j 	c #F25925",
"k 	c #E52104",
"l 	c #E42005",
"m 	c #EA3D14",
"n 	c #E42006",
"o 	c #E52006",
"p 	c #E52005",
"q 	c #FFFBF0",
"r 	c #FFCD36",
"s 	c #FFCD34",
"t 	c #FFCD33",
"u 	c #FDC032",
"v 	c #E32004",
"w 	c #F06D1B",
"x 	c #F25A24",
"y 	c #E32006",
"z 	c #FDCD34",
"A 	c #FFCF32",
"B 	c #F1F3F3",
"C 	c #FFE390",
"D 	c #FCB72E",
"E 	c #FBA331",
"F 	c #F25B25",
"G 	c #FFE186",
"H 	c #F15B26",
"I 	c #FECE33",
"J 	c #E41F04",
"K 	c #EC3C15",
"L 	c #F05A25",
"M 	c #F25421",
"N 	c #E6320A",
"O 	c #EF541F",
"P 	c #EF5924",
"Q 	c #FFFEFE",
"R 	c #FFCE38",
"S 	c #F78028",
"T 	c #F25823",
"U 	c #FECD34",
"V 	c #F05521",
"W 	c #E52608",
"X 	c #F15923",
"Y 	c #FDFFFD",
"Z 	c #E42407",
"` 	c #F15C24",
" .	c #E41F02",
"..	c #EE4E1E",
"+.	c #E42004",
"@.	c #F15A26",
"#.	c #E5300C",
"$.	c #E22103",
"%.	c #FBB22F",
"&.	c #FEE495",
"*.	c #E32106",
"=.	c #FFCC35",
"-.	c #F8A127",
";.	c #FEECB2",
">.	c #FFF0C0",
",.	c #FFFFFD",
"                                                                                                            ",
"                                        . . . .                                                             ",
"                                    . . . . . . . . . . . . . .       . +                                   ",
"                                  . . . @ # $ . . . . . . . . . . . . . . . %                               ",
"                                . . . & * = - # ; . > # , # & . . . . . . . . .                             ",
"                                . . ' ) - - - - # # * - - - ! ~ . { ] ^ # & . . .                           ",
"                      . . . . . . / ( - - - - - _ * - - - - - : & ) - - - < [ . .                           ",
"                    . . . . . . . # } - - - - - - - - - - - - | # - - - - - ~ % . . . . . . .               ",
"                  . . ~ # # # # # # - - - - - - - - - - - - - - - - - - - - # 1 . . . . . . . .             ",
"                  . . # 2 2 2 2 2 2 2 2 2 2 2 2 2 2 2 2 2 2 2 2 2 3 2 4 2 5 6 7 # & 7 # # 8 . .             ",
"                  . . # 2 2 2 2 2 2 9 0 a 2 2 2 2 2 2 2 2 2 2 2 2 2 2 2 2 2 2 2 2 2 b 0 0 # . .             ",
"                  . . # 2 2 2 2 2 4 b 0 0 c 2 2 2 2 2 2 2 2 2 2 2 2 2 2 2 2 2 2 2 2 b 0 0 # . .             ",
"                  . . # 2 2 2 2 2 2 0 0 0 0 2 2 2 2 2 2 2 2 2 2 2 2 2 2 2 2 2 2 2 2 b 0 0 # . .             ",
"                  . . # 2 2 2 2 2 2 9 0 0 d 2 2 2 2 2 2 2 2 2 2 2 2 2 2 2 2 2 2 2 2 b 0 0 # . .             ",
"                  . . # 2 2 2 e 0 f 2 2 2 2 2 2 2 2 2 2 2 2 2 2 2 2 2 2 2 2 2 2 2 2 b 0 0 # . .             ",
"                  . . # 2 2 2 0 0 2 2 2 2 2 2 2 2 2 2 2 2 2 2 2 2 2 2 2 2 2 2 2 2 2 b 0 0 # . .             ",
"                  . . # 2 2 2 2 2 2 g 4 2 2 2 2 2 2 2 2 2 2 2 2 2 2 2 2 2 2 2 2 2 2 b 0 0 # . .             ",
"                  . . # 2 2 2 2 2 4 0 0 2 2 2 2 2 2 2 2 2 2 2 2 h h i j e k 0 0 0 0 0 0 0 # . .             ",
"                  . . # 2 2 2 2 2 4 l m 2 2 2 2 2 2 2 2 2 2 2 0 0 0 0 0 0 0 0 0 0 0 0 0 0 # . .             ",
"                  . . # 2 2 h 2 2 2 2 2 2 2 2 2 2 2 2 2 2 2 2 n 0 0 0 0 0 0 0 0 0 0 o p l # . .             ",
"                  . . q ~ r s t 7 # # # # u 4 2 2 2 2 2 2 2 2 h 0 0 0 v w s # # & 7 8 # ~ % . .             ",
"                    . . . . . . . . . . . . . # 2 2 2 2 2 2 2 x 0 0 0 # . . . . . . . . . . . 1             ",
"                      . . . . . . . . . . . . # 2 2 2 2 2 2 2 2 0 0 0 # . . . . . . . . . . .               ",
"                                      . . . . # 2 2 2 2 2 2 2 2 0 0 0 y . . . .                             ",
"                                            . & 2 2 2 2 2 2 2 2 2 0 0 l & . .                               ",
"                                            . z 4 2 2 2 2 2 2 2 4 0 0 0 A . . B                             ",
"                                            . C 2 2 2 2 2 2 2 2 2 0 0 0 # . . .                             ",
"                                            . % g 2 2 2 2 2 2 2 2 0 0 0 D . . .                             ",
"                                            . . E 2 2 2 2 2 2 2 2 F 0 0 p G . .                             ",
"                                            . . & 2 H 0 j 2 2 2 2 2 0 0 v I . .                             ",
"                                            . . # 2 0 0 J 2 2 2 2 2 0 0 0 # . .                             ",
"                                            . . # 2 K 0 L 2 M 0 2 2 0 0 0 # . . .                           ",
"                        . . . . . . . . . . . . # 2 2 3 2 2 0 0 y 2 4 0 0 N . . .                           ",
"                      . . . . . . . . . . . 1 . # 2 2 2 2 2 0 0 O 2 P 0 0 J & . .                           ",
"                      . Q R # # # # 8 # I # S 4 g 2 2 0 0 2 2 2 2 2 2 0 0 l t . .                           ",
"                      . # 2 2 2 2 2 2 2 2 2 2 2 2 2 0 0 0 T 2 2 2 2 2 0 0 0 U . . .                         ",
"                      . # 2 2 2 2 2 2 2 2 2 2 2 2 2 0 0 0 V 2 2 2 2 2 W 0 0 # % . .                         ",
"                      . # 2 2 2 2 2 2 2 2 2 2 2 2 2 0 0 0 2 2 2 2 2 X 0 0 0 l Y . .                         ",
"                      . # 2 2 2 2 2 2 2 2 2 2 2 2 2 2 l Z 2 2 2 2 2 0 0 0 0 # % . .                         ",
"                      . # 2 2 2 2 2 2 2 2 2 2 2 2 2 2 2 2 2 2 2 ` 0 0 0 0  .# . . .                         ",
"                      . # 2 2 2 2 2 2 2 2 2 2 2 2 2 2 2 2 2 2 2 0 0 0 0 v # . . .                           ",
"                      . # 2 2 2 2 2 2 2 2 2 2 2 2 2 2 2 2 2 2 ..0 0 0 +.8 . . .                             ",
"                    . . # h 2 2 4 2 h @.2 2 h 2 g x c #.0 0 0 0 0 0 $.# . . . .                             ",
"                    . . s 0 0 0 0 0 0 0 0 0 0 0 0 0 0 0 0 0 0 0 0 0 %.&.. . .                               ",
"                    . . & 0 0 0 0 0 0 0 0 0 0 0 0 0 0 0 0 0 0 0 0 *.=.. . .                                 ",
"                    . . # 0 0 0 0 0 0 0 0 0 0 0 0 0 0 0 -.# 7 # # ;.. . .                                   ",
"                    . . ~ # # # # # # # # # # # 7 # # >.,.% . . . . . .                                     ",
"                    . . . . . . . . . . . . . . . . . . . . . . . . .                                       ",
"                      . . . . . . . . . . . . . . . . . . . .                                               ",
"                        . . . . . . . . . . . . .                                                           ",
"                                                                                                            ",
"                                                                                                            ",
"                                                                                                            ",
"                                                                                                            "};
