/* XPM */
static char *l[] = {
/* columns rows colors chars-per-pixel */
"64 60 186 2 ",
"   c #F7CD35",
".  c #FDCE34",
"X  c #F4CD39",
"o  c #F8CE39",
"O  c #FDD03C",
"+  c #AFC779",
"@  c #B5CA7B",
"#  c #BBCD78",
"$  c #BCCD77",
"%  c #EDD34F",
"&  c #F8D040",
"*  c #EAD454",
"=  c #E4D55D",
"-  c #EAD65C",
";  c #DFD766",
":  c #DCD86D",
">  c #D7DA76",
",  c #DBDA74",
"<  c #D6DB79",
"1  c #DEDC7B",
"2  c #E2D764",
"3  c #E9D762",
"4  c #E9D866",
"5  c #E9DA6F",
"6  c #E8DE7F",
"7  c #3BA69E",
"8  c #3CA7A0",
"9  c #3EA8A1",
"0  c #3EABAC",
"q  c #37A7B3",
"w  c #3CAAB5",
"e  c #42ACA4",
"r  c #44AEAB",
"t  c #47B0A8",
"y  c #49B1AA",
"u  c #5AB5A8",
"i  c #42AEB4",
"p  c #41AEB9",
"a  c #4DB5B6",
"s  c #46B1BC",
"d  c #4AB4BE",
"f  c #53B9BD",
"g  c #5BBDBE",
"h  c #7DCBA6",
"j  c #7BCBAF",
"k  c #6CC6B6",
"l  c #65C2BD",
"z  c #6DC5BC",
"x  c #6EC9BE",
"c  c #76C5B6",
"v  c #7DCCB5",
"b  c #72C7BD",
"n  c #73CABB",
"m  c #7BCBBC",
"M  c #4DB6C0",
"N  c #4FB8C2",
"B  c #53BAC3",
"V  c #5ABEC4",
"C  c #59BFC8",
"Z  c #5EC2CB",
"A  c #5DC1C7",
"S  c #65C5C5",
"D  c #6BC6C1",
"F  c #6EC9C1",
"G  c #63C5CC",
"H  c #68C7C9",
"J  c #69C8CB",
"K  c #70C7C3",
"L  c #7BC7C1",
"P  c #73CAC3",
"I  c #7DCBC2",
"U  c #71CAC8",
"Y  c #65C7D0",
"T  c #B5D18D",
"R  c #B5D89F",
"E  c #B5D69A",
"W  c #81CDA9",
"Q  c #8BD0AE",
"!  c #96D0AF",
"~  c #98D1AE",
"^  c #84CCB3",
"/  c #8CCFB4",
"(  c #82CCBD",
")  c #8DCDBC",
"_  c #91CFB2",
"`  c #93CEBB",
"'  c #8ED0B7",
"]  c #94D1B3",
"[  c #9AD4BE",
"{  c #99D4B8",
"}  c #B4DAA6",
"|  c #A6D6B7",
" . c #A4D8B4",
".. c #A3D5BC",
"X. c #A5DABE",
"o. c #AADABC",
"O. c #A8D9B6",
"+. c #BADEB5",
"@. c #B4DDBA",
"#. c #B8E0B7",
"$. c #BDE2BB",
"%. c #B7E0B7",
"&. c #DADE84",
"*. c #D9DF89",
"=. c #D1DD84",
"-. c #E3DE84",
";. c #D6E08F",
":. c #DDE08D",
">. c #D1E39C",
",. c #E5E499",
"<. c #DEE4A3",
"1. c #C4E5BC",
"2. c #CEE8BD",
"3. c #D6EABA",
"4. c #DCE8B3",
"5. c #E6E8AC",
"6. c #E4E6A2",
"7. c #E6ECBC",
"8. c #E9ECBA",
"9. c #81CBC4",
"0. c #8BCEC4",
"q. c #80CFC8",
"w. c #8BD2CA",
"e. c #94D3C2",
"r. c #9ED4C3",
"t. c #96D6CD",
"y. c #8DD4D2",
"u. c #9CD8D0",
"i. c #A2D6C3",
"p. c #A5D8C1",
"a. c #ABDBC4",
"s. c #A3DBCA",
"d. c #ACDBCB",
"f. c #B3DDC3",
"g. c #B2DDCA",
"h. c #A0D9D0",
"j. c #B6E0C3",
"k. c #BAE0C4",
"l. c #B5E1CC",
"z. c #BBE2CE",
"x. c #B5E1D1",
"c. c #BEE5D3",
"v. c #BCE5DA",
"b. c #C5E4C4",
"n. c #C8E6C3",
"m. c #C3E4CC",
"M. c #C9E6C9",
"N. c #CEE9C8",
"B. c #D8EBC0",
"V. c #D2EACF",
"C. c #D9EDCF",
"Z. c #C3E6D2",
"A. c #CAE6D1",
"S. c #CCE9D6",
"D. c #C4E5D8",
"F. c #CBE7DA",
"G. c #C5E8DA",
"H. c #CBEADE",
"J. c #C7E8D6",
"K. c #D3EBD3",
"L. c #DCEED3",
"P. c #D0EBD9",
"I. c #D9EEDA",
"U. c #DDF0DD",
"Y. c #EBEFC3",
"T. c #EDF0CA",
"R. c #ECF2D4",
"E. c #ECF4DB",
"W. c #E6F3D6",
"Q. c #F0F5DB",
"!. c #D2EBE0",
"~. c #D9EFE3",
"^. c #DDF1E6",
"/. c #E5F2E3",
"(. c #EAF5E2",
"). c #E1F2E9",
"_. c #ECF6EB",
"`. c #F2F7E4",
"'. c #F4F9ED",
"]. c #F7F8E5",
"[. c #EAF6F0",
"{. c #EDF8F3",
"}. c #F7FBF3",
"|. c #F9FCF5",
" X c #FDFEFE",
".X c None",
/* pixels */
".X.X.X.X.X.X.X.X.X.X.X.X.X.X.X.X.X.X.X.X.X.X.X.X.X.X.X.X.X.X.X.X.X.X.X.X.X.X.X.X.X.X.X.X.X.X.X.X.X.X.X.X.X.X.X.X.X.X.X.X.X.X.X.X",
".X.X.X.X.X.X.X.X.X.X.X.X.X.X.X.X.X.X.X.X.X.X.X.X.X.X.X.X.X.X.X.X.X.X.X.X.X.X.X.X.X.X.X.X.X.X.X.X.X.X.X.X.X.X.X.X.X.X.X.X.X.X.X.X",
".X.X.X.X.X.X.X.X.X.X.X.X.X.X.X.X.X.X.X.X.X.X.X.X.X.X.X.X.X.X.X.X.X.X.X.X.X.X.X.X.X.X.X.X.X.X.X.X.X.X.X.X.X.X.X.X.X.X.X.X.X.X.X.X",
".X.X.X.X.X.X.X.X.X.X.X.X.X.X.X.X.X.X.X.X.X.X.X.X.X.X.X.X.X.X.X.X.X.X.X.X.X.X.X.X.X.X.X.X.X.X.X.X.X.X.X.X.X.X.X.X.X.X.X.X.X.X.X.X",
".X.X.X.X.X.X.X.X.X`.Q.T.7.>.>.} } ~ ! | o.m.m.b.n.b.b.M.K.K.K.K.}.|.|.|..X.X.X.X.X.X.X.X.X.X.X.X.X.X.X.X.X.X.X.X.X.X.X.X.X.X.X.X",
".X.X.X.X.X.X.X.X.XQ.Q.8.7.>.>.} } ~ ! | o.f.m.m.n.b.n.M.K.K.K.K.}.|.|.|..X.X.X.X.X.X.X.X.X.X.X.X.X.X.X.X.X.X.X.X.X.X.X.X.X.X.X.X",
".X.X.X.X.X.X.X.X.XR.T.8.5.;.;.R } _ _ ....a.a.f.f.f.f.j.Z.z.z.Z._._._._..X.X.X.X.X.X.X.X.X.X.X.X.X.X.X.X.X.X.X.X.X.X.X.X.X.X.X.X",
".X.X.X.X.X.X.X.X.XY.8.5.6.&.&.E E _ / ` e.r.r.i.p.p.X.p.d.d.d.d././././..X.X.X.X.X.X.X.X.X.X.X.X.X.X.X.X.X.X.X.X.X.X.X.X.X.X.X.X",
".X.X.X.X.X.X.X.X.X,.,.-.6 3 4 T T ( ( ( L L L 9.m 9.9.L 9.L 9.9.V.A.K.K..X.X.X.X.X.X.X.X.X.X.X.X.X.X.X.X.X.X.X.X.X.X.X.X.X.X.X.X",
".X.X.X.X.X.X.X.X.X: ; * % . o @ + L K V V M M d s s M M M p M p @.@.@.@..X.X.X.X.X.X.X.X.X.X.X.X.X.X.X.X.X.X.X.X.X.X.X.X.X.X.X.X",
".X.X.X.X.X.X.X.X.X, ; * * . o @ @ L L V V M M d M M M M M p p M @.@.@.@..X.X.X.X.X.X.X.X.X.X.X.X.X.X.X.X.X.X.X.X.X.X.X.X.X.X.X.X",
".X.X.X.X.X.X.X.X.X, : = * . o @ @ z D V V f M B B N M M p M M p @.@.@.@..X.X.X.X.X.X.X.X.X.X.X.X.X.X.X.X.X.X.X.X.X.X.X.X.X.X.X.X",
".X.X.X.X.X.X.X.X.X< , = * .   @ @ z z g V N N N B B N N M M p M @.@.@.@..X.X.X.X.X.X.X.X.X.X.X.X.X.X.X.X.X.X.X.X.X.X.X.X.X.X.X.X",
".X.X.X.X.X.X.X.X.X=.< ; =   X + + k l g g B N B B B B B M M M p +.+.+.+..X.X.X.X.X.X.X.X.X.X.X.X.X.X.X.X.X.X.X.X.X.X.X.X.X.X.X.X",
".X.X.X.X.X.X.X.X.X=.< ; =   X + + l l g g B N N B N B B M M M M +.+.+.+..X.X.X.X.X.X.X.X.X.X.X.X.X.X.X.X.X.X.X.X.X.X.X.X.X.X.X.X",
".X.X.X.X.X.X.X.X.X> : = * . X @ @ c c l g B N B C Z Z C p M w w +.+.+.+..X.X.X.X.X.X.X.X.X.X.X.X.X.X.X.X.X.X.X.X.X.X.X.X.X.X.X.X",
".X.X.X.X.X.X.X.X.X> : = * . o @ @ c x g g f N B C C Z V M p M w +.+.+.+..X.X.X.X.X.X.X.X.X.X.X.X.X.X.X.X.X.X.X.X.X.X.X.X.X.X.X.X",
".X.X.X.X.X.X.X.X.X: ; * * . o $ # v m g g f N C C Y Y C w w w q +.+.+.+..X.X.X.X.X.X.X.X.X.X.X.X.X.X.X.X.X.X.X.X.X.X.X.X.X.X.X.X",
".X.X.X.X.X.X.X.X.X: 2 * % . . $ $ ^ m l f f N C C Y Y C w w q q +.+.+.+..X.X.X.X.X.X.X.X.X.X.X.X.X.X.X.X.X.X.X.X.X.X.X.X.X.X.X.X",
".X.X.X.X.X.X.X.X.X, : = * . X @ @ n x l S C C A Y Y Y Z p w q q +.+.+.+..X.X.X.X.X.X.X.X.X.X.X.X.X.X.X.X.X.X.X.X.X.X.X.X.X.X.X.X",
".X.X.X.X.X.X.X.X.X, 5 - * . o @ @ b z S S A C Z Y Y Y C p i q q +.+.+.+..X.X.X.X.X.X.X.X.X.X.X.X.X.X.X.X.X.X.X.X.X.X.X.X.X.X.X.X",
".X.X.X.X.X.X.X.X.X, : = * . o @ @ b z S S S Z G Y Y Y C w w q q +.+.+.+..X.X.X.X.X.X.X.X.X.X.X.X.X.X.X.X.X.X.X.X.X.X.X.X.X.X.X.X",
".X.X.X.X.X.X.X.X.X< 5 - * . o @ @ z D S S G Y Y Y Y Y C w w q q +.+.+.+..X.X.X.X.X.X.X.X.X.X.X.X.X.X.X.X.X.X.X.X.X.X.X.X.X.X.X.X",
".X.X.X.X.X.X.X.X.X< , 4 - . o @ @ b D S H G Y Z C G C B w w q q f.b.$.b..X.X.X.X.X.X.X.X.X.X.X.X.X.X.X.X.X.X.X.X.X.X.X.X.X.X.X.X",
".X.X.X.X.X.X.X.X.X&.6 2 - . o @ @ b K H G G C C B B N M w w q q M.A.A.A..X.X.X.X.X.X.X.X.X.X.X.X.X.X.X.X.X.X.X.X.X.X.X.X.X.X.X.X",
".X.X.X.X.X.X.X.X.X&.1 4 3 . o @ @ b F H G G C C B B M M w w q q A.A.A.A..X.X.X.X.X.X.X.X.X.X.X.X.X.X.X.X.X.X.X.X.X.X.X.X.X.X.X.X",
".X.X.X.X.X.X.X.X.X;.1 4 - . o @ @ b K G G G C V B N M M w w q q P.S.S.S..X.X.X.X.X.X.X.X.X.X.X.X.X.X.X.X.X.X.X.X.X.X.X.X.X.X.X.X",
".X.X.X.X.X.X.X.X.X*.1 4 - . o @ @ K F H G G C V B B N p i w q q P.P.P.P..X.X.X.X.X.X.X.X.X.X.X.X.X.X.X.X.X.X.X.X.X.X.X.X.X.X.X.X",
".X.X.X.X.X.X.X.X.X&.1 4 - . o @ @ b D g f M M B B V C B r r e e _._././..X.X.X.X.X.X.X.X.X.X.X.X.X.X.X.X.X.X.X.X.X.X.X.X.X.X.X.X",
".X.X.X.X.X.X.X.X.X&.1 4 - . o @ @ b D f f M M M B V C B r r e e _._././..X.X.X.X.X.X.X.X.X.X.X.X.X.X.X.X.X.X.X.X.X.X.X.X.X.X.X.X",
".X.X.X.X.X.X.X.X.X:.-.5 4 O o @ @ b D f f s i M V V C B r r e e /./.(.(..X.X.X.X.X.X.X.X.X.X.X.X.X.X.X.X.X.X.X.X.X.X.X.X.X.X.X.X",
".X.X.X.X.X.X.X.X.X:.-.5 4 O & @ @ z D f f s p f V V C N r r e e /./.(.(..X.X.X.X.X.X.X.X.X.X.X.X.X.X.X.X.X.X.X.X.X.X.X.X.X.X.X.X",
".X.X.X.X.X.X.X.X.X`.Q.T.Y.6.<.| O.U U Z A B A d s s s i 9 t 9 t 3.B.3.B.L.U.K.K.n.#.#.#.#.%.@.....` ` J.!._.|..X.X.X.X.X.X.X.X.X",
".X.X.X.X.X.X.X.X.X}.'.E.R.4.4.i.X.U U Z A A A d w s w s t 9 t 9 3.3.3.3.L./.I.K.n.#.#.#.%.%.@.X...` ` D.!._.|..X.X.X.X.X.X.X.X.X",
".X.X.X.X.X.X.X.X.X}.'.E.R.7.7.p.a.U U Z Z A A d w w w 0 t t t t 2.1.1.1.S.J.J.J.k.o.o.o.p.o.X.] ` ^ ^ c.H._.}..X.X.X.X.X.X.X.X.X",
".X.X.X.X.X.X.X.X.X}.'.E.E.Y.Y.a.a.U U Z Z Z Z d w w w w y y y y $.1.$.$.Z.G.Z.c.l.X.X.X.p.X.X.] _ ^ ( z.F./.'..X.X.X.X.X.X.X.X.X",
".X.X.X.X.X.X.X.X.X.X.X.X`.].`.x.x.I P F S Z Z A A A d M g f f g e.e.e.e.y.y.y.y.q.q.q.q.I I I k k u u i.g.I.(..X.X.X.X.X.X.X.X.X",
".X.X.X.X.X.X.X.X.X.X.X.X.X X Xv.v.m m S S Z Z Z Z Z Z Z Z Z Z Z U J F U J Y Y Y Y Y Y G Y A A a a 7 7 ) i.V.R..X.X.X.X.X.X.X.X.X",
".X.X.X.X.X.X.X.X.X.X.X.X.X X Xv.v.m v x F Z Z Z Z Z Z Z Z Z Z Z J U H H G Y Y Y Y Y Y Y Y Z Z a a 7 7 ` ..V.R..X.X.X.X.X.X.X.X.X",
".X.X.X.X.X.X.X.X.X.X.X.X.X X Xv.v.v v x x Z Z Z Z Z Z Z Z Z Z Z Y Y Z G G G Y Y Y Y Y Y Y Y G a a 7 7 ` p.A.W..X.X.X.X.X.X.X.X.X",
".X.X.X.X.X.X.X.X.X.X.X.X.X X|.v.v.v h x x S Z Z Z Z Z Z Y Z Z Z Y Y Y Z Y Y Y Y Y Y Y Y Y Y Z a a e 7 0.p.K.W..X.X.X.X.X.X.X.X.X",
".X.X.X.X.X.X.X.X.X.X.X.X.X X Xc.c.W h n x J J J Y Y Z Z Y J Y Y Y Y Y Y Y Y Y Y Y Y Y Y Y Y Y f f e e e.d.I.E..X.X.X.X.X.X.X.X.X",
".X.X.X.X.X.X.X.X.X.X.X.X.X X Xc.c.W h n x J G G Y Y Z Z G Y Y Y Y Y Y Y Y Y Y Y Y Y Y Y Y Y G f f e e e.d.K.E..X.X.X.X.X.X.X.X.X",
".X.X.X.X.X.X.X.X.X.X.X.X.X X Xc.c.W h n x J Y Y Y Y Y Y Y Y Y Y Y Y Y Y Y Y Y Y Y Y Y Y Y Y G f f r 0 ) r.Z.K..X.X.X.X.X.X.X.X.X",
".X.X.X.X.X.X.X.X.X.X.X.X.X X|.c.c.W h n x J G Y Y Y Y Y Y Y Y Y Y Y Y Y Y Y Y Y Y Y Y Y Y Y Y f f r 0 0.r.m.K..X.X.X.X.X.X.X.X.X",
".X.X.X.X.X.X.X.X.X.X.X.X.X X Xc.c.h h x x J Y Y Y Y Y Y Y Y Y Y Y Y Y Y Y Y Y Y Y Y Y Y Y Y G d s q q L 0.g.m..X.X.X.X.X.X.X.X.X",
".X.X.X.X.X.X.X.X.X.X.X.X.X X Xc.c.W h x x J Y Y Y Y Y J Y Y Y Y Y Y Y Y Y Y Y Y Y Y Y Y Y Y Y d s q q L 0.g.m..X.X.X.X.X.X.X.X.X",
".X.X.X.X.X.X.X.X.X.X.X.X.X X|.c.c.W h x x J Z G S S S S S x l x S S F F P n n m n n m I q.0.q.m L c c i.a.m.K..X.X.X.X.X.X.X.X.X",
".X.X.X.X.X.X.X.X.X.X.X.X.X X Xc.c.W h n x S Z A S S S S x x x x S S x x n m m m m m m ( 9.0.0.( ( ^ ^ i.f.M.K..X.X.X.X.X.X.X.X.X",
".X.X.X.X.X.X.X.X.X.X.X.X.X X Xc.c.W h n F S Z S S x l l k k k k l l x k v ^ Q ^ Q ^ / ' ] ` e.[ [ | | b.n.V.L..X.X.X.X.X.X.X.X.X",
".X.X.X.X.X.X.X.X.X.X.X.X.X X Xc.c.W h x F A Z A S l l k k k k k l l x k Q Q Q Q Q Q Q ] ] e.r.X.p.+.+.n.N.C.W..X.X.X.X.X.X.X.X.X",
".X.X.X.X.X.X.X.X.X.X.X.X.X.X.Xm.m. .~ { [ w.w.t.u.u.h.h.s.s.s.s.h.h.s.s.l.z.x.z.a..X.X.X.X.X.X.X.X.X.X.X.X.X.X.X.X.X.X.X.X.X.X.X",
".X.X.X.X.X.X.X.X.X.X.X.X.X.X.Xb.b.#.%.%.#.o.a.z.v.G.H.G.S.S.S.S.H.H.P.~.^.).^.~.~..X.X.X.X.X.X.X.X.X.X.X.X.X.X.X.X.X.X.X.X.X.X.X",
".X.X.X.X.X.X.X.X.X.X.X.X.X.X.Xb.n.1.1.$.k.j.j.Z.H.I.~.~.I.U.I.I.^.^.).^.[.{.[.[.[..X.X.X.X.X.X.X.X.X.X.X.X.X.X.X.X.X.X.X.X.X.X.X",
".X.X.X.X.X.X.X.X.X.X.X.X.X.X.X.X.X2.2.n.n.b.1.K.(./._._.(.(.(.(.'.'.}.|. X X X X X.X.X.X.X.X.X.X.X.X.X.X.X.X.X.X.X.X.X.X.X.X.X.X",
".X.X.X.X.X.X.X.X.X.X.X.X.X.X.X.X.X2.2.n.n.1.n.K./._._._.(.(.(.(.'.'.}.}. X X X X.X.X.X.X.X.X.X.X.X.X.X.X.X.X.X.X.X.X.X.X.X.X.X.X",
".X.X.X.X.X.X.X.X.X.X.X.X.X.X.X.X.X.X.X.X.X.X.X.X.X.X.X.X.X.X.X.X.X.X.X.X.X.X.X.X.X.X.X.X.X.X.X.X.X.X.X.X.X.X.X.X.X.X.X.X.X.X.X.X",
".X.X.X.X.X.X.X.X.X.X.X.X.X.X.X.X.X.X.X.X.X.X.X.X.X.X.X.X.X.X.X.X.X.X.X.X.X.X.X.X.X.X.X.X.X.X.X.X.X.X.X.X.X.X.X.X.X.X.X.X.X.X.X.X",
".X.X.X.X.X.X.X.X.X.X.X.X.X.X.X.X.X.X.X.X.X.X.X.X.X.X.X.X.X.X.X.X.X.X.X.X.X.X.X.X.X.X.X.X.X.X.X.X.X.X.X.X.X.X.X.X.X.X.X.X.X.X.X.X",
".X.X.X.X.X.X.X.X.X.X.X.X.X.X.X.X.X.X.X.X.X.X.X.X.X.X.X.X.X.X.X.X.X.X.X.X.X.X.X.X.X.X.X.X.X.X.X.X.X.X.X.X.X.X.X.X.X.X.X.X.X.X.X.X"
};
