/* XPM */
static char * l_xpm[] = {
"51 48 128 2",
"  	c None",
". 	c #FFFFFF",
"+ 	c #FEFFFE",
"@ 	c #8CC63F",
"# 	c #8CC53D",
"$ 	c #8BC63E",
"% 	c #E1EFCD",
"& 	c #FEFFFF",
"* 	c #8CC63E",
"= 	c #8CC540",
"- 	c #8BC63F",
"; 	c #8AC64D",
"> 	c #62C7CD",
", 	c #289DAB",
"' 	c #299DAA",
") 	c #31A0A0",
"! 	c #8BC73F",
"~ 	c #8AC63F",
"{ 	c #91CA49",
"] 	c #FFFDFE",
"^ 	c #FFFEFE",
"/ 	c #8CC640",
"( 	c #FFCE34",
"_ 	c #FFCD33",
": 	c #65C7D0",
"< 	c #63C8CF",
"[ 	c #65C8CF",
"} 	c #66C8D1",
"| 	c #4DB7C1",
"1 	c #289DA9",
"2 	c #289DAA",
"3 	c #57B078",
"4 	c #8BC53E",
"5 	c #FFFFFE",
"6 	c #65C7CF",
"7 	c #289EA9",
"8 	c #55B079",
"9 	c #8DC541",
"0 	c #FFCE33",
"a 	c #299EAA",
"b 	c #85C444",
"c 	c #FFCD34",
"d 	c #8CC63D",
"e 	c #89C740",
"f 	c #FECE33",
"g 	c #FFCC34",
"h 	c #61C5CE",
"i 	c #8EC63F",
"j 	c #8CC53F",
"k 	c #8DC540",
"l 	c #F7CD34",
"m 	c #4CB6C1",
"n 	c #C0CA3A",
"o 	c #65C8D0",
"p 	c #64C7CE",
"q 	c #90C53F",
"r 	c #FFCE36",
"s 	c #64C7D0",
"t 	c #65C8CE",
"u 	c #36A7B5",
"v 	c #FFFDFF",
"w 	c #8BC63D",
"x 	c #289CA9",
"y 	c #465372",
"z 	c #C9CB39",
"A 	c #2DA1AD",
"B 	c #0B1946",
"C 	c #0C1946",
"D 	c #FECE34",
"E 	c #8DC63E",
"F 	c #0B1847",
"G 	c #B3DA83",
"H 	c #8DC640",
"I 	c #31A4AF",
"J 	c #66C8D0",
"K 	c #8DC53D",
"L 	c #289EAA",
"M 	c #C0E097",
"N 	c #49B4BE",
"O 	c #F9FCF6",
"P 	c #64C6CF",
"Q 	c #64C8CF",
"R 	c #37A29B",
"S 	c #FFFFFD",
"T 	c #64C8D0",
"U 	c #67B865",
"V 	c #FFFEFF",
"W 	c #8DC741",
"X 	c #CEE5AF",
"Y 	c #8DC641",
"Z 	c #5DC3CC",
"` 	c #64C9CF",
" .	c #8BC73D",
"..	c #B8DD89",
"+.	c #279DA9",
"@.	c #65C8D1",
"#.	c #92C849",
"$.	c #8DC63F",
"%.	c #8CC43F",
"&.	c #68C7C1",
"*.	c #41AEBA",
"=.	c #4BB6C0",
"-.	c #8BC540",
";.	c #78C786",
">.	c #66C7CF",
",.	c #98CD55",
"'.	c #6CC7B5",
").	c #7BC879",
"!.	c #299DAB",
"~.	c #5BBFC8",
"{.	c #8AC640",
"].	c #FEFEFD",
"^.	c #289DA8",
"/.	c #FEFEFF",
"(.	c #BCDF92",
"_.	c #40AFB8",
":.	c #289CAA",
"<.	c #73BB5B",
"[.	c #8CC73E",
"}.	c #8DC53F",
"|.	c #2EA0A3",
"1.	c #96CB4F",
"2.	c #8CC541",
"3.	c #48B3BE",
"4.	c #71BC59",
"5.	c #E1F1CD",
"6.	c #96CC51",
"7.	c #C1C4D0",
"                                                                                                      ",
"                                                                                                      ",
"                      . . . . . . .                                                                   ",
"                . . . . . . . . . . . . . . . . . . .                                                 ",
"              . . . . + @ # $ % & . . . . . . . . . . . .                                             ",
"            . . + * = - ; > , ' ) - ! * * * ~ { + ] . . . .                                           ",
"            . ^ / ( ( ( _ : : : : : < : [ } | 1 2 3 4 5 . .                                           ",
"          . . * ( ( ( ( ( : : : : 6 ' 7 : : : : ' ' 8 ^ . .                                           ",
"          . . 9 ( ( ( ( 0 : : : : ' ' ' a : : : ' ' b & . .                                           ",
"          . . @ ( ( ( ( c : : : : ' ' ' ' : : : ' ' d . . .                                           ",
"          . . e f ( ( ( g : : : : h ' ' ' : : : ' ' i . . .                                           ",
"            . . j k 0 ( l : [ ' m : : : : : : 6 ' ' @ . . .                                           ",
"            . . * n ( ( ( : o ' 2 : : : : : : p ' ' * . . .                                           ",
"          . . q r ( ( ( ( : : : : s t : : : : u ' ' * . . v                                           ",
"          . 5 w ( ( ( ( ( : : : : 1 ' o : : : x ' ' * . . y                                           ",
"          . . z ( ( ( ( ( : : : : A ' : : : : 1 ' ' * . . B                                           ",
"          . . * ( ( ( ( ( : : : : : : : : : : ' ' ' * . . C                                           ",
"          . . j D ( ( ( ( : : : : : : : : : : ' ' ' E . . F                                           ",
"          . . . $ ( ( ( ( : : : : : : : : : : x ' ' = . .                                             ",
"            . . G H ( ( ( : : : : : : I J : : ' ' ' K . .                                             ",
"            . & * ( ( ( ( : : : : : : ' ' : : ' ' L M . .                                             ",
"          . . = ( ( ( ( ( : : : : : N ' ' : : ' ' ' O . .                                             ",
"          . . * ( ( ( ( ( : : : 1 P : 2 Q : : ' ' R S . .                                             ",
"          . . d ( ( ( ( ( : : T ' 2 : : : : : ' ' U . . .                                             ",
"            . V - ( ( ( ( : : ' ' 2 : : : : : ' ' W S . .                     . . .                   ",
"            . . X $ ( ( ( : : o 2 Q : : [ : : ' ' $ . . .   . . . . . . . . . . . . .                 ",
"              . . & Y * * : : : : : Z ' ' ` : ' '  .. . . . . . . . . . . . 5 V ..V . .               ",
"                . . . . & : : : : : ' ' ' +.@.' ' @ . . . . 5 & #.$.* * * %.- ' 1 5 . .               ",
"                  . . . & &.: : : : ' ' ' *.=.' ' * * * -.@ ;.>.Q : : : : : 2 ' ' ,.. .               ",
"                      . . '.: : : : x ' ' J : : : : : : : : : : : : : : : : ' ' ' * . .               ",
"                      . . ).: : : : : 2 @.: : : : : : : : : : : : : : : : : !.' ' * . .               ",
"                      . + $ : : : : : : : : : : : : : : : : : : : : : : : : 2 ' ' @ . .               ",
"                      . . = : : : : : : : : : : : : : : : : : : : : : : : : ~.' ' d . . v             ",
"                      . . {.: : : : : : : : : : : : : : : : : : : : : : : : : ' ' $ ].. .             ",
"                      . . * : : : : : : : : : : : : : : : : : : : : : : : : : ' ' H + . .             ",
"                      . S * : : : : : : : : : : : : : : : : : : : : : : : : : ' ' ^./.. .             ",
"                      . . * : : : : : : : : : : : : : : : : : : : : : : : : : x ' ' (.. .             ",
"                      . . = : : : : : : : : : : : : : : : : : : : : : : : : : L ' ' * . .             ",
"                      . . d : : : : : : : : : : : : : : : : : : : : : : : : : ' ' ' * . .             ",
"                      . . = : : : : : : : : : : : : : : : : : : : : _.2 :.<.[.j $.* @ . .             ",
"                      . . }.: : : : : : : : : : : h ' :.|.d = = = * * 1.. . . . . . . . .             ",
"                      . . 2.: : : 3.2 , 4.* @ $. .* * 5.. . V . . . . . . . . . . . . .               ",
"                        . * @ H * * 6.V + + . . . . . . . . . . . . . . . . . .                       ",
"                        . . . . . . . . . . . . . . . . . . . .                                       ",
"                        . . . . . . . . . . .                                                         ",
"                          . . 7.                                                                      ",
"                                                                                                      ",
"                                                                                                      "};
