/* XPM */
static char * l_xpm[] = {
"64 60 566 2",
"  	c None",
". 	c #FFFFFF",
"+ 	c #FEFEFD",
"@ 	c #F5F9F2",
"# 	c #F3F8EF",
"$ 	c #F5F9F1",
"% 	c #FBFDF9",
"& 	c #FEFFFE",
"* 	c #FDFEFC",
"= 	c #FCFDFB",
"- 	c #F3F8F0",
"; 	c #B7D89A",
"> 	c #A1CE78",
", 	c #A0CE7A",
"' 	c #B4D798",
") 	c #E1EED4",
"! 	c #F6FAF5",
"~ 	c #FBFDFC",
"{ 	c #FDFEFD",
"] 	c #D4E7C6",
"^ 	c #B7D89B",
"/ 	c #B9D99E",
"( 	c #B3D796",
"_ 	c #90C95F",
": 	c #76C593",
"< 	c #60B9A3",
"[ 	c #62AE9B",
"} 	c #86BAB4",
"| 	c #97C2C0",
"1 	c #AFD2AC",
"2 	c #BADA9C",
"3 	c #B9DA9D",
"4 	c #B9DA9C",
"5 	c #C3DFAB",
"6 	c #F3F9EF",
"7 	c #FBFCFA",
"8 	c #D7E9CA",
"9 	c #CDD277",
"0 	c #CEC81D",
"a 	c #CEC829",
"b 	c #CEC92C",
"c 	c #CDC947",
"d 	c #95C8AF",
"e 	c #55BECB",
"f 	c #4AB2BF",
"g 	c #46B2BD",
"h 	c #47B3B8",
"i 	c #67BEA5",
"j 	c #76C699",
"k 	c #75C79A",
"l 	c #76C69A",
"m 	c #72C295",
"n 	c #69BA89",
"o 	c #72B78A",
"p 	c #AFCFCA",
"q 	c #C2D9D1",
"r 	c #C8DFC3",
"s 	c #DBEBCF",
"t 	c #FBFDFA",
"u 	c #F8FBF6",
"v 	c #E1EBD1",
"w 	c #C3CF6B",
"x 	c #EACB2C",
"y 	c #FFCE34",
"z 	c #FFCE33",
"A 	c #FDCD3E",
"B 	c #B1C9AD",
"C 	c #5EC7D2",
"D 	c #65C7D0",
"E 	c #65C8D1",
"F 	c #5FC3CC",
"G 	c #56BCC5",
"H 	c #59BDC7",
"I 	c #63C6CE",
"J 	c #66C8D1",
"K 	c #5FC3CD",
"L 	c #51B8C3",
"M 	c #40ABB7",
"N 	c #299FAC",
"O 	c #3AA497",
"P 	c #5BB170",
"Q 	c #A4CE91",
"R 	c #F7FAF5",
"S 	c #E6F1E0",
"T 	c #ACCC64",
"U 	c #EECD39",
"V 	c #FDCE3E",
"W 	c #62C4CD",
"X 	c #4EB4BE",
"Y 	c #2D9FAB",
"Z 	c #34A3AE",
"` 	c #58BCC5",
" .	c #63C6CF",
"..	c #64C6CF",
"+.	c #60C2CC",
"@.	c #3BA7B3",
"#.	c #279CA9",
"$.	c #3CA592",
"%.	c #96C79F",
"&.	c #F6F9F6",
"*.	c #E5F0DE",
"=.	c #A8CA58",
"-.	c #F1CC33",
";.	c #4CB2BD",
">.	c #30A0AD",
",.	c #299DAA",
"'.	c #2A9EAA",
").	c #35A4AF",
"!.	c #57BBC5",
"~.	c #3CA7B3",
"{.	c #239BAA",
"].	c #52AB8A",
"^.	c #A6D090",
"/.	c #F6FAF6",
"(.	c #E5F1DE",
"_.	c #F0CC33",
":.	c #46ADB9",
"<.	c #259BA9",
"[.	c #54B8C2",
"}.	c #61C4CD",
"|.	c #229BAA",
"1.	c #5AAD87",
"2.	c #ACD38B",
"3.	c #F7FBF5",
"4.	c #E4F0DE",
"5.	c #A5CA50",
"6.	c #F1CC30",
"7.	c #FDCD3F",
"8.	c #56BBC5",
"9.	c #3EA9B4",
"0.	c #289DAA",
"a.	c #5CAD87",
"b.	c #AED48A",
"c.	c #F8FBF5",
"d.	c #EDF6E9",
"e.	c #C2DB9D",
"f.	c #DCCE53",
"g.	c #E4CB34",
"h.	c #F1CD36",
"i.	c #FBCC3F",
"j.	c #AFC9AD",
"k.	c #5FC7D2",
"l.	c #5DC1CB",
"m.	c #62C5CE",
"n.	c #43ABB7",
"o.	c #42ABB7",
"p.	c #43ACB7",
"q.	c #5ABDC7",
"r.	c #66C7D0",
"s.	c #AED48B",
"t.	c #F2F7EE",
"u.	c #AAD07C",
"v.	c #95C535",
"w.	c #D1CA3A",
"x.	c #FECE34",
"y.	c #F7CD3F",
"z.	c #ADC9AD",
"A.	c #60C8D2",
"B.	c #5ABEC7",
"C.	c #36A4B0",
"D.	c #45B0BB",
"E.	c #5CC0CA",
"F.	c #61C4CC",
"G.	c #5BAD87",
"H.	c #ADD48B",
"I.	c #ACD17B",
"J.	c #ADC731",
"K.	c #DFCC38",
"L.	c #FCCE3F",
"M.	c #B0C9AD",
"N.	c #5FC8D2",
"O.	c #5BBFC7",
"P.	c #33A2AF",
"Q.	c #33A3AF",
"R.	c #60C3CB",
"S.	c #3BA7B2",
"T.	c #EEF5E9",
"U.	c #C5DA9D",
"V.	c #DECE53",
"W.	c #EBCC33",
"X.	c #F6CD35",
"Y.	c #FDCE3F",
"Z.	c #B1CAAD",
"`.	c #59BCC6",
" +	c #58BBC5",
".+	c #60C3CC",
"++	c #65C8D0",
"@+	c #65C8CF",
"#+	c #49B2BD",
"$+	c #31A2AE",
"%+	c #239CAB",
"&+	c #FFFEFF",
"*+	c #E4F0DD",
"=+	c #A6C950",
"-+	c #F2CC31",
";+	c #4CB3BD",
">+	c #54B9C2",
",+	c #5CBFC9",
"'+	c #34A4B1",
")+	c #299EAB",
"!+	c #249CAB",
"~+	c #DDDDE1",
"{+	c #BFBFC8",
"]+	c #E9F1DE",
"^+	c #B7CC56",
"/+	c #F2CD33",
"(+	c #46AEB9",
"_+	c #229BA7",
":+	c #3DA8B3",
"<+	c #5BBEC8",
"[+	c #289CA9",
"}+	c #AFB1B9",
"|+	c #19305B",
"1+	c #EFF2DE",
"2+	c #CDCE55",
"3+	c #F6CD32",
"4+	c #4DB4BE",
"5+	c #35A4B0",
"6+	c #45ADB8",
"7+	c #63C5CE",
"8+	c #5BBFC8",
"9+	c #30A1AD",
"0+	c #ACACB2",
"a+	c #000038",
"b+	c #E7F1DE",
"c+	c #AFCB57",
"d+	c #F1CD33",
"e+	c #5FC2CB",
"f+	c #61C3CC",
"g+	c #31A1AD",
"h+	c #ABACB2",
"i+	c #000035",
"j+	c #A6C955",
"k+	c #F0CC32",
"l+	c #ABACB1",
"m+	c #000036",
"n+	c #D3E3BA",
"o+	c #D0CE60",
"p+	c #F1CC2E",
"q+	c #31A0AD",
"r+	c #ADD38B",
"s+	c #C8C9CC",
"t+	c #F6FAF3",
"u+	c #B1D68A",
"v+	c #CBCB3E",
"w+	c #F1CD35",
"x+	c #289CAA",
"y+	c #ADD38A",
"z+	c #F7FBF4",
"A+	c #BDDE9A",
"B+	c #A7CC52",
"C+	c #D7CA37",
"D+	c #3EABB5",
"E+	c #59BDC6",
"F+	c #62AF8B",
"G+	c #B3D691",
"H+	c #B2D381",
"I+	c #D8CB35",
"J+	c #FACD34",
"K+	c #32A2AE",
"L+	c #35A3AF",
"M+	c #1E9CAA",
"N+	c #7DBA9F",
"O+	c #CCE5B3",
"P+	c #FAFCF8",
"Q+	c #C3D99D",
"R+	c #DECE52",
"S+	c #F7CD30",
"T+	c #5EC2CB",
"U+	c #4BB4BE",
"V+	c #2D9FAC",
"W+	c #67C8D1",
"X+	c #159BA9",
"Y+	c #9DC6C1",
"Z+	c #EDF6E6",
"`+	c #F2CC30",
" @	c #53B8C2",
".@	c #5DC0C9",
"+@	c #4FB6C0",
"@@	c #31A1AE",
"#@	c #48B0BA",
"$@	c #5DC0CA",
"%@	c #179CA4",
"&@	c #ABCCCC",
"*@	c #A7CA52",
"=@	c #F1CC31",
"-@	c #3AA7B2",
";@	c #48AFBA",
">@	c #5FC1CB",
",@	c #5EC1CA",
"'@	c #49B0BB",
")@	c #299DA9",
"!@	c #32A297",
"~@	c #B1D1C4",
"{@	c #E9F3E4",
"]@	c #B5D27E",
"^@	c #E8CD44",
"/@	c #FCCE32",
"(@	c #38A5B1",
"_@	c #4BB2BC",
":@	c #64C6D0",
"<@	c #2A9DA9",
"[@	c #52AD81",
"}@	c #BAD9B6",
"|@	c #FEFEFE",
"1@	c #FCFDFC",
"2@	c #ECF2E4",
"3@	c #B8D17A",
"4@	c #E2CB32",
"5@	c #2C9FAB",
"6@	c #2B9DA9",
"7@	c #6AB576",
"8@	c #C4DFAE",
"9@	c #FEFEFC",
"0@	c #F9FBF6",
"a@	c #C8E2AD",
"b@	c #B6CE60",
"c@	c #DDCA30",
"d@	c #55BAC3",
"e@	c #49B1BB",
"f@	c #6DB673",
"g@	c #C5E0AD",
"h@	c #FCFEFB",
"i@	c #ECF5E2",
"j@	c #D7EACA",
"k@	c #CDD893",
"l@	c #CEC929",
"m@	c #CEC928",
"n@	c #CCC936",
"o@	c #95C8AD",
"p@	c #61C7D2",
"q@	c #5DC1CA",
"r@	c #50B5BF",
"s@	c #5DC1C9",
"t@	c #66C9D1",
"u@	c #6CB673",
"v@	c #C5E0AE",
"w@	c #FFFFFE",
"x@	c #EAF4DD",
"y@	c #F1F8E9",
"z@	c #E2EFDA",
"A@	c #B8D99D",
"B@	c #B7D99F",
"C@	c #8ACEC0",
"D@	c #62C7D1",
"E@	c #5EC1CB",
"F@	c #4AB2BD",
"G@	c #2C9FAC",
"H@	c #48B1BA",
"I@	c #5EC3CB",
"J@	c #C6E0AF",
"K@	c #FEFFFD",
"L@	c #ECF4E4",
"M@	c #E4EFDA",
"N@	c #E3EEDD",
"O@	c #D8E6E4",
"P@	c #AFD3AF",
"Q@	c #D9E9D5",
"R@	c #F8FCFA",
"S@	c #AEDCDF",
"T@	c #5FC6CE",
"U@	c #52B7C1",
"V@	c #4BB2BD",
"W@	c #58BDC7",
"X@	c #6EB674",
"Y@	c #BFDCA3",
"Z@	c #F2F8F0",
"`@	c #F2F8F3",
" #	c #EBF5F2",
".#	c #B0D7A3",
"+#	c #8FC970",
"@#	c #8FC973",
"##	c #8FC972",
"$#	c #8FC873",
"%#	c #8EC66E",
"&#	c #81BE79",
"*#	c #51A7A8",
"=#	c #3AA0AA",
"-#	c #BCD6D2",
";#	c #F9FCF5",
">#	c #FCFEFE",
",#	c #B1DDDB",
"'#	c #60C6C7",
")#	c #52B6C1",
"!#	c #38A7B3",
"~#	c #48B3BE",
"{#	c #4AB4BE",
"]#	c #2F9FAB",
"^#	c #70B87D",
"/#	c #96CA61",
"(#	c #A2CF7D",
"_#	c #A2CF7E",
":#	c #9ED08C",
"<#	c #93D0AE",
"[#	c #89D0D1",
"}#	c #74CAC8",
"|#	c #6BC7C2",
"1#	c #6BC7C3",
"2#	c #6CC7C4",
"3#	c #5FBBB7",
"4#	c #3FA3A2",
"5#	c #279DAA",
"6#	c #81BD92",
"7#	c #CEE5B8",
"8#	c #B2DDD5",
"9#	c #62C6C2",
"0#	c #51B6C0",
"a#	c #2A9DAA",
"b#	c #58BCC6",
"c#	c #69C2BB",
"d#	c #72C7B2",
"e#	c #70C6B1",
"f#	c #6FC6B1",
"g#	c #6DC6B5",
"h#	c #66C6C0",
"i#	c #62C6CD",
"j#	c #63C7D1",
"k#	c #64C7D1",
"l#	c #65C8D2",
"m#	c #54B9C5",
"n#	c #299EAC",
"o#	c #69B479",
"p#	c #BFDDA3",
"q#	c #B6DDC6",
"r#	c #68C6B3",
"s#	c #2FA0AD",
"t#	c #48B0BB",
"u#	c #65C7D1",
"v#	c #64C7D2",
"w#	c #56BAC4",
"x#	c #2C9EAB",
"y#	c #67B379",
"z#	c #BEDCA3",
"A#	c #BBDDB1",
"B#	c #70C69F",
"C#	c #5FC2CC",
"D#	c #55B9C4",
"E#	c #2B9EAB",
"F#	c #FCFEFC",
"G#	c #BFDCA5",
"H#	c #77C593",
"I#	c #2A9EAB",
"J#	c #C0DCA5",
"K#	c #78C593",
"L#	c #279CAA",
"M#	c #BDDCA2",
"N#	c #78C592",
"O#	c #34A3AF",
"P#	c #68B478",
"Q#	c #BEDCA1",
"R#	c #5EC0CA",
"S#	c #58AC89",
"T#	c #B6D5B1",
"U#	c #FCFDFD",
"V#	c #FDFEFB",
"W#	c #C0DCA4",
"X#	c #34A2AF",
"Y#	c #189BA6",
"Z#	c #9CC4C4",
"`#	c #F4F9F3",
" $	c #34A2AE",
".$	c #1B9BAA",
"+$	c #7BB8A7",
"@$	c #CEE6B9",
"#$	c #F9FCF6",
"$$	c #279DA9",
"%$	c #229CAB",
"&$	c #60AE93",
"*$	c #AFD68D",
"=$	c #F6FAF2",
"-$	c #66C8D0",
";$	c #5CC0CC",
">$	c #30A2B0",
",$	c #1D9BAD",
"'$	c #53AA8E",
")$	c #A4CF7F",
"!$	c #F4F9F1",
"~$	c #66C7D1",
"{$	c #61C4CF",
"]$	c #5ABFC9",
"^$	c #56BBC6",
"/$	c #53BAC5",
"($	c #5DBEBC",
"_$	c #6AC4B3",
":$	c #6BC1AC",
"<$	c #56AD95",
"[$	c #53A990",
"}$	c #51A992",
"|$	c #65B277",
"1$	c #A4CF7C",
"2$	c #5FC2CA",
"3$	c #66C5C6",
"4$	c #6CC7C3",
"5$	c #63C0BC",
"6$	c #50B1AC",
"7$	c #4CA8A5",
"8$	c #68AEB5",
"9$	c #85BDA3",
"0$	c #98CB85",
"a$	c #A1CE7C",
"b$	c #A2CE7B",
"c$	c #A0CE76",
"d$	c #B7D899",
"e$	c #79C593",
"f$	c #64C7D0",
"g$	c #64C6CE",
"h$	c #65C6CD",
"i$	c #66C7CD",
"j$	c #67C7CC",
"k$	c #67C7CD",
"l$	c #66C7CC",
"m$	c #57B9C0",
"n$	c #41A6AF",
"o$	c #49A8B1",
"p$	c #50ABAF",
"q$	c #7ABD8F",
"r$	c #8FC971",
"s$	c #8EC870",
"t$	c #8DC66B",
"u$	c #9BCB7E",
"v$	c #DCEADD",
"w$	c #F1F6F4",
"x$	c #F2F7F0",
"y$	c #C0DCA6",
"z$	c #59BFC9",
"A$	c #4AB3BF",
"B$	c #3FABB7",
"C$	c #43ACB3",
"D$	c #64BB94",
"E$	c #79C383",
"F$	c #80C681",
"G$	c #81C681",
"H$	c #80C680",
"I$	c #7FC680",
"J$	c #7AC075",
"K$	c #8AC184",
"L$	c #BDD9C0",
"M$	c #D5E5E0",
"N$	c #E0ECE0",
"O$	c #E4F0DA",
"P$	c #E8F2DE",
"Q$	c #FAFCF7",
"R$	c #7CC369",
"S$	c #76C599",
"T$	c #76C59A",
"U$	c #6FBF91",
"V$	c #68B784",
"W$	c #85BC9D",
"X$	c #BAD3D3",
"Y$	c #C6DEC7",
"Z$	c #CDE3BE",
"`$	c #D0E5BD",
" %	c #D1E5BE",
".%	c #D8EAC8",
"+%	c #F1F8E7",
"@%	c #FEFFFC",
"#%	c #D6E8C8",
"$%	c #B8D99A",
"%%	c #BADA9D",
"&%	c #BADB9C",
"*%	c #D1E6BE",
"=%	c #FCFDFA",
"-%	c #FDFDFE",
";%	c #F5F6F7",
">%	c #DBDDE3",
",%	c #F0F1F3",
"                                                                                                                                ",
"                                                                                                                                ",
"                              . . . . . . .                                                                                     ",
"                            . . . . . . . . .                                                                                   ",
"                    . . . . + @ # # $ % & . . . . . . . . . . . . .                                                             ",
"                  . . * = = - ; > , ' ) ! ~ = = = = = = = = & . . . . .                                                         ",
"                . . { ] ^ / ( _ : < [ } | 1 2 3 2 2 2 4 4 5 6 . . . . . .                                                       ",
"                . 7 8 9 0 a b c d e f g h i j k l j l m n o p q r s t . . .                                                     ",
"              . u v w x y y z A B C D D D E F G H I J K L M N O P Q R . . .                                                     ",
"            . . S T U y y y y V B C D D D W X Y Z `  .D ..+.@.#.$.%.&.. . .                                                     ",
"            . . *.=.-.y y y y V B C D D ..;.>.,.'.).!.J D W ~.{.].^./.. . .                                                     ",
"            . . (.=._.y y y y A B C D D ..:.<.,.,.'.[.J D }.~.|.1.2.3.. . .                                                     ",
"            . . 4.5.6.y y y y 7.B C D J D 8.9.#.#.0.[.J D }.~.|.a.b.c.. . .                                                     ",
"              . d.e.f.g.h.y y i.j.k.W H l.m.!.n.o.p.q.r.D }.~.|.a.s.c.. . .                                                     ",
"              . . t.u.v.w.z x.y.z.A.B.C.D.E.D  . . ...D D F.~.|.G.H.c.. . .                                                     ",
"              . . t.I.J.K.y y L.M.N.O.P.Q.!.J D D D D D D R.S.|.G.H.c.. . .                                                     ",
"              . T.U.V.W.X.y y Y.Z.k.W `. +.+++@+D D D D F #+$+%+G.H.c.. . &+                                                    ",
"            . . *+=+-+y y y y Y.Z.C D J D !.;+>+..D D J ,+'+)+!+G.H.c.. ~+{+                                                    ",
"            . . ]+^+/+y y y y Y.Z.C D D ..(+_+:+m.D D J <+>.[+!+G.H.c.. }+|+                                                    ",
"            . . 1+2+3+y y y y Y.Z.C D D ..4+5+6+7+D D J 8+9+0.!+G.H.c.&+0+a+                                                    ",
"            . . b+c+d+y y y y Y.Z.C D D D }.e+f+D D D J 8+g+0.!+G.H.c.&+h+i+                                                    ",
"            . . *.j+k+y y y y Y.Z.C D D D D r.D D D D J 8+g+0.!+G.H.c.&+l+m+                                                    ",
"            . . - n+o+p+y y y Y.Z.C D D D D D D J D D J <+q+0.!+G.r+c.. s+                                                      ",
"              . . t+u+v+w+y y Y.Z.C D D D D D m.8+I r.J <+q+x+!+1.y+c..                                                         ",
"              . . z+A+B+C+y y Y.Z.C D D D D J ,+D+E+..J 8+g+0.%+F+G+u .                                                         ",
"              . . t.H+I+J+y y Y.Z.C D D D D D B.K+L+!.J 8+g+0.M+N+O+P+.                                                         ",
"              . T.Q+R+S+y y y Y.Z.C D D D D T+U+V+0.[.W+8+g+0.X+Y+Z+* .                                                         ",
"            . . 4.=+`+y y y y Y.Z.C D 7+ @.@}.+@@@#@$@J 8+g+0.%@&@= . .                                                         ",
"            . . *.*@=@y y y y Y.Z.C ++}.-@;@>@,@'@e+++J 8+g+)@!@~@+ . .                                                         ",
"            . . {@]@^@/@y y y Y.Z.C ..8+(@0._@:@..D D J 8+g+<@[@}@|@. .                                                         ",
"              . 1@2@3@4@y y y Y.Z.k.,+~.5@,._@D D D D J 8+g+6@7@8@9@. .                           . . . .                       ",
"                . 0@a@b@c@y y V Z.k.W d@5+e@,@D D ++D J 8+g+6@f@g@+ . .     . . . . . . . . . . . . . . . .                     ",
"                . h@i@j@k@l@m@n@o@p@++.. @q@++T+r@X s@t@8+g+6@u@v@|@. . . . . . . . . . . . . . . w@x@y@. . .                   ",
"                  . . . z@/ A@B@C@D@D D D D E@F@G@,.H@I@,+g+6@u@J@. . . . . . K@L@M@M@M@M@M@M@M@N@O@P@Q@. . .                   ",
"                    . . { = = R@S@T@D D D J U@5@,.,.5@V@W@9+6@X@Y@t.# # # Z@`@ #.#+#@#@#####$#%#&#*#=#-#;#. .                   ",
"                      . . . . >#,#'#D D D J )#,.,.,.!#~#{#@@]#^#/#(#_#_#(#:#<#[#}#|#1#1#1#1#2#3#4#6@5#6#7#* .                   ",
"                            . >#8#9#D D D J 0#[+,.a#X T+E.b#` c#d#e#f#f#f#g#h#i#j#k#k#k#k#k#l#m#n#,.,.o#p#* .                   ",
"                            . { q#r#D D D D ,+(+s#t#,@J r.J J u#v#v#v#v#v#v#u#D D D D D D D J w#x#,.,.y#z#* .                   ",
"                            . * A#B#D D D D J ,@'@C#J D D D D D D D D D D D D D D D D D D D J D#E#,.,.y#z#* .                   ",
"                            . F#G#H#D D D D D D ..D D D D D D D D D D D D D D D D D D D D D J !.P.I#,.y#z#* .                   ",
"                            . * J#K#D D D D D D D D D D D D D D D D D D D D D D D D D D D D D f+0#g+0.y#z#* . &+                ",
"                            . * G#H#D D D D D D D D D D D D D D D D D D D D D D D D D D D D D D 8+P.L#y#M#= . .                 ",
"                            . * G#N#D D D D D D D D D D D D D D D D D D D D D D D D D D D D D J ,@O#L#P#Q#= . .                 ",
"                            . * J#N#D D D D D D D D D D D D D D D D D D D D D D D D D D D D D J R#O#x+S#T#U#. .                 ",
"                            . V#W#N#D D D D D D D D D D D D D D D D D D D D D D D D D D D D D J R#X#[+Y#Z#`#|@.                 ",
"                            . * J#N#D D D D D D D D D D D D D D D D D D D D D D D D D D D D D J R# $[+.$+$@$#$.                 ",
"                            . * J#K#D D D D D D D D D D D D D D D D D D D D D D D D D D D D D J R#Q.$$%$&$*$=$.                 ",
"                            . * J#N#D D D D D D D D D D D D D D D D D D D D D D D D D -$J J u#l#;$>$%$,$'$)$!$.                 ",
"                            . * J#N#D D D D D D D D D D D D D D D r.r.~$u#k#k#k#k#u#{$]$^$/$($_$:$<$[$}$|$1$!$.                 ",
"                            . * J#K#D D D D D D D D D D D D D D m.e+E@2$3$1#1#1#1#4$5$6$7$8$9$0$_#a$b$b$c$d$t+.                 ",
"                            . * J#e$D D D f$.. .g$h$i$j$k$k$j$l$m$n$o$p$q$r$$#$#$#@#s$t$u$v$w$x$# # # # # @ + .                 ",
"                            . * y$K#u#u#f$z$A$B$C$D$E$F$F$G$H$I$J$K$L$M$N$M@M@M@M@M@O$O$P$Q$. . . . . . . . . .                 ",
"                            . * G#R$S$T$S$U$V$W$X$Y$Z$`$ % %`$`$`$.%+%@%. . . . . . . . . . . . . . .   . .                     ",
"                              { #%$%%%%%2 2 &%*%=%. . . . . . . . . . . . . . . . . . . . . . . . .                             ",
"                              . * = = = = = = * . . . . . . . . . . . . . . . .                                                 ",
"                              . . . . -%. . . . . . . . .                                                                       ",
"                                . . ;%>%                                                                                        ",
"                                  . ,%                                                                                          ",
"                                                                                                                                ",
"                                                                                                                                "};
