/* XPM */
static char * m_xpm[] = {
"71 48 172 2",
"  	c None",
". 	c #FFFFFF",
"+ 	c #FDFFFF",
"@ 	c #9BDCE2",
"# 	c #65C7D0",
"$ 	c #66C9CF",
"% 	c #F5FCFC",
"& 	c #9CDCE1",
"* 	c #64C8D2",
"= 	c #65C7CF",
"- 	c #66C7D0",
"; 	c #64C7D0",
"> 	c #64C8D1",
", 	c #66C8D0",
"' 	c #8BC642",
") 	c #8CC63E",
"! 	c #7BC681",
"~ 	c #B89BC9",
"{ 	c #BB9BCA",
"] 	c #FEFFFF",
"^ 	c #FEFEFC",
"/ 	c #62C9D0",
"( 	c #BA9AC9",
"_ 	c #885E9E",
": 	c #6BB8C9",
"< 	c #FFFFFE",
"[ 	c #67C8C8",
"} 	c #8DC53E",
"| 	c #B08FC1",
"1 	c #EEF9FA",
"2 	c #C4EAED",
"3 	c #8CC53F",
"4 	c #BB9BC9",
"5 	c #875E9E",
"6 	c #885E9D",
"7 	c #FFFDFF",
"8 	c #7ACFD5",
"9 	c #B79BC9",
"0 	c #9F7BB3",
"a 	c #FFFFFD",
"b 	c #FFFEFF",
"c 	c #86C74E",
"d 	c #8BC63F",
"e 	c #BB99C9",
"f 	c #BA9BC9",
"g 	c #66C8D1",
"h 	c #FEFEFE",
"i 	c #BA99C7",
"j 	c #BA9BCA",
"k 	c #A9E0E4",
"l 	c #65C7D1",
"m 	c #885F9E",
"n 	c #64C8CF",
"o 	c #78C784",
"p 	c #8CC63F",
"q 	c #66C7CD",
"r 	c #8CC540",
"s 	c #8DC63F",
"t 	c #875D9D",
"u 	c #FCFFFF",
"v 	c #64C7CD",
"w 	c #64C9D1",
"x 	c #8AC644",
"y 	c #FEFFFE",
"z 	c #99BA65",
"A 	c #8A63A0",
"B 	c #8D65A4",
"C 	c #64C9CF",
"D 	c #65C8CF",
"E 	c #BA9CCA",
"F 	c #65C8D1",
"G 	c #BB9BCB",
"H 	c #9872AC",
"I 	c #FDFDFD",
"J 	c #63C8D1",
"K 	c #8CC53E",
"L 	c #8BC63E",
"M 	c #64C7D1",
"N 	c #65C8CE",
"O 	c #BB9AC8",
"P 	c #8CC640",
"Q 	c #8BC53E",
"R 	c #875E9D",
"S 	c #B99BC9",
"T 	c #BA9ACA",
"U 	c #66C8CF",
"V 	c #DEF3F4",
"W 	c #9168A6",
"X 	c #A884B9",
"Y 	c #8BC63D",
"Z 	c #B99AC7",
"` 	c #BB9BC8",
" .	c #875D9E",
"..	c #815798",
"+.	c #875D9F",
"@.	c #A17BB6",
"#.	c #68C7CF",
"$.	c #87C658",
"%.	c #BA9BC8",
"&.	c #855B9B",
"*.	c #885E9F",
"=.	c #65C8D0",
"-.	c #885EA0",
";.	c #62397D",
">.	c #B0A1CB",
",.	c #875F9F",
"'.	c #F3FAFB",
").	c #B89DCA",
"!.	c #8C91BA",
"~.	c #63C8D0",
"{.	c #66C7D1",
"].	c #8EB3CD",
"^.	c #8A619F",
"/.	c #67C8D1",
"(.	c #BA9BC7",
"_.	c #64C8D0",
":.	c #B89BC8",
"<.	c #865E9F",
"[.	c #CCEDEE",
"}.	c #BA9AC8",
"|.	c #66C7CF",
"1.	c #6BB8C8",
"2.	c #93D9DE",
"3.	c #9B75AF",
"4.	c #75CED4",
"5.	c #ABA2CB",
"6.	c #9A75AE",
"7.	c #65C6D2",
"8.	c #66C9D1",
"9.	c #9E79B1",
"0.	c #B392C1",
"a.	c #63C9D0",
"b.	c #7AD0D7",
"c.	c #66C7CE",
"d.	c #FEFEFD",
"e.	c #8978AC",
"f.	c #EFF9F8",
"g.	c #BA9CC9",
"h.	c #82D3D7",
"i.	c #7D80AD",
"j.	c #8A5D9E",
"k.	c #67C8CF",
"l.	c #65C7CD",
"m.	c #82D3D8",
"n.	c #BBE7E9",
"o.	c #B99CCA",
"p.	c #B89BC7",
"q.	c #B99BCA",
"r.	c #68BFCA",
"s.	c #FFFEFE",
"t.	c #895E9E",
"u.	c #BB9CC8",
"v.	c #63C9CD",
"w.	c #9972AC",
"x.	c #6BC4CE",
"y.	c #895D9E",
"z.	c #71C1CF",
"A.	c #9A72AE",
"B.	c #885D9D",
"C.	c #FCFFFE",
"D.	c #6DABC3",
"E.	c #B99BC8",
"F.	c #8F67A4",
"G.	c #63C8CF",
"H.	c #9ADADF",
"I.	c #69BECB",
"J.	c #D6F1F2",
"K.	c #8664A1",
"L.	c #63C8CE",
"M.	c #71A3BE",
"N.	c #64C9D0",
"O.	c #D0EEF3",
"                                                                                                                                              ",
"                                                                                                                                              ",
"                                                                                                                                              ",
"                                        . . . . . . . . . . . . . . . . . .               . . . . . . . . . . . . +                           ",
"                                      . . . . . . . . . . . . . . . . . . . .           . . . . . . . . . . . . . .                           ",
"                                    . . @ # # $ % # # # # # # # # # # # & . .         . . * = # - ; # > # # # # . . .                         ",
"                                  . . , ' ) ) ) ! ~ { { { { { { { { { { # ] . .       . ^ / { { { { { { ( _ _ : . . .                         ",
"                                  . < [ ) ) ) ) } { { { { { | { { { { { { 1 . .     . . # { { { { { { { { _ _ _ # . .                         ",
"                                  . 2 3 ) ) ) ) 4 { { { { 5 _ 6 { { { { { # . . 7   . 8 9 { { { { { { { { 0 _ _ - . . a                       ",
"                                . . b c ) ) ) d { { { { e _ _ _ { { { { { # . . . . . # { { { { { { { { { f _ _ g a . .                       ",
"                              . . . h # ) ) ) { { _ _ { i _ _ _ ( { { { { j k . . . l { { { { { { { { { { { _ _ m b . .                       ",
"                            . . n g o p q r s { { _ t { { t _ _ { { { { { { # . . u v { { { { { { { { { { { _ _ _ # . .                       ",
"                          . . w x ) ) ) ) ) { { { { { { { { { { { { { { { { # y . # { { { { { { { { { { { { { _ _ - < . .                     ",
"                          . . # ) ) ) ) ) z { { { { A B { { { { { { { { { { { C D E { { { { { { { { { { { { { _ _ F a . .                     ",
"                          . . # ) ) ) ) ) { { { { { _ _ { { { { { { { { { { { # # { { { { { { { { { { { { { { _ _ _ g . .                     ",
"                          . . # ) ) ) ) G { { { { { { { { { { { { { { { { { { - { { { { { { { { { { { { { { { H _ _ n . . I                   ",
"                        . . . J K ) ) L { { { { { { { { { { { { { { { { { { { { { { { { { { { { { { { { { { { { _ _ # . . .                   ",
"                      . . , M N N ) ) O { { { ( { { { { { { { { { { { { { { { { { { { { { { { { { { { { { { { { _ _ _ b . .                   ",
"                    . b ; P p ) Q ) ) { { { R _ { { { { { { { { { { { { { { { { { { { { { { { { { { { { { { { { 6 _ _ l . .                   ",
"                    . < # ) ) ) ) ) S { { 4 _ _ { { { { { { { { { { { { { { { { { { { { { { { { { { { { { { { { T _ _ U . . +                 ",
"                    . V P ) ) ) ) ) { { { _ _ W { { { X { { { { { { { { { { { { { { { { { { { { { { { { { { { { { _ _ # . . .                 ",
"                    . . Y ) ) ) ) Z { { { { ( { { { ` _ { { { { { { { { { { { { { { { {  .{ { { { { { { { { { { { t _ _ > . .                 ",
"                    . . # ) ) ) ) { { { { { { { 5 _ .._ _ { { { { { { { { { { { { { { _ _ +.{ { { { { { { { { { { @._ _ # . .                 ",
"                    . . #.$.) ) %.{ { _ _ _ { { _ _ &._ _ 6 { { { { { { { { { { { { *._ _ _ { { { { { { { { { { { { _ _ F . . .               ",
"                      . . =.n s { { -._ _ _ { 4 _ ;._ _ _ _ >.{ { { { { { { { { { 6 _ _ _ _ 4 { { { { { { { { { { { _ _ ,.'.. .               ",
"                      . . . v ).( { _ _ _ _ { { { _ _ _ _ !.# { { { { { { { { { 5 _ _ _ _ _ ~.{ { { { { { { { { { { *._ _ {.. .               ",
"                      . . h ].{ { { R _ _ S { { ^._ _ _ _ # < /.{ { { { { { (._ _ _ _ _ _ _.# { { { { { { { { { { { :._ _ F . . a             ",
"                      . . , E { { { { ( { { { { _ _ _ _ <.[.. < # { { { { }._ _ _ _ _ _ > y |.{ { { { { { { { { { { { _ _ 1.< . .             ",
"                      . 2.).{ { { { { { { { { 3._ _ _ _ # . . . 4.5.{ { 6._ _ _ _ _ m # < . . ~.{ { { { { { { { { { { m _ R n . .             ",
"                    . . 7.{ { { { { { { { { { _ _ _ _ _ 8.. . . . D f 6 _ _ _ _ _ _ # ] . . . # { { { { { { { { { { { 9._ _ # . .             ",
"                  . . _.( { { { { { { { { { 0._ _ _ _ # . . I . . . # m _ _ _ _ 5 a.. . . . . b.E { { { { { { { { { { { _ _ c.. . .           ",
"                  . d._.{ { { { { { { { { { _ _ _ _ R F . .     . . . # _ _ _ e.D . . .     . ] _.{ { { { { { { { { { { _ _ R f.. .           ",
"                . . # { { { { { { { { { { g._ _ _ _ # . . <       . . h.i._ w a.. . .       . . # { { { { { { { { { { { *._ _ _.. .           ",
"                . a ~.{ { { { { { { { { { _ _ _ _ j.g . .           . . k.l.m.. . .           . n.o.{ { { { { { { { { { p._ _ # . .           ",
"              . . # { { { { { { { { { { q._ _ _ _ # . . .           . . . . . . .             . h # { { { { { { { { { { { _ _ r.s.. .         ",
"              . . # { { { { { { { { { { _ _ _ _ m =.. .               . . . . .               . . # { { { { { { { { { { { _ _ t._.. .         ",
"            . . ~.{ { { { { { { { { { u._ _ _ _ # . . .                   ] .                 . . v.{ { { { { { { { { { { w._ _ # . .         ",
"            . a x.f ~ { { { { { { { { _ _ _ _ y.= . . a                                         . b z.{ { { { { { { { { { { _ _ - . . .       ",
"          . ] # _ _ _ _ _ A.j ( { { ( _ _ _ _ N . . .                                           . . D { { { { { { { { { { { _ _ B.. . .       ",
"          . C.D.R _ _ _ _ _ _ _ _ _ _ _ _ _ _ w . . .                                           . . # { { { { { ( { E.( { F._ _ _ G.. .       ",
"          . . . H._.G.- # _ _ 5 _ _ _ _ _ _ I.y . .                                               . J._ _ _ _ _ _ _ _ _ _ _ _ _ _ # . . .     ",
"          . . . . . . . ] y # # # > K._ _ _ # . . .                                               . h = _ _ _ _ _ _ _ _ _ _ _ _ _ L.. . .     ",
"              . . . . . . . . . . ] . # # , b . .                                                 . . N _ _ _ _ _ _ _ _ _ M.|.# _.# b . .     ",
"                      . . . . . . . . . . . . . .                                                   . # n N.=.# # # # O.< . . h . . . . 7     ",
"                                  . . . . . . .                                                     . . . . . . . . . . . . . . . . . .       ",
"                                                                                                    . . . . . . . . . . . . . . . .           ",
"                                                                                                        . .                                   ",
"                                                                                                                                              "};
