/* XPM */
static char *m[] = {
/* columns rows colors chars-per-pixel */
"64 45 185 2 ",
"   c #9EB675",
".  c #8AC454",
"X  c #8CC65B",
"o  c #95C56A",
"O  c #9AC673",
"+  c #99CC74",
"@  c #97CE71",
"#  c #896FA7",
"$  c #8E6FA8",
"%  c #8F73AB",
"&  c #8C79AE",
"*  c #9671AB",
"=  c #9A75AE",
"-  c #9379AE",
";  c #9B78AF",
":  c #9C77B0",
">  c #947EB1",
",  c #9D7CB3",
"<  c #A17EB4",
"1  c #9D9E9B",
"2  c #9DA88D",
"3  c #9DB185",
"4  c #9BBD86",
"5  c #9DA591",
"6  c #9DB794",
"7  c #A5AD8C",
"8  c #A0B38C",
"9  c #A1BF8B",
"0  c #A3AD93",
"q  c #A7A09F",
"w  c #ABA69E",
"e  c #A7A999",
"r  c #A5B697",
"t  c #9D98A2",
"y  c #9681B3",
"u  c #9B85B5",
"i  c #9989B7",
"p  c #9C8AB8",
"a  c #9C93BC",
"s  c #9D99BF",
"d  c #AA9CA7",
"f  c #A398AB",
"g  c #AC9DAD",
"h  c #A891AD",
"j  c #A483B6",
"k  c #A78AB3",
"l  c #A98BB4",
"z  c #A685B8",
"x  c #A986BA",
"c  c #A48CBC",
"v  c #AC8BBD",
"b  c #A690B7",
"n  c #AA91B3",
"m  c #AC99B6",
"M  c #A492BD",
"N  c #AD92BB",
"B  c #AC9BBD",
"V  c #B09CB3",
"C  c #B091BE",
"Z  c #B59BBD",
"A  c #A8A0A2",
"S  c #AEA2A8",
"D  c #A8AEA6",
"F  c #A5B2A2",
"G  c #A7BEA6",
"H  c #ACAAB3",
"J  c #AFA7BA",
"K  c #AFA8BA",
"L  c #A9A5B2",
"P  c #AABBB6",
"I  c #A9B4B5",
"U  c #9DD18A",
"Y  c #A3C88F",
"T  c #A5D68F",
"R  c #A6C29A",
"E  c #ABD790",
"W  c #ADD69E",
"Q  c #ABD99E",
"!  c #ABD892",
"~  c #B1D79F",
"^  c #B3DC9F",
"/  c #A7C4A6",
"(  c #A8C3A6",
")  c #AACBA6",
"_  c #ABCFA9",
"`  c #AEDBA3",
"'  c #ACD2AA",
"]  c #A8D9A9",
"[  c #B1DCA4",
"{  c #B2DEAC",
"}  c #B6D9A9",
"|  c #BFDBBF",
" . c #BAD7B7",
".. c #C3E4BD",
"X. c #9F99C0",
"o. c #AE8DC0",
"O. c #B18FC1",
"+. c #A596C0",
"@. c #AB92C0",
"#. c #A49DC3",
"$. c #AC9CC4",
"%. c #B494C5",
"&. c #B897C7",
"*. c #B399C7",
"=. c #B898C7",
"-. c #B59ECA",
";. c #BB9BCA",
":. c #9BA2C3",
">. c #9CABC7",
",. c #A5A2C5",
"<. c #ACA3C5",
"1. c #ACACC4",
"2. c #ADA3C9",
"3. c #AEACCC",
"4. c #A3A8C8",
"5. c #B5A2CB",
"6. c #B8A1CC",
"7. c #B5ACCE",
"8. c #B9ADCF",
"9. c #B1A8C6",
"0. c #ACB4C5",
"q. c #A1B0CB",
"w. c #ACB2CD",
"e. c #B4B2CF",
"r. c #B8B2CC",
"t. c #B4ADD1",
"y. c #BAAED2",
"u. c #AFB3D2",
"i. c #ABB9D1",
"p. c #B3B3D2",
"a. c #BAB5D4",
"s. c #B3BBD4",
"d. c #BBBAD6",
"f. c #BABED8",
"g. c #C0B4D5",
"h. c #C1BED8",
"j. c #C1BED7",
"k. c #BED0C6",
"l. c #B6C0D6",
"z. c #BCC2DA",
"x. c #BBCADE",
"c. c #BFE4C7",
"v. c #BBCFE0",
"b. c #BED2E2",
"n. c #C4DACC",
"m. c #C3CBD2",
"M. c #C4C4DB",
"N. c #C5CBDE",
"B. c #CACCDF",
"V. c #C8D3D8",
"C. c #C2E6CB",
"Z. c #C9E6CB",
"A. c #CCE9CD",
"S. c #CAE9D5",
"D. c #CFE6D9",
"F. c #CDEBDA",
"G. c #D1ECD8",
"H. c #C5CEE0",
"J. c #CACEE1",
"K. c #D0CDE1",
"L. c #C6D3E3",
"P. c #CAD3E3",
"I. c #CEDAE7",
"U. c #D3D0E2",
"Y. c #D1DAE7",
"T. c #D4DEEA",
"R. c #D4E3E5",
"E. c #D4E3EC",
"W. c #DAE4ED",
"Q. c #D7E8EF",
"!. c #DBE9EE",
"~. c #D7EBE5",
"^. c #DDEDF2",
"/. c #DCF0F3",
"(. c #E0E8EF",
"). c #E3EDF2",
"_. c #E9EEF4",
"`. c #E4F2F5",
"'. c #EAF3F6",
"]. c #EDF6F8",
"[. c #F0F2F7",
"{. c #F4F6F9",
"}. c #F3FBFC",
"|. c #FEFFFF",
" X c None",
/* pixels */
" X X X X X X X X X X X X X X X X X X X X X X X X X X X X X X X X X X X X X X X X X X X X X X X X X X X X X X X X X X X X X X X X",
" X X X X X X X X X X X X X X X X X X X X X X X X X X X X X X X X X X X X X X X X X X X X X X X X X X X X X X X X X X X X X X X X",
" X X X X X X X X X X X X X X X X X X X X X X X X X X X X X X X X X X X X X X X X X X X X X X X X X X X X X X X X X X X X X X X X",
" X X X X X X X X X X X X X X X X X X X X X X X X X X X X X X X X X X X X X X X X X X X X X X X X X X X X X X X X X X X X X X X X",
" X X X X X X X X X X X X X X X X X{ { ' ' ) / P 0.w.3.u.u.u.u.u.W.W.Q.Q. X X X X Xs.s.s.s.u.u.u.s.i.i. X X X X X X X X X X X X X",
" X X X X X X X X X X X X X X X X X{ { ' _ ) / P 0.w.3.3.u.u.u.u.W.W.Q.Q. X X X X Xs.s.s.s.u.u.u.u.i.i. X X X X X X X X X X X X X",
" X X X X X X X X X X X X X X X{ { { ` ) ) / G I 0.1.3.3.3.u.u.u.T.T.E.E. X X X X Xs.s.s.u.t.p.u.u.u.i. X X X X X X X X X X X X X",
" X X X X X X X X X X X X X X X{ { ` ` ) ) ( G I K 1.2.2.3.3.t.t.T.T.T.T. X X X X Xp.p.p.p.t.t.u.u.u.q. X X X X X X X X X X X X X",
" X X X X X X X X X X X X X X X{ { E T R ( F D L J +.@.$.2.$.-.5.P.J.H.J.J. X X Xa.y.t.6.6.6.t.2.2.#.<.h. X X X X X X X X X X X X",
" X X X X X X X X X X X X XF.F.[ [ @ @ 3 0 w d h l z j x O.%.o.O.z.H.f.f.J.P.J.H.g.6.;.;.;.;.;.o.o.p i h.U._.}. X X X X X X X X X",
" X X X X X X X X X X X X XS.S.[ [ + O 8 0 d d n l x z v %.O.%.O.z.f.f.f.H.H.H.H.y.;.;.;.;.;.-.o.o.i i M.U._.}. X X X X X X X X X",
" X X X X X X X X X X X X XC.C.W W O O 0 e d g n v v v o.%.%.%.%.d.d.d.d.v.v.z.h.y.;.;.;.;.-.-.o.o.p p h.U.).]. X X X X X X X X X",
" X X X X X X X X X X X X Xc.c.W W O O 0 e d m N v v o.O.=.%.%.=.a.a.a.a.v.v.z.d.6.;.;.;.;.-.-.o.o.u i h.K.(.'. X X X X X X X X X",
" X X X X X X X X X X X X X] ] Y Y     w S Z &.%.%.%.%.%.;.;.;.;.6.-.5.5.-.-.5.-.;.;.;.;.;.;.;.o.o.< < a.h.Y.Q. X X X X X X X X X",
" X X X X X X X X X X X X X] ] Y Y     w S Z =.=.%.%.%.=.;.;.;.;.-.-.5.5.-.5.-.-.;.;.;.;.;.;.;.o.O.< < y.h.Y.Q. X X X X X X X X X",
" X X X X X X X X X X X` Q U U 9 Y 7 7 g m C O.%.%.%.%.%.;.;.-.-.-.-.-.-.-.-.-.-.;.;.;.;.;.;.;.%.O.< < y.d.H.P. X X X X X X X X X",
" X X X X X X X X X X X` Q U U Y 4 7 7 g m C C %.%.%.%.&.;.;.-.-.-.-.-.-.-.-.-.-.;.;.;.;.;.;.=.O.O.< < y.d.N.P. X X X X X X X X X",
" X X X X X X X X XA...^ ! X X 3 8 g V n C v v C %.%.&.=.;.;.;.;.;.;.;.;.;.;.;.;.;.=.=.;.;.;.;.%.O.O.v 5.7.s.f. X X X X X X X X X",
" X X X X X X X X XA...^ E . . 3 3 V V C C v v O.%.&.=.=.;.;.;.;.;.;.-.;.;.;.;.;.;.=.=.;.;.;.;.%.%.O.O.5.7.s.s. X X X X X X X X X",
" X X X X X X X X XG.Z.} ^ o o 2 2 h l l l z z x v v v C ;.=.;.;.;.;.=.=.%.%.O.O.%.%.=.*.;.;.;.=.%.%.%.2.2.3.u. X X X X X X X X X",
" X X X X X X X X XG.S. .} O O 5 5 h l k z j j z x x x v =.=.;.;.;.;.;.=.o.o.o.o.O.%.%.*.*.;.;.=.=.%.%.$.2.3.3. X X X X X X X X X",
" X X X X X X X X X~.D.|  .4 4 1 1 j < < , < , , < , ; z %.&.;.;.;.;.=.=.o.< , < x o.@.@.%.;.;.;.;.;.;.+.+.#.,. X X X X X X X X X",
" X X X X X X X X X!.R.k. .6 6 t 1 = : : : : : ; * - - u %.%.;.;.;.;.*.*., : : : > o.o.o.%.;.;.;.;.;.;.@.M s s  X X X X X X X X X",
" X X X X X X X X X!.R.n.k.F F f h < < : < : ; ; u u u c 6.6.6.6.%.%.o.o., : , > +.$.$.*.*.;.;.;.;.;.;.@.M M a <. X X X X X X X X",
" X X X X X X X X X!.R.V.m.H H m m x x < < : = u @.M m *.y.y.a.y.o.z z z , , i p #.3.3.7.7.;.;.;.;.;.;.+.M p i 7.J.T.`.`. X X X X",
" X X X X X X X X X!.R.V.M.J J m m v v < , : = < +.+.J 9.a.a.a.a.< , < , , , p a ,.u.s.t.t.;.;.;.;.;.;.@.M p i e.P.T.`.`. X X X X",
" X X X X X X X X XQ.T.J.H.;.6.*.=.%.&.j < : * p 2.7.s.s.l.f.f.l.= * * * u i a X.w.v.x.f.a.;.;.;.;.;.;.v c u y r.Y.W.`.`. X X X X",
" X X X X X X X X XQ.I.J.M.6.6.*.*.%.&.< , = * +.3.p.l.l.z.z.z.z.= = : = p a #.#.s.b.x.z.d.;.;.;.;.;.;.v c u y 7.Y.W.).`. X X X X",
" X X X X X X X X XL.H.f.a.;.;.=.=.%.%., , * $ $.z.H.Y.Y.E.E.E.E.X.X.#.#.h.J.H.L.I.E.I.H.M.;.;.6.6.;.;.%.v x z 7.H.U.T.T. X X X X",
" X X X X X X X X XL.H.f.a.;.;.=.=.%.=.< , * $ #.z.H.Y.Y.E.E.E.E.X.X.#.#.h.J.L.L.I.E.I.H.M.;.;.6.6.;.;.v v z j 7.H.P.T.R. X X X X",
" X X X X X X X X Xz.f.a.y.;.;.=.=.%.%.< , % # $.J.Y.).`.'.'.'.'.q.q.i.i.E.'.`.`././.Q.P.B.-.-.;.;.;.;.O.v x v 5.h.M.P.P. X X X X",
" X X X X X X X X Xz.f.a.y.;.;.=.=.%.%.< , % # 2.J.T.).).'.'.'.'.q.q.i.i.E.`.`.`.`.^.Q.P.N.-.-.;.;.;.;.O.v x x 6.h.M.P.P. X X X X",
" X X X XE.E.P.N.a.2.2.-.*.=.=.o.v < , c M M #.,. X X X X X X X X X X X X X X X X X X XM.z.t.t.;.6.;.;.=.%.v N <.7.p.p.s. X X X X",
" X X X XE.R.P.N.a.$.*.*.*.=.%.v v , , c M #.,. X X X X X X X X X X X X X X X X X X X XM.z.t.t.6.6.;.;.=.%.o.N *.7.7.e.e. X X X X",
" X X X XE.E.P.B.t.@.v N %.*.%.v v : = b M 1.3. X X X X X X X X X X X X X X X X X X X X X Xp.p.t.t.;.;.=.=.%.@.*.2.5.3.3. X X X X",
" X X X XE.E.P.J.7.c v C N *.*.x x * * n m 3.u. X X X X X X X X X X X X X X X X X X X X X Xp.p.t.t.;.;.=.=.=.%.*.$.$.2.2. X X X X",
" X X X X!.!.T.Y.M.y.7.7.9.5.5.+.@.u i 9.e.M.L. X X X X X X X X X X X X X X X X X X X X X Xs.s.2.2.c c c c c c X.:.,.4.w.[.[.|.|.",
" X X X X).).!.W.Y.N.M.f.f.t.t.#.#.s a d.M.Y.Q. X X X X X X X X X X X X X X X X X X X X X Xs.s.#.#.y > y u u y a :.:.>.l.[.{.|.|.",
" X X X X_.).(.!.I.L.N.f.f.t.p.,.#.s s d.M.E.^. X X X X X X X X X X X X X X X X X X X X X Xs.i.#.#.> & y > u y a :.:.>.s.{.{.|.|.",
" X X X X'.'.).!.T.L.N.z.z.p.p.,.,.s s M.B.!.`. X X X X X X X X X X X X X X X X X X X X X Xs.s.#.#.& & > > > > i :.:.>.f.{.{.|.|.",
" X X X X'.'.).).T.L.H.z.z.p.p.,.,.s s M.B.!.`. X X X X X X X X X X X X X X X X X X X X X Xf.s.e.e.#.B $.$.<.$.7.s.s.l.N.{.{.|.|.",
" X X X X X X X X X X X X X X X X X X X X X X X X X X X X X X X X X X X X X X X X X X X X X X XW.W.).^._.`.'.'.].{.{.{.{. X X X X",
" X X X X X X X X X X X X X X X X X X X X X X X X X X X X X X X X X X X X X X X X X X X X X X XQ.E.).).'.`.'.'.{.{.{.{.{. X X X X",
" X X X X X X X X X X X X X X X X X X X X X X X X X X X X X X X X X X X X X X X X X X X X X X X X X'.].{.}.{.}.|.|.|.|.|. X X X X",
" X X X X X X X X X X X X X X X X X X X X X X X X X X X X X X X X X X X X X X X X X X X X X X X X X'.'.}.}.}.}.|.|.|.|.|. X X X X"
};
