/* XPM */
static char *o[] = {
/* columns rows colors chars-per-pixel */
"64 60 165 2 ",
"   c #FEAE19",
".  c #FFB117",
"X  c #FFB31D",
"o  c #FDAB23",
"O  c #FDAE2C",
"+  c #FFB621",
"@  c #FFBC24",
"#  c #FDB128",
"$  c #FEBD2A",
"%  c #FDAF31",
"&  c #FDB031",
"*  c #FCBB35",
"=  c #FABE3C",
"-  c #FFC127",
";  c #FFC52C",
":  c #FFC82E",
">  c #FEC533",
",  c #FFCD34",
"<  c #FEC63E",
"1  c #F5CD3E",
"2  c #FDCB3A",
"3  c #FDBD4A",
"4  c #FDBC52",
"5  c #BDC676",
"6  c #B3C57F",
"7  c #BCC57D",
"8  c #DECB55",
"9  c #D5CC5E",
"0  c #D9CC5A",
"q  c #EDC64B",
"w  c #E6CD4D",
"e  c #F4C644",
"r  c #FDC543",
"t  c #F2CD41",
"y  c #FECB43",
"u  c #FCC54C",
"i  c #FECA4C",
"p  c #E3CB50",
"a  c #F7C554",
"s  c #FDC654",
"d  c #FDCB54",
"f  c #FEC55A",
"g  c #FDCB5B",
"h  c #FED15D",
"j  c #CECA65",
"k  c #C6C96D",
"l  c #CACA6B",
"z  c #D1CB63",
"x  c #C5C772",
"c  c #C0C679",
"v  c #FDC562",
"b  c #FDCC63",
"n  c #FDC56C",
"m  c #FDCD6B",
"M  c #FED266",
"N  c #FED26B",
"B  c #FDC671",
"V  c #FDCD73",
"C  c #FDCB7B",
"Z  c #FED374",
"A  c #FDD37B",
"S  c #FED87B",
"D  c #7BC3BD",
"F  c #ABBE92",
"G  c #A6BC99",
"H  c #A9BE9C",
"J  c #9BBEA3",
"K  c #98C39A",
"L  c #A6C68D",
"P  c #ACC48C",
"I  c #A5CA8F",
"U  c #B6C581",
"Y  c #BAC480",
"T  c #B0C884",
"R  c #B4C38D",
"E  c #A2C492",
"W  c #ADC095",
"Q  c #A2CA92",
"!  c #A2C09A",
"~  c #AEC89E",
"^  c #B2C395",
"/  c #B3C59B",
"(  c #B3C89D",
")  c #8DC2A5",
"_  c #85C0AD",
"`  c #8BC3AB",
"'  c #92C5A4",
"]  c #93C5AE",
"[  c #84C3B4",
"{  c #88C4B0",
"}  c #80C3BC",
"|  c #94C5B3",
" . c #9BC6B4",
".. c #95C7B8",
"X. c #A9C7AA",
"o. c #AAC8AB",
"O. c #B3C4A2",
"+. c #B8C9A5",
"@. c #B7C6A8",
"#. c #B9C7AA",
"$. c #BDCAAC",
"%. c #A3C8B5",
"&. c #B2CBB3",
"*. c #B7D2BE",
"=. c #D2D49D",
"-. c #FDCD83",
";. c #F4D285",
":. c #FDD484",
">. c #F5D885",
",. c #FED982",
"<. c #FDD48B",
"1. c #FED98D",
"2. c #FDD292",
"3. c #FDD992",
"4. c #FDD69A",
"5. c #FEDA9C",
"6. c #FEE095",
"7. c #C1CBAE",
"8. c #C5CDB0",
"9. c #CCCFB1",
"0. c #CBD5BC",
"q. c #FDD6A2",
"w. c #FEDDA4",
"e. c #FCD7A9",
"r. c #F2DBAA",
"t. c #FEDEAD",
"y. c #FDDFB3",
"u. c #F2DEB8",
"i. c #FDE2A6",
"p. c #FEE1AB",
"a. c #E5E2B9",
"s. c #FEE3B4",
"d. c #FEE8B4",
"f. c #FDE4BB",
"g. c #FCE9BA",
"h. c #99CFC8",
"j. c #C2D6C5",
"k. c #CADAC8",
"l. c #D5DBC4",
"z. c #DDDFCA",
"x. c #EAE4CE",
"c. c #EFE9C8",
"v. c #FDE4C4",
"b. c #FEE9C5",
"n. c #F1E3CB",
"m. c #FEE7CA",
"M. c #FDEACC",
"N. c #E3E4D4",
"B. c #EEE7D5",
"V. c #EFE8D6",
"C. c #E7E7D8",
"Z. c #EEEBDD",
"A. c #F3E7D2",
"S. c #FEECD3",
"D. c #F1ECDC",
"F. c #FEEEDA",
"G. c #FEF3DE",
"H. c #E5ECE3",
"J. c #FEF2E3",
"K. c #F5F2E9",
"L. c #FEF6EC",
"P. c #FEF9EC",
"I. c #FFFBF4",
"U. c #FFFFFF",
"Y. c None",
/* pixels */
"Y.Y.Y.Y.Y.Y.Y.Y.Y.Y.Y.Y.Y.Y.Y.Y.Y.Y.Y.Y.Y.Y.Y.J.J.J.J.J.K.K.K.K.Y.Y.Y.Y.Y.Y.Y.Y.Y.Y.Y.Y.Y.Y.Y.Y.Y.Y.Y.Y.Y.Y.Y.Y.Y.Y.Y.Y.Y.Y.Y.Y.",
"Y.Y.Y.Y.Y.Y.Y.Y.Y.Y.Y.Y.Y.Y.Y.Y.Y.Y.Y.Y.Y.Y.Y.J.J.J.J.J.K.K.K.K.Y.Y.Y.Y.Y.Y.Y.Y.Y.Y.Y.Y.Y.Y.Y.Y.Y.Y.Y.Y.Y.Y.Y.Y.Y.Y.Y.Y.Y.Y.Y.Y.",
"Y.Y.Y.Y.Y.Y.Y.Y.Y.Y.Y.Y.Y.Y.Y.Y.Y.Y.Y.Y.Y.Y.Y.D.D.D.D.H.H.H.H.H.Y.Y.Y.Y.Y.Y.Y.Y.Y.Y.Y.Y.Y.Y.Y.Y.Y.Y.Y.Y.Y.Y.Y.Y.Y.Y.Y.Y.Y.Y.Y.Y.",
"Y.Y.Y.Y.Y.Y.Y.Y.Y.Y.Y.Y.Y.Y.Y.Y.Y.Y.Y.Y.Y.Y.Y.D.D.D.D.D.H.H.H.H.Y.Y.Y.Y.Y.Y.Y.Y.Y.Y.Y.Y.Y.Y.Y.Y.Y.Y.Y.Y.Y.Y.Y.Y.Y.Y.Y.Y.Y.Y.Y.Y.",
"Y.Y.Y.Y.Y.Y.Y.Y.Y.J.J.F.F.S.S.0.0.9.9.7.$.#.@.#.8.$.#.&.h.h.h.h.n.n.A.B.I.U.U.U.Y.Y.Y.Y.Y.Y.Y.Y.Y.Y.Y.Y.Y.Y.Y.Y.Y.Y.Y.Y.Y.Y.Y.Y.",
"Y.Y.Y.Y.Y.Y.Y.Y.Y.J.J.F.F.S.A.0.0.9.9.7.$.#.@.O.H H G J D D D D n.x.n.B.I.U.U.U.U.Y.Y.Y.Y.Y.Y.Y.Y.Y.Y.Y.Y.Y.Y.Y.Y.Y.Y.Y.Y.Y.Y.Y.",
"Y.Y.Y.Y.Y.Y.Y.Y.Y.D.D.V.A.x.x.l.l.8.7.$.#.+.+./ F F F G ` { { [ f.u.f.f.G.P.P.P.P.Y.Y.Y.Y.Y.Y.Y.Y.Y.Y.Y.Y.Y.Y.Y.Y.Y.Y.Y.Y.Y.Y.Y.",
"Y.Y.Y.Y.Y.Y.Y.Y.Y.C.N.N.N.z.z.z.z.7.7.+.+.( ( / ^ ^ F W ) ' ` ` r.r.i.p.S.G.G.G.J.Y.Y.Y.Y.Y.Y.Y.Y.Y.Y.Y.Y.Y.Y.Y.Y.Y.Y.Y.Y.Y.Y.Y.",
"Y.Y.Y.Y.Y.Y.Y.Y.Y.k.k.j.j.*.*.*.*.X.X.~ ~ ^ ^ U Y Y Y U L L L L ;.;.;.:.i.d.g.g.M.Y.Y.Y.Y.Y.Y.Y.Y.Y.Y.Y.Y.Y.Y.Y.Y.Y.Y.Y.Y.Y.Y.Y.",
"Y.Y.Y.Y.Y.Y.Y.Y.Y.%.%. .| J _ D _ ) ) I I P F 7 l l l l j l l l a a a a Z S 1.6.g.J.G.P.J.Y.Y.Y.Y.Y.Y.Y.Y.Y.Y.Y.Y.Y.Y.Y.Y.Y.Y.Y.",
"Y.Y.Y.Y.Y.Y.Y.Y.Y.%.%.| ) ) J D ' K K T T 6 7 x j j z j z z j j a u u q M Z S 1.d.S.S.G.S.Y.Y.Y.Y.Y.Y.Y.Y.Y.Y.Y.Y.Y.Y.Y.Y.Y.Y.Y.",
"Y.Y.Y.Y.Y.Y.Y.Y.Y.....| ` ) ) L K T 6 k l j 9 0 8 8 8 8 8 8 8 8 = = = = d h M N ,.p.p.g.g.Y.Y.Y.Y.Y.Y.Y.Y.Y.Y.Y.Y.Y.Y.Y.Y.Y.Y.Y.",
"Y.Y.Y.Y.Y.Y.Y.Y.Y...| | ] ' K L I 5 5 j z 0 0 8 p w p p w w 8 w * * * * i d h M S 6.i.d.d.Y.Y.Y.Y.Y.Y.Y.Y.Y.Y.Y.Y.Y.Y.Y.Y.Y.Y.Y.",
"Y.Y.Y.Y.Y.Y.Y.Y.Y.} [ ` ' Q I l l t 1 , , , , , , , : > , , , , .   . . $ ; ; > r u b 1.w.I.I.Y.Y.Y.Y.Y.Y.Y.Y.Y.Y.Y.Y.Y.Y.Y.Y.Y.",
"Y.Y.Y.Y.Y.Y.Y.Y.Y.} [ ` ' Q I l l t 1 , , , , , , , : : , , , , . . . . - ; > > r u b 3.i.I.I.Y.Y.Y.Y.Y.Y.Y.Y.Y.Y.Y.Y.Y.Y.Y.Y.Y.",
"Y.Y.Y.Y.G.G.c.a.=.7 c x k z 9 w w t 1 , , , , , , , , , : : ; ; @ @ $ $ : , , , 2 y i M Z p.p.b.b.I.I.Y.Y.Y.Y.Y.Y.Y.Y.Y.Y.Y.Y.Y.",
"Y.Y.Y.Y.J.G.c.a.=.7 5 x x z 9 w w 1 1 , , , , , , , , , , : ; ; @ @ $ ; , , , , 2 y i M Z t.p.v.b.I.I.Y.Y.Y.Y.Y.Y.Y.Y.Y.Y.Y.Y.Y.",
"Y.Y.Y.Y.G.G.b.g.>.q q q q 2 1 2 , , , , , , , , , , , , : : ; - ; ; ; : , , , , , 2 2 i d Z Z f.d.I.I.Y.Y.Y.Y.Y.Y.Y.Y.Y.Y.Y.Y.Y.",
"Y.Y.Y.Y.G.G.M.g.>.e e e e , , , , , , , , , , , , , , , : : : ; : : : : , , , , , , 2 y i m N d.d.I.I.Y.Y.Y.Y.Y.Y.Y.Y.Y.Y.Y.Y.Y.",
"Y.Y.Y.Y.d.d.i.6.N 2 2 1 , , , , , , , , , , , , , , , , , : : : : : : : , , , , , , , 2 y d g 3.3.m.M.Y.Y.Y.Y.Y.Y.Y.Y.Y.Y.Y.Y.Y.",
"Y.Y.Y.Y.w.w.3.<.M , , 2 2 , , , , , , , , , , , , , , , , , : : : : : : , , , , , , , 2 2 i d ,.:.s.f.Y.Y.Y.Y.Y.Y.Y.Y.Y.Y.Y.Y.Y.",
"Y.Y.Y.Y.3.3.:.C h , , , , , , , , , , , , , , , , , , , , , , , : : , : , , , , , , , 2 2 2 y Z Z w.t.Y.Y.Y.Y.Y.Y.Y.Y.Y.Y.Y.Y.Y.",
"Y.Y.Y.Y.:.:.A V d , , , , , , , , , , , , , , , , , , , , , , , : : , , , , , , , , , , , , , M N 5.5.Y.Y.Y.Y.Y.Y.Y.Y.Y.Y.Y.Y.Y.",
"Y.Y.Y.Y.<.<.A Z d , : , , : : : , , , , , , , 2 2 2 y y y y y y : > , , , , , , , , , , , , , d s N m :.Y.Y.Y.Y.Y.Y.Y.Y.Y.Y.Y.Y.",
"Y.Y.Y.Y.3.3.,.A d : : : : - - : , : : , , , , y i i a a h h d g , , 2 2 , , , , , , , , , , , > > * * C 1.t.v.Y.Y.Y.Y.Y.Y.Y.Y.Y.",
"Y.Y.Y.Y.3.3.,.A d : : : : - - : , : : , , , , y i d a g M h g b , , 2 , , , , , , , , , , , , > > $ * V <.y.v.Y.Y.Y.Y.Y.Y.Y.Y.Y.",
"Y.Y.Y.Y.3.3.,.S d ; ; ; - - - : : : : , , , , y d f v v M M N N 2 2 , , , , , , , , , , , , , : ; o o V :.t.v.Y.Y.Y.Y.Y.Y.Y.Y.Y.",
"Y.Y.Y.Y.<.1.S A d ; ; ; ; - - ; : : : : , , , i g m B V S A S S 2 1 , 2 , , , , , , , , , , , : ; o o V :.y.m.Y.Y.Y.Y.Y.Y.Y.Y.Y.",
"Y.Y.Y.Y.g g d d 2 : : : ; - - - - @ @ ; : : > Z p.g.S.F.I.I.I.I.u u u u 2 , , , , , , , , , , - $ X X :.5.S.P.Y.Y.Y.Y.Y.Y.Y.Y.Y.",
"Y.Y.Y.Y.g g d s y : : : ; - - - - @ @ ; : : > Z p.f.S.F.I.I.I.I.u u u i 2 , , , , , , , , , , - - X . :.5.S.P.Y.Y.Y.Y.Y.Y.Y.Y.Y.",
"Y.Y.Y.Y.f f f d y , , ; ; - - - - - - ; : > > Z p.f.S.F.I.I.I.I.s s i i 2 , , , , , , , , , > $ $ + X <.w.S.L.Y.Y.Y.Y.Y.Y.Y.Y.Y.",
"Y.Y.Y.Y.f f d d y , , ; ; - - - - - - : : : > Z p.f.S.G.I.I.U.I.s u i i 2 , , , , , , , , , , $ $ X . <.w.S.L.Y.Y.Y.Y.Y.Y.Y.Y.Y.",
"Y.Y.Y.Y.u i i u 2 : : - - X X - - , , , , , , y g g g m :.:.,.,.2 2 < 2 , , , , , , , , , , , $ $ o o 1.p.G.U.Y.Y.Y.Y.Y.Y.Y.Y.Y.",
"Y.Y.Y.Y.i i u u 2 : - - - X X - - , , , , , , y i u u s V Z Z S 2 2 2 , , , , , , , , , , , > ; $ o o 3.p.J.U.Y.Y.Y.Y.Y.Y.Y.Y.Y.",
"Y.Y.Y.Y.s s u u r : ; - - X @ - - , , , , , , y y i i d N N Z M 2 , 2 2 2 , , , , , , , , , , > > O O <.w.J.U.Y.Y.Y.Y.Y.Y.Y.Y.Y.",
"Y.Y.Y.Y.d d u u < : : - - @ $ - - , , , , , , 2 y i i d M M M Z 2 2 2 2 , , , , , , , , , , , , > % % <.w.J.U.Y.Y.Y.Y.Y.Y.Y.Y.Y.",
"Y.Y.Y.Y.d f s s y > : : : ; ; : : , , , , , , 2 2 2 2 y i i i i 2 , , 2 , , , , , , , , , , > < r 3 3 :.Y.Y.Y.Y.Y.Y.Y.Y.Y.Y.Y.Y.",
"Y.Y.Y.Y.f f d d y , , , , , , , , , , , , , , , , , , , , , , , , , , , , , , , , , , , , : : u u f f Y.Y.Y.Y.Y.Y.Y.Y.Y.Y.Y.Y.Y.",
"Y.Y.Y.Y.g f g d i y 2 2 2 , , , , , , , , , , , , , , , , , , , , , , , , , , , , , , , , : > u u f v Y.Y.Y.Y.Y.Y.Y.Y.Y.Y.Y.Y.Y.",
"Y.Y.Y.Y.g g g g d d d y 2 : : , , , , , , , , , , , , , , , , , , , , , , , , , , , , , : : : u u n n Y.Y.Y.Y.Y.Y.Y.Y.Y.Y.Y.Y.Y.",
"Y.Y.Y.Y.g g g g b b g i i : : > , , , , , , , , , , , , , , , , , , , , , , , , , , , , , ; : u u n B Y.Y.Y.Y.Y.Y.Y.Y.Y.Y.Y.Y.Y.",
"Y.Y.Y.Y.Y.Y.Y.Y.Y.1.:.m g : : > : , , , , , , , , , , , , , , , , , , , , , , , , , : : ; ; ; s s C C Y.Y.Y.Y.Y.Y.Y.Y.Y.Y.Y.Y.Y.",
"Y.Y.Y.Y.Y.Y.Y.Y.Y.1.:.m g , > , , , , , , , , , , , , , , , , , , , , , , , , , , , , : ; - ; s s C -.Y.Y.Y.Y.Y.Y.Y.Y.Y.Y.Y.Y.Y.",
"Y.Y.Y.Y.Y.Y.Y.Y.Y.1.:.V N g g y y , , , , , , , , , , , , , , , , , , , : : : : : ; - - $ @ $ f f 2.2.Y.Y.Y.Y.Y.Y.Y.Y.Y.Y.Y.Y.Y.",
"Y.Y.Y.Y.Y.Y.Y.Y.Y.1.:.Z n g g y y , , , , , , , , , , , , , , , , , , , > : : : ; ; ; - $ @ $ f f 2.2.Y.Y.Y.Y.Y.Y.Y.Y.Y.Y.Y.Y.Y.",
"Y.Y.Y.Y.Y.Y.Y.Y.Y.Y.Y.Y.Y.<.<.g g > > , , , , , , , , , , , , , , , , , : ; - $ @ @ + X . . X f f q.e.Y.Y.Y.Y.Y.Y.Y.Y.Y.Y.Y.Y.Y.",
"Y.Y.Y.Y.Y.Y.Y.Y.Y.Y.Y.Y.Y.<.<.g g 2 > , , , , , , , , , , , , , , , , , : ; ; $ - @ + + X     f f q.e.Y.Y.Y.Y.Y.Y.Y.Y.Y.Y.Y.Y.Y.",
"Y.Y.Y.Y.Y.Y.Y.Y.Y.Y.Y.Y.Y.Y.Y.:.:.A A g i 2 , , : : - - $ ; $ $ ; ; ; $ < r u s s v v b n V C q.q.S.S.Y.Y.Y.Y.Y.Y.Y.Y.Y.Y.Y.Y.Y.",
"Y.Y.Y.Y.Y.Y.Y.Y.Y.Y.Y.Y.Y.Y.Y.1.1.:.:.g d 2 > > ; ; $ - - $ $ ; $ $ $ $ 3 u s f v n n V C -.<.y.t.F.F.Y.Y.Y.Y.Y.Y.Y.Y.Y.Y.Y.Y.Y.",
"Y.Y.Y.Y.Y.Y.Y.Y.Y.Y.Y.Y.Y.Y.Y.Y.Y.t.p.V b r > > $ ; @ @ X X X X   X # # 3 f v v C <.3.5.e.f.y.S.S.L.P.Y.Y.Y.Y.Y.Y.Y.Y.Y.Y.Y.Y.Y.",
"Y.Y.Y.Y.Y.Y.Y.Y.Y.Y.Y.Y.Y.Y.Y.Y.Y.f.f.A m r > > $ $ @ X X X X X     o O 4 v n n -.4.q.t.s.S.S.J.J.I.I.Y.Y.Y.Y.Y.Y.Y.Y.Y.Y.Y.Y.Y.",
"Y.Y.Y.Y.Y.Y.Y.Y.Y.Y.Y.Y.Y.Y.Y.Y.Y.Y.Y.3.1.A Z b d d s f n v v v A C -.-.n Y.Y.Y.Y.Y.Y.Y.Y.Y.Y.Y.Y.Y.Y.Y.Y.Y.Y.Y.Y.Y.Y.Y.Y.Y.Y.Y.",
"Y.Y.Y.Y.Y.Y.Y.Y.Y.Y.Y.Y.Y.Y.Y.Y.Y.Y.Y.w.w.e.w.1.A C C -.4.4.5.5.b.v.v.v.Y.Y.Y.Y.Y.Y.Y.Y.Y.Y.Y.Y.Y.Y.Y.Y.Y.Y.Y.Y.Y.Y.Y.Y.Y.Y.Y.Y.",
"Y.Y.Y.Y.Y.Y.Y.Y.Y.Y.Y.Y.Y.Y.Y.Y.Y.Y.Y.s.s.s.s.5.<.<.-.2.t.e.y.y.G.G.F.G.Y.Y.Y.Y.Y.Y.Y.Y.Y.Y.Y.Y.Y.Y.Y.Y.Y.Y.Y.Y.Y.Y.Y.Y.Y.Y.Y.Y.",
"Y.Y.Y.Y.Y.Y.Y.Y.Y.Y.Y.Y.Y.Y.Y.Y.Y.Y.Y.m.m.m.m.y.5.4.2.q.v.v.S.S.U.U.U.U.Y.Y.Y.Y.Y.Y.Y.Y.Y.Y.Y.Y.Y.Y.Y.Y.Y.Y.Y.Y.Y.Y.Y.Y.Y.Y.Y.Y.",
"Y.Y.Y.Y.Y.Y.Y.Y.Y.Y.Y.Y.Y.Y.Y.Y.Y.Y.Y.m.m.m.m.y.q.4.2.q.v.v.S.m.U.U.U.U.Y.Y.Y.Y.Y.Y.Y.Y.Y.Y.Y.Y.Y.Y.Y.Y.Y.Y.Y.Y.Y.Y.Y.Y.Y.Y.Y.Y.",
"Y.Y.Y.Y.Y.Y.Y.Y.Y.Y.Y.Y.Y.Y.Y.Y.Y.Y.Y.Y.Y.Y.Y.Y.Y.Y.Y.Y.Y.Y.Y.Y.Y.Y.Y.Y.Y.Y.Y.Y.Y.Y.Y.Y.Y.Y.Y.Y.Y.Y.Y.Y.Y.Y.Y.Y.Y.Y.Y.Y.Y.Y.Y.Y.",
"Y.Y.Y.Y.Y.Y.Y.Y.Y.Y.Y.Y.Y.Y.Y.Y.Y.Y.Y.Y.Y.Y.Y.Y.Y.Y.Y.Y.Y.Y.Y.Y.Y.Y.Y.Y.Y.Y.Y.Y.Y.Y.Y.Y.Y.Y.Y.Y.Y.Y.Y.Y.Y.Y.Y.Y.Y.Y.Y.Y.Y.Y.Y.Y.",
"Y.Y.Y.Y.Y.Y.Y.Y.Y.Y.Y.Y.Y.Y.Y.Y.Y.Y.Y.Y.Y.Y.Y.Y.Y.Y.Y.Y.Y.Y.Y.Y.Y.Y.Y.Y.Y.Y.Y.Y.Y.Y.Y.Y.Y.Y.Y.Y.Y.Y.Y.Y.Y.Y.Y.Y.Y.Y.Y.Y.Y.Y.Y.Y.",
"Y.Y.Y.Y.Y.Y.Y.Y.Y.Y.Y.Y.Y.Y.Y.Y.Y.Y.Y.Y.Y.Y.Y.Y.Y.Y.Y.Y.Y.Y.Y.Y.Y.Y.Y.Y.Y.Y.Y.Y.Y.Y.Y.Y.Y.Y.Y.Y.Y.Y.Y.Y.Y.Y.Y.Y.Y.Y.Y.Y.Y.Y.Y.Y."
};
