/* XPM */
static char * o_xpm[] = {
"53 51 128 2",
"  	c None",
". 	c #FFFFFF",
"+ 	c #FDFDFD",
"@ 	c #FDFFFF",
"# 	c #FAC485",
"$ 	c #FDFFFD",
"% 	c #F7941E",
"& 	c #F8931F",
"* 	c #66C7CE",
"= 	c #75C2BC",
"- 	c #F7931E",
"; 	c #F8931E",
"> 	c #F7931D",
", 	c #F9BF79",
"' 	c #6BC6C8",
") 	c #65C7D0",
"! 	c #65C7D2",
"~ 	c #F6931E",
"{ 	c #F7921C",
"] 	c #66C7D0",
"^ 	c #F7941D",
"/ 	c #FFFEFF",
"( 	c #F7931F",
"_ 	c #65C8D0",
": 	c #F8931D",
"< 	c #FFFDFB",
"[ 	c #64C9D0",
"} 	c #66C7CF",
"| 	c #F8941E",
"1 	c #64C8D1",
"2 	c #FDE3C4",
"3 	c #FEF1E2",
"4 	c #FEFEFE",
"5 	c #FFFFFE",
"6 	c #F79320",
"7 	c #66C8D0",
"8 	c #FFCE34",
"9 	c #FECD33",
"0 	c #FFCE33",
"a 	c #FDCE34",
"b 	c #FFCB33",
"c 	c #FEEEDC",
"d 	c #64C8CF",
"e 	c #FEA60B",
"f 	c #FFA60C",
"g 	c #FFCD34",
"h 	c #E2CC50",
"i 	c #FEA70C",
"j 	c #FECB31",
"k 	c #F9941E",
"l 	c #64C7D0",
"m 	c #FEA70A",
"n 	c #FFA50E",
"o 	c #FEFFFE",
"p 	c #80BFB0",
"q 	c #65C8CF",
"r 	c #FECD34",
"s 	c #FEA60A",
"t 	c #FFCD35",
"u 	c #FDCF34",
"v 	c #FFB91F",
"w 	c #FEFFFF",
"x 	c #FFA50B",
"y 	c #F6941D",
"z 	c #FEA50A",
"A 	c #F8921F",
"B 	c #FEFFFD",
"C 	c #FDAC11",
"D 	c #FFA50D",
"E 	c #F69321",
"F 	c #FECE34",
"G 	c #FFCF35",
"H 	c #FEA80D",
"I 	c #F6921F",
"J 	c #F6931D",
"K 	c #FEC930",
"L 	c #FFB61C",
"M 	c #FFAA10",
"N 	c #F7941F",
"O 	c #FEA50B",
"P 	c #F6941E",
"Q 	c #FAAF27",
"R 	c #FDE0C1",
"S 	c #F8941F",
"T 	c #FECE33",
"U 	c #FFA50A",
"V 	c #FDE4C9",
"W 	c #FFA50C",
"X 	c #FFA60B",
"Y 	c #F7921E",
"Z 	c #FFFEFD",
"` 	c #FAB663",
" .	c #F89B21",
"..	c #FB9E14",
"+.	c #FFAA0F",
"@.	c #FCCF33",
"#.	c #FFCE36",
"$.	c #FFCF34",
"%.	c #F8921D",
"&.	c #FBC68A",
"*.	c #F6931C",
"=.	c #FFCD33",
"-.	c #FFA70B",
";.	c #FECE35",
">.	c #F9B25E",
",.	c #FEFCF9",
"'.	c #FEA20F",
").	c #F8971C",
"!.	c #FFFEFE",
"~.	c #FAAA50",
"{.	c #FFBB21",
"].	c #F7921D",
"^.	c #FEA609",
"/.	c #FFA60A",
"(.	c #FEC42A",
"_.	c #FECF34",
":.	c #FFC52C",
"<.	c #FA9817",
"[.	c #FFCE35",
"}.	c #C9CBD5",
"|.	c #F8961D",
"1.	c #F7921F",
"2.	c #FDE6CE",
"3.	c #FD9E13",
"4.	c #F9931D",
"5.	c #FEA30D",
"6.	c #FCD5A8",
"7.	c #FDFFFE",
"                                              . . +                                                       ",
"                                        . . . . . . . @                                                   ",
"                              . . . . . . . . # . . . . $                                                 ",
"                          . . . . . . . . % & * = & . . .                                                 ",
"                  . . . . . . - & ; > . , ' ) ) ) ) & . . .                                               ",
"              . . . . . . . & * ) ) ! ~ { ) ) ) ) ) ] ^ . . . . .                                         ",
"            . . / ( & ; . ( _ ) ) ) ) ) : ) ) ) ) ) ) & . . . . . . .                                     ",
"          . . < ; [ ) } | & ) ) ) ) ) ) 1 ) ) ) ) ) ) & 2 3 4 . 5 . . $                                   ",
"          . . { ) ) ) ) ) 6 ) ) ) 7 8 8 8 8 8 8 8 9 0 8 8 a 8 b & . . .                                   ",
"          . c d ) ) ) ) ) ) ) _ 8 8 8 8 8 8 8 8 8 8 8 e f 8 8 8 g ; . . .                                 ",
"          . & ) ) ) ) ) ) ) h 8 8 8 8 8 8 8 8 8 8 8 8 f f i 8 8 8 j k . . .                               ",
"          . & ) ) ) ) ) l 8 8 8 8 8 8 8 8 8 8 8 8 8 8 f f f m 8 8 8 n ; . . .                             ",
"          . o p ) ) q r 8 8 8 8 8 8 8 8 8 8 8 8 8 8 8 f f f s 8 8 8 8 ; . . .                             ",
"          . . & ) 7 8 8 8 8 8 8 8 8 8 8 8 8 8 8 t f 8 8 u v 8 8 8 8 8 0 & w . .                           ",
"        . . w - g 8 8 8 8 8 8 8 8 8 8 8 8 8 8 8 x f 8 8 8 8 8 8 8 8 8 8 8 y 5 . .                         ",
"        . 5 % 8 8 8 8 8 8 8 8 8 8 8 8 8 8 8 8 8 8 z 8 8 8 8 8 8 8 8 8 8 8 8 A 5 . .                       ",
"        . B 8 8 8 8 8 8 8 8 8 8 8 8 8 8 8 8 8 8 8 8 g f C 8 8 8 8 8 8 8 8 8 D & . . .                     ",
"        . E F 8 8 8 8 8 8 8 8 8 8 8 8 8 8 8 8 8 8 8 G f H 8 8 8 8 8 8 8 8 8 8 - 3 . . .                   ",
"        . I 8 8 8 8 8 8 8 8 8 8 8 8 8 8 8 8 8 8 8 8 8 8 8 8 8 8 8 8 8 8 8 8 8 8 J w . .                   ",
"      . . & 8 8 8 8 8 8 8 8 8 8 8 8 8 8 8 8 8 8 8 8 8 8 8 8 8 8 8 8 8 8 8 8 8 8 8 ( . . .                 ",
"      . . & 8 8 8 8 K 8 8 8 8 8 8 8 8 8 8 8 8 8 8 8 8 8 8 8 8 8 8 8 8 8 8 8 8 8 8 L ( w . .               ",
"      . . % 8 8 8 M f 8 8 8 8 8 8 8 8 8 8 N ; 8 8 8 8 8 8 8 8 8 8 8 8 8 8 8 8 8 8 x O P . .               ",
"      . w Q 8 8 8 f f 8 8 8 8 8 8 8 8 8 8 & 5 R & ( S T 8 8 8 8 8 8 8 8 8 8 8 8 8 U f & . .               ",
"      . V 8 8 8 8 f W 8 8 X f 8 8 8 8 8 Y . . . . . Z N 8 8 8 8 8 8 8 8 8 8 8 8 8 f f & . .               ",
"      . 6 G 8 8 8 8 8 8 9 f f 8 8 8 8 8 ( . . . . . . ~ 8 8 8 8 8 8 8 8 8 8 8 8 8 f f ` . .               ",
"    . . - 8 8 8 8 8 8 8 g f f 8 8 8 8  .w . . . . . . & 8 8 8 8 8 8 8 8 8 8 8 8 8 f ..5 . .               ",
"    . . & 8 8 8 8 X f U 8 8 8 8 8 8 8 > . . . . . . . & 8 8 8 8 8 8 8 8 8 8 8 8 +.f : w . .               ",
"    . . & 8 8 8 @.f f f 8 8 8 8 8 8 8 #.& w . . . . . & 8 8 8 8 8 8 8 8 8 8 8 8 x f { . .                 ",
"    . . - 8 8 8 $.f f f 8 8 8 8 8 8 8 8 8 - %.. &.N *.=.8 8 8 8 8 8 8 8 8 8 8 8 -.f & . .                 ",
"    . . ;.8 8 8 g f f f 8 8 8 8 8 8 8 8 8 8 9 & F 8 8 8 8 8 8 8 8 8 8 8 8 8 8 8 f f & . .                 ",
"    . >.0 8 8 8 8 g m F 8 8 8 8 8 8 8 8 8 8 8 8 8 8 8 8 8 8 8 8 8 8 8 8 8 8 8 8 f f ,.. .                 ",
"    . - '.8 8 8 8 8 8 8 8 8 8 8 8 8 8 8 8 8 8 8 8 8 8 8 8 8 8 8 8 8 8 8 8 8 8 =.f ).!.. .                 ",
"    . . J % 8 8 8 8 8 8 8 8 8 8 8 8 8 8 8 8 8 8 8 8 8 8 8 8 8 8 8 8 8 8 8 8 8 f f - / . .                 ",
"      . . ~.> 8 8 8 8 8 8 8 8 8 8 8 8 8 8 8 8 8 8 8 8 8 8 8 8 8 8 8 8 8 8 8 8 O f - . .                   ",
"        . . . { 8 8 8 8 8 8 8 8 8 8 8 8 8 8 8 8 8 8 8 8 8 8 8 8 8 8 8 8 8 8 8 U f & . .                   ",
"          . . . & {.8 8 8 8 8 8 8 8 8 8 8 8 8 8 8 8 8 8 8 8 8 8 8 8 8 8 8 8 F f f ].. .                   ",
"            . . . & ^.8 8 8 8 8 8 8 8 8 8 8 8 8 8 8 8 8 8 8 8 8 8 8 8 8 8 8 8 f /.5 . .                   ",
"              . . . % f 8 8 8 8 8 8 8 8 8 8 8 8 8 8 8 8 8 8 8 8 8 8 8 8 8 8 (.f - o . .                   ",
"                . . . - D 8 8 8 8 8 8 8 8 8 8 8 8 8 8 8 8 8 8 8 8 8 8 8 _.:.f f & / . .                   ",
"                  . . . - <.8 8 8 8 8 8 8 8 8 8 8 8 8 8 8 8 8 8 [.8 f f f f f f ~ . . }.                  ",
"                    . . . ( - G 8 8 8 8 8 8 8 8 8 8 8 8 =.u f f f f f f U x |.& 1.. .                     ",
"                      . . . 2.~ g 8 8 8 8 8 8 8 g 8 f f f f f f /.X 3.& > 4.. . . . .                     ",
"                          . . w ; :.8 8 8 8 X X f f f f f f 5.; - & / . . . . . . .                       ",
"                            . . o & i /./.f f f f f f > ; & 5 . . . . . . . . .                           ",
"                              . . . & X f f f : > & 3 5 . . . . . . . .                                   ",
"                                . . . > - & 6.7.. . . . . . . .                                           ",
"                                  . . . . . . . . . . . .                                                 ",
"                                    . . . . . . .                                                         ",
"                                        .                                                                 ",
"                                                                                                          ",
"                                                                                                          "};
