/* XPM */
static char * p_xpm[] = {
"64 59 515 2",
"  	c None",
". 	c #FFFFFF",
"+ 	c #FFFEFA",
"@ 	c #FFF7E2",
"# 	c #FFF2DA",
"$ 	c #FFF2D9",
"% 	c #FFF1D9",
"& 	c #FFF1D8",
"* 	c #FFF9EE",
"= 	c #FEFFFF",
"- 	c #FFFDF9",
"; 	c #FEEFD8",
"> 	c #FCCF7F",
", 	c #FCBF4B",
"' 	c #FBBE3F",
") 	c #F4C742",
"! 	c #EFCE44",
"~ 	c #EDCD3E",
"{ 	c #F7E4B2",
"] 	c #FFFAF3",
"^ 	c #FFFDFB",
"/ 	c #FFEBCE",
"( 	c #FAB959",
"_ 	c #EF5935",
": 	c #EE4527",
"< 	c #EF4425",
"[ 	c #C4A036",
"} 	c #98C83F",
"| 	c #99C73D",
"1 	c #98C73D",
"2 	c #D1CB48",
"3 	c #FBE2AA",
"4 	c #FEFBF4",
"5 	c #FFFCF6",
"6 	c #FFFEFE",
"7 	c #FEFFFE",
"8 	c #FFECC8",
"9 	c #F9B562",
"0 	c #EF5825",
"a 	c #ED2023",
"b 	c #ED1624",
"c 	c #ED1424",
"d 	c #BC9B34",
"e 	c #88C83E",
"f 	c #8BC63E",
"g 	c #98C63A",
"h 	c #CCCD59",
"i 	c #FCD77A",
"j 	c #FDDB92",
"k 	c #FFF9EF",
"l 	c #FFFFFE",
"m 	c #FEF2CF",
"n 	c #F8BA7B",
"o 	c #F05E13",
"p 	c #ED1324",
"q 	c #ED1A24",
"r 	c #ED1B24",
"s 	c #ED1824",
"t 	c #BD9B34",
"u 	c #89C73E",
"v 	c #8CC63E",
"w 	c #8AC63E",
"x 	c #9DC73A",
"y 	c #B8C730",
"z 	c #C2CA48",
"A 	c #F7DC97",
"B 	c #FFF7EA",
"C 	c #FFFEFD",
"D 	c #FFE5A6",
"E 	c #F59625",
"F 	c #EC0023",
"G 	c #BD9B35",
"H 	c #89C73F",
"I 	c #88C63E",
"J 	c #91C63D",
"K 	c #C5CA3B",
"L 	c #F3DE9E",
"M 	c #FFE6B5",
"N 	c #FFEECF",
"O 	c #F9B87C",
"P 	c #F16522",
"Q 	c #ED1E24",
"R 	c #8BC53E",
"S 	c #83BE36",
"T 	c #C6C72D",
"U 	c #D5C101",
"V 	c #E6D18A",
"W 	c #FFF3DE",
"X 	c #FEE4BB",
"Y 	c #F79E14",
"Z 	c #EE1E25",
"` 	c #ED1124",
" .	c #ED1724",
"..	c #BD9C35",
"+.	c #89C83F",
"@.	c #8AC43D",
"#.	c #7DBA35",
"$.	c #66AA24",
"%.	c #78B631",
"&.	c #63A925",
"*.	c #A1AA00",
"=.	c #EBD182",
"-.	c #FEF4E2",
";.	c #FFFEFC",
">.	c #FDFFFD",
",.	c #FFECC7",
"'.	c #FAB45A",
").	c #F15D2A",
"!.	c #F05527",
"~.	c #EF4226",
"{.	c #EE2825",
"].	c #89C83E",
"^.	c #8DC73E",
"/.	c #82BE38",
"(.	c #569F19",
"_.	c #4E9B11",
":.	c #509C13",
"<.	c #4E9B12",
"[.	c #4E9A0E",
"}.	c #99AA22",
"|.	c #EED178",
"1.	c #FDF5E4",
"2.	c #FFFCF7",
"3.	c #FDE4C2",
"4.	c #FBBE38",
"5.	c #FBB830",
"6.	c #F68C2C",
"7.	c #F25128",
"8.	c #BF9D35",
"9.	c #81BD37",
"0.	c #539D16",
"a.	c #4D9A10",
"b.	c #4C990F",
"c.	c #4B990F",
"d.	c #569B0E",
"e.	c #95AA2D",
"f.	c #F5D376",
"g.	c #FFF7E9",
"h.	c #FEEECF",
"i.	c #F9BB71",
"j.	c #F16F2B",
"k.	c #F16A28",
"l.	c #F05127",
"m.	c #EF3025",
"n.	c #BE9C35",
"o.	c #539E16",
"p.	c #408C0C",
"q.	c #46990F",
"r.	c #7DA212",
"s.	c #F3CC52",
"t.	c #FFF5E5",
"u.	c #FFF5DB",
"v.	c #F9C18C",
"w.	c #F1670A",
"x.	c #ED0A24",
"y.	c #ED0424",
"z.	c #88C33C",
"A.	c #77B631",
"B.	c #559F18",
"C.	c #4B990E",
"D.	c #549C18",
"E.	c #549C19",
"F.	c #489910",
"G.	c #7FA215",
"H.	c #F3CD55",
"I.	c #FFF6E5",
"J.	c #FFE8B1",
"K.	c #F69B48",
"L.	c #ED0021",
"M.	c #7CB934",
"N.	c #72B22D",
"O.	c #8DC63F",
"P.	c #8AC53D",
"Q.	c #76B530",
"R.	c #71B12D",
"S.	c #77B731",
"T.	c #6BAD28",
"U.	c #47990F",
"V.	c #FFE1A0",
"W.	c #F5940F",
"X.	c #EC0824",
"Y.	c #8BC53D",
"Z.	c #66A925",
"`.	c #469607",
" +	c #69AB27",
".+	c #8DC63E",
"++	c #75B430",
"@+	c #7EA314",
"#+	c #F2CD55",
"$+	c #F5940A",
"%+	c #EC0124",
"&+	c #9AC73D",
"*+	c #A4C73C",
"=+	c #8CC63B",
"-+	c #70B02C",
";+	c #5BA31D",
">+	c #8AC43C",
",+	c #84C039",
"'+	c #8DC73F",
")+	c #FFE4AD",
"!+	c #F79F41",
"~+	c #EE3823",
"{+	c #ED1C24",
"]+	c #89C63E",
"^+	c #C2C939",
"/+	c #E6CD47",
"(+	c #A2CC63",
"_+	c #9BC846",
":+	c #9CC73D",
"<+	c #97C73D",
"[+	c #89C33C",
"}+	c #5FA520",
"|+	c #81BD38",
"1+	c #8CC73F",
"2+	c #75B530",
"3+	c #FFFBF4",
"4+	c #FDDFB1",
"5+	c #F69E34",
"6+	c #EE3525",
"7+	c #ED2F25",
"8+	c #ED1F24",
"9+	c #C4C82F",
"0+	c #FCD987",
"a+	c #F2F0DB",
"b+	c #F1D472",
"c+	c #F1CE45",
"d+	c #F1CF4A",
"e+	c #F2CF4A",
"f+	c #D9CC46",
"g+	c #94C63E",
"h+	c #5EA41F",
"i+	c #7FA314",
"j+	c #FFFAF1",
"k+	c #FDDEB7",
"l+	c #FAB336",
"m+	c #F8AA2E",
"n+	c #EF4E26",
"o+	c #ED0E24",
"p+	c #C4C82C",
"q+	c #FFDC90",
"r+	c #FFF4E2",
"s+	c #FFF2DD",
"t+	c #F9E8BD",
"u+	c #DBCC45",
"v+	c #97C63F",
"w+	c #80BB36",
"x+	c #7FBB36",
"y+	c #8DC740",
"z+	c #77B532",
"A+	c #FFF4E1",
"B+	c #FFE19A",
"C+	c #FDC636",
"D+	c #F5902B",
"E+	c #EE4025",
"F+	c #ED1224",
"G+	c #FFDB8F",
"H+	c #FFFDFA",
"I+	c #F2DE9C",
"J+	c #C3CA42",
"K+	c #93C63E",
"L+	c #FFEABD",
"M+	c #FCC32B",
"N+	c #F5922C",
"O+	c #ED2A24",
"P+	c #ED1924",
"Q+	c #FFF5E4",
"R+	c #F1DD9B",
"S+	c #C5C82E",
"T+	c #FDDDBB",
"U+	c #F6911C",
"V+	c #ED2124",
"W+	c #FFDC8F",
"X+	c #FFF6E7",
"Y+	c #F2DB96",
"Z+	c #C4C830",
"`+	c #8BC63F",
" @	c #77B530",
".@	c #F7BCBA",
"+@	c #EE190E",
"@@	c #EA2426",
"#@	c #BA9D35",
"$@	c #BDC82F",
"%@	c #F5D986",
"&@	c #FEF7E9",
"*@	c #FEDB8C",
"=@	c #C6C93B",
"-@	c #8CC53F",
";@	c #F7BDBA",
">@	c #EE280B",
",@	c #EC2024",
"'@	c #D74D2C",
")@	c #ABA438",
"!@	c #8AC73E",
"~@	c #BBC94B",
"{@	c #F6D367",
"]@	c #FAD366",
"^@	c #F9CF45",
"/@	c #C1C939",
"(@	c #FDE0BC",
"_@	c #F6971C",
":@	c #ED2824",
"<@	c #EB2A25",
"[@	c #BE8834",
"}@	c #97B73C",
"|@	c #8BC73E",
"1@	c #94C63D",
"2@	c #ACC738",
"3@	c #ADC737",
"4@	c #ADC83B",
"5@	c #FFE8BB",
"6@	c #FDC214",
"7@	c #F69528",
"8@	c #EE2D24",
"9@	c #EA2A25",
"0@	c #B1A437",
"a@	c #8CC43E",
"b@	c #72B22E",
"c@	c #80BD37",
"d@	c #7AB833",
"e@	c #5DA41E",
"f@	c #FFE5AD",
"g@	c #FDD17A",
"h@	c #F79929",
"i@	c #F18324",
"j@	c #B1B639",
"k@	c #73B22E",
"l@	c #79B732",
"m@	c #5DA31E",
"n@	c #FFFCF3",
"o@	c #FFF0CD",
"p@	c #FFE0A3",
"q@	c #F9C772",
"r@	c #B4C54B",
"s@	c #85C039",
"t@	c #549E17",
"u@	c #7AB732",
"v@	c #89C43C",
"w@	c #7EBB35",
"x@	c #5BA21D",
"y@	c #45990F",
"z@	c #7CA20E",
"A@	c #F3CC4F",
"B@	c #FCE4A0",
"C@	c #B5CC58",
"D@	c #88C53C",
"E@	c #86C23B",
"F@	c #65A924",
"G@	c #79B832",
"H@	c #58A01A",
"I@	c #4C9A0F",
"J@	c #499A10",
"K@	c #5F9C07",
"L@	c #A4AF37",
"M@	c #F6D78C",
"N@	c #FFF8EC",
"O@	c #B5C839",
"P@	c #88C43C",
"Q@	c #7DBA34",
"R@	c #85C03A",
"S@	c #57A019",
"T@	c #4E9A11",
"U@	c #4C9A10",
"V@	c #599C0C",
"W@	c #A6AF33",
"X@	c #F6D789",
"Y@	c #FEF8EE",
"Z@	c #FAFAFB",
"`@	c #F6F7F8",
" #	c #FFFAF2",
".#	c #FCD676",
"+#	c #B5C734",
"@#	c #88C53F",
"##	c #4F9B12",
"$#	c #569F18",
"%#	c #509B0F",
"&#	c #AEB022",
"*#	c #F4D890",
"=#	c #FFF8ED",
"-#	c #FEFEFF",
";#	c #D0D1DA",
">#	c #AAADBE",
",#	c #FCD576",
"'#	c #88C63F",
")#	c #6FB02B",
"!#	c #64A823",
"~#	c #7BB933",
"{#	c #82BE37",
"]#	c #64A821",
"^#	c #5DA31D",
"/#	c #4F9B10",
"(#	c #B3B106",
"_#	c #EFD899",
":#	c #4B990C",
"<#	c #80BD36",
"[#	c #7CB933",
"}#	c #8CC63F",
"|#	c #5CA31E",
"1#	c #5F9E12",
"2#	c #B7B308",
"3#	c #EED99D",
"4#	c #FFF6E6",
"5#	c #B5C733",
"6#	c #4C990E",
"7#	c #5BA21E",
"8#	c #4A9A10",
"9#	c #519B11",
"0#	c #79A414",
"a#	c #B8B526",
"b#	c #F1D99B",
"c#	c #FBD676",
"d#	c #85C03B",
"e#	c #57A01A",
"f#	c #83BF39",
"g#	c #59A11B",
"h#	c #49990F",
"i#	c #5F9D13",
"j#	c #8FA915",
"k#	c #C2BB3A",
"l#	c #F7D993",
"m#	c #FCD675",
"n#	c #B5C833",
"o#	c #84C03B",
"p#	c #83C039",
"q#	c #86C03A",
"r#	c #81BE39",
"s#	c #66AA27",
"t#	c #509C14",
"u#	c #509B13",
"v#	c #4D9A11",
"w#	c #4B9A10",
"x#	c #649E14",
"y#	c #A0AE1A",
"z#	c #DBC441",
"A#	c #FAD98D",
"B#	c #FFF8EE",
"C#	c #85C13A",
"D#	c #5CA31D",
"E#	c #529D15",
"F#	c #73B32E",
"G#	c #84BF39",
"H#	c #B6B423",
"I#	c #EEC93A",
"J#	c #FBDB90",
"K#	c #FFF9F0",
"L#	c #FBD675",
"M#	c #87C23B",
"N#	c #83BE38",
"O#	c #529A10",
"P#	c #549B11",
"Q#	c #549B10",
"R#	c #549B12",
"S#	c #549B19",
"T#	c #549C26",
"U#	c #589D29",
"V#	c #76A62C",
"W#	c #CCBC37",
"X#	c #F5CC39",
"Y#	c #FDE09C",
"Z#	c #559B11",
"`#	c #BCB525",
" $	c #DABF25",
".$	c #D8BE1D",
"+$	c #D7BE1C",
"@$	c #D8BE1E",
"#$	c #D7BE1E",
"$$	c #D8BD1E",
"%$	c #D9BD1F",
"&$	c #D9BD04",
"*$	c #D9CA77",
"=$	c #D8E1C9",
"-$	c #D8E3D4",
";$	c #DEE6D6",
">$	c #F6EED6",
",$	c #FFF1D6",
"'$	c #FFF7E8",
")$	c #599C11",
"!$	c #DEC129",
"~$	c #FFDF97",
"{$	c #FFEAC2",
"]$	c #FFEAC1",
"^$	c #FFE9C1",
"/$	c #FFE9C0",
"($	c #FFF1D4",
"_$	c #FFFFFA",
":$	c #589B11",
"<$	c #DDC024",
"[$	c #FFFEFF",
"}$	c #FFEBC6",
"|$	c #FFFDFF",
"1$	c #B4C632",
"2$	c #86C43D",
"3$	c #589C11",
"4$	c #FBD575",
"5$	c #A2B21A",
"6$	c #5BA622",
"7$	c #62A722",
"8$	c #599C12",
"9$	c #F9D475",
"0$	c #97A803",
"a$	c #35970B",
"b$	c #42980D",
"c$	c #42980C",
"d$	c #44990F",
"e$	c #DCBF24",
"f$	c #FBD46F",
"g$	c #CFB900",
"h$	c #B8B200",
"i$	c #BAB200",
"j$	c #BCB300",
"k$	c #EDC508",
"l$	c #FFEAC4",
"m$	c #FFE4AE",
"n$	c #FFDE99",
"o$	c #FFDF9B",
"p$	c #FFDE9A",
"                                                                                                                                ",
"                                                                                                                                ",
"                        . . . . . . . . . . . . . . . . . . . . . . . . . . . . . .                                             ",
"                      . . . . . . . . . . . . . . . . . . . . . . . . . . . . . . . .                                           ",
"                  . . + @ # $ % % % % % % % % % % % % % % % % % % % % % % % % % & * . . =                                       ",
"                . . - ; > , ' ) ! ! ! ! ! ! ! ! ! ! ! ! ! ! ! ! ! ! ! ! ! ! ! ! ~ { ] . . .                                     ",
"              . . ^ / ( _ : < [ } | | | | | | | | | | | | | | | | | | | | | | | 1 2 3 4 5 6 .                                   ",
"              . 7 8 9 0 a b c d e f f f f f f f f f f f f f f f f f f f f f f f f g h i j k . . . .                             ",
"              l m n o p q r s t u v v v v v v v v v v v v v v v v v v v v v v v v w x y z A B . . . .                           ",
"              C D E F r r r s G H v v v v v v v v v v v v v v v v v v v v v v v v v f I J K L M # . . . .                       ",
"              6 N O P Q r r s G H v v v v v v v v v v v v v v v v v v v v v v v v v v v R S T U V W . . . 7                     ",
"              . . X Y Z ` b  ...+.v v v v v v v v v v v v v v v v v v v v v v v v v v @.#.$.%.&.*.=.-.;.. 7 >.                  ",
"              . . ,.'.).!.~.{...].v v v v v v v v v v v v v v v v v v v v v v v v v ^./.(._.:.<.[.}.|.1.;.. .                   ",
"              . . 2.3.4.5.6.7.8.].v v v v v v v v v v v v v v v v v v v v v v v v v ^.9.0.a.a.b.c.d.e.f.g.. .                   ",
"              . = h.i.j.k.l.m.n.].v v v v v v v v v v v v v v v v v v v v v v v v v ^.9.o.a.a.p.p.q.r.s.t.. .                   ",
"              l u.v.w.x.y.` b ..].v v v v v v v v v v v v v v v v v v v v v v v v ^.^.z.A.B.C.D.E.F.G.H.I.. .                   ",
"              C J.K.L.r r r s ..].v v v v v v v v v v v v v v v v v v v v v v v M.N.#.O.P.Q.R.S.T.U.G.H.I.. .                   ",
"            . C V.W.X.r r r s ..].v v v v v v v v v v v v f w v v v v v v v v Y.Z.`. +v ^..+.+v ++U.@+#+I.. .                   ",
"            . C V.$+%+r r r s ..].v v v v v v v v v v v f &+*+=+w f f f f v v R -+;+N.>+,+Y.v '+Q.U.@+#+I.. .                   ",
"            . C )+!+~+{+r r s ..].v v v v v v v v v v v ]+^+/+(+_+:+:+:+<+v v v @.[+Y./.}+|+R 1+2+U.@+#+I.. .                   ",
"              . 3+4+5+6+7+8+s ..].v v v v v v v v v v v I 9+0+a+b+c+d+e+f+g+O.v v v '+/.(.h+9.'+Q.U.i+#+I.. .                   ",
"              . . j+k+l+m+n+o+..].v v v v v v v v v v v I p+q+2.r+s+s+W t+u+v+f v v v [+w+x+z.y+z+U.i+H.I.. .                   ",
"              . . A+B+C+D+E+F+..].v v v v v v v v v v v I p+G+H+. . . I.I+J+K+v v v v v O.'+v '+z+U.i+H.I.. .                   ",
"              . . L+M+N+O+ .P+..].v v v v v v v v v v v I p+G+H+. . Q+R+S+v v v v v v v v v v '+A.U.i+H.I.. .                   ",
"              . . T+U+V+r r s ..].v v v v v v v v v v v I p+W+^ . X+Y+Z+`+v v v v v v v v v v '+ @U.i+H.I.. .                   ",
"              . . .@+@r r {+@@#@].v v v v v v v v v v v ]+$@%@&@g.*@=@-@v v v v v v v v v v v '+ @U.i+H.I.. .                   ",
"              . . ;@>@{+r ,@'@)@!@v v v v v v v v v v v v J ~@{@]@^@/@I v v v v v v v v v v v '+ @U.i+H.I.. .                   ",
"              . . (@_@:@r <@[@}@|@v v v v v v v v v v v v f 1@2@3@4@&+f v v v v v v v v v v v .+Q.U.i+H.I.. .                   ",
"              . . 5@6@7@8@9@0@a@v v v @.b@c@.+v v v v v v v f ]+]+]+f v v v v v v v v v v v .+d@e@U.i+H.I.. .                   ",
"                . r+f@g@h@i@j@+.v v z.k@(.l@'+v v ^.v v v v v v v v v v v v v v v v v v v v d@m@C.U.i+H.I.. .                   ",
"                  . n@o@p@q@r@]+v .+s@t@C.u@'+v v@w@v@v v v v v v v v v v v v v v v v v Y.M.x@C.a.y@z@A@t.. .                   ",
"                    . . 3+B@C@D@v v E@F@}+w@'+v@G@;+,+^.v v v v v v v v v v v v v v v P.w@H@I@a.J@K@L@M@N@. .                   ",
"                      . ] i O@I v v v v@P@Y.'+Q@0.(.R@'+v v v v v v v v v v v v v v Y.w@S@T@a.U@V@W@X@Y@l Z@`@                  ",
"                         #.#+#@#v v v v Y.P.v M.##$#,+^.v v v v v v v v v v v v v v M.H@T@a.a.%#&#*#=#6 -#;#>#                  ",
"                         #,#+#'#v v v Y.)#!#~#{#]#^#,+.+v v v v v v v v v v v v v u@x@I@a.a./#(#_#g.. .                         ",
"                         #,#+#I v v z.-+t@:#R.v@<#[#v@v v v v v v v v v v v v }#l@|#C.U@U@1#2#3#4#. .                           ",
"                         #.#5#I v .+R@B.b.6#R.^..+^.v v v v v v v v .+'+'+'+R d@7#C.8#9#0#a#b#4#. . .                           ",
"                         #c#5#I v O.d#e#I@6#R..+v .+.+.+v v .+.+O.v f#w@w@w@~#g#b.h#i#j#k#l#g.. . .                             ",
"                      . ] m#n#I v }#o#(.b.C.R.^.Y.R@,+,+p#p#,+s@q#r#s###t#:.u#v#w#x#y#z#A#B#. .                                 ",
"                      . ] m#n#I v v C#D#0.E#F#'+G#x@B.$#$#B.$#$#(.B.t#a.a.a.a.9#i#H#I#J#K#6 .                                   ",
"                      . ] L#n#I v v Y.f#/./.M#^.N#o.b.O#P#Q#Q#P#R#P#Q#Q#S#T#U#V#W#X#Y#=#l .                                     ",
"                      . ] m#n#I v v v ^.^.^.v ^.N#t@Z#`# $.$+$@$#$$$%$&$*$=$-$;$>$,$'$. .                                       ",
"                      . ] m#n#I v v v v v v v ^.N#t@)$!$~${$]$]$]$^$^$/$($_$. . . . . .                                         ",
"                      . ] m#n#I v v v v v v v ^.N#t@:$<$,.. . . . . . . . . . . . . [$                                          ",
"                      . ] m#n#I v v v v v v v ^.N#t@:$<$}$. . . . . . . . . . . . [$|$                                          ",
"                      . ] m#n#I v v v v v v v ^.N#t@:$<$}$. . =                                                                 ",
"                      . ] m#1$2$@.@.@.@.@.@.@.Y.9.t@3$<$}$. . .                                                                 ",
"                      . ] 4$5$6$7$7$7$7$7$7$7$7$h+##8$<$}$. . .                                                                 ",
"                      . ] 9$0$a$b$b$b$b$b$b$b$c$b$d$9#e$}$. . .                                                                 ",
"                      . ] f$g$h$i$i$i$i$i$i$i$i$i$i$j$k$l$. . .                                                                 ",
"                      . 2.m$n$o$o$o$o$o$o$o$o$o$o$o$o$p$% . . .                                                                 ",
"                      . . C ;.;.;.;.;.;.;.;.;.;.;.;.;.;.6 . .                                                                   ",
"                        . . . . . . . . . . . . . . . . . 7 >.                                                                  ",
"                          . . . . . . . . . . . . . . . .                                                                       ",
"                                                                                                                                ",
"                                                                                                                                ",
"                                                                                                                                ",
"                                                                                                                                ",
"                                                                                                                                "};
