/* XPM */
static char *q[] = {
/* columns rows colors chars-per-pixel */
"64 64 219 2 ",
"   c #E9CE3C",
".  c #FCCE36",
"X  c #ABCA78",
"o  c #B9CB75",
"O  c #D6CE44",
"+  c #D9CE47",
"@  c #CACD56",
"#  c #D0CE51",
"$  c #E5CD45",
"%  c #E2CD48",
"&  c #EACD48",
"*  c #E4D14B",
"=  c #E0D559",
"-  c #C4CB6C",
";  c #C9CE69",
":  c #CED166",
">  c #D8D46A",
",  c #C1CB71",
"<  c #D5D678",
"1  c #D2CF60",
"2  c #E8D867",
"3  c #F4D862",
"4  c #E4DD7B",
"5  c #EADC77",
"6  c #F3DF7D",
"7  c #3DABB5",
"8  c #52B096",
"9  c #54B198",
"0  c #5BB59C",
"q  c #48AC9F",
"w  c #44ADAA",
"e  c #4AAEA3",
"r  c #47B0AF",
"t  c #4DB2AA",
"y  c #5EBBAC",
"u  c #5AB6A6",
"i  c #44AEB3",
"p  c #41AEB8",
"a  c #44B0B9",
"s  c #4AB4BC",
"d  c #4BB2B2",
"f  c #50B6B5",
"g  c #5CBCB3",
"h  c #50B7BA",
"j  c #54BABD",
"k  c #5CBCBD",
"l  c #59B7B6",
"z  c #68B9A5",
"x  c #64BBAD",
"c  c #66BAA7",
"v  c #64BCB3",
"b  c #61BDBC",
"n  c #6BBBB1",
"m  c #74BFB2",
"M  c #6EC0A6",
"N  c #74C5AB",
"B  c #79C5AA",
"V  c #7ECAAE",
"C  c #74C7A4",
"Z  c #6CC4B5",
"A  c #65C1BB",
"S  c #6CC5BB",
"D  c #66C3B9",
"F  c #72C5B4",
"G  c #76C9B7",
"H  c #7DC9B4",
"J  c #73C5BC",
"K  c #7AC6BB",
"L  c #75C9BD",
"P  c #7BCBBD",
"I  c #78C7B5",
"U  c #4DB6C1",
"Y  c #4FB8C2",
"T  c #53BBC4",
"R  c #5ABEC3",
"E  c #57BEC8",
"W  c #58BEC8",
"Q  c #62BEC2",
"!  c #5EC1C7",
"~  c #5DC2CB",
"^  c #64C4C4",
"/  c #6BC6C4",
"(  c #6EC8C4",
")  c #64C6CE",
"_  c #69C7CB",
"`  c #6BC8CB",
"'  c #75C7C0",
"]  c #73C9C3",
"[  c #7CCDC4",
"{  c #73CBCA",
"}  c #7DCEC9",
"|  c #65C7D0",
" . c #99C888",
".. c #9BCA99",
"X. c #9BCA97",
"o. c #A7CA85",
"O. c #B2CA80",
"+. c #A3CA90",
"@. c #84CBAB",
"#. c #8ACCAC",
"$. c #8AC9A8",
"%. c #93CDAA",
"&. c #95D1AC",
"*. c #84C6B4",
"=. c #83CBB2",
"-. c #84CCBD",
";. c #89CAB7",
":. c #8DD2BC",
">. c #9BD5B4",
",. c #93D3BA",
"<. c #98D4B8",
"1. c #A6D4A9",
"2. c #A2D9B3",
"3. c #A3D6BB",
"4. c #A5D9BD",
"5. c #ABDBBC",
"6. c #ABD9B1",
"7. c #B4DEBD",
"8. c #B2DCB1",
"9. c #B8DCAB",
"0. c #BAE1BC",
"q. c #B3E0BF",
"w. c #CFD785",
"e. c #D2DA8A",
"r. c #E3DF85",
"t. c #ECDF83",
"y. c #DBE193",
"u. c #DBE399",
"i. c #D4E29A",
"p. c #E3E18C",
"a. c #ECE18A",
"s. c #F1E38F",
"d. c #E8E498",
"f. c #D9E6A5",
"g. c #C7E6BF",
"h. c #CCE1AA",
"j. c #E8E7A5",
"k. c #EAEAAD",
"l. c #E6E8A9",
"z. c #F0E9AA",
"x. c #E7EBB4",
"c. c #E6EDBD",
"v. c #ECEDBC",
"b. c #EBEBB3",
"n. c #F1EDBA",
"m. c #81CDC3",
"M. c #8DCEC5",
"N. c #96CFC3",
"B. c #85D0C5",
"V. c #8AD2C4",
"C. c #84D1C9",
"Z. c #94D4C3",
"A. c #9AD5C3",
"S. c #95D6C9",
"D. c #9AD5CA",
"F. c #9DD9CA",
"G. c #9DD3D2",
"H. c #A2D7C4",
"J. c #A4D9C6",
"K. c #ADDBC5",
"L. c #A3DBC9",
"P. c #ACDCC8",
"I. c #A4D4C8",
"U. c #B2DDC6",
"Y. c #B3DECA",
"T. c #B9DDD5",
"R. c #B5E0C6",
"E. c #BCE2C6",
"W. c #B7E0CD",
"Q. c #BDE2CB",
"!. c #BBE2D2",
"~. c #B1E0D0",
"^. c #C2E4C6",
"/. c #CBE8C5",
"(. c #C3E5CA",
"). c #CBE7CA",
"_. c #CDE9CC",
"`. c #C9E7C2",
"'. c #D2EACD",
"]. c #DCEDC4",
"[. c #C2E5D2",
"{. c #CBE7D0",
"}. c #CEE9D4",
"|. c #CEEAD8",
" X c #C5E2D9",
".X c #D4EBD4",
"XX c #DAEFD5",
"oX c #D4ECDC",
"OX c #DBEDDB",
"+X c #D6E7DE",
"@X c #DEF1DA",
"#X c #DCF0D7",
"$X c #E9EFC4",
"%X c #E2F1CE",
"&X c #EDF1CD",
"*X c #E4F2D3",
"=X c #E2F1DB",
"-X c #E9F3DD",
";X c #EEF3D6",
":X c #F2F4D6",
">X c #F1F2CE",
",X c #CFE6E0",
"<X c #D2E7E6",
"1X c #D9EAE6",
"2X c #DEF1E1",
"3X c #DEF0E9",
"4X c #EAEFE7",
"5X c #E3F3E2",
"6X c #E9F2E5",
"7X c #E4F2EC",
"8X c #ECF5EB",
"9X c #F0F8E7",
"0X c #F4F9EB",
"qX c #F1F7E4",
"wX c #EBF5F1",
"eX c #F8FBF3",
"rX c #FCFDFC",
"tX c #F3F7F3",
"yX c None",
/* pixels */
"yXyXyXyXyXyXyXyXyXyXyXyXyXyXyXyXyXyXyXyXyXyXyXyXyXyXyXyXyXyXyXyXyXyXyXyXyXyXyXyXyXyXyXyXyXyXyXyXyXyXyXyXyXyXyXyXyXyXyXyXyXyXyXyX",
"yXyXyXyXyXyXyXyXyXyXyXyXyXyXyXyXyXyXyXyXyXyXyXyXyXyXyXyXyXyXyXyXyXyXyXyXyXyXyXyXyXyXyXyXyXyXyXyXyXyXyXyXyXyXyXyXyXyXyXyXyXyXyXyX",
"yXyXyXyXyXyXyXyXyXyXyXyXyXyXyXyXyXyXyXyXyXyXyXyXyXyXyXyXyXyXyXyXyXyXyXyXyXyXyXyXyXyXyXyXyXyXyXyXyXyXyXyXyXyXyXyXyXyXyXyXyXyXyXyX",
"yXyXyXyXyXyXyXyXyXyXyXyXyXyXyXyXyXyXyXyXyXyXyXyXyXyXyXyXyXyXyXyXyXyXyXyXyXyXyXyXyXyXyXyXyXyXyXyXyXyXyXyXyXyXyXyXyXyXyXyXyXyXyXyX",
"yXyXyXyXyXyXyXyXyXyXyXyXyXyXyXyXyXyXyX*X*X*X*X-X9X9X9X;Xl.j.d.d.$X$X$X$XyXyXyXyXyXyXyXyXyXyXyXyXyXyXyXyXyXyXyXyXyXyXyXyXyXyXyXyX",
"yXyXyXyXyXyXyXyXyXyXyXyXyXyXyXyXyXyXyX*X*X*X*X-X9X9X9X:Xj.j.d.d.$X$X$X$XyXyXyXyXyXyXyXyXyXyXyXyXyXyXyXyXyXyXyXyXyXyXyXyXyXyXyXyX",
"yXyXyXyXyXyXyXyXyXyXyXyXyXyXyXyXyXyXyXc.c.c.c.$X&X&X>Xn.d.d.s.d.x.x.x.x.yXyXyXyXyXyXyXyXyXyXyXyXyXyXyXyXyXyXyXyXyXyXyXyXyXyXyXyX",
"yXyXyXyXyXyXyXyXyXyXyXyXyXyXyXyXyXyXyXx.k.k.x.b.v.v.n.b.a.a.a.a.l.l.l.x.yXyXyXyXyXyXyXyXyXyXyXyXyXyXyXyXyXyXyXyXyXyXyXyXyXyXyXyX",
"yXyXyXyXyXyXyXyXyXyXyXyXyXyXyXyXyXyXyXp.a.4 5 4 r.e.r.4 3 3 3 3 4 4 p.p.l.yXyXyXyXyXyXyXyXyXyXyXyXyXyXyXyXyXyXyXyXyXyXyXyXyXyXyX",
"yXyXyXyXyXyXyXyXyXrXeXeXqX$X$Xv.v.f.f.> 2 &     O O O O . . . . * + = = f.].%X*X6XeXeXeXeXyXyXyXyXyXyXyXyXyXyXyXyXyXyXyXyXyXyXyX",
"yXyXyXyXyXyXyXyXyXeX0X:X>Xb.b.k.k.i.i.> 2 * $ O # @ @ @ & & & & @ @ 1 : h.`.'.'.@X8X8X8X8XyXyXyXyXyXyXyXyXyXyXyXyXyXyXyXyXyXyXyX",
"yXyXyXyXyXyXyXyXyX:X>Xn.n.s.s.t.t.e.e.> : 1 1 - o X X X - - - - X X X X 6.K.U.U.Q.|..XoXoXyXyXyXyXyXyXyXyXyXyXyXyXyXyXyXyXyXyXyX",
"yXyXyXyXyXyXyXyXyX>X$Xk.z.6 6 5 5 < < < : ; - o X o. . .O.O.O.O. . . . .,.Z.F.J.~.Q.[.|.|.yXyXyXyXyXyXyXyXyXyXyXyXyXyXyXyXyXyXyX",
"yXyXyXyXyXyXyXyXyXu.r.5 3 . . $ $ $ % , o +.X.@.S / ) ) _ _ | | Y ! Y ! T T k D F =.,.K.!.eXeXyXyXyXyXyXyXyXyXyXyXyXyXyXyXyXyXyX",
"yXyXyXyXyXyXyXyXyXu.r.5 2 . . % % % % , o +...*.J ( | | _ _ ) ) T T T Y T T k D F H :.K.!.eXtXyXyXyXyXyXyXyXyXyXyXyXyXyXyXyXyXyX",
"yXyXyXyXyXyXyXyXyXu.y.r.4 O O - - O.o.X...#.*.K ` ` | | | | _ _ T T T T T T T T ^ ] m.S.L.).{.2X2XyXyXyXyXyXyXyXyXyXyXyXyXyXyXyX",
"yXyXyXyXyXyXyXyXyXu.p.r.4 O O - - O.o.+...$.*.L _ _ | | | | _ _ T Y T T T T T T ^ ] [ S.L.}.}.2X2XyXyXyXyXyXyXyXyXyXyXyXyXyXyXyX",
"yXyXyXyXyXyXyXyXyXu.u.e.w.- , X.X.] ] ( ` _ ) ) | | | | | | | | ~ ~ T T Y U T T ! | ` C.V.5.5.oXoXrXrXyXyXyXyXyXyXyXyXyXyXyXyXyX",
"yXyXyXyXyXyXyXyXyXu.y.e.w.- o ....] / _ _ | | | | | | | | | | | T ~ T T Y U Y T ! ) ` C.V.4.5.oXoXrXrXyXyXyXyXyXyXyXyXyXyXyXyXyX",
"yXyXyXyXyXyXyXyXyX9.9.1.1.$...H H _ _ ) | | _ _ ) | | | | | ) ) U U Y Y T Y T E ~ ) ` { ] B.V.!.!.5X6XyXyXyXyXyXyXyXyXyXyXyXyXyX",
"yXyXyXyXyXyXyXyXyX8.6.2.&.@.@.K K ` _ ) | _ _ _ ) | | | | | | | U U U U Y T E T ~ | | { { [ B.~.~.2X5XyXyXyXyXyXyXyXyXyXyXyXyXyX",
"yXyXyXyXyXyXyXyXyX4.<.Z.:.( ( _ _ ) | | | | | | ) ) ) | | | W W U U U U T T T ! ~ | | ` ` ( ( L.L.|.oXyXyXyXyXyXyXyXyXyXyXyXyXyX",
"yXyXyXyXyXyXyXyXyX<.Z.V.C.| | | | | | | ) ) | | ) ) ) ) Q W W W U U U U Y T T W ~ | | _ ` ^ / F.F.{.{.yXyXyXyXyXyXyXyXyXyXyXyXyX",
"yXyXyXyXyXyXyXyXyX,.:.m.[ ) | | | | | ) ~ W E W R k k R Q Q b b D A A A ! ! ! ! ) | | ` ^ ) ^ V.V.4.4.Y.[.5X0XyXyXyXyXyXyXyXyXyX",
"yXyXyXyXyXyXyXyXyX;.;.K ] ) ) | | | | W W U s h f f t t x x x x H H H H ^ W ^ ^ ) | ) ^ ^ | ) L K @.*.Y.[.5X0XyXyXyXyXyXyXyXyXyX",
"yXyXyXyXyXyXyXyXyX#.=.L J ) ) | | | | W T s s s t t t u x x x x =.=.=.=./ ) ) ) ) | ) ^ ^ | ) S S m m Y.!.5X0XyXyXyXyXyXyXyXyXyX",
"yXyXyXyXyXyXyXyXyX@.V G L | ) ) | | | T Y s p i e e e e z z z z &.&.#.#.] _ ) ) ) ) | ) | | ) b b z z J.!.5X0XyXyXyXyXyXyXyXyXyX",
"yXyXyXyXyXyXyXyXyX=.H F J W ~ ) ) ) ) R Y h s l x n n m ;.*.;.;.4.5.2.2.m.] { ( _ ) ) ) | | ) k l c c J.T.2XqXyXyXyXyXyXyXyXyXyX",
"yXyXyXyXyXyXyXyXyXP J b k U U W E Q Q b b b b M.T. X+X1X4X7X7XwX5X5X=X@XK.>.,.,.[ ) | | ) ) ) j j i i A.K._.*XyXyXyXyXyXyXyXyXyX",
"yXyXyXyXyXyXyXyXyXP L b k U U W E Q Q Q b b b M.T. X<X4X7X7XwXwX5X5X@X@X5.>.,.:.[ ) ) | ) ) ) j j i i N.K.'.*XyXyXyXyXyXyXyXyXyX",
"yXyXyXyXyXyXyXyXyXP P / ^ U U W E | | Q Q b b G.,X1X4X4XeXeXrXrX9X9X5X5XR.2.>.,.[ ) | ) ) | ) T T 7 7 M.L._.%XyXyXyXyXyXyXyXyXyX",
"yXyXyXyXyXyXyXyXyXP L / ^ U U W E | | Q Q b b G.,X1X4X4XeXeXrXrX9X9X5X=Xq.2.>.,.[ ) ) ) ) | ) T T 7 7 V.L._.%XyXyXyXyXyXyXyXyXyX",
"yXyXyXyX%X%X'.(.:.k h ! ! U ! | | | | Q Q b b G.<X3XtX5X/./././.G F G G >.6.2.>.P ( ^ ^ ` ) ~ g g 8 8 F.T.7XrXyXyXyXyXyXyXyXyXyX",
"yXyXyXyX%X%X_.(.Z.j j ! U U ! | | | | Q Q b b G.<X3XtX7X/./././.F F G G >.8.2.>.-.^ ^ ^ ^ ) ) g g 8 8 F.T.7XrXyXyXyXyXyXyXyXyXyX",
"yXyXyXyX*X*X_.Q.Z.D k j ! ! ! ~ ~ | | / / b x D.<X3XtX7XE.E.0.0.G L L L >.2.>.:.P ( ^ ^ ^ ) ) g g 8 8 J.T.7XrXyXyXyXyXyXyXyXyXyX",
"yXyXyXyX*X*X'.Q.Z.g h ! ! ! ! ~ ~ | | / / n x D.<X3XeX5X^.^.0.0.L L L L >.2.,.:.P ^ ^ ^ ^ | ) g g 8 8 H.T.7XrXyXyXyXyXyXyXyXyXyX",
"yXyXyXyX@X@X}.!.S.^ ^ ^ ! ~ ! ~ ~ W ~ ] J @.@.3.Q.).'.Q.C.C.} } ^ ` ` ) { { { ( ` ) ) ~ ~ ~ ~ D A M M yXyXyXyXyXyXyXyXyXyXyXyXyX",
"yXyXyXyX@X@X}.[.S.^ ^ ^ ! ~ ~ ~ ~ W E J K #.%.5.U.0.g.U.{ { | | | ) ) | | | | | ) ) ~ ~ ~ ~ ~ S S N B yXyXyXyXyXyXyXyXyXyXyXyXyX",
"yXyXyXyX#X#X{.!.F.^ ^ ! ! ! ~ ! T T T A F @.#.2.5.7.0.5.( ( ) ^ ) ) ) | | | | | ) ^ ) ~ ) ~ ~ L S =.*.yXyXyXyXyXyXyXyXyXyXyXyXyX",
"yXyXyXyXXXXX{.!.S.^ ^ ! ! ! ! U U Y Y D Z V @.&.5.7.7.3.] L ^ ^ ) | ) ) | | | | ) ^ ^ ) ) ~ ~ L K ;.#.yXyXyXyXyXyXyXyXyXyXyXyXyX",
"yXyXyXyX'.'._.W.S.^ ^ ~ ~ ~ ! s U a a k A S G ;.,.,.>.&.G F D Z ) ) | | | | | | ) ) ) ) ) ~ ~ L ' <.<.yXyXyXyXyXyXyXyXyXyXyXyXyX",
"yXyXyXyX/./.E.R.Z.^ ` ~ ~ ~ ! a a 7 7 U T ! ^ S G H @.@.B C C C ) ) | | | | | | | | ) ) ~ ~ ~ [ m.U.Y.yXyXyXyXyXyXyXyXyXyXyXyXyX",
"yXyXyXyX/./.E.R.F.] ( _ ^ ~ ~ h s p 7 T ! ^ ^ S L H V H N F C C ) ) | | | | | | | | | ) ) ~ ^ [ m.K.K.yXyXyXyXyXyXyXyXyXyXyXyXyX",
"yXyXyXyX/./.E.R.L.V.B.[ { ~ ~ ~ Q U U W ! ^ ^ ( ] L L K G F Z Z | | | | | | | | | | | ) ) ~ ) [ [ A.A.U.R.yXyXyXyXyXyXyXyXyXyXyX",
"yXyXyXyX/./.E.R.L.F.Z.B.[ ~ ~ ~ ~ Y Y ~ ~ ) ^ ( ] ] ' J S S S S | | | | | | | | | | | ) ) ~ ) { [ V.,.U.Y.yXyXyXyXyXyXyXyXyXyXyX",
"yXyXyXyXyXyXyXyXyX/.E.L.F.^ ^ ~ ~ | ) ) ~ | | ) | | | | | | | | | | | | | | | | | | | ) | | | ` _ L L P.Q..X=XyXyXyXyXyXyXyXyXyX",
"yXyXyXyXyXyXyXyXyX_.E.L.F.^ ( ~ ~ ) | | ) | | | | | | | | | | | | | | | | | | | | | | | ) | | ( ` ] L P.Q.oX@XOXyXyXyXyXyXyXyXyX",
"yXyXyXyXyXyXyXyXyXyXyXP.P.Z.S.} } ` _ ) ) ) | | | | | | | | | | | | | | ~ ~ ~ ~ ~ | | | | | | ) _ / / V.V.A.J.W.[.[.yXyXyXyXyXyX",
"yXyXyXyXyXyXyXyXyXyXyXR.L.F.Z.} [ ` _ | ) | | | | | | | | | | | | | | | ~ ~ ~ ~ ~ | | | | | | _ _ / / B.V.A.H.W.[.[.yXyXyXyXyXyX",
"yXyXyXyXyXyXyXyXyXyXyXyXyX(.Q.F.S.( ( | ) | | | | | | | | | | | | | | | ~ T ~ T ~ | | ) ) | ) ) ) | ) D D v x ,.(.{.=X=XyXyXyXyX",
"yXyXyXyXyXyXyXyXyXyXyXyXyX(.E.F.S.( / ) ) | | ) | | | | | | | ) | | | | ~ E ~ ! ~ | | ) ) ) | ) ) ) ) A v v y ,.(.{.=X=XyXyXyXyX",
"yXyXyXyXyXyXyXyXyXyXyXyXyXyXyXL.K.Z.S.[ ( ^ ^ ! k T E T j j j j g D g g D D F S ' ' K / ^ T T j j T j g v N B 4.{.XX-X-XyXyXyXyX",
"yXyXyXyXyXyXyXyXyXyXyXyXyXyXyXR.P.H.H.P ] ^ ! R j j T j s h f f y y y y F F F G P P L S A U T h s h h v x B @.5._..X-X-XyXyXyXyX",
"yXyXyXyXyXyXyXyXyXyXyXyXyXyXyXyXyXR.R.B.L A k h s s s s r r r w 0 u 0 0 C V V @.@.=.H F D a s w r r r z N @.$.7.}.OX4X6XyXyXyXyX",
"yXyXyXyXyXyXyXyXyXyXyXyXyXyXyXyXyX^.^.:.P A j s a a a p w w w w 9 0 0 0 B @.@.@.#.#.=.F Z p a w w w w m B $.%.7..XOX6X4XyXyXyXyX",
"yXyXyXyXyXyXyXyXyXyXyXyXyXyXyXyXyXyXyXA.Z.M.-.K L ' K ' *.K -.-.<.N.A.<.K.W.W.W.W.W.U.J.A.K K K H -.-.,.<.%.yXyXyXyXyXyXyXyXyXyX",
"yXyXyXyXyXyXyXyXyXyXyXyXyXyXyXyXyXyXyXU.U.K.K.K.L.J.J.J.Y.Y.Q.Q.<X<X<X<X7X7X7X3X3X@XOX}.[.4.4.R.U.[.{.Y.U.yXyXyXyXyXyXyXyXyXyXyX",
"yXyXyXyXyXyXyXyXyXyXyXyXyXyXyXyXyXyXyXE.^.Y.Y.U.Y.K.U.U.(.).}..X7X7X7X7X8XwXwXwXwX8X7XoX|.q.q.(.(.|.|.Q.U.yXyXyXyXyXyXyXyXyXyXyX",
"yXyXyXyXyXyXyXyXyXyXyXyXyXyXyXyXyXyXyX).).`.`./.(.^.^.).*X*X-X-XrXrXrXrXrXrXrXrXrXrXeX5X@Xg.g.XXXX5X5XyXyXyXyXyXyXyXyXyXyXyXyXyX",
"yXyXyXyXyXyXyXyXyXyXyXyXyXyXyXyXyXyXyX).).).)./.(.(.(._.*X*X-X-XrXrXrXrXrXrXrXrXrXrXtX5X@Xg.g.#XXX=X5XyXyXyXyXyXyXyXyXyXyXyXyXyX",
"yXyXyXyXyXyXyXyXyXyXyXyXyXyXyXyXyXyXyXyXyXyXyXyXyXyXyXyXyXyXyXyXyXyXyXyXyXyXyXyXyXyXyXyXyXyXyXyXyXyXyXyXyXyXyXyXyXyXyXyXyXyXyXyX",
"yXyXyXyXyXyXyXyXyXyXyXyXyXyXyXyXyXyXyXyXyXyXyXyXyXyXyXyXyXyXyXyXyXyXyXyXyXyXyXyXyXyXyXyXyXyXyXyXyXyXyXyXyXyXyXyXyXyXyXyXyXyXyXyX",
"yXyXyXyXyXyXyXyXyXyXyXyXyXyXyXyXyXyXyXyXyXyXyXyXyXyXyXyXyXyXyXyXyXyXyXyXyXyXyXyXyXyXyXyXyXyXyXyXyXyXyXyXyXyXyXyXyXyXyXyXyXyXyXyX",
"yXyXyXyXyXyXyXyXyXyXyXyXyXyXyXyXyXyXyXyXyXyXyXyXyXyXyXyXyXyXyXyXyXyXyXyXyXyXyXyXyXyXyXyXyXyXyXyXyXyXyXyXyXyXyXyXyXyXyXyXyXyXyXyX"
};
