/* XPM */
static char * r_xpm[] = {
"64 60 739 2",
"  	c None",
". 	c #FFFFFF",
"+ 	c #FBFFFE",
"@ 	c #EEF9FA",
"# 	c #DFF2F4",
"$ 	c #D7EEF0",
"% 	c #D7EDEF",
"& 	c #D7EEEF",
"* 	c #D7EDF0",
"= 	c #D6EDEF",
"- 	c #E0F1F2",
"; 	c #FDFEFE",
"> 	c #F6FBFC",
", 	c #EBF6F7",
"' 	c #EAF6F7",
") 	c #EAF6F6",
"! 	c #EAF5F6",
"~ 	c #EAF5F7",
"{ 	c #EBF5F6",
"] 	c #F0F1F4",
"^ 	c #E9ECF2",
"/ 	c #C9E0E8",
"( 	c #9CCEDA",
"_ 	c #82C2D0",
": 	c #80C1CF",
"< 	c #80C1D0",
"[ 	c #7EC0CF",
"} 	c #9BCCD7",
"| 	c #E4F2F4",
"1 	c #FBFDFE",
"2 	c #FAFDFD",
"3 	c #F7FBFC",
"4 	c #F8FAFB",
"5 	c #FBF9FC",
"6 	c #D1E6EC",
"7 	c #8BCDD7",
"8 	c #86CBD5",
"9 	c #85CBD3",
"0 	c #86CAD3",
"a 	c #86CAD4",
"b 	c #85CAD4",
"c 	c #85CAD3",
"d 	c #84CAD4",
"e 	c #8CC7D2",
"f 	c #B4AFCF",
"g 	c #BEA7CF",
"h 	c #BCA5CE",
"i 	c #B7A2CB",
"j 	c #B59FCA",
"k 	c #B5A0CB",
"l 	c #ACA8CB",
"m 	c #96CAD6",
"n 	c #E3F1F3",
"o 	c #C9E7E9",
"p 	c #95D4D9",
"q 	c #9BD3DA",
"r 	c #A6CCD9",
"s 	c #BBBFD8",
"t 	c #C8B8D7",
"u 	c #BFAFD1",
"v 	c #ADA6CC",
"w 	c #ACA5CB",
"x 	c #ACA5CA",
"y 	c #ADA4CA",
"z 	c #B79CCA",
"A 	c #BA9ACA",
"B 	c #BB9ACA",
"C 	c #BB9BCA",
"D 	c #B89CCA",
"E 	c #ACA8CC",
"F 	c #9ECBD8",
"G 	c #C0E6E9",
"H 	c #E9F7F8",
"I 	c #FEFEFF",
"J 	c #FEFFFF",
"K 	c #F5FBFB",
"L 	c #C6E6EA",
"M 	c #92D0B6",
"N 	c #78C587",
"O 	c #86BF9D",
"P 	c #A3A8C7",
"Q 	c #B09ECA",
"R 	c #B79AC9",
"S 	c #BB99C9",
"T 	c #BC9ACA",
"U 	c #BD9BCA",
"V 	c #AE8ABD",
"W 	c #A37CB3",
"X 	c #AE8ABE",
"Y 	c #BA98C9",
"Z 	c #BA9BCA",
"` 	c #A6A8CB",
" .	c #99C6D5",
"..	c #A1D9DE",
"+.	c #C9E7EB",
"@.	c #FCFEFE",
"#.	c #C7E7E8",
"$.	c #8ACEB6",
"%.	c #80C570",
"&.	c #8CC728",
"*.	c #99BD71",
"=.	c #B99EC3",
"-.	c #BC9BCA",
";.	c #BA9AC9",
">.	c #AD8CBE",
",.	c #9670AA",
"'.	c #8A61A0",
").	c #9C77AF",
"!.	c #B898C7",
"~.	c #BB9CCA",
"{.	c #A6A9CB",
"].	c #8FB2CB",
"^.	c #9FC2D4",
"/.	c #CFE8EC",
"(.	c #F9FCFC",
"_.	c #FDFEFF",
":.	c #E5F3F2",
"<.	c #88CDBB",
"[.	c #85C66A",
"}.	c #8CC638",
"|.	c #8BC737",
"1.	c #98BD73",
"2.	c #B89FC2",
"3.	c #B999C8",
"4.	c #9874AC",
"5.	c #865C9D",
"6.	c #875D9D",
"7.	c #9069A4",
"8.	c #AC8CBC",
"9.	c #B899C7",
"0.	c #AEA3CA",
"a.	c #95C1D2",
"b.	c #D5E9ED",
"c.	c #E3F2F4",
"d.	c #F1F9F9",
"e.	c #F5FBFD",
"f.	c #D2EBE2",
"g.	c #95CC6F",
"h.	c #8BC63E",
"i.	c #8CC63E",
"j.	c #99BD73",
"k.	c #B89FC3",
"l.	c #9974AC",
"m.	c #875C9D",
"n.	c #885E9E",
"o.	c #8F67A3",
"p.	c #B190C1",
"q.	c #BC9CCB",
"r.	c #B4A2CB",
"s.	c #8DBFD0",
"t.	c #78C2CE",
"u.	c #BEDDE3",
"v.	c #F6FBFB",
"w.	c #F4FBFD",
"x.	c #D0EBE2",
"y.	c #95CB6D",
"z.	c #8BC53D",
"A.	c #B79FC2",
"B.	c #9A76AD",
"C.	c #89609E",
"D.	c #8A609F",
"E.	c #895F9F",
"F.	c #8E66A3",
"G.	c #BA9CCA",
"H.	c #B2A0CA",
"I.	c #9686B3",
"J.	c #84A5BD",
"K.	c #B5DEE2",
"L.	c #F8FBFC",
"M.	c #E4F3F1",
"N.	c #88CCB8",
"O.	c #85C667",
"P.	c #8DC637",
"Q.	c #98BD74",
"R.	c #B79FC4",
"S.	c #B291C2",
"T.	c #A07DB2",
"U.	c #B696C5",
"V.	c #AE8DBD",
"W.	c #A583B6",
"X.	c #9A75AD",
"Y.	c #AC8BBD",
"Z.	c #B898C8",
"`.	c #9D76AE",
" +	c #816FA3",
".+	c #88A4BD",
"++	c #B6DCE2",
"@+	c #F5FAFB",
"#+	c #F0F8F9",
"$+	c #9CD9DC",
"%+	c #7DCAB0",
"&+	c #85C66F",
"*+	c #8CC631",
"=+	c #94C160",
"-+	c #AAADA1",
";+	c #B89EC4",
">+	c #BB9BCB",
",+	c #AE8CBE",
"'+	c #8D65A2",
")+	c #9F7CB1",
"!+	c #B594C4",
"~+	c #BD9DCB",
"{+	c #B08EC0",
"]+	c #9C78AF",
"^+	c #88569B",
"/+	c #7B84AC",
"(+	c #87CCD5",
"_+	c #F1F8F9",
":+	c #F8FCFC",
"<+	c #D1EDEE",
"[+	c #87D1D9",
"}+	c #72C6AD",
"|+	c #84C770",
"1+	c #8DC444",
"2+	c #99BC6B",
"3+	c #B5A2BC",
"4+	c #BC9ACB",
"5+	c #8C64A2",
"6+	c #9975AC",
"7+	c #B392C3",
"8+	c #87589C",
"9+	c #7C87AE",
"0+	c #8BCED6",
"a+	c #FCFDFE",
"b+	c #E7F4F4",
"c+	c #98D3CF",
"d+	c #6AC7BE",
"e+	c #7BC798",
"f+	c #8AC63D",
"g+	c #92C15B",
"h+	c #B4A4BA",
"i+	c #B08FC1",
"j+	c #9B76AF",
"k+	c #B494C4",
"l+	c #B595C5",
"m+	c #B695C5",
"n+	c #7D84AD",
"o+	c #8CCAD4",
"p+	c #EEF7F8",
"q+	c #93D3D5",
"r+	c #84C787",
"s+	c #89C658",
"t+	c #8AC650",
"u+	c #8BC63B",
"v+	c #92C25A",
"w+	c #B897C7",
"x+	c #B998C8",
"y+	c #9D78AF",
"z+	c #8C63A1",
"A+	c #9F7CB2",
"B+	c #875A9C",
"C+	c #7F77A8",
"D+	c #91B5CB",
"E+	c #F2F5F8",
"F+	c #EBF6F8",
"G+	c #81CED0",
"H+	c #82C676",
"I+	c #8DC633",
"J+	c #8CC63C",
"K+	c #8CC63B",
"L+	c #865A9C",
"M+	c #BA9BC9",
"N+	c #875B9D",
"O+	c #8364A1",
"P+	c #9A96BA",
"Q+	c #F2F2F6",
"R+	c #F9FDFE",
"S+	c #DCF0EA",
"T+	c #8FCD9C",
"U+	c #88C658",
"V+	c #AF8DBF",
"W+	c #A986BA",
"X+	c #B2A2CB",
"Y+	c #92B6CC",
"Z+	c #8DB7CC",
"`+	c #ACA5C9",
" @	c #BC99C9",
".@	c #9C78AE",
"+@	c #855B9D",
"@@	c #9D86B0",
"#@	c #EEEFF3",
"$@	c #FAFDFE",
"%@	c #DFF0E4",
"&@	c #9ACB61",
"*@	c #8BC535",
"=@	c #BC9CCA",
"-@	c #AAA7CB",
";@	c #77C8D1",
">@	c #ADDDE1",
",@	c #A6C3D4",
"'@	c #97ADCA",
")@	c #A5A8CB",
"!@	c #9B77AE",
"~@	c #865B9D",
"{@	c #9680AC",
"]@	c #D2E4EA",
"^@	c #F5FCFC",
"/@	c #EEF6EE",
"(@	c #97CC8D",
"_@	c #89C54C",
":@	c #8CC63A",
"<@	c #BB9AC9",
"[@	c #A9A6CA",
"}@	c #85CBD4",
"|@	c #CAE7EA",
"1@	c #9CD7DD",
"2@	c #A2CBD8",
"3@	c #AAAACC",
"4@	c #ABA7CB",
"5@	c #B69FCA",
"6@	c #A582B8",
"7@	c #8F67A5",
"8@	c #885B9D",
"9@	c #8A7AA9",
"0@	c #9DD1D9",
"a@	c #E8F6F7",
"b@	c #EDF6F6",
"c@	c #86CECD",
"d@	c #80C683",
"e@	c #8BC649",
"f@	c #8CC63D",
"g@	c #BC9AC9",
"h@	c #ACA7CB",
"i@	c #92CFD8",
"j@	c #EDF7F8",
"k@	c #FBFDFD",
"l@	c #DCEEF1",
"m@	c #78C7D2",
"n@	c #7BC0CF",
"o@	c #BA99CA",
"p@	c #A481B7",
"q@	c #8475A6",
"r@	c #7AC2CE",
"s@	c #E1F2F4",
"t@	c #EEF8F8",
"u@	c #95D6DB",
"v@	c #77CBC8",
"w@	c #82C78C",
"x@	c #8CC640",
"y@	c #8BC63D",
"z@	c #BA99C9",
"A@	c #BCB0D2",
"B@	c #C9E5EB",
"C@	c #F5FBFC",
"D@	c #DEF0F1",
"E@	c #7FC5D0",
"F@	c #A7A9CB",
"G@	c #B89DCA",
"H@	c #A483B7",
"I@	c #8474A6",
"J@	c #77BFCC",
"K@	c #E0F1F3",
"L@	c #E4F3F5",
"M@	c #DEF0F2",
"N@	c #A9D9D1",
"O@	c #77C697",
"P@	c #86C757",
"Q@	c #91C25C",
"R@	c #B3A4B9",
"S@	c #BB9ACB",
"T@	c #B797C6",
"U@	c #AD8BBE",
"V@	c #C4B4D4",
"W@	c #E0F0F3",
"X@	c #DDF0F2",
"Y@	c #A8CFDB",
"Z@	c #A9ACCC",
"`@	c #BA9CC9",
" #	c #8374A6",
".#	c #77C0CB",
"+#	c #D7ECEF",
"@#	c #9DD3C2",
"##	c #7DC686",
"$#	c #87C751",
"%#	c #91C25B",
"&#	c #B3A4B7",
"*#	c #B594C5",
"=#	c #8F68A5",
"-#	c #855B9C",
";#	c #A582B7",
">#	c #CAB7D6",
",#	c #F3F7F9",
"'#	c #C8E8EA",
")#	c #80BBCD",
"!#	c #B99DCA",
"~#	c #BB9DCB",
"{#	c #A584B7",
"]#	c #76C0CC",
"^#	c #F9FCFD",
"/#	c #DBEEEF",
"(#	c #93D0C1",
"_#	c #7FC57A",
":#	c #8DC636",
"<#	c #91C259",
"[#	c #9068A4",
"}#	c #865B9C",
"|#	c #B999C9",
"1#	c #C1B3D3",
"2#	c #D9EBEF",
"3#	c #DBEFF1",
"4#	c #DBEFF0",
"5#	c #B9D8E0",
"6#	c #99B1CC",
"7#	c #B99CCA",
"8#	c #B192C3",
"9#	c #9B78B0",
"0#	c #77C0CC",
"a#	c #EEEEF0",
"b#	c #ECF6F8",
"c#	c #88CFD1",
"d#	c #82C67A",
"e#	c #91C25A",
"f#	c #B3A3B9",
"g#	c #B696C6",
"h#	c #926BA6",
"i#	c #AA88BB",
"j#	c #8F67A4",
"k#	c #A987BA",
"l#	c #ADA5CB",
"m#	c #85C0D0",
"n#	c #80C2D0",
"o#	c #7FC3CF",
"p#	c #9EB2CD",
"q#	c #B494C3",
"r#	c #9A75AC",
"s#	c #8373A6",
"t#	c #DFE0E3",
"u#	c #8D92A1",
"v#	c #ECF6F7",
"w#	c #83CECF",
"x#	c #81C676",
"y#	c #8CC637",
"z#	c #B1A5B6",
"A#	c #9B75AE",
"B#	c #B4A0CB",
"C#	c #B4A1CA",
"D#	c #B79ECA",
"E#	c #9772AA",
"F#	c #89609F",
"G#	c #885F9E",
"H#	c #847CA9",
"I#	c #83C4D0",
"J#	c #FBFBFB",
"K#	c #F3F4F4",
"L#	c #84CFCF",
"M#	c #82C677",
"N#	c #90C34F",
"O#	c #A7AD96",
"P#	c #B69FBE",
"Q#	c #AF8EBF",
"R#	c #936DA7",
"S#	c #885E9D",
"T#	c #A986B9",
"U#	c #9872AB",
"V#	c #885D9E",
"W#	c #7F7FAA",
"X#	c #8ABDCB",
"Y#	c #DCECEF",
"Z#	c #D0EAE8",
"`#	c #96CF9E",
" $	c #85C557",
".$	c #8DC544",
"+$	c #96BD67",
"@$	c #B0A7B0",
"#$	c #A381B5",
"$$	c #9F7BB1",
"%$	c #AB8ABC",
"&$	c #A886B9",
"*$	c #B493C3",
"=$	c #895A9D",
"-$	c #7D83AB",
";$	c #91BDCB",
">$	c #CFE9EC",
",$	c #FEFFFE",
"'$	c #F8FCFA",
")$	c #9ED5C6",
"!$	c #75C480",
"~$	c #88C644",
"{$	c #8DC63D",
"]$	c #ADACA9",
"^$	c #BC9ACC",
"/$	c #A582B6",
"($	c #9B77AF",
"_$	c #8084AD",
":$	c #70B2C4",
"<$	c #A7DDE1",
"[$	c #FAFCFD",
"}$	c #BAE1E4",
"|$	c #9CD4BA",
"1$	c #94CE8E",
"2$	c #85C579",
"3$	c #ABACB3",
"4$	c #BD9BCC",
"5$	c #AE8DBF",
"6$	c #8B62A0",
"7$	c #BB9BC9",
"8$	c #9F7BB2",
"9$	c #8666A2",
"0$	c #6EADC1",
"a$	c #89D4DA",
"b$	c #CAE9EC",
"c$	c #ECF7F6",
"d$	c #C1E4E4",
"e$	c #85CED0",
"f$	c #82CECF",
"g$	c #71C8CA",
"h$	c #A4ACC9",
"i$	c #BD9BCB",
"j$	c #A380B4",
"k$	c #8762A0",
"l$	c #7F7FAD",
"m$	c #7CBAC8",
"n$	c #C6E7E9",
"o$	c #8ED0D8",
"p$	c #A1ABCB",
"q$	c #8B63A1",
"r$	c #9D79B0",
"s$	c #B796C6",
"t$	c #A380B5",
"u$	c #866FA5",
"v$	c #7AB4C6",
"w$	c #CDE6EA",
"x$	c #95D2DA",
"y$	c #BD9ACA",
"z$	c #B694C4",
"A$	c #A093BE",
"B$	c #86B4C7",
"C$	c #CFE6EB",
"D$	c #94D2DA",
"E$	c #A785B8",
"F$	c #AC8ABD",
"G$	c #9FBAD1",
"H$	c #C1DFE6",
"I$	c #D4EEF0",
"J$	c #EEF9F9",
"K$	c #94D3D9",
"L$	c #A683B8",
"M$	c #A784B7",
"N$	c #B393C3",
"O$	c #92B6CD",
"P$	c #8CCFD7",
"Q$	c #BAE5E7",
"R$	c #E8F5F6",
"S$	c #F4FAFA",
"T$	c #95D3D9",
"U$	c #A0ABCB",
"V$	c #BA9AC8",
"W$	c #9F7BB0",
"X$	c #9C77AE",
"Y$	c #94B6CD",
"Z$	c #76C3CF",
"`$	c #A8D5DD",
" %	c #94D3D8",
".%	c #9FACCA",
"+%	c #9A77AE",
"@%	c #B59BC8",
"#%	c #AFA2CB",
"$%	c #9EB2CE",
"%%	c #9FD3DC",
"&%	c #9FABCA",
"*%	c #87599C",
"=%	c #867DAB",
"-%	c #89B5CB",
";%	c #B2A2CA",
">%	c #B49FCA",
",%	c #A8AECE",
"'%	c #A7D3DC",
")%	c #E9F5F6",
"!%	c #A8DCE1",
"~%	c #A9B0CE",
"{%	c #8081AB",
"]%	c #6BC1CD",
"^%	c #88B8CD",
"/%	c #A0AECC",
"(%	c #B1D4DE",
"_%	c #FDFFFF",
":%	c #D7EEF1",
"<%	c #C1BCD7",
"[%	c #87589B",
"}%	c #73C6D0",
"|%	c #AADBE0",
"1%	c #A7C1D4",
"2%	c #A69DC4",
"3%	c #B591C3",
"4%	c #BC9BCB",
"5%	c #99ADCA",
"6%	c #B3D4DF",
"7%	c #E5F4F5",
"8%	c #FDFDFE",
"9%	c #D4C5DE",
"0%	c #B899C9",
"a%	c #A481B6",
"b%	c #8D62A1",
"c%	c #8179A8",
"d%	c #88BCCB",
"e%	c #EBF3F5",
"f%	c #C8E7E9",
"g%	c #94B8C9",
"h%	c #9B91BC",
"i%	c #AF99C6",
"j%	c #B190C2",
"k%	c #B08FC0",
"l%	c #8CA2C1",
"m%	c #A5CFD8",
"n%	c #CBCAE0",
"o%	c #AF9ECA",
"p%	c #B493C4",
"q%	c #A07CB2",
"r%	c #865F9E",
"s%	c #9682AE",
"t%	c #E6E8EE",
"u%	c #F9FDFD",
"v%	c #CCE7EA",
"w%	c #7FBECC",
"x%	c #869EBF",
"y%	c #AF9FC8",
"z%	c #8E67A3",
"A%	c #8C64A1",
"B%	c #8964A1",
"C%	c #7F91B3",
"D%	c #9CCFD7",
"E%	c #EDF6F7",
"F%	c #B4DAE1",
"G%	c #97AFCC",
"H%	c #A785B9",
"I%	c #885C9E",
"J%	c #8971A5",
"K%	c #95C6D1",
"L%	c #E2F2F4",
"M%	c #D2E9ED",
"N%	c #7DC5D1",
"O%	c #81C0CF",
"P%	c #ABA8CB",
"Q%	c #A27EB4",
"R%	c #926CA7",
"S%	c #8569A2",
"T%	c #8492B3",
"U%	c #9FD2D9",
"V%	c #AEDDE1",
"W%	c #90B3CB",
"X%	c #895D9E",
"Y%	c #856FA4",
"Z%	c #70BBC8",
"`%	c #D9EEF0",
" &	c #DBEFF2",
".&	c #CDE9ED",
"+&	c #9FC9D6",
"@&	c #A3A8CA",
"#&	c #B595C4",
"$&	c #9E7AB1",
"%&	c #9B76AE",
"&&	c #885C9D",
"*&	c #7B8DB1",
"=&	c #6CAABF",
"-&	c #8BB8C9",
";&	c #D4E9EC",
">&	c #AFDDE1",
",&	c #92B3CC",
"'&	c #73BCC8",
")&	c #D9EFF0",
"!&	c #D4EDEE",
"~&	c #A9CBD9",
"{&	c #A2A9CA",
"]&	c #AB89BC",
"^&	c #A482B6",
"/&	c #A583B7",
"(&	c #88599C",
"_&	c #8265A0",
":&	c #7693B2",
"<&	c #729AB6",
"[&	c #A3C6D3",
"}&	c #C2E5E9",
"|&	c #D0EAEE",
"1&	c #AFDDE2",
"2&	c #89ADC7",
"3&	c #73BCC9",
"4&	c #A4CBD8",
"5&	c #A7A5C9",
"6&	c #AA8CBD",
"7&	c #926AA6",
"8&	c #807BA8",
"9&	c #7A88AD",
"0&	c #8B8FB2",
"a&	c #A8AAC3",
"b&	c #A8D4DA",
"c&	c #A7DBDF",
"d&	c #DCEFF1",
"e&	c #73A0BA",
"f&	c #8B609F",
"g&	c #856EA4",
"h&	c #73BBC9",
"i&	c #D9EEF1",
"j&	c #FFFEFF",
"k&	c #DEEFF2",
"l&	c #91C4D1",
"m&	c #8783AD",
"n&	c #8863A0",
"o&	c #8764A0",
"p&	c #8378A8",
"q&	c #88B6C6",
"r&	c #89CFD5",
"s&	c #ADDBDF",
"t&	c #E7F4F5",
"u&	c #F9FBFC",
"v&	c #FCFDFD",
"w&	c #71A1BB",
"x&	c #8766A1",
"y&	c #8667A1",
"z&	c #8765A0",
"A&	c #72BCCA",
"B&	c #E2F0F2",
"C&	c #8CC3D0",
"D&	c #8282AC",
"E&	c #8383AD",
"F&	c #79BDCB",
"G&	c #7CC3CF",
"H&	c #D2E7EA",
"I&	c #F3F9F9",
"J&	c #FEFEFE",
"K&	c #FDFDFD",
"L&	c #63BDC9",
"M&	c #6FB3C3",
"N&	c #6EB5C5",
"O&	c #6EC6CF",
"P&	c #DAEEF0",
"Q&	c #E0F0F2",
"R&	c #94C4D0",
"S&	c #6BB2C3",
"T&	c #6BB1C3",
"U&	c #95C4D1",
"V&	c #E4F3F4",
"W&	c #CCE9EC",
"X&	c #CDEAEC",
"Y&	c #CFEAEC",
"Z&	c #CCEAEC",
"`&	c #F1F1F3",
" *	c #F2F3F4",
".*	c #BABCC7",
"+*	c #8B90A4",
"                                                                                                                                ",
"                                                      . . . . . . . . . . .                                                     ",
"                    . . . . . . . . . . . . . . . . . . . . . . . . . . . . .                                                   ",
"                  . . . . . . . . . . . . . . . . . . . + @ # $ % & * = - ; . .                                                 ",
"              . . . . . . > , ' ) ! ~ ~ ~ ~ ~ ) ) ~ { ] ^ / ( _ : < < [ } | 1 . . .                                             ",
"          . . 2 3 3 3 4 5 6 7 8 9 0 a b b b b c c d e f g h i j j k k j l m n 1 ; . .                                           ",
"        . . ; o p q r s t u v w w w w x w w w w w w y z A B C B C C C B D E F G H I . .                                         ",
"      . J K L M N O P Q R S T T T U V W X Y T T T T T C C C C C C C C C C Z `  ...+.@.. . .                                     ",
"    . . > #.$.%.&.*.=.-.C C C C ;.>.,.'.).!.~.C C C C C C C C C C C C C C C T {.].^./.(.. . .                                   ",
"    . _.:.<.[.}.|.1.2.C C C C C 3.4.5.6.7.8.9.C C C C C C C C C C C C C C C C C B 0.a.b.c.d.. .                                 ",
"    . e.f.g.h.i.|.j.k.C C C C C 3.l.m.n.n.o.p.q.C C C C C C C C C C C C C C C C C C r.s.t.u.v.. .                               ",
"  . . w.x.y.z.i.|.1.A.C C C B ;.3.B.C.D.E.F.p.q.C C C C C C C C C C C C C C C C C C G.H.I.J.K.L.. .                             ",
"    . _.M.N.O.P.|.Q.R.C C q.S.T.U.S.V.W.X.Y.Z.C C C C C C C C C C C C C C C C C C C C S `. +.+++@+. .                           ",
"    . . #+$+%+&+*+=+-+;+>+q.,+'+)+!+~+U.{+;.C C C C C C C C C C C C C C C C C C C C C ;.]+^+/+(+_+. . .                         ",
"    . . :+<+[+}+|+1+2+3+4+q.,+5+6+7+q.q.C C C C C C C C C C C C C C C C C C C C C C C ;.]+8+9+0+_+. . .                         ",
"    . . a+b+c+d+e+f+g+h+4+q.i+j+k+l+7+m+C C C C C C C C C C C C C C C C C C C C C C C ;.]+8+n+o+_+. . .                         ",
"    . . p+q+r+s+t+u+v+h+4+C ;.w+x+y+z+A+;.C C C C C C C C C C C C C C C C C C C C C C ;.]+B+C+D+E+. . .                         ",
"    . . F+G+H+I+J+K+v+h+4+C C C 3.l.L+]+;.C C C C C M+Z C C C C C C C C C C C C C C C ;.]+N+O+P+Q+. . .                         ",
"    . R+S+T+U+K+i.K+v+h+4+C C C ;.V+W+{+C C C C T X+Y+Z+`+ @T C C C C C C C C C C C C ;..@m.+@@@#@. . .                         ",
"    . $@%@&@*@i.i.K+v+h+4+C C C C q.q.=@C C C C T -@;@>@,@'@)@C T C C C C C C C C C C ;.!@~@L+{@]@^@. .                         ",
"    . . /@(@_@:@i.K+v+h+4+C C C C C C C C C C C <@[@}@! |@1@2@3@4@5@C C C C C C C C C ;.6@7@8@9@0@a@. .                         ",
"    . . b@c@d@e@f@K+v+h+4+C C C C C C C C C C C g@h@i@j@; k@l@m@n@4@T C C C C C C C C C o@p@8@q@r@s@. .                         ",
"    . . t@u@v@w@x@y@v+h+4+C C C ;.z@;.C C C C C S A@B@C@. . D@E@F@G@C C C C C C C C C C G.H@8@I@J@K@. .                         ",
"      . 2 L@M@N@O@P@Q@R@S@C C T@A+X.U@C C C C C Y V@W@2 . X@Y@Z@G@C C C C C C C C C C C `@W.8@ #.#K@. .                         ",
"        . . +#@###$#%#&#B C =@*#=#-#;#q.C q.q.C x+>#,#. . '#)#!#C C C C C C C C C C C C ~#{#8@ #]#K@. .                         ",
"        ^#/#(#_#:#:@<#&#B C =@*#[#}#;#q.3.,+Y.l+|#1#2#3#4#5#6#7#C C C C C C C C C C C ~.8#9#8@ #0#K@. a#                        ",
"        b#c#d#K+i.K+e#f#S@C C g#l.h#i#;.V+j#D.k#-.l#m#n#o#p#G.C C C C C C C C C C C ;.q#r#n.8@s#]#K@. t#u#                      ",
"      . v#w#x#y#i.K+<#z#C C C ;.g#g#|#S.A#'.n.W+q.7#k B#C#D#C C C C C C C C C C C C !+E#F#n.G#H#I#c.. J#K#                      ",
"    . . v#L#M#}.i.J+N#O#P#>+C C C C q.Q#R#F#S#T#q.C -.-.-.C C C C C C C C C C C =@7+U#'.V#8@W#X#Y#^#. .                         ",
"      . 3 Z#`# $K+f@.$+$@$4+=@!.#$$$Q#U.%$k#&$*$C C C C C C C C C C C C C C C q.p.X.E.V#=$-$;$>$2 . . ,$                        ",
"        . '$)$!$~$:#:#{$]$^$g#/$z+}#l.Q#C q.q.C C C C C C C C C C C C C C C C p.($6.n.G#_$:$<$v.J . .                           ",
"        . [$}$|$1$M#H+2$3$4$5$6$n.n.m.]+;.C C C C C C C C C C C C C C C C C 7$8$5.n.G#9$0$a$b$@.. .                             ",
"          . 2 c$d$e$f$g$h$i$5$6$n.n.m.]+;.C C C C C C C C C C C C C C C C C 7$j$6$n.k$l$m$n$a+. .                               ",
"          . . ; K p+| o$p$i$5$q$n.n.V#r$;.C C C C C C C C C C C C C C C C C C s$t$D.u$v$w$:+. .                                 ",
"              . . . v.x$p$y$T@&$'+5.]+S.C C C C C C C C C C C C C C C C C C C C z$A$B$C$3 . . .                                 ",
"                . . @+D$p$T C Z.E$t$p.q.C ;.F$7+=@C C C C C C C C C C C C C C C -.r.G$H$I$J$. . .                               ",
"                  . @+K$p$T C C C C C C C 3.L$M$N$C C C C C C C C C C C C C C C C -.D#O$P$Q$R$. . .                             ",
"                    S$T$U$T C C C C C C C C V$W$X$m+B C C C C C C C C C C C C C C C C G@Y$Z$`$j@; . .                           ",
"                    S$ %.%C C C C C C C C C ;.$$E.+%@%G.C C C C C C C C C C C C C C C C 5@#%$%%%p+J . .                         ",
"                    S$T$&%<@C C C C C C C C C 8$*%=%-%;%B C C C C C C C C C C C C C C C C Z >%,%'%)%. . .                       ",
"                    v.!%~%S C C C C C C C C C 8$*%{%]%^%0.y$C C C C C C C C C C C C C C C C T G@/%(%L@. . . _%                  ",
"                    2 :%<%S C C C C C C C C C $$[%{%}%|%1%2%3%C C C C C C C C C C C C C C C C 4%Z 5%6%7%. . J J                 ",
"                    . 8%9%0%C C C C C C C C C a%b%c%d%e%f%g%h%i%;.C C C C C C C C C C C C ~.Z.j%k%>.l%m%~ ; . . .               ",
"                    . 8%n%o%C C C C C C C C C p%q%r%s%t%u%v%w%x%y%G.C C C C C C C C C C Z.T@%$z%A%z+B%C%D%E%; . .               ",
"                    . ; F%G%C C C C C C C C C C H%I%J%K%L%2 M%N%O%P%C C C C C C C C ;.3.Q%R%7.n.n.n.G#S%T%U%v#. .               ",
"                    . ; V%W%C C C C C C C C C q.k#X%Y%Z%`%. 3  &.&+&@&<@C C C G.~.#&$&%&o.m.6.n.&&8@*&=&-&;&3 . .               ",
"                    . ; >&,&q.q.q.q.q.q.q.q.q.~+k#X%Y%'&)&. . . u%!&~&{&C ;.]&^&/&$$F#m.8@=$(&_&:&<&[&}&|&a+. . .               ",
"                    . ; 1&2&,+,+,+,+,+,+,+,+,+5$q%X%Y%3&)&. . . . . & 4&5&6&7&6.V#V#&&V#8&9&0&a&b&c&d&. . . . .                 ",
"                    . ; 1&e&f&'.'.'.'.'.'.'.'.'.E.&&g&h&i&. . . . . j&k&l&m&n&V#V#o& #p&q&r&s&t&u&v&; . . . .                   ",
"                    . ; 1&w&x&y&y&y&y&y&y&y&y&y&y&z&q@A&i&. . .   . . @.B&C&D&o&o&E&F&G&H&I&@+@.. . . J&K&                      ",
"                    . ; 1&L&M&M&M&M&M&M&M&M&M&M&M&M&N&O&P&. . .     . . k@Q&R&S&T&U&l@V&v.. . . .                               ",
"                    . J K@W&X&X&X&X&X&X&X&X&X&X&X&X&X&Y&#+. . .       . . J&3#Z&W&3#_.. . . .                                   ",
"                    . . . . . . . . . . . . . . . . . . . . . .         . . . . . . . . . .                                     ",
"                      . . . . . . . . . . . . . . . . . `& *.             . . . . . . .                                         ",
"                            . . . . . . . . . . . . . K&.*+*                  . .                                               ",
"                                                                                                                                ",
"                                                                                                                                ",
"                                                                                                                                ",
"                                                                                                                                ",
"                                                                                                                                "};
