/* XPM */
static char *s[] = {
/* columns rows colors chars-per-pixel */
"64 55 200 2 ",
"   c #E62D0A",
".  c #E7320F",
"X  c #E8340E",
"o  c #E93712",
"O  c #EA3C14",
"+  c #EB4117",
"@  c #EC4519",
"#  c #ED4C1D",
"$  c #EF501F",
"%  c #EC4D21",
"&  c #EA4720",
"*  c #EF5322",
"=  c #EE5D2D",
"-  c #EE5627",
";  c #F05622",
":  c #F15A25",
">  c #F05C29",
",  c #EE5E31",
"<  c #F26126",
"1  c #F2632A",
"2  c #F26A2E",
"3  c #ED6135",
"4  c #EB643A",
"5  c #EE6A3C",
"6  c #F06233",
"7  c #F26D32",
"8  c #F06C3C",
"9  c #EF713B",
"0  c #F37335",
"q  c #F57A32",
"w  c #F1733A",
"e  c #F47A3B",
"r  c #DF735E",
"t  c #E86642",
"y  c #ED6C42",
"u  c #E5694A",
"i  c #E76845",
"p  c #ED7A4B",
"a  c #EE7444",
"s  c #F17245",
"d  c #F27B42",
"f  c #F17549",
"g  c #F27D4C",
"h  c #E26E54",
"j  c #F07D5A",
"k  c #F07C54",
"l  c #DE7662",
"z  c #DE7C68",
"x  c #D77A74",
"c  c #D87B72",
"v  c #D57E7A",
"b  c #F68635",
"n  c #F5823D",
"m  c #F6893B",
"M  c #F58343",
"N  c #F68A45",
"B  c #F4844C",
"V  c #F68B4A",
"C  c #F7934E",
"Z  c #F38453",
"A  c #F48A54",
"S  c #F2865D",
"D  c #F48C59",
"F  c #F69453",
"G  c #F79953",
"H  c #F6905A",
"J  c #F79C5C",
"K  c #F89D5B",
"L  c #F8A25C",
"P  c #F7A15D",
"I  c #D68179",
"U  c #E58968",
"Y  c #F69562",
"T  c #F79B64",
"R  c #F69D6B",
"E  c #F3966B",
"W  c #E89E76",
"Q  c #E29074",
"!  c #F39574",
"~  c #F59C73",
"^  c #F8A464",
"/  c #F7A56D",
"(  c #F8AB6E",
")  c #F8A766",
"_  c #FAB76C",
"`  c #EAA178",
"'  c #F5A275",
"]  c #F8A572",
"[  c #F8AB73",
"{  c #F7AB7D",
"}  c #F8AA7C",
"|  c #F6A77B",
" . c #FAB373",
".. c #FBBF75",
"X. c #F9B47A",
"o. c #FAB97B",
"O. c #FBC476",
"+. c #FBC57B",
"@. c #BF98BD",
"#. c #CF8A8E",
"$. c #D0878A",
"%. c #D18C8D",
"&. c #D28083",
"*. c #CC8B97",
"=. c #CE9198",
"-. c #D39492",
";. c #D19C9D",
":. c #D59892",
">. c #DA9686",
",. c #DCA18C",
"<. c #DAA39C",
"1. c #E7A781",
"2. c #E9AA83",
"3. c #F6AD83",
"4. c #F6B184",
"5. c #F9B483",
"6. c #FABC83",
"7. c #F7B58C",
"8. c #F8B589",
"9. c #F9BB8B",
"0. c #EEB294",
"q. c #E4B997",
"w. c #E7BD99",
"e. c #F7B291",
"r. c #F9BD93",
"t. c #F7B798",
"y. c #F6BF91",
"u. c #C793A7",
"i. c #C994A3",
"p. c #C79AAB",
"a. c #C99AA7",
"s. c #C19ABD",
"d. c #CEA4A5",
"f. c #CEA4AA",
"g. c #D2ACAC",
"h. c #D7B1AE",
"j. c #C6A4B3",
"k. c #CDA6B2",
"l. c #D2ACB3",
"z. c #D6B4B8",
"x. c #D8BCBD",
"c. c #D9B6B5",
"v. c #FBC38B",
"b. c #FBC489",
"n. c #FAC494",
"m. c #FAC59A",
"M. c #FBC89D",
"N. c #FCCF92",
"B. c #DCC1BC",
"V. c #EAC6A8",
"C. c #ECC9A9",
"Z. c #F9C4A4",
"A. c #FBCCA2",
"S. c #FACBAA",
"D. c #F9C5A8",
"F. c #FCD4A5",
"G. c #FDD8A6",
"H. c #FBD6AB",
"J. c #FDDBAB",
"K. c #F7D4A6",
"L. c #E6C5B3",
"P. c #FACEB0",
"I. c #ECD5BE",
"U. c #EFDABD",
"Y. c #FBD3B4",
"T. c #FDDDB3",
"R. c #FBDABC",
"E. c #F5D7BB",
"W. c #FDE1B6",
"Q. c #FCE3BD",
"!. c #DCC6CB",
"~. c #E2CAC1",
"^. c #EEDAC3",
"/. c #E9D6CA",
"(. c #E8D5CB",
"). c #FCDDC4",
"_. c #F0DEC7",
"`. c #E6D5D6",
"'. c #E8D7D2",
"]. c #F5E5C3",
"[. c #FBE4C4",
"{. c #FDE4CB",
"}. c #F7E8CD",
"|. c #FAEACD",
" X c #F8E6CB",
".X c #F1E3D4",
"XX c #FDE7D1",
"oX c #FCEDD5",
"OX c #F5E9D9",
"+X c #FDEEDB",
"@X c #FFF4D3",
"#X c #FEF2DD",
"$X c #F4EBE7",
"%X c #FEEEE1",
"&X c #FDF3E2",
"*X c #FEF5EB",
"=X c #FFFAEC",
"-X c #FFFCF4",
";X c #FDFDFC",
":X c None",
/* pixels */
":X:X:X:X:X:X:X:X:X:X:X:X:X:X:X:X:X:X:X:X:X:X:X:X:X:X:X:X@X@X@X@X=X=X=X=X:X:X:X:X:X:X:X:X:X:X:X:X:X:X:X:X:X:X:X:X:X:X:X:X:X:X:X:X",
":X:X:X:X:X:X:X:X:X:X:X:X:X:X:X:X:X:X:X:X:X:X:X:X:X:X:X:X@X@X@X@X=X=X=X=X:X:X:X:X:X:X:X:X:X:X:X:X:X:X:X:X:X:X:X:X:X:X:X:X:X:X:X:X",
":X:X:X:X:X:X:X:X:X:X:X:X:X:X:X:X:X:X:X:X:X:X:X:X:X:X:X:XoX}.}.}.&X&X&X&X:X:X:X:X:X:X:X:X:X:X:X:X:X:X:X:X:X:X:X:X:X:X:X:X:X:X:X:X",
":X:X:X:X:X:X:X:X:X:X:X:X:X:X:X:X:X:X:X:X:X:X:X:X:X:X:X:X}.}.}.}.&X&X#X#X:X:X:X:X:X:X:X:X:X:X:X:X:X:X:X:X:X:X:X:X:X:X:X:X:X:X:X:X",
":X:X:X:X:X:X:X:X:X:X:X:X:X:X:X:X:X:X:X&X&X&X&XOX|.}.].U.c.z.l.l.V.V.V.V.H.J.J.J.J.W.[.|.+X;X;X:X:X:X:X:X:X:X:X:X:X:X:X:X:X:X:X:X",
":X:X:X:X:X:X:X:X:X:X:X:X:X:X:X:X:X:X:X&X&X&X&XoX}.}.].I.k.k.p.p.q.q.q.V.K.J.J.J.T.W.Q.oX#X;X;X:X:X:X:X:X:X:X:X:X:X:X:X:X:X:X:X:X",
":X:X:X:X:X:X:X:X:X:X:X:X:X:X:X:X:X:X:XOXOXOXOX}.].^.U.L.;.;.=.=.` 2.2.2.v.n.n.n.n.m.A.Y.R.*X*X:X:X:X:X:X:X:X:X:X:X:X:X:X:X:X:X:X",
":X:X:X:X:X:X:X:X:X:X:X:X:X:X:X:X:X:X:X.X.X.X.X_.^.I.I.L.:.:.#.%.` ` ` ` 4.9.8.6.8.7.r.S.P.+X+X:X:X:X:X:X:X:X:X:X:X:X:X:X:X:X:X:X",
":X:X:X:X:X:X:X:X:X:X:X:X:X:X:X:X:X-X-X'./.L.B.B.c.c.h.<.z z l l p p p p B A Z B B p S ~ | P.P.:X:X:X:X:X:X:X:X:X:X:X:X:X:X:X:X:X",
":X:X:X:X:X:X:X:X:X:X:X:X:X:X:X:X:X-X-X/.~.c.d.a.u.i.i.%.i t 4 4 : : : : : : : $ # @ - s Z 8.8.:X:X:X:X:X:X:X:X:X:X:X:X:X:X:X:X:X",
":X:X:X:X:X:X:X:X:X:X:X:X:X:X:X:X:X$X$X!.B.g.d.;.:.-.#.I t 4 3 3 : : : : < : $ $ % O % 8 f } } :X:X:X:X:X:X:X:X:X:X:X:X:X:X:X:X:X",
":X:X:X:X:X:X:X:X:X:X:X:X:X:X:X'.'.`.`.x.c.g.d.,.W Q c l 4 4 = = : : : : $ : $ $ @ O # , 8 T T R R :X:X:X:X:X:X:X:X:X:X:X:X:X:X:X",
":X:X:X:X:X:X:X:X:X:X:X:X:X:X:X(.(.!.!.z.l.f.d.>.U U r h 3 3 = - : : : : $ $ $ # @ O # - , Z Z Y Y :X:X:X:X:X:X:X:X:X:X:X:X:X:X:X",
":X:X:X:X:X:X:X:X:X:X:X:X:X_./.x.B.j.j.p.p.u.u.v h t = = = = : : : : : $ $ # # @ O o O O O ; : Z Z 5.5.:X:X:X:X:X:X:X:X:X:X:X:X:X",
":X:X:X:X:X:X:X:X:X:X:X:X:X^.^.x.x.j.j.p.i.i.*.v u t = , = = : * : : $ : $ # # @ + O O O + ; : g g ] } :X:X:X:X:X:X:X:X:X:X:X:X:X",
":X:X:X:X:X:X:X:X:X:X:X:X:X^.^.x.x.@.@.*.$.v x h 4 3 = = : : : : : : : : $ $ $ $ # + + # ; : : 6 6 y y E ' m.J.:X:X:X:X:X:X:X:X:X",
":X:X:X:X:X:X:X:X:X:X:X:X:X^.^.x.x.@.@.*.$.v c h 3 3 = = : : : : : : : : $ $ $ $ # + @ # # : : 3 6 5 4 E ' m.H.:X:X:X:X:X:X:X:X:X",
":X:X:X:X:X:X:X:X:X:X:X:X:XU.U.x.x.@.@.&.c h u 3 = = : : : : : : : : : : * $ $ $ # # $ ; ; : : # # o O S ~ r.H.:X:X:X:X:X:X:X:X:X",
":X:X:X:X:X:X:X:X:X:X:X:X:XU.U.x.x.@.@.&.x r u , = > : : : : : : : : : : $ $ $ $ # # # : : : : # # o o S ~ n.H.:X:X:X:X:X:X:X:X:X",
":X:X:X:X:X:X:X:X:X:X:X:X:X|.[.e.0.S Z y 4 , , = > > : : : : : : @ @ # # 2 0 7 2 < ; $ # # + @ = = s s e.Z.{.&X:X:X:X:X:X:X:X:X:X",
":X:X:X:X:X:X:X:X:X:X:X:X:X[.].e.0.S Z 5 4 , , = > > : : : : : : @ @ # # 2 0 7 2 < ; * # # + + = = s s e.Z.{.&X:X:X:X:X:X:X:X:X:X",
":X:X:X:X:X:X:X:X:X:X:X:X:X|. X3.3.d 9 5 , = > - : : : : $ : : : + + # # 7 e 0 0 2 > * # # O + 3 3 Z D D.Y.%X-X:X:X:X:X:X:X:X:X:X",
":X:X:X:X:X:X:X:X:X:X:X:X:X|.[.4.3.9 9 3 3 = : : : : : : : : : : + + # # 7 e 0 0 2 > - # # o + 6 6 D D D.E.%X-X:X:X:X:X:X:X:X:X:X",
":X:X:X:X:X:X:X:X:X:X:X:X:X@XoXr.n.G F 9 9 1 : > : : : : : : : : $ $ : > M V C F J / T H A 7 5 ~ ' S.S.:X:X:X:X:X:X:X:X:X:X:X:X:X",
":X:X:X:X:X:X:X:X:X:X:X:X:X#X+Xm.m.^ K e 9 1 < : : : : : : : : : : : 1 1 B F K L ( 6.o.( ^ d g 8.7.).{.:X:X:X:X:X:X:X:X:X:X:X:X:X",
":X:X:X:X:X:X:X:X:X:X:X:X:X#X@Xm.m.P K d 0 2 < < < : : : : : : : < < 1 < V F K ^ o.v.v.[ / B Z r.r.oX+X:X:X:X:X:X:X:X:X:X:X:X:X:X",
":X:X:X:X:X:X:X:X:X:X:X:X:X#X+XM.M.P P e 0 2 < < < < : : : : : : < < < 1 V G P ) o.N.b.X.[ B A r.r.+X&X:X:X:X:X:X:X:X:X:X:X:X:X:X",
":X:X:X:X:X:X:X:X:X:X:X:X:X#XoXn.n. . .P L G C N e e 0 2 : < : : : < : < 0 e d M F ^ ^ [ [ 3.5.F.S.+X&X:X:X:X:X:X:X:X:X:X:X:X:X:X",
":X:X:X:X:X:X:X:X:X:X:X:X:X:X:X6.b.v.v.+.O.O.O.) G C N n < < : : : : : : > : > 1 2 0 d T [ T.T.W.W.:X:X:X:X:X:X:X:X:X:X:X:X:X:X:X",
":X:X:X:X:X:X:X:X:X:X:X:X:X:X:X6.6.o.6.O...O.O.) G C N n < < : < : : : : : : : > 7 0 M Y ] H.H.H.J.:X:X:X:X:X:X:X:X:X:X:X:X:X:X:X",
":X:X:X:X:X:X:X:X:X:X:X:X:X:X:XX.X. . . ._ _ _ P G C N n 1 1 < < : : : : ; ; : > 1 0 d H R A.M.M.M.:X:X:X:X:X:X:X:X:X:X:X:X:X:X:X",
":X:X:X:X:X:X:X:X:X:X:X:X:X:X:X .[ J K J J K K G F C C N 2 2 2 2 : : : : ; % : : 1 7 w g A } 3.8.8.:X:X:X:X:X:X:X:X:X:X:X:X:X:X:X",
":X:X:X:X:X:X:X:X:X:X:X:X:XJ.G.T T > : > > < < e C G L G m m b b : : ; ; # # # # $ * * * $ * - Z Z { 3.:X:X:X:X:X:X:X:X:X:X:X:X:X",
":X:X:X:X:X:X:X:X:X:X:X:X:XG.F.T T > : : > : < e N G G G n n b b : : ; ; # # # # $ * * $ * $ - Z Z { 3.:X:X:X:X:X:X:X:X:X:X:X:X:X",
":X:X:X:X:X:X:X:X:X:X:X:X:Xv.v.H H > : > > 1 < 0 M N V N q q q q : : ; ; # # # # # # # # # # $ j j 4.8.:X:X:X:X:X:X:X:X:X:X:X:X:X",
":X:X:X:X:X:X:X:X:X:X:X:X:Xv.9.H H < : > > > < 0 M N N N q q q q : : ; ; # # # # # # # # # # # j j 8.8.:X:X:X:X:X:X:X:X:X:X:X:X:X",
":X:X:X:X:X:X:X:X:X:X:X:X:Xm m 0 0 : : > > : : : : : : : : : : : : : : : ; # # # @ @ + O o   . j j Z.S.:X:X:X:X:X:X:X:X:X:X:X:X:X",
":X:X:X:X:X:X:X:X:X:X:X:X:Xm m 0 q : : > > : : : : : : : : : : : : : : : # # # # @ + + O O   . j j Z.S.:X:X:X:X:X:X:X:X:X:X:X:X:X",
":X:X:X:X:X:X:X:X:X:X:X:X:X .[ F H 7 7 1 1 : : : : : : : : : : : : : ; ; # # # @ @ + + + + # % ! ! ).{.:X:X:X:X:X:X:X:X:X:X:X:X:X",
":X:X:X:X:X:X:X:X:X:X:X:X:XX. .F F 0 7 1 1 : : : : ; : : : : : : : : : ; $ # @ @ + + + + @ # % ! ! {.{.:X:X:X:X:X:X:X:X:X:X:X:X:X",
":X:X:X:X:X:X:X:X:X:X:X:X:XQ.W.5.5.d n 0 7 > : : : : : : : : : : : : ; ; @ + O + + + @ # * 7 w e.e.*X=X:X:X:X:X:X:X:X:X:X:X:X:X:X",
":X:X:X:X:X:X:X:X:X:X:X:X:X|.[.9.9.V M 0 7 > : : : : : : : ; : : : : ; ; @ O O O + + @ ; - w e t.t.=X-X:X:X:X:X:X:X:X:X:X:X:X:X:X",
":X:X:X:X:X:X:X:X:X:X:X:X:X:X:XA.M.5.5.Y H g d 7 > : ; ; # # ; # $ $ # $ @ + O O O O @ , y R R Z.Z.:X:X:X:X:X:X:X:X:X:X:X:X:X:X:X",
":X:X:X:X:X:X:X:X:X:X:X:X:X:X:XH.H.M.M.] T D Z 0 > : # # # # # # # # # # @ + + O o o & 4 f 3.3.Z.Z.:X:X:X:X:X:X:X:X:X:X:X:X:X:X:X",
":X:X:X:X:X:X:X:X:X:X:X:X:X:X:X:X:XR.[.r.5.] T d > : # # # @ @ @ @ @ @ # + + + O o o & y k Z.M.:X:X:X:X:X:X:X:X:X:X:X:X:X:X:X:X:X",
":X:X:X:X:X:X:X:X:X:X:X:X:X:X:X:X:X#X#XA.m.X.] M > : + @ + + + + + + + + @ @ + o o X & f S T.T.:X:X:X:X:X:X:X:X:X:X:X:X:X:X:X:X:X",
":X:X:X:X:X:X:X:X:X:X:X:X:X:X:X:X:X#X#XR.Y.A.m.} H A f f s s s s s s s s f f s s y y k ~ 3.[.{.:X:X:X:X:X:X:X:X:X:X:X:X:X:X:X:X:X",
":X:X:X:X:X:X:X:X:X:X:X:X:X:X:X:X:X:X:XXXXX{.{.Y.m.9.4.{ { } { { { { } { } { { { { 4.7.Z.P.*X&X:X:X:X:X:X:X:X:X:X:X:X:X:X:X:X:X:X",
":X:X:X:X:X:X:X:X:X:X:X:X:X:X:X:X:X:X:X#X+X+X+X).A.M.9.n.9.9.9.9.9.9.9.9.9.9.9.9.9.y.Z.Y.R.*X*X:X:X:X:X:X:X:X:X:X:X:X:X:X:X:X:X:X",
":X:X:X:X:X:X:X:X:X:X:X:X:X:X:X:X:X:X:X-X-X-X-X@XQ.W.J.J.F.F.F.F.F.F.F.F.F.F.F.F.H.T.Q.}.OX;X;X:X:X:X:X:X:X:X:X:X:X:X:X:X:X:X:X:X",
":X:X:X:X:X:X:X:X:X:X:X:X:X:X:X:X:X:X:X-X-X-X-X+XQ.W.J.J.F.F.F.F.F.F.F.F.F.F.F.F.H.T.Q.|.oX;X;X:X:X:X:X:X:X:X:X:X:X:X:X:X:X:X:X:X",
":X:X:X:X:X:X:X:X:X:X:X:X:X:X:X:X:X:X:X:X:X:X:X:X:X:X:X:X:X:X:X:X:X:X:X:X:X:X:X:X:X:X:X:X:X:X:X:X:X:X:X:X:X:X:X:X:X:X:X:X:X:X:X:X",
":X:X:X:X:X:X:X:X:X:X:X:X:X:X:X:X:X:X:X:X:X:X:X:X:X:X:X:X:X:X:X:X:X:X:X:X:X:X:X:X:X:X:X:X:X:X:X:X:X:X:X:X:X:X:X:X:X:X:X:X:X:X:X:X",
":X:X:X:X:X:X:X:X:X:X:X:X:X:X:X:X:X:X:X:X:X:X:X:X:X:X:X:X:X:X:X:X:X:X:X:X:X:X:X:X:X:X:X:X:X:X:X:X:X:X:X:X:X:X:X:X:X:X:X:X:X:X:X:X",
":X:X:X:X:X:X:X:X:X:X:X:X:X:X:X:X:X:X:X:X:X:X:X:X:X:X:X:X:X:X:X:X:X:X:X:X:X:X:X:X:X:X:X:X:X:X:X:X:X:X:X:X:X:X:X:X:X:X:X:X:X:X:X:X"
};
