/* XPM */
static char *t[] = {
/* columns rows colors chars-per-pixel */
"64 60 212 2 ",
"   c #005F1C",
".  c #00601D",
"X  c #036927",
"o  c #01732D",
"O  c #00782F",
"+  c #007C33",
"@  c #0B7C3B",
"#  c #0A7536",
"$  c #107238",
"%  c #1D7541",
"&  c #147E40",
"*  c #1C7B42",
"=  c #267B4C",
"-  c #267B47",
";  c #297E53",
":  c #008137",
">  c #00853A",
",  c #008A3E",
"<  c #5AA83F",
"1  c #66AB3E",
"2  c #008D41",
"3  c #0C8641",
"4  c #128444",
"5  c #138B4A",
"6  c #1A8A4D",
"7  c #009345",
"8  c #049449",
"9  c #0B934B",
"0  c #089047",
"q  c #10954D",
"w  c #099750",
"e  c #0C9854",
"r  c #1C9454",
"t  c #139A55",
"y  c #139B5A",
"u  c #1B9D5C",
"i  c #1A9857",
"p  c #138F50",
"a  c #22844D",
"s  c #298A4F",
"d  c #238E42",
"f  c #2C9543",
"g  c #349F43",
"h  c #3C9D4D",
"j  c #2C8751",
"k  c #228850",
"l  c #2D8853",
"z  c #2B885A",
"x  c #388757",
"c  c #338B55",
"v  c #378959",
"b  c #22935B",
"n  c #20975B",
"m  c #1EA05E",
"M  c #3CA142",
"N  c #25A159",
"B  c #2EA150",
"V  c #199F61",
"C  c #3B8B64",
"Z  c #338B60",
"A  c #2F9D61",
"S  c #229A62",
"D  c #3B9267",
"F  c #3F946C",
"G  c #329F72",
"H  c #1EA164",
"J  c #23A162",
"K  c #2DA264",
"L  c #2EA76B",
"P  c #24A46B",
"I  c #3BA96E",
"U  c #38A76C",
"Y  c #2EA977",
"T  c #34A578",
"R  c #47A24C",
"E  c #5AA841",
"W  c #57A847",
"Q  c #45A657",
"!  c #52AB59",
"~  c #64AB41",
"^  c #468D62",
"/  c #468D65",
"(  c #518F67",
")  c #43926E",
"_  c #4D926A",
"`  c #53936D",
"'  c #449570",
"]  c #499975",
"[  c #529A7B",
"{  c #569873",
"}  c #44AD75",
"|  c #45A67A",
" . c #59A27C",
".. c #4DB074",
"X. c #66A07F",
"o. c #8EBC5E",
"O. c #95BB54",
"+. c #93BC5A",
"@. c #8CBC63",
"#. c #8ABE77",
"$. c #B8C55E",
"%. c #BAC865",
"&. c #B7C86A",
"*. c #ABC879",
"=. c #B8CC7A",
"-. c #8DC176",
";. c #C6CB69",
":. c #D3CE6C",
">. c #C5CD73",
",. c #D8D377",
"<. c #DAD069",
"1. c #34AC80",
"2. c #539E82",
"3. c #5A9F81",
"4. c #5BA587",
"5. c #49B383",
"6. c #46B084",
"7. c #53B481",
"8. c #5EBA8A",
"9. c #5BB887",
"0. c #64A386",
"q. c #66A588",
"w. c #6AAC93",
"e. c #73AC93",
"r. c #73AF99",
"t. c #68BC93",
"y. c #75B69A",
"u. c #63BC8D",
"i. c #73BEA6",
"p. c #78B4A1",
"a. c #75C49C",
"s. c #6DC194",
"d. c #70C4A3",
"f. c #73C3AA",
"g. c #7BC9AE",
"h. c #7BC4A1",
"j. c #84B992",
"k. c #85B7A1",
"l. c #85B9A6",
"z. c #8CBCAB",
"x. c #96BCA5",
"c. c #94BDA8",
"v. c #B3CC81",
"b. c #BDD18B",
"n. c #B9D398",
"m. c #AECC89",
"M. c #81CAAB",
"N. c #84C4AE",
"B. c #9BC0AA",
"V. c #89C6B3",
"C. c #94C3B3",
"Z. c #96C7BA",
"A. c #9BC5B6",
"S. c #96D2B2",
"D. c #A5C9BA",
"F. c #AAD0B0",
"G. c #8BC382",
"H. c #C5D38C",
"J. c #D8D88D",
"K. c #DEDE9C",
"L. c #CCD896",
"P. c #E0DD96",
"I. c #E0DB8E",
"U. c #CBDBA6",
"Y. c #D5DDA4",
"T. c #C9DDB0",
"R. c #D8E1B2",
"E. c #E3E6B6",
"W. c #9BD6C3",
"Q. c #96D5C0",
"!. c #A6CEC3",
"~. c #A1D9C7",
"^. c #AADDCE",
"/. c #ABDBC2",
"(. c #BCD6C9",
"). c #B7DDD8",
"_. c #B5DBD6",
"`. c #B2E0D4",
"'. c #BDE3D5",
"]. c #BBE3DD",
"[. c #B6E2D9",
"{. c #BBE5E1",
"}. c #C1E4D3",
"|. c #C3E6DC",
" X c #CCE9DC",
".X c #D4E4DA",
"XX c #D0EBDD",
"oX c #DFE7C2",
"OX c #E2E9C9",
"+X c #CDEAE3",
"@X c #C7E7E2",
"#X c #D3EBE4",
"$X c #DBEDEA",
"%X c #D8EEE7",
"&X c #DCF0E6",
"*X c #DCF0ED",
"=X c #D9F1F3",
"-X c #E5EFE9",
";X c #E2F2EE",
":X c #EEF5EB",
">X c #EBF3E7",
",X c #F1F6EE",
"<X c #E2F3F2",
"1X c #EAF6F3",
"2X c #E8F7F8",
"3X c #ECF8FA",
"4X c #F1F3F4",
"5X c #F3FBFC",
"6X c #FEFFFF",
"7X c #F6F7F8",
"8X c #C4DBCF",
"9X c None",
/* pixels */
"9X9X9X9X9X9X9X9X9X9X9X9X9X9X9X9X9X9X9X5X5X5X5X5X5X5X5X5X5X5X5X5X3X3X3X3X5X6X5X5X5X5X5X5X5X9X9X9X9X9X9X9X9X9X9X9X9X9X9X9X9X9X9X9X",
"9X9X9X9X9X9X9X9X9X9X9X9X9X9X9X9X9X9X9X5X5X5X5X5X5X5X5X5X5X5X5X5X3X3X3X3X5X6X5X5X5X5X5X5X5X9X9X9X9X9X9X9X9X9X9X9X9X9X9X9X9X9X9X9X",
"9X9X9X9X9X9X9X9X9X9X9X9X9X9X9X9X9X9X9X,X,X,X:X,X,X,X,X,X,X,X,X,X:X>X:X:X,X,X,X,X,X:X:X,X:X9X9X9X9X9X9X9X9X9X9X9X9X9X9X9X9X9X9X9X",
"9X9X9X9X9X9X9X9X9X9X9X9X9X9X9X9X9X9X9X4X,X:X:X,X,X,X:X,X,X:X:X,X>X>X>X>X,X,X,X,X,X:X:X:X:X9X9X9X9X9X9X9X9X9X9X9X9X9X9X9X9X9X9X9X",
"9X9X9X9X9X9X9X9X9X6X6X6X6X6X6X6X6X5X5XOXOXY.Y.Y.K.K.K.K.P.P.P.P.J.J.J.J.Y.T.T.Y.K.J.K.E.E.2X3X9X9X9X9X9X9X9X9X9X9X9X9X9X9X9X9X9X",
"9X9X9X9X9X9X9X9X9X6X6X6X6X6X6X6X6X5X5XoXE.L.H.H.J.,.,.,.,.,.<.,.:.:.:.:.H.n.H.H.,.<.,.K.E.2X3X9X9X9X9X9X9X9X9X9X9X9X9X9X9X9X9X9X",
"9X9X9X9X9X9X9X9X9X:X:X;X;X&X&X&X&X#X%XT.U.b.v.>.>.>.>.;.;.;.;.;.;.;.;.;.v.m.v.v.>.;.>.L.U.+X+XW.W.9X9X9X9X9X9X9X9X9X9X9X9X9X9X9X",
"9X9X9X9X9X9X9X9X9X%XXXXX X}.}.}.}.'.].n.n.v.*.&.&.&.%.%.;.$.%.%.$.$.%.%.*.*.*.*.&.%.&.b.n.'.[.W.W.9X9X9X9X9X9X9X9X9X9X9X9X9X9X9X",
"9X9X9X9X9X9X9X9X9X/./.S.S.a.a.h.M.y.M.j.#.o.+.+.+.+.O.O.O.O.O.O.O.O.O.O.o.@.o.o.+.O.+.-.G.g.V.f.f.9X9X9X9X9X9X9X9X9X9X9X9X9X9X9X",
"9X9X9X9X9X9X9X9X9Xs.u.7.} u m n n S n R R 1 1 1 1 1 ~ 1 ~ ~ ~ 1 1 1 1 1 1 1 1 1 1 E W ! ! 1.1.1.T T T 4.q.e.k.9X9X9X9X9X9X9X9X9X",
"9X9X9X9X9X9X9X9X9Xs.u...} i t i i b k h R E < < < < < W W < W W ~ E < < < < E E E W W ! ! Y Y T T G G 7.9.w.e.k.9X9X9X9X9X9X9X9X",
"9X9X9X9X9X9X9X9X9Xt.9.} I q q 5 6 4 4 f f g g M M M M M M M M M R W g g M M M M M M M B n P V V S S b } } 4.q.x.(.(.9X9X9X9X9X9X",
"9X9X9X9X9X9X9X9X9Xs.9.} I q 9 4 3 > $ f f g g M M M g g M M g M R h g g g g M g M g B B B u H u V r r I |  .0.x.(.8X9X9X9X9X9X9X",
"9X9X9X9X9X9X9X9X9Xu...I K , , o o . . @ > , 7 7 7 7 7 7 7 7 7 7 7 7 7 7 7 7 7 7 7 7 7 7 7 7 7 , , > @ l x ^ ( x..X-X6X6X9X9X9X9X",
"9X9X9X9X9X9X9X9X9X8.7.} K , , o o . . O > , 7 7 7 7 7 7 7 7 7 7 7 7 7 7 7 7 7 7 7 7 7 7 7 7 7 , 2 > > j x ^ ( x..X>X6X6X9X9X9X9X",
"9X9X9X9X9X9X9X9X9X8...I A > > O O : O , , 7 7 7 7 7 7 7 7 7 7 7 7 7 7 7 7 7 7 7 7 7 7 7 7 7 7 , , > > j x ^ ( x..X-X6X6X9X9X9X9X",
"9X9X9X9X9X9X9X9X9X8.7.U A > > + + + + > , 2 7 7 7 7 7 7 7 7 7 7 7 7 7 7 7 7 7 7 7 7 7 7 7 7 7 > , > > l x ^ ( x..X>X6X6X9X9X9X9X",
"9X9X9X9X9X9X9X9X9X8.7.U A + + > > , , 7 7 7 8 8 7 7 7 7 7 7 7 7 7 7 7 7 7 7 7 7 7 7 7 7 7 7 2 2 , + > j c ^ ( x..X-X6X6X9X9X9X9X",
"9X9X9X9X9X9X9X9X9Xu.5.I A + + , , , 7 7 7 8 8 7 7 7 7 7 7 7 7 7 7 7 7 7 7 7 2 7 7 7 7 7 7 7 7 2 , > > j c ^ ( x..X-X6X6X9X9X9X9X",
"9X9X9X9X9X9X9X9X9Xu...I K > , 0 0 q 0 t y u H t w w w 8 7 7 7 7 7 7 2 2 2 2 2 2 2 2 2 2 7 7 2 > , > > k c ( ( x..X-X6X6X9X9X9X9X",
"9X9X9X9X9X9X9X9X9Xu...I K , 2 9 9 q q y u J P H e e w w 8 8 7 7 7 8 2 2 2 , , 2 2 , 2 2 2 7 7 2 , > > s c ^ ( x..X-X6X6X9X9X9X9X",
"9X9X9X9X9X9X9X9X9X8.9.I K 7 7 9 9 t t J P Y Y H y y e w 7 7 7 7 7 7 2 2 , , + , > 2 , 2 2 7 7 2 , > : s c ^ ( x..X-X6X6X9X9X9X9X",
"9X9X9X9X9X9X9X9X9X8.7.I K 7 7 9 9 t u L I Y 1.P m y t e 8 8 7 7 7 7 2 2 , + > + > , 2 2 2 7 7 2 , > > s c ^ ( x..X-X6X6X9X9X9X9X",
"9X9X9X9X9X9X9X9X9XV.M.a.s.5.5.9.7.t.s.s.a.d.d.5.H m w w 7 7 7 7 7 2 2 2 + @ @ & 4 b b k r p p & 4 @ @ c c ^ ` x..X-X6X6X9X9X9X9X",
"9X9X9X9X9X9X9X9X9X@X|.].].^.^.'.}.XXXX X|.'.}.a.U m 8 8 7 7 7 7 2 2 , , # # % = C [ [ ' ) z z = - % % x x ` { B..X-X6X6X9X9X9X9X",
"9X9X9X9X9X9X9X9X9X+X+X@X{.[.].@X+X&X&XXXXX X Xa.U m 8 8 7 7 7 7 2 2 , 2 # # % = C 2.[ ) ' Z Z = = % % ; x ` { B..X-X6X6X9X9X9X9X",
"9X9X9X9X9X9X9X9X9X<X<X=X=X=X=X3X3X6X6X1X1X;X&XM.U m 7 7 7 7 7 , 2 2 2 2 # $ % = / 0.3.[ ] C C ; ; % - x ^ ` { B..X-X6X6X9X9X9X9X",
"9X9X9X9X9X9X9X9X9X<X2X=X=X=X=X3X3X6X6X1X;X*X$Xg.L m 7 7 , 7 7 , 2 2 2 2 # $ % ; ` e.w.0.0.[ [ ) ( ^ x ` { X.q.B..X-X6X6X9X9X9X9X",
"9X9X9X9X9X9X9X9X9X9X9X9X9X9X9X9X9X9X9X{.{.{.{.d.L m 7 , > > O : 7 7 2 2 X X = x k..X#X$X$X4X1X1X-X<X*X<X<X<X;X9X9X9X9X9X9X9X9X9X",
"9X9X9X9X9X9X9X9X9X9X9X9X9X9X9X9X9X9X9X{.{.{.{.d.L m 7 7 : > : O 7 7 2 2 o X - x r.+X#X$X-X4X4X1X4X-X<X<X<X<X;X9X9X9X9X9X9X9X9X9X",
"9X9X9X9X9X9X9X9X9X9X9X9X9X9X9X9X9X9X9X{.{.{.{.d.L m 7 , : : O O 7 7 2 2 X X - ; k.#X$X1X1X6X6X6X6X5X7X2X2X2X2X9X9X9X9X9X9X9X9X9X",
"9X9X9X9X9X9X9X9X9X9X9X9X9X9X9X9X9X9X9X{.{.{.{.d.L m 7 , : : O : 7 7 2 , $ X - x k.%X-X1X1X6X6X6X6X5X5X3X2X2X2X9X9X9X9X9X9X9X9X9X",
"9X9X9X9X9X9X9X9X9X9X9X9X9X9X9X9X9X9X9X{.{.{.].d.A r : : : : : : 7 7 2 2 o X % x y.'.].|.@X9X9X9X9X9X9X9X9X9X9X9X9X9X9X9X9X9X9X9X",
"9X9X9X9X9X9X9X9X9X9X9X9X9X9X9X9X9X9X9X{.{.{.{.d.A 6 > : : : : : 7 7 2 2 # X % j y.].].].].9X9X9X9X9X9X9X9X9X9X9X9X9X9X9X9X9X9X9X",
"9X9X9X9X9X9X9X9X9X9X9X9X9X9X9X9X9X9X9X].].{.{.y.A r : > : : : : 7 7 2 , o X $ c e.`.).`.).9X9X9X9X9X9X9X9X9X9X9X9X9X9X9X9X9X9X9X",
"9X9X9X9X9X9X9X9X9X9X9X9X9X9X9X9X9X9X9X].].].{.i.A 6 > : : : : : 7 7 , , O X * c w._._._._.9X9X9X9X9X9X9X9X9X9X9X9X9X9X9X9X9X9X9X",
"9X9X9X9X9X9X9X9X9X9X9X9X9X9X9X9X9X9X9X[.`.`.[.t.N i > > : : O : , 0 > > O o @ j 0.D.!.!.!.9X9X9X9X9X9X9X9X9X9X9X9X9X9X9X9X9X9X9X",
"9X9X9X9X9X9X9X9X9X9X9X9X9X9X9X9X9X9X9X`.`.`.`.s.K i , > O : O : , , > > O o @ s  .C.C.A.A.9X9X9X9X9X9X9X9X9X9X9X9X9X9X9X9X9X9X9X",
"9X9X9X9X9X9X9X9X9X9X9X9X9X9X9X9X9X9X9X^.^.^.^.s.N i , > O O O o , , > > + o $ s  .C.C.C.C.9X9X9X9X9X9X9X9X9X9X9X9X9X9X9X9X9X9X9X",
"9X9X9X9X9X9X9X9X9X9X9X9X9X9X9X9X9X9X9X~.~.~.~.u.K i , > : O o o , , > > + + 4 s [ z.z.z.z.9X9X9X9X9X9X9X9X9X9X9X9X9X9X9X9X9X9X9X",
"9X9X9X9X9X9X9X9X9X9X9X9X9X9X9X9X9X9X9XW.Q.Q.Q.8.N t 2 , O O o o , , , , : O > a  .l.l.l.l.9X9X9X9X9X9X9X9X9X9X9X9X9X9X9X9X9X9X9X",
"9X9X9X9X9X9X9X9X9X9X9X9X9X9X9X9X9X9X9XM.M.g.g.5.m m 7 , o o X X , , , , : + 6 a ' e.r.y.r.9X9X9X9X9X9X9X9X9X9X9X9X9X9X9X9X9X9X9X",
"9X9X9X9X9X9X9X9X9X9X9X9X9X9X9X9X9X9X9Xg.g.g.g.5.m t 7 , o o o o , , , , + O 4 6 F r.r.r.r.9X9X9X9X9X9X9X9X9X9X9X9X9X9X9X9X9X9X9X",
"9X9X9X9X9X9X9X9X9X9X9X9X9X9X9X9X9X9X9Xg.g.g.g.5.m t 7 7 : : O O , 7 , , : # , 6 D q.e.k.k.9X9X9X9X9X9X9X9X9X9X9X9X9X9X9X9X9X9X9X",
"9X9X9X9X9X9X9X9X9X9X9X9X9X9X9X9X9X9X9Xg.g.g.g.5.H t 7 , > + + + 7 , , 2 : + > a A w.e.k.k.9X9X9X9X9X9X9X9X9X9X9X9X9X9X9X9X9X9X9X",
"9X9X9X9X9X9X9X9X9X9X9X9X9X9X9X9X9X9X9Xf.f.f.f.6.S t 7 7 7 7 7 7 7 7 8 7 , > , 5 Z ` 0.x.D.6X6X9X9X9X9X9X9X9X9X9X9X9X9X9X9X9X9X9X",
"9X9X9X9X9X9X9X9X9X9X9X9X9X9X9X9X9X9X9Xf.f.f.f.6.V y 7 7 7 7 7 7 7 7 8 8 > > 3 6 c { q.x.D.6X6X9X9X9X9X9X9X9X9X9X9X9X9X9X9X9X9X9X",
"9X9X9X9X9X9X9X9X9X9X9X9X9X9X9X9X9X9X9Xf.f.f.f.6.r 5 , > > , > > , > > > + + : 4 k v { k.B.6X7X9X9X9X9X9X9X9X9X9X9X9X9X9X9X9X9X9X",
"9X9X9X9X9X9X9X9X9X9X9X9X9X9X9X9X9X9X9Xf.f.f.f.6.b 5 > > > > @ > > , > @ + + # & a x ` k.A.7X7X9X9X9X9X9X9X9X9X9X9X9X9X9X9X9X9X9X",
"9X9X9X9X9X9X9X9X9X9X9X9X9X9X9X9X9X9X9Xi.f.i.i.| 6 4 + + + + + + + + + + O o # # $ ; / e.c.4X7X9X9X9X9X9X9X9X9X9X9X9X9X9X9X9X9X9X",
"9X9X9X9X9X9X9X9X9X9X9X9X9X9X9X9X9X9X9Xi.i.i.i.T 6 4 + + + + + + + + + + o o # & - - C e.k.4X4X9X9X9X9X9X9X9X9X9X9X9X9X9X9X9X9X9X",
"9X9X9X9X9X9X9X9X9X9X9X9X9X9X9X9X9X9X9Xz.z.g.z.4.D z k k k k k k k k k k * ; ; ; v ) 3.k.c.4X4X9X9X9X9X9X9X9X9X9X9X9X9X9X9X9X9X9X",
"9X9X9X9X9X9X9X9X9X9X9X9X9X9X9X9X9X9X9XV.V.V.V.r.[ ] D D D D D C D D C C ; F ) C ] 2.w.z.D.1X4X9X9X9X9X9X9X9X9X9X9X9X9X9X9X9X9X9X",
"9X9X9X9X9X9X9X9X9X9X9X9X9X9X9X9X9X9X9XZ.Z.C.C.y.3.[ ' ' ' ' ' ) ' ' ) ) F C 2.2.2.4.r.z.!.4X4X9X9X9X9X9X9X9X9X9X9X9X9X9X9X9X9X9X",
"9X9X9X9X9X9X9X9X9X9X9X9X9X9X9X9X9X9X9XZ.Q.c.Z.p.q.3.[ [ [ [ [ [ [ [ [ [ 2.2.2.2.4.w.p.Q.!.7X4X9X9X9X9X9X9X9X9X9X9X9X9X9X9X9X9X9X",
"9X9X9X9X9X9X9X9X9X9X9X9X9X9X9X9X9X9X9XZ.Z.!.Z.p.q.4.[ [ [ [ [ [ [ [ [ [ 2.2.2.2.4.w.p.c.!.4X4X9X9X9X9X9X9X9X9X9X9X9X9X9X9X9X9X9X",
"9X9X9X9X9X9X9X9X9X9X9X9X9X9X9X9X9X9X9X9X9X9X9X9X9X9X9X9X9X9X9X9X9X9X9X9X9X9X9X9X9X9X9X9X9X9X9X9X9X9X9X9X9X9X9X9X9X9X9X9X9X9X9X9X",
"9X9X9X9X9X9X9X9X9X9X9X9X9X9X9X9X9X9X9X9X9X9X9X9X9X9X9X9X9X9X9X9X9X9X9X9X9X9X9X9X9X9X9X9X9X9X9X9X9X9X9X9X9X9X9X9X9X9X9X9X9X9X9X9X",
"9X9X9X9X9X9X9X9X9X9X9X9X9X9X9X9X9X9X9X9X9X9X9X9X9X9X9X9X9X9X9X9X9X9X9X9X9X9X9X9X9X9X9X9X9X9X9X9X9X9X9X9X9X9X9X9X9X9X9X9X9X9X9X9X",
"9X9X9X9X9X9X9X9X9X9X9X9X9X9X9X9X9X9X9X9X9X9X9X9X9X9X9X9X9X9X9X9X9X9X9X9X9X9X9X9X9X9X9X9X9X9X9X9X9X9X9X9X9X9X9X9X9X9X9X9X9X9X9X9X"
};
