/* XPM */
static char * u_xpm[] = {
"64 62 545 2",
"  	c None",
". 	c #FFFFFF",
"+ 	c #FFFFFE",
"@ 	c #F9FCF8",
"# 	c #F7FAF4",
"$ 	c #F6FAF5",
"% 	c #F5FAFA",
"& 	c #F5FAFB",
"* 	c #F4F9F9",
"= 	c #F3F8F8",
"- 	c #F5F9F5",
"; 	c #FBFDFA",
"> 	c #FAFDF9",
", 	c #C8E0B1",
"' 	c #AAD17D",
") 	c #ACD27F",
"! 	c #A7D298",
"~ 	c #95D3D0",
"{ 	c #93D3D5",
"] 	c #93D3D4",
"^ 	c #89C6C9",
"/ 	c #7BB5BA",
"( 	c #7BB5BB",
"_ 	c #7EB7B8",
": 	c #9FCB93",
"< 	c #E1EED6",
"[ 	c #F9FCF7",
"} 	c #C9E1B3",
"| 	c #D5CF5F",
"1 	c #E0CA24",
"2 	c #E1CA20",
"3 	c #CDC96C",
"4 	c #71C6C6",
"5 	c #60C6CD",
"6 	c #61C6CD",
"7 	c #61C7CD",
"8 	c #4BB5BD",
"9 	c #169BA7",
"0 	c #289EA3",
"a 	c #79BC63",
"b 	c #D9EACA",
"c 	c #F4F9F2",
"d 	c #D2E4BB",
"e 	c #CFCD59",
"f 	c #F3CC2B",
"g 	c #FFCE34",
"h 	c #FFCE2B",
"i 	c #EACC70",
"j 	c #7AC7CA",
"k 	c #64C7D1",
"l 	c #65C7D0",
"m 	c #57BBC5",
"n 	c #5ABDC7",
"o 	c #66C8D1",
"p 	c #51B6C0",
"q 	c #289DAA",
"r 	c #349FA7",
"s 	c #7DBD69",
"t 	c #DAEACB",
"u 	c #F4F9F1",
"v 	c #D4E7C4",
"w 	c #D1E5BF",
"x 	c #D1E6BF",
"y 	c #D2E6C0",
"z 	c #D2E5C2",
"A 	c #EFF6EB",
"B 	c #EDF3E2",
"C 	c #BECC55",
"D 	c #F5CD32",
"E 	c #E9CD70",
"F 	c #79C8CA",
"G 	c #64C7D0",
"H 	c #64C6CF",
"I 	c #3CA7B3",
"J 	c #42ABB6",
"K 	c #5CBFC9",
"L 	c #299DAA",
"M 	c #349FA6",
"N 	c #E9F2E1",
"O 	c #92C95E",
"P 	c #80C57A",
"Q 	c #7FC683",
"R 	c #7FC682",
"S 	c #7AC078",
"T 	c #75B96C",
"U 	c #75B96D",
"V 	c #77BA6A",
"W 	c #88C34E",
"X 	c #DDECD2",
"Y 	c #F7F4E3",
"Z 	c #E3D056",
"` 	c #FACE32",
" .	c #62C4CD",
"..	c #3CA8B3",
"+.	c #289DA9",
"@.	c #3FAAB5",
"#.	c #5DC2CA",
"$.	c #7CBD68",
"%.	c #91CA72",
"&.	c #6CC7C1",
"*.	c #66C7CF",
"=.	c #66C7CE",
"-.	c #67C7CE",
";.	c #51B4BC",
">.	c #2E9EA8",
",.	c #2F9EA8",
"'.	c #3CA2A3",
").	c #81BF66",
"!.	c #DEEDD2",
"~.	c #F2F3E3",
"{.	c #D1CE58",
"].	c #F7CD33",
"^.	c #3BA7B3",
"/.	c #279CAA",
"(.	c #2B9EAB",
"_.	c #3EA9B5",
":.	c #61C4CD",
"<.	c #6BC7C3",
"[.	c #4EB4BF",
"}.	c #289CAA",
"|.	c #38A0A5",
"1.	c #81BF67",
"2.	c #EBF3E3",
"3.	c #B3CB5C",
"4.	c #F2CD34",
"5.	c #279CA9",
"6.	c #38A5B1",
"7.	c #61C3CC",
"8.	c #66C7D0",
"9.	c #F7FAF5",
"0.	c #DAE8C8",
"a.	c #CACE66",
"b.	c #F1CC30",
"c.	c #4FB5BF",
"d.	c #62C4CE",
"e.	c #48B1BC",
"f.	c #35A4B1",
"g.	c #55BAC4",
"h.	c #63C5CF",
"i.	c #F8FBF6",
"j.	c #A4D07C",
"k.	c #C1C732",
"l.	c #EECC37",
"m.	c #56BAC4",
"n.	c #33A2AF",
"o.	c #50B6C0",
"p.	c #5EC2CC",
"q.	c #51B7C2",
"r.	c #53B8C2",
"s.	c #FAFCF9",
"t.	c #E4EFD8",
"u.	c #BDCF6D",
"v.	c #B3C636",
"w.	c #E1CA38",
"x.	c #FFCE2A",
"y.	c #2FA0AC",
"z.	c #42ACB6",
"A.	c #5FC2CB",
"B.	c #91C972",
"C.	c #EAF4E5",
"D.	c #ACCE69",
"E.	c #EECD39",
"F.	c #FBCE34",
"G.	c #FDCE34",
"H.	c #58BBC5",
"I.	c #60C4CB",
"J.	c #61C4CC",
"K.	c #60C2CC",
"L.	c #62C5CE",
"M.	c #EAF3E2",
"N.	c #96CB77",
"O.	c #6CC7C3",
"P.	c #E7F1E0",
"Q.	c #ABCB58",
"R.	c #F2CD33",
"S.	c #63C5CE",
"T.	c #43ACB7",
"U.	c #34A3AF",
"V.	c #339FA6",
"W.	c #EEF5E6",
"X.	c #ADD695",
"Y.	c #73C9C6",
"Z.	c #E5F1DF",
"`.	c #C3D58B",
" +	c #E6CD42",
".+	c #39A6B1",
"++	c #229BA7",
"@+	c #4CB2BD",
"#+	c #339FA5",
"$+	c #7BBC68",
"%+	c #D9EACB",
"&+	c #FBFDF9",
"*+	c #E1F0E3",
"=+	c #84CFD3",
"-+	c #62C7D0",
";+	c #E0EFD5",
">+	c #C1D15F",
",+	c #FECE38",
"'+	c #55B9C3",
")+	c #5BBEC8",
"!+	c #37A1A7",
"~+	c #93C782",
"{+	c #E1EFD3",
"]+	c #F4F9F7",
"^+	c #93D1B7",
"/+	c #66C6C4",
"(+	c #65C7D1",
"_+	c #F1F8EA",
":+	c #DAE4AD",
"<+	c #E1CD48",
"[+	c #FBCE33",
"}+	c #279DAA",
"|+	c #40A2AB",
"1+	c #B7D8B0",
"2+	c #EEF7E3",
"3+	c #F3F8F1",
"4+	c #9ED08B",
"5+	c #6CC6B7",
"6+	c #64C7D2",
"7+	c #EBF4E3",
"8+	c #AED06B",
"9+	c #E3CC3B",
"0+	c #FBCD34",
"a+	c #48A3AE",
"b+	c #D0E3D4",
"c+	c #F9FCF4",
"d+	c #A2D07E",
"e+	c #6FC6B4",
"f+	c #F3F9ED",
"g+	c #C4E1A5",
"h+	c #A9CD5F",
"i+	c #E2CB3A",
"j+	c #49A4AD",
"k+	c #D7E7DE",
"l+	c #FDFEF8",
"m+	c #A1CF7F",
"n+	c #6EC6B4",
"o+	c #FDFEFC",
"p+	c #EFF7E8",
"q+	c #C0DF9C",
"r+	c #ADCC58",
"s+	c #DECA36",
"t+	c #269DAA",
"u+	c #4BA4AF",
"v+	c #DEEAE7",
"w+	c #FFFFFD",
"x+	c #F5F9F1",
"y+	c #A2CF7F",
"z+	c #F8FBF5",
"A+	c #B5D88E",
"B+	c #CCCB45",
"C+	c #F1CC35",
"D+	c #58BCC5",
"E+	c #44ADB8",
"F+	c #4CA4B0",
"G+	c #E0EBEC",
"H+	c #A2CF7E",
"I+	c #F5FAF3",
"J+	c #D4E5BD",
"K+	c #CFCE5F",
"L+	c #F3CC2F",
"M+	c #3EA9B4",
"N+	c #249BA8",
"O+	c #37A4B0",
"P+	c #279DA9",
"Q+	c #4CA4AB",
"R+	c #E1EBEC",
"S+	c #E9F3E3",
"T+	c #A7CA58",
"U+	c #65C8D0",
"V+	c #35A4B0",
"W+	c #259BA9",
"X+	c #37A4B1",
"Y+	c #279DA8",
"Z+	c #4EA5A3",
"`+	c #E1EBEB",
" @	c #E9F3E4",
".@	c #A7CB5B",
"+@	c #60C3CB",
"@@	c #52B7C1",
"#@	c #36A4B0",
"$@	c #41ABB6",
"%@	c #66C8D0",
"&@	c #299DA6",
"*@	c #52A899",
"=@	c #E1ECE9",
"-@	c #A2CF7D",
";@	c #A7CB5A",
">@	c #65C7CF",
",@	c #5CC0C8",
"'@	c #3FA9B4",
")@	c #5BBFC7",
"!@	c #60C3CC",
"~@	c #61C3CD",
"{@	c #2C9EA2",
"]@	c #5BAB81",
"^@	c #E1ECE4",
"/@	c #F5F9F2",
"(@	c #A6D184",
"_@	c #71C7B5",
":@	c #A8CA5C",
"<@	c #F1CC34",
"[@	c #5ABEC7",
"}@	c #2C9FAB",
"|@	c #3BA7B2",
"1@	c #51B6C1",
"2@	c #279DAB",
"3@	c #35A0A0",
"4@	c #6FB56D",
"5@	c #E4EEE2",
"6@	c #D0E7BD",
"7@	c #8ACFC6",
"8@	c #62C6D1",
"9@	c #D9E7C6",
"0@	c #CACD5F",
"a@	c #F0CC2A",
"b@	c #EACD70",
"c@	c #7AC8CA",
"d@	c #58BCC6",
"e@	c #32A3B0",
"f@	c #2D9FAC",
"g@	c #269CAB",
"h@	c #3EA29F",
"i@	c #85C068",
"j@	c #E8F1E1",
"k@	c #FEFEFD",
"l@	c #F1F8ED",
"m@	c #9ED7D6",
"n@	c #5FC6CE",
"o@	c #FBFCF9",
"p@	c #D0E4BE",
"q@	c #D3D26C",
"r@	c #D9CB29",
"s@	c #D9CA25",
"t@	c #C8CA72",
"u@	c #73C7CA",
"v@	c #5FC2CC",
"w@	c #4FB6C1",
"x@	c #4CB3BD",
"y@	c #67C9D2",
"z@	c #5DC0CA",
"A@	c #259CAB",
"B@	c #43A49F",
"C@	c #8FC569",
"D@	c #E9F3E1",
"E@	c #FCFDFB",
"F@	c #DDECD5",
"G@	c #92D2CC",
"H@	c #61C7CF",
"I@	c #D1E7BE",
"J@	c #B4D892",
"K@	c #A6D078",
"L@	c #86C675",
"M@	c #68C7CA",
"N@	c #48AFBB",
"O@	c #39A5B1",
"P@	c #64C7CF",
"Q@	c #4EB5BF",
"R@	c #42A49F",
"S@	c #8EC569",
"T@	c #F9FCF6",
"U@	c #EFF6E7",
"V@	c #E1EED8",
"W@	c #98CD93",
"X@	c #6DC6BC",
"Y@	c #DAEACC",
"Z@	c #87C677",
"`@	c #64C6D0",
" #	c #2A9EAB",
".#	c #60C5CC",
"+#	c #5FC4CB",
"@#	c #48B2BB",
"##	c #42A4A0",
"$#	c #DDEDD0",
"%#	c #ABD686",
"&#	c #91CA83",
"*#	c #6FC7C2",
"=#	c #DEECD2",
"-#	c #45ADB9",
";#	c #269CA9",
">#	c #5ABFC8",
",#	c #42ADB8",
"'#	c #8DC568",
")#	c #E6F1DD",
"!#	c #D1E6C2",
"~#	c #94CD88",
"{#	c #7AC9A6",
"]#	c #6CC7C2",
"^#	c #DEECD1",
"/#	c #60C5CD",
"(#	c #52BAC3",
"_#	c #38A7B2",
":#	c #43A4A0",
"<#	c #87C35C",
"[#	c #AFD58A",
"}#	c #95CFA9",
"|#	c #6BC6B9",
"1#	c #67C7C7",
"2#	c #47AEBA",
"3#	c #60C4CD",
"4#	c #4BB3BD",
"5#	c #2CA0AC",
"6#	c #43A39F",
"7#	c #84C157",
"8#	c #7CC68A",
"9#	c #6BC6BF",
"0#	c #4FB4BF",
"a#	c #54B9C3",
"b#	c #45ADB8",
"c#	c #4CB1BD",
"d#	c #47AFB9",
"e#	c #30A1AE",
"f#	c #51B1B2",
"g#	c #79C495",
"h#	c #49B1BC",
"i#	c #49B0BA",
"j#	c #64C6CE",
"k#	c #53BAC4",
"l#	c #39A7B4",
"m#	c #37A0A5",
"n#	c #80BF66",
"o#	c #49B0BC",
"p#	c #49B1BB",
"q#	c #61C5CD",
"r#	c #2B9DA9",
"s#	c #43A4A1",
"t#	c #89C26E",
"u#	c #E0EED4",
"v#	c #41A49F",
"w#	c #80BF72",
"x#	c #BFDDA1",
"y#	c #EEF6E6",
"z#	c #DDECD0",
"A#	c #85C674",
"B#	c #68C7CB",
"C#	c #2EA0AC",
"D#	c #289CA9",
"E#	c #289DAB",
"F#	c #34A1A2",
"G#	c #58AE82",
"H#	c #91C75D",
"I#	c #E2EFD4",
"J#	c #FCFDF9",
"K#	c #EFF6E9",
"L#	c #BEDDB4",
"M#	c #7DC8A6",
"N#	c #67C7CA",
"O#	c #4AB1BC",
"P#	c #239CAC",
"Q#	c #45A595",
"R#	c #86C074",
"S#	c #CAE1BA",
"T#	c #F6FAF4",
"U#	c #F3F8EE",
"V#	c #B9DAA5",
"W#	c #7FC9AF",
"X#	c #66C6C8",
"Y#	c #60C2CB",
"Z#	c #4BB1BD",
"`#	c #299DAB",
" $	c #269DAB",
".$	c #3AA19F",
"+$	c #7EB992",
"@$	c #C6DFB2",
"#$	c #FAFCF8",
"$$	c #B6D8A0",
"%$	c #7EC9AE",
"&$	c #66C7CB",
"*$	c #2A9EAA",
"=$	c #38A1A3",
"-$	c #79B98B",
";$	c #C5DFB2",
">$	c #FEFEFE",
",$	c #F4F8F1",
"'$	c #B8D9A7",
")$	c #7AC7A4",
"!$	c #46AFBA",
"~$	c #2C9FAC",
"{$	c #2A9DAA",
"]$	c #36A0A6",
"^$	c #76B97F",
"/$	c #C9E0BA",
"($	c #ECF4E3",
"_$	c #B8DAAA",
":$	c #77C69E",
"<$	c #46AFB9",
"[$	c #2FA1AD",
"}$	c #74B87C",
"|$	c #CBE2C0",
"1$	c #F5FAF1",
"2$	c #FEFFFD",
"3$	c #CDE3B6",
"4$	c #7CC57D",
"5$	c #2EA0AD",
"6$	c #38A1A2",
"7$	c #76B885",
"8$	c #CAE1BE",
"9$	c #F4F9F0",
"0$	c #FEFFFE",
"a$	c #E5F0DB",
"b$	c #ADD6A5",
"c$	c #73C7A9",
"d$	c #65C8D1",
"e$	c #57BCC7",
"f$	c #2EA0AE",
"g$	c #39A19F",
"h$	c #79B890",
"i$	c #C6DFB4",
"j$	c #FDFFFD",
"k$	c #E7F1DF",
"l$	c #A7D39B",
"m$	c #74C7B8",
"n$	c #5EC0C6",
"o$	c #5ABEC8",
"p$	c #49B2BE",
"q$	c #3AA1A2",
"r$	c #7AB892",
"s$	c #C2DDAD",
"t$	c #F9FBF8",
"u$	c #ECF4E6",
"v$	c #A2CE8E",
"w$	c #5BAD9C",
"x$	c #33A1AB",
"y$	c #2FA0AD",
"z$	c #30A0AD",
"A$	c #36A0A5",
"B$	c #6EB57E",
"C$	c #BFDCA8",
"D$	c #F9FBF7",
"E$	c #ECF4E7",
"F$	c #A3CD90",
"G$	c #56AB92",
"H$	c #6FB77A",
"I$	c #A4D17A",
"J$	c #D9ECC5",
"K$	c #E8F2E0",
"L$	c #A6CE9D",
"M$	c #71B868",
"N$	c #76BA6B",
"O$	c #86C34A",
"P$	c #C9E2AF",
"Q$	c #F6FAF1",
"R$	c #E4F0DA",
"S$	c #D1E5BE",
"T$	c #ECF4E5",
"                                                                                                                                ",
"                                                                                                                                ",
"                    . . . . . . . . . . . . . . . . . . . . .                                                                   ",
"                  . . . . . . . . . . . . . . . . . . . . . . .                                                                 ",
"            . . . . . . . . . . . . . . . . . . . . . . . . . . . .                                                             ",
"          . + @ # # $ % % % % % % % % % % % % % % & * = = = - ; . .                                                             ",
"        . . > , ' ) ! ~ { ] ] ] ] ] ] ] ] ] ] ] ] { ^ / ( _ : < . . . . . . . . . . . . . . . . . . . . . . .                   ",
"      . . [ } | 1 2 3 4 5 6 6 6 6 6 6 6 6 6 6 6 6 7 8 9 9 0 a b . . . . . . . . . . . . . . . . . . . . . . . .                 ",
"    . . c d e f g h i j k l l l l l l m n o l l l o p q q r s t . u v w w w w w w w w w w w w w w x y y y z A . .               ",
"    . . B C D g g h E F G l l l l H n I J K l l l o p L q M s t . N O P Q R R R R R R R R R R R Q S T U V W X . .               ",
"    . . Y Z ` g g h E F G l l l l  ...+.L @.#.H l o p L q M $.t . N %.&.*.=.=.=.=.=.=.=.=.=.=.=.-.;.>.,.'.).!.. .               ",
"    . . ~.{.].g g h E F G l l l l  .^./.L (._.:.l o p L q M $.t . N %.<.k l l l l l l l l l l l l [.}.q |.1.!.. .               ",
"    . . 2.3.4.g g h E F G l l l l  .^./.L 5.6.7.l o p L q M $.t . N %.<.k l l l l l l l l l l l 8.[.}.q |.1.!.. .               ",
"    . . 9.0.a.b.g h E F G l l K c.d.m e.f.6.g.h.l o p L q M $.t . N %.<.k l l l l l l l l l l l 8.[.}.q |.1.!.. .               ",
"      . . i.j.k.l.h E F G l o m.n.o. .p.q.r.G l l o p L q M $.t . N %.<.k l l l l l l l l l l l 8.[.}.q |.1.!.. .               ",
"      . s.t.u.v.w.x.E F G l o m.y.z.A.o l l l l l o p L q M $.t . N B.<.k l l l l l l l l l l l 8.[.}.q |.1.!.. .               ",
"    . . C.D.E.F.G.h E F G l o H.J I.J.K.L.l l l l o p L q M $.t . M.N.O.k l l l l l l l l l l l 8.[.}.q |.1.!.. .               ",
"    . . P.Q.R.g g h E F G l l S.7. .T.U.o.l l l l o p L q V.$.t . W.X.Y.k l l l l l l l l l l l 8.[.}.q |.1.!.. .               ",
"    . Z.`. +F.g g h E F G l l l o  ..+++@+l l l l o p L q #+$+%+. &+*+=+-+l l l l l l l l l l l 8.[.}.q |.1.!.. .               ",
"    . ;+>+,+g g g h E F G l l l l H '+c.)+l l l l o p L q !+~+{+. . ]+^+/+(+l l l l l l l l l l 8.[.}.q |.1.!.. .               ",
"    . _+:+<+[+g g h E F G l l l l l l o l l l l l o p L }+|+1+2+. . 3+4+5+6+l l l l l l l l l l 8.[.}.q |.1.!.. .               ",
"    . . 7+8+9+0+g h E F G l l l l l l l l l l l l o p L }+a+b+c+. . u d+e+6+l l l l l l l l l l 8.[.}.q |.1.!.. .               ",
"    . . f+g+h+i+G.h E F G l l l l l l l l l l l l o p L }+j+k+l+. . u m+n+6+l l l l l l l l l l 8.[.}.q |.1.!.. .               ",
"      . o+p+q+r+s+x.E F G l l l l l l l l H H l l o p L t+u+v+w+. . x+y+e+6+l l l l l l l l l l 8.[.}.q |.1.!.. .               ",
"        . z+A+B+C+h E F G l l l l l l o D+E+@+L.l o p L }+F+G+. . . x+H+e+6+l l l l l l l l l l 8.[.}.q |.1.!.. .               ",
"      . I+J+K+L+g h E F G l l l l l l m M+N+O+7.l o p L P+Q+R+. . . x+d+e+6+l l l l l l l l l l 8.[.}.q |.1.!.. .               ",
"    . . S+T+R.g g h E F G l l l l U+l o.V+W+X+7.l o p q Y+Z+`+. . . x+d+e+6+l l l l l l l l l l 8.[.}.q |.1.!.. .               ",
"    . .  @.@4.g g h E F G l l l H +@H G @@#@$@:.l %@p q &@*@=@. . . x+-@e+6+l l l l l l l l l l 8.[.}.q |.1.!.. .               ",
"    . . S+;@4.g g h E F G l l >@,@'@)@l S.!@~@l l %@p q {@]@^@. . . /@(@_@6+l l l l l l l l l l 8.[.}.q |.1.!.. .               ",
"    . .  @:@<@g g h E F G l o [@I }@|@n o l l l l o 1@2@3@4@5@. . . [ 6@7@8@l l l l l l l l l l 8.[.}.q |.1.!.. .               ",
"      . 9.9@0@a@g h b@c@G l o d@e@f@@+A.o o o l l U+o.g@h@i@j@. . . k@l@m@n@l l l l l l l l l l 8.[.}.q |.1.!.. .               ",
"        . o@p@q@r@s@t@u@G l l v@w@x@:.y@z@@@m.h.l U+o.A@B@C@D@. . . E@F@G@H@l l l l l l l l l l 8.[.}.q |.1.!.. .               ",
"        . . o+I@J@K@L@M@l l l l l l l v@N@5.O@J.l P@Q@A@R@S@N . T@U@V@W@X@k l l l l l l l l l l 8.[.}.q |.1.!.. .               ",
"          . . E@E@Y@Z@M@l l l l l l `@N@ #5.6..#U++#@#g@##S@N E@$#%#&#*#>@l l l l l l l l l l l 8.[.}.q |.1.!.. .               ",
"            . . . =#Z@M@l l l l l l H -#;#5.6.J.l >#,#g@##'#)#!#~#{#]#=.l l l l l l l l l l l l 8.[.}.q |.1.!.. .               ",
"              . . ^#Z@M@l l l l l l H -#5.5.6./#U+(#_#g@:#<#[#}#|#1#l l l l l l l l l l l l l l 8.[.}.q |.1.!.. .               ",
"              . . ^#Z@M@l l l l l l H 2#}.W+O+3#l 4#5#A@6#7#8#9#6+(+l l l l l l l l l l l l l l o 0#}.q |.1.!.. .               ",
"              . . ^#Z@M@l l l l l l l a#2#b#c#d.l d#N+e#f#g#]#6+l l l l l l l l l l l l l l l l 3#h#q q |.1.!.. .               ",
"              . . ^#Z@M@l l l l l l l l H H H l l 2#f@i#j#*.l l l l l l l l l l l l l l l l l l k#l#L q m#n#!.. .               ",
"              . . ^#Z@M@l l l l l l l l l l l l l o#p#q#l l l l l l l l l l l l l l l l l l l  .E+L L r#s#t#u#. .               ",
"              . . ^#Z@M@l l l l l l l l l l l l l K.!@l l l l l l l l l l l l l l l l l l l  .b#y.q 2@v#w#x#y#. .               ",
"              . . z#A#B#(+l l l l l l l l l l l l l l l l l l l l l l l l l l l l l l l o !@d#C#D#E#F#G#H#I#J#. .               ",
"                . K#L#M#N#k l l l l l l l l l l l l l l l l l l l l l l l l l l l l l o A.O#(.q L P#Q#R#S#T#. .                 ",
"                . . U#V#W#X#k l l l l l l l l l l l l l l l l l l l l l l l l l l l l Y#Z#`#L L  $.$+$@$#$. .                   ",
"                  . + /@$$%$&$l l l l l l l l l l l l l l l l l l l l l l l l l l l :.p#*$L L L =$-$;$o@. .                     ",
"                    . >$,$'$)$=.l l l l l l l l l l l l l l l l l l l l l l l l l L.!$~$L L {$]$^$/$i.. .                       ",
"                      . . ($_$:$*.l l l l l l l l l l l l l l l l l l l l l l l  .<$[$}+L q ]$}$|$1$. .                         ",
"                        . 2$3$4$N#l l l l l l l l l l l l l l l l l l l l l 8.!@h#5$+.L A@6$7$8$9$. . 0$                        ",
"                        . . a$b$c$=.d$o o o o o o o o o o o o o o o o o o o G e$f$q L A@g$h$i$T#. . + j$                        ",
"                          . . k$l$m$n$o$)+)+)+)+)+)+)+)+)+)+)+)+)+)+)+)+)+)+e$p$f@L 2@q$r$s$t$. . + w+                          ",
"                          . . 0$u$v$w$x$y$z$z$z$z$z$z$z$z$z$z$z$z$z$z$z$z$z$y$f@L {$A$B$C$D$+ . .                               ",
"                            . . o+E$F$G$r#,.,.,.,.,.,.,.,.,.,.,.,.,.,.,.,.,.,.,.,.M H$I$J$0$. .                                 ",
"                              . . >$K$L$M$T T T T T T T T T T T T T T T T T T T T N$O$P$Q$. .                                   ",
"                                . . . R$S$y y y y y y y y y y y y y y y y y y y y y y T$. .                                     ",
"                                  . . . . . . . . . . . . . . . . . . . . . . . . . . . . .                                     ",
"                                    . . . . . . . . . . . . . . . . . . . . . . . . . . .                                       ",
"                                                                                                                                ",
"                                                                                                                                ",
"                                                                                                                                ",
"                                                                                                                                ",
"                                                                                                                                ",
"                                                                                                                                "};
