/* XPM */
static char *v[] = {
/* columns rows colors chars-per-pixel */
"64 51 210 2 ",
"   c #006C25",
".  c #046E2B",
"X  c #086929",
"o  c #01732C",
"O  c #0D6B31",
"+  c #027630",
"@  c #017C33",
"#  c #097C38",
"$  c #16773B",
"%  c #136E37",
"&  c #157F42",
"*  c #1B7A41",
"=  c #247A46",
"-  c #2C7F50",
";  c #008136",
":  c #01843A",
">  c #0B853A",
",  c #00893E",
"<  c #0A893B",
"1  c #1A923E",
"2  c #13903E",
"3  c #0C8543",
"4  c #018D41",
"5  c #098A44",
"6  c #128343",
"7  c #188949",
"8  c #009345",
"9  c #04954A",
"0  c #0D934C",
"q  c #1A9743",
"w  c #0E9A54",
"e  c #139551",
"r  c #129B56",
"t  c #189957",
"y  c #1E8B50",
"u  c #22854D",
"i  c #26864D",
"p  c #259842",
"a  c #289946",
"s  c #339B41",
"d  c #238A52",
"f  c #2C8B59",
"g  c #298754",
"h  c #358758",
"j  c #239255",
"k  c #26995D",
"l  c #27975A",
"z  c #31915E",
"x  c #2AA157",
"c  c #199F60",
"v  c #3C8D62",
"b  c #2C9C61",
"n  c #3C9564",
"m  c #3B9965",
"M  c #399666",
"N  c #1DA163",
"B  c #26A366",
"V  c #25A46B",
"C  c #29A66B",
"Z  c #2BA266",
"A  c #35A667",
"S  c #39AA75",
"D  c #39AD79",
"F  c #3FB07F",
"G  c #46A242",
"H  c #4CA443",
"J  c #55A740",
"K  c #5FAA47",
"L  c #63AB46",
"P  c #66AD4A",
"I  c #7BAE40",
"U  c #408C64",
"Y  c #43976A",
"T  c #4B9C73",
"R  c #4A9973",
"E  c #539B73",
"W  c #4CA97D",
"Q  c #48A679",
"!  c #53A27C",
"~  c #59A27D",
"^  c #53A077",
"/  c #47B079",
"(  c #43A06F",
")  c #60A37D",
"_  c #8AB03E",
"`  c #88AE3A",
"'  c #A7B93A",
"]  c #F5CD3C",
"[  c #89B142",
"{  c #8DB959",
"}  c #9EBC51",
"|  c #8BBC6A",
" . c #BBC248",
".. c #99C069",
"X. c #AAC363",
"o. c #A2C576",
"O. c #B8C86A",
"+. c #C5C54C",
"@. c #C5C758",
"#. c #DDCF5F",
"$. c #E4CA41",
"%. c #EFCE49",
"&. c #C5CA65",
"*. c #C8D07B",
"=. c #D3D275",
"-. c #C1CC74",
";. c #E9D879",
":. c #4CAE83",
">. c #5BA382",
",. c #5FA985",
"<. c #42B183",
"1. c #4BB485",
"2. c #4CB589",
"3. c #54B683",
"4. c #52B58A",
"5. c #58B48D",
"6. c #5BBA8D",
"7. c #5ABA94",
"8. c #5EB590",
"9. c #62A483",
"0. c #66A988",
"q. c #70AB8B",
"w. c #6DAE91",
"e. c #75AD92",
"r. c #66B694",
"t. c #74B495",
"y. c #79B49B",
"u. c #7AB99E",
"i. c #78B598",
"p. c #7DBCA4",
"a. c #66C09C",
"s. c #6DC3A4",
"d. c #75C7A9",
"f. c #79C8AC",
"g. c #82B59C",
"h. c #88B89F",
"j. c #84BAA3",
"k. c #8BBBA4",
"l. c #8ABEA9",
"z. c #81BCA6",
"x. c #91BFAC",
"c. c #90BCA5",
"v. c #BBD08A",
"b. c #8ACBA5",
"n. c #8AC1AF",
"m. c #94C1AD",
"M. c #98C6AC",
"N. c #8CC4B1",
"B. c #87CFB8",
"V. c #87CCB5",
"C. c #94C3B2",
"Z. c #9AC6B4",
"A. c #9CC7B8",
"S. c #97C9BA",
"D. c #8DD1BA",
"F. c #92D2BD",
"G. c #98D5BD",
"H. c #A3D2A8",
"J. c #A2CBB7",
"K. c #A4CCBD",
"L. c #91C89A",
"P. c #CBD485",
"I. c #D3D584",
"U. c #D7DB97",
"Y. c #C8D594",
"T. c #E6DC8E",
"R. c #E4DD94",
"E. c #D6DEA5",
"W. c #C1DCB5",
"Q. c #D6E2B6",
"!. c #E1E0A3",
"~. c #9BD4C5",
"^. c #9CD7C7",
"/. c #A6CEC3",
"(. c #ABD1C4",
"). c #A2D6C9",
"_. c #AED6CD",
"`. c #A3DACC",
"'. c #A5DAC6",
"]. c #B4D5C6",
"[. c #B2D7CE",
"{. c #ABDED2",
"}. c #BCDCD4",
"|. c #B6D9D1",
" X c #BEE6DF",
".X c #B7E3D9",
"XX c #BDE6E2",
"oX c #C0DDD5",
"OX c #D9E7CD",
"+X c #DAE6C4",
"@X c #C8E3DE",
"#X c #C8E3DA",
"$X c #D1E7D2",
"%X c #D9EAD7",
"&X c #CEE3C4",
"*X c #E2EACC",
"=X c #E3EEDC",
"-X c #C1E8E5",
";X c #C9E9E4",
":X c #D5EAE2",
">X c #D6ECEA",
",X c #DAECE7",
"<X c #D4F0F2",
"1X c #E3F1ED",
"2X c #E5F4F4",
"3X c #E9F7F6",
"4X c #F3FAF9",
"5X c #FBFDFD",
"6X c #F0F8F6",
"7X c None",
/* pixels */
"7X7X7X7X7X7X7X7X7X7X7X7X7X7X7X7X7X7X7X7X7X7X7X7X7X7X7X7X7X7X7X7X7X7X7X7X7X7X7X7X7X7X7X7X7X7X7X7X7X7X7X7X7X7X7X7X7X7X7X7X7X7X7X7X",
"7X7X7X7X7X7X7X7X7X7X7X7X7X7X7X7X7X7X7X7X7X7X7X7X7X7X7X7X7X7X7X7X7X7X7X7X7X7X7X7X7X7X7X7X7X7X7X7X7X7X7X7X7X7X7X7X7X7X7X7X7X7X7X7X",
"7X7X7X7X7X7X7X7X7X7X7X7X7X7X7X7X7X7X7X7X7X7X7X7X7X7X7X7X7X7X7X7X7X7X7X7X7X7X7X7X7X7X7X7X7X7X7X7X7X7X7X7X7X7X7X7X7X7X7X7X7X7X7X7X",
"7X7X7X7X7X7X7X7X7X7X7X7X7X7X7X7X7X7X7X7X7X7X7X7X7X7X7X7X7X7X7X7X7X7X7X7X7X7X7X7X7X7X7X7X7X7X7X7X7X7X7X7X7X7X7X7X7X7X7X7X7X7X7X7X",
"7X7X7X7X7X7X7X7X7X;X#X'.G.a.a.s.s.d.d.s.s.s.s.V.^.'._._.7X7X7X7X7X7X7X7X X X.X{.D.s.s.s.s.s.s.s.s.s.s.p.p.n.l.7X7X7X7X7X7X7X7X7X",
"7X7X7X7X7X7X7X7X7X;X.X'.G.a.a.s.s.f.d.s.s.s.s.V.^.)._._.7X7X7X7X7X7X7X7X X X{.{.D.s.s.s.s.s.s.s.s.s.s.p.f.z.l.7X7X7X7X7X7X7X7X7X",
"7X7X7X7X7X7X7X7X7X&X].H.M.5.4.6.6.7.7.6.4.5.5.u.n.N.S.S.7X7X7X7X7X7X7X7X{.{.).^.f.7.7.7.7.7.7.5.5.5.5.p.p.l.x.7X7X7X7X7X7X7X7X7X",
"7X7X7X7X7X7X7X7X7XQ.Y.H.L.W W 3.3.4.4.1.1.W W r.p.f.l.N.7X7X7X7X7X7X7X7X`.^.~.D.s.2.2.2.2.2.2.:.1.:.^ t.y.l.C.7X7X7X7X7X7X7X7X7X",
"7X7X7X7X7X7X7X7X!.I.*.o...A A A A B B k l j d Y :.>.0.0.7X7X7X7X7X7X7X7Xf.~.d.s.<.V V B B B B k b j j ,.w.l.Z.7X7X7X7X7X7X7X7X7X",
"7X7X7X7X2X3X=X*XT.#.+.} I x s 1 q 8 8 ; @ .   * g v v n 7X7X7X7X7X7X7X7Xs.s.7.2.V 9 8 8 8 8 8 : : + + E ,.k.S.7X7X7X7X7X7X7X7X7X",
"7X7X7X7X2X2X=X*XR.#.@.} { s s q q 8 8 ; @ o   $ g f v R 7X7X7X7X7X7X7X7Xa.a.2.<.B 8 8 8 8 8 4 : : + o ^ 0.C./.7X7X7X7X7X7X7X7X7X",
"7X7X7X7X2X2X=X+XU.=.-.X.{ G G p p 4 4 @ @ + @ > u g f !  X X7X7X7X7X7X7X2.2.<.D N 8 8 8 8 8 8 # # . o 9.i.K.}.7X7X7X7X7X7X7X7X7X",
"7X7X7X7X3X2X%X+XE.I.O.X.{ H H p p , , ; @ @ @ & 7 y g T @X-X7X7X7X7X7X7X<.<.D C c 8 8 8 8 8 8 > : . . 0.g.].#X7X7X7X7X7X7X7X7X7X",
"7X7X7X7X7X7X7X7X7XY.v.o...P K s s : : : : : : > & 3 6 Q ;X:X3X3X7X7X7X7XV V N N w 8 8 8 8 8 8 > > O O e.x.@X2X7X7X7X7X7X7X7X7X7X",
"7X7X7X7X7X7X7X7X7XY.v.o...P L s s : : : : : : , 3 3 6 ( ;X;X2X2X7X7X7X7XC N N N w 8 8 8 8 8 8 > > % % e.l.@X2X7X7X7X7X7X7X7X7X7X",
"7X7X7X7X7X7X7X7X7XI.*.O.X._ _ G G 5 4 , 4 : : 3 3 3 , m }.oX>X>X-X-X{.^.D r r w 9 8 8 , , , : d d U U e.g.7X7X7X7X7X7X7X7X7X7X7X",
"7X7X7X7X7X7X7X7X7XI.*.O.X.[ [ G G , , , , , , < 3 3 > m |.oX>X>X-X-X`.`.D r w w 9 8 8 4 4 : : y d U U e.g.7X7X7X7X7X7X7X7X7X7X7X",
"7X7X7X7X7X7X7X7X7X=.=.&.@.' ' J J 9 9 , 8 , , , : : : b _.[.;X@X-X-X{.{.C 9 9 9 9 8 8 8 4 @ ; z z >.9.7X7X7X7X7X7X7X7X7X7X7X7X7X",
"7X7X7X7X7X7X7X7X7X=.=.&.@.' ' J J 2 8 8 , , , , : : @ b _.[.;X@X-X-X{.{.S 9 9 9 8 8 8 8 8 ; : z z >.>.7X7X7X7X7X7X7X7X7X7X7X7X7X",
"7X7X7X7X7X7X7X7X7XQ.E.P.*.+. .K L 9 8 , , : : : : : 4 k N.C.K.K.).'.D.D.B 8 8 8 8 8 4 : : o # E E S.K.7X7X7X7X7X7X7X7X7X7X7X7X7X",
"7X7X7X7X7X7X7X7X7X+XQ.U.P.+. .K L 9 8 , , , : : : : 4 k x.x.J.K.^.^.D.V.B 8 8 8 8 8 4 : : o + ^ E /.(.7X7X7X7X7X7X7X7X7X7X7X7X7X",
"7X7X7X7X7X7X7X7X7X%X+XE.U.+.+.P L 9 8 , , , ; : : : 4 j z.j.x.x.F.F.V.n.k 8 8 8 8 8 4 : @ . . ~ ~ _.|.7X7X7X7X7X7X7X7X7X7X7X7X7X",
"7X7X7X7X7X7X7X7X7X%X+XE.Y.+.+.P P 9 8 , , ; ; : 4 4 4 j p.g.l.x.F.F.n.n.B 8 8 8 8 8 4 : @   . >.~ [.}.7X7X7X7X7X7X7X7X7X7X7X7X7X",
"7X7X7X7X7X7X7X7X7X:XOXE.R.] $.` I 1 2 < < ; ; : 4 4 4 t 9.9.w.w.a.a.r.7.t 8 8 8 8 8 4 3 & % * y.e.,X1X7X7X7X7X7X7X7X7X7X7X7X7X7X",
"7X7X7X7X7X7X7X7X7X:XOX!.T.] ] ` ` 1 1 < > ; + ; , , 8 r :.R >.>.2.2.<.<.r 9 8 8 8 , 5 3 6 = - c.k.3X4X7X7X7X7X7X7X7X7X7X7X7X7X7X",
"7X7X7X7X7X7X7X7X7X:XOX!.T.] ] _ _ p 1 < > ; + < , 8 8 r R R >.:.<.2.<.<.r 8 8 8 8 4 4 3 7 - - c.c.6X5X7X7X7X7X7X7X7X7X7X7X7X7X7X",
"7X7X7X7X7X7X7X7X7X:XOX!.T.%.%._ _ 1 1 2 > @ @ : 8 , 8 e R R Q ^ <.2.F D r 8 4 4 4 4 5 6 7 - h c.c.4X5X7X7X7X7X7X7X7X7X7X7X7X7X7X",
"7X7X7X7X7X7X7X7X7X:XOX!.R.;.;.| ..x x 2 < ; + ; , , , 5 z b M b C C V V 0 8 4 4 , : 5 d g R E c.c.4X5X7X7X7X7X7X7X7X7X7X7X7X7X7X",
"7X7X7X7X7X7X7X7X7X7X7X7X7X%X$Xb.b.F / y q # o + @ @ @ ; 5 5 5 5 9 9 9 9 8 8 8 4 : @ 3 z Y j.j.7X7X7X7X7X7X7X7X7X7X7X7X7X7X7X7X7X",
"7X7X7X7X7X7X7X7X7X7X7X7X7X%X$Xb.b./ / j 7 # o + @ ; @ ; 5 5 5 5 9 9 9 9 8 8 8 4 : + 6 z Y l.l.7X7X7X7X7X7X7X7X7X7X7X7X7X7X7X7X7X",
"7X7X7X7X7X7X7X7X7X7X7X7X7X%X$Xb.b.3.3.k 7 # o @ ; ; : < 5 5 5 5 9 9 9 9 8 8 4 4 : o 6 n T S.A.7X7X7X7X7X7X7X7X7X7X7X7X7X7X7X7X7X",
"7X7X7X7X7X7X7X7X7X7X7X7X7X%X$Xb.b.3.3.x j > o @ ; ; , , 5 5 5 5 9 9 9 9 8 8 8 , : o & n E /.K.7X7X7X7X7X7X7X7X7X7X7X7X7X7X7X7X7X",
"7X7X7X7X7X7X7X7X7X7X7X7X7X7X7X7X7Xd.d.D Z 0 , 8 8 8 8 8 8 8 8 8 8 8 8 8 8 8 8 , + X = E q.,X>X7X7X7X7X7X7X7X7X7X7X7X7X7X7X7X7X7X",
"7X7X7X7X7X7X7X7X7X7X7X7X7X7X7X7X7Xd.d.D Z 0 , , 8 8 8 8 8 8 8 8 8 8 8 8 8 8 4 , # X = E q.>X>X7X7X7X7X7X7X7X7X7X7X7X7X7X7X7X7X7X",
"7X7X7X7X7X7X7X7X7X7X7X7X7X7X7X7X7XB.B./ A e , 8 8 8 8 8 8 8 8 8 8 8 8 8 , 8 5 3 * = h 0.g.2X2X7X7X7X7X7X7X7X7X7X7X7X7X7X7X7X7X7X",
"7X7X7X7X7X7X7X7X7X7X7X7X7X7X7X7X7XB.B./ A e 8 , 8 8 8 8 8 8 8 8 8 8 8 8 8 , 3 3 * = h 0.g.2X2X7X7X7X7X7X7X7X7X7X7X7X7X7X7X7X7X7X",
"7X7X7X7X7X7X7X7X7X7X7X7X7X7X7X7X7X^.).2.D r 8 8 8 8 8 8 8 8 8 8 8 8 8 8 4 , 5 7 f M >.k.Z.5X5X7X7X7X7X7X7X7X7X7X7X7X7X7X7X7X7X7X",
"7X7X7X7X7X7X7X7X7X7X7X7X7X7X7X7X7X`.`.4.F r 8 8 8 8 8 8 8 8 8 8 8 8 8 8 4 4 5 7 f R >.k.J.5X5X7X7X7X7X7X7X7X7X7X7X7X7X7X7X7X7X7X",
"7X7X7X7X7X7X7X7X7X7X7X7X7X7X7X7X7X.X.X7.W y , < , , , , : , , , : , , , @ @ 3 7 m w.y.x.Z.7X7X7X7X7X7X7X7X7X7X7X7X7X7X7X7X7X7X7X",
"7X7X7X7X7X7X7X7X7X7X7X7X7X7X7X7X7XXX Xr.Q d > : : : : : : : : : : : : : @ + & 7 R y.j.C.m.7X7X7X7X7X7X7X7X7X7X7X7X7X7X7X7X7X7X7X",
"7X7X7X7X7X7X7X7X7X7X7X7X7X7X7X7X7X<X<Xr.^ i # # @ + @ @ @ @ ; @ @ @ @ @ o o > i ) Z.Z.J.A.7X7X7X7X7X7X7X7X7X7X7X7X7X7X7X7X7X7X7X",
"7X7X7X7X7X7X7X7X7X7X7X7X7X7X7X7X7X<X<Xt.~ i # o o o o o + + @ @ @ @ @ +     * i ) K./.K.K.7X7X7X7X7X7X7X7X7X7X7X7X7X7X7X7X7X7X7X",
"7X7X7X7X7X7X7X7X7X7X7X7X7X7X7X7X7X7X7Xj.g.) E Y Y Y Y m m m m m M M n n h h U E k.oXoX}.}.7X7X7X7X7X7X7X7X7X7X7X7X7X7X7X7X7X7X7X",
"7X7X7X7X7X7X7X7X7X7X7X7X7X7X7X7X7X7X7XJ.J.Z.M.c.j.u.u.u.u.u.u.u.y.u.t.t.) ) q.i.K.:X,X:X,X7X7X7X7X7X7X7X7X7X7X7X7X7X7X7X7X7X7X7X",
"7X7X7X7X7X7X7X7X7X7X7X7X7X7X7X7X7X7X7X].].].K.K.S.C.n.N.C.n.n.N.n.n.n.j.t.q.g.h.].1X1X1X1X7X7X7X7X7X7X7X7X7X7X7X7X7X7X7X7X7X7X7X",
"7X7X7X7X7X7X7X7X7X7X7X7X7X7X7X7X7X7X7X:X:X:X,X#X}.|._._._._.[._._.[.(.(.x.k.Z.J.oX4X4X4X4X7X7X7X7X7X7X7X7X7X7X7X7X7X7X7X7X7X7X7X",
"7X7X7X7X7X7X7X7X7X7X7X7X7X7X7X7X7X7X7X:X:X:X%X#X}.|._._._._._._._._.(.(.x.c.M.J.$X4X4X4X4X7X7X7X7X7X7X7X7X7X7X7X7X7X7X7X7X7X7X7X",
"7X7X7X7X7X7X7X7X7X7X7X7X7X7X7X7X7X7X7X7X7X7X7X7X7X7X7X7X7X7X7X7X7X7X7X7X7X7X7X7X7X7X7X7X7X7X7X7X7X7X7X7X7X7X7X7X7X7X7X7X7X7X7X7X",
"7X7X7X7X7X7X7X7X7X7X7X7X7X7X7X7X7X7X7X7X7X7X7X7X7X7X7X7X7X7X7X7X7X7X7X7X7X7X7X7X7X7X7X7X7X7X7X7X7X7X7X7X7X7X7X7X7X7X7X7X7X7X7X7X",
"7X7X7X7X7X7X7X7X7X7X7X7X7X7X7X7X7X7X7X7X7X7X7X7X7X7X7X7X7X7X7X7X7X7X7X7X7X7X7X7X7X7X7X7X7X7X7X7X7X7X7X7X7X7X7X7X7X7X7X7X7X7X7X7X",
"7X7X7X7X7X7X7X7X7X7X7X7X7X7X7X7X7X7X7X7X7X7X7X7X7X7X7X7X7X7X7X7X7X7X7X7X7X7X7X7X7X7X7X7X7X7X7X7X7X7X7X7X7X7X7X7X7X7X7X7X7X7X7X7X"
};
