/* XPM */
static char *w[] = {
/* columns rows colors chars-per-pixel */
"64 51 190 2 ",
"   c #93BE5A",
".  c #95BD64",
"X  c #99BB64",
"o  c #9AB96D",
"O  c #9EB673",
"+  c #9BBA72",
"@  c #9CB57D",
"#  c #93BF78",
"$  c #A0B479",
"%  c #8DC54F",
"&  c #8DC547",
"*  c #8FC456",
"=  c #8CC859",
"-  c #91C45C",
";  c #91C157",
":  c #8FC362",
">  c #8FC469",
",  c #8DCB6A",
"<  c #92C069",
"1  c #98C766",
"2  c #9CCC73",
"3  c #9DC47A",
"4  c #9CCC7A",
"5  c #97CC73",
"6  c #A3CF7C",
"7  c #A1D076",
"8  c #A1D37E",
"9  c #8E75AB",
"0  c #9473AB",
"q  c #9B76AF",
"w  c #907CAF",
"e  c #957DB1",
"r  c #9C7CB2",
"t  c #A37EB5",
"y  c #9AAF85",
"u  c #9EAE92",
"i  c #A6AD8D",
"p  c #A3B18C",
"a  c #A1B582",
"s  c #A4AA94",
"d  c #A6A69A",
"f  c #A8A59F",
"g  c #AAAA99",
"h  c #A4B491",
"j  c #9284B4",
"k  c #9A81B5",
"l  c #908AB6",
"z  c #958CB8",
"x  c #9B8BB9",
"c  c #9492BB",
"v  c #9C93BE",
"b  c #9C98BF",
"n  c #A69AAA",
"m  c #AD9EAC",
"M  c #A59DA6",
"N  c #A382B7",
"B  c #A584B9",
"V  c #A985BA",
"C  c #A48CBC",
"Z  c #AC8BBD",
"A  c #A98FB5",
"S  c #AB94B4",
"D  c #AD99B5",
"F  c #A690BF",
"G  c #B196BF",
"H  c #ABA1A6",
"J  c #ACB7AB",
"K  c #AEB8BE",
"L  c #9ECD84",
"P  c #9ED18A",
"I  c #A1C789",
"U  c #A4D182",
"Y  c #A3D48D",
"T  c #ABCE9A",
"R  c #A2D393",
"E  c #A4D69C",
"W  c #AAD393",
"Q  c #AEC7AA",
"!  c #A6D8A5",
"~  c #AFD4AA",
"^  c #A6D9A9",
"/  c #AADBAD",
"(  c #A7D8A2",
")  c #B7DCAB",
"_  c #AEC8B2",
"`  c #B3CDBE",
"'  c #ADDCB1",
"]  c #B5D6BB",
"[  c #C3E4BF",
"{  c #9E96C0",
"}  c #9D9BC2",
"|  c #AE8DC0",
" . c #B08EC0",
".. c #A495C0",
"X. c #AC93C2",
"o. c #A69CC4",
"O. c #AC9CC5",
"+. c #B494C4",
"@. c #B599C5",
"#. c #B89AC7",
"$. c #B69ECA",
"%. c #BA9BCA",
"&. c #A6A0C7",
"*. c #ABA1C6",
"=. c #A4A7CB",
"-. c #ACA5CA",
";. c #A5AECF",
":. c #ACABCD",
">. c #B0A2C7",
",. c #B4A3CB",
"<. c #B8A5CC",
"1. c #B3ABCD",
"2. c #B9A8CF",
"3. c #ABB1CD",
"4. c #AEBAC5",
"5. c #B5B2CF",
"6. c #B8B1CF",
"7. c #B4AED0",
"8. c #BBACD1",
"9. c #A5B4D1",
"0. c #ACB5D1",
"q. c #AEBAD2",
"w. c #B5B3D2",
"e. c #BBB4D3",
"r. c #B3BAD5",
"t. c #BBBBD5",
"y. c #BDBFD9",
"u. c #B5BED8",
"i. c #C1B7D6",
"p. c #C0BCD6",
"a. c #C1BDDA",
"s. c #AEC1D8",
"d. c #B9CED4",
"f. c #B5C2DA",
"g. c #BCC4DB",
"h. c #BCC8DD",
"j. c #BEDAD6",
"k. c #BBD3D5",
"l. c #BCCFE0",
"z. c #C4C4DC",
"x. c #C2CADE",
"c. c #CBC9DE",
"v. c #C8C2DC",
"b. c #C7E6C5",
"n. c #CCE9CD",
"m. c #C8E7C6",
"M. c #CFEBD6",
"N. c #D7EDD6",
"B. c #D5EEDC",
"V. c #DAEFDA",
"C. c #DCF0DC",
"Z. c #C3CCE0",
"A. c #CACCE1",
"S. c #C5D2E2",
"D. c #CBD4E4",
"F. c #CBDAE6",
"G. c #CDDDE8",
"H. c #D1D4E4",
"J. c #DDD4E5",
"K. c #D6D8E7",
"L. c #D4DBE9",
"P. c #DDDCE9",
"I. c #E4DDEA",
"U. c #CFE4EC",
"Y. c #D5E4ED",
"T. c #DCE4ED",
"R. c #D1E9EF",
"E. c #DAE8EF",
"W. c #D9F0E4",
"Q. c #D4EDF1",
"!. c #DBEBF1",
"~. c #DDF2F4",
"^. c #E4E5EE",
"/. c #EAE5EF",
"(. c #E0F2E7",
"). c #E6F4EA",
"_. c #E9F6EB",
"`. c #E4EBF2",
"'. c #EAEBF2",
"]. c #E9E7F0",
"[. c #F1EFF5",
"{. c #E4F3F6",
"}. c #EAF3F7",
"|. c #EDF5F8",
" X c #EEF8FA",
".X c #F2F2F6",
"XX c #F3F6F8",
"oX c #F3FAFB",
"OX c #FEFFFF",
"+X c None",
/* pixels */
"+X+X+X+X+X+X+X+X+X+X+X+X+XOXOXOXOXOXOX+X+X+X+X+X+X+X+X+X+X+X+X+X+X+X+X+X+X+X+X+X+X+X+X+X+X+X+X+X+X+X+X+X+X+X+X+X+X+X+X+X+X+X+X+X",
"+X+X+X+X+X+X+X+X+X+X+X+X+XOXOXOXOXOXOX+X+X+X+X+X+X+X+X+X+X+X+X+X+X+X+X+X+X+X+X+X+X+X+X+X+X+X+X+X+X+X+X+X+X+X+X+X+X+X+X+X+X+X+X+X",
"+X+X+X+X+X+X+X+X+X+X+X+X+X.XXX.XXX.XXX+X+X+X+X+X+X+X+X+X+X+X+X+X+X+X+X+X+X+X+X+X+X+X+X+X+X+X+X+X+X+X+X+X+X+X+X+X+X+X+X+X+X+X+X+X",
"+X+X+X+X+X+X+X+X+X+X+X+X+X.X.X.X.X.X.X+X+X+X+X+X+X+X+X+X+X+X+X+X+X+X+X+X+X+X+X+X+X+X+X+X+X+X+X+X+X+X+X+X+X+X+X+X+X+X+X+X+X+X+X+X",
"+X+X+X+Xj.j.k.d.q.=.=.=.:.r.t.r.u.y.t.D.L.}.oX+X+X+X+X+X+X+X+X+X+X+X+X+X+X+X+X+X+X+X+X+X+Xl.l.l.l.l.l.S.S.F.G.L.Y.E.E.E.+X+X+X+X",
"+X+X+X+Xj.j.k.d.q.=.=.=.=.=.=.=.=.:.-.D.L.}.oX+X+X+X+X+X+X+X+X+X+X+X+X+X+X+X+X+X+X+X+X+X+Xl.l.l.l.l.l.Z.S.F.G.L.Y.Y.E.E.+X+X+X+X",
"+X+X+X+X] ] ` ` 4.:.=.o.o.} o.o.o.:.-.D.L.`.|.+X+X+X+X+X+X+X+X+X+X+X+X+X+X+X+X+X+X+X+XS.Z.l.l.y.y.y.y.Z.z.Z.A.A.D.D.F.D.+X+X+X+X",
"+X+X+X+X~ ~ _ _ 4.-.-.o.o.{ { o.O.-.-.A.L.!.{.+X+X+X+X+X+X+X+X+X+X+X+X+X+X+X+X+X+X+X+XS.l.u.u.e.e.e.e.a.a.z.z.Z.Z.Z.Z.Z.+X+X+X+X",
"+X+X+X+XU 4 L a J @.@.F F k k o.| $.$.A.A.Y.~.+X+X+X+X+X+X+X+X+X+X+X+X+X+X+X+X+X+X+XE.F.S.w.w.2.<.<.%.i.8.2.i.7.7.:.:.r.+X+X+X+X",
"M.N.m.b.1 &   . s @.+.Z Z q q Z | +.$.A.A.L.Y.+X+X+X+X+X+X+X+X+X+X+X+X+X+X+X+X+X+X}.`.L.A.-.-.,.%.%.%.%.#.#.#...{ { c :.`.`.|.|.",
"B.B.n.n.7 % . # s @.G F V r t Z | %.%.A.A.G.L.+X+X+X+X+X+X+X+X+X+X+X+X+X+X+X+X+X+X{.T.H.A.$.,.$.%.%.%.#.#.+.+.O.} } } 3.^.`.XX|.",
"(.(.V.N.7 - > # s D D S A N N G | %.%.a.Z.D.G.+X+X+X+X+X+X+X+X+X+X+X+X+X+X+X+X+X+X!.L.A.Z.$.$.$.,.%.%.#.+. .+.O.-.;.0.t.^.^..X.X",
").).C.C.8 - < 3 u D D S S V V  .+.%.%.a.Z.Z.G.+X+X+X+X+X+X+X+X+X+X+X+X+X+X+X+X+X+XY.L.c.a.$.%.%.%.%.%.+.+.Z Z @.3.3.r.g.^.^.XX.X",
"oXoX).).Y , < < y n n S A Z  .+.+.+.%.e.a.Z.Z.+X+X+X+X+XQ.Q.Q.Q.Q.Q.Q.Q.+X+X+X+X+XF.D.a.i.%.%.%.%.%.%.+.| B t *.f.h.S.S.+X+X+X+X",
"oXoX).).Y , > > y M n S S  . .+.+.%.%.e.a.z.Z.Z.+X+X+X+XR.R.R.R.R.R.R.R.+X+X+X+XF.F.Z.a.t.%.%.%.%.%.%.+.| B t *.g.x.F.S.+X+X+X+X",
"{.{.W.W.8 = : . @ s d H m +.+.%.%.%.%.8.8.e.a.D.Y.!.{.~.l.l.l.l.g.g.Z.Z.'.oX'.^.H.g.y.e.8.%.%.%.%.%.%.| | C x e.H.P.`.`.+X+X+X+X",
"{.{.W.W.8 = : < @ s d M m +.#.#.#.%.%.2.8.t.y.D.Y.!.{.!.l.l.l.l.y.l.l.A.{.XX'.T.H.l.y.e.8.%.%.%.%.%.%. . .C x e.H.P.`.`.+X+X+X+X",
"~.~.W.W.7 % * - o i i s H %.%.%.%.%.%.2.8.8.e.A.Y.!.{.Y.r.r.9.9.0.0.e.t.`.XX}.`.A.w.w.7.,.%.%.%.%.%.%.X.C v c y.T.}.OXOX+X+X+X+X",
"~.~.W.W.7 % * - + i i s d %.%.%.%.%.%.8.8.e.e.A.Y.!.{.Y.r.u.9.9.0.0.r.t.`.XX'.`.D.8.7.7.7.%.%.%.%.%.%.X.F c c t.T.'.OXOX+X+X+X+X",
"+X+X+X+XP P L L 3 O $ i g %.%.%.%.%.%.%.$.<.,.w.u.u.l.u.,.,.,.,.,.<.<.<.l.D.Z.Z.w.$.O.O.+. .| | Z Z Z *.1.5.w.t.+X+X+X+X+X+X+X+X",
"+X+X+X+XR R P P 3 o $ i g %.%.%.%.%.%.$.$.,.,.7.u.u.s.r.,.2.,.,.$.$.,.2.l.l.f.y.7.O.O.X.| | | B V V V >.1.e.t.+X+X+X+X+X+X+X+X+X",
"+X+X+X+XE E R R 3 X O i g %.%.%.%.%.%.%.$.,.,.1.9.9.9.;.%.%.%.%.$.%.$.$.u.s.u.0.:.+.+.| | | | t t t B >.1.t.x.+X+X+X+X+X+X+X+X+X",
"+X+X+X+X( ( E R 3 X O i g %.%.%.%.%.%.,.$.,.,.-.;.;.9.;.%.%.%.%.%.%.$.$.r.u.q.0.1.+.+.| | | | t t t t O.1.g.x.+X+X+X+X+X+X+X+X+X",
"+X+X+X+X^ ^ R R 2 ; . a i %.%.%.%.%.%.%.%.%.%.,.,.,.,.,.%.%.%.%.%.%.%.%.,.7.1.,.$.+. .| | B B k r r e 8.a.K.^.+X+X+X+X+X+X+X+X+X",
"+X+X+X+X^ ^ E R 2 * - @ i %.@.%.%.%.%.%.%.%.%.%.%.%.%.%.%.%.%.%.%.%.%.%.%.,.$.%.#.+. . .| t t r r w w p.c.^.|.+X+X+X+X+X+X+X+X+X",
"+X+X+X+X/ / E E 2 * : @ h ,.$.%.%.%.%.%.%.%.%.%.%.%.%.%.%.%.%.%.%.%.%.%.%.%.%.%.#.+. . .Z t t k k j w p.c.^.oX+X+X+X+X+X+X+X+X+X",
"+X+X+X+X' ' ( E 4 - . a h ,.,.#.%.%.%.%.%.%.%.%.%.%.%.%.%.%.%.%.%.%.%.%.%.%.%.%.#. .+.Z V t B r r j j a.c.`.oX+X+X+X+X+X+X+X+X+X",
"+X+X+X+Xn.n.m.b.) W T Q J ,.,.$.%.%.%.%.%.%.%.%.%.%.%.%.+.%.%.%.%.%.%.%.%.%.%.%.#.+.+.Z Z t t C C b b t.c.`.oX+X+X+X+X+X+X+X+X+X",
"+X+X+X+XOXOXoXoX{.Q.U.S.x.:.-.$.,.%.%.%.%.%.%.%.%.%.%.%.+.+.+.+.%.%.%.%.%.%.%.%.#.+.+.Z Z N B O.O.q.q.+X+X+X+X+X+X+X+X+X+X+X+X+X",
"+X+X+X+XOXOXOXoX{.Q.U.S.x.:.1.,.,.%.%.%.%.%.%.%.%.%.%.%.+.| +.+.%.%.%.%.%.%.%.%.%.+.+.Z Z N N O.O.q.r.+X+X+X+X+X+X+X+X+X+X+X+X+X",
"+X+X+X+XOXOXoXoX}.Q.U.S.x.7.1.<.2.%.%.%.%.%.%.%.%.%.+.+.| | X.X.%.%.%.%.%.%.%.%.#.#.#.+.Z k k *.*.f.g.+X+X+X+X+X+X+X+X+X+X+X+X+X",
"+X+X+X+XOXOXoXoX{.Q.R.S.x.7.7.2.2.%.%.%.%.%.%.%.%.%.+.+.| | X.X.%.%.%.%.%.%.%.%.#.#.#.+.Z k k 1.>.x.x.+X+X+X+X+X+X+X+X+X+X+X+X+X",
"+X+X+X+X+X+X+X+X+X+X+X+X+Xr.r.8.8.%.%.%.%.%.%.+.Z +.G F } b ..F %.%.%.%.%.%.%.%.%.%.+.Z Z e j t.t.{.{.+X+X+X+X+X+X+X+X+X+X+X+X+X",
"+X+X+X+X+X+X+X+X+X+X+X+X+Xr.r.8.8.%.%.%.%.%.%.+. .Z Z F } } F b %.%.%.%.%.%.%.#.%.%.@.Z B j j t.t.'.}.+X+X+X+X+X+X+X+X+X+X+X+X+X",
"+X+X+X+X+X+X+X+X+X+X+X+X+Xg.g.e.e.%.%.#.#.%.%.+.Z Z B F ;.;.3.3.%.%.%.%.%.%.%.#.+.+.+.+.X.v { t.t.{.}.+X+X+X+X+X+X+X+X+X+X+X+X+X",
"+X+X+X+X+X+X+X+X+X+X+X+X+Xg.g.e.e.%.%.#.#.%.%.+.Z Z B F =.:.3.3.%.%.%.%.%.%.#.#.@.+.+.X...v { t.t.{.}.+X+X+X+X+X+X+X+X+X+X+X+X+X",
"+X+X+X+X+X+X+X+X+X+X+X+X+XS.Z.e.e.%.%.#.#.%.%.| B N k o.S.S.G.F.%.%.$.$.%.%.%.#.@.X.X.O.*.0.3.+X+X+X+X+X+X+X+X+X+X+X+X+X+X+X+X+X",
"+X+X+X+X+X+X+X+X+X+X+X+X+XS.S.e.e.%.#.#.#.%.%. .B N k F F.F.U.U.%.%.$.,.%.%.#.#.@.X.O.O.*.q.q.+X+X+X+X+X+X+X+X+X+X+X+X+X+X+X+X+X",
"+X+X+X+X+X+X+X+X+X+X+X+X+XF.D.w.w.F Z Z Z Z Z X.G F o.6.T.T.~.{.o.=.O.O.| ..| X.F x F 1.w.Z.x.+X+X+X+X+X+X+X+X+X+X+X+X+X+X+X+X+X",
"+X+X+X+X+X+X+X+X+X+X+X+X+XF.F.w.w.V C V V V V Z X.O.*.6.T.T.{.{.=.=.o.o.....| ..F v F 1.6.F.F.+X+X+X+X+X+X+X+X+X+X+X+X+X+X+X+X+X",
"+X+X+X+X+X+X+X+X+X+X+X+X+XU.F.:.:.k w q r q r F >.1.6.z.`.}.oXoX..} { { c x x x z z b 1.t.E.E.+X+X+X+X+X+X+X+X+X+X+X+X+X+X+X+X+X",
"+X+X+X+X+X+X+X+X+X+X+X+X+XU.G.:.:.9 9 0 0 0 0 F <.e.t.c.XXXXOXOX{ { { { c l j j l l b 5.g.{.{.+X+X+X+X+X+X+X+X+X+X+X+X+X+X+X+X+X",
"+X+X+X+X+X+X+X+X+X+X+X+X+X+XG.g.g.*.o.>.<.G <.i.c.c.H.K.+X+X+XOXi.y.e.e.e.6.6.1.6.6.t.x.c.+X+X+X+X+X+X+X+X+X+X+X+X+X+X+X+X+X+X+X",
"+X+X+X+X+X+X+X+X+X+X+X+X+X+X+XS.S.x.x.H.K.J.J.I.].].].'.+X+X+X+X^.^.P.P.P.P.P.P.P.P.P.P.P.+X+X+X+X+X+X+X+X+X+X+X+X+X+X+X+X+X+X+X",
"+X+X+X+X+X+X+X+X+X+X+X+X+X+X+XS.S.F.F.T.^.^./.'.[..X.X.X+X+X+X+X'.'.'.'.].'.'.'.].].'.'.].+X+X+X+X+X+X+X+X+X+X+X+X+X+X+X+X+X+X+X",
"+X+X+X+X+X+X+X+X+X+X+X+X+X+X+X+X+X~.~. XoXOXOXOXOXOXOXOX+X+X+X+XOXOXOXOXOXOXOXOXOXOXOXOXOX+X+X+X+X+X+X+X+X+X+X+X+X+X+X+X+X+X+X+X",
"+X+X+X+X+X+X+X+X+X+X+X+X+X+X+X+X+X~.~. XoXOXOXOXOXOXOXOX+X+X+X+XOXOXOXOXOXOXOXOXOXOXOXOXOX+X+X+X+X+X+X+X+X+X+X+X+X+X+X+X+X+X+X+X",
"+X+X+X+X+X+X+X+X+X+X+X+X+X+X+X+X+X+X+X+X+X+X+X+X+X+X+X+X+X+X+X+X+X+X+X+X+X+X+X+X+X+X+X+X+X+X+X+X+X+X+X+X+X+X+X+X+X+X+X+X+X+X+X+X",
"+X+X+X+X+X+X+X+X+X+X+X+X+X+X+X+X+X+X+X+X+X+X+X+X+X+X+X+X+X+X+X+X+X+X+X+X+X+X+X+X+X+X+X+X+X+X+X+X+X+X+X+X+X+X+X+X+X+X+X+X+X+X+X+X",
"+X+X+X+X+X+X+X+X+X+X+X+X+X+X+X+X+X+X+X+X+X+X+X+X+X+X+X+X+X+X+X+X+X+X+X+X+X+X+X+X+X+X+X+X+X+X+X+X+X+X+X+X+X+X+X+X+X+X+X+X+X+X+X+X",
"+X+X+X+X+X+X+X+X+X+X+X+X+X+X+X+X+X+X+X+X+X+X+X+X+X+X+X+X+X+X+X+X+X+X+X+X+X+X+X+X+X+X+X+X+X+X+X+X+X+X+X+X+X+X+X+X+X+X+X+X+X+X+X+X"
};
