/* XPM */
static char *x[] = {
/* columns rows colors chars-per-pixel */
"64 64 184 2 ",
"   c #FFAA13",
".  c #FEAC1B",
"X  c #FFB117",
"o  c #FFB41C",
"O  c #FFB91F",
"+  c #FDAC22",
"@  c #FEB424",
"#  c #FFBC23",
"$  c #FEB32C",
"%  c #FEBD2A",
"&  c #FDAF36",
"*  c #FEB935",
"=  c #FDB33E",
"-  c #FEBA3A",
";  c #FFC127",
":  c #FEC42C",
">  c #FFC82E",
",  c #FEC532",
"<  c #FFCD34",
"1  c #FDC43B",
"2  c #F5CE3E",
"3  c #FCCD3B",
"4  c #FDBB44",
"5  c #FDBC4B",
"6  c #FDB741",
"7  c #FCBD52",
"8  c #FCBF58",
"9  c #C7BD66",
"0  c #CCBE62",
"q  c #C5BC68",
"w  c #DFB97A",
"e  c #B6CB7E",
"r  c #BAC978",
"t  c #D8C755",
"y  c #DFCC54",
"u  c #D3C75B",
"i  c #D7CC5C",
"p  c #DACB5A",
"a  c #EAC642",
"s  c #EECD46",
"d  c #E4C54C",
"f  c #E5CC4E",
"g  c #E9CC4A",
"h  c #FDC543",
"j  c #F2CC42",
"k  c #FECB45",
"l  c #FDC74E",
"z  c #FECA4A",
"x  c #E1CB52",
"c  c #FEC454",
"v  c #F7CC56",
"b  c #FECB53",
"n  c #FDC45C",
"m  c #F6CD5C",
"M  c #FECC5B",
"N  c #FED05E",
"B  c #CDC964",
"V  c #CBCC68",
"C  c #D1CB62",
"Z  c #DCCA6D",
"A  c #C4CC70",
"S  c #C3C77C",
"D  c #DBCA72",
"F  c #E7CA6F",
"G  c #FDC363",
"H  c #FDCC64",
"J  c #FDC46B",
"K  c #FDCC6B",
"L  c #F4CE63",
"P  c #FDD166",
"I  c #FED16B",
"U  c #FDC572",
"Y  c #F6CD72",
"T  c #FDCB74",
"R  c #FCC67C",
"E  c #FDCC7B",
"W  c #F5CD7A",
"Q  c #FDD173",
"!  c #FDD27B",
"~  c #7BC8B9",
"^  c #6FC7C6",
"/  c #69C6CB",
"(  c #70C7C5",
")  c #72C8C2",
"_  c #65C7D0",
"`  c #97B999",
"'  c #A9BF8E",
"]  c #A4BC9A",
"[  c #ACBE9B",
"{  c #A3BFA1",
"}  c #C5BC8C",
"|  c #D1BB83",
" . c #9DC997",
".. c #9BC99A",
"X. c #ADC384",
"o. c #A4C28F",
"O. c #AACA8A",
"+. c #B8C685",
"@. c #A3C39D",
"#. c #A8C09A",
"$. c #B1C191",
"%. c #B8C195",
"&. c #8EC9A7",
"*. c #8CC5AE",
"=. c #85C8AF",
"-. c #89C9AC",
";. c #91C9A3",
":. c #99C1A9",
">. c #9AC1A7",
",. c #8AC2B1",
"<. c #82C8B2",
"1. c #82C4BB",
"2. c #9AC7B6",
"3. c #A0C0A3",
"4. c #BACAAD",
"5. c #AFC9B0",
"6. c #BFCDB2",
"7. c #CDC789",
"8. c #D8C98A",
"9. c #D8C992",
"0. c #CAC595",
"q. c #FDCE83",
"w. c #FDCE8D",
"e. c #F3CD87",
"r. c #FDD483",
"t. c #FDD48C",
"y. c #FDD98D",
"u. c #FDD884",
"i. c #E5CD94",
"p. c #E5D79E",
"a. c #FDD593",
"s. c #FDD995",
"d. c #FDD69A",
"f. c #FDDB9B",
"g. c #DECEA6",
"h. c #D9D2A9",
"j. c #C7CFB0",
"k. c #CAD5BD",
"l. c #C2D2BC",
"z. c #EBCFA3",
"x. c #E0CEA6",
"c. c #E6DBAC",
"v. c #FDDCA5",
"b. c #FDDCAA",
"n. c #FDD7A0",
"m. c #FDDEB3",
"M. c #FEE0A6",
"N. c #FDE1AB",
"B. c #E9E1BC",
"V. c #FDE2B4",
"C. c #FDE4BC",
"Z. c #CDD9C5",
"A. c #D3DCC8",
"S. c #C5DFD7",
"D. c #EBDFC3",
"F. c #CBE0D5",
"G. c #EEE4CA",
"H. c #ECE0C4",
"J. c #F6E3C7",
"K. c #FDE5C3",
"L. c #FEE8C3",
"P. c #F0E4CA",
"I. c #FDE7C8",
"U. c #FDEBCC",
"Y. c #E3E6D7",
"T. c #E6E9DA",
"R. c #FDEDD3",
"E. c #F5ECD9",
"W. c #FEEFD9",
"Q. c #F3EAD5",
"!. c #FEF1DC",
"~. c #D4E7E1",
"^. c #D8E8E0",
"/. c #EEEDE0",
"(. c #F0EFE4",
"). c #FEF4E4",
"_. c #F6F5EC",
"`. c #FEF6EA",
"'. c #FFF8EE",
"]. c #F4F7F3",
"[. c #F6F8F4",
"{. c #FEF9F2",
"}. c #FFFFFE",
"|. c None",
/* pixels */
"|.|.|.|.|.|.|.|.|.|.|.|.|.|.|.|.|.|.|.|.|.|.|.|.|.|.|.|.|.|.|.|.|.|.|.|.|.|.|.|.|.|.|.|.|.|.|.|.|.|.|.|.|.|.|.|.|.|.|.|.|.|.|.|.",
"|.|.|.|.|.|.|.|.|.|.|.|.|.|.|.|.|.|.|.|.|.|.|.|.|.|.|.|.|.|.|.|.|.|.|.|.|.|.|.|.|.|.|.|.|.|.|.|.|.|.|.|.|.|.|.|.|.|.|.|.|.|.|.|.",
"|.|.|.|.|.|.|.|.|.|.|.|.|.|.|.|.|.|.|.|.|.|.|.|.|.|.|.|.|.|.|.|.|.|.|.|.|.|.|.|.|.|.|.|.|.|.|.|.|.|.|.|.|.|.|.|.|.|.|.|.|.|.|.|.",
"|.|.|.|.|.|.|.|.|.|.|.|.|.|.|.|.|.|.|.|.|.|.|.|.|.|.|.|.|.|.|.|.|.|.|.|.|.|.|.|.|.|.|.|.|.|.|.|.|.|.|.|.|.|.|.|.|.|.|.|.|.|.|.|.",
"|.|.|.|.|.|.|.|.|.|.|.|.|.|.|.|.|.|.|.}.}.}.}.|.|.|.|.|.|.|.|.|.|.|.|.|.}.}.}.}.}.}.}.}.}.|.|.|.|.|.|.|.|.|.|.|.|.|.|.|.|.|.|.|.",
"|.|.|.|.|.|.|.|.|.|.|.|.|.|.|.|.|.|.|.}.}.}.}.|.|.|.|.|.|.|.|.|.|.|.|.|.}.}.}.}.}.}.}.}.}.|.|.|.|.|.|.|.|.|.|.|.|.|.|.|.|.|.|.|.",
"|.|.|.|.|.|.|.|.|.|.|.|.|.|.|.|.|.|.|.'.`.{.{.|.|.|.|.|.|.|.|.|.|.|.|.|.).).).).`.'.{.{.{.|.|.|.|.|.|.|.|.|.|.|.|.|.|.|.|.|.|.|.",
"|.|.|.|.|.|.|.|.|.|.|.|.|.|.|.|.|.|.|.!.!.).`.|.|.|.|.|.|.|.|.|.|.|.|.|.U.U.R.R.!.).).`.`.|.|.|.|.|.|.|.|.|.|.|.|.|.|.|.|.|.|.|.",
"|.|.|.|.|.|.|.|.|.|.|.|.|.|.|.|.|.|.|.V.C.L.U.R.|.|.|.|.|.|.|.|.|.|.|.|.a.t.t.a.v.C.K.U.R.|.|.|.|.|.|.|.|.|.|.|.|.|.|.|.|.|.|.|.",
"|.|.|.|.|.|.|.|.|.|.|.|.|.}.}.C.C.r.r.a.a.f.f.L.`.{.}.}.}.}.}.}.'.'.!.W.H * 5 7 J q.a.V.L.}.}.|.|.|.|.|.|.|.|.|.|.|.|.|.|.|.|.|.",
"|.|.|.|.|.|.|.|.|.|.|.|.|.'.`.V.V.! ! u.y.y.y.V.!.).{.[.].].].].E.!.U.J.H - 5 5 H E t.v.V.'.{.|.|.|.|.|.|.|.|.|.|.|.|.|.|.|.|.|.",
"|.|.|.|.|.|.|.|.|.|.|.).!.U.I.f.f.I H I Q Q Q f.C.K.R.E.^.~.~.~.B.B.B.c.m 1 h l v H Q y.f.R.R.!.!.|.|.|.|.|.|.|.|.|.|.|.|.|.|.|.",
"|.|.|.|.|.|.|.|.|.|.|.!.!.C.C.s.a.N N P P P P y.b.C.K.G.F.F.F.F.c.c.p.p.v , h z b M I r.y.L.L.W.!.|.|.|.|.|.|.|.|.|.|.|.|.|.|.|.",
"|.|.|.|.|.|.|.|.|.}.'.U.C.! ! N M < < < < < < b Y W e.9.:.:.=.,.q q 0 0 a , < < < < 3 b M r.t.L.L.}.}.|.|.|.|.|.|.|.|.|.|.|.|.|.",
"|.|.|.|.|.|.|.|.|.}.`.U.C.! Q M N < < < < < < v Y W e.8.:.:.*.-.9 9 0 B 2 < < < < < 3 c M ! r.C.L.{.}.|.|.|.|.|.|.|.|.|.|.|.|.|.",
"|.|.|.|.|.|.|.|.|.C.V.f.y.M M k k < < < < < < z v m L D 3.3.|.|.d d d d 2 < > > : ; : 1 h b M t.y.C.C.R.!.|.|.|.|.|.|.|.|.|.|.|.",
"|.|.|.|.|.|.|.|.|.C.V.f.y.M M k k < < < < < < k m N m D ..3.|.|.d d d d 2 < < > : ; : 1 h b M y.y.C.C.W.!.|.|.|.|.|.|.|.|.|.|.|.",
"|.|.|.|.|.|.|.|.|.! T H M < < < < < < < < < < 2 2 2 j j |.|.|.|.< < < , < < > : # X o # % : , c c T E C.U.'.}.|.|.|.|.|.|.|.|.|.",
"|.|.|.|.|.|.|.|.|.E T M b < < < < < < < < < < 3 2 2 2 2 |.|.|.|.< < < < < < > : # X X O O : > c c T T C.U.'.}.|.|.|.|.|.|.|.|.|.",
"|.|.|.|.|.|.|.|.|.f.a.Q I 1 1 < < < < < < < < < < < 2 2 < < < < < < < < > : > : # o O O # # % - - 8 c v.C.).{.|.|.|.|.|.|.|.|.|.",
"|.|.|.|.|.|.|.|.|.v.f.! T 1 1 < < < < < < < < < < < 2 < < < < < < < < < : : : > ; O O O O @ # - - 7 7 n.m.W.{.|.|.|.|.|.|.|.|.|.",
"|.|.|.|.|.|.|.|.|.V.v.u.Q < < < < < < < < < < < < < < < < < < < < < < < > : % # # # O O O O O $ $ = 6 a.b.W.`.|.|.|.|.|.|.|.|.|.",
"|.|.|.|.|.|.|.|.|.C.N.y.! < < < < < < < < < < < < < < < < < < < < < < < > : # # # # # O O O o $ $ & & t.v.R.`.|.|.|.|.|.|.|.|.|.",
"|.|.|.|.|.|.|.|.|.!.L.M.f.N M z k < < < < < < < < < < < < < < < < < < < > < : : # O O O @ . . 4 5 U U v.V.U.|.|.|.|.|.|.|.|.|.|.",
"|.|.|.|.|.|.|.|.|.{.).L.V.E E M N < < < < < < < < < < < < < < < < < < < < < < : # # O o o . + G G v.b.C.C.|.|.|.|.|.|.|.|.|.|.|.",
"|.|.|.|.|.|.|.|.|.{.`.U.K.r.q.M N < < < < < < < < < < < < < < < < < < < < < > : ; O O . . . + J J m.C.C.C.|.|.|.|.|.|.|.|.|.|.|.",
"|.|.|.|.|.|.|.|.|.}.{.W.I.a.t.H P < < < < < < < < < < < < < < < < < < < < < > : ; O o . . . + T U U.R.|.|.|.|.|.|.|.|.|.|.|.|.|.",
"|.|.|.|.|.|.|.|.|.{._.Q.P.i.i.F F g g j 2 < 3 < < < < < < < < < < < < < < < , : # @ @ $ $ 6 4 q.q.I.R.|.|.|.|.|.|.|.|.|.|.|.|.|.",
"|.|.|.|.|.|.|.|.|.(.T.A.Z.] ] ' o.X.X.C p j 3 < < < < < < < < < < < < < < < , , % + * c J b.b.m.m.|.|.|.|.|.|.|.|.|.|.|.|.|.|.|.",
"|.|.|.|.|.|.|.|.|.(.T.A.k.] ` ' o.X.X.C p s 3 < < < < < < < < < < < < < < < < , % @ * c H b.m.m.m.|.|.|.|.|.|.|.|.|.|.|.|.|.|.|.",
"|.|.|.|.|.|.|.|.|./.Y.Z.l.` `  .@.o.o.B p j 3 3 < < < < < < < < < < < < < < > : % @ & G T K.K.|.|.|.|.|.|.|.|.|.|.|.|.|.|.|.|.|.",
"|.|.|.|.|.|.|.|.|./.Y.Z.l.` `  . .o.o.B p j 3 3 < < < < < < < < < < < < < < > : % @ - G R K.K.|.|.|.|.|.|.|.|.|.|.|.|.|.|.|.|.|.",
"|.|.|.|.).).R.J.x.w w $. ./ / ~ ~ &.&.V C g 2 < < 3 3 < < < < < < < < < < < < < < < 3 k b T E b.b.).`.|.|.|.|.|.|.|.|.|.|.|.|.|.",
"|.|.|.|.).).R.J.z.w | $.] / / ~ ~ &.&.r C g 2 3 < < 3 3 < < < < < < < < < < < < < < 3 b b T T b.b.).`.|.|.|.|.|.|.|.|.|.|.|.|.|.",
"|.|.|.|.E.E.G.D.g.| } [ >.^ ( =.=.....V i s 2 3 < < < < < < < < < < < < < < < < < < < z z P K M.v.R.R.|.|.|.|.|.|.|.|.|.|.|.|.|.",
"|.|.|.|.E.E.G.D.g.| } [ 3.^ ( =.=... .V i s < 3 < < < < < < < < < < < < < < < < < < 3 k z P P M.M.R.R.|.|.|.|.|.|.|.|.|.|.|.|.|.",
"}.}.[.].k.4.4.5.2.1.1.,.&.&...r r x d 2 2 3 < < < < < < < < < < < < < < < < < < < < < 3 < 3 k P N Q Q a.f.C.U.|.|.|.|.|.|.|.|.|.",
"}.}.[.].6.[ { :.1._ / ~ ~ ....B B > : > < < < < < < < < < < < < < < < < < < < < < < < < < < < k k l l t.f.C.U.|.|.|.|.|.|.|.|.|.",
"}.}.[.].j.[ 3.3.=.) ~ -.&.O.X.u u > : > > < < < < < < < < < < < < < < < < < < < < < < < < < < 2 3 z z r.y.N.V.|.|.|.|.|.|.|.|.|.",
"}.}.[.].j.[ 3.3.*.~ <.;...e e u u : : > > < < < < < < < < < < < < < < < < < < < < < < < < < < 3 3 z z Q r.f.M.|.|.|.|.|.|.|.|.|.",
"}.}.[.[.j.[ [ ] @. .O.e r i p 2 2 % ; ; : : > > < < < < < > < > < < < < < < < < < < < < < < < < < 3 k b M I I ! |.|.|.|.|.|.|.|.",
"}.}.[.].6.[ $.$.+.A V p x < < : : O O O # # ; : > > < > > > > > < < < < < < < < < < < < < < < < < < < , , > > P f.N.C.C.|.|.|.|.",
"}.}.].].j.%.%.+.r V C y f < < > ; O O # O ; ; : > > < > : > : > 3 3 3 3 < < < < < < < < < < < < < < < , , % % H f.M.C.C.|.|.|.|.",
"}.}._._.h.0.7.7.D i y g s < < ; ; O O # # ; ; : : : > > : % % % z k k k 3 < < < < < < < < < < < < < < : % % @ G s.M.C.C.|.|.|.|.",
"}.}._._.h.9.9.8.Z x f s 2 < < ; ; O O # # # ; ; : : > : % @ % % b b l z 3 < < < < < < < < < < < < < < % % @ o n a.v.m.C.|.|.|.|.",
"|.|.|.|.t.t.r.! N < < < 2 < < : : O O O O O O # ; ; : % + . . . G n n n 3 < < < < < < < < < < > > > > @ @ .   7 t.d.m.m.|.|.|.|.",
"|.|.|.|.a.a.r.E N < < < < > 2 ; : O O O O O O ; ; : : % + + + + J J n H k < < < < < < < < < < > > > > % $ .   8 a.f.m.C.|.|.|.|.",
"|.|.|.|.L.L.V.N.! M b k 2 > > ; ; X X O O O # O # @ @ - J T T T v.b.f.f.H k z k 3 < < < < < < > > # # 4 5 8 G a.C.I.W.W.|.|.|.|.",
"|.|.|.|.K.L.V.M.u.b z z k > > ; ; X X O O O % # # @ @ * J K T T b.b.f.f.P z k k 3 < < < < < < > > # # 4 5 c G a.m.I.W.W.|.|.|.|.",
"|.|.|.|.}.}.).!.N.! I M z > : # O     o O ; > @ + + . 5 V.C.I.I.`.`.!.!.! M M b k < < < < < < # # X X n U a.b.I.`.{.}.}.|.|.|.|.",
"|.|.|.|.}.}.`.!.N.! Q N b : : O O     O O ; : @ + + + 5 C.K.U.R.{.{.).!.u.P N b k < < < < < < # # X X G T d.b.I.`.{.}.}.|.|.|.|.",
"|.|.|.|.|.|.`.`.W.C.V.f.t.M b 1 1 O o @ @ @ @ h G J R q.|.|.|.|.|.|.|.|.f.s.y.! N 3 < , , ; # * * 4 4 t.f.C.R.).{.{.|.|.|.|.|.|.",
"|.|.|.|.|.|.`.`.!.U.L.M.s.H H h h # O @ @ @ @ 7 T q.a.a.|.|.|.|.|.|.|.|.v.v.s.y.P 3 < , , % # - - 5 7 d.b.I.!.).{.{.|.|.|.|.|.|.",
"|.|.|.|.|.|.|.|.'.'.!.L.V.Q Q l l # # @ @ @ + n a.v.C.C.|.|.|.|.|.|.|.|.L.L.N.v.Q 3 , : % o . 4 4 G G V.K.).{.{.|.|.|.|.|.|.|.|.",
"|.|.|.|.|.|.|.|.|.}.'.U.C.! ! b b : ; @ + + + J v.C.R.R.|.|.|.|.|.|.|.|.U.U.C.N.Q 1 1 % $ . . 5 5 U U C.U.'.}.|.|.|.|.|.|.|.|.|.",
"|.|.|.|.|.|.|.|.|.|.'.!.W.V.N.! u.c l n H J J E |.|.|.|.|.|.|.|.|.|.|.|.|.|.|.|.u.Q K G c 6 4 E T b.b.R.!.'.|.|.|.|.|.|.|.|.|.|.",
"|.|.|.|.|.|.|.|.|.|.|.`.`.!.!.N.N.E T t.a.v.b.|.|.|.|.|.|.|.|.|.|.|.|.|.|.|.|.|.|.v.d.w.q.G G d.f.!.!.`.`.|.|.|.|.|.|.|.|.|.|.|.",
"|.|.|.|.|.|.|.|.|.|.|.`.`.`.).V.m.q.E d.n.V.C.|.|.|.|.|.|.|.|.|.|.|.|.|.|.|.|.|.|.m.b.d.w.J U n.v.).`.`.`.|.|.|.|.|.|.|.|.|.|.|.",
"|.|.|.|.|.|.|.|.|.|.|.|.|.}.}.K.K.w.w.b.m.I.R.|.|.|.|.|.|.|.|.|.|.|.|.|.|.|.|.|.|.K.C.b.d.R R m.V.}.}.|.|.|.|.|.|.|.|.|.|.|.|.|.",
"|.|.|.|.|.|.|.|.|.|.|.|.|.}.}.K.K.w.w.b.m.I.R.|.|.|.|.|.|.|.|.|.|.|.|.|.|.|.|.|.|.K.C.b.b.d.d.K.K.{.}.|.|.|.|.|.|.|.|.|.|.|.|.|.",
"|.|.|.|.|.|.|.|.|.|.|.|.|.|.|.|.|.|.|.|.|.|.|.|.|.|.|.|.|.|.|.|.|.|.|.|.|.|.|.|.|.|.|.|.|.'.`.{.{.|.|.|.|.|.|.|.|.|.|.|.|.|.|.|.",
"|.|.|.|.|.|.|.|.|.|.|.|.|.|.|.|.|.|.|.|.|.|.|.|.|.|.|.|.|.|.|.|.|.|.|.|.|.|.|.|.|.|.|.|.|.{.{.{.{.|.|.|.|.|.|.|.|.|.|.|.|.|.|.|.",
"|.|.|.|.|.|.|.|.|.|.|.|.|.|.|.|.|.|.|.|.|.|.|.|.|.|.|.|.|.|.|.|.|.|.|.|.|.|.|.|.|.|.|.|.|.}.}.|.|.|.|.|.|.|.|.|.|.|.|.|.|.|.|.|.",
"|.|.|.|.|.|.|.|.|.|.|.|.|.|.|.|.|.|.|.|.|.|.|.|.|.|.|.|.|.|.|.|.|.|.|.|.|.|.|.|.|.|.|.|.|.}.}.|.|.|.|.|.|.|.|.|.|.|.|.|.|.|.|.|."
};
