/* XPM */
static char *y[] = {
/* columns rows colors chars-per-pixel */
"64 60 224 2 ",
"   c #DC3A29",
".  c #E22E27",
"X  c #EA2926",
"o  c #ED2425",
"O  c #E43328",
"+  c #E23B28",
"@  c #E9372B",
"#  c #F03935",
"$  c #BA7732",
"%  c #BF6D31",
"&  c #D6452B",
"*  c #CD5E2E",
"=  c #D95B2D",
"-  c #E7452A",
";  c #F2512C",
":  c #F14C3C",
">  c #F35530",
",  c #F35A34",
"<  c #C5672F",
"1  c #C86A30",
"2  c #C37733",
"3  c #D9753E",
"4  c #F25846",
"5  c #EC5C46",
"6  c #D77941",
"7  c #E97847",
"8  c #F46C58",
"9  c #F47E59",
"0  c #EC6847",
"q  c #F57763",
"w  c #5EA31A",
"e  c #62A61D",
"r  c #65A81F",
"t  c #64A921",
"y  c #6BAD25",
"u  c #6FAF28",
"i  c #6EB027",
"p  c #6FB129",
"a  c #73B32B",
"s  c #7BB62E",
"d  c #7CB82F",
"f  c #75B126",
"g  c #7DB332",
"h  c #7DBA32",
"j  c #71AE25",
"k  c #AE8B35",
"l  c #B68634",
"z  c #AB9436",
"x  c #A99E38",
"c  c #A69A37",
"v  c #B19338",
"b  c #83B326",
"n  c #85B529",
"m  c #8CB72D",
"M  c #8CB92D",
"N  c #8FB426",
"B  c #95B426",
"V  c #94B92C",
"C  c #98BB2D",
"Z  c #9CAC39",
"A  c #9CA638",
"S  c #89B632",
"D  c #84BC34",
"F  c #8BBC34",
"G  c #83B439",
"H  c #8ABE39",
"J  c #81B334",
"K  c #93BE32",
"L  c #95B53A",
"P  c #9AB43B",
"I  c #93BC3C",
"U  c #92B432",
"Y  c #A2A238",
"T  c #AAAE39",
"R  c #A5B03A",
"E  c #85C038",
"W  c #8CC53D",
"Q  c #97C136",
"!  c #99C135",
"~  c #91C33E",
"^  c #99BE44",
"/  c #96BE4B",
"(  c #97BC46",
")  c #8DB844",
"_  c #A8BA42",
"`  c #A0BF51",
"'  c #DC8E59",
"]  c #ED834D",
"[  c #F39057",
"{  c #F68B63",
"}  c #F58367",
"|  c #F89267",
" . c #F5936D",
".. c #F79779",
"X. c #EEAD7D",
"o. c #F9A77A",
"O. c #F9AC6C",
"+. c #D1AF6C",
"@. c #94C642",
"#. c #99C544",
"$. c #95C841",
"%. c #9BC943",
"&. c #96C349",
"*. c #9BC74A",
"=. c #9BC053",
"-. c #8FC242",
";. c #A3C54B",
":. c #A5CB4B",
">. c #A8CA4A",
",. c #B5CA4E",
"<. c #A3C654",
"1. c #A6CA54",
"2. c #ABCD53",
"3. c #A4C45A",
"4. c #ADCA5B",
"5. c #AAC659",
"6. c #B4C452",
"7. c #B1CE54",
"8. c #B5CB58",
"9. c #AED05A",
"0. c #B4D059",
"q. c #BAD15B",
"w. c #9EC66B",
"e. c #A9C967",
"r. c #B2CC62",
"t. c #B4CD6A",
"y. c #BDCC6B",
"u. c #BBCF66",
"i. c #B7D367",
"p. c #A8CD78",
"a. c #B8CC76",
"s. c #BDD673",
"d. c #B9D37E",
"f. c #AFD062",
"g. c #C5D564",
"h. c #CAD56C",
"j. c #C7CE76",
"k. c #C4D47C",
"l. c #CDD37A",
"z. c #C4D97A",
"x. c #CCDA7B",
"c. c #C7D774",
"v. c #D2D77A",
"b. c #CDC872",
"n. c #F89B80",
"m. c #F5B98A",
"M. c #F9B699",
"N. c #F9AB95",
"B. c #F9BCA6",
"V. c #BAD585",
"C. c #C1D284",
"Z. c #CADB86",
"A. c #CCD886",
"S. c #D2D986",
"D. c #D2DC8B",
"F. c #D6D788",
"G. c #CCD692",
"H. c #CCDB93",
"J. c #CEDB9A",
"K. c #D4DC94",
"L. c #D3DC9D",
"P. c #DADD96",
"I. c #FBC598",
"U. c #FCC899",
"Y. c #E5D897",
"T. c #FCC991",
"R. c #D7E08D",
"E. c #DBE193",
"W. c #DBE29C",
"Q. c #D4E097",
"!. c #E4E498",
"~. c #DADDA7",
"^. c #D3DBB4",
"/. c #FBC9A8",
"(. c #ECDEA3",
"). c #F9D9A6",
"_. c #FBD3BC",
"`. c #FBCEB1",
"'. c #CFE0A8",
"]. c #D4E0A1",
"[. c #DEE4A4",
"{. c #D9E3AC",
"}. c #DAE8BE",
"|. c #D7E4B6",
" X c #E2E5AB",
".X c #E3E8AB",
"XX c #EAE6A9",
"oX c #E4E9B4",
"OX c #ECEAB4",
"+X c #E5EABB",
"@X c #EAEBBC",
"#X c #E2E4B7",
"$X c #F9E8BA",
"%X c #FDDCC3",
"&X c #DDE1C9",
"*X c #ECEDC5",
"=X c #E6EAC7",
"-X c #F6EBC7",
";X c #EFF0C8",
":X c #F3F0C5",
">X c #F3F0CA",
",X c #FBF2CA",
"<X c #EAEADC",
"1X c #E9EAD5",
"2X c #FEEDD3",
"3X c #FEEBD8",
"4X c #EDF1D5",
"5X c #E9F1D6",
"6X c #F4F3D5",
"7X c #FCF4D3",
"8X c #F5F3DB",
"9X c #FDF5DD",
"0X c #E8E7E5",
"qX c #EFEEEE",
"wX c #EBEAE7",
"eX c #F6F7E3",
"rX c #FFF7E0",
"tX c #F6F8E5",
"yX c #FAF9E6",
"uX c #FDF7E8",
"iX c #FCFAEC",
"pX c #FEFDF5",
"aX c #FFFEFB",
"sX c None",
/* pixels */
"sXsXsXsXsXsXsXsXsXsXsXsXsXsXsXsXsXaXaXsXsXsXsXsXsXsXsXsXsXsXsXsXsXsXsXsX7X7X7X7X9X9X9X9X9XsXsXsXsXsXsXsXsXsXsXsXsXsXsXsXsXsXsXsX",
"sXsXsXsXsXsXsXsXsXsXsXsXsXsXsXsXsXaXaXsXsXsXsXsXsXsXsXsXsXsXsXsXsXsXsXsX7X7X7X,X7X9X9X9X9XsXsXsXsXsXsXsXsXsXsXsXsXsXsXsXsXsXsXsX",
"sXsXsXsXsXsXsXsXsXsXsXsXsXsXsXtXtXyXyXsXsXsXsXsXsXsXsXsXsXsXsXsXsXsXsXsX:X:X>X:X:X>X:X>X>XsXsXsXsXsXsXsXsXsXsXsXsXsXsXsXsXsXsXsX",
"sXsXsXsXsXsXsXsXsXsXsXsXsXsXsXeXyXyXyXsXsXsXsXsXsXsXsXsXsXsXsXsXsXsXsXsX:X:X:X:X:X:X:X;X:XsXsXsXsXsXsXsXsXsXsXsXsXsXsXsXsXsXsXsX",
"sXsXsXsXsXsXsXsXsXsXsXsXsX7X,X.X.Xx.x.!.!.OX:XsXsXsXsXsXsXsXsXsXiXiX7X6XR.x.x.z.c.i.z.R.E.:X:X9X9XaXaXsXsXsXsXsXsXsXsXsXsXsXsXsX",
"sXsXsXsXsXsXsXsXsXsXsXsXsX7X,XE.R.q.,.v.!.OX:XsXsXsXsXsXsXsXsXsXiXiX8X6Xx.q.q.0.7.:.2.x.D.:X>X9X9XaXaXsXsXsXsXsXsXsXsXsXsXsXsXsX",
"sXsXsXsXsXsXsXsXsXsXsXOXOX:X@XD.D.7.,.Z.R.!.oXsXsXsXsXsXsXsXsXsX9X6X:X@Xz.0.7.7.2.%.2.i.z..X.X>X>XyXuXyXyXsXsXsXsXsXsXsXsXsXsXsX",
"sXsXsXsXsXsXsXsXsXsXsXOXOXoX{.Z.Z.7.>.z.Z.Q..XsXsXsXsXsXsXsXsXsX:X:XOXOXc.9.9.2.*.$.%.9.i.R.E.@X@X9X9XyXyXsXsXsXsXsXsXsXsXsXsXsX",
"sXsXsXsXsXsXsXsXsXsXXXXX!.Z.Z.i.i.:.%.f.i.s.z.Z.sXsXsXsXsXsXsXsX!.!.!.E.0.:.*.*.-.E E @.*.f.t.H.K.*X$X8XyXuXsXsXsXsXsXsXsXsXsXsX",
"sXsXsXsXsXsXsXsXsX$XOXE.S.>.>.:.%.W W $.$.$.%.s.[..X:X6XpXpXaXaXh.h.g.g.%.W W E d t i p a d D 4.4.Y.Y.-X6XyXpXsXsXsXsXsXsXsXsXsX",
"sXsXsXsXsXsXsXsXXXOX!.D.x.2.>.~ %.W W $.$.$.%.s.W.[.OX*XyXyXiXiXg.g.g.i.~ W E E s i i i a d h 3.<.F.F.@X;X8XtXtXsXsXsXsXsXsXsXsX",
"sXsXsXsXsXsX(.XXY.F.v.j.i.! :.~ $.W W $.$.$.$.i.z.Z.Q.].*X*X>X>X0.0.7.7.~ E D D s p p a a d h &.&.4.r.Q.[.oX=X4XeXeXsXsXsXsXsXsX",
"sXsXsXsXsXsX(.(.Y.l.b.u.q.%.%.~ $.W W $.W $.$.9.c.x.Z.Q.OX@X@X@X7.7.2.2.W E E d s p p a s h h -.@.3.3.D.L.{.oX;XeXtXsXsXsXsXsXsX",
"sXsXsXsX$X$X).Y.b.T R P I W W W W W W W W W W %.~ %.%.:.h.v.v.v.W W W W h h h h h h h h d h d i u t t / 3.y.l. X8XyXaXaXsXsXsXsX",
"sXsXsXsX$X$X).Y.b.T R P P W W W W W W W W W W ~ %.%.%.2.x.h.v.x.W W W W E h h h h h h h d h d i i t t / ` j.l. X8XiXaXaXsXsXsXsX",
"sXsXsXsXM.T.m.X.' < 2 v v ~ Q ~ W W W $.%.W W W %.~ W %.9.0.q.0.W W W W h h h h d p a p i i i d d L L a.C.~.~.=X8X8XsXsXsXsXsXsX",
"sXsXsXsXI.I.m.X.' < 2 l z K I ~ ~ ~ W ~ $.~ W $.$.$.W %.9.9.9.0.W W W W h h h h d a a p p i u s s S L a.k.L.~.=X3X8XsXsXsXsXsXsX",
"sXsXsXsXo.o. .{ 0   & < $ P P I I W W W W W W W W W W $.$.%.-.$.W W W W -.E h h a p p y y e r S D 6.6.G.~.=X1X<XsXsXsXsXsXsXsXsX",
"sXsXsXsXo.o. .} 5 O & < 2 P P I I W W W W W W W W W W W $.$.W W W W -.W E E E h a p p y y w e S S 6.6.K.~.=X<XsXsXsXsXsXsXsXsXsX",
"sXsXsXsX/./.M.M. .0 0 3 3 $ l x x I I W W W W W W W W W -.-.W W W W E -.E E h h a t y a g ) / a.a.L.~.#X=X=XsXsXsXsXsXsXsXsXsXsX",
"sXsXsXsX%X%X`./.o.] ] 7 7 1 1 v v I I W W W W W W W W W W W W W W W W W E E h h p r t g g 3.3.A.G.+X=X*X=XsXsXsXsXsXsXsXsXsXsXsX",
"sXsXsXsX2X2X-X_.T.O.[ ] 7 = = l l P P I W W W W W W W W W W W W W W W W W E h h p w y G ) t.a.^.^.eXeX4XsXsXsXsXsXsXsXsXsXsXsXsX",
"sXsXsXsXuXuX3X%XU.O.| [ 7 ; - l 2 P P L I ~ W W W W W W W W W W W W W W W D h h y w t G ) j.k.&X|.pXaXsXsXsXsXsXsXsXsXsXsXsXsXsX",
"sXsXsXsXsXuX3X-XU.T.O.| ] + + * * l l Y A L I W W W W W W W -.-.W W W E h h g G g ) ) 3.e.~.J.=X&XpXaXsXsXsXsXsXsXsXsXsXsXsXsXsX",
"sXsXsXsXsXsXsXsXsX).I...} X X + + & & $ k Y P I W W W W W W $.$.W W E E a i d D ` y.y.G.~.&X1X<X<XsXsXsXsXsXsXsXsXsXsXsXsXsXsXsX",
"sXsXsXsXsXsXsXsXsX).U...} o X @ O   & $ k Y Z I W W W W W W $.-.W W E E a i g G / j.k.G.~.0X<X<X<XsXsXsXsXsXsXsXsXsXsXsXsXsXsXsX",
"sXsXsXsXsXsXsXsXsX$X/.n.} o o o X .   % $ x A L ~ W W W W W W W W W E E i y s S 5.l.G.~.^.qXqXsXsXsXsXsXsXsXsXsXsXsXsXsXsXsXsXsX",
"sXsXsXsXsXsXsXsXsX$X/.n.} # # @ @ O O < $ k c A I ~ W W W W W W W W E E a u J H 5.S.K.(.#XqXqXsXsXsXsXsXsXsXsXsXsXsXsXsXsXsXsXsX",
"sXsXsXsXsXsXsXsXsXsXsXsXsXI.I.{ { > ; - - O   % z A H W @.@.W W W W W W F S @.3.H.6X6X7X6XsXsXsXsXsXsXsXsXsXsXsXsXsXsXsXsXsXsXsX",
"sXsXsXsXsXsXsXsXsXsXsXsXsXI.T.| { > ; - - +   < c A H H @.@.W W W W W W S D / 3.H.6X6X6X6XsXsXsXsXsXsXsXsXsXsXsXsXsXsXsXsXsXsXsX",
"sXsXsXsXsXsXsXsXsXsXsXsXsX/.U.| | , > - @ O O < z Y U H -.W W W $.@.W W F S ( 3.H.6X8X8X8XsXsXsXsXsXsXsXsXsXsXsXsXsXsXsXsXsXsXsX",
"sXsXsXsXsXsXsXsXsXsXsXsXsX).U.| | , > @ @ O . < z Y L L W W W W @.@.W W D D ( 3.H.6X6X8X8XsXsXsXsXsXsXsXsXsXsXsXsXsXsXsXsXsXsXsX",
"sXsXsXsXsXsXsXsXsXsXsXsXsXsXsXsXsX9 8 4 4 @ o * k c Z L W W E E W W W W W E -.&.t.F.P.oX@XaXaXsXsXsXsXsXsXsXsXsXsXsXsXsXsXsXsXsX",
"sXsXsXsXsXsXsXsXsXsXsXsXsXsXsXsXsX} } 4 : @ o * l z Z Z W W E E W W W W E E -.&.5.l.F.{.+XaXaXsXsXsXsXsXsXsXsXsXsXsXsXsXsXsXsXsX",
"sXsXsXsXsXsXsXsXsXsXsXsXsXsXsXsXsX....8 5 4 4 < v x Z L E E E E W W W W W E -.@.5.y.A.~.#XpXpXsXsXsXsXsXsXsXsXsXsXsXsXsXsXsXsXsX",
"sXsXsXsXsXsXsXsXsXsXsXsXsXsXsXsXsX..n.q q 4 4 6 v Y Z L F E E E W W W W H E -.$.<.y.k.~.#XpXpXsXsXsXsXsXsXsXsXsXsXsXsXsXsXsXsXsX",
"sXsXsXsXsXsXsXsXsXsXsXsXsXsXsXsXsX_._.B.B.M.N.+._ _ U U h D h E E E D E E W W ~ @.^ r.C.J.tXyXsXsXsXsXsXsXsXsXsXsXsXsXsXsXsXsXsX",
"sXsXsXsXsXsXsXsXsXsXsXsXsXsXsXsXsXiXiXuX9X2X3XF.6.` m m d d h h h h h h W W W W F m ( t.C.8X8XsXsXsXsXsXsXsXsXsXsXsXsXsXsXsXsXsX",
"sXsXsXsXsXsXsXsXsXsXsXsXsXsXsXsXsXpXiXrX9X7X,XK.5.;.U M s h h h h h h h E W W W H S ( t.V.>X;XsXsXsXsXsXsXsXsXsXsXsXsXsXsXsXsXsX",
"sXsXsXsXsXsXsXsXsXsXsXsXsXsXsXsXsXiXiXrX9X7X7XD.4.;.Q F h h d h h h h h E W W W F m I r.s.@X@X;X;XsXsXsXsXsXsXsXsXsXsXsXsXsXsXsX",
"sXsXsXsXsXsXsXsXsXsXsXsXsXsXsXsXsXiXiXrX9X9X7XP.4.;.K K h g s s h h d d E @.W W F S ~ 4.t. X X;X*XsXsXsXsXsXsXsXsXsXsXsXsXsXsXsX",
"sXsXsXsXsXsXsXsXsXsXsXsXsXsXsXsXsXsXsXrXrXrXrXQ.r.>.K F d d a a h h h h W @.E E D S H &.<.l.l.+X+XaXaXsXsXsXsXsXsXsXsXsXsXsXsXsX",
"sXsXsXsXsXsXsXsXsXsXsXsXsXsXsXsXsXsXsXrXrXrXrXQ.9.;.Q M d d a a h h h h W ~ W E D S H &.<.j.k.oXoXaXaXsXsXsXsXsXsXsXsXsXsXsXsXsX",
"sXsXsXsXsXsXsXsXsXsXsXsXsXsXsXsXsXsXsXrXrXrXyXQ.4.*.m m a a i p E E E E W W W W ~ ~ I #.#.<.5.].~.yXiXsXsXsXsXsXsXsXsXsXsXsXsXsX",
"sXsXsXsXsXsXsXsXsXsXsXsXsXsXsXsXsXsXsXrXrXrXrXQ.4.;.m m a a p p E E E E W W W W W ~ @.^ #.5.e.].].tXiXsXsXsXsXsXsXsXsXsXsXsXsXsX",
"sXsXsXsXsXsXsXsXsXsXsXsXsXsXsXsXsXsXsXrXrX9X9XJ.<.^ b b p p u p W W W W W W E Q $.%.$.~ H g g V.V.4X8XsXsXsXsXsXsXsXsXsXsXsXsXsX",
"sXsXsXsXsXsXsXsXsXsXsXsXsXsXsXsXsXsXsXrXrX9X9XJ.<.^ b s p p p u W W W W W W W W $.%.$.~ H g J V.V.6X8XsXsXsXsXsXsXsXsXsXsXsXsXsX",
"sXsXsXsXsXsXsXsXsXsXsXsXsXsXsXsXsXsXsXrXrX9X9XK.7.R B N n n n b ~ Q Q Q ~ Q Q Q K F S J g u u e.e.[..XsXsXsXsXsXsXsXsXsXsXsXsXsX",
"sXsXsXsXsXsXsXsXsXsXsXsXsXsXsXsXsXsXsXrXrXrXrXP.6.;.B B b b m n ! Q Q Q ! Q Q Q F S G g a y u e.e.W.[.sXsXsXsXsXsXsXsXsXsXsXsXsX",
"sXsXsXsXsXsXsXsXsXsXsXsXsXsXsXsXsXsXsXrXrX9XrXP.6._ B B V V m N C C C C V V V V M n f u u w t ` =.A.S.sXsXsXsXsXsXsXsXsXsXsXsXsX",
"sXsXsXsXsXsXsXsXsXsXsXsXsXsXsXsXsXsXsXrXrXrXrXE.6._ B B V C V V C C C C B V ! V n f u y t w e / / l.l.sXsXsXsXsXsXsXsXsXsXsXsXsX",
"sXsXsXsXsXsXsXsXsXsXsXsXsXsXsXsXsXsXsXsXsXsXsX[.K.A.z.j.d.a.a.a.x.k.k.k.z.z.d.d.d.d.p.p.p.w.e.V.C.P.W.sXsXsXsXsXsXsXsXsXsXsXsXsX",
"sXsXsXsXsXsXsXsXsXsXsXsXsXsXsXsXsXsXsXsXsXsXsX=X=X+X+XoX^.^.^.^.+XoX+X+X+X+X&X}.}.}.|.|.|.'.'..X{.OXOXsXsXsXsXsXsXsXsXsXsXsXsXsX",
"sXsXsXsXsXsXsXsXsXsXsXsXsXsXsXsXsXsXsXsXsXsXsX4X4X6X4X1X&X&X&X&X6X4X6X6X4X5X4X5X5X5X5X=X=X}.}.@X@X$X$XsXsXsXsXsXsXsXsXsXsXsXsXsX",
"sXsXsXsXsXsXsXsXsXsXsXsXsXsXsXsXsXsXsXsXsXsXsXpXpXpXpXiXwXwX0X0XpXpXpXaXaXaXaXaXpXpXpXiXiX8X8X7X7X,X,XsXsXsXsXsXsXsXsXsXsXsXsXsX",
"sXsXsXsXsXsXsXsXsXsXsXsXsXsXsXsXsXsXsXsXsXsXsXsXpXpXpXpXwXwX0X0XpXpXpXpXaXaXaXaXaXpXpXiXuX8X8X7X7X,X,XsXsXsXsXsXsXsXsXsXsXsXsXsX",
"sXsXsXsXsXsXsXsXsXsXsXsXsXsXsXsXsXsXsXsXsXsXsXsXsXsXsXsXsXsXsXsXsXsXsXsXsXsXsXsXsXsXsXsXsXsXsXsXsXsXsXsXsXsXsXsXsXsXsXsXsXsXsXsX",
"sXsXsXsXsXsXsXsXsXsXsXsXsXsXsXsXsXsXsXsXsXsXsXsXsXsXsXsXsXsXsXsXsXsXsXsXsXsXsXsXsXsXsXsXsXsXsXsXsXsXsXsXsXsXsXsXsXsXsXsXsXsXsXsX",
"sXsXsXsXsXsXsXsXsXsXsXsXsXsXsXsXsXsXsXsXsXsXsXsXsXsXsXsXsXsXsXsXsXsXsXsXsXsXsXsXsXsXsXsXsXsXsXsXsXsXsXsXsXsXsXsXsXsXsXsXsXsXsXsX",
"sXsXsXsXsXsXsXsXsXsXsXsXsXsXsXsXsXsXsXsXsXsXsXsXsXsXsXsXsXsXsXsXsXsXsXsXsXsXsXsXsXsXsXsXsXsXsXsXsXsXsXsXsXsXsXsXsXsXsXsXsXsXsXsX"
};
