/* XPM */
static char * z_xpm[] = {
"46 49 194 2",
"  	c None",
". 	c #FFFFFF",
"+ 	c #FFFFFE",
"@ 	c #F15A25",
"# 	c #F15A24",
"$ 	c #F15925",
"% 	c #CA832F",
"& 	c #8CC63E",
"* 	c #8DC53F",
"= 	c #F05A25",
"- 	c #8BC63F",
"; 	c #F05922",
"> 	c #F45A26",
", 	c #FEFEFE",
"' 	c #FFFEFF",
") 	c #FFFFFC",
"! 	c #E66527",
"~ 	c #F25A24",
"{ 	c #F4875F",
"] 	c #F15C24",
"^ 	c #8BC63E",
"/ 	c #8CC63F",
"( 	c #DFE3E8",
"_ 	c #FFFCF9",
": 	c #F69774",
"< 	c #FEF9F8",
"[ 	c #FEFFFF",
"} 	c #EF5B23",
"| 	c #F15B25",
"1 	c #F25924",
"2 	c #F15924",
"3 	c #F15926",
"4 	c #B40406",
"5 	c #B30305",
"6 	c #B80B08",
"7 	c #F05B23",
"8 	c #8BC73F",
"9 	c #8CC540",
"0 	c #8AC640",
"a 	c #F26431",
"b 	c #EC1B24",
"c 	c #ED1B24",
"d 	c #DE171D",
"e 	c #C30B0F",
"f 	c #B30506",
"g 	c #B30406",
"h 	c #B20405",
"i 	c #B30407",
"j 	c #969330",
"k 	c #8BC53E",
"l 	c #8DC540",
"m 	c #8DC640",
"n 	c #8CC740",
"o 	c #F48157",
"p 	c #FDFEFD",
"q 	c #E8EAEE",
"r 	c #BC090B",
"s 	c #B30507",
"t 	c #FEFFFE",
"u 	c #ED1C24",
"v 	c #F3764A",
"w 	c #B20406",
"x 	c #ED1D24",
"y 	c #EAEBF3",
"z 	c #EB1C24",
"A 	c #3F4A6D",
"B 	c #0C1948",
"C 	c #B10305",
"D 	c #F15A26",
"E 	c #0C1848",
"F 	c #B20606",
"G 	c #EE1B24",
"H 	c #EA1C26",
"I 	c #CC1014",
"J 	c #F45A24",
"K 	c #0A1846",
"L 	c #EE3124",
"M 	c #B50307",
"N 	c #F05924",
"O 	c #0B1847",
"P 	c #F7AA8E",
"Q 	c #ED1D23",
"R 	c #F35925",
"S 	c #B30405",
"T 	c #B10404",
"U 	c #F15A23",
"V 	c #FFFEFE",
"W 	c #EE1D23",
"X 	c #EC2224",
"Y 	c #B40407",
"Z 	c #F15B24",
"` 	c #F15A22",
" .	c #FCDCD0",
"..	c #ED1C23",
"+.	c #FCDBCE",
"@.	c #E1461C",
"#.	c #F2612F",
"$.	c #EB1D24",
"%.	c #B20507",
"&.	c #B50607",
"*.	c #F25A23",
"=.	c #FDFFFF",
"-.	c #616788",
";.	c #15234D",
">.	c #B70608",
",.	c #F25A26",
"'.	c #EE1C25",
").	c #DF171E",
"!.	c #EC1C22",
"~.	c #B20403",
"{.	c #ED2824",
"].	c #EB1C25",
"^.	c #E91B23",
"/.	c #EF5B24",
"(.	c #EE3B25",
"_.	c #F05C25",
":.	c #F04426",
"<.	c #FEFFFD",
"[.	c #FDEEE8",
"}.	c #F26836",
"|.	c #F15325",
"1.	c #B10406",
"2.	c #EA1B23",
"3.	c #EC1C24",
"4.	c #EF5122",
"5.	c #F47E54",
"6.	c #D41117",
"7.	c #F69D7D",
"8.	c #F05A24",
"9.	c #EC1D25",
"0.	c #9EA5B8",
"a.	c #7F869B",
"b.	c #CB0E13",
"c.	c #B70507",
"d.	c #3F4A6C",
"e.	c #ED1C22",
"f.	c #EB1A24",
"g.	c #25325A",
"h.	c #F56A30",
"i.	c #FECF56",
"j.	c #FAB13B",
"k.	c #EC1B25",
"l.	c #FEE768",
"m.	c #FEE668",
"n.	c #FAB03A",
"o.	c #0C1846",
"p.	c #FCAF3A",
"q.	c #FAB03B",
"r.	c #FBAF3D",
"s.	c #FBB03B",
"t.	c #FBAF3C",
"u.	c #EF2326",
"v.	c #FCB03C",
"w.	c #FCAF3C",
"x.	c #EE2726",
"y.	c #FFD95D",
"z.	c #FAAF3A",
"A.	c #F78733",
"B.	c #FAB039",
"C.	c #ED2723",
"D.	c #EE1B25",
"E.	c #EB1B24",
"F.	c #0A1847",
"G.	c #F57932",
"H.	c #FAB03C",
"I.	c #FAAF3B",
"J.	c #EA1A23",
"K.	c #F35924",
"L.	c #E91A22",
"M.	c #EC1D22",
"N.	c #EC1D23",
"O.	c #F0422A",
"P.	c #CF0F14",
"Q.	c #0B1946",
"R.	c #FBCCBD",
"S.	c #F69977",
"T.	c #F4794D",
"U.	c #F05A23",
"V.	c #F25923",
"W.	c #F4612D",
"X.	c #F78331",
"Y.	c #F99337",
"Z.	c #EE1C23",
"`.	c #B30306",
" +	c #0C1946",
".+	c #FFFFFD",
"++	c #FDFEFE",
"@+	c #EF5D25",
"#+	c #F15C25",
"$+	c #FCFFFF",
"%+	c #FEFEFC",
"&+	c #0D1847",
"*+	c #BFC2D0",
"=+	c #DFE0E6",
"                                . . . . .                                                   ",
"                              . . . . . . . . . . . . .                                     ",
"                            . . + @ @ # . . . . . . . . . .   . . .                         ",
"                          . . $ % & & * @ + . @ @ @ # + . . . . . . . .                     ",
"                . . . . . . = - & & & & & ; > & & & - = . . . , ' ) . . .                   ",
"              . . . . . . . @ & & & & & & ! & & & & & & ~ { ] ^ / = . . . (                 ",
"            . . _ : < [ . [ } & & & & & & / & & & & & & | 1 & & & & 2 . . . . .             ",
"            . . 3 4 5 6 ~ 7 8 ^ 9 0 & & & & & & & & & & & & & & & & / a . . . . .           ",
"            . . @ b c c c c c c c c c d e f g f h i j k & & l m n & & @ @ o p . . q         ",
"            . . @ c c c c c c c c c c c c c c c c c c c c c c c c c r 4 s s @ . . .         ",
"            . t u c c c c c c c c c c c c c c c c c c c c c c c c c c c s s @ . . .         ",
"            . v c c c c c c c c c c c c c c c c c c c c c c c c c w x c s s @ . . y         ",
"          . . # c c c c c c c c c c c c c c c c c c c c c c c c s s s z s s @ . . A         ",
"          . . # c c c c c c c c c c c c c c c c c c c c c c c c w s s h s s @ . . B         ",
"          . . @ c c c c c c c c c c c c c c c c c c c c c c c c g s s C s s D . . E         ",
"          . . @ c c c c c c c c c c c c c c c c c c c c c c F G c H s I s s J . . K         ",
"          . . L c c c c c c c c c c c c c c c c c c c c c c s i c c c M s s N . . O         ",
"          . P Q c c c c c c c c c c c c c c c c c c c c c c h z c c c 5 s s R . .           ",
"          . = c c c c c c c c c c c c c c c c c c c c c c c c c S s c T s g U . .           ",
"        . . @ c c c c c c c c c c c c c c c c c c c c c c c c c s s c w s # V . .           ",
"        . . = c c c c c c c c c W c X c c c c c c c c c c c c c c c Y s Z + . . .           ",
"        . . = @ @ @ @ @ ` D U U  .@ ..c c c c c c c c c c c c c c s s 7 +.. . .             ",
"        . . . . . . . . . . . . 2 z c c c c c c c c c c c c c c s s @.#.. . .               ",
"          . . . . . . . . . . U $.c c c c c c c c c c c c c c %.s &.*.. . .                 ",
"            =., . -.;.. . . 1 ..c c c c c c c c c c c c c c >.s g # . . .                   ",
"                      . . ,.'.c c c c c c c c c c c c c c ).s s # . . .                     ",
"                    . . U !.c c c c c c c c c c c c c c c s ~.@ . . .                       ",
"                  . . U {.c ].^.c c c c c c c c c c c c s s @ . . . . . . . . .             ",
"                . . /.(.c c s s c c c c c c c c c c '.s s @ [ . . . . . . . . . .           ",
"              . . _.:.c c c s s c c c z c c c c c c s s # ' . . [ <.[.@ @ U @ . . .         ",
"            . . }.|.c c c c 1.2.c c s s c c c c 3.s f @ @ @ @ ~ 4.c c c s s @ . . .         ",
"          . . 5.N c c c c c c c c 6.s s c c c ..s s c c c c c c c c c c s s @ . . .         ",
"        . . 7.8.c c c c c c 9.c '.c Y w c c c c c c c c c c c c c c c c s s @ . . .         ",
"        . + @ c c c c c c c g s g c c c c c c c c c c c c c c c c c c c s s @ . . .         ",
"        . . @ c c c c c c g s s s c c c c c c c c c c c c c c c c c c c s s @ . . 0.        ",
"        . . @ c c c c c c i s s s c c c c c c c c c c c c c c c c c c c s s @ . . a.        ",
"        . . @ c c c c c c b.s s c.c c c c c c c c c c c c c c c c c c c s s @ . . d.        ",
"        . . @ c c c c c c c e.f.c c c c c c c c c c c c c c c c c c c '.s s @ . . g.        ",
"        . . @ c c c c c c h.i.j.c c c c k.l.m.n.c c c c c c c c c c c z s s @ . . o.        ",
"        . . @ c c c c c p.q.r.s.t.c c u.s.v.s.s.w.c c c x.y.z...c c c e.s s @ . . K         ",
"        . . @ c c c c A.s.s.s.s.s.c c s.s.s.s.s.B.c c C.s.j.s.s.D.c c E.s s 7 . . F.        ",
"        . . @ c c c c s.s.s.s.s.s.c G.s.s.s.s.s.s.c c H.s.s.s.s.I.c c J.s s K.. . K         ",
"        . . @ c c c c s.s.s.s.s.s.c s.s.s.s.s.s.s.c 3.s.s.s.s.s.s.c c L.s s @ . . K         ",
"        . t @ M.N...O.p.s.s.s.s.s.c s.s.s.s.s.s.s.c q.s.s.s.s.s.s.c c P.s s U . . Q.        ",
"        . . [ . V R.S.T.D 2 # U.V.@ @ @ @ @ @ @ ~ 7 V.2 # # W.X.Y.Z.u `.g s @ . .  +        ",
"          . . . . . . . . . . . . . . . . . . . . . . . . . . [ .+. ++@+#+= $+. .           ",
"            . . . . . . . . . . . . . . . . . . . . . . . . . . . . . . . . . . %+          ",
"                                    K &+*+=+. [ . . t . . . . . . . . . . . . .             ",
"                                                                                            "};
