/* XPM */
static char * Main_So_Long_Left_xpm[] = {
"64 64 506 2",
"  	c #70A853",
". 	c #73A351",
"+ 	c #7B934C",
"@ 	c #71A652",
"# 	c #6DA24E",
"$ 	c #678D2C",
"% 	c #66860F",
"& 	c #678404",
"* 	c #699031",
"= 	c #70A751",
"- 	c #70A852",
"; 	c #6EA752",
"> 	c #63A04B",
", 	c #6BA350",
"' 	c #73A251",
") 	c #7F8848",
"! 	c #73994C",
"~ 	c #79924A",
"{ 	c #6FA451",
"] 	c #6FA44E",
"^ 	c #6A8C1C",
"/ 	c #698704",
"( 	c #678F32",
"_ 	c #7EA26F",
": 	c #8F998C",
"< 	c #77A561",
"[ 	c #61994A",
"} 	c #60974A",
"| 	c #3C7337",
"1 	c #679E4E",
"2 	c #7A964D",
"3 	c #76934A",
"4 	c #649B4C",
"5 	c #589045",
"6 	c #5F8C36",
"7 	c #6CA551",
"8 	c #66A14E",
"9 	c #49813C",
"0 	c #508F3F",
"a 	c #68A34E",
"b 	c #69A14F",
"c 	c #5D9A47",
"d 	c #66943B",
"e 	c #669A4B",
"f 	c #6CA651",
"g 	c #7BA44B",
"h 	c #9FAF42",
"i 	c #B3B638",
"j 	c #C4BC28",
"k 	c #CDBD03",
"l 	c #C9B703",
"m 	c #ABA403",
"n 	c #668304",
"o 	c #678504",
"p 	c #689C4D",
"q 	c #6FA54F",
"r 	c #6EA14B",
"s 	c #6EA551",
"t 	c #779C4F",
"u 	c #7C8545",
"v 	c #7EA64C",
"w 	c #C0BA2F",
"x 	c #E4CB03",
"y 	c #F9DD06",
"z 	c #F9DE08",
"A 	c #F9DE0A",
"B 	c #F9DE0C",
"C 	c #F9DD04",
"D 	c #F9DD03",
"E 	c #D9C40F",
"F 	c #7C8903",
"G 	c #617E0E",
"H 	c #6D993C",
"I 	c #6A8D22",
"J 	c #6B922F",
"K 	c #588F45",
"L 	c #6FA753",
"M 	c #68A04E",
"N 	c #68A04F",
"O 	c #65A14C",
"P 	c #70A753",
"Q 	c #7DA44A",
"R 	c #B9B632",
"S 	c #F3D805",
"T 	c #F9DF11",
"U 	c #F9DF12",
"V 	c #F9DF10",
"W 	c #F9DE07",
"X 	c #F5D903",
"Y 	c #B8AE04",
"Z 	c #6B9646",
"` 	c #77A562",
" .	c #619B4A",
"..	c #49833C",
"+.	c #437839",
"@.	c #6BA550",
"#.	c #6CA550",
"$.	c #95AE47",
"%.	c #EDD310",
"&.	c #F9DE0B",
"*.	c #F9DE0D",
"=.	c #DBC703",
"-.	c #708704",
";.	c #63862B",
">.	c #6FA05D",
",.	c #87A849",
"'.	c #F4DB17",
").	c #F9DE0E",
"!.	c #DFC803",
"~.	c #718804",
"{.	c #5D7B13",
"].	c #679F4E",
"^.	c #86A749",
"/.	c #EDD30E",
"(.	c #658824",
"_.	c #669F4D",
":.	c #598F45",
"<.	c #78A24B",
"[.	c #ECD20E",
"}.	c #F9DF0F",
"|.	c #F8DD0A",
"1.	c #F8DC05",
"2.	c #659443",
"3.	c #D7C621",
"4.	c #D3BD0E",
"5.	c #A69408",
"6.	c #AC9A09",
"7.	c #F0D711",
"8.	c #F8DC06",
"9.	c #F8DC04",
"0.	c #C9BA07",
"a.	c #5D7E25",
"b.	c #689845",
"c.	c #6B9A41",
"d.	c #6D9B41",
"e.	c #689A47",
"f.	c #A8B03B",
"g.	c #A79508",
"h.	c #000000",
"i.	c #5F773C",
"j.	c #4E6F35",
"k.	c #B3A00A",
"l.	c #F9DE0F",
"m.	c #F8DD04",
"n.	c #A5A111",
"o.	c #698B1E",
"p.	c #6B9D49",
"q.	c #7F7E43",
"r.	c #7FA74C",
"s.	c #F1D813",
"t.	c #B4A10A",
"u.	c #4F6331",
"v.	c #415E2B",
"w.	c #7D6F06",
"x.	c #F1D603",
"y.	c #66850E",
"z.	c #6DA451",
"A.	c #C8BE2B",
"B.	c #F4DB11",
"C.	c #373001",
"D.	c #2B441E",
"E.	c #609046",
"F.	c #111F0A",
"G.	c #786B04",
"H.	c #C9BA03",
"I.	c #69A44E",
"J.	c #6DA551",
"K.	c #6FA752",
"L.	c #79A049",
"M.	c #F6DC12",
"N.	c #E2CA0F",
"O.	c #486E34",
"P.	c #273F1B",
"Q.	c #F9DD05",
"R.	c #F1D703",
"S.	c #659341",
"T.	c #528841",
"U.	c #4C813E",
"V.	c #5F9649",
"W.	c #BFBD37",
"X.	c #DCC40F",
"Y.	c #13210B",
"Z.	c #2D471F",
"`.	c #978707",
" +	c #9D9F04",
".+	c #669745",
"++	c #D9CA27",
"@+	c #DDC815",
"#+	c #961924",
"$+	c #050100",
"%+	c #901722",
"&+	c #D0BA0D",
"*+	c #F7DC04",
"=+	c #BEB20E",
"-+	c #688604",
";+	c #658E35",
">+	c #7BA06D",
",+	c #7EA36E",
"'+	c #F5DB12",
")+	c #C93D31",
"!+	c #F62F40",
"~+	c #E42B3B",
"{+	c #E52B3B",
"]+	c #C99420",
"^+	c #E0CC14",
"/+	c #678A25",
"(+	c #6B9E49",
"_+	c #63A04A",
":+	c #6FA05C",
"<+	c #D3B812",
"[+	c #C16C28",
"}+	c #C88824",
"|+	c #E1C513",
"1+	c #F8DC07",
"2+	c #657E04",
"3+	c #F8DD06",
"4+	c #F7DC05",
"5+	c #959D0E",
"6+	c #698E28",
"7+	c #DDCC25",
"8+	c #F8DD08",
"9+	c #B3AC03",
"0+	c #699945",
"a+	c #C4C035",
"b+	c #CFC103",
"c+	c #6D9C41",
"d+	c #95AD46",
"e+	c #F1D812",
"f+	c #F5DB11",
"g+	c #F7DD12",
"h+	c #F3D912",
"i+	c #CFC21B",
"j+	c #69963D",
"k+	c #E1CE20",
"l+	c #EFD611",
"m+	c #E8D011",
"n+	c #F3DA12",
"o+	c #EAD210",
"p+	c #EBD310",
"q+	c #F9DE09",
"r+	c #F8DC03",
"s+	c #DFCC0F",
"t+	c #648D37",
"u+	c #A1B142",
"v+	c #F6DA03",
"w+	c #E0C604",
"x+	c #E5CF03",
"y+	c #638316",
"z+	c #699B49",
"A+	c #69A04F",
"B+	c #C9BE2A",
"C+	c #F9DF0E",
"D+	c #D4BC07",
"E+	c #E5D015",
"F+	c #5A760E",
"G+	c #648A2E",
"H+	c #6EA24B",
"I+	c #67A34D",
"J+	c #48823C",
"K+	c #427C39",
"L+	c #77A64F",
"M+	c #DFCC21",
"N+	c #EED303",
"O+	c #E3CA06",
"P+	c #E7CE0C",
"Q+	c #65840E",
"R+	c #6CA24F",
"S+	c #6FA350",
"T+	c #6DA751",
"U+	c #6EA451",
"V+	c #C1BC31",
"W+	c #DDC403",
"X+	c #6A953A",
"Y+	c #6AA44F",
"Z+	c #ABAD33",
"`+	c #8EAC49",
" @	c #D2C72B",
".@	c #EFD403",
"+@	c #E1CE04",
"@@	c #D6D305",
"#@	c #A5BA06",
"$@	c #A3A404",
"%@	c #608325",
"&@	c #77A750",
"*@	c #DAC71B",
"=@	c #5F9549",
"-@	c #639A4B",
";@	c #6CA250",
">@	c #65984A",
",@	c #90AF21",
"'@	c #AECE06",
")@	c #BEE007",
"!@	c #C0E207",
"~@	c #BDC706",
"{@	c #C3B503",
"]@	c #608224",
"^@	c #B3B93C",
"/@	c #D7C928",
"(@	c #4B843D",
"_@	c #4A863C",
":@	c #9FC125",
"<@	c #C0DE07",
"[@	c #D0C504",
"}@	c #F8DD0B",
"|@	c #F0D603",
"1@	c #658204",
"2@	c #64892C",
"3@	c #E6D321",
"4@	c #D1CB36",
"5@	c #ABC71F",
"6@	c #BFDB06",
"7@	c #BBDA07",
"8@	c #E4CC08",
"9@	c #F8DE0D",
"0@	c #ADA804",
"a@	c #66871C",
"b@	c #9FAF40",
"c@	c #BAB52E",
"d@	c #6DA651",
"e@	c #AECC06",
"f@	c #B6CB06",
"g@	c #EED50A",
"h@	c #739B41",
"i@	c #6AA24E",
"j@	c #8AB04E",
"k@	c #ECD619",
"l@	c #B5B42F",
"m@	c #6EA652",
"n@	c #ADC406",
"o@	c #C0DC07",
"p@	c #CAC705",
"q@	c #F9DD07",
"r@	c #E1CF24",
"s@	c #76A44E",
"t@	c #8BB04E",
"u@	c #EED922",
"v@	c #C1BF37",
"w@	c #AFD014",
"x@	c #C0E007",
"y@	c #C0DF07",
"z@	c #D9C807",
"A@	c #DFCC1F",
"B@	c #76A54E",
"C@	c #EED921",
"D@	c #BEBD37",
"E@	c #A2BC21",
"F@	c #B7D707",
"G@	c #E4CB09",
"H@	c #DFCD21",
"I@	c #729E4B",
"J@	c #B9B937",
"K@	c #F3DA14",
"L@	c #F8DD09",
"M@	c #B4B73A",
"N@	c #79964D",
"O@	c #779049",
"P@	c #A0C226",
"Q@	c #C0DD07",
"R@	c #BFD806",
"S@	c #ADC405",
"T@	c #D7C92A",
"U@	c #B2B336",
"V@	c #D0C42B",
"W@	c #F9DE10",
"X@	c #F8DD07",
"Y@	c #B7C042",
"Z@	c #74A251",
"`@	c #709F4E",
" #	c #92B835",
".#	c #B0C606",
"+#	c #F8DD05",
"@#	c #97A941",
"##	c #86AA3D",
"$#	c #BFD906",
"%#	c #C0DB06",
"&#	c #BCC805",
"*#	c #F8DE0B",
"=#	c #8FAD4A",
"-#	c #808044",
";#	c #709F47",
">#	c #B9C008",
",#	c #F4DB12",
"'#	c #71A250",
")#	c #71A04F",
"!#	c #B2CD07",
"~#	c #C8CA0A",
"{#	c #759A4D",
"]#	c #7E8747",
"^#	c #9ABA25",
"/#	c #CAC607",
"(#	c #F8DE0F",
"_#	c #8FAD49",
":#	c #72A756",
"<#	c #78A564",
"[#	c #74A75B",
"}#	c #779D6B",
"|#	c #6CA552",
"1#	c #71A753",
"2#	c #71A150",
"3#	c #87AD3C",
"4#	c #C0E107",
"5#	c #CACA05",
"6#	c #D1C62B",
"7#	c #73A55C",
"8#	c #80967C",
"9#	c #70A459",
"0#	c #7D8E4A",
"a#	c #6D9F4B",
"b#	c #BFDA07",
"c#	c #CAC704",
"d#	c #82A74B",
"e#	c #A8C817",
"f#	c #C6CA06",
"g#	c #C3C137",
"h#	c #8BB039",
"i#	c #BACB06",
"j#	c #CCC22B",
"k#	c #74A360",
"l#	c #75A461",
"m#	c #6DA24F",
"n#	c #ABCB10",
"o#	c #E8D007",
"p#	c #F8DE0C",
"q#	c #CDC531",
"r#	c #6CA650",
"s#	c #6EA751",
"t#	c #7BA53F",
"u#	c #BBB705",
"v#	c #F8DE0E",
"w#	c #8EB132",
"x#	c #C9BD06",
"y#	c #ECD411",
"z#	c #F7DD11",
"A#	c #B3B83B",
"B#	c #85A12F",
"C#	c #DFC909",
"D#	c #F7DE12",
"E#	c #F8DE12",
"F#	c #F7DD10",
"G#	c #80A747",
"H#	c #528742",
"I#	c #6CA451",
"J#	c #6FA652",
"K#	c #86983A",
"L#	c #F3D806",
"M#	c #E5CF17",
"N#	c #8B9C84",
"O#	c #8C9A88",
"P#	c #6DA356",
"Q#	c #649E4C",
"R#	c #4B853D",
"S#	c #818145",
"T#	c #81A249",
"U#	c #D4C72C",
"V#	c #F5DD18",
"W#	c #739A6A",
"X#	c #72A250",
"Y#	c #6FA852",
"Z#	c #B8C041",
"`#	c #E9D420",
" $	c #B2B437",
".$	c #B7BF40",
"+$	c #97AE45",
"@$	c #86A94B",
"#$	c #7FA54B",
"$$	c #679B4C",
"%$	c #E6D529",
"&$	c #71A855",
"*$	c #4D833F",
"=$	c #5B9047",
"-$	c #CDC22B",
";$	c #E1D129",
">$	c #72A659",
",$	c #789A6F",
"'$	c #70A854",
")$	c #64A04B",
"!$	c #46843A",
"~$	c #92A641",
"{$	c #BFBF39",
"]$	c #D1C428",
"^$	c #93AA44",
"/$	c #8FAB47",
"($	c #CBC533",
"_$	c #E0CF23",
":$	c #84A84B",
"<$	c #E7CF10",
"[$	c #CABB21",
"}$	c #DFCA1C",
"|$	c #82A044",
"1$	c #A5AE3B",
"2$	c #C4C134",
"3$	c #D4C82B",
"4$	c #75A44E",
"5$	c #A1B041",
"6$	c #66994B",
"7$	c #9BA033",
"8$	c #A7AE3B",
"9$	c #96AF47",
"0$	c #719740",
"a$	c #ACB139",
"b$	c #7AA44C",
"c$	c #A9AF39",
"d$	c #6AA04F",
"e$	c #A8A831",
"f$	c #759743",
"g$	c #7A9F48",
"                                                                                                                                ",
"                                                                                                                                ",
"                  .             + @           # $ % & * =                           -                   ; >             , ,     ",
"        ' '       ) !           ~ {         ] ^ / / / / (                         _ : <                   ;         [ } | 1     ",
"        2 3                             4 5 6 / / / / / &                         7 8 ;                               9 0 a     ",
"                                        b c d / / / / / / e                                                           f ;       ",
"        .                             g h i j k l m n / o p   q r s                                                             ",
"      t u                       v w x y z A B z C D E F G H I / / / J                                     K L M N           O ; ",
"        P                   Q R S B T U U U U U U V W X Y & / / / / / Z `                                  ...+.@.          #.  ",
"                          $.%.&.T U U U U U U U U U U *.C =.-./ / / / ;.>.                                ; @.@.                ",
"                        ,.'.U U U U U U U U U U U U U U ).D !.~./ / / {.                                                ].,     ",
"                      ^./.V U U U U U U U U U U U U U U U y D !.-./ / (.                                                _.:.    ",
"                    <.[.D }.U U U U U U U U U U U V *.|.1.1.D D !.-./ 2.                                                        ",
"                    3.D W U 4.5.6.7.U U U T ).|.8.9.D 9.9.9.D D D 0.a.b.c.d.e.                                                  ",
"              .   f.C C T g.h.i.j.k.U l.8.9.9.9.m.m.m.1.9.9.9.D D D n./ / / / o.p.                                              ",
"            . q.r.s.V U t.h.h.u.v.w.U ).9.9.9.9.9.1.9.9.9.9.m.9.D D x.~./ / / / y.z.                                            ",
"              P A.U U B.C.D.E.F.h.G.T |.9.9.9.9.9.9.m.1.9.9.9.9.D D D H./ / / / / b.        I.I.            [   J.      K.K.    ",
"              L.M.U U N.h.O.  P.h.G.T Q.m.C D 9.1.9.m.D m.9.9.m.1.D D R.& / / / / S.        K.K.            T.U.V.      I.I.    ",
"              W.U U U X.h.Y.Z.h.h.`.*.9.m.9.9.1.m.D D D D m.9.m.m.C D D  +/ / / / .+                        ; O                 ",
"              ++U U U @+#+h.h.$+%+&+*.m.*+9.m.D D D D D D D 9.9.C C D D =+/ / -+;+                                              ",
"      >+,+    N.U U U '+)+!+~+{+]+U *.1.9.m.9.C D D D D D D D D D D D D ^+n /+(+                          ;                     ",
"      _+:+    N.U U U U <+[+}+|+U U &.m.9.m.9.D D D D D D D D D D D D D 1+2+/ $ s                         O #.                  ",
"              N.U U U U U U U U U U ).3+m.4+m.m.D D D D D D D D D D D D D 5+/ / 6+s                                             ",
"              7+U U U U U U U U U U U ).8+9.9.9.D D D D D D D D D D D D D 9+/ / / 0+                                            ",
"              a+U U U U U U U U U U U U 8+8+9.m.D D D D D D D D D D D D D b+/ / / c+                                            ",
"              d+U e+f+U U U U g+h+U U U T A C m.D D D D D D D D D D D D D i+/ / / j+                                            ",
"                k+U l+m+U n+o+p+U U ).q+Q.z T 1.y D r+D D D D D D D D D D s+/ / / t+                      ;                     ",
"    ' '         u+U U U U U U U T y Q.B T *.U q+A v+w+D D D D D D D D D D x+/ / y+z+    #.              ; >             L M A+  ",
"    2 3           B+U U U U U U T &.*.C+z T ).D X D+&.D D D D D D D D C D E+n F+G+H+  #.I+    O #.                      J+K+@.  ",
"                  L+M+U U U U U U U }.B U T z N+O+U V D D D D D D C D D D P+/ / / Q+R+        ;               S+        T+@.    ",
"  ' 2               U+V+f+U U U T &.&.*.W X W+N+B U U D D D D D D D C D D D n / / / X+    ; Y+                Z+I.I.            ",
"  ' 3                   `+ @B.U &.W .@+@@@#@x.D }.U U 3+1.m.D D D D D C D D $@/ / / %@    ; Y+              &@*@K.K.    Y+Y+    ",
"              N =@-@        ;@>@,@'@)@!@!@~@D D T U U 8+9.9.D D C 9.m.m.D D {@/ / / ]@                      ^@/@        ; ;     ",
"                (@_@@.          :@!@!@!@<@[@Q.B U U U }@C m.m.C 9.9.m.C 1.D |@1@/ / 2@                    N 3@4@                ",
"                                5@!@<@6@7@8@U U U U U 9@m.m.9.9.1.9.C D m.D D 0@/ a@#                     b@U c@d@              ",
"                                e@!@!@!@f@A U U U U U ).9.C 9.m.1.9.D D C m.C g@h@i@I+                  j@k@U l@m@              ",
"                                n@o@!@o@p@T U U U U U V m.D m.m.9.C D D C 9.C q@r@s@#.                t@u@U U v@                ",
"                                w@x@y@!@z@U U U U U U U D D D D D 9.m.D D 9.m.A V A@B@              ^.C@U T V D@                ",
"                @ @             E@x@!@F@G@U U U U U U U Q.D D D D D 9.D D C 9.q+U U H@r.        I@J@K@U T L@T M@                ",
"        N@N@    + O@            P@Q@R@S@&.U U U U U U U z D D D D D D m.D C m.C }.U U f+T@U@U@V@f+U U W@3+X@U Y@                ",
"    @ + Z@`@@ +   ' 2            #!@!@.#).U U U U U U U A D D D D D D C 9.D D D +#B T U U U U U U U &.9.9.X@U @#                ",
"    @ O@' ' @ O@  ' 3           ##$#%#&#}.U U U U U U U *.D D D D D D D D D D D D 9.m.3+*#l.*.l.l.X@m.m.1.q@U =#                ",
"        2 3       . . -##.      ;#!@!@>#V U U U U U U U }.D D D D D D D D D D m.D 1.m.9.4+m.m.9.m.9.9.9.9.X@,#;@                ",
"    . )         ' q.  '#        )#!#!@~#V U U U U U U U V D D D D D D D D D D 9.D m.C C D D D D m.m.m.9.9.L@ @            _ `   ",
"      !   ) {#t ]#              ; ^#x@/#T U U U U U U U U D D D D D D D D D D D m.D D D D D D 1.9.m.9.m.m.(#_#  :#<#[#    }#|#  ",
"      t 1#. ;   2#              ; 3#4#5#T U U U U U U U U y D D D D D D D D D D D D D D D D D 9.9.9.9.9.q+6#    7#8#9#          ",
"      0#!                         a#b#c#U U U U U U U U U z D D D D D D D D D D m.D D D D D 9.9.9.C 9.8+f+d#                    ",
"                                    e#f#V U U U U U U U U A D D D D D D D D D D D D D D D C D D D D X@U g#                      ",
"                                    h#i#B U U U U U U U U *.9.1.9.9.9.m.m.9.1.m.D D D 1.C D D D m.L@T j#s                 k#l#  ",
"                                    m#n#o#U U U U U U U U l.p#9.8+8+8.9.9.m.9.4+D m.D D D D D 9.*.U q#s                   r#s#  ",
"                                      t#u#V U U U U U U U U l.).T U T p#B }@+#m.|.+#D D D z v#).U g#                            ",
"                                        w#x#T T ).U U U U U y#U U U U l.U U U z#U X@9.1.q@U U '+A#                              ",
"    + @                                 s B#C#B C U U U U U D#U U U U U U U U E#U l.9.X@F#U 6#G#  ;                   - -       ",
"  P ~ {         H#I#N                     J#K#L#D }.U U U U U U U U U U U U U g+U U 8+U M#`+@.I.; >                 - N#O#P#    ",
". -#            Q#R#5                       S#T#U#T U U U U U U U U U U U U U U U U U U V#  O a ;                     }#W#I+    ",
"  '#  b L       K.@.;     #.                X#Y#Z#U U U U U `#U@ $.$+$@$#$$$  %$U U U U U   #.Y+;         &$                    ",
"      L *$=$N                   + ~             Y@U U U U U -$                ;$U U U U U   O ;         >$,$'$                  ",
"        )$!$#.                  @ {             ~$U U U U U {$                ]$U U U U l+                                      ",
"                                                ^$U U U U U /$                ($U U U U _$    ;                                 ",
"                                                :$<$U E#[$}$                  |$1$2$3$4$5$  ; >                                 ",
"                            @ +                 s 6$7$8$9$0$                  s a$b$c$d$L                                       ",
"                            @ O@                  >@e$f$g$;                                                                     ",
"                        ; Y+                                                                                                    ",
"                                                                                                                                "};
