/* XPM */
static char * Main_character_So_Long_Left_xpm[] = {
"53 64 262 2",
"  	c #3F2A17",
". 	c #2E1B0E",
"+ 	c #402515",
"@ 	c #372111",
"# 	c #638004",
"$ 	c #668404",
"% 	c #678404",
"& 	c #658104",
"* 	c #698704",
"= 	c #627E04",
"- 	c #D8C002",
"; 	c #D6C204",
"> 	c #CDBD03",
", 	c #C9B703",
"' 	c #ABA403",
") 	c #668304",
"! 	c #678504",
"~ 	c #DAC202",
"{ 	c #E4CB03",
"] 	c #F9DD06",
"^ 	c #F9DE08",
"/ 	c #F9DE0A",
"( 	c #F9DE0C",
"_ 	c #F9DD04",
": 	c #F9DD03",
"< 	c #DCC503",
"[ 	c #7C8903",
"} 	c #607C04",
"| 	c #698604",
"1 	c #D5BD03",
"2 	c #F3D805",
"3 	c #F9DF11",
"4 	c #F9DF12",
"5 	c #F9DF10",
"6 	c #F9DE07",
"7 	c #F5D903",
"8 	c #B8AE04",
"9 	c #F0D506",
"0 	c #F9DE0B",
"a 	c #F9DE0D",
"b 	c #DBC703",
"c 	c #708704",
"d 	c #5F7A03",
"e 	c #F7DD11",
"f 	c #F9DE0E",
"g 	c #DFC803",
"h 	c #718804",
"i 	c #5C7703",
"j 	c #F0D503",
"k 	c #627F03",
"l 	c #EFD403",
"m 	c #F9DF0F",
"n 	c #F8DD0A",
"o 	c #F8DC05",
"p 	c #E5CB03",
"q 	c #D3BD0E",
"r 	c #A69408",
"s 	c #AC9A09",
"t 	c #F0D711",
"u 	c #F8DC06",
"v 	c #F8DC04",
"w 	c #CABA03",
"x 	c #577003",
"y 	c #A79508",
"z 	c #000000",
"A 	c #B3A00A",
"B 	c #F9DE0F",
"C 	c #F8DD04",
"D 	c #A7A103",
"E 	c #688504",
"F 	c #F4DA0B",
"G 	c #B4A10A",
"H 	c #7D6F06",
"I 	c #F1D603",
"J 	c #DBC40D",
"K 	c #F4DB11",
"L 	c #373001",
"M 	c #786B04",
"N 	c #C9BA03",
"O 	c #F6DC12",
"P 	c #E2CA0F",
"Q 	c #F9DD05",
"R 	c #F1D703",
"S 	c #E2CA10",
"T 	c #DCC40F",
"U 	c #978707",
"V 	c #9D9F04",
"W 	c #E9D110",
"X 	c #E0C90F",
"Y 	c #961924",
"Z 	c #050100",
"` 	c #901722",
" .	c #D0BA0D",
"..	c #F7DC04",
"+.	c #C0B203",
"@.	c #688604",
"#.	c #5D7704",
"$.	c #F5DB12",
"%.	c #C93D31",
"&.	c #F62F40",
"*.	c #E42B3B",
"=.	c #E52B3B",
"-.	c #C99420",
";.	c #E6CE03",
">.	c #648104",
",.	c #D3B812",
"'.	c #C16C28",
").	c #C88824",
"!.	c #E1C513",
"~.	c #657E04",
"{.	c #F8DD06",
"].	c #F7DC05",
"^.	c #969D04",
"/.	c #EBD211",
"(.	c #F8DD08",
"_.	c #B3AC03",
":.	c #E4CC10",
"<.	c #CFC103",
"[.	c #F1D812",
"}.	c #F5DB11",
"|.	c #F7DD12",
"1.	c #F3D912",
"2.	c #D7C503",
"3.	c #EAD211",
"4.	c #EFD611",
"5.	c #E8D011",
"6.	c #F3DA12",
"7.	c #EAD210",
"8.	c #EBD310",
"9.	c #F9DE09",
"0.	c #F8DC03",
"a.	c #E2CD03",
"b.	c #597303",
"c.	c #F6DA03",
"d.	c #E0C604",
"e.	c #E5CF03",
"f.	c #627F04",
"g.	c #DBC40E",
"h.	c #F9DF0E",
"i.	c #D4BC07",
"j.	c #ECD303",
"k.	c #5E7A03",
"l.	c #E9D010",
"m.	c #EED303",
"n.	c #E3CA06",
"o.	c #EACF03",
"p.	c #658204",
"q.	c #DBC40F",
"r.	c #DDC403",
"s.	c #C3AF0C",
"t.	c #E7CF10",
"u.	c #E1CE04",
"v.	c #D6D305",
"w.	c #A5BA06",
"x.	c #A3A404",
"y.	c #95B004",
"z.	c #AECE06",
"A.	c #BEE007",
"B.	c #C0E207",
"C.	c #BDC706",
"D.	c #C3B503",
"E.	c #5C7603",
"F.	c #DFC710",
"G.	c #E8D010",
"H.	c #A9C705",
"I.	c #C0DE07",
"J.	c #D0C504",
"K.	c #F8DD0B",
"L.	c #F0D603",
"M.	c #5E7903",
"N.	c #F3DA11",
"O.	c #B2CB06",
"P.	c #BFDB06",
"Q.	c #BBDA07",
"R.	c #E4CC08",
"S.	c #F8DE0D",
"T.	c #ADA804",
"U.	c #EDD411",
"V.	c #AECC06",
"W.	c #B6CB06",
"X.	c #F0D604",
"Y.	c #F1D811",
"Z.	c #DDC60F",
"`.	c #ADC406",
" +	c #C0DC07",
".+	c #CAC705",
"++	c #F9DD07",
"@+	c #F3D703",
"#+	c #E5CD10",
"$+	c #B2D207",
"%+	c #C0E007",
"&+	c #C0DF07",
"*+	c #D9C807",
"=+	c #E9D00B",
"-+	c #E0C910",
";+	c #AAC006",
">+	c #B7D707",
",+	c #E4CB09",
"'+	c #DAC30E",
")+	c #F8DD09",
"!+	c #AAC806",
"~+	c #C0DD07",
"{+	c #BFD806",
"]+	c #ADC405",
"^+	c #EAD110",
"/+	c #E3CB10",
"(+	c #F9DE10",
"_+	c #F8DD07",
":+	c #A4C106",
"<+	c #B0C606",
"[+	c #F8DD05",
"}+	c #BFD906",
"|+	c #C0DB06",
"1+	c #BCC805",
"2+	c #F8DE0B",
"3+	c #B9C008",
"4+	c #F4DB12",
"5+	c #B2CD07",
"6+	c #C8CA0A",
"7+	c #A3BE06",
"8+	c #CAC607",
"9+	c #F8DE0F",
"0+	c #C0E107",
"a+	c #CACA05",
"b+	c #E6CE10",
"c+	c #BFDA07",
"d+	c #CAC704",
"e+	c #ACCB06",
"f+	c #C6CA06",
"g+	c #9EB605",
"h+	c #BACB06",
"i+	c #ADCC06",
"j+	c #E8D007",
"k+	c #F8DE0C",
"l+	c #BBB705",
"m+	c #F8DE0E",
"n+	c #E7CF11",
"o+	c #9BB605",
"p+	c #C9BD06",
"q+	c #ECD411",
"r+	c #DCC50F",
"s+	c #8D9E03",
"t+	c #DFC909",
"u+	c #F7DE12",
"v+	c #F8DE12",
"w+	c #F7DD10",
"x+	c #988602",
"y+	c #F3D806",
"z+	c #EDD203",
"A+	c #F2D911",
"B+	c #D2BB0D",
"C+	c #E1C90F",
"D+	c #F4DA12",
"E+	c #EED511",
"F+	c #D4BE0E",
"G+	c #C8B30E",
"H+	c #E4CD10",
"I+	c #AE9C0A",
"J+	c #CAB40D",
"K+	c #CDB70D",
"L+	c #CAB50D",
"M+	c #BCA80B",
"  . + + @ + + + + @ + + + @ + + + + +   + @ + + +   + @ + + + +   . + + @ + + + + @ + + + @ + + + + +   + ",
"+ + + @ + + + . . + @ @ + + @ + @ + . + + + @ + + .   . + + + + + + + @ + + + . . + @ @ + + @ + @ + . + + ",
"@   @ + @ +   + @ + + + + +   @ + @ + # $ % & + @ + + @ @ + + + @   @ + @ +   + @ + + + + +   @ + @ + + + ",
"@ @ . @ + @ + + + + + + + + + + @ + * * * * * = + + + + +   . + @ @ . @ + @ + + + + + + + + + + @ +   @ + ",
"  + + + + + . + @ + + + @ + +   + + * * * * * % + + +   + @ + +   + + + + + . + @ + + + @ + +   + + + @ + ",
"+ @ +   @ + + + + @   + + + + + @ + * * * * * * + + + + @ + + + + @ +   @ + + + + @   + + + + + @ + + + @ ",
"+ + . @ + + + + @ + + @ + + + @ - ; > , ' ) * ! + + . @ + @ + + + + . @ + + + + @ + + @ + + + @ + @ + + + ",
"+ + + + @ + . + + + @ + ~ { ] ^ / ( ^ _ : < [ } + * * * * | @ + + + + + @ + . + + + @ + @   + + @ + @   @ ",
"  + + @ @ @ + + + + 1 2 ( 3 4 4 4 4 4 4 5 6 7 8 % * * * * * . @   + + @ @ @ + + + + + . + @ @ + + . + + + ",
"+ + + + @   @ + + 9 0 3 4 4 4 4 4 4 4 4 4 4 a _ b c * * * * d + + + + + @   @ + + .   + @ @ @ + + + @ + + ",
"+ . + + @ @ + @ e 4 4 4 4 4 4 4 4 4 4 4 4 4 4 f : g h * * * i @ + . + + @ @ + @ + + + + + @ + + + . + + + ",
"@ + + + + + @ j 5 4 4 4 4 4 4 4 4 4 4 4 4 4 4 4 ] : g c * * k + @ + + + + + @ + . + + . @   @ + +   + + + ",
"@ +   @ + + l : m 4 4 4 4 4 4 4 4 4 4 4 5 a n o o : : g c * + + @ +   @ + + @ + + + + + @ @ @ @ + + + + + ",
"+ + + + + p : 6 4 q r s t 4 4 4 3 f n u v : v v v : : : w x + + + + + + + + + + + + @   + @ @ . @ + + . + ",
". + + + . _ _ 3 y z @ z A 4 B u v v v C C C o v v v : : : D * * * * E + . + + + @ + @ + + + +   + @ +   + ",
"@ + + @ F 5 4 G z z z z H 4 f v v v v v o v v v v C v : : I h * * * * ) + +   + + @ + + + + + + + + @ + @ ",
"+ + @ J 4 4 K L z + z z M 3 n v v v v v v C o v v v v : : : N * * * * * @ + . + @ + . + + + + . + + + + + ",
"@ + + O 4 4 P z z + z z M 3 Q C _ : v o v C : C v v C o : : R % * * * * + @ + +   + + @ + + +   + + + + + ",
"+ + S 4 4 4 T z z z z z U a v C v v o C : : : : C v C C _ : : V * * * * + + @   @ +   + @ + + + @ . + + + ",
"+ . W 4 4 4 X Y z z Z `  .a C ..v C : : : : : : : v v _ _ : : +.* * @.#.+ @ @ @ + + + + + @ + + + @   + @ ",
". + P 4 4 4 $.%.&.*.=.-.4 a o v C v _ : : : : : : : : : : : : ;.) >.+ + @ + @ + @ @ + @ + + @ + + @ @ + + ",
"@ + P 4 4 4 4 ,.'.).!.4 4 0 C v C v : : : : : : : : : : : : : : ~.* # + + +   @ + @ + + + + + @ + @ + @ + ",
"+ + P 4 4 4 4 4 4 4 4 4 4 f {.C ].C C : : : : : : : : : : : : : ^.* * ! @ + + + . +   + +   + + @ @ @ + @ ",
"+ @ /.4 4 4 4 4 4 4 4 4 4 4 f (.v v v : : : : : : : : : : : : : _.* * * + + + + + + @ @ . + @ + +   @ @ + ",
"+ @ :.4 4 4 4 4 4 4 4 4 4 4 4 (.(.v C : : : : : : : : : : : : : <.* * * + +   + + @ + + + + + + + @ @ +   ",
"@ . @ 4 [.}.4 4 4 4 |.1.4 4 4 3 / _ C : : : : : : : : : : : : : 2.* * * @ + + @ + + + + @ + + + @ + + + + ",
"@ @ + 3.4 4.5.4 6.7.8.4 4 f 9.Q ^ 3 o ] : 0.: : : : : : : : : : a.* * * b.+ @   + + + + + + @ + + + @ + + ",
"@ + @ . 4 4 4 4 4 4 4 3 ] Q ( 3 a 4 9./ c.d.: : : : : : : : : : e.* * f.  + + + + +   @ + + . + +   + + + ",
"+ + +   g.4 4 4 4 4 4 3 0 a h.^ 3 f : 7 i.0 : : : : : : : : _ : j.) b.k.+ + + + + + + + @ + @   + + @ + @ ",
"@ + @ + @ l.4 4 4 4 4 4 4 m ( 4 3 ^ m.n.4 5 : : : : : : _ : : : o.* * * p.@ + + +   @ + + @ + @ @ + + @ + ",
"@ . + + @ + q.}.4 4 4 3 0 0 a 6 7 r.m.( 4 4 : : : : : : : _ : : : ) * * * >.  @ + + + + + + @ + + + s.+   ",
"+   + @ + + + + t.K 4 0 6 l u.v.w.I : m 4 4 {.o C : : : : : _ : : x.* * * i + + @ + . +   + + . + + X + + ",
"  . + + @ + + + + @ + y.z.A.B.B.C.: : 3 4 4 (.v v : : _ v C C : : D.* * * E.+ + + @ + + + @ + + + F.G.  + ",
"+ + + @ + + + . . + @ H.B.B.B.I.J.Q ( 4 4 4 K._ C C _ v v C _ o : L.p.* * M.+ . . + @ @ + + @ + @ N.|.+ + ",
"@   @ + @ +   + @ + + O.B.I.P.Q.R.4 4 4 4 4 S.C C v v o v _ : C : : T.* >.+   + @ + + + + +   @ + 4 U.+ + ",
"@ @ . @ + @ + + + + + V.B.B.B.W./ 4 4 4 4 4 f v _ v C o v : : _ C _ X.@ + @ + + + + + + + + + + Y.4 Z.@ + ",
"  + + + + + . + @ + + `. +B. +.+3 4 4 4 4 4 5 C : C C v _ : : _ v _ ++@++ + . + @ + + + @ + + 4 4 4 #+@ + ",
"+ @ +   @ + + + + @   $+%+&+B.*+4 4 4 4 4 4 4 : : : : : v C : : v C / 5 =++ + + + @   + + + 4 4 3 5 -++ @ ",
"+ + . @ + + + + @ + + ;+%+B.>+,+4 4 4 4 4 4 4 Q : : : : : v : : _ v 9.4 4 W + + @ + + @ '+K 4 3 )+3 '++ + ",
"+ + + + @ + . + + + @ !+~+{+]+0 4 4 4 4 4 4 4 ^ : : : : : : C : _ C _ m 4 4 }.^+ . ./+}.4 4 (+{._+4 @   @ ",
"  + + @ @ @ + + + + + :+B.B.<+f 4 4 4 4 4 4 4 / : : : : : : _ v : : : [+( 3 4 4 4 4 4 4 4 0 v v _+4 + + + ",
"+ + + + @   @ + + .   + }+|+1+m 4 4 4 4 4 4 4 a : : : : : : : : : : : : v C {.2+B a B B _+C C o ++4 @ + + ",
"+ . + + @ @ + @ + + + + B.B.3+5 4 4 4 4 4 4 4 m : : : : : : : : : : C : o C v ].C C v C v v v v _+4++ + + ",
"@ + + + + + @ + . + + . 5+B.6+5 4 4 4 4 4 4 4 5 : : : : : : : : : : v : C _ _ : : : : C C C v v )+t.+ + + ",
"@ +   @ + + @ + + + + + 7+%+8+3 4 4 4 4 4 4 4 4 : : : : : : : : : : : C : : : : : : o v C v C C 9++ + + + ",
"+ + + + + + + + + + @   + 0+a+3 4 4 4 4 4 4 4 4 ] : : : : : : : : : : : : : : : : : v v v v v 9.b++ + . + ",
". + + + . + + + @ + @ + + c+d+4 4 4 4 4 4 4 4 4 ^ : : : : : : : : : : C : : : : : v v v _ v (.}.+ @ +   + ",
"@ + + @ + +   + + @ + + + e+f+5 4 4 4 4 4 4 4 4 / : : : : : : : : : : : : : : : _ : : : : _+4 t.+ + @ + @ ",
"+ + @   @ + . + @ + . + + g+h+( 4 4 4 4 4 4 4 4 a v o v v v C C v o C : : : o _ : : : C )+3 X . + + + + + ",
"@ + + + + @ + +   + + @ + + i+j+4 4 4 4 4 4 4 4 B k+v (.(.u v v C v ].: C : : : : : v a 4 ^++   + + + + + ",
"+ + + @ + + @   @ +   + @ + + l+5 4 4 4 4 4 4 4 4 B f 3 4 3 k+( K.[+C n [+: : : ^ m+f 4 n++ + + @ . + + + ",
"+ . + + + @ @ @ + + + + + @ + o+p+3 3 f 4 4 4 4 4 q+4 4 4 4 B 4 4 4 e 4 _+v o ++4 4 $.r++ @ + + + @   + @ ",
". + + + @ + @ + @ @ + @ + + @ + s+t+( _ 4 4 4 4 4 u+4 4 4 4 4 4 4 4 v+4 B v _+w+4 b++ @ + + @ + + @ @ + + ",
"@ + + + + +   @ + @ + + + + + @ + x+y+: m 4 4 4 4 4 4 4 4 4 4 4 4 4 |.4 4 (.4 5.+ @ + + + + + @ + @ + @ + ",
"+ +   + @ + + + . +   + +   + + @ @ @ z+3 4 4 4 4 4 4 4 4 4 4 4 4 4 4 4 4 4 4 4 . +   + +   + + @ @ @ + @ ",
"+ @ + + + + + + + + @ @ . + @ + +   @ @ 4 4 4 4 4 A+ .B++ + @ + + @ 4 4 4 4 4 4 + + @ @ . + @ + +   @ @ + ",
"+ @ + + + +   + + @ + + + + + + + @ @ + 4 4 4 4 4 C++ @   @ + @ + @ D+4 4 4 4 4 + @ + + + + + + + @ @ +   ",
"@ . @ + @ + + @ + + + + @ + + + @ + + + 4 4 4 4 4 G.+ . @ @ @ + @ . S 4 4 4 4 4.+ + + + @ + + + @ + + + + ",
"@ @ + @ + + @   + + + + + + @ + + + @ + 4 4 4 4 4 + + + + @   @ @ @ /.4 4 4 4 E++ + + + + + @ + + + @ + + ",
"@ + @ .   + + + + +   @ + + . + +   + + t.4 v+F+#++ @ + + + @ + @ + @ G+H+W + + + +   @ + + . + +   + + + ",
"+ + +   + + + + + + + + @ + @   + + @ + @ I+J++ + + + +   + + . + + + K++ L++ + + + + + @ + @   + + @ + @ ",
"@ + @ + @ @ + + +   @ + + @ + @ @ + + @ + M++   + + + @ + @ + + @ + @ + @ @ + + +   @ + + @ + @ @ + + @ + ",
"@ . + + @ +   @ + + + + + + @ + + + + +   + + + @ + + + + + + + @ . + + @ +   @ + + + + + + @ + + + + +   ",
"+   + @ + + + + @ + . +   + + . + + + + + @ + @ + + + @ + + + + +   + @ + + + + @ + . +   + + . + + + + + "};
