/* XPM */
static char * Main_character_So_Long_xpm[] = {
"53 64 262 2",
"  	c #402515",
". 	c #3F2A17",
"+ 	c #372111",
"@ 	c #2E1B0E",
"# 	c #658104",
"$ 	c #678404",
"% 	c #668404",
"& 	c #638004",
"* 	c #627E04",
"= 	c #698704",
"- 	c #678504",
"; 	c #668304",
"> 	c #ABA403",
", 	c #C9B703",
"' 	c #CDBD03",
") 	c #D6C204",
"! 	c #D8C002",
"~ 	c #698604",
"{ 	c #607C04",
"] 	c #7C8903",
"^ 	c #DCC503",
"/ 	c #F9DD03",
"( 	c #F9DD04",
"_ 	c #F9DE08",
": 	c #F9DE0C",
"< 	c #F9DE0A",
"[ 	c #F9DD06",
"} 	c #E4CB03",
"| 	c #DAC202",
"1 	c #B8AE04",
"2 	c #F5D903",
"3 	c #F9DE07",
"4 	c #F9DF10",
"5 	c #F9DF12",
"6 	c #F9DF11",
"7 	c #F3D805",
"8 	c #D5BD03",
"9 	c #5F7A03",
"0 	c #708704",
"a 	c #DBC703",
"b 	c #F9DE0D",
"c 	c #F9DE0B",
"d 	c #F0D506",
"e 	c #5C7703",
"f 	c #718804",
"g 	c #DFC803",
"h 	c #F9DE0E",
"i 	c #F7DD11",
"j 	c #627F03",
"k 	c #F0D503",
"l 	c #F8DC05",
"m 	c #F8DD0A",
"n 	c #F9DF0F",
"o 	c #EFD403",
"p 	c #577003",
"q 	c #CABA03",
"r 	c #F8DC04",
"s 	c #F8DC06",
"t 	c #F0D711",
"u 	c #AC9A09",
"v 	c #A69408",
"w 	c #D3BD0E",
"x 	c #E5CB03",
"y 	c #688504",
"z 	c #A7A103",
"A 	c #F8DD04",
"B 	c #F9DE0F",
"C 	c #B3A00A",
"D 	c #000000",
"E 	c #A79508",
"F 	c #F1D603",
"G 	c #7D6F06",
"H 	c #B4A10A",
"I 	c #F4DA0B",
"J 	c #C9BA03",
"K 	c #786B04",
"L 	c #373001",
"M 	c #F4DB11",
"N 	c #DBC40D",
"O 	c #F1D703",
"P 	c #F9DD05",
"Q 	c #E2CA0F",
"R 	c #F6DC12",
"S 	c #9D9F04",
"T 	c #978707",
"U 	c #DCC40F",
"V 	c #E2CA10",
"W 	c #5D7704",
"X 	c #688604",
"Y 	c #C0B203",
"Z 	c #F7DC04",
"` 	c #D0BA0D",
" .	c #901722",
"..	c #050100",
"+.	c #961924",
"@.	c #E0C90F",
"#.	c #E9D110",
"$.	c #648104",
"%.	c #E6CE03",
"&.	c #C99420",
"*.	c #E52B3B",
"=.	c #E42B3B",
"-.	c #F62F40",
";.	c #C93D31",
">.	c #F5DB12",
",.	c #657E04",
"'.	c #E1C513",
").	c #C88824",
"!.	c #C16C28",
"~.	c #D3B812",
"{.	c #969D04",
"].	c #F7DC05",
"^.	c #F8DD06",
"/.	c #B3AC03",
"(.	c #F8DD08",
"_.	c #EBD211",
":.	c #CFC103",
"<.	c #E4CC10",
"[.	c #D7C503",
"}.	c #F3D912",
"|.	c #F7DD12",
"1.	c #F5DB11",
"2.	c #F1D812",
"3.	c #597303",
"4.	c #E2CD03",
"5.	c #F8DC03",
"6.	c #F9DE09",
"7.	c #EBD310",
"8.	c #EAD210",
"9.	c #F3DA12",
"0.	c #E8D011",
"a.	c #EFD611",
"b.	c #EAD211",
"c.	c #627F04",
"d.	c #E5CF03",
"e.	c #E0C604",
"f.	c #F6DA03",
"g.	c #5E7A03",
"h.	c #ECD303",
"i.	c #D4BC07",
"j.	c #F9DF0E",
"k.	c #DBC40E",
"l.	c #658204",
"m.	c #EACF03",
"n.	c #E3CA06",
"o.	c #EED303",
"p.	c #E9D010",
"q.	c #C3AF0C",
"r.	c #DDC403",
"s.	c #DBC40F",
"t.	c #A3A404",
"u.	c #A5BA06",
"v.	c #D6D305",
"w.	c #E1CE04",
"x.	c #E7CF10",
"y.	c #E8D010",
"z.	c #DFC710",
"A.	c #5C7603",
"B.	c #C3B503",
"C.	c #BDC706",
"D.	c #C0E207",
"E.	c #BEE007",
"F.	c #AECE06",
"G.	c #95B004",
"H.	c #F3DA11",
"I.	c #5E7903",
"J.	c #F0D603",
"K.	c #F8DD0B",
"L.	c #D0C504",
"M.	c #C0DE07",
"N.	c #A9C705",
"O.	c #EDD411",
"P.	c #ADA804",
"Q.	c #F8DE0D",
"R.	c #E4CC08",
"S.	c #BBDA07",
"T.	c #BFDB06",
"U.	c #B2CB06",
"V.	c #DDC60F",
"W.	c #F1D811",
"X.	c #F0D604",
"Y.	c #B6CB06",
"Z.	c #AECC06",
"`.	c #E5CD10",
" +	c #F3D703",
".+	c #F9DD07",
"++	c #CAC705",
"@+	c #C0DC07",
"#+	c #ADC406",
"$+	c #E0C910",
"%+	c #E9D00B",
"&+	c #D9C807",
"*+	c #C0DF07",
"=+	c #C0E007",
"-+	c #B2D207",
";+	c #DAC30E",
">+	c #F8DD09",
",+	c #E4CB09",
"'+	c #B7D707",
")+	c #AAC006",
"!+	c #F8DD07",
"~+	c #F9DE10",
"{+	c #E3CB10",
"]+	c #EAD110",
"^+	c #ADC405",
"/+	c #BFD806",
"(+	c #C0DD07",
"_+	c #AAC806",
":+	c #F8DD05",
"<+	c #B0C606",
"[+	c #A4C106",
"}+	c #F8DE0B",
"|+	c #BCC805",
"1+	c #C0DB06",
"2+	c #BFD906",
"3+	c #F4DB12",
"4+	c #B9C008",
"5+	c #C8CA0A",
"6+	c #B2CD07",
"7+	c #F8DE0F",
"8+	c #CAC607",
"9+	c #A3BE06",
"0+	c #E6CE10",
"a+	c #CACA05",
"b+	c #C0E107",
"c+	c #CAC704",
"d+	c #BFDA07",
"e+	c #C6CA06",
"f+	c #ACCB06",
"g+	c #BACB06",
"h+	c #9EB605",
"i+	c #F8DE0C",
"j+	c #E8D007",
"k+	c #ADCC06",
"l+	c #E7CF11",
"m+	c #F8DE0E",
"n+	c #BBB705",
"o+	c #DCC50F",
"p+	c #ECD411",
"q+	c #C9BD06",
"r+	c #9BB605",
"s+	c #F7DD10",
"t+	c #F8DE12",
"u+	c #F7DE12",
"v+	c #DFC909",
"w+	c #8D9E03",
"x+	c #F3D806",
"y+	c #988602",
"z+	c #EDD203",
"A+	c #D2BB0D",
"B+	c #F2D911",
"C+	c #F4DA12",
"D+	c #E1C90F",
"E+	c #EED511",
"F+	c #E4CD10",
"G+	c #C8B30E",
"H+	c #D4BE0E",
"I+	c #CAB50D",
"J+	c #CDB70D",
"K+	c #CAB40D",
"L+	c #AE9C0A",
"M+	c #BCA80B",
"  .           +       +         +     @ .         +   .       +   .           +       +         +     @ . ",
"    @   +   +     + +   @ @       +               @ . @     +       @   +   +     + +   @ @       +       ",
"      +   + .           +   .   +   + . +       + +     +   # $ % &   +   + .           +   .   +   + . + ",
"  + .   +                     +   + @ + +   @ .           * = = = = =   +                     +   + @ + + ",
"  +       .     +       +   @           .     +   .       $ = = = = =     .     +       +   @           . ",
"+       +           . +         + .   +         +         = = = = = =   +           . +         + .   +   ",
"      +   +       +     +         + @         +   + @     - = ; > , ' ) ! +       +     +         + @     ",
"+ . +   +     . +   +       @   +           + ~ = = = =   { ] ^ / ( _ : < _ [ } |   +       @   +         ",
"      @     + +   @           + + +     . + @ = = = = = $ 1 2 3 4 5 5 5 5 5 5 6 : 7 8         + + +     . ",
"    +       + + +   . @     + . +           9 = = = = 0 a ( b 5 5 5 5 5 5 5 5 5 5 6 c d     + . +         ",
"      @       +           +   + +     @   + e = = = f g / h 5 5 5 5 5 5 5 5 5 5 5 5 5 5 i +   + +     @   ",
"      .     + . + @     @   +           +   j = = 0 g / [ 5 5 5 5 5 5 5 5 5 5 5 5 5 5 5 4 k +           + ",
"          + + + +           +     + .   +     = 0 g / / l l m b 4 5 5 5 5 5 5 5 5 5 5 5 n / o     + .   + ",
"  @     + @ + +   . +                         p q / / / r r r / r s m h 6 5 5 5 t u v w 5 3 / x           ",
"  .   +   .         +   +       @   y = = = = z / / / r r r l A A A r r r s B 5 C D + D E 6 ( ( @       @ ",
"+   +                 +     .     ; = = = = f F / / r A r r r r l r r r r r h 5 G D D D D H 5 4 I +     + ",
"          @         @   +   @   + = = = = = J / / / r r r r l A r r r r r r m 6 K D D   D L M 5 5 N +     ",
"          .       +     .     +   = = = = $ O / / l A r r A / A r l r / ( A P 6 K D D   D D Q 5 5 R     + ",
"      @ +       +   .   + . +     = = = = S / / ( A A r A / / / / A l r r A r b T D D D D D U 5 5 5 V     ",
"+   . +       +           + + +   W X = = Y / / ( ( r r / / / / / / / A r Z A b `  ...D D +.@.5 5 5 #.@   ",
"    + +     +     +   + +   +   +     $.; %./ / / / / / / / / / / / ( r A r l b 5 &.*.=.-.;.>.5 5 5 Q   @ ",
"  +   +   +           +   + .       & = ,./ / / / / / / / / / / / / / r A r A c 5 5 '.).!.~.5 5 5 5 Q   + ",
"+   + + +     .     .   @       + - = = {./ / / / / / / / / / / / / A A ].A ^.h 5 5 5 5 5 5 5 5 5 5 Q     ",
"  + + .     +   @ + +             = = = /./ / / / / / / / / / / / / r r r (.h 5 5 5 5 5 5 5 5 5 5 5 _.+   ",
".   + +               +     .     = = = :./ / / / / / / / / / / / / A r (.(.5 5 5 5 5 5 5 5 5 5 5 5 <.+   ",
"        +       +         +     + = = = [./ / / / / / / / / / / / / A ( < 6 5 5 5 }.|.5 5 5 5 1.2.5 + @ + ",
"    +       +             . +   3.= = = 4./ / / / / / / / / / 5./ [ l 6 _ P 6.h 5 5 7.8.9.5 0.a.5 b.  + + ",
"      .     @     + .           . c.= = d./ / / / / / / / / / e.f.< 6.5 b 6 : P [ 6 5 5 5 5 5 5 5 @ +   + ",
"+   +     . +   +                 g.3.; h./ ( / / / / / / / / c i.2 / h 6 _ j.b c 6 5 5 5 5 5 5 k..       ",
"  +     + +   +     + .       + l.= = = m./ / / ( / / / / / / 4 5 n.o._ 6 5 : n 5 5 5 5 5 5 5 p.+   +   + ",
".   q.      +             + . $.= = = ; / / / ( / / / / / / / 5 5 : o.r.2 3 b c c 6 5 5 5 1.s.  +     @ + ",
"    @.    @     .   @   +     e = = = t./ / ( / / / / / A l ^.5 5 n / F u.v.w.o 3 c 5 M x.        +   .   ",
"  . y.z.      +       +       A.= = = B./ / A A r ( / / r r (.5 5 6 / / C.D.D.E.F.G.  +         +     @ . ",
"    |.H.+   +     + +   @ @   I.= = l.J./ l ( A r r ( A A ( K.5 5 5 : P L.M.D.D.D.N.+   @ @       +       ",
"    O.5   + .           +   .   $.= P./ / A / ( r l r r A A Q.5 5 5 5 5 R.S.T.M.D.U.    +   .   +   + . + ",
"  + V.5 W.                    +   + X.( A ( / / r l A r ( r h 5 5 5 5 5 < Y.D.D.D.Z.          +   + @ + + ",
"  + `.5 5 5     +       +   @      +.+( r ( / / ( r A A / A 4 5 5 5 5 5 6 ++@+D.@+#+    +   @           . ",
"+   $+4 6 5 5       . +         %+4 < A r / / A r / / / / / 5 5 5 5 5 5 5 &+D.*+=+-+. +         + .   +   ",
"    ;+6 >+6 5 M ;++     +     #.5 5 6.r ( / / r / / / / / P 5 5 5 5 5 5 5 ,+'+D.=+)+    +         + @     ",
"+ . + 5 !+^.~+5 5 1.{+` ` ]+1.5 5 n ( A ( / A / / / / / / _ 5 5 5 5 5 5 5 c ^+/+(+_++       @   +         ",
"      5 !+r r c 5 5 5 5 5 5 5 6 : :+/ / / r ( / / / / / / < 5 5 5 5 5 5 5 h <+D.D.[+          + + +     . ",
"    + 5 .+l A A !+B B b B }+^.A r / / / / / / / / / / / / b 5 5 5 5 5 5 5 n |+1+2+  . @     + . +         ",
"      3+!+r r r r A r A A ].r A l / A / / / / / / / / / / n 5 5 5 5 5 5 5 4 4+D.D.        +   + +     @   ",
"      x.>+r r A A A / / / / ( ( A / r / / / / / / / / / / 4 5 5 5 5 5 5 5 4 5+D.6+@     @   +           + ",
"        7+A A r A r l / / / / / / A / / / / / / / / / / / 5 5 5 5 5 5 5 5 6 8+=+9+          +     + .   + ",
"  @     0+6.r r r r r / / / / / / / / / / / / / / / / / [ 5 5 5 5 5 5 5 5 6 a+b+  . +                     ",
"  .   +   1.(.r ( r r r / / / / / A / / / / / / / / / / _ 5 5 5 5 5 5 5 5 5 c+d+    +   +       @       @ ",
"+   +     x.5 !+/ / / / ( / / / / / / / / / / / / / / / < 5 5 5 5 5 5 5 5 4 e+f+      +     .     +     + ",
"          @ @.6 >+A / / / ( l / / / A l r A A r r r l r b 5 5 5 5 5 5 5 5 : g+h+    @   +   @   + . +     ",
"          .   ]+5 b r / / / / / A / ].r A r r s (.(.r i+B 5 5 5 5 5 5 5 5 j+k+    +     .     +         + ",
"      @ +       l+5 h m+_ / / / :+m A :+K.: i+6 5 6 h B 5 5 5 5 5 5 5 5 4 n+    +   .   + . +     +       ",
"+   . +       +   o+>.5 5 .+l r !+5 i 5 5 5 B 5 5 5 5 p+5 5 5 5 5 h 6 6 q+r+  +           + + +       @   ",
"    + +     +     +   0+5 s+!+r B 5 t+5 5 5 5 5 5 5 5 u+5 5 5 5 5 ( : v+w+  +     +   + +   +   +       @ ",
"  +   +   +           +   0.5 (.5 5 |.5 5 5 5 5 5 5 5 5 5 5 5 5 n / x+y+  +           +   + .           + ",
"+   + + +     .     .   @ 5 5 5 5 5 5 5 5 5 5 5 5 5 5 5 5 5 5 5 6 z++ + +     .     .   @       +   .     ",
"  + + .     +   @ + +     5 5 5 5 5 5 +     +     A+` B+5 5 5 5 5 + + .     +   @ + +                 +   ",
".   + +               +   5 5 5 5 5 C++   +   + . +   D+5 5 5 5 5   + +               +     .         +   ",
"        +       +         a.5 5 5 5 V @ +   + + + @   y.5 5 5 5 5       +       +         +     +   + @ + ",
"    +       +             E+5 5 5 5 _.+ + + . +         5 5 5 5 5   +       +             . +     +   + + ",
"      .     @     + .         #.F+G++   +   +       +   `.H+t+5 x.    .     @     + .           . @ +   + ",
"+   +     . +   +             I+  J+      @     .           K+L++   +     . +   +                 .       ",
"  +     + +   +     + .       + +   +   +     +   +       .   M+  +     + +   +     + .       + +   +   + ",
".           +             + .   +     @ +               +       .           +             + .   +     @ + ",
"          @     .   @   +         +   .           +       +   +           @     .   @   +         +   .   "};
