/* XPM */
static char * Character_blue_left_xpm[] = {
"54 64 466 2",
"  	c #70A853",
". 	c #63A04B",
"+ 	c #6EA752",
"@ 	c #70A852",
"# 	c #6EA551",
"$ 	c #6DA14B",
"% 	c #6FA752",
"& 	c #71A652",
"* 	c #7B934C",
"= 	c #73A351",
"- 	c #61994A",
"; 	c #77A561",
"> 	c #8F998C",
", 	c #7EA26F",
"' 	c #6C9C45",
") 	c #67860F",
"! 	c #688701",
"~ 	c #698702",
"{ 	c #688A20",
"] 	c #6DA34F",
"^ 	c #6FA451",
"/ 	c #79924A",
"( 	c #73994C",
"_ 	c #7F8848",
": 	c #73A251",
"< 	c #66A14E",
"[ 	c #6CA551",
"} 	c #6B9D48",
"| 	c #688702",
"1 	c #698701",
"2 	c #699132",
"3 	c #5A9146",
"4 	c #589045",
"5 	c #649B4C",
"6 	c #76934A",
"7 	c #6B9A42",
"8 	c #678A1F",
"9 	c #669F4C",
"0 	c #5D9A47",
"a 	c #69A14F",
"b 	c #699F54",
"c 	c #628E4B",
"d 	c #5D7900",
"e 	c #5E7A00",
"f 	c #688601",
"g 	c #678614",
"h 	c #68A04F",
"i 	c #68A04E",
"j 	c #6FA753",
"k 	c #588F45",
"l 	c #6DA350",
"m 	c #52898F",
"n 	c #4583C0",
"o 	c #2E7EDF",
"p 	c #1978EC",
"q 	c #167DF8",
"r 	c #177EFA",
"s 	c #177CF7",
"t 	c #1D78EB",
"u 	c #396FB5",
"v 	c #617D43",
"w 	c #648621",
"x 	c #6FA44E",
"y 	c #6EA149",
"z 	c #6EA14B",
"A 	c #6FA651",
"B 	c #6BA550",
"C 	c #437839",
"D 	c #49833C",
"E 	c #619B4A",
"F 	c #699E51",
"G 	c #528A9C",
"H 	c #247AE5",
"I 	c #167EFB",
"J 	c #177EFB",
"K 	c #1C78EC",
"L 	c #4F747A",
"M 	c #628321",
"N 	c #698D21",
"O 	c #68880B",
"P 	c #6E9F48",
"Q 	c #609883",
"R 	c #227BE8",
"S 	c #177FFB",
"T 	c #167CF7",
"U 	c #4074AC",
"V 	c #658300",
"W 	c #66871B",
"X 	c #5D9483",
"Y 	c #197CF3",
"Z 	c #187FFB",
"` 	c #3674C3",
" .	c #668504",
"..	c #6CA04D",
"+.	c #5A9082",
"@.	c #187BF2",
"#.	c #3571BD",
"$.	c #678500",
"%.	c #6B9C4A",
"&.	c #5E9582",
"*.	c #197BF2",
"=.	c #3D78C1",
"-.	c #668509",
";.	c #6AA04F",
">.	c #69A05D",
",.	c #237DEB",
"'.	c #157AF3",
").	c #0C55AD",
"!.	c #084590",
"~.	c #0B51A6",
"{.	c #177EF9",
"].	c #4776A1",
"^.	c #638D3A",
"/.	c #3980CB",
"(.	c #1474E8",
"_.	c #032A5B",
":.	c #000000",
"<.	c #D1D1D1",
"[.	c #ABABAB",
"}.	c #116AD5",
"|.	c #197CF5",
"1.	c #617D63",
"2.	c #67933C",
"3.	c #699338",
"4.	c #669239",
"5.	c #6B9B44",
"6.	c #74A251",
"7.	c #79964D",
"8.	c #528CA1",
"9.	c #167EFA",
"0.	c #053571",
"a.	c #5F5F5F",
"b.	c #4E4E4E",
"c.	c #F6F6F6",
"d.	c #AEAEAE",
"e.	c #0E5FC0",
"f.	c #3074D0",
"g.	c #678917",
"h.	c #6B9D47",
"i.	c #709F4E",
"j.	c #70A753",
"k.	c #7F7E43",
"l.	c #6DA551",
"m.	c #5A904D",
"n.	c #1A78EC",
"o.	c #116AD4",
"p.	c #F0F0F0",
"q.	c #CDCDCD",
"r.	c #090908",
"s.	c #547D88",
"t.	c #668510",
"u.	c #6FA652",
"v.	c #5F9649",
"w.	c #4C813E",
"x.	c #3878AD",
"y.	c #0D59B5",
"z.	c #FDFDFD",
"A.	c #C8C8C8",
"B.	c #1164C9",
"C.	c #3379D5",
"D.	c #56863C",
"E.	c #65A14C",
"F.	c #287CE3",
"G.	c #1B55AE",
"H.	c #130101",
"I.	c #6E6E6E",
"J.	c #363636",
"K.	c #1473E6",
"L.	c #157CF7",
"M.	c #628237",
"N.	c #619441",
"O.	c #568B44",
"P.	c #4E803F",
"Q.	c #6BA04F",
"R.	c #167DF9",
"S.	c #515CB9",
"T.	c #D12635",
"U.	c #951823",
"V.	c #711018",
"W.	c #A61C28",
"X.	c #764488",
"Y.	c #537E90",
"Z.	c #67880C",
"`.	c #5C9846",
" +	c #669F4D",
".+	c #659950",
"++	c #1474E6",
"@+	c #C52538",
"#+	c #F62E40",
"$+	c #DB293A",
"%+	c #8A478F",
"&+	c #1577EE",
"*+	c #417BBE",
"=+	c #67881E",
"-+	c #649D79",
";+	c #136DDA",
">+	c #0E65CC",
",+	c #1475EB",
"'+	c #2A79DF",
")+	c #668C2F",
"!+	c #769C4F",
"~+	c #7D8F4A",
"{+	c #669E72",
"]+	c #1B74E5",
"^+	c #68860B",
"/+	c #688F2D",
"(+	c #6DA550",
"_+	c #6DA451",
":+	c #207EF8",
"<+	c #668439",
"[+	c #689134",
"}+	c #3C85D5",
"|+	c #167CF8",
"1+	c #157BF5",
"2+	c #187EFA",
"3+	c #5B8178",
"4+	c #66850F",
"5+	c #5592A8",
"6+	c #1579F1",
"7+	c #1476EC",
"8+	c #1477ED",
"9+	c #1476ED",
"0+	c #1577ED",
"a+	c #5A8490",
"b+	c #688808",
"c+	c #6CA35E",
"d+	c #237EEE",
"e+	c #598490",
"f+	c #67870B",
"g+	c #4D8D9E",
"h+	c #1374E8",
"i+	c #558090",
"j+	c #648415",
"k+	c #4083C4",
"l+	c #1373E5",
"m+	c #5C8189",
"n+	c #648102",
"o+	c #63862B",
"p+	c #739D5B",
"q+	c #6FA653",
"r+	c #4889BB",
"s+	c #136FDF",
"t+	c #1579F2",
"u+	c #567F8F",
"v+	c #6A8735",
"w+	c #6DA351",
"x+	c #69A44E",
"y+	c #5E9787",
"z+	c #3280DF",
"A+	c #1B78EE",
"B+	c #5485C0",
"C+	c #136FDD",
"D+	c #538099",
"E+	c #689136",
"F+	c #649C7D",
"G+	c #59949C",
"H+	c #779A87",
"I+	c #88AC91",
"J+	c #96BA91",
"K+	c #A2C368",
"L+	c #B9D90E",
"M+	c #8CAE86",
"N+	c #487DB4",
"O+	c #67891F",
"P+	c #55897E",
"Q+	c #A3C21A",
"R+	c #C0E102",
"S+	c #C1E202",
"T+	c #C0DF02",
"U+	c #5286C8",
"V+	c #317ADA",
"W+	c #678818",
"X+	c #5A8F5E",
"Y+	c #3A7EC1",
"Z+	c #689F4E",
"`+	c #AFC903",
" @	c #C0DC02",
".@	c #C0DB02",
"+@	c #B2CD19",
"@@	c #167AF2",
"#@	c #62802D",
"$@	c #2D7AC7",
"%@	c #367BAF",
"&@	c #6DA651",
"*@	c #4F8540",
"=@	c #3B6E36",
"-@	c #6CA250",
";@	c #B5D502",
">@	c #C0E202",
",@	c #8BAF8E",
"'@	c #4D7B9E",
")@	c #68943C",
"!@	c #68A068",
"~@	c #177CF5",
"{@	c #5B9493",
"]@	c #6EA652",
"^@	c #5B9646",
"/@	c #699E4E",
"(@	c #BDD702",
"_@	c #C0DE02",
":@	c #5183C9",
"<@	c #297AE5",
"[@	c #689037",
"}@	c #699A46",
"|@	c #7C8545",
"1@	c #779C4F",
"2@	c #4186C9",
"3@	c #C0DA02",
"4@	c #AFCB07",
"5@	c #498BC0",
"6@	c #4E8AAA",
"7@	c #659D7A",
"8@	c #C1E302",
"9@	c #8DAE7C",
"0@	c #4A8BBD",
"a@	c #4D8CB6",
"b@	c #699E50",
"c@	c #6A9F4E",
"d@	c #BAD803",
"e@	c #789EAA",
"f@	c #4E8CAE",
"g@	c #679F71",
"h@	c #3C85D4",
"i@	c #6EA250",
"j@	c #B2D102",
"k@	c #5C8EC7",
"l@	c #3B81CB",
"m@	c #5F9474",
"n@	c #669A4B",
"o@	c #679B53",
"p@	c #599089",
"q@	c #3C80C5",
"r@	c #167BF6",
"s@	c #267AE9",
"t@	c #ADC619",
"u@	c #BFDB02",
"v@	c #2374DF",
"w@	c #197FFB",
"x@	c #3680DD",
"y@	c #A0C328",
"z@	c #B6D601",
"A@	c #1478EF",
"B@	c #4586CA",
"C@	c #779049",
"D@	c #8CB036",
"E@	c #AAC701",
"F@	c #538DB3",
"G@	c #7CA943",
"H@	c #A4BD2F",
"I@	c #6F797B",
"J@	c #74A75B",
"K@	c #78A564",
"L@	c #72A756",
"M@	c #6CA14F",
"N@	c #BBD702",
"O@	c #9EBC51",
"P@	c #3482DB",
"Q@	c #7E8747",
"R@	c #759A4D",
"S@	c #70A459",
"T@	c #80967C",
"U@	c #73A55C",
"V@	c #67A34D",
"W@	c #6CA550",
"X@	c #AAC61B",
"Y@	c #99B677",
"Z@	c #639B80",
"`@	c #71A150",
" #	c #97BB34",
".#	c #9CBE77",
"+#	c #478AC3",
"@#	c #77A245",
"##	c #ABC533",
"$#	c #247FEE",
"%#	c #6BA362",
"&#	c #A7C91F",
"*#	c #3A7CD8",
"=#	c #1F7DF1",
"-#	c #629C8B",
";#	c #77A647",
">#	c #849E82",
",#	c #277FEA",
"'#	c #649D7C",
")#	c #8BB137",
"!#	c #5882BF",
"~#	c #3482DD",
"{#	c #6AA165",
"]#	c #779B4B",
"^#	c #1B76E8",
"/#	c #1477EE",
"(#	c #478CC8",
"_#	c #6EA557",
":#	c #64A04B",
"<#	c #4D8592",
"[#	c #187DF7",
"}#	c #1475EA",
"|#	c #3B84D3",
"1#	c #619B89",
"2#	c #679F73",
"3#	c #2C7CDF",
"4#	c #1575EA",
"5#	c #1576EA",
"6#	c #187BF5",
"7#	c #63996C",
"8#	c #6CA451",
"9#	c #528742",
"0#	c #68A34E",
"a#	c #3682DA",
"b#	c #397EC9",
"c#	c #3D87D9",
"d#	c #3E89DA",
"e#	c #4285C4",
"f#	c #4180B7",
"g#	c #4386C4",
"h#	c #488BC2",
"i#	c #4B8AB6",
"j#	c #2E78D2",
"k#	c #6EA552",
"l#	c #4B853D",
"m#	c #649E4C",
"n#	c #71A855",
"o#	c #6AA44F",
"p#	c #679D65",
"q#	c #4187CB",
"r#	c #70A854",
"s#	c #789A6F",
"t#	c #72A659",
"u#	c #247CEA",
"v#	c #4186CC",
"w#	c #1D79EA",
"x#	c #5B9047",
"y#	c #488AC1",
"z#	c #4588C7",
"A#	c #2B7DE1",
"B#	c #46843A",
"C#	c #618CBA",
"D#	c #4885F0",
"E#	c #2979EB",
"F#	c #5B8BEC",
"G#	c #5386E7",
"H#	c #649B77",
"I#	c #5B90A8",
"J#	c #6E96EF",
"K#	c #217CF4",
"L#	c #247EF7",
"M#	c #7B9DEF",
"N#	c #498BBF",
"O#	c #B6C8B0",
"P#	c #ABB6DB",
"Q#	c #EBECEE",
"R#	c #ABB8DF",
"S#	c #B3C2B9",
"T#	c #94B487",
"U#	c #BCC7EC",
"V#	c #EBECF1",
"W#	c #A7B3DB",
"X#	c #E9EBE8",
"Y#	c #69A067",
"Z#	c #75A85D",
"`#	c #709298",
" $	c #B7C5B2",
".$	c #629266",
"+$	c #5F9683",
"@$	c #B5C9AE",
"#$	c #80A48B",
"$$	c #76A85E",
"                                                                                                            ",
"                                                                                                            ",
"          . +                   @         # $ $ %                                 & *             =         ",
"-         +                   ; > ,     ' ) ! ~ { ]                               ^ /           ( _       : ",
"                              + < [   } | 1 ! 1 ~ 2                     3 4 5                             6 ",
"                                      7 ! 1 1 ~ ! 8                     9 0 a                               ",
"                                  % b c d e f ~ ~ g                                                         ",
"    h i j k               l m n o p q r s t u v ~ w   x y z A                                               ",
"    B C D E           F G H I I I I J I I J J K L M N ! 1 ! O P                                             ",
"      B B +         Q R I I I S I I I I I I I S T U V ~ ~ ! ! W                                             ",
"                  X Y I Z J I I I I I I I I I I J J `  .! ! ! ! ..                                          ",
"                +.@.I Z J J I I I I I I I I I I I I J #.$.~ 1 ! %.                                          ",
"              &.*.I I I I I J I I I I I I I I I I I I J =. .! -.;.                                          ",
"            >.,.I I '.).!.~.{.I I I I I I I I I I I I I J ].~ ^.                                            ",
"          % /.I I (._.:.<.[.}.I I I I I I I I I I I I I J |.1.2.3.4.5.#             6.7.              =     ",
"          8.I I 9.0.a.b.c.d.e.I I I I I I I I I I I I I I J f.! ! ~ ~ g.h.          i.7.            j.k.=   ",
"    l.  m.n.I I o.:.p.q.r.:.e.J I I I I I I I I I I I I I J I s.1 ~ ~ ! t.u.                          j.    ",
"    v.w.x.I I I y.:.z.A.:.:.B.I I I I I I I I I I I I I I J I C.~ 1 ~ ! ~ D.                                ",
"      E.F.I I I G.H.I.J.:.:.K.I I I I I I I I I I I I I I I J L.M.1 ~ ~ ~ N.O.P.                            ",
"      Q.R.I J J S.T.U.V.W.X.J I I I I I I I I I I I I I I I J I Y.1 ! ! Z.9 `. +                            ",
"      .+I Z Z J ++@+#+$+%+&+S I I I I I I I I I I I I I I I I J *+1 ! =+}                                   ",
"      -+I S S J J ;+>+,+I J I I I I I I I I I I I I I I I I I J '+! )+%             !+~+                    ",
"      {+S I I I I J I S Z J I I I I I I I I I I I I I I I I I J ]+^+1 /+%           (+!+                    ",
"      _+*.I I I I I I J J I Z J I I I I I I I I I I I I I I I I :+<+1 ~ [+                                  ",
"        }+|+1+I I I I S 2+I I I I I I I I I I I I I I I I I I I I 3+1 1 4+                                  ",
"        5+J 6+7+8+7+9+8+0+J I I I I I I I I I I I I I I I I I I I a+! ! b+j.                                ",
"        c+d+I I J I I I I I Z I I I I I I I |+I I I I I I I I J I e+~ ! f+                                  ",
"          g+Z J I I I I I I I I I I I I I 6+h+I I I I I I I I S I i+~ 1 j+                                  ",
"            k+I I I I I I I I I I I I I 7+l+I I I I I I I I I I I m+n+o+p+                                  ",
"            q+r+q I I I I I I I I J s s+t+I I I I I I I I I I J I u+! ! v+w+                                ",
"  x+x+          y+z+I I I I J I A+B+C+I I I I I I I I I I I I I I D+! ! ! E+                        u.      ",
"  % %             j.F+G+H+I+J+K+L+M+I I I I I I I I I I I I I I I N+! ~ ~ O+                        P+      ",
"                        Q+R+S+S+T+U+I I I I I I I I I I I I I I I V+! ~ ~ W+                      X+Y+h     ",
"        Z+h             `+ @ @.@+@@@I I I I I I I I I I I I I I J '.#@! ~ =+                    B $@%@      ",
"    &@*@=@&@          -@;@S+>@>@,@I I I I I I I I I I I I I I I J I '@! ! )@    =               !@~@{@      ",
"    ]@^@^@+           /@(@S+S+_@:@J I I I I I I I I I I I I I I I I <@[@}@      |@1@            2@I F+      ",
"                      /@S+.@3@4@1+I I I I I I I I I I I I I I I I I I 5@        j.            6@I I 7@      ",
"                      /@ @S+8@9@J I I I I I I I I I I I I I I I I I J J 0@                % a@9.I I b@      ",
"                      c@d@ @.@e@I I I I I I I I I I I I I I I I I I I I J f@            g@h@I Z I T i@      ",
"                        j@S+S+k@I I I I I I I I I I I I I I I I I I I I I J l@m@n@o@p@q@r@I I I I s@*     7.",
"      + .               t@ @u@v@I I I I I I I I I I I I I I I I I I I I I I I Z I J w@S J I w@J S x@  * & i.",
"        +               y@>@z@A@I I I I I I I I I I I I I I I I I I I I I I I I I I I I I I I I Z B@  C@& : ",
"                        D@R+E@T I I I I I I I I I I I I I I I I I I I I I I I I I I I I I I I I Z F@      6 ",
"                        G@ @H@r I I I I I I I I I I I I I I I I I I I I I I I I I I I I I I I I I I@:       ",
"J@K@L@                  M@N@O@S I I I I I I I I I I I I I I I I I I I I I I I I I I I I I I I I P@  Q@1@R@_ ",
"S@T@U@              V@W@  X@Y@I I I I I I I I I I I I I I I I I I I I I I I I I I I I I I I I q Z@  `@  + = ",
"                    W@     #.#J I I I I I I I I I I I I I I I I I I I I I I I I I I I I I I J +#            ",
"                          @###9.I I I I I I I I I I I I I I I I I I I I I I I I I I I I I I $#%#            ",
"                          u.&#*#I I I I I I I I I I I I I I I I I I I I I I I I I I I I I =#-#              ",
"                            ;#>#9.I I I I I I I I I I I I I I I I I I I I I I I I I I J ,#'#                ",
"                              )#!#J I I I I I I I L.I I I I I I I I I I I I I I I I S ~#{#                  ",
"                          W@    ]#^#I I I I I I I /#I I I I I I I ,+I I I I I I J r (#_#                    ",
"                  +   x+% E.+   :#<#[#&+I I I I I /#I I I I I I I }#I I I I I q |#1#                        ",
"@                 . + x+B   W@V@+   2#3#J J I I I 4#I J J Z I I I 5#I I I Z 6#7#                h 8#9#      ",
"                    + 0#E.    W@+     a#I S J J J b#c#d#e#f#g#h#i#j#J I J I L.k#                4 l#m#      ",
"          n#        + o#W@      E.W@  a#I I I I 9.p#              q#I I I I L.k#          W@    + B %       ",
"        r#s#t#        + E.            a#I I I I u#j               v#I I I I w#    / *                   h x#",
"                            V@W@      a#I I I I y#                z#I I I I A#    ^ &                   W@B#",
"                      +     W@        C#D#E#F#G#H#                I#J#K#L#M#N#                              ",
"                      . +             O#P#Q#R#S#                  T#U#V#W#X#Y#                              ",
"                                      Z#`# $.$j           . +       +$@$#$$$          * &                   ",
"                                                          +                           C@&                   ",
"                                                                                          o#+               ",
"                                                                                                            "};
