/* XPM */
static char * Character_blue_xpm[] = {
"54 64 461 2",
"  	c #70A853",
". 	c #63A04B",
"+ 	c #6EA752",
"@ 	c #70A852",
"# 	c #6FA752",
"$ 	c #6DA14B",
"% 	c #6EA551",
"& 	c #71A652",
"* 	c #7B934C",
"= 	c #73A351",
"- 	c #61994A",
"; 	c #77A561",
"> 	c #8F998C",
", 	c #7EA26F",
"' 	c #6DA34F",
") 	c #688A20",
"! 	c #698702",
"~ 	c #688701",
"{ 	c #67860F",
"] 	c #6C9C45",
"^ 	c #6FA451",
"/ 	c #79924A",
"( 	c #73994C",
"_ 	c #7F8848",
": 	c #73A251",
"< 	c #66A14E",
"[ 	c #6CA551",
"} 	c #699132",
"| 	c #698701",
"1 	c #688702",
"2 	c #6B9D48",
"3 	c #5A9146",
"4 	c #589045",
"5 	c #649B4C",
"6 	c #76934A",
"7 	c #678A1F",
"8 	c #6B9A42",
"9 	c #669F4C",
"0 	c #5D9A47",
"a 	c #69A14F",
"b 	c #678614",
"c 	c #688601",
"d 	c #5E7A00",
"e 	c #5D7900",
"f 	c #628E4B",
"g 	c #699F54",
"h 	c #68A04F",
"i 	c #68A04E",
"j 	c #6FA753",
"k 	c #588F45",
"l 	c #6FA651",
"m 	c #6EA14B",
"n 	c #6EA149",
"o 	c #6FA44E",
"p 	c #648621",
"q 	c #617D43",
"r 	c #396FB5",
"s 	c #1D78EB",
"t 	c #177CF7",
"u 	c #177EFA",
"v 	c #167DF8",
"w 	c #1978EC",
"x 	c #2E7EDF",
"y 	c #4583C0",
"z 	c #52898F",
"A 	c #6DA350",
"B 	c #6BA550",
"C 	c #437839",
"D 	c #49833C",
"E 	c #619B4A",
"F 	c #739D55",
"G 	c #68880D",
"H 	c #698D21",
"I 	c #628321",
"J 	c #4F747A",
"K 	c #1C78EC",
"L 	c #177EFB",
"M 	c #167EFB",
"N 	c #247AE5",
"O 	c #528A9C",
"P 	c #699E51",
"Q 	c #65851F",
"R 	c #658300",
"S 	c #4074AC",
"T 	c #167CF7",
"U 	c #177FFB",
"V 	c #227BE8",
"W 	c #609883",
"X 	c #6CA04D",
"Y 	c #668504",
"Z 	c #3674C3",
"` 	c #187FFB",
" .	c #197CF3",
"..	c #5D9483",
"+.	c #6B9C4A",
"@.	c #678500",
"#.	c #3571BD",
"$.	c #187BF2",
"%.	c #5A9082",
"&.	c #6AA04F",
"*.	c #668509",
"=.	c #3D78C1",
"-.	c #197BF2",
";.	c #5E9582",
">.	c #638D3A",
",.	c #4776A1",
"'.	c #177EF9",
").	c #0B51A6",
"!.	c #084590",
"~.	c #0C55AD",
"{.	c #157AF3",
"].	c #237DEB",
"^.	c #69A05D",
"/.	c #6B9B44",
"(.	c #669239",
"_.	c #699338",
":.	c #67933C",
"<.	c #617D63",
"[.	c #197CF5",
"}.	c #116AD5",
"|.	c #ABABAB",
"1.	c #D1D1D1",
"2.	c #000000",
"3.	c #032A5B",
"4.	c #1474E8",
"5.	c #3980CB",
"6.	c #6B9D47",
"7.	c #678917",
"8.	c #3074D0",
"9.	c #0E5FC0",
"0.	c #AEAEAE",
"a.	c #F6F6F6",
"b.	c #4E4E4E",
"c.	c #5F5F5F",
"d.	c #053571",
"e.	c #167EFA",
"f.	c #528CA1",
"g.	c #70A753",
"h.	c #7F7E43",
"i.	c #6DA551",
"j.	c #69A44E",
"k.	c #6FA652",
"l.	c #668510",
"m.	c #547D88",
"n.	c #090908",
"o.	c #CDCDCD",
"p.	c #F0F0F0",
"q.	c #116AD4",
"r.	c #1A78EC",
"s.	c #689E54",
"t.	c #5F9649",
"u.	c #4C813E",
"v.	c #528841",
"w.	c #6B9D49",
"x.	c #3379D5",
"y.	c #1164C9",
"z.	c #C8C8C8",
"A.	c #FDFDFD",
"B.	c #0D59B5",
"C.	c #4C89B0",
"D.	c #65A14C",
"E.	c #628237",
"F.	c #157CF7",
"G.	c #1473E6",
"H.	c #363636",
"I.	c #6E6E6E",
"J.	c #130101",
"K.	c #1B55AE",
"L.	c #287CE3",
"M.	c #67880C",
"N.	c #537E90",
"O.	c #764488",
"P.	c #A61C28",
"Q.	c #711018",
"R.	c #951823",
"S.	c #D12635",
"T.	c #515CB9",
"U.	c #167DF9",
"V.	c #6BA04F",
"W.	c #67881E",
"X.	c #417BBE",
"Y.	c #1577EE",
"Z.	c #8A478F",
"`.	c #DB293A",
" +	c #F62E40",
".+	c #C52538",
"++	c #1474E6",
"@+	c #659950",
"#+	c #6CA550",
"$+	c #668C2F",
"%+	c #2A79DF",
"&+	c #1475EB",
"*+	c #0E65CC",
"=+	c #136DDA",
"-+	c #649D79",
";+	c #688F2D",
">+	c #68860B",
",+	c #1B74E5",
"'+	c #669E72",
")+	c #689134",
"!+	c #668439",
"~+	c #207EF8",
"{+	c #6DA451",
"]+	c #66850F",
"^+	c #5B8178",
"/+	c #187EFA",
"(+	c #157BF5",
"_+	c #167CF8",
":+	c #3C85D5",
"<+	c #688808",
"[+	c #5A8490",
"}+	c #1577ED",
"|+	c #1477ED",
"1+	c #1476ED",
"2+	c #1476EC",
"3+	c #1579F1",
"4+	c #5592A8",
"5+	c #67870B",
"6+	c #598490",
"7+	c #237EEE",
"8+	c #6CA35E",
"9+	c #648415",
"0+	c #558090",
"a+	c #1374E8",
"b+	c #5792A0",
"c+	c #67A34D",
"d+	c #6CA04C",
"e+	c #638729",
"f+	c #648102",
"g+	c #5C8189",
"h+	c #1373E5",
"i+	c #4083C4",
"j+	c #678B23",
"k+	c #567F8F",
"l+	c #1579F2",
"m+	c #136FDF",
"n+	c #4889BB",
"o+	c #6FA653",
"p+	c #6AA44F",
"q+	c #689136",
"r+	c #538099",
"s+	c #136FDD",
"t+	c #5485C0",
"u+	c #1B78EE",
"v+	c #3280DF",
"w+	c #5E9787",
"x+	c #55897E",
"y+	c #67891F",
"z+	c #487DB4",
"A+	c #8CAE86",
"B+	c #B9D90E",
"C+	c #A2C368",
"D+	c #96BA91",
"E+	c #88AC91",
"F+	c #779A88",
"G+	c #59949C",
"H+	c #649C7D",
"I+	c #4486C2",
"J+	c #669B63",
"K+	c #678818",
"L+	c #317ADA",
"M+	c #5286C8",
"N+	c #C0DF02",
"O+	c #C1E202",
"P+	c #C0E102",
"Q+	c #A3C21A",
"R+	c #639A4B",
"S+	c #5F9549",
"T+	c #518FB2",
"U+	c #3E84C8",
"V+	c #62802D",
"W+	c #167AF2",
"X+	c #B2CD19",
"Y+	c #C0DB02",
"Z+	c #C0DC02",
"`+	c #AFC903",
" @	c #4A863C",
".@	c #4B843D",
"+@	c #6DA651",
"@@	c #407B8E",
"#@	c #167CF5",
"$@	c #669E67",
"%@	c #68943C",
"&@	c #4D7B9E",
"*@	c #8BAF8E",
"=@	c #C0E202",
"-@	c #B5D502",
";@	c #6CA250",
">@	c #6EA652",
",@	c #518D78",
"'@	c #4085C9",
")@	c #669843",
"!@	c #689037",
"~@	c #297AE5",
"{@	c #5183C9",
"]@	c #C0DE02",
"^@	c #BDD702",
"/@	c #699E4E",
"(@	c #659D7A",
"_@	c #4E8AAA",
":@	c #498BC0",
"<@	c #AFCB07",
"[@	c #C0DA02",
"}@	c #699E50",
"|@	c #4D8CB6",
"1@	c #4A8BBD",
"2@	c #8DAE7C",
"3@	c #C1E302",
"4@	c #3C85D4",
"5@	c #679F71",
"6@	c #4E8CAE",
"7@	c #789EAA",
"8@	c #BAD803",
"9@	c #6A9F4E",
"0@	c #247CEA",
"a@	c #167BF6",
"b@	c #3C80C5",
"c@	c #599089",
"d@	c #679B53",
"e@	c #669A4B",
"f@	c #5F9474",
"g@	c #3B81CB",
"h@	c #5C8EC7",
"i@	c #B2D102",
"j@	c #779049",
"k@	c #79964D",
"l@	c #2F80DD",
"m@	c #197FFB",
"n@	c #2374DF",
"o@	c #BFDB02",
"p@	c #ADC619",
"q@	c #7A964D",
"r@	c #709F4E",
"s@	c #4288CA",
"t@	c #1478EF",
"u@	c #B6D601",
"v@	c #A0C328",
"w@	c #5190B4",
"x@	c #AAC701",
"y@	c #8DAE35",
"z@	c #808044",
"A@	c #629B82",
"B@	c #A4BD2F",
"C@	c #858F36",
"D@	c #71A250",
"E@	c #74A75B",
"F@	c #78A564",
"G@	c #72A756",
"H@	c #3482DB",
"I@	c #9EBC51",
"J@	c #BBD702",
"K@	c #6CA04F",
"L@	c #7E8747",
"M@	c #779C4F",
"N@	c #759A4D",
"O@	c #70A459",
"P@	c #80967C",
"Q@	c #73A55C",
"R@	c #639B80",
"S@	c #99B677",
"T@	c #AAC61B",
"U@	c #71A150",
"V@	c #478AC3",
"W@	c #9CBE77",
"X@	c #97BB34",
"Y@	c #6BA362",
"Z@	c #247FEE",
"`@	c #ABC533",
" #	c #77A245",
".#	c #629C8B",
"+#	c #1F7DF1",
"@#	c #3A7CD8",
"##	c #A7C91F",
"$#	c #649D7C",
"%#	c #277FEA",
"&#	c #849E82",
"*#	c #77A647",
"=#	c #6AA165",
"-#	c #3482DD",
";#	c #5882BF",
">#	c #8BB137",
",#	c #6EA557",
"'#	c #478CC8",
")#	c #1477EE",
"!#	c #1B76E8",
"~#	c #779B4B",
"{#	c #609A89",
"]#	c #3682D2",
"^#	c #1475EA",
"/#	c #187DF7",
"(#	c #508793",
"_#	c #60966A",
":#	c #187BF5",
"<#	c #1576EA",
"[#	c #1575EA",
"}#	c #2C7CDF",
"|#	c #679F73",
"1#	c #6CA451",
"2#	c #528742",
"3#	c #68A34E",
"4#	c #6EA552",
"5#	c #2E78D2",
"6#	c #4B8AB6",
"7#	c #488BC2",
"8#	c #4386C4",
"9#	c #4180B7",
"0#	c #4285C4",
"a#	c #3E89DA",
"b#	c #3D87D9",
"c#	c #397EC9",
"d#	c #3682DA",
"e#	c #72A250",
"f#	c #818145",
"g#	c #4B853D",
"h#	c #649E4C",
"i#	c #71A855",
"j#	c #4187CB",
"k#	c #679D65",
"l#	c #6FA852",
"m#	c #70A854",
"n#	c #789A6F",
"o#	c #72A659",
"p#	c #1D79EA",
"q#	c #4186CC",
"r#	c #5B9047",
"s#	c #2A7DE1",
"t#	c #4588C7",
"u#	c #488AC1",
"v#	c #46843A",
"w#	c #498BBF",
"x#	c #7B9DEF",
"y#	c #247EF7",
"z#	c #217CF4",
"A#	c #6E96EF",
"B#	c #5B90A8",
"C#	c #649B77",
"D#	c #5386E7",
"E#	c #5B8BEC",
"F#	c #2979EB",
"G#	c #4885F0",
"H#	c #618CBA",
"I#	c #69A067",
"J#	c #E9EBE8",
"K#	c #A7B3DB",
"L#	c #EBECF1",
"M#	c #BCC7EC",
"N#	c #94B487",
"O#	c #B3C2B9",
"P#	c #ABB8DF",
"Q#	c #EBECEE",
"R#	c #ABB6DB",
"S#	c #B6C8B0",
"T#	c #76A85E",
"U#	c #80A48B",
"V#	c #B5C9AE",
"W#	c #5F9683",
"X#	c #6DA652",
"Y#	c #629266",
"Z#	c #B7C5B2",
"`#	c #709298",
" $	c #75A85D",
"                                                                                                            ",
"                                                                                                            ",
"          . +                   @                         # $ $ %                 & *             =         ",
"-         +                   ; > ,                     ' ) ! ~ { ]               ^ /           ( _       : ",
"                              + < [                     } ! | ~ | 1 2   3 4 5                             6 ",
"                                                        7 ~ ! | | ~ 8   9 0 a                               ",
"                                                        b ! ! c d e f g #                                   ",
"    h i j k                                   l m n o   p ! q r s t u v w x y z A                           ",
"    B C D E                                 F G ~ | ~ H I J K L L M M L M M M M N O P                       ",
"      B B +                                 Q ~ ~ ! ! R S T U M M M M M M M U M M M V W                     ",
"                                          X ~ ~ ~ ~ Y Z L L M M M M M M M M M M L ` M  ...                  ",
"                                          +.~ | ! @.#.L M M M M M M M M M M M M L L ` M $.%.                ",
"                                          &.*.~ Y =.L M M M M M M M M M M M M L M M M M M -.;.              ",
"                                            >.! ,.L M M M M M M M M M M M M M '.).!.~.{.M M ].^.            ",
"                                    % /.(._.:.<.[.L M M M M M M M M M M M M M }.|.1.2.3.4.M M 5.#     =     ",
"                                  6.7.! ! ~ ~ 8.L M M M M M M M M M M M M M M 9.0.a.b.c.d.e.M M f.  g.h.=   ",
"    i.  -             j.j.      k.l.~ ! ! | m.M L M M M M M M M M M M M M M L 9.2.n.o.p.2.q.M M r.s.  g.    ",
"    t.u.v.            # #       w.! ~ ! | ! x.M L M M M M M M M M M M M M M M y.2.2.z.A.2.B.M M M C.        ",
"      D.+                       2 ! ! ! | E.F.L M M M M M M M M M M M M M M M G.2.2.H.I.J.K.M M M L.        ",
"                                A M.~ ~ | N.M L M M M M M M M M M M M M M M M L O.P.Q.R.S.T.L L M U.V.      ",
"          +                       2 W.~ | X.L M M M M M M M M M M M M M M M M U Y.Z.`. +.+++L ` ` M @+      ",
"        #+D.                        # $+~ %+L M M M M M M M M M M M M M M M M M L M &+*+=+L L U U M -+      ",
"                                  # ;+| >+,+L M M M M M M M M M M M M M M M M M L ` U M L M M M M U '+      ",
"                                  )+! | !+~+M M M M M M M M M M M M M M M M L ` M L L M M M M M M -.{+      ",
"                                  ]+| | ^+M M M M M M M M M M M M M M M M M M M M /+U M M M M (+_+:+        ",
"                                g.<+~ ~ [+M M M M M M M M M M M M M M M M M M M L }+|+1+2+|+2+3+L 4+        ",
"          +                       5+~ ! 6+M L M M M M M M M M _+M M M M M M M ` M M M M M L M M 7+8+        ",
"          . +               #+    9+| ! 0+M U M M M M M M M M a+3+M M M M M M M M M M M M M L ` b+          ",
"                    #+D.    c+#+  d+e+f+g+M M M M M M M M M M M h+2+M M M M M M M M M M M M M i+            ",
"                      +         A j+~ ~ k+M L M M M M M M M M M M l+m+t L M M M M M M M M v n+o+            ",
"  j.j.k.                p++     q+~ ~ ~ r+M M M M M M M M M M M M M M s+t+u+M L M M M M v+w+                ",
"  # # x+                p++     y+! ! ~ z+M M M M M M M M M M M M M M M A+B+C+D+E+F+G+H+g.                  ",
"      I+J+                      K+! ! ~ L+M M M M M M M M M M M M M M M M+N+O+O+P+Q+              R+S+h     ",
"      T+U+h                     W.! ~ V+{.L M M M M M M M M M M M M M M W+X+Y+Z+Z+`+            B  @.@      ",
"    +@@@#@$@                    %@~ ~ &@M L M M M M M M M M M M M M M M M *@=@=@O+-@;@                      ",
"    >@,@M '@                    c+)@!@~@M M M M M M M M M M M M M M M M L {@]@O+O+^@/@                      ",
"      (@M M _@                  #+  :@M M M M M M M M M M M M M M M M M M (+<@[@Y+O+/@                      ",
"      }@M M e.|@#                 1@L L M M M M M M M M M M M M M M M M M L 2@3@O+Z+/@                      ",
"      {+T M ` M 4@5@            6@L M M M M M M M M M M M M M M M M M M M M 7@Y+Z+8@9@            & &       ",
"        0@M M M M a@b@c@d@e@f@g@L M M M M M M M M M M M M M M M M M M M M M h@O+O+i@              j@*     k@",
"      + l@U L m@M L U m@L M ` M M M M M M M M M M M M M M M M M M M M M M M n@o@Z+p@            q@:   * & r@",
"        s@` M M M M M M M M M M M M M M M M M M M M M M M M M M M M M M M M t@u@=@v@            6 :   j@& : ",
"        w@` M M M M M M M M M M M M M M M M M M M M M M M M M M M M M M M M T x@P+y@        #+z@= =       6 ",
"        A@M M M M M M M M M M M M M M M M M M M M M M M M M M M M M M M M M u B@Z+C@=         D@  h.:       ",
"E@F@G@    H@M M M M M M M M M M M M M M M M M M M M M M M M M M M M M M M M U I@J@K@+               L@M@N@_ ",
"O@P@Q@    R@v M M M M M M M M M M M M M M M M M M M M M M M M M M M M M M M M S@T@  +               U@  + = ",
"            V@L M M M M M M M M M M M M M M M M M M M M M M M M M M M M M M L W@X@                          ",
"            Y@Z@M M M M M M M M M M M M M M M M M M M M M M M M M M M M M M e.`@ #                          ",
"              .#+#M M M M M M M M M M M M M M M M M M M M M M M M M M M M M @###k.                          ",
"                $#%#L M M M M M M M M M M M M M M M M M M M M M M M M M M e.&#*#                            ",
"                  =#-#U M M M M M M M M M M M M M M M M F.M M M M M M M L ;#>#                              ",
"                    ,#'#u L M M M M M M &+M M M M M M M )#M M M M M M M !#~#                                ",
"                  +   j.{#]#v M M M M M ^#M M M M M M M )#M M M M M Y./#(##                                 ",
"@                 . + j.B   _#:#` M M M <#M M M ` L L M [#M M M L L }#|#                        h 1#2#      ",
"                    + 3#D.  4#F.M L M L 5#6#7#8#9#0#a#b#c#L L L U M d#e#f#                      4 g#h#      ",
"          i#        + p+#+  4#F.M M M M j#              k#e.M M M M d#l#e#                #+    + B #       ",
"        m#n#o#        + D.    p#M M M M q#              j 0@M M M M d#            / *                   h r#",
"                            c+s#M M M M t#                u#M M M M d#            ^ &                   #+v#",
"                      +     #+w#x#y#z#A#B#                C#D#E#F#G#H#                                      ",
"                      . +     I#J#K#L#M#N#                  O#P#Q#R#S#                                      ",
"                                T#U#V#W#                  . X#Y#Z#`# $                * &                   ",
"                                                          +                           j@&                   ",
"                                                                                          p++               ",
"                                                                                                            "};
