/* XPM */
static char * Character_blue_left_xpm[] = {
"54 64 688 2",
"  	c #3E2715",
". 	c #392212",
"+ 	c #3D2313",
"@ 	c #3D2414",
"# 	c #3B2313",
"$ 	c #3E2414",
"% 	c #3F2515",
"& 	c #3E2415",
"* 	c #3C2313",
"= 	c #3B2212",
"- 	c #402515",
"; 	c #3E2515",
"> 	c #3F2716",
", 	c #3D2615",
"' 	c #402615",
") 	c #382213",
"! 	c #3C2314",
"~ 	c #3F2514",
"{ 	c #3E2514",
"] 	c #382112",
"^ 	c #372112",
"/ 	c #3F2414",
"( 	c #3C2413",
"_ 	c #3C2414",
": 	c #3A2213",
"< 	c #3A2313",
"[ 	c #3A2414",
"} 	c #382212",
"| 	c #3D2514",
"1 	c #372011",
"2 	c #3A2212",
"3 	c #3B2513",
"4 	c #3A2312",
"5 	c #3E2615",
"6 	c #403D0F",
"7 	c #484E0E",
"8 	c #4B4E0F",
"9 	c #423911",
"0 	c #3B2514",
"a 	c #3B2213",
"b 	c #3F2615",
"c 	c #3D2413",
"d 	c #3D2515",
"e 	c #3A2413",
"f 	c #392313",
"g 	c #382111",
"h 	c #3D2813",
"i 	c #505A0E",
"j 	c #5F7806",
"k 	c #647F03",
"l 	c #657F04",
"m 	c #5D7208",
"n 	c #474012",
"o 	c #3C2514",
"p 	c #3B2314",
"q 	c #3B2413",
"r 	c #392213",
"s 	c #382012",
"t 	c #3D2314",
"u 	c #402616",
"v 	c #4C510E",
"w 	c #637F04",
"x 	c #688701",
"y 	c #698702",
"z 	c #688702",
"A 	c #56650C",
"B 	c #422F14",
"C 	c #402716",
"D 	c #525C0D",
"E 	c #668302",
"F 	c #698701",
"G 	c #5E750B",
"H 	c #433614",
"I 	c #392113",
"J 	c #3D2415",
"K 	c #3A272E",
"L 	c #393253",
"M 	c #383760",
"N 	c #383B6E",
"O 	c #4A616F",
"P 	c #5B7D68",
"Q 	c #5E815C",
"R 	c #64822B",
"S 	c #688600",
"T 	c #5F7807",
"U 	c #3F3512",
"V 	c #3F2415",
"W 	c #37365B",
"X 	c #334F96",
"Y 	c #2A5CB5",
"Z 	c #2468CF",
"` 	c #1E6DDA",
" .	c #1A73E6",
"..	c #1B76E8",
"+.	c #1973E2",
"@.	c #2573D8",
"#.	c #4276B1",
"$.	c #5B7D70",
"%.	c #678500",
"&.	c #596D07",
"*.	c #464111",
"=.	c #4B4B10",
"-.	c #4F540F",
";.	c #4C510F",
">.	c #454210",
",.	c #3E2914",
"'.	c #343256",
").	c #2C56A7",
"!.	c #1F6CD6",
"~.	c #1679F2",
"{.	c #167EFB",
"].	c #177FFC",
"^.	c #167FFC",
"/.	c #197EFA",
"(.	c #3079DE",
"_.	c #4E7892",
":.	c #5B7327",
"<.	c #5E7506",
"[.	c #637D04",
"}.	c #668303",
"|.	c #658103",
"1.	c #607A04",
"2.	c #494E0F",
"3.	c #402915",
"4.	c #3A2417",
"5.	c #324787",
"6.	c #1F70DF",
"7.	c #187AF3",
"8.	c #167EFA",
"9.	c #177FFB",
"0.	c #157DFB",
"a.	c #217BEE",
"b.	c #4277B3",
"c.	c #63823C",
"d.	c #5D7505",
"e.	c #422F13",
"f.	c #392312",
"g.	c #3A2514",
"h.	c #3B2414",
"i.	c #382211",
"j.	c #3C251E",
"k.	c #304889",
"l.	c #1C76EB",
"m.	c #1B7DF7",
"n.	c #3B76BF",
"o.	c #64843D",
"p.	c #678403",
"q.	c #413712",
"r.	c #3A2526",
"s.	c #2D468A",
"t.	c #1B74E8",
"u.	c #177EFB",
"v.	c #1A7DF8",
"w.	c #3A74BB",
"x.	c #638443",
"y.	c #698700",
"z.	c #688604",
"A.	c #403A13",
"B.	c #392112",
"C.	c #3B2624",
"D.	c #334788",
"E.	c #1C74E5",
"F.	c #167DF9",
"G.	c #137AF4",
"H.	c #147CF7",
"I.	c #1B7EF6",
"J.	c #417ABB",
"K.	c #628347",
"L.	c #617C05",
"M.	c #3E3212",
"N.	c #372111",
"O.	c #3F2416",
"P.	c #393863",
"Q.	c #206EDC",
"R.	c #167EFC",
"S.	c #1373E6",
"T.	c #0C58B3",
"U.	c #2F59A4",
"V.	c #3A6ABF",
"W.	c #1377EF",
"X.	c #167FFB",
"Y.	c #1C7CF3",
"Z.	c #497BAA",
"`.	c #63822C",
" +	c #4D570C",
".+	c #362112",
"++	c #3C2C3E",
"@+	c #2763C4",
"#+	c #126DDB",
"$+	c #033C7F",
"%+	c #4A4C50",
"&+	c #C3C3C2",
"*+	c #A7A8AC",
"=+	c #0067D3",
"-+	c #157EFB",
";+	c #2A7CE6",
">+	c #567682",
",+	c #566612",
"'+	c #55650B",
")+	c #54630B",
"!+	c #50580F",
"~+	c #413612",
"{+	c #3D2614",
"]+	c #3C241E",
"^+	c #2D4F9B",
"/+	c #187CF6",
"(+	c #1578EF",
"_+	c #0C4288",
":+	c #6C6D6F",
"<+	c #818181",
"[+	c #DCDCDC",
"}+	c #B0AFAC",
"|+	c #005EC3",
"1+	c #3B76C6",
"2+	c #628149",
"3+	c #678502",
"4+	c #617B05",
"5+	c #494C0F",
"6+	c #3F2815",
"7+	c #3C2614",
"8+	c #363150",
"9+	c #1974E6",
"0+	c #0D63C9",
"a+	c #3B445D",
"b+	c #E7E7E7",
"c+	c #D1D1D1",
"d+	c #2E2E2E",
"e+	c #27220A",
"f+	c #0F62C5",
"g+	c #177CF6",
"h+	c #567F8A",
"i+	c #688717",
"j+	c #5F7805",
"k+	c #413412",
"l+	c #295AAF",
"m+	c #177CF7",
"n+	c #167FFD",
"o+	c #0057B2",
"p+	c #555659",
"q+	c #E6E6E6",
"r+	c #C5C5C5",
"s+	c #000000",
"t+	c #1167D0",
"u+	c #157EFC",
"v+	c #397ACD",
"w+	c #668638",
"x+	c #688602",
"y+	c #433D11",
"z+	c #3B2935",
"A+	c #2071E0",
"B+	c #127FFD",
"C+	c #4956AE",
"D+	c #361711",
"E+	c #898C8C",
"F+	c #5F6362",
"G+	c #1A2552",
"H+	c #126EDD",
"I+	c #1F7BEF",
"J+	c #618257",
"K+	c #698703",
"L+	c #688601",
"M+	c #433F11",
"N+	c #3F2715",
"O+	c #3A2113",
"P+	c #373965",
"Q+	c #1E75EA",
"R+	c #0A7FFC",
"S+	c #735BB6",
"T+	c #B92338",
"U+	c #A60C1E",
"V+	c #940F1D",
"W+	c #A5191F",
"X+	c #6F4FA0",
"Y+	c #0A79F1",
"Z+	c #197EF9",
"`+	c #537E92",
" @	c #69870A",
".@	c #627C04",
"+@	c #3F2614",
"@@	c #362011",
"#@	c #3C2214",
"$@	c #343D71",
"%@	c #1B76EB",
"&@	c #187FFB",
"*@	c #147FFC",
"=@	c #386DD9",
"-@	c #BD3A6C",
";@	c #DF2C42",
">@	c #C42D4E",
",@	c #874F9E",
"'@	c #3B74E7",
")@	c #187EFA",
"!@	c #427BBF",
"~@	c #688711",
"{@	c #688501",
"]@	c #484A0F",
"^@	c #3D2814",
"/@	c #344787",
"(@	c #1C77ED",
"_@	c #177DF9",
":@	c #376CD7",
"<@	c #4565CD",
"[@	c #3D74E7",
"}@	c #267CF7",
"|@	c #2D7BDF",
"1@	c #658417",
"2@	c #596B0A",
"3@	c #453B13",
"4@	c #3F2714",
"5@	c #354583",
"6@	c #1C77EE",
"7@	c #257AE8",
"8@	c #678433",
"9@	c #423712",
"0@	c #3A3457",
"a@	c #1F75E8",
"b@	c #267DEF",
"c@	c #67876C",
"d@	c #54620D",
"e@	c #422D14",
"f@	c #246CD5",
"g@	c #177DF7",
"h@	c #1579F2",
"i@	c #167DFA",
"j@	c #217EF4",
"k@	c #578189",
"l@	c #617A06",
"m@	c #443514",
"n@	c #2D56A9",
"o@	c #157BF5",
"p@	c #1477EE",
"q@	c #1479F0",
"r@	c #1478EF",
"s@	c #1577EE",
"t@	c #167AF2",
"u@	c #217EF5",
"v@	c #56839C",
"w@	c #647F06",
"x@	c #433713",
"y@	c #392111",
"z@	c #393352",
"A@	c #1D75E8",
"B@	c #207EF5",
"C@	c #56849E",
"D@	c #637C06",
"E@	c #443714",
"F@	c #382313",
"G@	c #3E2820",
"H@	c #32509B",
"I@	c #197BF5",
"J@	c #157AF2",
"K@	c #1474E8",
"L@	c #1F7EF5",
"M@	c #527F9E",
"N@	c #5C7207",
"O@	c #433315",
"P@	c #3F2616",
"Q@	c #3C2213",
"R@	c #3D2B3A",
"S@	c #2960BE",
"T@	c #187CF5",
"U@	c #167CF8",
"V@	c #567F9B",
"W@	c #5E7705",
"X@	c #4A4F10",
"Y@	c #402714",
"Z@	c #3C304B",
"`@	c #2C5CB4",
" #	c #1A77EE",
".#	c #147EFC",
"+#	c #0F7CFA",
"@#	c #1578F0",
"##	c #1475EA",
"$#	c #547F9C",
"%#	c #627E03",
"&#	c #5A7008",
"*#	c #413811",
"=#	c #3B2B3A",
"-#	c #34498C",
";#	c #2469D2",
">#	c #177BF6",
",#	c #147DFA",
"'#	c #137EFC",
")#	c #127EFC",
"!#	c #137CF7",
"~#	c #3C80E0",
"{#	c #6090C4",
"]#	c #106FDF",
"^#	c #157BF6",
"/#	c #1E7EF6",
"(#	c #4E7EA8",
"_#	c #53600C",
":#	c #3F2915",
"<#	c #3C2520",
"[#	c #3A314D",
"}#	c #343B6D",
"|#	c #3E568D",
"1#	c #749489",
"2#	c #92B590",
"3#	c #98BC8C",
"4#	c #A5C76C",
"5#	c #B1D457",
"6#	c #8AAE91",
"7#	c #0679F6",
"8#	c #1B7EF8",
"9#	c #457DBE",
"0#	c #412C15",
"a#	c #3E2B3A",
"b#	c #363967",
"c#	c #3E2828",
"d#	c #3B2315",
"e#	c #4D481E",
"f#	c #99B217",
"g#	c #BFE116",
"h#	c #BFE114",
"i#	c #C0E106",
"j#	c #B9DA3A",
"k#	c #6794BF",
"l#	c #107DFC",
"m#	c #177EFA",
"n#	c #357DDB",
"o#	c #668408",
"p#	c #637D05",
"q#	c #3E251A",
"r#	c #383D6F",
"s#	c #2A5AAF",
"t#	c #3E2616",
"u#	c #524E11",
"v#	c #A4BE05",
"w#	c #C0E002",
"x#	c #C0DF02",
"y#	c #C0DE03",
"z#	c #AFCC56",
"A#	c #307CE5",
"B#	c #2A7DE9",
"C#	c #5B7F6D",
"D#	c #5D7507",
"E#	c #3F2B14",
"F#	c #3C2A33",
"G#	c #295BB3",
"H#	c #2A5DB8",
"I#	c #585612",
"J#	c #ABC704",
"K#	c #C1DE02",
"L#	c #C0DD02",
"M#	c #C0DF12",
"N#	c #8EB18C",
"O#	c #1C7CF5",
"P#	c #4A7DAD",
"Q#	c #648102",
"R#	c #505B0D",
"S#	c #363A69",
"T#	c #1D72E4",
"U#	c #2F53A0",
"V#	c #5C5913",
"W#	c #B1CA03",
"X#	c #C1E002",
"Y#	c #C0E202",
"Z#	c #BDDB24",
"`#	c #5B8BC8",
" $	c #337ADA",
".$	c #50685F",
"+$	c #4B4F0F",
"@$	c #3E2B12",
"#$	c #3D282C",
"$$	c #2664C6",
"%$	c #1C78EF",
"&$	c #334B8D",
"*$	c #3E2614",
"=$	c #5D5E13",
"-$	c #B4D203",
";$	c #C0DE02",
">$	c #C0DD01",
",$	c #AAC741",
"'$	c #3382EE",
")$	c #1A7DF7",
"!$	c #2E61BB",
"~$	c #3C3046",
"{$	c #3F2827",
"]$	c #2C5AB1",
"^$	c #197AF4",
"/$	c #354787",
"($	c #5C5A13",
"_$	c #B4CE03",
":$	c #C1E102",
"<$	c #C1E100",
"[$	c #88AA88",
"}$	c #2680F6",
"|$	c #187CF7",
"1$	c #2B5BB2",
"2$	c #3C2D42",
"3$	c #3F251C",
"4$	c #3D2E43",
"5$	c #2D5DB6",
"6$	c #1A7AF2",
"7$	c #1D76EB",
"8$	c #373D6E",
"9$	c #585912",
"0$	c #AFCA04",
"a$	c #C1DE00",
"b$	c #739BB1",
"c$	c #1F7FF8",
"d$	c #2F56A7",
"e$	c #3B304A",
"f$	c #3A2B3A",
"g$	c #364179",
"h$	c #2865C8",
"i$	c #1E76EA",
"j$	c #383964",
"k$	c #535011",
"l$	c #A7C105",
"m$	c #C1E302",
"n$	c #BFE000",
"o$	c #5B8FCB",
"p$	c #187EF9",
"q$	c #177BF5",
"r$	c #2762C1",
"s$	c #33498A",
"t$	c #36437D",
"u$	c #304C93",
"v$	c #265FBC",
"w$	c #1F74E6",
"x$	c #392A3B",
"y$	c #4E4A11",
"z$	c #A0B506",
"A$	c #B5D100",
"B$	c #4D8BE1",
"C$	c #1977ED",
"D$	c #1D73E5",
"E$	c #1D74E6",
"F$	c #1979F0",
"G$	c #1F6FDD",
"H$	c #4A4013",
"I$	c #93A908",
"J$	c #AAC844",
"K$	c #468AEA",
"L$	c #2467CD",
"M$	c #3B2312",
"N$	c #3E2913",
"O$	c #7E8E0C",
"P$	c #C0E000",
"Q$	c #A0C05A",
"R$	c #3F87EB",
"S$	c #2A5BB5",
"T$	c #707A0E",
"U$	c #BAD600",
"V$	c #99B670",
"W$	c #3984ED",
"X$	c #1A7AF3",
"Y$	c #344684",
"Z$	c #616510",
"`$	c #ADC903",
" %	c #94B580",
".%	c #3583EF",
"+%	c #236CD6",
"@%	c #3E2B34",
"#%	c #4F4712",
"$%	c #A1B805",
"%%	c #91B28D",
"&%	c #3282F0",
"*%	c #334480",
"=%	c #3E2519",
"-%	c #91A20A",
";%	c #91B18D",
">%	c #3583F0",
",%	c #2B5DB7",
"'%	c #3C2A35",
")%	c #77830F",
"!%	c #94B370",
"~%	c #4188ED",
"{%	c #2170DE",
"]%	c #393C6C",
"^%	c #3F2519",
"/%	c #4C4413",
"(%	c #95AD0C",
"_%	c #538BD9",
":%	c #1F74E7",
"<%	c #344A8E",
"[%	c #3A241D",
"}%	c #6E760F",
"|%	c #799592",
"1%	c #267EF2",
"2%	c #364888",
"3%	c #788827",
"4%	c #5B88BE",
"5%	c #157CF7",
"6%	c #2669CF",
"7%	c #353E72",
"8%	c #372212",
"9%	c #483A16",
"0%	c #617160",
"a%	c #2573DC",
"b%	c #1578F1",
"c%	c #197AF2",
"d%	c #2D60BB",
"e%	c #3A375E",
"f%	c #413225",
"g%	c #2E4D91",
"h%	c #1874E7",
"i%	c #167BF6",
"j%	c #1477ED",
"k%	c #2467CA",
"l%	c #334684",
"m%	c #3C2D40",
"n%	c #392525",
"o%	c #333B6D",
"p%	c #1578EE",
"q%	c #177DF8",
"r%	c #177CF8",
"s%	c #1576EC",
"t%	c #1C78EE",
"u%	c #33427A",
"v%	c #3A2937",
"w%	c #3B251F",
"x%	c #372B3F",
"y%	c #246AD2",
"z%	c #1678EF",
"A%	c #1F69D2",
"B%	c #236EDB",
"C%	c #246EDB",
"D%	c #2366CA",
"E%	c #2360BD",
"F%	c #2465C8",
"G%	c #2763C5",
"H%	c #2860BE",
"I%	c #1E69D2",
"J%	c #1E77EC",
"K%	c #38365C",
"L%	c #3A2112",
"M%	c #362B3E",
"N%	c #374077",
"O%	c #3D2931",
"P%	c #3A3559",
"Q%	c #3E2314",
"R%	c #382B3E",
"S%	c #266AD2",
"T%	c #236DD7",
"U%	c #3B3860",
"V%	c #2660BD",
"W%	c #1F76E9",
"X%	c #352010",
"Y%	c #3B2C3D",
"Z%	c #276AD2",
"`%	c #2B5DB8",
" &	c #3E282A",
".&	c #372836",
"+&	c #265DB8",
"@&	c #187EFB",
"#&	c #1F71E2",
"$&	c #3B231E",
"%&	c #6379B7",
"&&	c #4583EF",
"*&	c #4684EE",
"=&	c #4F86ED",
"-&	c #6587D7",
";&	c #334789",
">&	c #37252B",
",&	c #4D619C",
"'&	c #6B94EE",
")&	c #3A83F6",
"!&	c #4887F5",
"~&	c #779AED",
"{&	c #2E62BE",
"]&	c #B3B1B0",
"^&	c #A1AED4",
"/&	c #DEE1EA",
"(&	c #95A3D0",
"_&	c #B3B4BA",
":&	c #3C2331",
"<&	c #3B2417",
"[&	c #7F7A79",
"}&	c #C4CBE1",
"|&	c #C4CBE3",
"1&	c #B5BFE0",
"2&	c #D2D3DA",
"3&	c #48445F",
"4&	c #3C2615",
"5&	c #6E6561",
"6&	c #6E7699",
"7&	c #B3B1B5",
"8&	c #56566F",
"9&	c #53453D",
"0&	c #443231",
"a&	c #6A6C82",
"b&	c #A3A3AD",
"c&	c #818398",
"d&	c #635A5C",
"e&	c #422919",
"  . + @ # $ % & * = @ % $ # $ - - % ; > ; * @ % %   , # $ - - ' , ) ! @ * $ % $ * # $ % ; * $ - - % ; > ; * ",
"~ @ @ * @ % { ] ^ * * * / $ ( _ * * : ; % * # $ @ < [ } * - - - ; | @ * @ % & ] 1 * * * ; ; ( @ + * 2 { - { ",
"( 3 4 # * { 5 _ # $ $ % % ' , ( * * @ { $ 6 7 8 9 + $ = # ; & $ _ 0 : a * ; b c 2 $ / / - % d ( * * @ ~ - 5 ",
"e f g : @ * @ $ $ % - - % - b ; _ { 5 h i j k l m n - ~ ; o p @ q r s a @ * @ % $ % - - / - % ; _ | 5 _ % { ",
"5 @ @ ; / t : * * $ ' % @ % u > { % ; v w x x y z A B C { * @ b 5 @ @ ; % _ : t * { b % @ % ' > ; % ; * $ $ ",
"% _ @ d ( { & % @ ( 5 % % - - ; * $ - D E F F y F G H @ * @ % - % @ @ d _ $ % % @ ( 5 % % - - ; * $ - $ a < ",
"- @ I # @ % / $ + $ J * @ % / K L M N O P Q R S F T U : + * $ - - t . < @ % V $ @ $ @ ( $ - ; * ! * { % @ . ",
"- % @ * # * : @ / $ ! a q W X Y Z `  ...+.@.#.$.%.&.*.=.-.;.>.,.- % @ # # * a $ % / * a ( , ; $ * a ( 5 _ # ",
"b ' / = . < ( % % $ _ '.).!.~.{.{.{.{.{.].^./.(._.:.<.[.}.|.1.2.3.u / = . < * V % & @ 2 < 4 < $ t 2 * % ; * ",
"% $ % @ . 0 ( $ @ 4.5.6.7.8.9.{.{.{.{.{.{.{.{.0.a.b.c.y y x F d.e.$ % @ f.g.h.$ $ < , @ : i.2 % & a * % - @ ",
"! : $ $ = # _ * j.k.l.8.9.{.{.{.{.{.{.{.{.{.{.{.{.m.n.o.F x x p.q.: $ $ # # ( * t $ % @ * < @ - & : @ - % _ ",
"< @ % % $ $ # r.s.t.{.9.9.u.{.{.{.{.{.{.{.{.{.{.{.{.v.w.x.y.x z.A._ % % ; $ # # : $ $ B.. q # $ % 5 % - - { ",
"_ % b @ % % C.D.E.{.{.F.G.H.u.{.{.{.{.{.{.{.{.{.{.{.u.I.J.K.y.L.M.{ b @ % $ * $ $ % ; @ < . N.] @ ' % $ - - ",
"t % - $ @ O.P.Q.{.R.S.T.U.V.W.{.{.{.{.{.{.{.{.{.{.{.{.X.Y.Z.`. +@ / ' $ @ / % % % $ _ 5 $ 2 } .+< $ & p V - ",
". $ - @ : ++@+F.R.#+$+%+&+*+=+{.{.{.{.{.{.{.{.{.{.{.{.{.-+;+>+,+'+)+!+~+2 $ u % @ + * ; - % $ {+@ ( @ d $ $ ",
"< $ $ q ]+^+/+{.(+_+:+<+[+}+|+F.{.{.{.{.{.{.{.{.{.{.{.{.{.u.1+2+3+p.}.4+5+6+5 ; @ a * / - - % @ % { _ ; * _ ",
"_ & | 7+8+9+{.^.0+a+b+c+d+e+f+F.{.{.{.{.{.{.{.{.{.{.{.{.{.u.g+h+i+y F F j+k+: ! _ * 2 @ % - $ : $ - % - $ @ ",
"# / % ; l+m+{.n+o+p+q+r+s+s+t+8.{.{.{.{.{.{.{.{.{.{.{.{.{.{.u+v+w+F x x x+y+* d 5 % @ ( $ - % , @ $ % - & ] ",
"@ @ $ z+A+{.{.B+C+D+E+F+s+G+H+{.{.{.{.{.{.{.{.{.{.{.{.{.{.{.u.I+J+K+x y L+M+# o o % N+{ + $ - % a B.; - t } ",
"a O+$ P+Q+{.{.R+S+T+U+V+W+X+Y+{.{.{.{.{.{.{.{.{.{.{.{.{.{.{.u.Z+`+ @x x .@~+. < * $ +@{ $ + $ % + f o % @ | ",
"@@#@% $@%@&@9.*@=@-@;@>@,@'@-+{.{.{.{.{.{.{.{.{.{.{.{.{.{.{.{.)@!@~@{@<.]@^@q # # # @ @ $ $ + @ $ < q $ % ' ",
"B.& ' /@(@u.9.9._@:@<@[@}@8.{.{.{.{.{.{.{.{.{.{.{.{.{.{.{.{.{.u.|@1@2@3@4@% 5 # a = ; % % % $ * * 2 # # @ $ ",
"$ % u 5@6@{.{.{.{.u.u.9.{.9.{.{.{.{.{.{.{.{.{.{.{.{.{.{.{.{.{.9.7@8@S 2@9@b ' @ 2 @ 5 { { 5 ; @ # f.: # : ] ",
"/ _ % 0@a@{.{.{.{.{.{.u.u.u.u.u.{.{.{.{.{.{.{.{.{.{.{.{.{.{.{.{.b@c@y.L+d@e@' - $ @ ( : r @ @ / { 0 f.# _ . ",
"* B.! $ f@g@h@{.{.{.{.u.g@i@{.{.{.{.{.{.{.{.{.{.{.{.{.{.{.{.{.{.j@k@y.F l@m@' % % @ $ @ t % % - $ # # $ 5 f.",
"] @@2 + n@/+o@p@p@q@r@s@t@{.{.{.{.{.{.{.{.{.{.{.{.{.{.{.{.{.{.u.u@v@y.F w@x@{ | % % - % $ % / % @ @ $ % % # ",
"g y@2 . z@A@u.F.F.i@F.F.8.{.9.{.{.{.{.{.{.{.F.F.{.{.{.{.{.{.{.u.B@C@y.x D@E@@ , b - - % $ $ a $ % % @ % - @ ",
"= + : F@G@H@I@u.u.{.{.{.{.{.9.{.{.{.{.{.i@J@K@{.{.{.{.{.{.{.{.9.L@M@y.3+N@O@% - - ' > | $ + ] { ' P@{ % $ _ ",
"Q@$ | , d R@S@T@{.{.{.{.{.{.{.{.{.{.{.U@(+S.8.{.{.{.{.{.{.{.{.{.u@V@%.W@X@Y@- - - ' ; @ + * < o % % @ @ * _ ",
": # _ | # * Z@`@ #{.{.{.{.{.{.{..#+#@###@#{.{.{.{.{.{.{.{.{.{.u.B@$#%.%#&#*#{ % ' b @ V $ * * ( _ ; $ + @ @ ",
": r t @ # @ 5 =#-#;#>#{.,#'#)#!#~#{#]#^#8.{.{.{.{.{.{.{.{.{.{.{./#(#y.x x _#:#@ $ ~ + % ' $ * Q@$ - V ; b | ",
"d 0 $ + + - ' $ <#[#}#|#1#2#3#4#5#6#7#{.{.{.{.{.{.{.{.{.{.{.{.{.8#9#y.F F j 0#$ * * = & C { t : $ a#b#c#; * ",
"5 q @ + * % - t # a d#e#f#g#h#i#j#k#l#{.{.{.{.{.{.{.{.{.{.{.{.{.m#n#o#y.F p#0#t # : a $ ; c @ t q#r#s#t#% * ",
"{ @ @ * + % { ] ^ * * u#v#w#x#y#z#A#u+{.{.{.{.{.{.{.{.{.{.{.{.{.u.B#C#y.y D#E#} N.# * * $ $ _ @ F#G#H#; - { ",
"# 0 4 # * ; 5 * : $ $ I#J#K#L#M#N#i@{.{.{.{.{.{.{.{.{.{.{.{.{.{.{.O#P#y.Q#R#6+( 2 $ $ / - ' , ( S#T#U#{ % 5 ",
"# r ] # $ * _ $ $ % - V#W#X#Y#Z#`#u.{.{.{.{.{.{.{.{.{.{.{.{.{.{.{.{. $.$+$@$@ / $ - - - / - b #$$$%$&$( % { ",
"*$@ @ ; $ t : t + $ b =$-$;$>$,$'${.{.{.{.{.{.{.{.{.{.{.{.{.{.{.{.{.)$!$~$_ a t t $ b % @ % {$]$^$6@/$( @ $ ",
"b @ _ , ( % $ $ + _ t#($_$:$<$[$}${.{.{.{.{.{.{.{.{.{.{.{.{.{.{.{.{.u.|$1$2$$ $ @ ( 5 % 3$4$5$6${.7$8$$ # 4 ",
"- + . < @ % $ $ + @ $ 9$0$L#a$b$c${.{.{.{.{.{.{.{.{.{.{.{.{.{.{.{.{.{.{.m+d$e$$ + @ @ f$g$h$m+9.{.i$j$% * . ",
"- % t # # * : $ / % * k$l$m$n$o$p${.{.{.{.{.{.{.{.{.{.{.{.{.{.{.{.{.{.{.{.q$r$s$g$t$u$v$t.{.{.{.{.w$x$5 _ # ",
"b ' % # . < * V % @ _ y$z$K#A$B${.{.{.{.{.{.{.{.{.{.{.{.{.{.{.{.{.{.{.{.{.{._@C$D$E$F$u.X.u.u.{.8.G$# % ; * ",
"{ $ % @ f.0 _ / @ < ; H$I$<$J$K${.{.{.{.{.{.{.{.{.{.{.{.{.{.{.{.{.{.{.{.{.{.{.{.{.{.9.u.{.{.{.{.Z+L$* % - @ ",
"* : $ $ M$# _ * ! @ % N$O$P$Q$R${.{.{.{.{.{.{.{.{.{.{.{.{.{.{.{.{.{.{.{.{.{.{.{.{.{.{.{.{.{.{.{.)$S$t - % ( ",
"# @ % % $ @ # # a & $ B.T$U$V$W${.{.{.{.{.{.{.{.{.{.{.{.{.{.{.{.{.{.{.{.{.{.{.{.{.{.{.{.{.{.{.{.X$Y$% - - $ ",
"_ % b @ % ; _ $ $ % $ ( Z$`$ %.%{.{.{.{.{.{.{.{.{.{.{.{.{.{.{.{.{.{.{.{.{.{.{.{.{.{.{.{.{.{.{.u.+%@%- $ % - ",
"@ ~ ' & $ % % % % $ _ 5 #%$%%%&%{.{.{.{.{.{.{.{.{.{.{.{.{.{.{.{.{.{.{.{.{.{.{.{.{.{.{.{.{.{.{.F$*%=%$ # V - ",
"B.@ % t : / ' % @ ! # ; % -%;%>%{.{.{.{.{.{.{.{.{.{.{.{.{.{.{.{.{.{.{.{.{.{.{.{.{.{.{.{.{.{.8.,%'%+ @ , $ / ",
"< $ $ * _ ; 5 % @ a * V - )%!%~%{.{.{.{.{.{.{.{.{.{.{.{.{.{.{.{.{.{.{.{.{.{.{.{.{.{.{.{.{.{.{%]%^%$ @ ; * ( ",
"_ & | {+( _ < @ @ * 2 @ % /%(%_%)@{.{.{.{.{.{.{.{.{.{.{.{.{.{.{.{.{.{.{.{.{.{.{.{.{.{.{.{.:%<%[%$ - / - $ @ ",
"* / ; % $ * * ; 5 { @ ( $ % }%|%1%{.{.{.{.{.{.{.{.{.{.{.{.{.{.{.{.{.{.{.{.{.{.{.{.{.{.p${%2%% d J $ % - & ] ",
"@ & $ $ % @ # o | b N+{ + $ & 3%4%{.{.{.{.{.{.{.{.5%8.{.{.{.{.{.{.F.{.{.{.{.{.{.{.{.m#6%7%$ - b # B.$ - ! 8%",
"a O+@ ; $ # . < * $ b ~ $ + $ 9%0%a%{.i@{.{.{.{.{.b%F.{.{.{.{.{.F.p@{.{.{.{.{.{.{.c%d%e%$ * $ % @ r o ; _ o ",
"@@! % / + @ # # 2 = $ + / $ + $ f%g%h%i%{.{.{.{.{.@#F.{.{.{.{.{.F.j%{.{.{.{.8.F$k%l%m%@ $ $ * $ $ < < @ ; % ",
"} & - % $ - 5 ( # # ; ~ - % @ * * n%o%Q.u.{.{.{.5%p%F.u.F.U@q%r%>#s%u.{.{.u.t%u%v%w%; % % % $ * ! 2 # # @ $ ",
"$ % u ~ c % u @ 2 @ 5 $ ;   ; @ # f.x%y%{.9.9.9.z%A%B%C%D%E%F%G%H%I%9.u.u.{.J%K%L%@ 5 { { b % $ # f.2 # 2 ] ",
"/ + % - / - ' % $ $ ( : : @ @ ; { 0 M%y%{.{.{.{.%@N%* @ @ * * $ O%H%{.{.{.{.J%P%Q%@ _ : 2 @ @ % { 0 . # _ . ",
"* . @ % % % > % / @ $ @ + $ % % $ # R%S%{.{.{.{.T%U%@ < 0 # # * f$V%{.{.{.{.W%z+% _ $ @ ! / % % $ q < $ 5 f.",
"B.X%2 @ * ; d _ ; % - ; @ ; % $ * t Y%Z%{.{.u._@`% &@ ] } } < p .&+&u.{.{.@&#&# ; % - % @ % % % + @ $ - % # ",
"g . # 2 | ; | 5 - - - % % @ # $ % ; $&%&&&*&=&-&;&% V $ + q 0 < >&,&'&)&!&~&{&5 ' - - % % $ # $ % ; @ % - @ ",
"2 * 2 8%5 ' ~ ' - u > o $ ! B.@ ' 5 ; ]&^&/&(&_&:&~ + ~ % | # # <&[&}&|&1&2&3&- - ' P@o $ @ ] @ ' b ~ % ; ( ",
"* $ @ d ; / - - - ' ; @ * * < 4&~ { @ 5&6&7&8&9&- % $ { N+{ + 2 * 0&a&b&c&d&e&- - - ; @ + * < o { { c + * * ",
": * @ { # * ; ~ ' b @ / $ * * q ( $ $ + @ @ % ' % - / @ { @ $ ! # * @ | # * { % ' b @ $ $ * * q ( $ $ * @ c ",
": } c + # d 5 @ { % t % - $ * a $ - - % P@; ~ { _ % % $ / % - ; < } _ @ # d 5 _ $ % @ ~ ' $ * * & - - % P@; ",
"% t#; * $ - - $ * Q@s d C ' Q@s @ - - - ; * + * $ - % + / - - - ; 5 ; * $ - - @ * * B.@ C ' + s @ - - - ; * "};
