/* XPM */
static char * gem_xpm[] = {
"74 64 272 2",
"  	c #402515",
". 	c #3F2514",
"+ 	c #3E2514",
"@ 	c #3D2414",
"# 	c #3D2313",
"$ 	c #3B2313",
"% 	c #3E2515",
"& 	c #3F2615",
"* 	c #402615",
"= 	c #3F2515",
"- 	c #3D2413",
"; 	c #3E2414",
"> 	c #3A2213",
", 	c #3D2515",
"' 	c #3E2615",
") 	c #3C2414",
"! 	c #3C2413",
"~ 	c #3F2616",
"{ 	c #3C2514",
"] 	c #3A2413",
"^ 	c #3A2312",
"/ 	c #3C2313",
"( 	c #3D2514",
"_ 	c #3E2415",
": 	c #3C2314",
"< 	c #362011",
"[ 	c #362111",
"} 	c #392212",
"| 	c #3F2414",
"1 	c #3A2113",
"2 	c #3E2314",
"3 	c #3A2212",
"4 	c #392112",
"5 	c #372012",
"6 	c #3F2716",
"7 	c #3B2213",
"8 	c #3D2314",
"9 	c #402716",
"0 	c #3B2414",
"a 	c #382111",
"b 	c #3F2415",
"c 	c #382212",
"d 	c #392312",
"e 	c #3A2313",
"f 	c #3B2413",
"g 	c #3A2112",
"h 	c #392113",
"i 	c #382112",
"j 	c #3B2514",
"k 	c #3B2314",
"l 	c #3B2212",
"m 	c #3C2614",
"n 	c #392213",
"o 	c #392111",
"p 	c #372011",
"q 	c #3F2717",
"r 	c #3C2515",
"s 	c #3A2414",
"t 	c #3D2615",
"u 	c #3D2614",
"v 	c #372111",
"w 	c #3C2213",
"x 	c #3C2317",
"y 	c #3D231A",
"z 	c #3D241B",
"A 	c #3C231A",
"B 	c #3F241B",
"C 	c #40251C",
"D 	c #3D2317",
"E 	c #3E2413",
"F 	c #3D1A3B",
"G 	c #3F114A",
"H 	c #3E124B",
"I 	c #401B4B",
"J 	c #401D4B",
"K 	c #411D4B",
"L 	c #421E4C",
"M 	c #43224C",
"N 	c #44244E",
"O 	c #42243E",
"P 	c #372016",
"Q 	c #40213D",
"R 	c #938B97",
"S 	c #B1ADB6",
"T 	c #AFA5B5",
"U 	c #A582B0",
"V 	c #A276AE",
"W 	c #A378AF",
"X 	c #9E70AB",
"Y 	c #8B499C",
"Z 	c #873D98",
"` 	c #733781",
" .	c #42233D",
"..	c #3D241A",
"+.	c #382116",
"@.	c #4C3947",
"#.	c #877C8D",
"$.	c #D9D7DB",
"%.	c #FAF8FB",
"&.	c #F4E5F7",
"*.	c #E7BAF0",
"=.	c #E4ACEE",
"-.	c #E5AEEF",
";.	c #DFA5EA",
">.	c #C97BD7",
",.	c #BD5ECE",
"'.	c #A249B3",
").	c #6B2F7A",
"!.	c #482642",
"~.	c #3E251C",
"{.	c #392313",
"].	c #472B42",
"^.	c #867B8D",
"/.	c #E1DFE2",
"(.	c #F8F7F9",
"_.	c #F5E4F8",
":.	c #E9BBF2",
"<.	c #E6B1F0",
"[.	c #E6AFF0",
"}.	c #E7B1F0",
"|.	c #E7B3F0",
"1.	c #E3ADED",
"2.	c #CE89DB",
"3.	c #BD69CC",
"4.	c #AD61BC",
"5.	c #6D397B",
"6.	c #452441",
"7.	c #3F2519",
"8.	c #3D251A",
"9.	c #3E1A3D",
"0.	c #968D9B",
"a.	c #DFDDE0",
"b.	c #F4E1F8",
"c.	c #EABFF2",
"d.	c #E6AEF0",
"e.	c #ECC8F3",
"f.	c #F6E8F9",
"g.	c #F6E9F9",
"h.	c #F0E1F3",
"i.	c #ECDDF0",
"j.	c #E2CDE7",
"k.	c #B073BE",
"l.	c #722D82",
"m.	c #412440",
"n.	c #3D2318",
"o.	c #3E241A",
"p.	c #42184D",
"q.	c #897E93",
"r.	c #C3BFC7",
"s.	c #C5BFC9",
"t.	c #CEA2D8",
"u.	c #D48CE1",
"v.	c #D38EE0",
"w.	c #D38FE0",
"x.	c #D38DE0",
"y.	c #D9A7E3",
"z.	c #E0C5E7",
"A.	c #E1C7E7",
"B.	c #ECD6F1",
"C.	c #F4E0F8",
"D.	c #EFD4F4",
"E.	c #D79CE2",
"F.	c #90599F",
"G.	c #411F4C",
"H.	c #3D2419",
"I.	c #442446",
"J.	c #4B255C",
"K.	c #4D2862",
"L.	c #522A67",
"M.	c #8E439F",
"N.	c #B153C2",
"O.	c #BB58CC",
"P.	c #C675D5",
"Q.	c #DB9DE7",
"R.	c #E7B1F1",
"S.	c #CF9CDA",
"T.	c #8E6699",
"U.	c #3F1F40",
"V.	c #3F251A",
"W.	c #3D2415",
"X.	c #3D241C",
"Y.	c #422441",
"Z.	c #4B255E",
"`.	c #4D2561",
" +	c #542869",
".+	c #873F98",
"++	c #B455C5",
"@+	c #BA58CB",
"#+	c #BA56CB",
"$+	c #C26BD2",
"%+	c #DDA0E8",
"&+	c #E4AEEE",
"*+	c #D19EDB",
"=+	c #825B8E",
"-+	c #4B2D48",
";+	c #40251B",
">+	c #402516",
",+	c #3C2421",
"'+	c #43263E",
")+	c #4A2460",
"!+	c #5B2B6F",
"~+	c #833D94",
"{+	c #B254C3",
"]+	c #BC58CD",
"^+	c #C36DD2",
"/+	c #E0A5EB",
"(+	c #E8B1F2",
"_+	c #C997D3",
":+	c #855F90",
"<+	c #4E304B",
"[+	c #3D2319",
"}+	c #3E2313",
"|+	c #3F2620",
"1+	c #452642",
"2+	c #4A255A",
"3+	c #46235D",
"4+	c #673079",
"5+	c #B053C1",
"6+	c #BC56CD",
"7+	c #C36ED3",
"8+	c #D694E3",
"9+	c #E3AAEE",
"0+	c #C594CF",
"a+	c #8D6597",
"b+	c #422341",
"c+	c #3C2319",
"d+	c #3F2518",
"e+	c #452543",
"f+	c #482457",
"g+	c #612E74",
"h+	c #9B4AAC",
"i+	c #BC6BCC",
"j+	c #D693E3",
"k+	c #E2ABEC",
"l+	c #CB99D5",
"m+	c #896293",
"n+	c #3C1B3B",
"o+	c #3C2416",
"p+	c #43253F",
"q+	c #4B245D",
"r+	c #5F3471",
"s+	c #BF8DCA",
"t+	c #E3ACED",
"u+	c #CE9BD7",
"v+	c #7D5789",
"w+	c #452742",
"x+	c #3B2317",
"y+	c #372112",
"z+	c #3C241F",
"A+	c #402439",
"B+	c #543164",
"C+	c #BF8FCA",
"D+	c #C897D3",
"E+	c #7D5888",
"F+	c #4D2F47",
"G+	c #392217",
"H+	c #3D231C",
"I+	c #492B45",
"J+	c #8B6494",
"K+	c #8A6393",
"L+	c #44243D",
"M+	c #3F2419",
"N+	c #40203D",
"O+	c #3B2318",
"P+	c #3C2214",
"Q+	c #382012",
"R+	c #3B2113",
"S+	c #402715",
"T+	c #352011",
"U+	c #3B2214",
"V+	c #3C2513",
"W+	c #351F11",
"    . + @ @ # $ +   + % & * = @ + & . @ - ; > @ ; + , @ @ ' = ; ) ! % ~       . + @ @ # $ +   + % & * = @ + & . @ - ; > @ ; + , @ @ ' = ; ) ! % ~   ",
"    % { ] ^ $ % = ; / ! .     = = ' ( ! ; = _ = @ { , : : =     ; / @ % ;     % { ] ^ $ % = ; / ! .     = = ' ( ! ; = _ = @ { , : : =     ; / @ % @ ",
"* . > < [ } @ = | / / / @ =   ; - @ ; @ @ = | = @ $ } 1 2     | # @ / 3 4 ; ; > < [ } @ = | / / / @ =   ; - @ ; @ @ = | = @ $ } 1 2     | # @ / 3 5 ",
"6 = / 4 } $ @ ' ) 7 $ / ; . ' ! 7 / ; = ; ; 7 / / $ / 8     | $ $ @ _ 8 : ' = / 4 } $ @ ' ) 7 $ / ; . ' ! 7 / ; = ; ; 7 / / $ / 8     | $ $ @ _ 8 / ",
"9 = 2 / $ / @ ' ) > 7 8 ; ! 0 $ > $ @ = = ; 7 $ 3 3 @ = * & ) a 4 @ = = ; & = 2 / $ / @ ' ) > 7 8 ; ! 0 $ > $ @ = = ; 7 $ 3 3 @ = * & ) a 4 @ = b ; ",
"= = ; / / @ = = : > : | # 3 c 7 $ ) ) @ = _ ) 0 d e @ = = & f a } @ = ; / ; = ; / / @ = = : > : | # 3 c 7 $ ) ) @ = _ ) 0 d e @ = = & f a } @ = ; 7 ",
"7 8 @ ! ! @     @ > 8 b ; 3 c $ @ % ) : ; @ ) 0 e ! ; ; 8 ; ! 3 / + % $ g > 8 @ ! ! @     @ > 8 b ; 3 c $ @ % ) : ; @ ) 0 e ! ; ; 8 ; ! 3 / + % / h ",
"i $ ! j j @ =   | k ) = b ) f 0 / ; _ 8 / $ ) $ $ @ | 8 > / l 3 - = { e / 4 $ f j j @ =   | k ) = b ) f 0 / ; _ 8 / $ ) $ $ @ | 8 > / l 3 - = { e : ",
"$ $ { m { |       ' ' + 8 e j d i / ; : 1 / l @ % = = = @ l / / ; % k n 8 # / { m { |       ' ' + 8 e j d i / ; : 1 / l @ % = = = @ l / / ; % $ n _ ",
"$ @ & & =     |   * = / o c d } $ ; b ; ; ; / ; | ; % & + / ; | = = ; @ ; / @ & & =     |   * = / o c d } $ ; b ; ; ; / ; | ; % & + / ; | = = ; @ | ",
"; + ' & =   ; $ ; . # 4 p a 3 ) ' ( ; ; | = ; = | ; +   = 8 b       | ; / @ + ' & =   ; $ ; . # 4 p a 3 ) ' ( ; ; | = ; = | ; +   = 8 b       | ; / ",
"= @ f @ . | + 0 @ @ ! f $ / @ = & @ # # ; =   . / / |   ; > + =   ; - ! @ ; @ f @ . | + 0 @ @ ! f $ / @ = & @ # # ; =   . / / |   ; > + =   ; - ! # ",
"  8 $ - ; @ @ , @ # @ % % =     = @ / / # = & = / 7 @ b @ } { + ; ; { ( . = 8 $ - ; @ @ , @ # @ % % =     = @ / / # = & = / 7 @ b @ } { + ; ; { ( | ",
"9 = ; = + / @ % @ ; = _ @ =     = : $ / # % { ; @ f ) ; _ $ j ) @ ; + ,     = ; = + / @ % @ ; = _ @ =     = : $ / # % { ; @ f ) ; _ $ j ) @ ; + ,   ",
"q   = & , 8 |   = = b ) k |     # 7 7 ! @ @ > $ ) r r @ b ) e ) @ @ ; @ = ~   = & , 8 |   = = b ) k |     # 7 7 ! @ @ > $ ) r r @ b ) e ) @ @ ; @ = ",
"  ; @ ) e h ;     _ _ % % =   ; / ) ; % ' % @ / @ + = = ; l } / @ % = =     ; @ ) e h ;     _ _ % % =   ; / ) ; % ' % @ / @ + = = ; l } / @ % = =   ",
"@ > $ { s n @   . > n @ = = _ : @ & & % m t f ) ; ; ; | ; 8 3 3 $ @ =     ; > $ { s n @   . > n @ = = _ : @ & & % m t f ) ; ; ; | ; 8 3 3 $ @ =     ",
"> > $ { u 0 @ = % e 3 ; = ; 8 @ + = = ( ) f } $ @ ; ; 8 > : / $ / ( & = ; $ > $ { u 0 @ = % e 3 ; = ; 8 @ + = = ( ) f } $ @ ; ; 8 > : / $ / ( & = | ",
"v $ / @ ' & % ; ) e / ; ; # @ ; ; ; @ ! $ e } $ # ; = @ > 4 > / @ ) @ ; $ i $ / @ ' & % ; ) e / ; ; # @ ; ; ; @ ! $ e } $ # ; = @ > 4 > / @ ) @ ; / ",
"i 8 @ + = = + @ / 3 / @ # @ . = ; ; / $ $ $ { @ ; ; = = / 5 5 $ ) $ / ; $ h 8 @ + = = + @ / 3 / @ # @ . = ; ; / $ $ $ { @ ; ; = = / 5 5 $ ) $ w 2 # ",
"> 8 ; + ( / # $ $ 3 $ / @ . *   . + @ 7 > ! ' = ; _ & * % > 4 f f $ # | @ 7 8 ; + ( / # $ $ 3 $ / @ . *   . + @ 7 > ! ' = ; _ & * % > 4 f f $ # | | ",
"i : @ ) e i l $ } } e ) ; = & @ @ t , / > ;   = @ _ & & % = ; @ f e ) % ) } : @ ) e i l $ } } e ) ; = & @ @ t , / > ;   = @ _ & & % = ; @ f e ) = ; ",
"; = = ; $ 3 ) l } 0 , | ; @ @ i } $ @ ; b       = =   + ! = _ 8 ) @ % @ / @ = = ; $ 3 ) l } 0 , | ; @ @ i } $ @ ; b       = =   + ! = _ 8 ) @ % @ $ ",
"  = = # 3 e ' @ 3 e @ = | | b : 8 @ # 8 | = ~ * =   = ! 3 # / x y z z A B C C C D 3 e ' @ 3 e @ = | | b : 8 @ # 8 | = ~ * =   = ! 3 # / / / ) ) $ @ ",
"= ; + E $ ! = = @ ) @ ; | | = 8 ; = | ; ; @ ' = ; ; @ } p 3 k F G H I J K L M N O k ! = = @ ) @ ; | | = 8 ; = | ; ; @ ' = ; ; @ } p 3 $ $ e d d } _ ",
"= % + - / @     @ ; % ; ; # % ; = =     = ( @ = @ / $ 4 < P Q R S T U V W X Y Z `  ...    @ ; % ; ; # % ; = =     = ( @ = @ / $ 4 < i $ f e > > $ ; ",
"  ' ) $ ) @ =   @ % & = / 3 ; | ; ' &     & @ = % f } 3 +.@.#.$.%.&.*.=.-.;.>.,.'.).!.~.  @ % & = / 3 ; | ; ' &     & @ = % f } 3 3 } $ f ! @ ; ; @ ",
"  = ) 0 { @ ; = ; & * & f } @ @ @ ' &     * = * & 0 {.x ].^./.(._.:.<.[.}.|.1.2.3.4.5.6.7.; & * & f } @ @ @ ' &     * = * & 0 {./ # 7 > $ @ & * + ) ",
"    = % % ) / @ # ; = ' { $ ) / @ % =         = % t 8.9.0.a.(.b.c.[.[.d.e.f.g.h.i.j.k.l.m.n.; = ' { $ ) / @ % =         = % t , % ; : 4 w + & & = = ",
"  = & & % ) @ / ; | @ $ f ) / @ | @ % & * = = / l ! o.p.q.r.s.t.u.v.w.x.y.z.A.B.C.D.E.F.G.o.| @ $ f ) / @ | @ % & * = = / l ! @ # / l / ; @ @ ; @ = ",
"= @ + = % % ' + =   ; / $ / @ = = ; + = ; ) & @ $ / H.I.J.K.L.M.N.O.O.O.O.,.P.Q.R.1.S.T.U.V.  ; / $ / @ = = ; + = ; ) & @ $ / @ / } 3 ;   = = ; ;   ",
"* + @ ; ; @ & *     | : 7 @ + * = / / @ # @ = = @ / W.X.Y.Z.`. +.+++@+O.#+$+%+d.&+*+=+-+;+>+  | : 7 @ + * = / / @ # @ = = @ / @ ) ] ) =     = ; @ = ",
"& = ; ; # / = & = = | 8 : @ ( & + / 7 $ / ; = = @ / @ @ ,+'+J.)+!+~+{+]+#+^+/+(+_+:+<+[+& = = | 8 : @ ( & + / 7 $ / ; = = @ / @ @ 0 ' *     = # $ % ",
"0 ; | }+/ @ = ' ) # ; @ @ @ @ = @ / $ 7 } 7 = = @ / @ @ 0 |+1+2+3+4+5+6+7+8+9+0+a+b+c+= ' ) # ; @ @ @ @ = @ / $ 7 } 7 = = @ / @ @ 0 ' *     | $ d ' ",
"i / ; / ! .   % > $ / / ) ( ; = @ / / 3 p } % = ; / / @ ( , d+e+f+g+h+i+j+k+l+m+n+o+.   % > $ / / ) ( ; = @ / / 3 p } % = ; / / @ ( , =     ; 3 c ' ",
"8 / : $ 0 &   % @ ! / / { '     = = = # $ @ & % @ $ e ] j $ ; o.p+q+r+s+t+u+v+w+x+0 &   % @ ! / / { '     = = = # $ @ & % @ $ e ] j $ ; _ % ) 3 $ = ",
"  + $ i > ; | ) t + ! ! + *   =     = _ _ % @ : @ $ i y+d e 8 > z+A+B+C+D+E+F+G+i > ; | ) t + ! ! + *   =     = _ _ % @ : @ $ i y+d e 8 > 0 t % =   ",
"    ; # @ . ; / % = + % & * = @ = * = ; @ ; 1 : ; % ) / ( u % 8 $ H+I+J+K+L+M+; # @ . ; / % = + % & * = @ = * = ; @ ; 1 : ; % ) / ( u % 8 $ @ & ~   ",
"    ; @ @ ! / @ = = ; ( &   = ; % & % @ @ ; / 2 ; , % @ @ & = b @ ) , Q N+>+  ; @ @ ! / @ = = ; ( &   = ; % & % @ @ ; / 2 ; , % @ @ & = b @ ) ( ' + ",
"  = : n {.e / ; = @ / ! ;     % ( + ( @ @ b ; b @ ) f $ @ =   = ; / / O+O+= = : n {.e / ; = @ / ! ;     % ( + ( @ @ b ; b @ ) f $ @ =   = ; / / $ > ",
"9 = 7 y+i 3 / % @ / / / @ = = @ ! - ; ; @ ; P+2 @ f e $ ;   = @ / @ @ 7 7 % = 7 y+i 3 / % @ / / / @ = = @ ! - ; ; @ ; P+2 @ f e $ ;   = @ / @ @ 7 4 ",
"6 & @ 7 3 / ) ' ! $ / @ ; ( ( $ $ / 2 b = ; 1 $ $ $ @ |   * @ > 7 ; = | ; ~ = @ 7 3 / ) ' ! $ / @ ; ( ( $ $ / 2 b = ; 1 $ $ $ @ |   * @ > 7 ; = | ; ",
"  = @ / / @ % = # g 7 ; @ 3 } $ h 7 ; b   = @ $ } 3 # . * & f < i / | = b = = @ / / @ % = # g 7 ; @ 3 } $ h 7 ; b   = @ $ } 3 # . * & f < i / | = ; ",
"; = ; / / ;   = / 7 8 b @ } a > : , ) : ; ; ! { ] $ ; = | = # 4 7 ; = : 1 8 = ; / / ;   = / 7 8 b @ } a > : , ) : ; ; ! { ] $ ; = | = # 4 7 ; = : Q+",
"i : ) 0 0 @ = = @ $ / = + $ e k @ % ; 8 : / ) f e @ | @ 7 # / 3 ! ' ( > R+1 : ) 0 0 @ = = @ $ / = + $ e k @ % ; 8 : / ) f e @ | @ 7 # / 3 ! ' ( > 3 ",
"4 7 0 j { ;     = @ ( = ; f j e > @ | 8 7 / $ ) ) ; . ; 7 $ / $ ! % ) } 8 7 $ 0 j { ;     = @ ( = ; f j e > @ | 8 7 / $ ) ) ; . ; 7 $ / $ ! % ) 3 ; ",
"$ / ( u + =   =   = = @ $ d ] } n : b 2 / # $ @ ; ; + = @ $ @ @ ; b @ / ; : / ( u + =   =   = = @ $ d ] } n : b 2 / # $ @ ; ; + = @ $ @ @ ; b @ / _ ",
"/ ; = & =   ; 8 ; = ; > v v d e { @ _ | | | @ ; | ; + & % ) = =     | ; @ # ; = & =   ; 8 ; = ; > v v d e { @ _ | | | @ ; | ; + & % ) = =     | ; @ ",
"| ; ( % = = ; e @ ; / } i n $ % ' { @ | |   = = ; ; |   % ) =     | ; @ ) ; ; ( % = = ; e @ ; / } i n $ % ' { @ | |   = = ; ; |   % ) =     | ; @ $ ",
"= / } $ ; = % ' + - @ + , % =   = ) / @ @ =   ; 7 7 ; = 8 i @ = b @ $ 0 % = / } $ ; = % ' + - @ + , % =   = ) / @ @ =   ; 7 7 ; = 8 i @ = b @ $ 0 % ",
"* = ; _ @ / ) % ) @ . = =       = @ $ / ; = ' = @ / @ ; @ > { ( ; ; , t   * = ; _ @ / ) % ) @ . = =       = @ $ / ; = ' = @ / @ ; @ > { ( ; ; , t = ",
"6 * = = % ) @ = % = = @ : |     ; 7 7 / ; ; e / - ) ) @ _ ) 0 ) @ ; ( ( = ~ * = = % ) @ = % = = @ : |     ; 7 7 / ; ; e / - ) ) @ _ ) 0 ) @ ; ( ( = ",
"S+= ; @ ) $ ;     b ; @ ) =   | 8 $ : ( t + 7 $ - ( , % % / 3 / @ ; ; + = * = ; @ ) $ ;     b ; @ ) =   | 8 $ : ( t + 7 $ - ( , % % / 3 / @ ; ; + = ",
"= / : ) e c ;   = : $ ( % = = @ ! + = ' t ' / $ @ ; ; = ; / 3 $ / ; =     = / : ) e c ;   = : $ ( % = = @ ! + = ' t ' / $ @ ; ; = ; / 3 $ / ; =     ",
"/ n $ ( j {.@ = + n n @   = @ / + & & + { { e $ @ ; ; ; 8 @ $ 3 $ @ =   = @ > $ ( j {.@ = + n n @   = @ / + & & + { { e $ @ ; ; ; 8 @ $ 3 $ @ =     ",
"i > $ ( ' ( ) % t e $ ; = ; / ; % = . ; ) e } e @ % = 8 > w / l ! ( % b @ 3 $ $ ( ' ( ) % t e $ ; = ; / ; % = . ; ) e } e @ % = 8 > w / l ! ( % = ; ",
"T+7 / @ = = = % f } / ; @ ) % = @ @ / 3 7 k e ) @ % = b 7 5 i / @ 7 7 8 > 5 7 / @ = = = % f } / ; @ ) % = @ @ / 3 7 k e ) @ % = b 7 5 i / @ 7 7 8 / ",
"7 2 ; ' ' % ; / / 3 $ / # ; &   = % ) 7 7 / t = ; % =   8 i v 0 ) $ 8 _ @ U+2 ; ' ' % ; / / 3 $ / # ; &   = % ) 7 7 / t = ; % =   8 i v 0 ) $ 8 _ ; ",
"h 8 ; ( ) > $ / l ^ e / ; = & + + & + $ > @ = = ; _ & * b / $ ) $ $ @ = ; 7 8 ; ( ) > $ / l ^ e / ; = & + + & + $ > @ = = ; _ & * b / $ ) $ $ @ = ; ",
"> ; ; @ > } $ $ } ] ) ; ; + + $ $ ) ( : / =     b =   = @ % ; @ / ! @ ; / 7 ; ; @ > } $ $ } ] ) ; ; + + $ $ ) ( : / =     b =   = @ % ; @ / ! @ ; : ",
"; = = 8 > e ( / d ] ( = ; @ ; 7 7 ) ) @ +   *   = = = @ $ ; @ / ! ( ( ! / ; = = 8 > e ( / d ] ( = ; @ ; 7 7 ) ) @ +   *   = = = @ $ ; @ / ! ( ( ! / ",
"  = = @ 7 $ ' ; / $ ) ; = | = 8 ; ; ; ; . + &   = % ; $ i $ $ $ $ f ] d @ = = = @ 7 $ ' ; / $ ) ; = | = 8 ; ; ; ; . + &   = % ; $ i $ $ $ $ f ] d @ ",
"= ( @ @ : ) =   ; @ @ ; | % = @ ;   = = ; V+( = @ ! $ i W+a $ $ d } c } _ = ( @ @ : ) =   ; @ @ ; | % = @ ;   = = ; V+( = @ ! $ i W+a $ $ d } c } _ ",
"  & ( : / ;   = @ ; = = # $ % = =       & ' ! ; ; $ e > i a e j f / @ ; =   & ( : / ;   = @ ; = = # $ % = =       & ' ! ; ; $ e > i a e j f / @ ; % "};
