/* XPM */
static char * grass_xpm[] = {
"64 64 134 2",
"  	c #70A853",
". 	c #6BA350",
"+ 	c #63A04B",
"@ 	c #6EA752",
"# 	c #70A852",
"$ 	c #71A652",
"% 	c #7B934C",
"& 	c #73A351",
"* 	c #679E4E",
"= 	c #3C7337",
"- 	c #60974A",
"; 	c #61994A",
"> 	c #77A561",
", 	c #8F998C",
"' 	c #7EA26F",
") 	c #6FA451",
"! 	c #79924A",
"~ 	c #73994C",
"{ 	c #7F8848",
"] 	c #73A251",
"^ 	c #68A34E",
"/ 	c #508F3F",
"( 	c #49813C",
"_ 	c #66A14E",
": 	c #6CA551",
"< 	c #5A9146",
"[ 	c #589045",
"} 	c #649B4C",
"| 	c #76934A",
"1 	c #7A964D",
"2 	c #6CA651",
"3 	c #669F4C",
"4 	c #5D9A47",
"5 	c #69A14F",
"6 	c #65A14C",
"7 	c #68A04F",
"8 	c #68A04E",
"9 	c #6FA753",
"0 	c #588F45",
"a 	c #7C8545",
"b 	c #779C4F",
"c 	c #6CA550",
"d 	c #6BA550",
"e 	c #437839",
"f 	c #49833C",
"g 	c #619B4A",
"h 	c #77A562",
"i 	c #74A75B",
"j 	c #70A753",
"k 	c #6FA05D",
"l 	c #70A458",
"m 	c #679F4E",
"n 	c #598F45",
"o 	c #669F4D",
"p 	c #74A251",
"q 	c #79964D",
"r 	c #709F4E",
"s 	c #7F7E43",
"t 	c #6FA752",
"u 	c #6DA551",
"v 	c #69A44E",
"w 	c #5F9649",
"x 	c #4C813E",
"y 	c #528841",
"z 	c #578C44",
"A 	c #639C4B",
"B 	c #568B44",
"C 	c #4E803F",
"D 	c #69A44F",
"E 	c #5C9846",
"F 	c #7EA36E",
"G 	c #7BA06D",
"H 	c #769C4F",
"I 	c #7D8F4A",
"J 	c #6FA05C",
"K 	c #63A04A",
"L 	c #6DA550",
"M 	c #69A04F",
"N 	c #427C39",
"O 	c #48823C",
"P 	c #67A34D",
"Q 	c #72A757",
"R 	c #78A564",
"S 	c #6DA751",
"T 	c #70A655",
"U 	c #7D9877",
"V 	c #70A854",
"W 	c #6AA44F",
"X 	c #639A4B",
"Y 	c #5F9549",
"Z 	c #689F4E",
"` 	c #4A863C",
" .	c #4B843D",
"..	c #6DA651",
"+.	c #4F8540",
"@.	c #3B6E36",
"#.	c #6EA652",
"$.	c #5B9646",
"%.	c #779049",
"&.	c #7D8E4A",
"*.	c #71A753",
"=.	c #808044",
"-.	c #71A250",
";.	c #6CA552",
">.	c #779D6B",
",.	c #72A756",
"'.	c #7E8747",
").	c #759A4D",
"!.	c #70A459",
"~.	c #80967C",
"{.	c #73A55C",
"].	c #71A150",
"^.	c #75A461",
"/.	c #74A360",
"(.	c #6EA751",
"_.	c #6CA650",
":.	c #6DA356",
"<.	c #8C9A88",
"[.	c #8B9C84",
"}.	c #6CA451",
"|.	c #528742",
"1.	c #739A6A",
"2.	c #72A250",
"3.	c #818145",
"4.	c #4B853D",
"5.	c #649E4C",
"6.	c #71A855",
"7.	c #6FA852",
"8.	c #789A6F",
"9.	c #72A659",
"0.	c #5B9047",
"a.	c #4D833F",
"b.	c #46843A",
"c.	c #64A04B",
"                                                                                                                                ",
"                                                                                                                                ",
"    . .             + @                   #                                                 $ %             &                   ",
"    * = - ;         @                   > , '                                               ) !           ~ {       ] ]         ",
"    ^ / (                               @ _ :                                     < [ }                             | 1         ",
"      @ 2                                                                         3 4 5                                         ",
"                                                                                                                      &         ",
"@ 6           7 8 9 0                                                                                                 a b       ",
"  c           d e f g                                 h i                                                             j         ",
"                d d @                                 k l                                                                       ",
"    . m                                                                                                                         ",
"    n o                                                                                                                         ",
"                                                                                                                                ",
"                                                                                                                                ",
"                                                                      @                       p q               &               ",
"                                                                      6 c                     r q             j s &             ",
"    t t       u   ;             v v                                                                             j               ",
"    v v       w x y             t t                                                 z                                           ",
"                6 @                                     t v                         A B C                                       ",
"                                                        t v                         D E o                                       ",
"                    @                                           @ +                                                   F G       ",
"                  c 6                                             @                           H I                     J K       ",
"                                                                                              L H                               ",
"                                                                                                                                ",
"                                                                                                                                ",
"                                                                                                                                ",
"                    @                                                                                                           ",
"  M 8 9             + @               c                                                                                 ] ]     ",
"  d N O                       c 6     P c                                       Q R                                     | 1     ",
"    d S                         @                                               T U V                                           ",
"            v v                   W @                                                                                     1 ]   ",
"    W W     t t                   W @                                                                                     | ]   ",
"    @ @                                                   @ W                                               X Y 7               ",
"                  Z 7                                 c   @ W                                             d `  .                ",
"              ..+.@...                                P c                                 &                                     ",
"              #.$.$.@                     P c                                             a b                                   ",
"                                          c                                               j                                     ",
"                                                                                                                                ",
"                                                                                                            $ $                 ",
"                                                                                                            %.%     q q         ",
"                @ +                                           W @                                         1 ]   % $ r p % $     ",
"                  @                                           W @   c             &.b                     | ]   %.$ ] ] %.$     ",
"                                    + @                           c P             ~ *.      &         c =.& &       | 1         ",
"  h '                               @                                                     j s &         -.  s ]         { &     ",
"  ;.>.    i R ,.                                                                      &     j @               '.b ).{   ~       ",
"          !.~.{.              P c                                                     a b     @               ].  @ & *.b       ",
"                              c                                                       j                               ~ &.      ",
"                                                                                                                                ",
"  ^./.                                                                                                                          ",
"  (._.                                                                                                                          ",
"                                                                                                                                ",
"                                    c                                                                                           ",
"      # #                   @   v t 6 @   6 c                                                                           $ %     ",
"    :.<.[.#                 + @ v d   c P @                                                               7 }.|.        ) ! j   ",
"    P 1.>.                    @ ^ 6     c @                                     2.3.                      [ 4.5.            =.& ",
"                    6.        @ W c       6 c                                   7.2.                c     @ d t       9 5   -.  ",
"                  V 8.9.        @ 6                                                         ! %                   7 0.a.9       ",
"                                      P c                                                   ) $                   c b.c.        ",
"                                @     c                                                                                         ",
"                                + @                                                                                             ",
"                                                                    + @                         % $                             ",
"                                                                    @                           %.$                             ",
"                                                                                                    W @                         ",
"                                                                                                                                "};
