/* XPM */
static char * HEDGE_1C_xpm[] = {
"64 64 179 2",
"  	c #002922",
". 	c #16582E",
"+ 	c #094227",
"@ 	c #003422",
"# 	c #316A1F",
"$ 	c #4C7C11",
"% 	c #70A853",
"& 	c #6EA752",
"* 	c #74A251",
"= 	c #79964D",
"- 	c #65A14C",
"; 	c #6CA550",
"> 	c #709F4E",
", 	c #69A44E",
"' 	c #6FA752",
") 	c #578C44",
"! 	c #639C4B",
"~ 	c #568B44",
"{ 	c #4E803F",
"] 	c #6EA551",
"^ 	c #2A421D",
"/ 	c #000000",
"( 	c #13210B",
"_ 	c #699D4D",
": 	c #3A5A29",
"< 	c #1A2E11",
"[ 	c #6BA14F",
"} 	c #639549",
"| 	c #040A02",
"1 	c #395929",
"2 	c #63A04B",
"3 	c #56833F",
"4 	c #5D8D45",
"5 	c #4C7437",
"6 	c #578440",
"7 	c #14230C",
"8 	c #456B32",
"9 	c #769C4F",
"0 	c #7D8F4A",
"a 	c #6EA652",
"b 	c #2C451E",
"c 	c #16270E",
"d 	c #6A9F4E",
"e 	c #385828",
"f 	c #263E1A",
"g 	c #6DA451",
"h 	c #6DA550",
"i 	c #64964A",
"j 	c #060F03",
"k 	c #3C5D2B",
"l 	c #55813E",
"m 	c #629448",
"n 	c #4E7639",
"o 	c #598741",
"p 	c #689D4D",
"q 	c #4C7538",
"r 	c #6FA652",
"s 	c #2E4920",
"t 	c #1A2B11",
"u 	c #6BA04F",
"v 	c #70A753",
"w 	c #365527",
"x 	c #2F4A21",
"y 	c #65984A",
"z 	c #081204",
"A 	c #3F612D",
"B 	c #547F3D",
"C 	c #0C1807",
"D 	c #66994B",
"E 	c #4F793A",
"F 	c #5B8A43",
"G 	c #679C4C",
"H 	c #101D09",
"I 	c #537E3C",
"J 	c #67A34D",
"K 	c #304C22",
"L 	c #1D3013",
"M 	c #6FA753",
"N 	c #345225",
"O 	c #72A757",
"P 	c #78A564",
"Q 	c #0A1506",
"R 	c #42652F",
"S 	c #15250D",
"T 	c #70A655",
"U 	c #7D9877",
"V 	c #70A854",
"W 	c #6AA44F",
"X 	c #517B3B",
"Y 	c #679B4C",
"Z 	c #0E1B08",
"` 	c #588641",
" .	c #324F24",
"..	c #203516",
"+.	c #335024",
"@.	c #3E602D",
"#.	c #243A19",
"$.	c #1E3214",
"%.	c #68A04F",
"&.	c #507B3A",
"*.	c #3B6E36",
"=.	c #6DA651",
"-.	c #66A24D",
";.	c #325024",
">.	c #466B33",
",.	c #73A351",
"'.	c #5B9646",
").	c #609147",
"!.	c #619348",
"~.	c #7C8545",
"{.	c #779C4F",
"].	c #355326",
"^.	c #2D4820",
"/.	c #527C3C",
"(.	c #4D7638",
"_.	c #65994B",
":.	c #639649",
"<.	c #436731",
"[.	c #273F1B",
"}.	c #2B441E",
"|.	c #6EA552",
"1.	c #213616",
"2.	c #6CA350",
"3.	c #5F9147",
"4.	c #4B7337",
"5.	c #629348",
"6.	c #020501",
"7.	c #5E8F46",
"8.	c #476D34",
"9.	c #7D8E4A",
"0.	c #76934A",
"a.	c #73A251",
"b.	c #263D1A",
"c.	c #456A32",
"d.	c #69A14E",
"e.	c #213816",
"f.	c #28411C",
"g.	c #73994C",
"h.	c #71A753",
"i.	c #808044",
"j.	c #233918",
"k.	c #6DA350",
"l.	c #5F9046",
"m.	c #497035",
"n.	c #7F7E43",
"o.	c #71A250",
"p.	c #609046",
"q.	c #619247",
"r.	c #1E3114",
"s.	c #476D33",
"t.	c #476C33",
"u.	c #426630",
"v.	c #699E4E",
"w.	c #496F35",
"x.	c #6CA250",
"y.	c #233817",
"z.	c #375627",
"A.	c #28401B",
"B.	c #446931",
"C.	c #537E3D",
"D.	c #3F622E",
"E.	c #5E8E45",
"F.	c #669A4B",
"G.	c #0C1806",
"H.	c #4A7236",
"I.	c #1B2D11",
"J.	c #1F3415",
"K.	c #6BA550",
"L.	c #68A34E",
"M.	c #72A250",
"N.	c #818145",
"O.	c #71A855",
"P.	c #6FA852",
"Q.	c #72A659",
"R.	c #79924A",
"S.	c #7B934C",
"T.	c #6FA451",
"U.	c #71A652",
"V.	c #779049",
"  . . . + + @ @ @   + # # @       @ @       @ @ . . .       + + +       @ @ @ + + . . . + + # #   + . . .       + + +     # #   ",
"# # # + + . . .       + + @ . . . + + . . . + # # # @ @ @     + + . . .   @ @ + +   # # # +       # # # + @       + + + @   + + ",
"# # + +   @ # # #         # # # + + # # # @ # # # @ @ @         # # #       @ @       # # @       # # + +     . . . + + @ + + + ",
"  @ @ @       # # #     # # # @ + + # # @ @ $ # + + @         @ # # + + + . . .       + + +       @ @ @         # # #   . . .   ",
"+ + . . .   + + # $     $ # @             @ @   + +     . . . @ @     + # # # @ @ @     + + +   . . . +       + + # # # + # # # ",
"# + + # # # + + @ # @   @ @       . . . + + +         + + # # #   @ @ # # # +   @ . . .   + + # # # + + +       + + # $     # # ",
"$   + + # # #     @ @   . . .     @ # # # +   @ . . . + +   # # # + + $ # + +   + + # # #   + # #     . . .       + + @   + + # ",
"          # $     + + + . . + + @ @ + # # +   # # # + +       # $ +   @ @     . + + + # # @ @ @     @ @ # # #       @ . . . + @ ",
". .         #   + + + @ @ @ + + + @ + +   @ @ # # @ @ @       + + . . .     . . . @ + +     @ . . . @ @   # # + + + # # # + @ . ",
"# # # +       + + + @ . . .   + +   . . . @ @       @ . . .     # # # @ % % # . + % @ . . .   @ . . +       + + +   # #         ",
"  # # + + @ @ + +   # # # +   % % % @ # # # % % % % # # # @ % % $ # + % % % % % % % % + # # # % % + . . . + + . . . @ @         ",
"@ @   + . . . @     # # + % % % % % % + # $ % % % % # # + % % % % % % % % % % % % % % % + # # % % # # #   + +   # # #   + + + @ ",
". @ @ # # # @ @   + + + % % % % % % % % % % % % % % % % % % % % % % % % % % % % % % % % % % % % % # # @ % %   @ @ # # # + + . . ",
"  @ # # #         + % % % % % % % % % % % % % % % % % % % % % % % % % % % % % % % % % % % % % % % % % % % %   @ @   # $ + # # # ",
"+ + $ #       . . . % % % % % % % % % % % % % % % % % % % % % % % % % & % % % % % % % % % % % * = % % % % # #       + +   # #   ",
"@ + # +         # # # % % % % % % % % % % % % % % % % % % % % % % % % - ; % % % % % % % % % % > = % % % % # # #             @ @ ",
"    + + @ @ @     # # % % % % % , , % % % % % % % % % % % % % % % % % % % % % % % % % % % % % % % % % % % + # $     . . . + + @ ",
"      @ @ @   + + + % % % % % % ' ' % % % % % % % % % % % % % % % % % % % % % % % % ) % % % % % % % % % % %   # @ @   # # # + + ",
"  . . . @       + + + % % % % % % % % % % % % % % % % % ' , % % % % % % % % % % % % ! ~ { % % % % % % % % % %   @ @ @   # # + + ",
"# # # + + + . . . + + % % % % % % ] ^ / / / ( _ % % % % ' , % % % % % % % % % % : / / / < [ % % % % % % % % + . . . + + +       ",
"# # + + + # # #   @ & % % % % % % % } | / / / 1 % % % % % % % % & 2 % % % % % 3 / / / / 4 % % % % % % % % % # # #   @ + + + @ @ ",
"  + + + # # #   @ @ - % % % % % % % % 5 / / / / 6 % % % % % % % % & % % % % _ 7 / / / 8 % % % 9 0 % % % % % # #         + + + @ ",
". + + @ $ # + + + % % % % % % % % % % a b / / / c d % % % % % % % % % % % % e / / / f g % % % h 9 % % % % % %   @ . . .   + . . ",
"    @ @   + + . . . % % % % % % % % % % i j / / / k % % % % % % % % % % % l / / / | m % % % % % % % % % % % %   # # # @   # # # ",
"@ . . .   + + @ # # # % % % % % % % % % % n / / / / o % % % % % % % % % p ( / / / q % % % % % % % % % % % % + # # # @ @ # # # @ ",
"+ + # # # @ @ @   # # # % % % % % % % % % r s / / / t u % % % % % % % v w / / / x r % % % % % % % % % % % + @ $ # + + + $ #   + ",
"+ + + # # @ @     @ # $ % % % % % % % % % % y z / / / A % % % % % % % B / / / C D % % % % % % % % % % % + @   # + + +           ",
"  + + +             2 & % % % % % % % ; % % % E / / / / F % % % % % G H / / / I % % % % % % % % % % % % .     + + + @ . . .     ",
"  . . .       . . . % % % % % ; - % % J ; % % ' K / / / L [ % % % M N / / / w v O P % % % % % % % % % % # #   + +   @ @ # # #   ",
"    # # # @ + + # # # % % % % % & % % % % % % % D Q / / / R % % % I / / / S _ % T U V % % % % % % % % % # # #         + + # # # ",
"      # # # + +   # # % % % % % % W & % % % % % % X / / / / 4 % Y Z / / / ` % % % % % % % % % % % % % % % # $ @ . . . + + @ # $ ",
"    @ @ # $ +   @ @ % % % % % % % W & % % % % % % '  ./ / / ..[ +./ / / @.% % % % % % % % % % % % % % % % + # + + # # #       # ",
". . @ @ + +   . . . % % % % % % % % % % % % % % % % Y Z / / / #./ / / $.[ % % % % % % % % % % % % % % % % %     + + # #   + + + ",
"# # #       # # # + %.% % % % % % % % % % % % % % % % &./ / / / / / / 4 % % % % % % % % % % % % % % % % % . . . @ + +   + + +   ",
"  # #     # # # + *.=.% % % % % % % % % % % % % % % % -.;./ / / / / >.% % % % % % % % % % ,.% % % % % % # # #   @ @   + . . .   ",
"@ + + +   $ # + '.'.& % % % % % % % % % % J ; % % % % % )./ / / / / !.% % % % % % % % % % ~.{.% % % % # # # + +       # # #   @ ",
"@ @ + + + # @   % % % % % % % % % % % % % ; % % % % % M ]./ / / / / ^.r % % % % % % % % % v % % % % % $ # + +       # # #       ",
"  . . . + +   + + % % % % % % % % % % % % % % % % % % /./ / / / / / / (.% % % % % % % % % % % % % % % % + . . .   @ $ #   + + + ",
"+   # # # +   . + % % % % % % % % % % % % % % % % % _.Q / / / ]./ / / | :.% % % % % % % % % % % % % % + # # #     + + +     + + ",
"+     # # # @ @ @ % % % % % % % % % % % % % % % % a s / / / <.] [./ / / }.|.% % % % % % % % % % % % % % # #         + + + . . . ",
"  @ @ @ # $   @ + + % % % % % % % % % % % % % % % 5 / / / 1.2.W 3./ / / / 4.% % % % % % % % % % % % % % %         . . . +   # # ",
"+   @ + + #   + + + % % % % % % % % % % % % % % 5.6./ / / 7.% W & 8./ / / 6.m % % 9.{.% % % % % % % % % % 0.a.+ # # #   @ @ + # ",
". . + + +   + + + % % % % % % % % % 2 & % % % g b./ / / c.% % % % d.e./ / / f.] % g.h.% % % ,.% % % % ; i.,.,.+ # #       + + + ",
"# # # +     . . . % % % % % % % % % & % % % % 8 / / / j.k.% % % % % l./ / / / m.% % % % % v n.,.% % % % o.% n.+ + +     + + + @ ",
"@ # #   @ # # #     % % % % % % % % % % % % 4 / / / / p.% % % % % % % c./ / / 6.q.% % ,.% % v & % % % % % % %   + + . . . +   @ ",
"  + + + # # #   @ @ @ % % % % J ; % % % % [ r./ / / s.% % % % % % % % 2.1./ / / b.g % ~.{.% % & % % % % % % . . .   @ # # #     ",
"    + + $ #   @ + + + % % % % ; % % % % % @./ / / b.g % % % % % % % % % 4 / / / / t.% v % % % % % % % % % # # #       @ # # +   ",
". . @ + + +   + + + % % % % % % % % % % ` / / / 6.q.% % % % % % % % % % % u./ / / / l.% % % % % % % % % % # #         + + + @ . ",
"#       . . .         % % % % % % % % v.S / / / w.% % % % % % % % % % % % x.r./ / / y.2.% % % % % % % % %       @ @ @     @ # # ",
"    + # # # @ @   . . . % % % % % % v z./ / / A.g % % % % % % % % % % % % % F / / / / B.% % % % % % % % % . . .   @ @ + + # # # ",
"      # # + @ @ # # # + % % % % % % C./ / / 6.m % % % % % % % % % % % % % % % D./ / / / E.% % % % % % % # # #       + + + $ #   ",
"@ @ @   + + + # # # + % % % % % % F.G./ / / H.% % % % % % % % % % % % % % % % u I./ / / J.x.% % % % % # # # + . . . + + @       ",
"+ . . .   + + # # @ % % % % & % , ' - & % - ; % % % % % % % % % % % % % % % % % % % % % % % % % % % % $ # +     # # #       + + ",
"    # # #         % % % % % 2 & , K.% ; J & % % % % % % % % % % % % % % % % % % % % % % % % % % % % % # +       @ # # #   . . . ",
"#   + # # #         % % % % % & L.- % % ; & % % % % % % % % % % % % % % % % % % M.N.% % % % % % % % % % %     + + + # $ + + # # ",
"#     + # $   . . . O.% % % % & W ; % % % - ; % % % % % % % % % % % % % % % % % P.M.% % % % % % % % ; % % &   @ + + + @ + +   # ",
"        + + @ + # # # Q.% % % % & - % % % % % % % % % % % % % % % % % % % % % % % % % % % % R.S.% % % % % . . .   + . . .       ",
". . .     @ @ + + # # % % % % % % % % J ; % % % % % % % % % % % % % % % % % % % % % % % % % T.U.% % % % # # # @ @ # # #         ",
"# #         @ @   % % % % % % % & % % ; % % % % % % % % % % % % % % % % % % % % % % % % % % % % % % % % $ #     # # #   + + . . ",
"#         . . .   @ % % % % % % 2 & % % % % % % % % % % % % % % % % % % % % % % % % % % % % % % % % % % % % @ + $ # @ @   # # # ",
"+     @ # # #   @ @ % % % % % % % % % % % % % % % % % % % % % % % % 2 & % % % % % % % % % % % % S.U.% % % % % +     + + + # # + ",
"+   @ # # #   @ @ @ % % % % % % % % % % % % % % % % % % % % % % % % & % % % % % % % % % % % % % V.U.% % % @ + . .     + + +   + ",
"  @ @ $ #     @ @ . . . % % % % % % % % % % % % % % % % % % % % % % % % % % % % % % % % % % % % % % W & % @ . # # # @ . . .     ",
"  @ @ #           + # # # % % % % % % % % % % % % % % % % % % % % % % % % % % % % % % % % % % % % % % % @ + . + # # @ @ # # #   "};
