/* XPM */
static char * white_up_arrow_icon_image_xpm[] = {
"64 64 4 1",
" 	c None",
".	c #FEFEFE",
"+	c #FFFFFF",
"@	c #FDFDFD",
"                                                                ",
"                                                                ",
"                                                                ",
"                                                                ",
"                                                                ",
"                                                                ",
"                                                                ",
"                                                                ",
"                                                                ",
"                                                                ",
"                                                                ",
"                               ..                               ",
"                              .+++.                             ",
"                             .+++++.                            ",
"                            .+++++++                            ",
"                           .+++++++++                           ",
"                           +++++++++++                          ",
"                          ++++++++++++.                         ",
"                         ++++++++++++++.                        ",
"                        ++++++++++++++++.                       ",
"                       .+++++++++++++++++                       ",
"                      +++++++@++++..++++++                      ",
"                     .++++++ .+++++ .++++++                     ",
"                    .++++++  .+++++  ++++++.                    ",
"                   .++++++   .+++++   ++++++.                   ",
"                   .+++++    .+++++    +++++.                   ",
"                   .++++@    .+++++     ++++.                   ",
"                    .++.     .+++++      +++                    ",
"                             .+++++                             ",
"                             .+++++                             ",
"                             .++++.                             ",
"                             .++++.                             ",
"                             .+++++                             ",
"                             .+++++                             ",
"                             .+++++                             ",
"                             .+++++                             ",
"                             .+++++                             ",
"                             .+++++                             ",
"                             .+++++                             ",
"                             .+++++                             ",
"                             .+++++                             ",
"                             .+++++                             ",
"                             .+++++                             ",
"                             .+++++                             ",
"                             .++++.                             ",
"                             .++++.                             ",
"                             .++++.                             ",
"                             .++++.                             ",
"                             .++++.                             ",
"                             .++++.                             ",
"                              +  +.                             ",
"                              ++++                              ",
"                               ..                               ",
"                                                                ",
"                                                                ",
"                                                                ",
"                                                                ",
"                                                                ",
"                                                                ",
"                                                                ",
"                                                                ",
"                                                                ",
"                                                                ",
"                                                                "};
