/* XPM */
static char * Character_red_left_xpm[] = {
"55 64 484 2",
"  	c #70A853",
". 	c #63A04B",
"+ 	c #6EA752",
"@ 	c #70A852",
"# 	c #6EA652",
"$ 	c #6EA24B",
"% 	c #6FA652",
"& 	c #71A652",
"* 	c #7B934C",
"= 	c #73A351",
"- 	c #60974A",
"; 	c #61994A",
"> 	c #77A561",
", 	c #8F998C",
"' 	c #7EA26F",
") 	c #6C9E46",
"! 	c #678713",
"~ 	c #698700",
"{ 	c #688700",
"] 	c #688A1E",
"^ 	c #6DA34E",
"/ 	c #6FA451",
"( 	c #79924A",
"_ 	c #73994C",
": 	c #7F8848",
"< 	c #73A251",
"[ 	c #49813C",
"} 	c #66A14E",
"| 	c #6CA551",
"1 	c #6C9F4B",
"2 	c #688703",
"3 	c #698701",
"4 	c #698801",
"5 	c #69912E",
"6 	c #5A9146",
"7 	c #589045",
"8 	c #649B4C",
"9 	c #76934A",
"0 	c #6CA651",
"a 	c #689844",
"b 	c #648310",
"c 	c #669F4C",
"d 	c #5D9A47",
"e 	c #69A14F",
"f 	c #689D4D",
"g 	c #5F8C3E",
"h 	c #5E790C",
"i 	c #637E19",
"j 	c #688601",
"k 	c #65840B",
"l 	c #70A753",
"m 	c #68A04F",
"n 	c #68A04E",
"o 	c #6FA753",
"p 	c #588F45",
"q 	c #6EA351",
"r 	c #968046",
"s 	c #C16140",
"t 	c #E05041",
"u 	c #ED303D",
"v 	c #FA3142",
"w 	c #FC3344",
"x 	c #FC3042",
"y 	c #ED323D",
"z 	c #BD492F",
"A 	c #797A26",
"B 	c #65861B",
"C 	c #6FA54F",
"D 	c #6D9F47",
"E 	c #6EA049",
"F 	c #6FA550",
"G 	c #6BA550",
"H 	c #437839",
"I 	c #49833C",
"J 	c #619B4A",
"K 	c #6D9E4E",
"L 	c #A37B45",
"M 	c #E83E3F",
"N 	c #FD3142",
"O 	c #FC3142",
"P 	c #FC3143",
"Q 	c #F12F3F",
"R 	c #97641F",
"S 	c #62821D",
"T 	c #698D22",
"U 	c #688701",
"V 	c #6D9D44",
"W 	c #8F954D",
"X 	c #EA4040",
"Y 	c #FA3041",
"Z 	c #BC502C",
"` 	c #658201",
" .	c #678714",
"..	c #6EA552",
"+.	c #948C49",
"@.	c #F53842",
"#.	c #D44635",
"$.	c #6A8204",
"%.	c #6B9E49",
"&.	c #928948",
"*.	c #F2323F",
"=.	c #FD3042",
"-.	c #FC3041",
";.	c #FC3244",
">.	c #CB4735",
",.	c #668401",
"'.	c #629141",
").	c #908E4A",
"!.	c #F53140",
"~.	c #CF4E33",
"{.	c #698303",
"].	c #688608",
"^.	c #6B9F4D",
"/.	c #739F4F",
"(.	c #EB4441",
"_.	c #F52E40",
":.	c #AE1E2A",
"<.	c #89151F",
"[.	c #A91D29",
"}.	c #F93041",
"|.	c #FB3041",
"1.	c #B65A2A",
"2.	c #658F38",
"3.	c #CE5D41",
"4.	c #EA2C3D",
"5.	c #5F0B13",
"6.	c #000000",
"7.	c #CFCFCF",
"8.	c #B2B2B2",
"9.	c #CE2634",
"0.	c #FB3042",
"a.	c #897435",
"b.	c #67943C",
"c.	c #689337",
"d.	c #679138",
"e.	c #6C9B42",
"f.	c #6FA651",
"g.	c #74A251",
"h.	c #79964D",
"i.	c #A57F46",
"j.	c #751019",
"k.	c #626262",
"l.	c #565656",
"m.	c #F2F2F2",
"n.	c #B1B1B1",
"o.	c #B31F2C",
"p.	c #E04443",
"q.	c #698502",
"r.	c #688813",
"s.	c #6B9C45",
"t.	c #709F4E",
"u.	c #7F7E43",
"v.	c #6DA551",
"w.	c #719E4E",
"x.	c #EC343D",
"y.	c #D92838",
"z.	c #EEEEEE",
"A.	c #D1D1D1",
"B.	c #AB6A25",
"C.	c #68870A",
"D.	c #6DA34F",
"E.	c #5F9649",
"F.	c #AC5C3A",
"G.	c #BC212F",
"H.	c #FBFBFB",
"I.	c #C8C8C8",
"J.	c #C32431",
"K.	c #FD3143",
"L.	c #E43E3A",
"M.	c #6B9D46",
"N.	c #578C44",
"O.	c #E3453F",
"P.	c #AF1E2B",
"Q.	c #110101",
"R.	c #6F6F6F",
"S.	c #323232",
"T.	c #E12B3B",
"U.	c #7E7B11",
"V.	c #6B9C46",
"W.	c #639C4B",
"X.	c #568B44",
"Y.	c #4E803F",
"Z.	c #6CA250",
"`.	c #C62432",
" +	c #D22635",
".+	c #9B1924",
"++	c #77121A",
"@+	c #A71C28",
"#+	c #A81D29",
"$+	c #B16728",
"%+	c #688807",
"&+	c #6DA24E",
"*+	c #69A44F",
"=+	c #5C9846",
"-+	c #669F4D",
";+	c #75994C",
">+	c #EB2C3D",
",+	c #C32331",
"'+	c #F62F40",
")+	c #DC2938",
"!+	c #BD222F",
"~+	c #F12F40",
"{+	c #D25134",
"]+	c #678A1D",
"^+	c #76994C",
"/+	c #DD2939",
"(+	c #CB2533",
"_+	c #EC2D3E",
":+	c #EE363E",
"<+	c #638001",
"[+	c #668D2D",
"}+	c #769C4F",
"|+	c #7D8F4A",
"1+	c #789A4D",
"2+	c #64830B",
"3+	c #678C25",
"4+	c #6EA551",
"5+	c #6DA550",
"6+	c #F33541",
"7+	c #FC3243",
"8+	c #867F18",
"9+	c #688E2D",
"0+	c #D66244",
"a+	c #F32F40",
"b+	c #9F7120",
"c+	c #678504",
"d+	c #AC864A",
"e+	c #F22E3F",
"f+	c #ED2D3D",
"g+	c #ED2C3D",
"h+	c #E92C3C",
"i+	c #EF2D3E",
"j+	c #B06E26",
"k+	c #70A752",
"l+	c #74A451",
"m+	c #EC4241",
"n+	c #F93042",
"o+	c #AF6C26",
"p+	c #A5884A",
"q+	c #E52D3D",
"r+	c #AE6C26",
"s+	c #66850B",
"t+	c #C96844",
"u+	c #ED2E3E",
"v+	c #E62B3B",
"w+	c #AE6C28",
"x+	c #658203",
"y+	c #668B2C",
"z+	c #6F9F50",
"A+	c #78A564",
"B+	c #B97345",
"C+	c #F83041",
"D+	c #E32A3A",
"E+	c #F32E3F",
"F+	c #799470",
"G+	c #70A854",
"H+	c #69A44E",
"I+	c #92924C",
"J+	c #DE5341",
"K+	c #F0313E",
"L+	c #CF6B30",
"M+	c #DB2938",
"N+	c #B9662A",
"O+	c #688F30",
"P+	c #6FA752",
"Q+	c #88994E",
"R+	c #A48A4B",
"S+	c #AE9828",
"T+	c #C4AB23",
"U+	c #CAB522",
"V+	c #BCC219",
"W+	c #BADA02",
"X+	c #B5AB1B",
"Y+	c #CB5B32",
"Z+	c #678611",
"`+	c #A27B44",
" @	c #A3C41F",
".@	c #C0E201",
"+@	c #C0E001",
"@@	c #D57031",
"#@	c #E73D3C",
"$@	c #678508",
"%@	c #74A150",
"&@	c #CB5943",
"*@	c #5F9549",
"=@	c #689F4E",
"-@	c #ADC608",
";@	c #C0DD01",
">@	c #C0DC01",
",@	c #C0DB01",
"'@	c #B5CF03",
")@	c #EF2F3F",
"!@	c #FA3042",
"~@	c #78790F",
"{@	c #BF7446",
"]@	c #C35B3D",
"^@	c #4B843D",
"/@	c #6DA651",
"(@	c #4F8540",
"_@	c #3B6E36",
":@	c #6DA351",
"<@	c #B2D101",
"[@	c #BEAB1F",
"}@	c #BD5E2D",
"|@	c #69953B",
"1@	c #71A351",
"2@	c #EF3D41",
"3@	c #B7814A",
"4@	c #5B9646",
"5@	c #BCD401",
"6@	c #C0DE01",
"7@	c #D26E31",
"8@	c #F13A3F",
"9@	c #708F37",
"0@	c #7C8545",
"a@	c #779C4F",
"b@	c #C07246",
"c@	c #9C8949",
"d@	c #6CA350",
"e@	c #C0E101",
"f@	c #B4D002",
"g@	c #F2313F",
"h@	c #D16C46",
"i@	c #71A752",
"j@	c #AB874B",
"k@	c #978C4A",
"l@	c #BFDB01",
"m@	c #B1AC18",
"n@	c #CC6C45",
"o@	c #B8834A",
"p@	c #FB3142",
"q@	c #8C984F",
"r@	c #B7D603",
"s@	c #C79726",
"t@	c #C77247",
"u@	c #7FA050",
"v@	c #D56A47",
"w@	c #829B4E",
"x@	c #B1D113",
"y@	c #D47431",
"z@	c #D85742",
"A@	c #898947",
"B@	c #749C4D",
"C@	c #749C4E",
"D@	c #918949",
"E@	c #C56343",
"F@	c #F82F41",
"G@	c #738B46",
"H@	c #ACC721",
"I@	c #DF4439",
"J@	c #EA4140",
"K@	c #9EC12D",
"L@	c #B8D802",
"M@	c #DC5141",
"N@	c #779049",
"O@	c #8AAE3A",
"P@	c #AFCE02",
"Q@	c #CC6F47",
"R@	c #7AA846",
"S@	c #A8C002",
"T@	c #A78B4C",
"U@	c #74A75B",
"V@	c #72A756",
"W@	c #B9D503",
"X@	c #ABB90E",
"Y@	c #E94A42",
"Z@	c #70A552",
"`@	c #7E8747",
" #	c #759A4D",
".#	c #70A459",
"+#	c #80967C",
"@#	c #73A55C",
"##	c #67A34D",
"$#	c #6CA550",
"%#	c #A6C520",
"&#	c #B4B315",
"*#	c #9B8D4C",
"=#	c #71A150",
"-#	c #94B936",
";#	c #B7BA15",
">#	c #D46144",
",#	c #73A248",
"'#	c #B2C904",
")#	c #F63942",
"!#	c #839C4F",
"~#	c #A2C425",
"{#	c #DB5836",
"]#	c #F63541",
"^#	c #A2904D",
"/#	c #77A84A",
"(#	c #B09D1C",
"_#	c #F04042",
":#	c #94924C",
"<#	c #83AC3C",
"[#	c #C76F2C",
"}#	c #F83142",
"|#	c #E65043",
"1#	c #829C4F",
"2#	c #7A9A36",
"3#	c #E2343A",
"4#	c #F33041",
"5#	c #D36545",
"6#	c #75A251",
"7#	c #65A14C",
"8#	c #917E41",
"9#	c #F43741",
"0#	c #EE3041",
"a#	c #EB2D3D",
"b#	c #F83344",
"c#	c #D86045",
"d#	c #9B914C",
"e#	c #8B9C84",
"f#	c #7D9E50",
"g#	c #D95541",
"h#	c #EB2F3F",
"i#	c #E62C3C",
"j#	c #7A8F48",
"k#	c #6CA451",
"l#	c #528742",
"m#	c #779D6B",
"n#	c #68A34E",
"o#	c #DA6345",
"p#	c #C85B40",
"q#	c #D46B47",
"r#	c #D46C47",
"s#	c #CB7349",
"t#	c #C57547",
"u#	c #C77849",
"v#	c #C97949",
"w#	c #BC7D49",
"x#	c #CA593F",
"y#	c #6E994C",
"z#	c #4B853D",
"A#	c #649E4C",
"B#	c #71A855",
"C#	c #6AA44F",
"D#	c #DF6145",
"E#	c #89974D",
"F#	c #BF7747",
"G#	c #709C4E",
"H#	c #789A6F",
"I#	c #72A659",
"J#	c #DE6346",
"K#	c #F13C41",
"L#	c #C57748",
"M#	c #F73742",
"N#	c #5B9047",
"O#	c #D26644",
"P#	c #FC2F41",
"Q#	c #CB6B45",
"R#	c #B87646",
"S#	c #ED3D40",
"T#	c #46843A",
"U#	c #BB8164",
"V#	c #F05B63",
"W#	c #EC4953",
"X#	c #EE6168",
"Y#	c #E96D73",
"Z#	c #8D944C",
"`#	c #AA8652",
" $	c #F08387",
".$	c #F53D4A",
"+$	c #F73242",
"@$	c #ED898D",
"#$	c #CE6B45",
"$$	c #ADC3A5",
"%$	c #E0B1B2",
"&$	c #F5F5F5",
"*$	c #E3ABAC",
"=$	c #BFC6B6",
"-$	c #85AD74",
";$	c #E9C2C4",
">$	c #EFE3E3",
",$	c #DEACAE",
"'$	c #F2F3F1",
")$	c #819B51",
"!$	c #71A756",
"~$	c #9D8662",
"{$	c #B6C5B0",
"]$	c #75924E",
"^$	c #88964E",
"/$	c #A9BE9E",
"($	c #9BA476",
"_$	c #75A85D",
"                                                                                                              ",
"                                                                                                              ",
"            . +                   @       # $ $ %                                   & *             =         ",
"- ;         +                   > , '   ) ! ~ { ] ^                                 / (           _ :       < ",
"[                               + } | 1 2 3 { 3 4 5                       6 7 8                             9 ",
"0                                     a 3 3 3 3 3 b                       c d e                               ",
"                                  # f g h i j 3 3 k l                                                         ",
"      m n o p             q r s t u v w x y z A 3 B   C D E F                                                 ",
"      G H I J         K L M N x O P x x P O x Q R S T U 3 3 2 V                                               ",
"        G G +       W X x x x x x x x x x x x O Y Z ` 3 3 3 3  ...                                            ",
"                  +.@.x x O x x x x x x x x x x P O #.$.{ 3 { { %.                                            ",
"                &.*.x x =.P x x x x x x x -.=.x x x ;.>.,.4 4 4 '.                                            ",
"              ).!.x x O P P x x x x x x x x x -.x x x O ~.{.{ ].^.                                            ",
"            /.(.x x _.:.<.[.}.=.x x x x N |.x x x x x O x 1.3 2.                                              ",
"          o 3.x x 4.5.6.7.8.9.x x x x x x x x =.x x x x O 0.a.b.c.d.e.f.              g.h.              =     ",
"          i.x x |.j.k.l.m.n.o.x =.x x x x x x x x x x x O x p.q.3 3 3 r.s.            t.h.            l u.=   ",
"      v.w.x.x x y.6.z.A.6.6.o.O x =.x x x =.x =.x =.x x x x x B.3 { U 3 C.D.                            l     ",
"      E.F.x P x G.6.H.I.6.6.J.=.x x x =.x x O x =.x x |.x x K.L.3 3 3 3 4 M.N.                                ",
"        O.O x x P.Q.R.S.6.6.T.x x x x =.x x x x x x -.x x =.O x U.U 3 3 3 V.W.X.Y.                            ",
"      Z.Y O -.P `. +.+++@+#+P x x x x x x x x x x x x x N x x O $+4 3 3 %+&+*+=+-+                            ",
"      ;+x P x x >+,+'+)+!+~+x x x x x x x =.=.=.x x -.x x x =.P {+3 3 ]+V.                                    ",
"      ^+x P x x O /+(+_+P x x x x x x x x x x x x x x x x x x N :+<+[+f.              }+|+                    ",
"      1+x O x x x x x x x -.x x x x x x x x x x x x x x x =.-.P x 2+3 3+4+            5+}+                    ",
"      % 6+x 7+x x x x x x x x x x x x x x x x x x x x x x x -.x O 8+3 3 9+                                    ",
"        0+Y a+O O x P P 0.x x x x x x x x x x x x x =.x x x x x P b+~ ~ c+l                                   ",
"        d+x e+f+g+h+h+i+i+O x x x x x x x x x x x x x x -.x x x O j+~ 3 { k+                                  ",
"        l+m+P x 7+O P K.P =.x x x x x x x -.n+x x x x x x x -.x P o+4 { j                                     ",
"          p+P x x x x x x x -.x x x -.x O e+q+O x N x x x x x x K.r+3 3 s+                                    ",
"            t+7+x x x x x x x x -.x x x u+v+x x x x x x x x x x x w+x+y+z+A+                                  ",
"            k+B+n+P x x x x x x x x C+D+E+P x x x x x x x x x x ;.r+{ 3 ] F+G+                                ",
"    H+H+        I+J+P P x x x x K+L+M+O x x x x x x x x x x x x ;.N+3 4 3 O+                        #         ",
"    P+P+            Q+R+S+T+U+V+W+X+P x x x x =.x x -.x x x x x x Y+U 3 3 Z+                        `+        ",
"                         @.@.@.@+@@@O =.x x x x x x x x x x x x x #@3 3 3 $@                      %@&@*@m     ",
"          =@m           -@;@>@,@'@)@x =.x x x x x x x x x x x x x !@~@4 { b                       {@]@^@      ",
"      /@(@_@/@        :@<@.@.@.@[@x x x x x x x -.x x =.x x x x x x }@4 3 |@      =             1@2@3@        ",
"      # 4@4@+         :@5@.@.@6@7@O x x x x x x x |.x x x -.x -.x x 8@9@V.        0@a@          b@x c@        ",
"                      d@e@>@6@f@g@P x x x -.x x -.x =.x =.x x x x -.K.h@i@        l           j@Y x k@        ",
"                      d@l@.@.@m@x O x x x x x x x x x x -.x x x x x x P n@l                 o@p@x x q@        ",
"                      ..r@>@>@s@K.x x x x x =.x x x x =.x x -.x x x x x 7+t@P+          u@v@x x -.x w@&       ",
"                        x@.@.@y@x x x x x x x x x x x x x x x x x x x x x x z@A@B@C@D@E@!.-.x x x F@G@*     h.",
"        + .             H@>@>@I@P x x -.x x x x x x x x x x x x x -.x x x x x N P O x x x x x N x J@<   * & t.",
"          +             K@.@L@4.=.-.x x x x x x x x x x x x x =.x x x x x x x x x =.x x x x x x x M@<   N@& < ",
"                        O@+@P@i+x x x x x x x x x x x x x x =.x x x x x x x x x x x x x x x x x -.Q@=       9 ",
"                        R@;@S@x O x -.x x x x x x x x x x x x x x =.x x =.x x x x x x x x x x x x T@u.<       ",
"  U@A+V@                Z.W@X@x 7+x x x x x x x x x x x x x x x x x N x O x x x x x x x x x x x Y@Z@  `@a@ #: ",
"  .#+#@#              ##$#%#&#x O x x x x x x x x -.K.x x =.x x x x x x x x x x x x x x =.x -.P *#    =#  + = ",
"                      $#  -#;#x P x x x x x =.x x x x x x x x x x x x x x x x x x x -.x x x x >#              ",
"                          ,#'#F@x O x -.x x =.x x x =.x x x x x -.x x x x x x x x x x -.=.x )#!#              ",
"                            ~#{#-.O x -.x -.x -.x x x x x x x x x x -.x -.x x x x x -.x x ]#^#                ",
"                            /#(#}.x O x x x -.N x O x x x =.x x =.x x x x x x x x x x -._#:#                  ",
"                              <#[#x O O x x x x x }#O O x x x x x O O x x K.-.x x x x |#1#                    ",
"                            $#  2#3#x x x x x K.x 4#P x x x x x x e+x x x x x x x p@5#6#                      ",
"@                   +   H+P+7#+   8#9#0#O O 7+O x e+x x x x x x x a#x x x x x b#c#d#                          ",
"e#@                 . + H+G   $###+ f#g#x x x x x h#x x x x x x -.i#x x x x x j#                  m k#l#      ",
"m#                    + n#7#    $#+   o#x x x x x p#q#r#s#t#u#v#w#x#x x N x =.y#                  7 z#A#      ",
"            B#        + C#$#      7#$#D#x x x x x E#              F#-.x x x x G#            $#    + G P+      ",
"          G+H#I#        + 7#          J#x x x x K#4+              L#x x x x M#l     ( *                   m N#",
"                              ##$#    O#x x x P#Q#                R#x x x x S#      / &                   $#T#",
"                        +     $#      U#V#W#X#Y#Z#                `# $.$+$@$#$                                ",
"                        . +           $$%$&$*$=$                  -$;$>$,$'$)$                                ",
"                                      !$~${$]$o             . +     ^$/$($_$            * &                   ",
"                                                            +                           N@&                   ",
"                                                                                            C#+               ",
"                                                                                                              "};
