/* XPM */
static char * Character_red_xpm[] = {
"55 64 481 2",
"  	c #70A853",
". 	c #63A04B",
"+ 	c #6EA752",
"@ 	c #70A852",
"# 	c #6FA652",
"$ 	c #6EA24B",
"% 	c #6EA652",
"& 	c #71A652",
"* 	c #7B934C",
"= 	c #73A351",
"- 	c #60974A",
"; 	c #61994A",
"> 	c #77A561",
", 	c #8F998C",
"' 	c #7EA26F",
") 	c #6DA34E",
"! 	c #688A1E",
"~ 	c #688700",
"{ 	c #698700",
"] 	c #678713",
"^ 	c #6C9E46",
"/ 	c #6FA451",
"( 	c #79924A",
"_ 	c #73994C",
": 	c #7F8848",
"< 	c #73A251",
"[ 	c #49813C",
"} 	c #66A14E",
"| 	c #6CA551",
"1 	c #69912E",
"2 	c #698801",
"3 	c #698701",
"4 	c #688703",
"5 	c #6C9F4B",
"6 	c #5A9146",
"7 	c #589045",
"8 	c #649B4C",
"9 	c #76934A",
"0 	c #6CA651",
"a 	c #648310",
"b 	c #689844",
"c 	c #669F4C",
"d 	c #5D9A47",
"e 	c #69A14F",
"f 	c #70A753",
"g 	c #65840B",
"h 	c #688601",
"i 	c #637E19",
"j 	c #5E790C",
"k 	c #5F8C3E",
"l 	c #689D4D",
"m 	c #68A04F",
"n 	c #68A04E",
"o 	c #6FA753",
"p 	c #588F45",
"q 	c #6FA550",
"r 	c #6EA049",
"s 	c #6D9F47",
"t 	c #6FA54F",
"u 	c #65861B",
"v 	c #797A26",
"w 	c #BD492F",
"x 	c #ED323D",
"y 	c #FC3042",
"z 	c #FC3344",
"A 	c #FA3142",
"B 	c #ED303D",
"C 	c #E05041",
"D 	c #C16140",
"E 	c #968046",
"F 	c #6EA351",
"G 	c #6BA550",
"H 	c #437839",
"I 	c #49833C",
"J 	c #619B4A",
"K 	c #729B51",
"L 	c #688704",
"M 	c #688701",
"N 	c #698D22",
"O 	c #62821D",
"P 	c #97641F",
"Q 	c #F12F3F",
"R 	c #FC3142",
"S 	c #FC3143",
"T 	c #FD3142",
"U 	c #E83E3F",
"V 	c #A37B45",
"W 	c #6D9E4E",
"X 	c #6EA552",
"Y 	c #678618",
"Z 	c #658201",
"` 	c #BC502C",
" .	c #FA3041",
"..	c #EA4040",
"+.	c #8F954D",
"@.	c #6B9E49",
"#.	c #6A8204",
"$.	c #D44635",
"%.	c #F53842",
"&.	c #948C49",
"*.	c #629141",
"=.	c #668401",
"-.	c #CB4735",
";.	c #FC3244",
">.	c #FD3042",
",.	c #FC3041",
"'.	c #F2323F",
").	c #928948",
"!.	c #6B9F4D",
"~.	c #688608",
"{.	c #698303",
"].	c #CF4E33",
"^.	c #F53140",
"/.	c #908E4A",
"(.	c #658F38",
"_.	c #B65A2A",
":.	c #FB3041",
"<.	c #F93041",
"[.	c #A91D29",
"}.	c #89151F",
"|.	c #AE1E2A",
"1.	c #F52E40",
"2.	c #EB4441",
"3.	c #739F4F",
"4.	c #6FA651",
"5.	c #6C9B42",
"6.	c #679138",
"7.	c #689337",
"8.	c #68953D",
"9.	c #897435",
"0.	c #FB3042",
"a.	c #CE2634",
"b.	c #B2B2B2",
"c.	c #CFCFCF",
"d.	c #000000",
"e.	c #5F0B13",
"f.	c #EA2C3D",
"g.	c #CE5D41",
"h.	c #6B9C45",
"i.	c #688813",
"j.	c #698502",
"k.	c #E04443",
"l.	c #B31F2C",
"m.	c #B1B1B1",
"n.	c #F2F2F2",
"o.	c #565656",
"p.	c #626262",
"q.	c #751019",
"r.	c #A57F46",
"s.	c #7F7E43",
"t.	c #6DA551",
"u.	c #69A44E",
"v.	c #6DA34F",
"w.	c #68870A",
"x.	c #AB6A25",
"y.	c #D1D1D1",
"z.	c #EEEEEE",
"A.	c #D92838",
"B.	c #EC363E",
"C.	c #719E4E",
"D.	c #5F9649",
"E.	c #4C813E",
"F.	c #528841",
"G.	c #6FA752",
"H.	c #6B9D46",
"I.	c #E43E3A",
"J.	c #FD3143",
"K.	c #C32431",
"L.	c #C8C8C8",
"M.	c #FBFBFB",
"N.	c #BC212F",
"O.	c #B47645",
"P.	c #65A14C",
"Q.	c #6B9C46",
"R.	c #7E7B11",
"S.	c #E12B3B",
"T.	c #323232",
"U.	c #6F6F6F",
"V.	c #110101",
"W.	c #AF1E2B",
"X.	c #E34740",
"Y.	c #6DA24E",
"Z.	c #688807",
"`.	c #B16728",
" +	c #A81D29",
".+	c #A71C28",
"++	c #77121A",
"@+	c #9B1924",
"#+	c #D22635",
"$+	c #C62432",
"%+	c #6CA250",
"&+	c #678A1D",
"*+	c #D25134",
"=+	c #F12F40",
"-+	c #BD222F",
";+	c #DC2938",
">+	c #F62F40",
",+	c #C32331",
"'+	c #EB2C3D",
")+	c #75994C",
"!+	c #6CA550",
"~+	c #668D2D",
"{+	c #638001",
"]+	c #EE363E",
"^+	c #EC2D3E",
"/+	c #CB2533",
"(+	c #DD2939",
"_+	c #76994C",
":+	c #6EA551",
"<+	c #678C25",
"[+	c #64830B",
"}+	c #789A4D",
"|+	c #688E2D",
"1+	c #867F18",
"2+	c #FC3243",
"3+	c #F33541",
"4+	c #678504",
"5+	c #9F7120",
"6+	c #F32F40",
"7+	c #D66244",
"8+	c #70A752",
"9+	c #B06E26",
"0+	c #EF2D3E",
"a+	c #E92C3C",
"b+	c #ED2C3D",
"c+	c #ED2D3D",
"d+	c #F22E3F",
"e+	c #AC864A",
"f+	c #AF6C26",
"g+	c #F93042",
"h+	c #EC4241",
"i+	c #74A451",
"j+	c #66850B",
"k+	c #AE6C26",
"l+	c #E52D3D",
"m+	c #A5884A",
"n+	c #67A34D",
"o+	c #6DA04C",
"p+	c #668B2C",
"q+	c #658203",
"r+	c #AE6C28",
"s+	c #E62B3B",
"t+	c #ED2E3E",
"u+	c #C96844",
"v+	c #688B1D",
"w+	c #F32E3F",
"x+	c #E32A3A",
"y+	c #F83041",
"z+	c #B97345",
"A+	c #6AA44F",
"B+	c #688F30",
"C+	c #B9662A",
"D+	c #DB2938",
"E+	c #CF6B30",
"F+	c #F0313E",
"G+	c #DE5341",
"H+	c #92924C",
"I+	c #A27B44",
"J+	c #678611",
"K+	c #CB5B32",
"L+	c #B5AB1B",
"M+	c #BADA02",
"N+	c #BCC219",
"O+	c #CAB522",
"P+	c #C4AB23",
"Q+	c #AE9828",
"R+	c #A48A4B",
"S+	c #88994E",
"T+	c #CC5F45",
"U+	c #74A150",
"V+	c #678508",
"W+	c #E73D3C",
"X+	c #D57031",
"Y+	c #C0E001",
"Z+	c #C0E201",
"`+	c #A3C41F",
" @	c #639A4B",
".@	c #5F9549",
"+@	c #C96F47",
"@@	c #BE7045",
"#@	c #78790F",
"$@	c #FA3042",
"%@	c #EF2F3F",
"&@	c #B5CF03",
"*@	c #C0DB01",
"=@	c #C0DC01",
"-@	c #C0DD01",
";@	c #ADC608",
">@	c #4A863C",
",@	c #4B843D",
"'@	c #6DA651",
")@	c #AF673F",
"!@	c #EF3440",
"~@	c #6FA14F",
"{@	c #69953B",
"]@	c #BD5E2D",
"^@	c #BEAB1F",
"/@	c #B2D101",
"(@	c #6DA351",
"_@	c #947B40",
":@	c #C07146",
"<@	c #689A44",
"[@	c #708F37",
"}@	c #F13A3F",
"|@	c #D26E31",
"1@	c #C0DE01",
"2@	c #BCD401",
"3@	c #978C4A",
"4@	c #AB874B",
"5@	c #71A752",
"6@	c #D16C46",
"7@	c #F2313F",
"8@	c #B4D002",
"9@	c #C0E101",
"0@	c #6CA350",
"a@	c #8C984F",
"b@	c #FB3142",
"c@	c #B8834A",
"d@	c #CC6C45",
"e@	c #B1AC18",
"f@	c #BFDB01",
"g@	c #819D4F",
"h@	c #D56A47",
"i@	c #7FA050",
"j@	c #C77247",
"k@	c #C79726",
"l@	c #B7D603",
"m@	c #F82F41",
"n@	c #C56343",
"o@	c #918949",
"p@	c #749C4E",
"q@	c #749C4D",
"r@	c #898947",
"s@	c #D85742",
"t@	c #D47431",
"u@	c #B1D113",
"v@	c #779049",
"w@	c #79964D",
"x@	c #EA4340",
"y@	c #DF4439",
"z@	c #ACC721",
"A@	c #7A964D",
"B@	c #709F4E",
"C@	c #DB5A43",
"D@	c #B8D802",
"E@	c #9EC12D",
"F@	c #CB7348",
"G@	c #AFCE02",
"H@	c #8BAC38",
"I@	c #808044",
"J@	c #A78B4C",
"K@	c #A8C002",
"L@	c #848C38",
"M@	c #71A250",
"N@	c #74A75B",
"O@	c #78A564",
"P@	c #72A756",
"Q@	c #70A552",
"R@	c #E94A42",
"S@	c #ABB90E",
"T@	c #B9D503",
"U@	c #6CA150",
"V@	c #7E8747",
"W@	c #779C4F",
"X@	c #759A4D",
"Y@	c #70A459",
"Z@	c #80967C",
"`@	c #73A55C",
" #	c #9B8D4C",
".#	c #B4B315",
"+#	c #A6C520",
"@#	c #71A150",
"##	c #D46144",
"$#	c #B7BA15",
"%#	c #94B936",
"&#	c #839C4F",
"*#	c #F63942",
"=#	c #B2C904",
"-#	c #73A248",
";#	c #A2904D",
">#	c #F63541",
",#	c #DB5836",
"'#	c #A2C425",
")#	c #94924C",
"!#	c #F04042",
"~#	c #B09D1C",
"{#	c #77A84A",
"]#	c #829C4F",
"^#	c #E65043",
"/#	c #F83142",
"(#	c #C76F2C",
"_#	c #83AC3C",
":#	c #75A251",
"<#	c #D36545",
"[#	c #F33041",
"}#	c #E2343A",
"|#	c #7A9A36",
"1#	c #9A904B",
"2#	c #D75C42",
"3#	c #F83344",
"4#	c #EB2D3D",
"5#	c #EE3041",
"6#	c #F53741",
"7#	c #958345",
"8#	c #8B9C84",
"9#	c #788C45",
"0#	c #E62C3C",
"a#	c #EB2F3F",
"b#	c #D95541",
"c#	c #7D9E50",
"d#	c #6CA451",
"e#	c #528742",
"f#	c #779D6B",
"g#	c #68A34E",
"h#	c #6E994C",
"i#	c #CA593F",
"j#	c #BC7D49",
"k#	c #C97949",
"l#	c #C77849",
"m#	c #C57547",
"n#	c #CB7349",
"o#	c #D46C47",
"p#	c #D46B47",
"q#	c #C85B40",
"r#	c #DA6345",
"s#	c #72A250",
"t#	c #818145",
"u#	c #4B853D",
"v#	c #649E4C",
"w#	c #71A855",
"x#	c #709C4E",
"y#	c #BF7747",
"z#	c #89974D",
"A#	c #DF6145",
"B#	c #6FA852",
"C#	c #70A854",
"D#	c #789A6F",
"E#	c #72A659",
"F#	c #F73742",
"G#	c #C57748",
"H#	c #F13C41",
"I#	c #DE6346",
"J#	c #5B9047",
"K#	c #ED3D40",
"L#	c #B87646",
"M#	c #CB6B45",
"N#	c #FC2F41",
"O#	c #D26644",
"P#	c #46843A",
"Q#	c #CE6B45",
"R#	c #ED898D",
"S#	c #F73242",
"T#	c #F53D4A",
"U#	c #F08387",
"V#	c #AA8652",
"W#	c #8D944C",
"X#	c #E96D73",
"Y#	c #EE6168",
"Z#	c #EC4953",
"`#	c #F05B63",
" $	c #BB8164",
".$	c #819B51",
"+$	c #F2F3F1",
"@$	c #DEACAE",
"#$	c #EFE3E3",
"$$	c #E9C2C4",
"%$	c #85AD74",
"&$	c #BFC6B6",
"*$	c #E3ABAC",
"=$	c #F5F5F5",
"-$	c #E0B1B2",
";$	c #ADC3A5",
">$	c #75A85D",
",$	c #9BA476",
"'$	c #A9BE9E",
")$	c #88964E",
"!$	c #6DA652",
"~$	c #75924E",
"{$	c #B6C5B0",
"]$	c #9D8662",
"^$	c #71A756",
"                                                                                                              ",
"                                                                                                              ",
"            . +                   @                         # $ $ %                 & *             =         ",
"- ;         +                   > , '                     ) ! ~ { ] ^               / (           _ :       < ",
"[                               + } |                     1 2 3 ~ 3 4 5   6 7 8                             9 ",
"0                                                         a 3 3 3 3 3 b   c d e                               ",
"                                                        f g 3 3 h i j k l %                                   ",
"      m n o p                                   q r s t   u 3 v w x y z A B C D E F                           ",
"      G H I J                                 K L 3 3 M N O P Q y R S y y S R y T U V W                       ",
"        G G +                               X Y 3 3 3 3 Z `  .R y y y y y y y y y y y ..+.                    ",
"                                            @.~ ~ 3 ~ #.$.R S y y y y y y y y y y R y y %.&.                  ",
"                                            *.2 2 2 =.-.;.y y y >.,.y y y y y y y S >.y y '.).                ",
"                                            !.~.~ {.].R y y y ,.y y y y y y y y y S S R y y ^./.              ",
"                                              (.3 _.y R y y y y y :.T y y y y >.<.[.}.|.1.y y 2.3.            ",
"                                      4.5.6.7.8.9.0.R y y y y >.y y y y y y y y a.b.c.d.e.f.y y g.o     =     ",
"                                    h.i.3 3 3 j.k.y R y y y y y y y y y y y >.y l.m.n.o.p.q.:.y y r.  f s.=   ",
"      t.  ;             u.u.      v.w.3 M ~ 3 x.y y y y y >.y >.y >.y y y >.y R l.d.d.y.z.d.A.y y B.C.  f     ",
"      D.E.F.            G.G.      H.2 3 3 3 3 I.J.y y :.y y >.y R y y >.y y y >.K.d.d.L.M.d.N.y S y O.        ",
"        P.+                       Q.3 3 3 M R.y R >.y y ,.y y y y y y >.y y y y S.d.d.T.U.V.W.y y R X.        ",
"                                  Y.Z.3 3 2 `.R y y T y y y y y y y y y y y y y S  +.+++@+#+$+S ,.R  .%+      ",
"            +                       Q.&+3 3 *+S >.y y y ,.y y >.>.>.y y y y y y y =+-+;+>+,+'+y y S y )+      ",
"          !+P.                        4.~+{+]+T y y y y y y y y y y y y y y y y y y S ^+/+(+R y y S y _+      ",
"                                    :+<+3 [+y S ,.>.y y y y y y y y y y y y y y y ,.y y y y y y y R y }+      ",
"                                    |+3 3 1+R y ,.y y y y y y y y y y y y y y y y y y y y y y y 2+y 3+#       ",
"                                  f 4+{ { 5+S y y y y y >.y y y y y y y y y y y y y 0.S S y R R 6+ .7+        ",
"                                  8+~ 3 { 9+R y y y ,.y y y y y y y y y y y y y y R 0+0+a+a+b+c+d+y e+        ",
"            +                       h ~ 2 f+S y ,.y y y y y y y g+,.y y y y y y y >.S J.S R 2+y S h+i+        ",
"            . +               !+    j+3 3 k+J.y y y y y y T y R l+d+R y ,.y y y ,.y y y y y y y S m+          ",
"                      !+P.    n+!+  o+p+q+r+y y y y y y y y y y y s+t+y y y ,.y y y y y y y y 2+u+            ",
"                        +         Y.v+3 ~ k+;.y y y y y y y y y y S w+x+y+y y y y y y y y S g+z+8+            ",
"    u.u.%                 A++     B+3 2 3 C+;.y y y y y y y y y y y y R D+E+F+y y y y S S G+H+                ",
"    G.G.I+                A++     J+3 3 M K+y y y y y y ,.y y >.y y y y S L+M+N+O+P+Q+R+S+                    ",
"        T+U+                      V+3 3 3 W+y y y y y y y y y y y y y >.R X+Y+Z+Z+Z+`+               @.@m     ",
"        +@@@m                     a ~ 2 #@$@y y y y y y y y y y y y y >.y %@&@*@=@-@;@            G >@,@      ",
"      '@)@!@~@                    {@3 2 ]@y y y y y y >.y y ,.y y y y y y y ^@Z+Z+Z+/@(@                      ",
"      % _@y :@                    n+<@[@}@y y ,.y ,.y y y :.y y y y y y y R |@1@Z+Z+2@(@                      ",
"        3@y  .4@                  !+5@6@J.,.y y y y >.y >.y ,.y y ,.y y y S 7@8@1@=@9@0@                      ",
"        a@y y b@c@                f d@S y y y y y y ,.y y y y y y y y y y R y e@Z+Z+f@0@                      ",
"        g@y ,.y y h@i@          G.j@2+y y y y y ,.y y >.y y y y >.y y y y y J.k@=@=@l@X             & &       ",
"        %+m@y y y ,.^.n@o@p@q@r@s@y y y y y y y y y y y y y y y y y y y y y y t@Z+Z+u@              v@*     w@",
"        + x@y T y y y y y R S T y y y y y ,.y y y y y y y y y y y y y ,.y y S y@=@=@z@            A@<   * & B@",
"          C@y y y y y y y >.y y y y y y y y y >.y y y y y y y y y y y y y ,.>.f.D@Z+E@            9 <   v@& < ",
"          F@,.y y y y y y y y y y y y y y y y y >.y y y y y y y y y y y y y y 0+G@Y+H@        !+I@= =       9 ",
"          J@y y y y y y y y y y y y >.y y >.y y y y y y y y y y y y y y ,.y R y K@-@L@=         M@  s.<       ",
"  N@O@P@  Q@R@y y y y y y y y y y y R y T y y y y y y y y y y y y y y y y y 2+y S@T@U@+               V@W@X@: ",
"  Y@Z@`@     #S ,.y >.y y y y y y y y y y y y y y >.y y J.,.y y y y y y y y R y .#+#  +               @#  + = ",
"              ##y y y y ,.y y y y y y y y y y y y y y y y y y y >.y y y y y S y $#%#                          ",
"              &#*#y >.,.y y y y y y y y y y ,.y y y y y >.y y y >.y y ,.y R y m@=#-#                          ",
"                ;#>#y y ,.y y y y y ,.y ,.y y y y y y y y y y ,.y ,.y ,.y R ,.,#'#                            ",
"                  )#!#,.y y y y y y y y y y >.y y >.y y y R y T ,.y y y R y <.~#{#                            ",
"                    ]#^#y y y y ,.J.y y R R y y y y y R R /#y y y y y R R y (#_#                              ",
"                      :#<#b@y y y y y y y d+y y y y y y S [#y J.y y y y y }#|#                                ",
"@                   +   u.1#2#3#y y y y y 4#y y y y y y y d+y R 2+R R 5#6#7#                                  ",
"8#@                 . + u.G   9#y y y y y 0#,.y y y y y y a#y y y y y b#c#                        m d#e#      ",
"f#                    + g#P.  h#>.y T y y i#j#k#l#m#n#o#p#q#y y y y y r#s#t#                      7 u#v#      ",
"            w#        + A+!+  x#y y y y ,.y#              z#y y y y y A#B#s#                !+    + G G.      ",
"          C#D#E#        + P.  f F#y y y y G#              :+H#y y y y I#            ( *                   m J#",
"                              n+K#y y y y L#                M#N#y y y O#            / &                   !+P#",
"                        +     !+Q#R#S#T#U#V#                W#X#Y#Z#`# $                                      ",
"                        . +     .$+$@$#$$$%$                  &$*$=$-$;$                                      ",
"                                  >$,$'$)$                  . !$~${$]$^$                * &                   ",
"                                                            +                           v@&                   ",
"                                                                                            A++               ",
"                                                                                                              "};
