/* XPM */
static char * 0_Golem_Walking_018_xpm[] = {
"64 64 242 2",
"  	c #70A853",
". 	c #6BA350",
"+ 	c #63A04B",
"@ 	c #6EA752",
"# 	c #70A852",
"$ 	c #71A652",
"% 	c #7B934C",
"& 	c #73A351",
"* 	c #679E4E",
"= 	c #3C7337",
"- 	c #60974A",
"; 	c #61994A",
"> 	c #77A561",
", 	c #8F998C",
"' 	c #7EA26F",
") 	c #6FA451",
"! 	c #79924A",
"~ 	c #73994C",
"{ 	c #7F8848",
"] 	c #73A251",
"^ 	c #68A34E",
"/ 	c #508F3F",
"( 	c #49813C",
"_ 	c #66A14E",
": 	c #6CA551",
"< 	c #5A9146",
"[ 	c #589045",
"} 	c #649B4C",
"| 	c #76934A",
"1 	c #7A964D",
"2 	c #6CA651",
"3 	c #669F4C",
"4 	c #5D9A47",
"5 	c #69A14F",
"6 	c #65A14C",
"7 	c #68A04F",
"8 	c #68A04E",
"9 	c #6FA753",
"0 	c #588F45",
"a 	c #7C8545",
"b 	c #779C4F",
"c 	c #6CA550",
"d 	c #6BA550",
"e 	c #437839",
"f 	c #49833C",
"g 	c #619B4A",
"h 	c #77A562",
"i 	c #74A75B",
"j 	c #70A753",
"k 	c #6FA05D",
"l 	c #70A458",
"m 	c #679F4E",
"n 	c #598F45",
"o 	c #669F4D",
"p 	c #74A251",
"q 	c #79964D",
"r 	c #709F4E",
"s 	c #7F7E43",
"t 	c #6FA752",
"u 	c #6DA551",
"v 	c #69A44E",
"w 	c #1C1B19",
"x 	c #5F9649",
"y 	c #4C813E",
"z 	c #528841",
"A 	c #272729",
"B 	c #2E2E32",
"C 	c #313136",
"D 	c #333339",
"E 	c #2A2A2D",
"F 	c #578C44",
"G 	c #232324",
"H 	c #3C3C43",
"I 	c #38383F",
"J 	c #45454D",
"K 	c #4E4E59",
"L 	c #595964",
"M 	c #639C4B",
"N 	c #568B44",
"O 	c #4E803F",
"P 	c #292729",
"Q 	c #404047",
"R 	c #474750",
"S 	c #6D6D7B",
"T 	c #858597",
"U 	c #69A44F",
"V 	c #5C9846",
"W 	c #4B4B55",
"X 	c #656573",
"Y 	c #838394",
"Z 	c #7EA36E",
"` 	c #7BA06D",
" .	c #484750",
"..	c #53535D",
"+.	c #9191A5",
"@.	c #575762",
"#.	c #769C4F",
"$.	c #7D8F4A",
"%.	c #6FA05C",
"&.	c #63A04A",
"*.	c #727282",
"=.	c #8C8C9F",
"-.	c #6DA550",
";.	c #62626E",
">.	c #A6A6BD",
",.	c #696976",
"'.	c #9C9CB1",
").	c #9595A9",
"!.	c #69A04F",
"~.	c #9F9FB4",
"{.	c #427C39",
"].	c #48823C",
"^.	c #211F1E",
"/.	c #6DA751",
"(.	c #818193",
"_.	c #6AA44F",
":.	c #6C2415",
"<.	c #A6450D",
"[.	c #6F2C14",
"}.	c #451F1A",
"|.	c #7C3B16",
"1.	c #EE8D0A",
"2.	c #D57505",
"3.	c #B55709",
"4.	c #642516",
"5.	c #352725",
"6.	c #9F320E",
"7.	c #CB7A0C",
"8.	c #E6850E",
"9.	c #F0AC08",
"0.	c #E27E06",
"a.	c #C66206",
"b.	c #95360F",
"c.	c #DE8406",
"d.	c #BF7611",
"e.	c #639A4B",
"f.	c #5F9549",
"g.	c #689F4E",
"h.	c #662A19",
"i.	c #E3950C",
"j.	c #F2B109",
"k.	c #E69407",
"l.	c #BF6008",
"m.	c #382524",
"n.	c #C86708",
"o.	c #C78811",
"p.	c #412521",
"q.	c #4A863C",
"r.	c #4B843D",
"s.	c #6DA651",
"t.	c #4F8540",
"u.	c #3B6E36",
"v.	c #292526",
"w.	c #59291C",
"x.	c #683316",
"y.	c #3D1D17",
"z.	c #371E18",
"A.	c #46241E",
"B.	c #6EA652",
"C.	c #5B9646",
"D.	c #302F34",
"E.	c #7F7F90",
"F.	c #779049",
"G.	c #282418",
"H.	c #7D8E4A",
"I.	c #4A4147",
"J.	c #7F250E",
"K.	c #922C0F",
"L.	c #934211",
"M.	c #9F4F12",
"N.	c #734716",
"O.	c #9C3C0F",
"P.	c #D6830E",
"Q.	c #71A753",
"R.	c #808044",
"S.	c #963310",
"T.	c #BE6112",
"U.	c #6B3E14",
"V.	c #733114",
"W.	c #8E4E14",
"X.	c #71A250",
"Y.	c #6CA552",
"Z.	c #779D6B",
"`.	c #78A564",
" +	c #72A756",
".+	c #878799",
"++	c #787888",
"@+	c #7E8747",
"#+	c #759A4D",
"$+	c #70A459",
"%+	c #80967C",
"&+	c #73A55C",
"*+	c #67A34D",
"=+	c #71A150",
"-+	c #6E4415",
";+	c #542217",
">+	c #B24B10",
",+	c #ED9907",
"'+	c #AA8C13",
")+	c #5F5F6B",
"!+	c #75A461",
"~+	c #74A360",
"{+	c #552218",
"]+	c #E8910A",
"^+	c #836D16",
"/+	c #7F4414",
"(+	c #3C312E",
"_+	c #B7760F",
":+	c #684E1B",
"<+	c #402F1A",
"[+	c #322928",
"}+	c #653B15",
"|+	c #6EA751",
"1+	c #6CA650",
"2+	c #5B3515",
"3+	c #C3620E",
"4+	c #AA7211",
"5+	c #352217",
"6+	c #854B0E",
"7+	c #3E2716",
"8+	c #523115",
"9+	c #462B16",
"0+	c #2C2017",
"a+	c #6DA356",
"b+	c #8C9A88",
"c+	c #8B9C84",
"d+	c #6CA451",
"e+	c #528742",
"f+	c #739A6A",
"g+	c #72A250",
"h+	c #818145",
"i+	c #4B853D",
"j+	c #649E4C",
"k+	c #71A855",
"l+	c #6FA852",
"m+	c #70A854",
"n+	c #789A6F",
"o+	c #72A659",
"p+	c #5B9047",
"q+	c #4D833F",
"r+	c #46843A",
"s+	c #64A04B",
"                                                                                                                                ",
"                                                                                                                                ",
"    . .             + @                   #                                                 $ %             &                   ",
"    * = - ;         @                   > , '                                               ) !           ~ {       ] ]         ",
"    ^ / (                               @ _ :                                     < [ }                             | 1         ",
"      @ 2                                                                         3 4 5                                         ",
"                                                                                                                      &         ",
"@ 6           7 8 9 0                                                                                                 a b       ",
"  c           d e f g                                 h i                                                             j         ",
"                d d @                                 k l                                                                       ",
"    . m                                                                                                                         ",
"    n o                                                                                                                         ",
"                                                                                                                                ",
"                                                                                                                                ",
"                                                                      @                       p q               &               ",
"                                                                      6 c                     r q             j s &             ",
"    t t       u   ;             v v                 w w w w w w w w w w w                                       j               ",
"    v v       x y z             t t             w w A B C D D D B B B B E w w       F                                           ",
"                6 @                         w G B D C E A D H H I H H J J K L w     M N O                                       ",
"                                          w P D C A E I H I H Q J J H J J R S T w   U V o                                       ",
"                    @                   w A D C A I J H H H J J J W K J W R W X Y w                                   Z `       ",
"                  c 6                   w C C E H H H H H Q J J Q R R R L  .J ..+.@.          #.$.                    %.&.      ",
"                                      w A D D H H H H H H J J J J J J J J J J W *.=.w         -.#.                              ",
"                                      w B D D H Q W H H H J J J J J J J Q J J J ;.+.D                                           ",
"                                      w C D D H D H H H J J J J J J J R J J J ..;.>.,.                                          ",
"                                      G D I E H H H H Q J J J J .. .R R R ;...L ;.>.T w                                         ",
"                    @               w A D C E H H H H J J J J J L K J J J ..W @.;.'.).w                                         ",
"  !.8 9             + @             w E D D P H H H H I H J J J J J J ..J J W  .L ,.~.w                                 ] ]     ",
"  d {.].                      c 6   w B D D P J H I H C w G I J J R R  .R J J C ^.L ).w                                 | 1     ",
"    d /.                        @   w B B C A Q H H H A C C G A J R J J J J C P H W (.w                                         ",
"            v v                   _.w E D D G H H H H :.<.[.P P E J J J J H I B }.E *.w                                   1 ]   ",
"    _._.    t t                   _.w P D D E C H H H |.1.2.3.4.B H J J K C 5.6.7.B (.w                                   | ]   ",
"    @ @                               G D B D A I H H 5.8.9.0.a.:.H J R W D b.c.d.....                      e.f.7               ",
"                  g.7                 w B D D D P H H I h.i.j.k.l.m.J J J P n.o.p.;.w                     d q.r.                ",
"              s.t.u.s.                w A D D C D C H Q I v.w.w.x.y.H J J z.A.B H L w     &                                     ",
"              B.C.C.@                   w B D B C E H H J Q Q H H I Q H Q I Q J K ..      a b                                   ",
"                                          w D.C D C C I Q H Q H J Q J Q Q Q D H  .w       j                                     ",
"                                          w w B D D E H H D.G w E ^.B A A A E w E w                                             ",
"                                              w E D C H H C w B A B G B B D.W P w                           $ $                 ",
"                                                w ^.E D I H w H H Q ..J J X E.w                             F.%     q q         ",
"                @ +                             w w w w A C B E H Q R W ,.,.w w                           1 ]   % $ r p % $     ",
"                  @                             w G D G I w w w A E E G G.w w w   H.b                     | ]   F.$ ] ] F.$     ",
"                                    + @       w w B Q Q W I.J.K.L.M.N.O.P.H w w   ~ Q.      &         c R.& &       | 1         ",
"  h '                               @         w w C J L C ..C :.S.T.U.V.W.X E G           j s &         X.  s ]         { &     ",
"  Y.Z.    i `. +                              w G D ...+P J S C  .,.X I ++;.X w       &     j @               @+b #+{   ~       ",
"          $+%+&+              *+c               ^.E Q *.^.Q ..D.I D B A ..H H         a b     @               =+  @ & Q.b       ",
"                              c                 P G ^.-+;+C C B J H D A E w X         j                               ~ H.      ",
"                                                A E >+,+'+w B S w A ;.A )+w w                                                   ",
"  !+~+                                          w A {+]+^+/+(+@._+:+I <+[+}+w                                                   ",
"  |+1+                                              w w y.O.2+:.3+4+y./+;+5+                                                    ",
"                                                    5+6+A Q L w 7+8+A G W w                                                     ",
"                                    c               9+U.A I W w 0+A Q H w w                                                     ",
"      # #                   @   v t 6 @   6 c       w G I B w w w w w w w                                               $ %     ",
"    a+b+c+#                 + @ v d   c *+@                                                               7 d+e+        ) ! j   ",
"    *+f+Z.                    @ ^ 6     c @                                     g+h+                      [ i+j+            R.& ",
"                    k+        @ _.c       6 c                                   l+g+                c     @ d t       9 5   X.  ",
"                  m+n+o+        @ 6                                                         ! %                   7 p+q+9       ",
"                                      *+c                                                   ) $                   c r+s+        ",
"                                @     c                                                                                         ",
"                                + @                                                                                             ",
"                                                                    + @                         % $                             ",
"                                                                    @                           F.$                             ",
"                                                                                                    _.@                         ",
"                                                                                                                                "};
