/* XPM */
static char * 0_Golem_Walking_006_xpm[] = {
"64 64 242 2",
"  	c #70A853",
". 	c #6BA350",
"+ 	c #63A04B",
"@ 	c #6EA752",
"# 	c #70A852",
"$ 	c #71A652",
"% 	c #7B934C",
"& 	c #73A351",
"* 	c #679E4E",
"= 	c #3C7337",
"- 	c #60974A",
"; 	c #61994A",
"> 	c #77A561",
", 	c #8F998C",
"' 	c #7EA26F",
") 	c #6FA451",
"! 	c #79924A",
"~ 	c #73994C",
"{ 	c #7F8848",
"] 	c #73A251",
"^ 	c #68A34E",
"/ 	c #508F3F",
"( 	c #49813C",
"_ 	c #66A14E",
": 	c #6CA551",
"< 	c #5A9146",
"[ 	c #589045",
"} 	c #649B4C",
"| 	c #76934A",
"1 	c #7A964D",
"2 	c #6CA651",
"3 	c #669F4C",
"4 	c #5D9A47",
"5 	c #69A14F",
"6 	c #65A14C",
"7 	c #68A04F",
"8 	c #68A04E",
"9 	c #6FA753",
"0 	c #588F45",
"a 	c #7C8545",
"b 	c #779C4F",
"c 	c #6CA550",
"d 	c #6BA550",
"e 	c #437839",
"f 	c #49833C",
"g 	c #619B4A",
"h 	c #77A562",
"i 	c #74A75B",
"j 	c #70A753",
"k 	c #6FA05D",
"l 	c #70A458",
"m 	c #679F4E",
"n 	c #598F45",
"o 	c #669F4D",
"p 	c #74A251",
"q 	c #79964D",
"r 	c #709F4E",
"s 	c #7F7E43",
"t 	c #6FA752",
"u 	c #6DA551",
"v 	c #69A44E",
"w 	c #1C1B19",
"x 	c #232324",
"y 	c #5F9649",
"z 	c #4C813E",
"A 	c #528841",
"B 	c #2A292D",
"C 	c #2E2E32",
"D 	c #313136",
"E 	c #201F1F",
"F 	c #578C44",
"G 	c #28272A",
"H 	c #333339",
"I 	c #3C3C43",
"J 	c #404047",
"K 	c #45454E",
"L 	c #52525D",
"M 	c #62616E",
"N 	c #639C4B",
"O 	c #568B44",
"P 	c #4E803F",
"Q 	c #39383E",
"R 	c #474750",
"S 	c #70707F",
"T 	c #848495",
"U 	c #69A44F",
"V 	c #5C9846",
"W 	c #4B4B54",
"X 	c #4E4E58",
"Y 	c #686876",
"Z 	c #828293",
"` 	c #7EA36E",
" .	c #7BA06D",
"..	c #5A5A65",
"+.	c #565661",
"@.	c #9090A4",
"#.	c #769C4F",
"$.	c #7D8F4A",
"%.	c #6FA05C",
"&.	c #63A04A",
"*.	c #777786",
"=.	c #878699",
"-.	c #6DA550",
";.	c #ACACC4",
">.	c #ACACC3",
",.	c #7F7F90",
"'.	c #9C9CB2",
").	c #69A04F",
"!.	c #427C39",
"~.	c #48823C",
"{.	c #6DA751",
"].	c #302F34",
"^.	c #7D7D8D",
"/.	c #6AA44F",
"(.	c #862B13",
"_.	c #AA490C",
":.	c #752F13",
"<.	c #292627",
"[.	c #592116",
"}.	c #864413",
"|.	c #EE910A",
"1.	c #D67605",
"2.	c #B85A09",
"3.	c #6A2515",
"4.	c #3E2421",
"5.	c #AB3B0C",
"6.	c #CD800D",
"7.	c #E6840D",
"8.	c #F0AE08",
"9.	c #E37F06",
"0.	c #C66306",
"a.	c #A13D0E",
"b.	c #E38F07",
"c.	c #B16712",
"d.	c #5D5D69",
"e.	c #639A4B",
"f.	c #5F9549",
"g.	c #689F4E",
"h.	c #652A19",
"i.	c #E1920C",
"j.	c #E79407",
"k.	c #C06108",
"l.	c #342523",
"m.	c #CA6A09",
"n.	c #B67C12",
"o.	c #4A863C",
"p.	c #4B843D",
"q.	c #6DA651",
"r.	c #4F8540",
"s.	c #3B6E36",
"t.	c #53251A",
"u.	c #361C17",
"v.	c #391D17",
"w.	c #6EA652",
"x.	c #5B9646",
"y.	c #6D6D7B",
"z.	c #7A798A",
"A.	c #779049",
"B.	c #656572",
"C.	c #413517",
"D.	c #7D8E4A",
"E.	c #4C4249",
"F.	c #81250E",
"G.	c #982E0E",
"H.	c #9E4310",
"I.	c #A95011",
"J.	c #7B4A16",
"K.	c #DA820D",
"L.	c #71A753",
"M.	c #808044",
"N.	c #504F5A",
"O.	c #632115",
"P.	c #8E3311",
"Q.	c #B15B13",
"R.	c #5C3616",
"S.	c #6B3315",
"T.	c #814A14",
"U.	c #71A250",
"V.	c #6CA552",
"W.	c #779D6B",
"X.	c #78A564",
"Y.	c #72A756",
"Z.	c #89899C",
"`.	c #7E8747",
" +	c #759A4D",
".+	c #70A459",
"++	c #80967C",
"@+	c #73A55C",
"#+	c #67A34D",
"$+	c #71A150",
"%+	c #431F17",
"&+	c #9D3D12",
"*+	c #ED9507",
"=+	c #C09E12",
"-+	c #747483",
";+	c #75A461",
">+	c #74A360",
",+	c #321E1B",
"'+	c #8C7015",
")+	c #3D302E",
"!+	c #C17B0E",
"~+	c #6F5319",
"{+	c #493619",
"]+	c #392925",
"^+	c #653B15",
"/+	c #6EA751",
"(+	c #6CA650",
"_+	c #913D10",
":+	c #712415",
"<+	c #BC5D10",
"[+	c #A76E11",
"}+	c #432017",
"|+	c #7B3F15",
"1+	c #4E1F17",
"2+	c #281C17",
"3+	c #382516",
"4+	c #98550A",
"5+	c #492C15",
"6+	c #7B4511",
"7+	c #332317",
"8+	c #3B281D",
"9+	c #462B16",
"0+	c #402A1B",
"a+	c #6DA356",
"b+	c #8C9A88",
"c+	c #8B9C84",
"d+	c #6CA451",
"e+	c #528742",
"f+	c #739A6A",
"g+	c #72A250",
"h+	c #818145",
"i+	c #4B853D",
"j+	c #649E4C",
"k+	c #71A855",
"l+	c #6FA852",
"m+	c #70A854",
"n+	c #789A6F",
"o+	c #72A659",
"p+	c #5B9047",
"q+	c #4D833F",
"r+	c #46843A",
"s+	c #64A04B",
"                                                                                                                                ",
"                                                                                                                                ",
"    . .             + @                   #                                                 $ %             &                   ",
"    * = - ;         @                   > , '                                               ) !           ~ {       ] ]         ",
"    ^ / (                               @ _ :                                     < [ }                             | 1         ",
"      @ 2                                                                         3 4 5                                         ",
"                                                                                                                      &         ",
"@ 6           7 8 9 0                                                                                                 a b       ",
"  c           d e f g                                 h i                                                             j         ",
"                d d @                                 k l                                                                       ",
"    . m                                                                                                                         ",
"    n o                                                                                                                         ",
"                                                                                                                                ",
"                                                                                                                                ",
"                                                                      @                       p q               &               ",
"                                                                      6 c                     r q             j s &             ",
"    t t       u   ;             v v                 w w w w x x w w w w w                                       j               ",
"    v v       y z A             t t           w w x B C D D D D C C C C B E w       F                                           ",
"                6 @                         w x C D C G G H I I I I J K K L M w     N O P                                       ",
"                                          w B D D G C I I Q I J K K I K K R S T w   U V o                                       ",
"                    @                   w G D D G I R I I I K K K W W K L R X Y Z w                                   `  .      ",
"                  c 6                   w D C B I I I I I K K J K K K R ..R K +.@.L           #.$.                    %.&.      ",
"                                      w G D D I I I I I I K K K K K K K K K K W *.=.w         -.#.                              ",
"                                      w C D Q I J W I I I K K K K K K K J K K W M @.B                                           ",
"                                      w D D D I H I I I K K K K R R K K K W K L M ;.M                                           ",
"                                      x D Q B I I I I J K K K K L W K K W M L ..M >.,.w                                         ",
"                    @               w G D C B I I I I K K K R K ..W K K K L W +.M '.@.w                                         ",
"  ).8 9             + @             w C D D B I I I I H I K K K K K R L K K W R L Y '.w                                 ] ]     ",
"  d !.~.                      c 6   w C D D B K I Q I D w x Q K K K K R R K K B x ..@.w                                 | 1     ",
"    d {.                        @   w C C D G J I I I x D ].x G J K K K K K C C I W ^.w                                         ",
"            v v                   /.w C D D x I I I I (._.:.<.B B K K K K I I B [.C *.w                                   1 ]   ",
"    /./.    t t                   /.w B D D B D I I I }.|.1.2.3.C I K R L D 4.5.6.I *.w                                   | ]   ",
"    @ @                               x D C D x I I I 4.7.8.9.0.3.I K W W D a.b.c.d.J                       e.f.7               ",
"                  g.7                 w D D D H G I I Q h.i.8.j.k.l.K K K 4.m.n.l.d.w                     d o.p.                ",
"              q.r.s.q.                w x D D D D D I J Q G l.l.t.u.J K K v.l.D J ..w     &                                     ",
"              w.x.x.@                   w C D C D G I I K K J I I I K I J I J K L W       a b                                   ",
"                                          w D D D D D Q J Q J I K I K I J I D Q K w       j                                     ",
"                                          w w C D D B I I C x w B w C x x x B w G w                                             ",
"                                              w B D D I I D w C G D x D D D L G w                           $ $                 ",
"                                                w w B D Q I w I J J +.K K y.z.w                             A.%     q q         ",
"                @ +                             w w w w G C C B I J K W B.d.w                             1 ]   % $ r p % $     ",
"                  @                             w x Q x Q w w w x G G w C.w w     D.b                     | ]   A.$ ] ] A.$     ",
"                                    + @       w w C J K W E.F.G.H.I.J.5.K.Q w w   ~ L.      &         c M.& &       | 1         ",
"  h '                               @         w w D R d.C N.H O.P.Q.R.S.T.B.x x           j s &         U.  s ]         { &     ",
"  V.W.    i X.Y.                              w x H L Z.x K y.D W y.M I z.B...w       &     j @               `.b  +{   ~       ",
"          .+++@+              #+c               w G I Y w I W D Q D G x W Q C         a b     @               $+  @ & L.b       ",
"                              c                 G x %+J.S.C C C K I ].G C w M         j                               ~ D.      ",
"                                                x C &+*+=+w D -+w x Y x ..w w                                                   ",
"  ;+>+                                          w x ,+K.'+}.)+L !+~+C {+]+^+                                                    ",
"  /+(+                                              w w v._+R.:+<+[+}+|+1+2+                                                    ",
"                                                    3+4+w I L w 5+6+w D K                                                       ",
"                                    c               7+8+H B Q w 9+0+I B I w                                                     ",
"      # #                   @   v t 6 @   6 c       w E G G w w w x C H w                                               $ %     ",
"    a+b+c+#                 + @ v d   c #+@                                                               7 d+e+        ) ! j   ",
"    #+f+W.                    @ ^ 6     c @                                     g+h+                      [ i+j+            M.& ",
"                    k+        @ /.c       6 c                                   l+g+                c     @ d t       9 5   U.  ",
"                  m+n+o+        @ 6                                                         ! %                   7 p+q+9       ",
"                                      #+c                                                   ) $                   c r+s+        ",
"                                @     c                                                                                         ",
"                                + @                                                                                             ",
"                                                                    + @                         % $                             ",
"                                                                    @                           A.$                             ",
"                                                                                                    /.@                         ",
"                                                                                                                                "};
