/* XPM */
static char * 0_Golem_Walking_010_xpm[] = {
"64 64 237 2",
"  	c #70A853",
". 	c #6BA350",
"+ 	c #63A04B",
"@ 	c #6EA752",
"# 	c #70A852",
"$ 	c #71A652",
"% 	c #7B934C",
"& 	c #73A351",
"* 	c #679E4E",
"= 	c #3C7337",
"- 	c #60974A",
"; 	c #61994A",
"> 	c #77A561",
", 	c #8F998C",
"' 	c #7EA26F",
") 	c #6FA451",
"! 	c #79924A",
"~ 	c #73994C",
"{ 	c #7F8848",
"] 	c #73A251",
"^ 	c #68A34E",
"/ 	c #508F3F",
"( 	c #49813C",
"_ 	c #66A14E",
": 	c #6CA551",
"< 	c #5A9146",
"[ 	c #589045",
"} 	c #649B4C",
"| 	c #76934A",
"1 	c #7A964D",
"2 	c #6CA651",
"3 	c #669F4C",
"4 	c #5D9A47",
"5 	c #69A14F",
"6 	c #65A14C",
"7 	c #68A04F",
"8 	c #68A04E",
"9 	c #6FA753",
"0 	c #588F45",
"a 	c #7C8545",
"b 	c #779C4F",
"c 	c #6CA550",
"d 	c #6BA550",
"e 	c #437839",
"f 	c #49833C",
"g 	c #619B4A",
"h 	c #77A562",
"i 	c #74A75B",
"j 	c #70A753",
"k 	c #6FA05D",
"l 	c #70A458",
"m 	c #679F4E",
"n 	c #598F45",
"o 	c #669F4D",
"p 	c #74A251",
"q 	c #79964D",
"r 	c #709F4E",
"s 	c #7F7E43",
"t 	c #6FA752",
"u 	c #6DA551",
"v 	c #69A44E",
"w 	c #1C1B19",
"x 	c #5F9649",
"y 	c #4C813E",
"z 	c #528841",
"A 	c #242324",
"B 	c #28272A",
"C 	c #2E2E33",
"D 	c #2A292C",
"E 	c #578C44",
"F 	c #201F20",
"G 	c #313136",
"H 	c #3C3C43",
"I 	c #302F34",
"J 	c #34343A",
"K 	c #639C4B",
"L 	c #568B44",
"M 	c #4E803F",
"N 	c #39383E",
"O 	c #45454D",
"P 	c #474750",
"Q 	c #404047",
"R 	c #4F4E58",
"S 	c #797989",
"T 	c #484750",
"U 	c #69A44F",
"V 	c #5C9846",
"W 	c #272629",
"X 	c #565661",
"Y 	c #88889A",
"Z 	c #7EA36E",
"` 	c #7BA06D",
" .	c #4A4A53",
"..	c #5A5A65",
"+.	c #9292A6",
"@.	c #769C4F",
"#.	c #7D8F4A",
"$.	c #6FA05C",
"%.	c #63A04A",
"&.	c #52525D",
"*.	c #8C8C9F",
"=.	c #656572",
"-.	c #6DA550",
";.	c #71707F",
">.	c #838395",
",.	c #A2A2B8",
"'.	c #62626F",
").	c #B0B0C8",
"!.	c #5D5D6A",
"~.	c #717180",
"{.	c #69A04F",
"].	c #9F9FB5",
"^.	c #828293",
"/.	c #427C39",
"(.	c #48823C",
"_.	c #6DA751",
":.	c #6AA44F",
"<.	c #842C12",
"[.	c #742D13",
"}.	c #211D1B",
"|.	c #C35C11",
"1.	c #DA7D06",
"2.	c #B95C09",
"3.	c #642216",
"4.	c #693215",
"5.	c #686876",
"6.	c #AB5A14",
"7.	c #F2A409",
"8.	c #E58206",
"9.	c #CD6B05",
"0.	c #8E3410",
"a.	c #962E0F",
"b.	c #D87406",
"c.	c #9E6A15",
"d.	c #639A4B",
"e.	c #5F9549",
"f.	c #689F4E",
"g.	c #312626",
"h.	c #D0740E",
"i.	c #F5C80A",
"j.	c #E98D06",
"k.	c #6B2313",
"l.	c #D47306",
"m.	c #E4990D",
"n.	c #442621",
"o.	c #6B6B79",
"p.	c #4A863C",
"q.	c #4B843D",
"r.	c #6DA651",
"s.	c #4F8540",
"t.	c #3B6E36",
"u.	c #933F14",
"v.	c #A57413",
"w.	c #A46C12",
"x.	c #873612",
"y.	c #6EA652",
"z.	c #5B9646",
"A.	c #403F47",
"B.	c #779049",
"C.	c #7D7D8E",
"D.	c #767686",
"E.	c #7D8E4A",
"F.	c #522A16",
"G.	c #312518",
"H.	c #541F16",
"I.	c #A96E12",
"J.	c #71A753",
"K.	c #808044",
"L.	c #3D2929",
"M.	c #8A2710",
"N.	c #B93C09",
"O.	c #EB750A",
"P.	c #903110",
"Q.	c #DB760A",
"R.	c #71A250",
"S.	c #6CA552",
"T.	c #779D6B",
"U.	c #78A564",
"V.	c #72A756",
"W.	c #9494A8",
"X.	c #7E8747",
"Y.	c #759A4D",
"Z.	c #70A459",
"`.	c #80967C",
" +	c #73A55C",
".+	c #67A34D",
"++	c #8A8A9D",
"@+	c #2F2927",
"#+	c #71A150",
"$+	c #361C18",
"%+	c #2C1C17",
"&+	c #332317",
"*+	c #51211A",
"=+	c #EB7E07",
"-+	c #D2910D",
";+	c #75A461",
">+	c #74A360",
",+	c #F09008",
"'+	c #C2A412",
")+	c #5D3718",
"!+	c #815914",
"~+	c #332D28",
"{+	c #6EA751",
"]+	c #6CA650",
"^+	c #462217",
"/+	c #431D16",
"(+	c #AE4B0B",
"_+	c #553318",
":+	c #7C2616",
"<+	c #E98008",
"[+	c #B37B10",
"}+	c #4A2917",
"|+	c #7D4915",
"1+	c #622A18",
"2+	c #5D3615",
"3+	c #462B16",
"4+	c #6C3E12",
"5+	c #673B13",
"6+	c #6DA356",
"7+	c #8C9A88",
"8+	c #8B9C84",
"9+	c #6CA451",
"0+	c #528742",
"a+	c #739A6A",
"b+	c #72A250",
"c+	c #818145",
"d+	c #4B853D",
"e+	c #649E4C",
"f+	c #71A855",
"g+	c #6FA852",
"h+	c #70A854",
"i+	c #789A6F",
"j+	c #72A659",
"k+	c #5B9047",
"l+	c #4D833F",
"m+	c #46843A",
"n+	c #64A04B",
"                                                                                                                                ",
"                                                                                                                                ",
"    . .             + @                   #                                                 $ %             &                   ",
"    * = - ;         @                   > , '                                               ) !           ~ {       ] ]         ",
"    ^ / (                               @ _ :                                     < [ }                             | 1         ",
"      @ 2                                                                         3 4 5                                         ",
"                                                                                                                      &         ",
"@ 6           7 8 9 0                                                                                                 a b       ",
"  c           d e f g                                 h i                                                             j         ",
"                d d @                                 k l                                                                       ",
"    . m                                                                                                                         ",
"    n o                                                                                                                         ",
"                                                                                                                                ",
"                                                                                                                                ",
"                                                                      @                       p q               &               ",
"                                                                      6 c                     r q             j s &             ",
"    t t       u   ;             v v                     w w w w w w w w                                         j               ",
"    v v       x y z             t t               w w A B C C C C C D B A w w       E                                           ",
"                6 @                           w F D G G C D G H H G I G H H J A w   K L M                                       ",
"                                            w B G G D B G N J H H O P Q O O R S T w U V o                                       ",
"                    @                     w W G G B J O H H H Q O O T O O O O X Y O                                   Z `       ",
"                  c 6                     w G C D H H H H H Q O Q Q T  .P ..T T ..+.w         @.#.                    $.%.      ",
"                                        w B G G H H H H H H O O O O P P P R O Q &.*.=.w       -.@.                              ",
"                                        w C G J H Q T H H H O Q O O P P P O O O  .;.>.w                                         ",
"                                        w G G J H J Q H H O O O O O O O O Q O O  .=.,.B                                         ",
"                                      w W G J G H N H H Q O O O O P O O O P &.P ..'.)...                                        ",
"                    @                 w D G C G H H H H O O O O T '. .P O  .=.R !.=.).~.                                        ",
"  {.8 9             + @               w G G C G H H H Q H O O O O  .P P T O T P X '.].^.w                               ] ]     ",
"  d /.(.                      c 6     w G G C J Q H J H A w J O O P P  .&.O O  .Q  .~.*.w                               | 1     ",
"    d _.                        @     w G C C G Q H H J G G W A H O P P O O O H w J '.Y w                                       ",
"            v v                   :.@ w G G C D H H H C <.[.B D }.Q O O O O H W H J R ;.w                                 1 ]   ",
"    :.:.    t t                   :.@ w C G G W H H H G |.1.2.[.B D O O O O G J 3.4.5.X                                   | ]   ",
"    @ @                               w D G C C C H H J 6.7.8.9.0.G O O &.Q C a.b.c.S C                     d.e.7               ",
"                  f.7                   A G G G C J H H g.h.i.j.9.k.Q O T H 3.l.m.n.o.w                   d p.q.                ",
"              r.s.t.r.                  w C G G J B H Q H g.u.v.w.x.G O O N x.w.n.H &.    &                                     ",
"              y.z.z.@                   w A G G C C J H O Q H J J C G Q Q G B J Q =.A     a b                                   ",
"                                          w B G G J D J H O Q P Q O O O Q O O O A...w     j                                     ",
"                                            w D G G D J H H w C B H C H B Q A J }.H                                             ",
"                                              w B G C N H H w w W w A w B w J B A w                         $ $                 ",
"                                                w w D G N H A G H J H N H N !.R w                           B.%     q q         ",
"                @ +                             w w w w D G G W H O R  .&.C.D.w                           1 ]   % $ r p % $     ",
"                  @                           w w w C W D w A w G J H H T J w w   E.b                     | ]   B.$ ] ] B.$     ",
"                                    + @       w w C H J Q T k.k.F.w G.H.I.O H w w ~ J.      &         c K.& &       | 1         ",
"  h '                               @         w B J P O H X L.M.N.O.6.P.Q.N >.W w         j s &         R.  s ]         { &     ",
"  S.T.    i U.V.                              w G O ~.&.G O o.B J Q O B R B W.T       &     j @               X.b Y.{   ~       ",
"          Z.`. +              .+c             A A H ++@+B H !.C  .X ..G o.G ~.J       a b     @               #+  @ & J.b       ",
"                              c             w C $+%+w &+A N H G P J C W J A W o.w     j                               ~ E.      ",
"                                            w C *+=+-+F D W W T A B C A X w G R w                                               ",
"  ;+>+                                        w }.,+'+C H )+J S !+~+=.A H &+J H                                                 ",
"  {+]+                                          w ^+w w /+(+_+:+<+[+}+|+1+2+w                                                   ",
"                                                      2+3+}.G A }.}.}.g.w                                                       ",
"                                    c                 4+5+D G D w H G X w                                                       ",
"      # #                   @   v t 6 @   6 c         }.W J D w w B N w w                                               $ %     ",
"    6+7+8+#                 + @ v d   c .+@             w                                                 7 9+0+        ) ! j   ",
"    .+a+T.                    @ ^ 6     c @                                     b+c+                      [ d+e+            K.& ",
"                    f+        @ :.c       6 c                                   g+b+                c     @ d t       9 5   R.  ",
"                  h+i+j+        @ 6                                                         ! %                   7 k+l+9       ",
"                                      .+c                                                   ) $                   c m+n+        ",
"                                @     c                                                                                         ",
"                                + @                                                                                             ",
"                                                                    + @                         % $                             ",
"                                                                    @                           B.$                             ",
"                                                                                                    :.@                         ",
"                                                                                                                                "};
