/* XPM */
static char * 0_Golem_Walking_002_xpm[] = {
"64 64 233 2",
"  	c #70A853",
". 	c #6BA350",
"+ 	c #63A04B",
"@ 	c #6EA752",
"# 	c #70A852",
"$ 	c #71A652",
"% 	c #7B934C",
"& 	c #73A351",
"* 	c #679E4E",
"= 	c #3C7337",
"- 	c #60974A",
"; 	c #61994A",
"> 	c #77A561",
", 	c #8F998C",
"' 	c #7EA26F",
") 	c #6FA451",
"! 	c #79924A",
"~ 	c #73994C",
"{ 	c #7F8848",
"] 	c #73A251",
"^ 	c #68A34E",
"/ 	c #508F3F",
"( 	c #49813C",
"_ 	c #66A14E",
": 	c #6CA551",
"< 	c #5A9146",
"[ 	c #589045",
"} 	c #649B4C",
"| 	c #76934A",
"1 	c #7A964D",
"2 	c #6CA651",
"3 	c #669F4C",
"4 	c #5D9A47",
"5 	c #69A14F",
"6 	c #65A14C",
"7 	c #68A04F",
"8 	c #68A04E",
"9 	c #6FA753",
"0 	c #588F45",
"a 	c #7C8545",
"b 	c #779C4F",
"c 	c #6CA550",
"d 	c #6BA550",
"e 	c #437839",
"f 	c #49833C",
"g 	c #619B4A",
"h 	c #77A562",
"i 	c #74A75B",
"j 	c #70A753",
"k 	c #6FA05D",
"l 	c #70A458",
"m 	c #679F4E",
"n 	c #598F45",
"o 	c #669F4D",
"p 	c #74A251",
"q 	c #79964D",
"r 	c #709F4E",
"s 	c #7F7E43",
"t 	c #6FA752",
"u 	c #6DA551",
"v 	c #69A44E",
"w 	c #1C1B19",
"x 	c #5F9649",
"y 	c #4C813E",
"z 	c #528841",
"A 	c #232223",
"B 	c #262629",
"C 	c #2A2A2D",
"D 	c #2E2D32",
"E 	c #578C44",
"F 	c #313136",
"G 	c #34343A",
"H 	c #3C3C43",
"I 	c #38383E",
"J 	c #639C4B",
"K 	c #568B44",
"L 	c #4E803F",
"M 	c #404047",
"N 	c #45454E",
"O 	c #474750",
"P 	c #52525C",
"Q 	c #69A44F",
"R 	c #5C9846",
"S 	c #29272A",
"T 	c #656573",
"U 	c #858597",
"V 	c #7EA36E",
"W 	c #7BA06D",
"X 	c #4F4F59",
"Y 	c #4A4A54",
"Z 	c #6D6D7C",
"` 	c #757584",
" .	c #769C4F",
"..	c #7D8F4A",
"+.	c #6FA05C",
"@.	c #63A04A",
"#.	c #565661",
"$.	c #9595A9",
"%.	c #6DA550",
"&.	c #727281",
"*.	c #7B7B8C",
"=.	c #A9A9C0",
"-.	c #5E5E6A",
";.	c #61616E",
">.	c #787889",
",.	c #B0B0C8",
"'.	c #69A04F",
").	c #7C7C8D",
"!.	c #427C39",
"~.	c #48823C",
"{.	c #595964",
"].	c #A7A7BE",
"^.	c #6DA751",
"/.	c #8F8FA2",
"(.	c #6AA44F",
"_.	c #612416",
":.	c #A7400D",
"<.	c #5B2419",
"[.	c #773916",
"}.	c #ED8C0C",
"|.	c #CF6F05",
"1.	c #9C470E",
"2.	c #3C2521",
"3.	c #ED9907",
"4.	c #D77A06",
"5.	c #B04A0A",
"6.	c #322624",
"7.	c #312A2A",
"8.	c #8A2811",
"9.	c #B55E0D",
"0.	c #639A4B",
"a.	c #5F9549",
"b.	c #689F4E",
"c.	c #8D3D14",
"d.	c #F3B80A",
"e.	c #EFA307",
"f.	c #D47405",
"g.	c #903610",
"h.	c #9D390E",
"i.	c #DC7D06",
"j.	c #C37E11",
"k.	c #4A863C",
"l.	c #4B843D",
"m.	c #6DA651",
"n.	c #4F8540",
"o.	c #3B6E36",
"p.	c #682A18",
"q.	c #A16413",
"r.	c #AD7411",
"s.	c #A34D0E",
"t.	c #CF8E10",
"u.	c #462521",
"v.	c #686875",
"w.	c #6EA652",
"x.	c #5B9646",
"y.	c #4E2217",
"z.	c #779049",
"A.	c #7D8E4A",
"B.	c #732311",
"C.	c #2C1E17",
"D.	c #271B17",
"E.	c #795316",
"F.	c #71A753",
"G.	c #808044",
"H.	c #93290E",
"I.	c #BE4308",
"J.	c #E4740B",
"K.	c #9C5214",
"L.	c #94320F",
"M.	c #DC7C0A",
"N.	c #71A250",
"O.	c #6CA552",
"P.	c #779D6B",
"Q.	c #78A564",
"R.	c #72A756",
"S.	c #8B8B9E",
"T.	c #7E8747",
"U.	c #759A4D",
"V.	c #70A459",
"W.	c #80967C",
"X.	c #73A55C",
"Y.	c #67A34D",
"Z.	c #71A150",
"`.	c #793F15",
" +	c #C7820E",
".+	c #514217",
"++	c #551F14",
"@+	c #C25E0E",
"#+	c #F0AB08",
"$+	c #937F15",
"%+	c #75A461",
"&+	c #74A360",
"*+	c #693712",
"=+	c #33251C",
"-+	c #3A1F1B",
";+	c #B45D11",
">+	c #462A25",
",+	c #392617",
"'+	c #6EA751",
")+	c #6CA650",
"!+	c #322317",
"~+	c #3B1C17",
"{+	c #863E11",
"]+	c #5C3617",
"^+	c #71261A",
"/+	c #E88008",
"(+	c #B37C10",
"_+	c #402418",
":+	c #7E4B14",
"<+	c #834A0D",
"[+	c #452B16",
"}+	c #221A18",
"|+	c #2E1D19",
"1+	c #724111",
"2+	c #6DA356",
"3+	c #8C9A88",
"4+	c #8B9C84",
"5+	c #6CA451",
"6+	c #528742",
"7+	c #739A6A",
"8+	c #72A250",
"9+	c #818145",
"0+	c #4B853D",
"a+	c #649E4C",
"b+	c #71A855",
"c+	c #6FA852",
"d+	c #70A854",
"e+	c #789A6F",
"f+	c #72A659",
"g+	c #5B9047",
"h+	c #4D833F",
"i+	c #46843A",
"j+	c #64A04B",
"                                                                                                                                ",
"                                                                                                                                ",
"    . .             + @                   #                                                 $ %             &                   ",
"    * = - ;         @                   > , '                                               ) !           ~ {       ] ]         ",
"    ^ / (                               @ _ :                                     < [ }                             | 1         ",
"      @ 2                                                                         3 4 5                                         ",
"                                                                                                                      &         ",
"@ 6           7 8 9 0                                                                                                 a b       ",
"  c           d e f g                                 h i                                                             j         ",
"                d d @                                 k l                                                                       ",
"    . m                                                                                                                         ",
"    n o                                                                                                                         ",
"                                                                                                                                ",
"                                                                                                                                ",
"                                                                      @                       p q               &               ",
"                                                                      6 c                     r q             j s &             ",
"    t t       u   ;             v v                     w w w w w w w w                                         j               ",
"    v v       x y z             t t               w w A B C D D D D C B A w w w     E                                           ",
"                6 @                             w B F G F D B C H I F D C F D A w   J K L                                       ",
"                                              w D G F B C G H I H H M N N N N O P w Q R o                                       ",
"                    @                       w C G F S H N H H H H N O N M M N N T U w                                 V W       ",
"                  c 6                       A G F F H H H H H M O N M O X N X O Y Z ` w        ...                    +.@.      ",
"                                          w D G G H H H H H H N N N N O N N #.O N P $.G       %. .                              ",
"                                          w G G I H M Y H H H N M N O N N N O N N P U &.w                                       ",
"                                        w B G F G H G H H H N N N O O N N N M O N Y Z *.w                                       ",
"                                        w D G C G H H H H N N N N N O N N N N N N #.&.=.w                                       ",
"                    @                   w G G C I H H H M N N N N X -.N N N P ;.O ;.>.,.D                                       ",
"  '.8 9             + @               c A G G S I H H H H H N N N N X N N N Y #.O ;.).,.Y                               ] ]     ",
"  d !.~.                      c 6     w B F F B N H H I I A A H O N N N P O N Y N {.T ].#.                              | 1     ",
"    d ^.                        @     w B G G A H H H H B F F w D N N N N N N N H C P /.{.                                      ",
"            v v                   (.@ w B G G C G H H H _.:.<.C B F N N N N N H w G P U X                                 1 ]   ",
"    (.(.    t t                   (.@   A G D F C H H H [.}.|.1.2.S M N N O M G G C D &.A                                 | ]   ",
"    @ @                                 w G F G C G H H 2.}.3.4.5.6.M N O P F 7.8.9.C U w                   0.a.7               ",
"                  b.7                   w D G G I S H H G c.d.e.f.g.I N O O F h.i.j.#.-.                  d k.l.                ",
"              m.n.o.m.                    A G G D D G H M F p.q.r.s.S N N N <.4.t.u.v.w   &                                     ",
"              w.x.x.@                     w C G D G C H M N H I G D B N N H y.2.C M #.w   a b                                   ",
"                                          c w D G G C G H N H N N M M M H M H M N T S     j                                     ",
"                                              w D G C I H H w D B H G N G N I M F X w                                           ",
"                                                w D F I H I w w B w w B A C S A B F                         $ $                 ",
"                                                  w A D I H A G H G I F I C N I w w                         z.%     q q         ",
"                @ +                               w w w B F D C M N P O O ;.U F w                         1 ]   % $ r p % $     ",
"                  @                             w w F B C w A w G H M O ;.T w w   A.b                     | ]   z.$ ] ] z.$     ",
"                                    + @         w A I Y I 7.B._.C.w w D.E.w w w   ~ F.      &         c G.& &       | 1         ",
"  h '                               @         w w A I Y ;.N u.H.I.J.K.L.M.w w w           j s &         N.  s ]         { &     ",
"  O.P.    i Q.R.                                A A G #.S.D T B F M M S P w A w       &     j @               T.b U.{   ~       ",
"          V.W.X.              Y.c               w w F H {.w H D Y {.{.G Z w w         a b     @               Z.  @ & F.b       ",
"                              c                 w w B w `. +.+F N I D B G w           j                               ~ A.      ",
"                                                w ++D A @+#+$+H B C C A #.w                                                     ",
"  %+&+                                          w *+=+C -+;+>+).E.7.v.A H ,+                                                    ",
"  '+)+                                            w !+w ~+{+]+^+/+(+_+:+<.]+                                                    ",
"                                                  w <+[+C O w }+C.[+C.|+w w                                                     ",
"                                    c             w A G C {.w     1+6.M I w                                                     ",
"      # #                   @   v t 6 @   6 c       w C C w w     w B S w w                                             $ %     ",
"    2+3+4+#                 + @ v d   c Y.@                                                               7 5+6+        ) ! j   ",
"    Y.7+P.                    @ ^ 6     c @                                     8+9+                      [ 0+a+            G.& ",
"                    b+        @ (.c       6 c                                   c+8+                c     @ d t       9 5   N.  ",
"                  d+e+f+        @ 6                                                         ! %                   7 g+h+9       ",
"                                      Y.c                                                   ) $                   c i+j+        ",
"                                @     c                                                                                         ",
"                                + @                                                                                             ",
"                                                                    + @                         % $                             ",
"                                                                    @                           z.$                             ",
"                                                                                                    (.@                         ",
"                                                                                                                                "};
