/* XPM */
static char * 0_Golem_Walking_015_xpm[] = {
"64 64 235 2",
"  	c #70A853",
". 	c #6BA350",
"+ 	c #63A04B",
"@ 	c #6EA752",
"# 	c #70A852",
"$ 	c #71A652",
"% 	c #7B934C",
"& 	c #73A351",
"* 	c #679E4E",
"= 	c #3C7337",
"- 	c #60974A",
"; 	c #61994A",
"> 	c #77A561",
", 	c #8F998C",
"' 	c #7EA26F",
") 	c #6FA451",
"! 	c #79924A",
"~ 	c #73994C",
"{ 	c #7F8848",
"] 	c #73A251",
"^ 	c #68A34E",
"/ 	c #508F3F",
"( 	c #49813C",
"_ 	c #66A14E",
": 	c #6CA551",
"< 	c #5A9146",
"[ 	c #589045",
"} 	c #649B4C",
"| 	c #76934A",
"1 	c #7A964D",
"2 	c #6CA651",
"3 	c #669F4C",
"4 	c #5D9A47",
"5 	c #69A14F",
"6 	c #65A14C",
"7 	c #68A04F",
"8 	c #68A04E",
"9 	c #6FA753",
"0 	c #588F45",
"a 	c #7C8545",
"b 	c #779C4F",
"c 	c #6CA550",
"d 	c #6BA550",
"e 	c #437839",
"f 	c #49833C",
"g 	c #619B4A",
"h 	c #77A562",
"i 	c #74A75B",
"j 	c #70A753",
"k 	c #6FA05D",
"l 	c #70A458",
"m 	c #679F4E",
"n 	c #598F45",
"o 	c #669F4D",
"p 	c #74A251",
"q 	c #79964D",
"r 	c #709F4E",
"s 	c #7F7E43",
"t 	c #6FA752",
"u 	c #6DA551",
"v 	c #69A44E",
"w 	c #1B1A17",
"x 	c #5F9649",
"y 	c #4C813E",
"z 	c #528841",
"A 	c #1C1B19",
"B 	c #232324",
"C 	c #2A2A2D",
"D 	c #2E2E32",
"E 	c #313136",
"F 	c #272629",
"G 	c #578C44",
"H 	c #34343A",
"I 	c #3C3C43",
"J 	c #38373D",
"K 	c #302F34",
"L 	c #38383F",
"M 	c #639C4B",
"N 	c #568B44",
"O 	c #4E803F",
"P 	c #45454D",
"Q 	c #565662",
"R 	c #62626E",
"S 	c #69A44F",
"T 	c #5C9846",
"U 	c #414047",
"V 	c #4A4A53",
"W 	c #757585",
"X 	c #7EA36E",
"Y 	c #7BA06D",
"Z 	c #4F4F59",
"` 	c #474750",
" .	c #52525D",
"..	c #7E7E8F",
"+.	c #5E5E6A",
"@.	c #769C4F",
"#.	c #7D8F4A",
"$.	c #6FA05C",
"%.	c #63A04A",
"&.	c #9999AD",
"*.	c #6DA550",
"=.	c #595965",
"-.	c #484750",
";.	c #7A7A8B",
">.	c #6C6C7A",
",.	c #8D8DA0",
"'.	c #9494A8",
").	c #A1A1B6",
"!.	c #69A04F",
"~.	c #A9A9C0",
"{.	c #427C39",
"].	c #48823C",
"^.	c #666573",
"/.	c #6DA751",
"(.	c #6AA44F",
"_.	c #812A13",
":.	c #A0420E",
"<.	c #562219",
"[.	c #868698",
"}.	c #9C4A15",
"|.	c #EA8A09",
"1.	c #CC6D05",
"2.	c #99440F",
"3.	c #362323",
"4.	c #502017",
"5.	c #737382",
"6.	c #60311A",
"7.	c #F0970B",
"8.	c #EC9907",
"9.	c #D67605",
"0.	c #AE470B",
"a.	c #2A2729",
"b.	c #B7420A",
"c.	c #BB7B0F",
"d.	c #639A4B",
"e.	c #5F9549",
"f.	c #689F4E",
"g.	c #9C4613",
"h.	c #F4BA0A",
"i.	c #EEA107",
"j.	c #D37305",
"k.	c #8B3211",
"l.	c #BC5008",
"m.	c #EA9A08",
"n.	c #955014",
"o.	c #4A863C",
"p.	c #4B843D",
"q.	c #6DA651",
"r.	c #4F8540",
"s.	c #3B6E36",
"t.	c #642918",
"u.	c #935814",
"v.	c #A16E13",
"w.	c #934110",
"x.	c #7D2B13",
"y.	c #C4790D",
"z.	c #9B6514",
"A.	c #605F6C",
"B.	c #6EA652",
"C.	c #5B9646",
"D.	c #211E1C",
"E.	c #779049",
"F.	c #808091",
"G.	c #7D8E4A",
"H.	c #742412",
"I.	c #592C16",
"J.	c #251D17",
"K.	c #4F1E16",
"L.	c #71A753",
"M.	c #808044",
"N.	c #3B292A",
"O.	c #872710",
"P.	c #B3380B",
"Q.	c #DF700C",
"R.	c #9F5314",
"S.	c #D3740C",
"T.	c #71A250",
"U.	c #6CA552",
"V.	c #779D6B",
"W.	c #78A564",
"X.	c #72A756",
"Y.	c #7E8747",
"Z.	c #759A4D",
"`.	c #70A459",
" +	c #80967C",
".+	c #73A55C",
"++	c #67A34D",
"@+	c #828293",
"#+	c #71A150",
"$+	c #686876",
"%+	c #D36B0B",
"&+	c #E39709",
"*+	c #694116",
"=+	c #75A461",
"-+	c #74A360",
";+	c #C2660F",
">+	c #EABB0C",
",+	c #3A2F24",
"'+	c #643A15",
")+	c #8C5F14",
"!+	c #3B3125",
"~+	c #3F2917",
"{+	c #6EA751",
"]+	c #6CA650",
"^+	c #3E2017",
"/+	c #4B2417",
"(+	c #3F1D17",
"_+	c #AC4A0B",
":+	c #573316",
"<+	c #7A2615",
"[+	c #E77D08",
"}+	c #854914",
"|+	c #5D2717",
"1+	c #2E2017",
"2+	c #7E470F",
"3+	c #5B3516",
"4+	c #6DA356",
"5+	c #8C9A88",
"6+	c #8B9C84",
"7+	c #6CA451",
"8+	c #528742",
"9+	c #739A6A",
"0+	c #72A250",
"a+	c #818145",
"b+	c #4B853D",
"c+	c #649E4C",
"d+	c #71A855",
"e+	c #6FA852",
"f+	c #70A854",
"g+	c #789A6F",
"h+	c #72A659",
"i+	c #5B9047",
"j+	c #4D833F",
"k+	c #46843A",
"l+	c #64A04B",
"                                                                                                                                ",
"                                                                                                                                ",
"    . .             + @                   #                                                 $ %             &                   ",
"    * = - ;         @                   > , '                                               ) !           ~ {       ] ]         ",
"    ^ / (                               @ _ :                                     < [ }                             | 1         ",
"      @ 2                                                                         3 4 5                                         ",
"                                                                                                                      &         ",
"@ 6           7 8 9 0                                                                                                 a b       ",
"  c           d e f g                                 h i                                                             j         ",
"                d d @                                 k l                                                                       ",
"    . m                                                                                                                         ",
"    n o                                                                                                                         ",
"                                                                                                                                ",
"                                                                                                                                ",
"                                                                      @                       p q               &               ",
"                                                                      6 c                     r q             j s &             ",
"    t t       u   ;             v v                     w w w w w w w w                                         j               ",
"    v v       x y z             t t               w A B C D D E D D D C F A w w     G                                           ",
"                6 @                           w A C E E D C F H I J E D K L E F w   M N O                                       ",
"                                            w B E E D F E L I L I I P P P P P Q R w S T o                                       ",
"                    @                       A E E C D I P I I I U P P V U P P V W W w                                 X Y       ",
"                  c 6                     w C E D E I I I I I P P U P Z ` V Q `  ...+.w       @.#.                    $.%.      ",
"                                          A E E J I I I I I U P P P P P P V  .U P +.&.w       *.@.                              ",
"                                        w F E E I I V U I I U P U P P P P P P P P =.&.-.                                        ",
"                                        w D E C I J J I I U P P P P ` P P P U ` P Q ;.>.w                                       ",
"                                        A E H F I I I I I P P P P ` ` P P P V V ` R ,.'.w                                       ",
"                    @                   B E E F I I I I P P P P P Q Q P P P =.+. .R '.).w                                       ",
"  !.8 9             + @               w C E E F I I I I H I P P P ` V P P P V V Z R ,.~.w                               ] ]     ",
"  d {.].                      c 6     w C E E F V I L L H A F I P ` P P Q ` P V P  .^.~.w                               | 1     ",
"    d /.                        @     w C E E B I I I I B E K A E P P P P P P P D A Q &.A                                       ",
"            v v                   (.@ w C E E F I I I I _.:.<.C B H ` P P P P C D I Z [.w                                 1 ]   ",
"    (.(.    t t                   (.@ w F E E D E I I I }.|.1.2.3.C U P P P J I C 4.E 5.w                                 | ]   ",
"    @ @                                 B E E E F L I I 6.7.8.9.0.a.P P Z Z E <.b.c. .5.w                   d.e.7               ",
"                  f.7                   w D E E J C I I E g.h.i.j.k.I P V P a.l.m.n.>.D                   d o.p.                ",
"              q.r.s.q.                  w F E E D D J I U D t.u.v.w.C P P I x.y.z.D A.w   &                                     ",
"              B.C.C.@                     w D E D H D I P P U I J K D P U L D.C J  .P     a b                                   ",
"                                          c A E E H C E I P I P U P P U U P U P P ^.w     j                                     ",
"                                            w B E E C L I I w C F I K U D P C I B V w                                           ",
"                                              w A D E J I L w A F A B D.F B D D.F B                         $ $                 ",
"                                                w w F D J I B E I J I J I E Z P w w                         E.%     q q         ",
"                @ +                             w w w w F E D C I P  .V Z W F.F w                         1 ]   % $ r p % $     ",
"                  @                           w A A K B L w B A E H I U =.P w w   G.b                     | ]   E.$ ] ] E.$     ",
"                                    + @       A w D I J U P H.H.I.J.J.K.z.P E w w ~ L.      &         c M.& &       | 1         ",
"  h '                               @         B B H P V I  .N.O.P.Q.R.k.S.U ;.F w         j s &         T.  s ]         { &     ",
"  U.V.    i W.X.                              w D I ^.^.E P >.F L V Z C =.E &.F       &     j @               Y.b Z.{   ~       ",
"          `. +.+              ++c             A B L @+P F I +.D V  . .K ^.K W D.      a b     @               #+  @ & L.b       ",
"                              c               C B D.w w B J I E V L E F H A J $+      j                               ~ G.      ",
"                                              F F %+&+*+C B F Z A B U B =.w J U                                                 ",
"  =+-+                                        A B ;+>+,+I '+H 5.)+!++.B E ~+P D                                                 ",
"  {+]+                                          w ^+/+w (+_+:+<+[+c./+}+|+:+                                                    ",
"                                                      '+1+C U w w A A E w                                                       ",
"                                    c                 2+3+F P B A L I P w                                                       ",
"      # #                   @   v t 6 @   6 c         J.C L F w w A D F w                                               $ %     ",
"    4+5+6+#                 + @ v d   c ++@           w w                                                 7 7+8+        ) ! j   ",
"    ++9+V.                    @ ^ 6     c @                                     0+a+                      [ b+c+            M.& ",
"                    d+        @ (.c       6 c                                   e+0+                c     @ d t       9 5   T.  ",
"                  f+g+h+        @ 6                                                         ! %                   7 i+j+9       ",
"                                      ++c                                                   ) $                   c k+l+        ",
"                                @     c                                                                                         ",
"                                + @                                                                                             ",
"                                                                    + @                         % $                             ",
"                                                                    @                           E.$                             ",
"                                                                                                    (.@                         ",
"                                                                                                                                "};
