/* XPM */
static char * 0_Golem_Walking_013_xpm[] = {
"64 64 244 2",
"  	c #70A853",
". 	c #6BA350",
"+ 	c #63A04B",
"@ 	c #6EA752",
"# 	c #70A852",
"$ 	c #71A652",
"% 	c #7B934C",
"& 	c #73A351",
"* 	c #679E4E",
"= 	c #3C7337",
"- 	c #60974A",
"; 	c #61994A",
"> 	c #77A561",
", 	c #8F998C",
"' 	c #7EA26F",
") 	c #6FA451",
"! 	c #79924A",
"~ 	c #73994C",
"{ 	c #7F8848",
"] 	c #73A251",
"^ 	c #68A34E",
"/ 	c #508F3F",
"( 	c #49813C",
"_ 	c #66A14E",
": 	c #6CA551",
"< 	c #5A9146",
"[ 	c #589045",
"} 	c #649B4C",
"| 	c #76934A",
"1 	c #7A964D",
"2 	c #6CA651",
"3 	c #669F4C",
"4 	c #5D9A47",
"5 	c #69A14F",
"6 	c #65A14C",
"7 	c #68A04F",
"8 	c #68A04E",
"9 	c #6FA753",
"0 	c #588F45",
"a 	c #7C8545",
"b 	c #779C4F",
"c 	c #6CA550",
"d 	c #6BA550",
"e 	c #437839",
"f 	c #49833C",
"g 	c #619B4A",
"h 	c #77A562",
"i 	c #74A75B",
"j 	c #70A753",
"k 	c #6FA05D",
"l 	c #70A458",
"m 	c #679F4E",
"n 	c #598F45",
"o 	c #669F4D",
"p 	c #74A251",
"q 	c #79964D",
"r 	c #709F4E",
"s 	c #7F7E43",
"t 	c #6FA752",
"u 	c #6DA551",
"v 	c #69A44E",
"w 	c #1C1B19",
"x 	c #5F9649",
"y 	c #4C813E",
"z 	c #528841",
"A 	c #232324",
"B 	c #28272A",
"C 	c #2A292D",
"D 	c #2E2D32",
"E 	c #272628",
"F 	c #578C44",
"G 	c #313136",
"H 	c #39393E",
"I 	c #3C3C43",
"J 	c #639C4B",
"K 	c #568B44",
"L 	c #4E803F",
"M 	c #404047",
"N 	c #45454D",
"O 	c #4A4A54",
"P 	c #69A44F",
"Q 	c #5C9846",
"R 	c #333339",
"S 	c #5D5D69",
"T 	c #8B8B9E",
"U 	c #231F1C",
"V 	c #7EA36E",
"W 	c #7BA06D",
"X 	c #52525D",
"Y 	c #6D6D7B",
"Z 	c #787888",
"` 	c #769C4F",
" .	c #7D8F4A",
"..	c #6FA05C",
"+.	c #63A04A",
"@.	c #474750",
"#.	c #565661",
"$.	c #4F4F59",
"%.	c #8F8FA2",
"&.	c #6DA550",
"*.	c #777787",
"=.	c #868699",
"-.	c #656572",
";.	c #848496",
">.	c #62626F",
",.	c #ACACC4",
"'.	c #B0B0C8",
").	c #595965",
"!.	c #69A04F",
"~.	c #427C39",
"{.	c #48823C",
"].	c #67A34D",
"^.	c #A1A1B7",
"/.	c #727181",
"(.	c #6DA751",
"_.	c #818192",
":.	c #6AA44F",
"<.	c #A4390E",
"[.	c #5A2318",
"}.	c #ED800A",
"|.	c #D06F05",
"1.	c #9F490E",
"2.	c #3D2321",
"3.	c #302F34",
"4.	c #E5860C",
"5.	c #ED9C07",
"6.	c #DA7905",
"7.	c #B5520A",
"8.	c #6C2313",
"9.	c #2C2220",
"0.	c #639A4B",
"a.	c #5F9549",
"b.	c #689F4E",
"c.	c #7A3116",
"d.	c #F0B00B",
"e.	c #F0AE08",
"f.	c #D87705",
"g.	c #A0400E",
"h.	c #7B2913",
"i.	c #D26506",
"j.	c #DD910D",
"k.	c #4A863C",
"l.	c #4B843D",
"m.	c #6DA651",
"n.	c #4F8540",
"o.	c #3B6E36",
"p.	c #6D2C17",
"q.	c #AB6A12",
"r.	c #BD7E10",
"s.	c #B35C0C",
"t.	c #49211C",
"u.	c #332627",
"v.	c #C66408",
"w.	c #E29C0D",
"x.	c #764318",
"y.	c #6EA652",
"z.	c #5B9646",
"A.	c #471F17",
"B.	c #643518",
"C.	c #779049",
"D.	c #7D8E4A",
"E.	c #541F15",
"F.	c #4D3017",
"G.	c #71A753",
"H.	c #808044",
"I.	c #432524",
"J.	c #94290E",
"K.	c #BF3E07",
"L.	c #D6660C",
"M.	c #B15E12",
"N.	c #93310F",
"O.	c #E67108",
"P.	c #554D2A",
"Q.	c #71A250",
"R.	c #6CA552",
"S.	c #779D6B",
"T.	c #78A564",
"U.	c #72A756",
"V.	c #686875",
"W.	c #563928",
"X.	c #4E3B33",
"Y.	c #7D7D8E",
"Z.	c #7E8747",
"`.	c #759A4D",
" +	c #70A459",
".+	c #80967C",
"++	c #73A55C",
"@+	c #5D3715",
"#+	c #71A150",
"$+	c #5B2116",
"%+	c #291C18",
"&+	c #733713",
"*+	c #484750",
"=+	c #BC590F",
"-+	c #E79408",
";+	c #875515",
">+	c #75A461",
",+	c #74A360",
"'+	c #BD6210",
")+	c #E9B80C",
"!+	c #4E4217",
"~+	c #4D311D",
"{+	c #828294",
"]+	c #694A1A",
"^+	c #6EA751",
"/+	c #6CA650",
"(+	c #332317",
"_+	c #491E18",
":+	c #56341B",
"<+	c #6A261C",
"[+	c #A17512",
"}+	c #3F2A1B",
"|+	c #6B4616",
"1+	c #592B1C",
"2+	c #603716",
"3+	c #4F2F15",
"4+	c #57231C",
"5+	c #6C3016",
"6+	c #683C16",
"7+	c #3D1D17",
"8+	c #4E1F17",
"9+	c #361C17",
"0+	c #523015",
"a+	c #8B4E0E",
"b+	c #37251B",
"c+	c #6DA356",
"d+	c #8C9A88",
"e+	c #8B9C84",
"f+	c #6CA451",
"g+	c #528742",
"h+	c #739A6A",
"i+	c #72A250",
"j+	c #818145",
"k+	c #4B853D",
"l+	c #649E4C",
"m+	c #71A855",
"n+	c #6FA852",
"o+	c #70A854",
"p+	c #789A6F",
"q+	c #72A659",
"r+	c #5B9047",
"s+	c #4D833F",
"t+	c #46843A",
"u+	c #64A04B",
"                                                                                                                                ",
"                                                                                                                                ",
"    . .             + @                   #                                                 $ %             &                   ",
"    * = - ;         @                   > , '                                               ) !           ~ {       ] ]         ",
"    ^ / (                               @ _ :                                     < [ }                             | 1         ",
"      @ 2                                                                         3 4 5                                         ",
"                                                                                                                      &         ",
"@ 6           7 8 9 0                                                                                                 a b       ",
"  c           d e f g                                 h i                                                             j         ",
"                d d @                                 k l                                                                       ",
"    . m                                                                                                                         ",
"    n o                                                                                                                         ",
"                                                                                                                                ",
"                                                                                                                                ",
"                                                                      @                       p q               &               ",
"                                                                      6 c                     r q             j s &             ",
"    t t       u   ;             v v                       w w w w w w                                           j               ",
"    v v       x y z             t t                 w w A B C D D D C E A w w w     F                                           ",
"                6 @                             w A D G G D C B H I G C C D D A w   J K L                                       ",
"                                              w B G G C B G H H I I I M N N N M O E P Q o                                       ",
"                    @                       w E G G E R M M I I I N N N M M N N S T U                                 V W       ",
"                  c 6                       w G G D H I I I I I N N M N X N O O O Y Z w       `  .                    ..+.      ",
"                                          w B G G I I I I I I N N N N N @.@.#.$.N X %.O       &.`                               ",
"                                          w G G H I I $.I I I N N N N N N N @.N M $.*.=.w                                       ",
"                                          A G G G I G I I I N N N N @.N N N M @.N N -.;.w                                       ",
"                                        w C G G G I I I I M N N N N @.N N N M N N $.>.,.H                                       ",
"                    @                   w G G D G I I I M N N N N O S @.N N $.S O S -.'.).                                      ",
"  !.8 9             + @               c w G G D G I I I I I N N N N X N N N O ).O >.Y '.Y                               ] ]     ",
"  d ~.{.                      c 6     ].A G D C M M I R H A A I @.@.N N $.$.N O O #.>.^./.                              | 1     ",
"    d (.                        @       A G G B R I I I D G G w D N N N N @.N N N G O _.*.                                      ",
"            v v                   :.@   A G G D G I I I E <.[.C E D N N N N N M A C O *.Y                                 1 ]   ",
"    :.:.    t t                   :.@   w G G G E I I I A }.|.1.2.B I N N N N 3.R G C -.$.                                | ]   ",
"    @ @                                 w G G G D G I I E 4.5.6.7.2.I N N X R G 8.7.9.=.w                   0.a.7               ",
"                  b.7                   w C G G R C I I H c.d.e.f.g.G N N $.R h.i.j.D Z w                 d k.l.                ",
"              m.n.o.m.                    w G G D G G I M G p.q.r.s.t.N N N u.v.w.x.S H   &                                     ",
"              y.z.z.@                     w C G D G C I M N I R G C w M N M A.B.E H S w   a b                                   ",
"                                          c w D G G C H I N I O N M M N I M R I M ).N     j                                     ",
"                                              w D G D G I M w G A M R N H N I M H X w                                           ",
"                                                w C G R I I w w A w w C w D A E w I w                       $ $                 ",
"                                                  w A D H I B C I D H C I E I I w w                         C.%     q q         ",
"                @ +                             w w w w E G G E M M $.$.N X _.$.w                         1 ]   % $ r p % $     ",
"                  @                           w w w D A G w A w R I M N )./.I w   D.b                     | ]   C.$ ] ] C.$     ",
"                                    + @       U w D I G I O 8.E.w w w w F.H @.w w ~ G.      &         c H.& &       | 1         ",
"  h '                               @         w C H O M I #.I.J.K.L.M.N.O.P.T E w         j s &         Q.  s ]         { &     ",
"  R.S.    i T.U.                              A R $.Z D D M V.A C W.H A X.B Y./.w     &     j @               Z.b `.{   ~       ",
"           +.+++              ].c           w B A X =.@+E I >.C X S Y R /.I V.).w     a b     @               #+  @ & G.b       ",
"                              c             A B $+%+w &+A I M G N D E A R C w ).*+    j                               ~ D.      ",
"                                            w C =+-+;+E E A A B C 3.C U O w G $.D                                               ",
"  >+,+                                        w '+)+!+G M ~+R {+]+E Y A O %+G M w                                               ",
"  ^+/+                                          w %+(+w _+7.:+<+4.[+}+|+1+2+w                                                   ",
"                                                      3+(+w B 4+5+6+7+8+9+                                                      ",
"                                    c                 0+a+E D G w M B X w                                                       ",
"      # #                   @   v t 6 @   6 c         w b+H G w w E R w                                                 $ %     ",
"    c+d+e+#                 + @ v d   c ].@             w w                                               7 f+g+        ) ! j   ",
"    ].h+S.                    @ ^ 6     c @                                     i+j+                      [ k+l+            H.& ",
"                    m+        @ :.c       6 c                                   n+i+                c     @ d t       9 5   Q.  ",
"                  o+p+q+        @ 6                                                         ! %                   7 r+s+9       ",
"                                      ].c                                                   ) $                   c t+u+        ",
"                                @     c                                                                                         ",
"                                + @                                                                                             ",
"                                                                    + @                         % $                             ",
"                                                                    @                           C.$                             ",
"                                                                                                    :.@                         ",
"                                                                                                                                "};
