/* XPM */
static char * 0_Golem_Walking_005_xpm[] = {
"64 64 235 2",
"  	c #70A853",
". 	c #6BA350",
"+ 	c #63A04B",
"@ 	c #6EA752",
"# 	c #70A852",
"$ 	c #71A652",
"% 	c #7B934C",
"& 	c #73A351",
"* 	c #679E4E",
"= 	c #3C7337",
"- 	c #60974A",
"; 	c #61994A",
"> 	c #77A561",
", 	c #8F998C",
"' 	c #7EA26F",
") 	c #6FA451",
"! 	c #79924A",
"~ 	c #73994C",
"{ 	c #7F8848",
"] 	c #73A251",
"^ 	c #68A34E",
"/ 	c #508F3F",
"( 	c #49813C",
"_ 	c #66A14E",
": 	c #6CA551",
"< 	c #5A9146",
"[ 	c #589045",
"} 	c #649B4C",
"| 	c #76934A",
"1 	c #7A964D",
"2 	c #6CA651",
"3 	c #669F4C",
"4 	c #5D9A47",
"5 	c #69A14F",
"6 	c #65A14C",
"7 	c #68A04F",
"8 	c #68A04E",
"9 	c #6FA753",
"0 	c #588F45",
"a 	c #7C8545",
"b 	c #779C4F",
"c 	c #6CA550",
"d 	c #6BA550",
"e 	c #437839",
"f 	c #49833C",
"g 	c #619B4A",
"h 	c #77A562",
"i 	c #74A75B",
"j 	c #70A753",
"k 	c #6FA05D",
"l 	c #70A458",
"m 	c #679F4E",
"n 	c #598F45",
"o 	c #669F4D",
"p 	c #74A251",
"q 	c #79964D",
"r 	c #709F4E",
"s 	c #7F7E43",
"t 	c #6FA752",
"u 	c #6DA551",
"v 	c #69A44E",
"w 	c #1C1B19",
"x 	c #5F9649",
"y 	c #4C813E",
"z 	c #528841",
"A 	c #242324",
"B 	c #2A2A2D",
"C 	c #2E2D32",
"D 	c #313136",
"E 	c #578C44",
"F 	c #262628",
"G 	c #3C3C43",
"H 	c #38383E",
"I 	c #404047",
"J 	c #4B4B55",
"K 	c #639C4B",
"L 	c #568B44",
"M 	c #4E803F",
"N 	c #28272A",
"O 	c #34343A",
"P 	c #45454D",
"Q 	c #474750",
"R 	c #565661",
"S 	c #8F8FA3",
"T 	c #69A44F",
"U 	c #5C9846",
"V 	c #52525D",
"W 	c #61616E",
"X 	c #8A8A9D",
"Y 	c #7EA36E",
"Z 	c #7BA06D",
"` 	c #4E4E59",
" .	c #727281",
"..	c #808092",
"+.	c #769C4F",
"@.	c #7D8F4A",
"#.	c #6FA05C",
"$.	c #63A04A",
"%.	c #38373E",
"&.	c #5D5D6A",
"*.	c #9E9EB4",
"=.	c #6DA550",
"-.	c #595964",
";.	c #A2A2B8",
">.	c #AFAFC7",
",.	c #69A04F",
"'.	c #686876",
").	c #A6A6BD",
"!.	c #427C39",
"~.	c #48823C",
"{.	c #6DA751",
"].	c #403F47",
"^.	c #7B7B8C",
"/.	c #6AA44F",
"(.	c #2B2423",
"_.	c #B8480B",
":.	c #823512",
"<.	c #332525",
"[.	c #6C6C7A",
"}.	c #F28C0C",
"|.	c #DA7A05",
"1.	c #BE6007",
"2.	c #7C2D13",
"3.	c #6C2314",
"4.	c #C0600B",
"5.	c #392520",
"6.	c #88889A",
"7.	c #CE6A11",
"8.	c #F1B108",
"9.	c #E68406",
"0.	c #CA6906",
"a.	c #672215",
"b.	c #CE6006",
"c.	c #E4930C",
"d.	c #747483",
"e.	c #639A4B",
"f.	c #5F9549",
"g.	c #689F4E",
"h.	c #442520",
"i.	c #D67F0E",
"j.	c #F3B509",
"k.	c #E99A07",
"l.	c #49211C",
"m.	c #AD4E0C",
"n.	c #E49A0B",
"o.	c #855016",
"p.	c #4A863C",
"q.	c #4B843D",
"r.	c #6DA651",
"s.	c #4F8540",
"t.	c #3B6E36",
"u.	c #58281C",
"v.	c #6F2E18",
"w.	c #714014",
"x.	c #542116",
"y.	c #7D3C14",
"z.	c #6EA652",
"A.	c #5B9646",
"B.	c #312E32",
"C.	c #779049",
"D.	c #787888",
"E.	c #7D8E4A",
"F.	c #494047",
"G.	c #7F250E",
"H.	c #8D2A10",
"I.	c #8F4312",
"J.	c #995213",
"K.	c #6D4216",
"L.	c #913210",
"M.	c #CC7C0F",
"N.	c #71A753",
"O.	c #808044",
"P.	c #732414",
"Q.	c #9B320F",
"R.	c #C36312",
"S.	c #7A3213",
"T.	c #201F1F",
"U.	c #71A250",
"V.	c #6CA552",
"W.	c #779D6B",
"X.	c #78A564",
"Y.	c #72A756",
"Z.	c #858598",
"`.	c #7E8747",
" +	c #759A4D",
".+	c #70A459",
"++	c #80967C",
"@+	c #73A55C",
"#+	c #67A34D",
"$+	c #666673",
"%+	c #71A150",
"&+	c #693A15",
"*+	c #E27708",
"=+	c #F3BE0A",
"-+	c #75A461",
";+	c #74A360",
">+	c #201F20",
",+	c #A34F12",
"'+	c #C78C10",
")+	c #B07210",
"!+	c #5F481C",
"~+	c #38281B",
"{+	c #5C3615",
"]+	c #6EA751",
"^+	c #6CA650",
"/+	c #2C1B17",
"(+	c #913F10",
"_+	c #CC680D",
":+	c #AC7410",
"<+	c #402117",
"[+	c #7E4814",
"}+	c #582216",
"|+	c #3B2617",
"1+	c #864B0E",
"2+	c #312217",
"3+	c #271E17",
"4+	c #6DA356",
"5+	c #8C9A88",
"6+	c #8B9C84",
"7+	c #6CA451",
"8+	c #528742",
"9+	c #739A6A",
"0+	c #72A250",
"a+	c #818145",
"b+	c #4B853D",
"c+	c #649E4C",
"d+	c #71A855",
"e+	c #6FA852",
"f+	c #70A854",
"g+	c #789A6F",
"h+	c #72A659",
"i+	c #5B9047",
"j+	c #4D833F",
"k+	c #46843A",
"l+	c #64A04B",
"                                                                                                                                ",
"                                                                                                                                ",
"    . .             + @                   #                                                 $ %             &                   ",
"    * = - ;         @                   > , '                                               ) !           ~ {       ] ]         ",
"    ^ / (                               @ _ :                                     < [ }                             | 1         ",
"      @ 2                                                                         3 4 5                                         ",
"                                                                                                                      &         ",
"@ 6           7 8 9 0                                                                                                 a b       ",
"  c           d e f g                                 h i                                                             j         ",
"                d d @                                 k l                                                                       ",
"    . m                                                                                                                         ",
"    n o                                                                                                                         ",
"                                                                                                                                ",
"                                                                                                                                ",
"                                                                      @                       p q               &               ",
"                                                                      6 c                     r q             j s &             ",
"    t t       u   ;             v v                 w w w w w w w w w w w                                       j               ",
"    v v       x y z             t t             w w A B C D D D D C B C B A w       E                                           ",
"                6 @                         w w B D D C F B G G H H G I I I J C     K L M                                       ",
"                                          w A D D B N O G G G G P Q I I P P R S G   T U o                                       ",
"                    @                     w D D N D G I G G I P P P V I Q Q P W X B                                   Y Z       ",
"                  c 6                   w B D C D G G G G G P P G P Q P V R P `  ...w         +.@.                    #.$.      ",
"                                        w D D %.G G G G G I P P P P P P P P I P &.*.A         =.+.                              ",
"                                        A D D G G ` I G G P P I P P P P P P P P &...R w                                         ",
"                                      w B D C G %.H G G I P P P P P P P P P P P &.S S w                                         ",
"                                      w D %.A G G G G G P P P P J ` P P P R -.` W S ;.w                                         ",
"                    @                 w D D A G G G G P P P P P V -.P P P V R ` W X >.w                                         ",
"  ,.8 9             + @               A D D F G G G G H H P P P P P P V Q P J P &.'.).P                                 ] ]     ",
"  d !.~.                      c 6   w F D D F P G G %.H A w D P P P P J Q P P I B ` S R                                 | 1     ",
"    d {.                        @   w F D D A G G G G F C D A A ].P P P P P I w O ` ^.-.                                        ",
"            v v                   /.@ F D D N O G G G (._.:.<.B A P P P P P C O B A [.O                                   1 ]   ",
"    /./.    t t                   /.@ A D D D B G G G A }.|.1.2.B %.Q P ` %.O 3.4.5.6.w                                   | ]   ",
"    @ @                               w D D D B D G G B 7.8.9.0.2.H P P R O a.b.c.F d.w                     e.f.7               ",
"                  g.7                 w B D D O B H G G h.i.j.k.0.l.P P P D m.n.o.` Q                     d p.q.                ",
"              r.s.t.r.                  w D D D O B G I G N u.v.w.x.G P P A y.(.%.&.w     &                                     ",
"              z.A.A.@                   w N D C C B G G P P I G G O I G G D G I Q W w     a b                                   ",
"                                          w C D D D C %.I G I G P I P P I P G I P B.      j                                     ",
"                                            w B D D B G G D A w B A D B F C A A O w                                             ",
"                                              w F D D G G D w B A B A B C N I N w                           $ $                 ",
"                                                w w B D %.G w G G G ` I I V ..A w                           C.%     q q         ",
"                @ +                             w w w w F C C B G I J J '.D.D w                           1 ]   % $ r p % $     ",
"                  @                             w A O A %.w w w B C C C w w w w   E.b                     | ]   C.$ ] ] C.$     ",
"                                    + @       w w B G Q P F.G.H.I.J.K.L.M.w w w   ~ N.      &         c O.& &       | 1         ",
"  h '                               @         w w C I W N V B.P.Q.R.w.S.J.G T.w           j s &         U.  s ]         { &     ",
"  V.W.    i X.Y.                              w w D Q Z.Q P [.C P '.W O d.&.A w       &     j @               `.b  +{   ~       ",
"          .+++@+              #+c               w B %.$+C %.V C G H D N R G A         a b     @               %+  @ & N.b       ",
"                              c                 w F w &+J.F O D Q G O A C A P         j                               ~ E.      ",
"                                                w C l.*+=+w C '.w A &.A W w w                                                   ",
"  -+;+                                            >+A ,+'+&+D &.)+!+G ~+B {+                                                    ",
"  ]+^+                                              w w /+(+{+P._+:+<+[+}+|+                                                    ",
"                                                    {+1+w P Q w 2+w.w A Q w                                                     ",
"                                    c               |+(.D %.O w 3+{+%.O H w                                                     ",
"      # #                   @   v t 6 @   6 c       w A C B w w w w C C A w                                             $ %     ",
"    4+5+6+#                 + @ v d   c #+@                                                               7 7+8+        ) ! j   ",
"    #+9+W.                    @ ^ 6     c @                                     0+a+                      [ b+c+            O.& ",
"                    d+        @ /.c       6 c                                   e+0+                c     @ d t       9 5   U.  ",
"                  f+g+h+        @ 6                                                         ! %                   7 i+j+9       ",
"                                      #+c                                                   ) $                   c k+l+        ",
"                                @     c                                                                                         ",
"                                + @                                                                                             ",
"                                                                    + @                         % $                             ",
"                                                                    @                           C.$                             ",
"                                                                                                    /.@                         ",
"                                                                                                                                "};
