/* XPM */
static char * 0_Golem_Walking_016_xpm[] = {
"64 64 233 2",
"  	c #70A853",
". 	c #6BA350",
"+ 	c #63A04B",
"@ 	c #6EA752",
"# 	c #70A852",
"$ 	c #71A652",
"% 	c #7B934C",
"& 	c #73A351",
"* 	c #679E4E",
"= 	c #3C7337",
"- 	c #60974A",
"; 	c #61994A",
"> 	c #77A561",
", 	c #8F998C",
"' 	c #7EA26F",
") 	c #6FA451",
"! 	c #79924A",
"~ 	c #73994C",
"{ 	c #7F8848",
"] 	c #73A251",
"^ 	c #68A34E",
"/ 	c #508F3F",
"( 	c #49813C",
"_ 	c #66A14E",
": 	c #6CA551",
"< 	c #5A9146",
"[ 	c #589045",
"} 	c #649B4C",
"| 	c #76934A",
"1 	c #7A964D",
"2 	c #6CA651",
"3 	c #669F4C",
"4 	c #5D9A47",
"5 	c #69A14F",
"6 	c #65A14C",
"7 	c #68A04F",
"8 	c #68A04E",
"9 	c #6FA753",
"0 	c #588F45",
"a 	c #7C8545",
"b 	c #779C4F",
"c 	c #6CA550",
"d 	c #6BA550",
"e 	c #437839",
"f 	c #49833C",
"g 	c #619B4A",
"h 	c #77A562",
"i 	c #74A75B",
"j 	c #70A753",
"k 	c #6FA05D",
"l 	c #70A458",
"m 	c #679F4E",
"n 	c #598F45",
"o 	c #669F4D",
"p 	c #74A251",
"q 	c #79964D",
"r 	c #709F4E",
"s 	c #7F7E43",
"t 	c #6FA752",
"u 	c #6DA551",
"v 	c #69A44E",
"w 	c #1B1A19",
"x 	c #5F9649",
"y 	c #4C813E",
"z 	c #528841",
"A 	c #211E1D",
"B 	c #28272A",
"C 	c #2E2E32",
"D 	c #313136",
"E 	c #343339",
"F 	c #2A292D",
"G 	c #232223",
"H 	c #578C44",
"I 	c #3C3C43",
"J 	c #38373E",
"K 	c #639C4B",
"L 	c #568B44",
"M 	c #4E803F",
"N 	c #38383F",
"O 	c #444047",
"P 	c #45454E",
"Q 	c #474750",
"R 	c #6C6C7B",
"S 	c #5E5E6A",
"T 	c #69A44F",
"U 	c #5C9846",
"V 	c #52525D",
"W 	c #848496",
"X 	c #585763",
"Y 	c #7EA36E",
"Z 	c #7BA06D",
"` 	c #4A4A53",
" .	c #595964",
"..	c #4F4F59",
"+.	c #565661",
"@.	c #9494A7",
"#.	c #769C4F",
"$.	c #7D8F4A",
"%.	c #6FA05C",
"&.	c #63A04A",
"*.	c #818193",
"=.	c #797989",
"-.	c #6DA550",
";.	c #676775",
">.	c #8C8C9E",
",.	c #62626F",
"'.	c #9D9DB2",
").	c #AFAFC7",
"!.	c #69A04F",
"~.	c #89899B",
"{.	c #427C39",
"].	c #48823C",
"^.	c #707080",
"/.	c #8E8EA1",
"(.	c #6DA751",
"_.	c #6AA44F",
":.	c #9D340F",
"<.	c #903E10",
"[.	c #422521",
"}.	c #C76712",
"|.	c #E28806",
"1.	c #C66706",
"2.	c #8C3A11",
"3.	c #6D2414",
"4.	c #6A3215",
"5.	c #696977",
"6.	c #9D4C14",
"7.	c #F2A609",
"8.	c #E98D06",
"9.	c #D07105",
"0.	c #9B3A0F",
"a.	c #302F34",
"b.	c #DB7A06",
"c.	c #996614",
"d.	c #7C7C8D",
"e.	c #639A4B",
"f.	c #5F9549",
"g.	c #689F4E",
"h.	c #BE6110",
"i.	c #F5C00A",
"j.	c #EC9C07",
"k.	c #CF6E05",
"l.	c #D77B06",
"m.	c #DF940D",
"n.	c #3D2623",
"o.	c #4A863C",
"p.	c #4B843D",
"q.	c #6DA651",
"r.	c #4F8540",
"s.	c #3B6E36",
"t.	c #682A18",
"u.	c #824C15",
"v.	c #8F5B13",
"w.	c #783113",
"x.	c #9D6814",
"y.	c #6EA652",
"z.	c #5B9646",
"A.	c #779049",
"B.	c #201F20",
"C.	c #7D8E4A",
"D.	c #7B240F",
"E.	c #7C2812",
"F.	c #713414",
"G.	c #6D3C15",
"H.	c #553317",
"I.	c #B47111",
"J.	c #71A753",
"K.	c #808044",
"L.	c #382A2C",
"M.	c #802511",
"N.	c #A9380C",
"O.	c #D96E0E",
"P.	c #8A4715",
"Q.	c #873211",
"R.	c #BD640F",
"S.	c #71A250",
"T.	c #6CA552",
"U.	c #779D6B",
"V.	c #78A564",
"W.	c #72A756",
"X.	c #767686",
"Y.	c #9595AA",
"Z.	c #7E8747",
"`.	c #759A4D",
" +	c #70A459",
".+	c #80967C",
"++	c #73A55C",
"@+	c #67A34D",
"#+	c #71A150",
"$+	c #9A3212",
"%+	c #EB9107",
"&+	c #BC8611",
"*+	c #75A461",
"=+	c #74A360",
"-+	c #622517",
";+	c #F19B08",
">+	c #A48C14",
",+	c #483922",
"'+	c #24201E",
")+	c #4F3016",
"!+	c #6EA751",
"~+	c #6CA650",
"{+	c #442317",
"]+	c #411D17",
"^+	c #A5460C",
"/+	c #5C3515",
"(+	c #D9730A",
"_+	c #B27A0F",
":+	c #5B2516",
"<+	c #4E2E17",
"[+	c #754210",
"}+	c #442A16",
"|+	c #864B0D",
"1+	c #422C1E",
"2+	c #6DA356",
"3+	c #8C9A88",
"4+	c #8B9C84",
"5+	c #6CA451",
"6+	c #528742",
"7+	c #739A6A",
"8+	c #72A250",
"9+	c #818145",
"0+	c #4B853D",
"a+	c #649E4C",
"b+	c #71A855",
"c+	c #6FA852",
"d+	c #70A854",
"e+	c #789A6F",
"f+	c #72A659",
"g+	c #5B9047",
"h+	c #4D833F",
"i+	c #46843A",
"j+	c #64A04B",
"                                                                                                                                ",
"                                                                                                                                ",
"    . .             + @                   #                                                 $ %             &                   ",
"    * = - ;         @                   > , '                                               ) !           ~ {       ] ]         ",
"    ^ / (                               @ _ :                                     < [ }                             | 1         ",
"      @ 2                                                                         3 4 5                                         ",
"                                                                                                                      &         ",
"@ 6           7 8 9 0                                                                                                 a b       ",
"  c           d e f g                                 h i                                                             j         ",
"                d d @                                 k l                                                                       ",
"    . m                                                                                                                         ",
"    n o                                                                                                                         ",
"                                                                                                                                ",
"                                                                                                                                ",
"                                                                      @                       p q               &               ",
"                                                                      6 c                     r q             j s &             ",
"    t t       u   ;             v v                   w w w w w w w w w w                                       j               ",
"    v v       x y z             t t             w w A B C C D E D C C F B G w       H                                           ",
"                6 @                           w G C E D F B C I I E D E I I J F w   K L M                                       ",
"                                            w F E D B F J I N I I O P O P P Q R S w T U o                                       ",
"                    @                     w B E D B N P I I I O P P Q Q O P P V W X w                                 Y Z       ",
"                  c 6                     w D D C I I I I I O P P O Q ` P  ...P +.@.C         #.$.                    %.&.      ",
"                                        w B E E I I I I I I P P P P P P Q ` P O V *.=.w       -.#.                              ",
"                                        w C E J I I ..I I I P P P P P Q Q P P P Q ;.>.w                                         ",
"                                        w E E D I E I I I P P P Q Q Q P P O P P Q ,.'.I                                         ",
"                                      w B E E C I I I I O P P P P ` Q Q P Q +.Q +.,.).;.                                        ",
"                    @                 w C E C C I I I I P P P P P ,.` P P ` ,...S ,.).=.w                                       ",
"  !.8 9             + @               w D E C C I I I I J O P P P Q P Q Q P Q P +.,.'.~.w                               ] ]     ",
"  d {.].                      c 6     w E D C E P I E I C w F O P P P Q V P P ` O ` ^./.w                               | 1     ",
"    d (.                        @     w E D C C I I I E B E F w I P P P P P P I w E S ~.w                                       ",
"            v v                   _.@ w D E D F I I I C :.<.[.F G I P P P P I G I E ..^.w                                 1 ]   ",
"    _._.    t t                   _.@ w C E D G N I I D }.|.1.2.G C P P P P D E 3.4.5.V                                   | ]   ",
"    @ @                               w F E D D F I I E 6.7.8.9.0.a.P P +.O C :.b.c.d.F                     e.f.7               ",
"                  g.7                   G E E E D D I I F h.i.j.k.3.I P Q I 3.l.m.n.5.w                   d o.p.                ",
"              q.r.s.q.                  w C E D E F I O I F t.u.v.w.D P P E 2.x.[.P ..    &                                     ",
"              y.z.z.@                     w D D C D E I P P O I N D J O I E F J O ,.w     a b                                   ",
"                                          w G E E J F E I O I P O P P P P P P P O  .w     j                                     ",
"                                            w B E E F I I N w B B D C I B I w D D C                                             ",
"                                              w G C a.I I J w G B G G G F w N G G w                         $ $                 ",
"                                                w w B D J I G J I I P I I I 5.I w                           A.%     q q         ",
"                @ +                             w w w w B D C F I P ..Q S *.5.w                           1 ]   % $ r p % $     ",
"                  @                             w G D G J w B.w C E E I P w w w   C.b                     | ]   A.$ ] ] A.$     ",
"                                    + @       w w C I I P O D.E.F.G.H.3.I.P G w w ~ J.      &         c K.& &       | 1         ",
"  h '                               @         A G E P ` I V L.M.N.O.P.Q.R.V 5.G           j s &         S.  s ]         { &     ",
"  T.U.    i V.W.                              w F N S X.C P R F I +.V C ;.E Y.w       &     j @               Z.b `.{   ~       ",
"           +.+++              @+c             w G a.R ,.B I  .C P Q P C S C R w       a b     @               #+  @ & J.b       ",
"                              c               G F w w w G J I D Q I E G E w V V       j                               ~ C.      ",
"                                              w C $+%+&+F G C S w G ..G S w Q w                                                 ",
"  *+=+                                          G -+;+>+D G.D 5.c.,+V '+C )+P                                                   ",
"  !+~+                                            w {+w ]+^+/+3.(+_+{+u.:+<+                                                    ",
"                                                    w [+A C V w }+w G I w                                                       ",
"                                    c               w |+1+G ` w w D O I w                                                       ",
"      # #                   @   v t 6 @   6 c         A D N A w w w G F w                                               $ %     ",
"    2+3+4+#                 + @ v d   c @+@           w w                                                 7 5+6+        ) ! j   ",
"    @+7+U.                    @ ^ 6     c @                                     8+9+                      [ 0+a+            K.& ",
"                    b+        @ _.c       6 c                                   c+8+                c     @ d t       9 5   S.  ",
"                  d+e+f+        @ 6                                                         ! %                   7 g+h+9       ",
"                                      @+c                                                   ) $                   c i+j+        ",
"                                @     c                                                                                         ",
"                                + @                                                                                             ",
"                                                                    + @                         % $                             ",
"                                                                    @                           A.$                             ",
"                                                                                                    _.@                         ",
"                                                                                                                                "};
