/* XPM */
static char * 0_Golem_Walking_001_xpm[] = {
"64 64 237 2",
"  	c #70A853",
". 	c #6BA350",
"+ 	c #63A04B",
"@ 	c #6EA752",
"# 	c #70A852",
"$ 	c #71A652",
"% 	c #7B934C",
"& 	c #73A351",
"* 	c #679E4E",
"= 	c #3C7337",
"- 	c #60974A",
"; 	c #61994A",
"> 	c #77A561",
", 	c #8F998C",
"' 	c #7EA26F",
") 	c #6FA451",
"! 	c #79924A",
"~ 	c #73994C",
"{ 	c #7F8848",
"] 	c #73A251",
"^ 	c #68A34E",
"/ 	c #508F3F",
"( 	c #49813C",
"_ 	c #66A14E",
": 	c #6CA551",
"< 	c #5A9146",
"[ 	c #589045",
"} 	c #649B4C",
"| 	c #76934A",
"1 	c #7A964D",
"2 	c #6CA651",
"3 	c #669F4C",
"4 	c #5D9A47",
"5 	c #69A14F",
"6 	c #65A14C",
"7 	c #68A04F",
"8 	c #68A04E",
"9 	c #6FA753",
"0 	c #588F45",
"a 	c #7C8545",
"b 	c #779C4F",
"c 	c #6CA550",
"d 	c #6BA550",
"e 	c #437839",
"f 	c #49833C",
"g 	c #619B4A",
"h 	c #77A562",
"i 	c #74A75B",
"j 	c #70A753",
"k 	c #6FA05D",
"l 	c #70A458",
"m 	c #679F4E",
"n 	c #598F45",
"o 	c #669F4D",
"p 	c #74A251",
"q 	c #79964D",
"r 	c #709F4E",
"s 	c #7F7E43",
"t 	c #6FA752",
"u 	c #6DA551",
"v 	c #69A44E",
"w 	c #1C1B19",
"x 	c #5F9649",
"y 	c #4C813E",
"z 	c #528841",
"A 	c #242325",
"B 	c #28272A",
"C 	c #2A292D",
"D 	c #2E2D32",
"E 	c #262628",
"F 	c #201F1D",
"G 	c #578C44",
"H 	c #313136",
"I 	c #38383E",
"J 	c #639C4B",
"K 	c #568B44",
"L 	c #4E803F",
"M 	c #38373E",
"N 	c #3C3C43",
"O 	c #404047",
"P 	c #45454D",
"Q 	c #474750",
"R 	c #69A44F",
"S 	c #5C9846",
"T 	c #656573",
"U 	c #838394",
"V 	c #7EA36E",
"W 	c #7BA06D",
"X 	c #4A4A54",
"Y 	c #52525C",
"Z 	c #4F4F59",
"` 	c #737382",
" .	c #6D6D7C",
"..	c #769C4F",
"+.	c #7D8F4A",
"@.	c #6FA05C",
"#.	c #63A04A",
"$.	c #595965",
"%.	c #9494A8",
"&.	c #34343A",
"*.	c #6DA550",
"=.	c #757584",
"-.	c #7C7C8D",
";.	c #AAAAC1",
">.	c #5F5F6C",
",.	c #B0B0C8",
"'.	c #69A04F",
").	c #60606D",
"!.	c #797989",
"~.	c #565661",
"{.	c #427C39",
"].	c #48823C",
"^.	c #67A34D",
"/.	c #A7A7BE",
"(.	c #6DA751",
"_.	c #8D8DA0",
":.	c #6AA44F",
"<.	c #4B221C",
"[.	c #9D370F",
"}.	c #808092",
"|.	c #662D18",
"1.	c #EA8109",
"2.	c #CD6D07",
"3.	c #934112",
"4.	c #2F2526",
"5.	c #302F34",
"6.	c #332625",
"7.	c #EE920D",
"8.	c #EB9407",
"9.	c #D57505",
"0.	c #AD480B",
"a.	c #762413",
"b.	c #AC500D",
"c.	c #639A4B",
"d.	c #5F9549",
"e.	c #689F4E",
"f.	c #F4BC0A",
"g.	c #EEA308",
"h.	c #8E3311",
"i.	c #D66D06",
"j.	c #D08910",
"k.	c #4A863C",
"l.	c #4B843D",
"m.	c #6DA651",
"n.	c #4F8540",
"o.	c #3B6E36",
"p.	c #7E3515",
"q.	c #B07211",
"r.	c #BE7E0F",
"s.	c #B0530B",
"t.	c #44221F",
"u.	c #E09B0D",
"v.	c #62311B",
"w.	c #6EA652",
"x.	c #5B9646",
"y.	c #552216",
"z.	c #613A19",
"A.	c #779049",
"B.	c #848495",
"C.	c #7D8E4A",
"D.	c #6E2512",
"E.	c #4C1E17",
"F.	c #543C17",
"G.	c #71A753",
"H.	c #808044",
"I.	c #686875",
"J.	c #9B2A0C",
"K.	c #BD3E08",
"L.	c #D8690D",
"M.	c #A45613",
"N.	c #96320E",
"O.	c #71A250",
"P.	c #6CA552",
"Q.	c #779D6B",
"R.	c #78A564",
"S.	c #72A756",
"T.	c #89899C",
"U.	c #553B2F",
"V.	c #7E8747",
"W.	c #759A4D",
"X.	c #70A459",
"Y.	c #80967C",
"Z.	c #73A55C",
"`.	c #71A150",
" +	c #201F20",
".+	c #5C2B16",
"++	c #C27B0E",
"@+	c #AC7F12",
"#+	c #7B2D15",
"$+	c #E78908",
"%+	c #D7AB0F",
"&+	c #75A461",
"*+	c #74A360",
"=+	c #82430E",
"-+	c #5D3615",
";+	c #6E341B",
">+	c #68491B",
",+	c #302217",
"'+	c #6EA751",
")+	c #6CA650",
"!+	c #4D2F16",
"~+	c #3C1D17",
"{+	c #94410F",
"]+	c #56341A",
"^+	c #612620",
"/+	c #E58409",
"(+	c #A67812",
"_+	c #37251A",
":+	c #714715",
"<+	c #58281C",
"[+	c #2C2017",
"}+	c #80480F",
"|+	c #271E17",
"1+	c #582017",
"2+	c #6E3015",
"3+	c #6A3D15",
"4+	c #2C1B18",
"5+	c #653A13",
"6+	c #6DA356",
"7+	c #8C9A88",
"8+	c #8B9C84",
"9+	c #6CA451",
"0+	c #528742",
"a+	c #739A6A",
"b+	c #72A250",
"c+	c #818145",
"d+	c #4B853D",
"e+	c #649E4C",
"f+	c #71A855",
"g+	c #6FA852",
"h+	c #70A854",
"i+	c #789A6F",
"j+	c #72A659",
"k+	c #5B9047",
"l+	c #4D833F",
"m+	c #46843A",
"n+	c #64A04B",
"                                                                                                                                ",
"                                                                                                                                ",
"    . .             + @                   #                                                 $ %             &                   ",
"    * = - ;         @                   > , '                                               ) !           ~ {       ] ]         ",
"    ^ / (                               @ _ :                                     < [ }                             | 1         ",
"      @ 2                                                                         3 4 5                                         ",
"                                                                                                                      &         ",
"@ 6           7 8 9 0                                                                                                 a b       ",
"  c           d e f g                                 h i                                                             j         ",
"                d d @                                 k l                                                                       ",
"    . m                                                                                                                         ",
"    n o                                                                                                                         ",
"                                                                                                                                ",
"                                                                                                                                ",
"                                                                      @                       p q               &               ",
"                                                                      6 c                     r q             j s &             ",
"    t t       u   ;             v v                       w w w w w w                                           j               ",
"    v v       x y z             t t               w w w A B C D D C B E F w w       G                                           ",
"                6 @                             w A D H H D C C I I H C C D C A w   J K L                                       ",
"                                              w C H H B B H M M N N N O P P P P Q w R S o                                       ",
"                    @                       w B H H E M P N N N N P P P O O P P T U w                                 V W       ",
"                  c 6                       w H H D N N N N N O P P P X Y P X Q Z `  .w       ..+.                    @.#.      ",
"                                          w C H H N N N N N N P P P P P Q P $.Z P Y %.&.      *...                              ",
"                                          w H H M N O X N N N P O P P P P P P P O Y U =.w                                       ",
"                                          E H H H N H N N N P P Q Q Q P P P O Q P X  .-.w                                       ",
"                                        w D H D H N N N N P P P P P Q Q P P O P P Y  .;.w                                       ",
"                    @                   w H H C &.N N N O P P P P Z $.P P P Z >.Q >.=.,.N                                       ",
"  '.8 9             + @               c A H H C M N N N N N P P P P Y P P P Z $.Q ).!.,.~.                              ] ]     ",
"  d {.].                      c 6     ^.E H H B P N N M M w E N P P P P Y X P Q Q $.T /.$.                              | 1     ",
"    d (.                        @     w E H H E I N N N C H H w H P P P P Q P P O H Y _.).                                      ",
"            v v                   :.@   E H H C &.N N N <.[.<.D A H Q Q P Q P N F D Z }.$.                                1 ]   ",
"    :.:.    t t                   :.@   A H H H C N N N |.1.2.3.4.E O Q Q Q O 5.&.H H ` &.                                | ]   ",
"    @ @                                 w H H H C M N N 6.7.8.9.0.6.N P Q Y H H a.b.E U w                   c.d.7               ",
"                  e.7                   w D H H &.B N N H 3.f.g.9.h.I P Q X H h.i.j.P  .w                 d k.l.                ",
"              m.n.o.m.                    A H H D 5.&.N O D p.q.r.s.4.P P P t.2.u.v.T A   &                                     ",
"              w.x.x.@                     w D H D &.C N O P N &.H C w P P N y.z.B N $.w   a b                                   ",
"                                          c w H H &.C &.N P O Q P O O O N O M N O ).I     j                                     ",
"                                            w w H H C M N N w H B O M P I P N O M Y w                                           ",
"                                              w w D H M N N w w A w w C w D E E A I                         $ $                 ",
"                                                  w E H M N A D N H &.C I E N M w w                         A.%     q q         ",
"                @ +                               w w w B H D C O O Y Q P Y B.N w                         1 ]   % $ r p % $     ",
"                  @                             w w D B E w E w M N O Q ).` &.w   C.b                     | ]   A.$ ] ] A.$     ",
"                                    + @         w F M X M w D.E.w w w w F.w w     ~ G.      &         c H.& &       | 1         ",
"  h '                               @         w w w &.Q I.B <.J.K.L.M.N.1.F w             j s &         O.  s ]         { &     ",
"  P.Q.    i R.S.                                w w H Z T.O Z A C U.I A P w w w       &     j @               V.b W.{   ~       ",
"          X.Y.Z.              ^.c               w w D M Y E w D Y ).T &.` E A         a b     @               `.  @ & G.b       ",
"                              c                 w w  +w .+++@+D P D B E I A           j                               ~ C.      ",
"                                                w D.E C #+$+%+A C D B w Z w                                                     ",
"  &+*+                                          w =+-+E E p.;+` >+E  .A O ,+                                                    ",
"  '+)+                                            w !+w ~+{+]+^+/+(+_+:+<+-+                                                    ",
"                                                  [+}+|+D N F 1+2+3+~+E.4+w                                                     ",
"                                    c             w B &.N $.w     5+!+N N F w                                                   ",
"      # #                   @   v t 6 @   6 c       w D E F w     w F B w                                               $ %     ",
"    6+7+8+#                 + @ v d   c ^.@               w         w                                     7 9+0+        ) ! j   ",
"    ^.a+Q.                    @ ^ 6     c @                                     b+c+                      [ d+e+            H.& ",
"                    f+        @ :.c       6 c                                   g+b+                c     @ d t       9 5   O.  ",
"                  h+i+j+        @ 6                                                         ! %                   7 k+l+9       ",
"                                      ^.c                                                   ) $                   c m+n+        ",
"                                @     c                                                                                         ",
"                                + @                                                                                             ",
"                                                                    + @                         % $                             ",
"                                                                    @                           A.$                             ",
"                                                                                                    :.@                         ",
"                                                                                                                                "};
