/* XPM */
static char * 0_Golem_Walking_003_xpm[] = {
"64 64 235 2",
"  	c #70A853",
". 	c #6BA350",
"+ 	c #63A04B",
"@ 	c #6EA752",
"# 	c #70A852",
"$ 	c #71A652",
"% 	c #7B934C",
"& 	c #73A351",
"* 	c #679E4E",
"= 	c #3C7337",
"- 	c #60974A",
"; 	c #61994A",
"> 	c #77A561",
", 	c #8F998C",
"' 	c #7EA26F",
") 	c #6FA451",
"! 	c #79924A",
"~ 	c #73994C",
"{ 	c #7F8848",
"] 	c #73A251",
"^ 	c #68A34E",
"/ 	c #508F3F",
"( 	c #49813C",
"_ 	c #66A14E",
": 	c #6CA551",
"< 	c #5A9146",
"[ 	c #589045",
"} 	c #649B4C",
"| 	c #76934A",
"1 	c #7A964D",
"2 	c #6CA651",
"3 	c #669F4C",
"4 	c #5D9A47",
"5 	c #69A14F",
"6 	c #65A14C",
"7 	c #68A04F",
"8 	c #68A04E",
"9 	c #6FA753",
"0 	c #588F45",
"a 	c #7C8545",
"b 	c #779C4F",
"c 	c #6CA550",
"d 	c #6BA550",
"e 	c #437839",
"f 	c #49833C",
"g 	c #619B4A",
"h 	c #77A562",
"i 	c #74A75B",
"j 	c #70A753",
"k 	c #6FA05D",
"l 	c #70A458",
"m 	c #679F4E",
"n 	c #598F45",
"o 	c #669F4D",
"p 	c #74A251",
"q 	c #79964D",
"r 	c #709F4E",
"s 	c #7F7E43",
"t 	c #6FA752",
"u 	c #6DA551",
"v 	c #69A44E",
"w 	c #1C1B19",
"x 	c #5F9649",
"y 	c #4C813E",
"z 	c #528841",
"A 	c #232223",
"B 	c #2A292C",
"C 	c #2E2D32",
"D 	c #313136",
"E 	c #578C44",
"F 	c #221E1D",
"G 	c #28272A",
"H 	c #262629",
"I 	c #39383F",
"J 	c #3C3C43",
"K 	c #302F34",
"L 	c #639C4B",
"M 	c #568B44",
"N 	c #4E803F",
"O 	c #404047",
"P 	c #45454E",
"Q 	c #5A5A66",
"R 	c #646471",
"S 	c #69A44F",
"T 	c #5C9846",
"U 	c #4A4A53",
"V 	c #7C7C8C",
"W 	c #6C6C7A",
"X 	c #7EA36E",
"Y 	c #7BA06D",
"Z 	c #343439",
"` 	c #4F4F59",
" .	c #52525C",
"..	c #555560",
"+.	c #858597",
"@.	c #769C4F",
"#.	c #7D8F4A",
"$.	c #6FA05C",
"%.	c #63A04A",
"&.	c #474750",
"*.	c #9292A5",
"=.	c #6DA550",
"-.	c #5D5D69",
";.	c #9E9EB3",
">.	c #838395",
",.	c #62626F",
"'.	c #9797AC",
").	c #88889A",
"!.	c #9B9BB0",
"~.	c #9494A9",
"{.	c #69A04F",
"].	c #9F9FB5",
"^.	c #427C39",
"/.	c #48823C",
"(.	c #696977",
"_.	c #A0A0B5",
":.	c #6DA751",
"<.	c #9494A7",
"[.	c #6AA44F",
"}.	c #892A12",
"|.	c #9A440F",
"1.	c #4C221C",
"2.	c #AB5413",
"3.	c #E68B07",
"4.	c #C96B06",
"5.	c #923E10",
"6.	c #2D2627",
"7.	c #521F16",
"8.	c #7B3C17",
"9.	c #F39F0A",
"0.	c #EB9207",
"a.	c #D37405",
"b.	c #A4400D",
"c.	c #6A2316",
"d.	c #C34F08",
"e.	c #B27611",
"f.	c #639A4B",
"g.	c #5F9549",
"h.	c #689F4E",
"i.	c #F5C00B",
"j.	c #ED9B07",
"k.	c #D06F05",
"l.	c #7C2B13",
"m.	c #412320",
"n.	c #C65A07",
"o.	c #EC9E09",
"p.	c #727281",
"q.	c #4A863C",
"r.	c #4B843D",
"s.	c #6DA651",
"t.	c #4F8540",
"u.	c #3B6E36",
"v.	c #6B2B17",
"w.	c #915C14",
"x.	c #9F6613",
"y.	c #883911",
"z.	c #8D3411",
"A.	c #C17C0F",
"B.	c #855415",
"C.	c #6EA652",
"D.	c #5B9646",
"E.	c #779049",
"F.	c #79798A",
"G.	c #7D8E4A",
"H.	c #413B40",
"I.	c #792513",
"J.	c #712413",
"K.	c #5E2F16",
"L.	c #2C1E17",
"M.	c #2C221A",
"N.	c #572015",
"O.	c #71A753",
"P.	c #808044",
"Q.	c #3D2727",
"R.	c #8A2710",
"S.	c #B23B0B",
"T.	c #DD6F0D",
"U.	c #934D14",
"V.	c #CA6D0D",
"W.	c #71A250",
"X.	c #6CA552",
"Y.	c #779D6B",
"Z.	c #78A564",
"`.	c #72A756",
" +	c #7E8747",
".+	c #759A4D",
"++	c #70A459",
"@+	c #80967C",
"#+	c #73A55C",
"$+	c #67A34D",
"%+	c #71A150",
"&+	c #201F20",
"*+	c #221C17",
"=+	c #8D4F13",
"-+	c #A66B13",
";+	c #E78208",
">+	c #E4BC0D",
",+	c #75A461",
"'+	c #74A360",
")+	c #9B4913",
"!+	c #8E6014",
"~+	c #3F3324",
"{+	c #21201F",
"]+	c #4B2E16",
"^+	c #6EA751",
"/+	c #6CA650",
"(+	c #803C12",
"_+	c #563216",
":+	c #E57908",
"<+	c #BB800F",
"[+	c #472217",
"}+	c #874C14",
"|+	c #5A2616",
"1+	c #7F480E",
"2+	c #5B3515",
"3+	c #714011",
"4+	c #6DA356",
"5+	c #8C9A88",
"6+	c #8B9C84",
"7+	c #6CA451",
"8+	c #528742",
"9+	c #739A6A",
"0+	c #72A250",
"a+	c #818145",
"b+	c #4B853D",
"c+	c #649E4C",
"d+	c #71A855",
"e+	c #6FA852",
"f+	c #70A854",
"g+	c #789A6F",
"h+	c #72A659",
"i+	c #5B9047",
"j+	c #4D833F",
"k+	c #46843A",
"l+	c #64A04B",
"                                                                                                                                ",
"                                                                                                                                ",
"    . .             + @                   #                                                 $ %             &                   ",
"    * = - ;         @                   > , '                                               ) !           ~ {       ] ]         ",
"    ^ / (                               @ _ :                                     < [ }                             | 1         ",
"      @ 2                                                                         3 4 5                                         ",
"                                                                                                                      &         ",
"@ 6           7 8 9 0                                                                                                 a b       ",
"  c           d e f g                                 h i                                                             j         ",
"                d d @                                 k l                                                                       ",
"    . m                                                                                                                         ",
"    n o                                                                                                                         ",
"                                                                                                                                ",
"                                                                                                                                ",
"                                                                      @                       p q               &               ",
"                                                                      6 c                     r q             j s &             ",
"    t t       u   ;             v v                     w w w w w w w w                                         j               ",
"    v v       x y z             t t               w w A B C C D D C C B A w w       E                                           ",
"                6 @                           w F C D D C G H I J I K C D J D A w   L M N                                       ",
"                                            w A D D B H D J J J J O P P P P P Q R w S T o                                       ",
"                    @                       w D D G D J P J J J P P P U J P P U V W w                                 X Y       ",
"                  c 6                     w C D C Z J J J J J P P J P ` P U  .P ..+.U         @.#.                    $.%.      ",
"                                          w D D I J J J J J O P &.P &.&.&.U ` O U R *.w       =.@.                              ",
"                                        w G D D J J ` O J J P P O &.&.P P &.P P P -.;.G                                         ",
"                                        w C D B J Z I J J O P P &.P P P P P O P P Q >.-.                                        ",
"                                        w D I H J J J J O P P P P &.P P P P U U U ,.'.).w                                       ",
"                    @                 w H D D G J J J J P P P P P Q  .P P P -.Q ..,.!.~.w                                       ",
"  {.8 9             + @               w B D D G J J J J Z J P P P U U P &.P U U  .,.~.].w                               ] ]     ",
"  d ^./.                      c 6     w C C D G U J I J D w H J P P P P ..&.P U P  .(._.w                               | 1     ",
"    d :.                        @     w C D D H J J J I A D C w Z P P P P P P P G A Q <.w                                       ",
"            v v                   [.@ w C D D A J J J I }.|.1.B A J P P P P P A D J  .>.w                                 1 ]   ",
"    [.[.    t t                   [.@ w B D D B Z J J I 2.3.4.5.6.B P P P P D J 6.7.O W w                                 | ]   ",
"    @ @                                 A D D D H J J J 8.9.0.a.b.B P P ` U D c.d.e.(.-.                    f.g.7               ",
"                  h.7                   w D D D Z C J J C 2.i.j.k.l.J P U O m.n.o.8.p.w                   d q.r.                ",
"              s.t.u.s.                  w B D D D B J J O C v.w.x.y.C P P J z.A.B.D -.w   &                                     ",
"              C.D.D.@                     w D D C D D J P P O J I C D P O D A C J Q I     a b                                   ",
"                                          w A D D I B D J O J P O P P O O P O P P R w     j                                     ",
"                                            w A D D B J J J w B G I D J C O G J B O                                             ",
"                                              w F C D I J I w w H w A A A A D w G w                         $ $                 ",
"                                                  w H D I J A I J I J I J Z ..J w                           E.%     q q         ",
"                @ +                               w w w H D C B J P  .U  .V F.w                           1 ]   % $ r p % $     ",
"                  @                             w w D H C w A w D Z J O ..J w     G.b                     | ]   E.$ ] ] E.$     ",
"                                    + @         w A J U J H.I.J.K.L.M.N.x.w w w   ~ O.      &         c P.& &       | 1         ",
"  h '                               @         w w H I  ... .Q.R.S.T.U.z.V.w w w           j s &         W.  s ]         { &     ",
"  X.Y.    i Z.`.                                A H I Q +.I (.B J ..` C -.w A w       &     j @                +b .+{   ~       ",
"          ++@+#+              $+c               w A D P -.w ..C U ` U K R w w         a b     @               %+  @ & O.b       ",
"                              c                 w &+A *+=+-+A D U J D H Z w           j                               ~ G.      ",
"                                                w A C c.;+>+A ` w A U A Q w                                                     ",
"  ,+'+                                          w *+A H )+-+D p.!+~+Q {+K ]+                                                    ",
"  ^+/+                                            w w w L.(+_+I.:+<+[+}+|+_+                                                    ",
"                                                    1+2+H  .w w w ]+L.w I w                                                     ",
"                                    c             w M.D H ..w   w 3+G O D w                                                     ",
"      # #                   @   v t 6 @   6 c       w G K w w     w G G F w                                             $ %     ",
"    4+5+6+#                 + @ v d   c $+@                                                               7 7+8+        ) ! j   ",
"    $+9+Y.                    @ ^ 6     c @                                     0+a+                      [ b+c+            P.& ",
"                    d+        @ [.c       6 c                                   e+0+                c     @ d t       9 5   W.  ",
"                  f+g+h+        @ 6                                                         ! %                   7 i+j+9       ",
"                                      $+c                                                   ) $                   c k+l+        ",
"                                @     c                                                                                         ",
"                                + @                                                                                             ",
"                                                                    + @                         % $                             ",
"                                                                    @                           E.$                             ",
"                                                                                                    [.@                         ",
"                                                                                                                                "};
