/* XPM */
static char * 0_Golem_Walking_009_xpm[] = {
"64 64 243 2",
"  	c #70A853",
". 	c #6BA350",
"+ 	c #63A04B",
"@ 	c #6EA752",
"# 	c #70A852",
"$ 	c #71A652",
"% 	c #7B934C",
"& 	c #73A351",
"* 	c #679E4E",
"= 	c #3C7337",
"- 	c #60974A",
"; 	c #61994A",
"> 	c #77A561",
", 	c #8F998C",
"' 	c #7EA26F",
") 	c #6FA451",
"! 	c #79924A",
"~ 	c #73994C",
"{ 	c #7F8848",
"] 	c #73A251",
"^ 	c #68A34E",
"/ 	c #508F3F",
"( 	c #49813C",
"_ 	c #66A14E",
": 	c #6CA551",
"< 	c #5A9146",
"[ 	c #589045",
"} 	c #649B4C",
"| 	c #76934A",
"1 	c #7A964D",
"2 	c #6CA651",
"3 	c #669F4C",
"4 	c #5D9A47",
"5 	c #69A14F",
"6 	c #65A14C",
"7 	c #68A04F",
"8 	c #68A04E",
"9 	c #6FA753",
"0 	c #588F45",
"a 	c #7C8545",
"b 	c #779C4F",
"c 	c #6CA550",
"d 	c #6BA550",
"e 	c #437839",
"f 	c #49833C",
"g 	c #619B4A",
"h 	c #77A562",
"i 	c #74A75B",
"j 	c #70A753",
"k 	c #6FA05D",
"l 	c #70A458",
"m 	c #679F4E",
"n 	c #598F45",
"o 	c #669F4D",
"p 	c #74A251",
"q 	c #79964D",
"r 	c #709F4E",
"s 	c #7F7E43",
"t 	c #6FA752",
"u 	c #6DA551",
"v 	c #69A44E",
"w 	c #1C1B19",
"x 	c #5F9649",
"y 	c #4C813E",
"z 	c #528841",
"A 	c #262629",
"B 	c #2A2A2D",
"C 	c #2E2E33",
"D 	c #302F35",
"E 	c #578C44",
"F 	c #313136",
"G 	c #3C3C43",
"H 	c #34343A",
"I 	c #404047",
"J 	c #639C4B",
"K 	c #568B44",
"L 	c #4E803F",
"M 	c #38373E",
"N 	c #38383F",
"O 	c #474750",
"P 	c #45454D",
"Q 	c #5E5E6A",
"R 	c #8B8B9E",
"S 	c #69A44F",
"T 	c #5C9846",
"U 	c #4F4F58",
"V 	c #4A4A54",
"W 	c #656572",
"X 	c #878799",
"Y 	c #7EA36E",
"Z 	c #7BA06D",
"` 	c #28272A",
" .	c #53535D",
"..	c #565661",
"+.	c #7C7C8D",
"@.	c #757585",
"#.	c #769C4F",
"$.	c #7D8F4A",
"%.	c #6FA05C",
"&.	c #63A04A",
"*.	c #61616E",
"=.	c #9F9FB4",
"-.	c #6DA550",
";.	c #232223",
">.	c #5A5A65",
",.	c #838395",
"'.	c #8F8FA2",
").	c #8C8C9E",
"!.	c #A1A1B7",
"~.	c #AFAFC7",
"{.	c #20201F",
"].	c #69A04F",
"^.	c #A6A6BD",
"/.	c #427C39",
"(.	c #48823C",
"_.	c #6DA751",
":.	c #79798A",
"<.	c #6AA44F",
"[.	c #9B350F",
"}.	c #5E2317",
"|.	c #E8780A",
"1.	c #D37305",
"2.	c #AF550B",
"3.	c #612516",
"4.	c #58251B",
"5.	c #B0540D",
"6.	c #623117",
"7.	c #D47811",
"8.	c #EFA407",
"9.	c #E27E06",
"0.	c #C86506",
"a.	c #762913",
"b.	c #50221C",
"c.	c #C65307",
"d.	c #E9950A",
"e.	c #3C2B21",
"f.	c #639A4B",
"g.	c #5F9549",
"h.	c #689F4E",
"i.	c #E3920C",
"j.	c #F3BE09",
"k.	c #E68A06",
"l.	c #C56006",
"m.	c #4D221C",
"n.	c #993C0F",
"o.	c #E69709",
"p.	c #A16814",
"q.	c #4A863C",
"r.	c #4B843D",
"s.	c #6DA651",
"t.	c #4F8540",
"u.	c #3B6E36",
"v.	c #201F20",
"w.	c #422520",
"x.	c #8C3D14",
"y.	c #986914",
"z.	c #945C13",
"A.	c #6B2914",
"B.	c #833F13",
"C.	c #52381E",
"D.	c #6EA652",
"E.	c #5B9646",
"F.	c #211D1D",
"G.	c #779049",
"H.	c #7F7F90",
"I.	c #7D8E4A",
"J.	c #722312",
"K.	c #782614",
"L.	c #6E3515",
"M.	c #713D15",
"N.	c #5A3517",
"O.	c #C57E10",
"P.	c #71A753",
"Q.	c #808044",
"R.	c #392A2C",
"S.	c #822611",
"T.	c #AF390C",
"U.	c #DB700D",
"V.	c #974F14",
"W.	c #883111",
"X.	c #CE700D",
"Y.	c #71A250",
"Z.	c #6CA552",
"`.	c #779D6B",
" +	c #78A564",
".+	c #72A756",
"++	c #6C6B7A",
"@+	c #9B9BB0",
"#+	c #7E8747",
"$+	c #759A4D",
"%+	c #70A459",
"&+	c #80967C",
"*+	c #73A55C",
"=+	c #67A34D",
"-+	c #717180",
";+	c #71A150",
">+	c #261E17",
",+	c #C8640D",
"'+	c #EA9707",
")+	c #825915",
"!+	c #75A461",
"~+	c #74A360",
"{+	c #B35611",
"]+	c #EEB70B",
"^+	c #554520",
"/+	c #693C15",
"(+	c #936313",
"_+	c #403424",
":+	c #462C17",
"<+	c #6EA751",
"[+	c #6CA650",
"}+	c #2A1C18",
"|+	c #3D2017",
"1+	c #411D17",
"2+	c #AA490C",
"3+	c #E37808",
"4+	c #B67C0F",
"5+	c #4D2617",
"6+	c #854A14",
"7+	c #5E2816",
"8+	c #513017",
"9+	c #734111",
"0+	c #4A2D16",
"a+	c #472D1B",
"b+	c #6DA356",
"c+	c #8C9A88",
"d+	c #8B9C84",
"e+	c #6CA451",
"f+	c #528742",
"g+	c #739A6A",
"h+	c #72A250",
"i+	c #818145",
"j+	c #4B853D",
"k+	c #649E4C",
"l+	c #71A855",
"m+	c #6FA852",
"n+	c #70A854",
"o+	c #789A6F",
"p+	c #72A659",
"q+	c #5B9047",
"r+	c #4D833F",
"s+	c #46843A",
"t+	c #64A04B",
"                                                                                                                                ",
"                                                                                                                                ",
"    . .             + @                   #                                                 $ %             &                   ",
"    * = - ;         @                   > , '                                               ) !           ~ {       ] ]         ",
"    ^ / (                               @ _ :                                     < [ }                             | 1         ",
"      @ 2                                                                         3 4 5                                         ",
"                                                                                                                      &         ",
"@ 6           7 8 9 0                                                                                                 a b       ",
"  c           d e f g                                 h i                                                             j         ",
"                d d @                                 k l                                                                       ",
"    . m                                                                                                                         ",
"    n o                                                                                                                         ",
"                                                                                                                                ",
"                                                                                                                                ",
"                                                                      @                       p q               &               ",
"                                                                      6 c                     r q             j s &             ",
"    t t       u   ;             v v                   w w w w w w w w w                                         j               ",
"    v v       x y z             t t             w w w A B C D C C C C B A w w       E                                           ",
"                6 @                           w A C F F B B G G H F H G G G I w     J K L                                       ",
"                                            w C F C A C M N G G I O I P P P Q R B   S T o                                       ",
"                    @                     w C F B B G I G G G P P P U I P P V W X w                                   Y Z       ",
"                  c 6                   w ` F C C G G G G G P P G P V P  ...P U +.@.w         #.$.                    %.&.      ",
"                                        w F F H G G G G G I P P P P P P P O I O *.=.w         -.#.                              ",
"                                        ;.F F G G V G G G P P I P P P P P P P P >.,.U                                           ",
"                                      w B F C G M I G G I P P P P P P P P P P P Q '.).w                                         ",
"                                      w C M A G G N G G P P P P V V P P P  ...U *.'.!.w                                         ",
"                    @                 w F F ;.G G G G I P P P P ..>.P P P ..>.U *.R ~.{.                                        ",
"  ].8 9             + @               ;.F F A G G G G I I P O P P O P U O P V O >.W ^.V                                 ] ]     ",
"  d /.(.                      c 6     A F F A I G G M F w A G O P P P U V P V I C U ).>.                                | 1     ",
"    d _.                        @   w A F F A I G G G F F F w A I P P P P P I ;.C V :.Q                                         ",
"            v v                   <.@ A F F ` H G G G ;.[.}.B ` A P P P P P C H F ;.W P                                   1 ]   ",
"    <.<.    t t                   <.@ ;.F F C B G G G A |.1.2.3.B H P P V G N 4.5.6.X w                                   | ]   ",
"    @ @                               w F F F A M G G B 7.8.9.0.a.G P P >.M b.c.d.e.@.w                     f.g.7               ",
"                  h.7                 w B F F F ` G G G 4.i.j.k.l.m.P P P H n.o.p.M >.                    d q.r.                ",
"              s.t.u.s.                  v.F F F H B G I N w.x.y.z.A.N P P B B.C.F *.{.    &                                     ",
"              D.E.E.@                   w B F C C B G G P I G N M F G I G F H G P W w     a b                                   ",
"                                          w C F F H C M I I I P P P P P P P G P G I       j                                     ",
"                                            w C F F ` N G N F.` B F C H ;.M ;.A H ;.                                            ",
"                                              w B F C G G M w w A ;.;.;.C ;.G C w w                         $ $                 ",
"                                                w ;.C F N G ;.H G G P I I I :.G w                           G.%     q q         ",
"                @ +                             w w w F.B F D A G I U V Q H. .w                           1 ]   % $ r p % $     ",
"                  @                           w w v.F ;.B w ;.w C F F H C w w w   I.b                     | ]   G.$ ] ] G.$     ",
"                                    + @       w w C G N P P J.K.L.M.N.J.O.V C w w ~ P.      &         c Q.& &       | 1         ",
"  h '                               @         ;.;.H P V G  .R.S.T.U.V.W.X.P :.A           j s &         Y.  s ]         { &     ",
"  Z.`.    i  +.+                              w C G W ++F P ++B G  . .B Q F @+w       &     j @               #+b $+{   ~       ",
"          %+&+*+              =+c             w ;.M +.V A G >.C P U U C *.C -+w       a b     @               ;+  @ & P.b       ",
"                              c               B ;.>+w w ;.M G F V G F A H w G W       j                               ~ I.      ",
"                                              A ` ,+'+)+B ;.B  .w ;.V ;.>.w G G                                                 ",
"  !+~+                                        w ;.{+]+^+G /+F ++(+_+>.;.C :+I w                                                 ",
"  <+[+                                            }+|+w 1+2+N.K.3+4+5+6+7+8+                                                    ",
"                                                      9+0+A I w >+w w H w                                                       ",
"                                    c                 9+a+B G ;.w F M  .w                                                       ",
"      # #                   @   v t 6 @   6 c         w B F ` w w A M ` w                                               $ %     ",
"    b+c+d+#                 + @ v d   c =+@                                                               7 e+f+        ) ! j   ",
"    =+g+`.                    @ ^ 6     c @                                     h+i+                      [ j+k+            Q.& ",
"                    l+        @ <.c       6 c                                   m+h+                c     @ d t       9 5   Y.  ",
"                  n+o+p+        @ 6                                                         ! %                   7 q+r+9       ",
"                                      =+c                                                   ) $                   c s+t+        ",
"                                @     c                                                                                         ",
"                                + @                                                                                             ",
"                                                                    + @                         % $                             ",
"                                                                    @                           G.$                             ",
"                                                                                                    <.@                         ",
"                                                                                                                                "};
