/* XPM */
static char * 0_Golem_Walking_008_xpm[] = {
"64 64 241 2",
"  	c #70A853",
". 	c #6BA350",
"+ 	c #63A04B",
"@ 	c #6EA752",
"# 	c #70A852",
"$ 	c #71A652",
"% 	c #7B934C",
"& 	c #73A351",
"* 	c #679E4E",
"= 	c #3C7337",
"- 	c #60974A",
"; 	c #61994A",
"> 	c #77A561",
", 	c #8F998C",
"' 	c #7EA26F",
") 	c #6FA451",
"! 	c #79924A",
"~ 	c #73994C",
"{ 	c #7F8848",
"] 	c #73A251",
"^ 	c #68A34E",
"/ 	c #508F3F",
"( 	c #49813C",
"_ 	c #66A14E",
": 	c #6CA551",
"< 	c #5A9146",
"[ 	c #589045",
"} 	c #649B4C",
"| 	c #76934A",
"1 	c #7A964D",
"2 	c #6CA651",
"3 	c #669F4C",
"4 	c #5D9A47",
"5 	c #69A14F",
"6 	c #65A14C",
"7 	c #68A04F",
"8 	c #68A04E",
"9 	c #6FA753",
"0 	c #588F45",
"a 	c #7C8545",
"b 	c #779C4F",
"c 	c #6CA550",
"d 	c #6BA550",
"e 	c #437839",
"f 	c #49833C",
"g 	c #619B4A",
"h 	c #77A562",
"i 	c #74A75B",
"j 	c #70A753",
"k 	c #6FA05D",
"l 	c #70A458",
"m 	c #679F4E",
"n 	c #598F45",
"o 	c #669F4D",
"p 	c #74A251",
"q 	c #79964D",
"r 	c #709F4E",
"s 	c #7F7E43",
"t 	c #6FA752",
"u 	c #6DA551",
"v 	c #69A44E",
"w 	c #1B1A19",
"x 	c #5F9649",
"y 	c #4C813E",
"z 	c #528841",
"A 	c #232223",
"B 	c #2A2A2D",
"C 	c #2E2D32",
"D 	c #313136",
"E 	c #333339",
"F 	c #272628",
"G 	c #578C44",
"H 	c #3D3D44",
"I 	c #38383F",
"J 	c #45454D",
"K 	c #52525D",
"L 	c #639C4B",
"M 	c #568B44",
"N 	c #4E803F",
"O 	c #474750",
"P 	c #4A4A54",
"Q 	c #7F7F90",
"R 	c #747483",
"S 	c #69A44F",
"T 	c #5C9846",
"U 	c #4F4E59",
"V 	c #787888",
"W 	c #70707E",
"X 	c #7EA36E",
"Y 	c #7BA06D",
"Z 	c #5D5D69",
"` 	c #565661",
" .	c #9999AE",
"..	c #769C4F",
"+.	c #7D8F4A",
"@.	c #6FA05C",
"#.	c #63A04A",
"$.	c #808092",
"%.	c #7B7B8C",
"&.	c #6DA550",
"*.	c #646471",
"=.	c #9292A5",
"-.	c #B0B0C7",
";.	c #61616E",
">.	c #AFAFC7",
",.	c #7B7A8B",
"'.	c #5A5A65",
").	c #A0A0B6",
"!.	c #8E8EA1",
"~.	c #69A04F",
"{.	c #6C6C7A",
"].	c #9C9CB1",
"^.	c #427C39",
"/.	c #48823C",
"(.	c #6DA751",
"_.	c #292729",
":.	c #302F34",
"<.	c #7E7E8F",
"[.	c #6AA44F",
"}.	c #652215",
"|.	c #8C3411",
"1.	c #4C231C",
"2.	c #491F18",
"3.	c #7F3815",
"4.	c #E78108",
"5.	c #CD6D05",
"6.	c #A44D0D",
"7.	c #51241C",
"8.	c #342728",
"9.	c #A2330E",
"0.	c #CC7C0C",
"a.	c #472B1F",
"b.	c #EF920D",
"c.	c #ED9C07",
"d.	c #DD7B06",
"e.	c #C15C07",
"f.	c #5E2218",
"g.	c #923310",
"h.	c #DD8306",
"i.	c #C17711",
"j.	c #639A4B",
"k.	c #5F9549",
"l.	c #689F4E",
"m.	c #823514",
"n.	c #EFA90B",
"o.	c #F2B509",
"p.	c #E38D06",
"q.	c #BB5808",
"r.	c #382626",
"s.	c #C66509",
"t.	c #C98A11",
"u.	c #432521",
"v.	c #4A863C",
"w.	c #4B843D",
"x.	c #6DA651",
"y.	c #4F8540",
"z.	c #3B6E36",
"A.	c #7F5415",
"B.	c #7D4914",
"C.	c #4D1E16",
"D.	c #351E1B",
"E.	c #6EA652",
"F.	c #5B9646",
"G.	c #211F1D",
"H.	c #868698",
"I.	c #779049",
"J.	c #7D8E4A",
"K.	c #792411",
"L.	c #812811",
"M.	c #883F13",
"N.	c #904B13",
"O.	c #6F4516",
"P.	c #8D2C10",
"Q.	c #D57F0D",
"R.	c #71A753",
"S.	c #808044",
"T.	c #342C2E",
"U.	c #D1640F",
"V.	c #824415",
"W.	c #B36010",
"X.	c #71A250",
"Y.	c #6CA552",
"Z.	c #779D6B",
"`.	c #78A564",
" +	c #72A756",
".+	c #9494A8",
"++	c #7E8747",
"@+	c #759A4D",
"#+	c #70A459",
"$+	c #80967C",
"%+	c #73A55C",
"&+	c #67A34D",
"*+	c #71A150",
"=+	c #605F6C",
"-+	c #852714",
";+	c #EC8906",
">+	c #D0940F",
",+	c #75A461",
"'+	c #74A360",
")+	c #F08F09",
"!+	c #B19613",
"~+	c #733F14",
"{+	c #A36C11",
"]+	c #4F3D20",
"^+	c #2A221E",
"/+	c #533116",
"(+	c #6EA751",
"_+	c #6CA650",
":+	c #2C1D17",
"<+	c #441D17",
"[+	c #A1440E",
"}+	c #5A3515",
"|+	c #772515",
"1+	c #D6700C",
"2+	c #B17810",
"3+	c #472317",
"4+	c #834814",
"5+	c #5C2516",
"6+	c #442A17",
"7+	c #874C0D",
"8+	c #362417",
"9+	c #6D3E11",
"0+	c #6DA356",
"a+	c #8C9A88",
"b+	c #8B9C84",
"c+	c #6CA451",
"d+	c #528742",
"e+	c #739A6A",
"f+	c #72A250",
"g+	c #818145",
"h+	c #4B853D",
"i+	c #649E4C",
"j+	c #71A855",
"k+	c #6FA852",
"l+	c #70A854",
"m+	c #789A6F",
"n+	c #72A659",
"o+	c #5B9047",
"p+	c #4D833F",
"q+	c #46843A",
"r+	c #64A04B",
"                                                                                                                                ",
"                                                                                                                                ",
"    . .             + @                   #                                                 $ %             &                   ",
"    * = - ;         @                   > , '                                               ) !           ~ {       ] ]         ",
"    ^ / (                               @ _ :                                     < [ }                             | 1         ",
"      @ 2                                                                         3 4 5                                         ",
"                                                                                                                      &         ",
"@ 6           7 8 9 0                                                                                                 a b       ",
"  c           d e f g                                 h i                                                             j         ",
"                d d @                                 k l                                                                       ",
"    . m                                                                                                                         ",
"    n o                                                                                                                         ",
"                                                                                                                                ",
"                                                                                                                                ",
"                                                                      @                       p q               &               ",
"                                                                      6 c                     r q             j s &             ",
"    t t       u   ;             v v                   w w w w w w w w w w                                       j               ",
"    v v       x y z             t t             w w A B C D E D C C C B F w w       G                                           ",
"                6 @                         w w B D E C F E H I E H H J J K K w     L M N                                       ",
"                                          w F D D B B E H I H J J J H O J P Q R w   S T o                                       ",
"                    @                   w A E D A E J H H H J J J U O J U J K V W w                                   X Y       ",
"                  c 6                   w D D B I H H H H J J J J O J J Z J J `  .H           ..+.                    @.#.      ",
"                                      w F E D I H H H H H J J J J J J J J J J K $.%.w         &...                              ",
"                                      w C E E H J J H H H J J J J J J J J J J P *.=.w                                           ",
"                                      w D E E H I J H H J J J J O O J J J J J K *.-.`                                           ",
"                                      A E E C H E H H J J J J J U O J J O ;.U Z ;.>.,.w                                         ",
"                    @               w F E D B H H H H J J J J J ;.U J J O ` P '.;.).!.w                                         ",
"  ~.8 9             + @             w B E E B H H H J H J J J J J J O K J J P O ` {.].w                                 ] ]     ",
"  d ^./.                      c 6   w C E E B H H I H F w C H J J J J P O J J C A '.=.w                                 | 1     ",
"    d (.                        @   w C C E _.O H I H :.E C w C J J J J J J D B H U <.w                                         ",
"            v v                   [.w C E D A H H H H }.|.1.B F C J J J J H E C 2.C ,.w                                   1 ]   ",
"    [.[.    t t                   [.w B E E B E H H H 3.4.5.6.7.C H J J U D 8.9.0.D Q w                                   | ]   ",
"    @ @                               A E C D A H H H a.b.c.d.e.f.H J O U E g.h.i.U K                       j.k.7               ",
"                  l.7                 w D E E D B H H E m.n.o.p.q.r.J J J B s.t.u.;.w                     d v.w.                ",
"              x.y.z.x.                w B E E E D E H J E 7.m.A.B.C.H J J D.1.C H '.w     &                                     ",
"              E.F.F.@                   w C E C D B H J J J H H I E J H H E H J P `       a b                                   ",
"                                        w A D D D D E I J H J J J J J J J J E H J A       j                                     ",
"                                          w A D E E B I H E A A B F C B A B B w B w                                             ",
"                                            w w C E C H H E w A F _.A B D B O E w                           $ $                 ",
"                                                w A C E I H G.E H H U J J ` H.A w                           I.%     q q         ",
"                @ +                             w w w A B E C F H J O O *.R B w                           1 ]   % $ r p % $     ",
"                  @                             w A E A B w A w B C C B w w w w   J.b                     | ]   I.$ ] ] I.$     ",
"                                    + @       w w C H H O J K.L.M.N.O.P.Q.P w w   ~ R.      &         c S.& &       | 1         ",
"  h '                               @         G.G.E J P I K T.K.9.U.V.m.W.` *.A           j s &         X.  s ]         { &     ",
"  Y.Z.    i `. +                              w B I '.,.C J {.C J Z Z D {.E .+w       &     j @               ++b @+{   ~       ",
"          #+$+%+              &+c             w A C *.*.F H ` C J J J B '.E *.w       a b     @               *+  @ & R.b       ",
"                              c               A B w G.w A E I D O H D F E w =+J       j                               ~ J.      ",
"                                              w C -+;+>+B A C *.w A ` A Z w U w                                                 ",
"  ,+'+                                          A D.)+!+B ~+D *.{+]+O ^+B /+H                                                   ",
"  (+_+                                            w :+w <+[+}+|+1+2+3+4+5+6+                                                    ",
"                                                    w 7+6+B J w /+8+w J w                                                       ",
"                                    c               w 9+_.B H w 8+B H U w                                                       ",
"      # #                   @   v t 6 @   6 c         w B E w w w F D C w                                               $ %     ",
"    0+a+b+#                 + @ v d   c &+@                                                               7 c+d+        ) ! j   ",
"    &+e+Z.                    @ ^ 6     c @                                     f+g+                      [ h+i+            S.& ",
"                    j+        @ [.c       6 c                                   k+f+                c     @ d t       9 5   X.  ",
"                  l+m+n+        @ 6                                                         ! %                   7 o+p+9       ",
"                                      &+c                                                   ) $                   c q+r+        ",
"                                @     c                                                                                         ",
"                                + @                                                                                             ",
"                                                                    + @                         % $                             ",
"                                                                    @                           I.$                             ",
"                                                                                                    [.@                         ",
"                                                                                                                                "};
