/* XPM */
static char * opossum_4_xpm[] = {
"82 64 10 1",
" 	c #402515",
".	c #3F2A17",
"+	c #372111",
"@	c #2E1B0E",
"#	c #322C43",
"$	c #693F55",
"%	c #345487",
"&	c #B05692",
"*	c #98CAD6",
"=	c #FFFFFF",
"  ..   ++..+++    ++       +++++++         @@@  ..@@       @@@++       ++  ..   ++",
"  ..   ++..+++    ++       +++++++         @@@  ..@@       @@@++       ++  ..   ++",
"         +++++++       @@     ++  ..     ++   ++  ..+++  ..+++      +++           ",
"         +++++++       @@     ++  ..     ++   ++  ..+++  ..+++      +++           ",
"         +++++++       @@     ++  ..     ++   ++  ..+++  ..+++      +++           ",
"++  +++++  +++  ++       @@+++    @@   ++@@   ++         +++++    ++     ++  +++++",
"++  +++++  +++  ++       @@+++    @@   ++@@   ++         +++++    ++     ++  +++++",
"    +++  ++...           ++@@@..++              ..     ++  +++  ++           +++  ",
"    +++  ++...           ++@@@..++              ..     ++  +++  ++           +++  ",
"  ..   @@       ++  ...         ++++     @@   ++  @@+++  +++++++    ...    ..   @@",
"  ..   @@       ++  ...         ++++     @@   ++  @@+++  +++++++    ...    ..   @@",
"++++                   ++     ++       ++         ++   ++++...    ++   @@++++     ",
"++++                   ++     ++       ++         ++   ++++...    ++   @@++++     ",
"++++                   ++     ++       ++         ++   ++++...    ++   @@++++     ",
"    +++    ...         ++  +++  ++..+++         ++++...  +++++               +++  ",
"    +++    ...         ++  +++  ++..+++         ++++...  +++++               +++  ",
"         ++     ++  +++@@++   ++++++@@@    +++    ++          ++       ++         ",
"         ++     ++  +++@@++   ++++++@@@    +++    ++          ++       ++         ",
"         #########++   ++#######++         ...  ++       ++       ++              ",
"         #########++   ++#######++         ...  ++       ++       ++              ",
"         #########++   ++#######++         ...  ++       ++       ++              ",
"++..       ##############$$$$$##       ++     @@..++       ...    @@     ++..     ",
"++..       ##############$$$$$##       ++     @@..++       ...    @@     ++..     ",
"         ##%%%%%%%%%%%%%%#######  ..                +++  ++     ..++   ++         ",
"         ##%%%%%%%%%%%%%%#######  ..                +++  ++     ..++   ++         ",
"  ++.####%%%%%%%%%%%%%%%%%%###  ++  +++       ..  ++   ++     ++++  +++    ++...  ",
"  ++.####%%%%%%%%%%%%%%%%%%###  ++  +++       ..  ++   ++     ++++  +++    ++...  ",
"  ###&&&&***********%%%%%%%#####    ##############  ...  ####&&&&&&&&&&&&####     ",
"  ###&&&&***********%%%%%%%#####    ##############  ...  ####&&&&&&&&&&&&####     ",
"  ###&&&&***********%%%%%%%#####    ##############  ...  ####&&&&&&&&&&&&####     ",
"  ###&&$$**###==*******%%%%%%%######%%%%%%%%%%%%#########&&&&&&&&&&&&&&&&&&&&###++",
"  ###&&$$**###==*******%%%%%%%######%%%%%%%%%%%%#########&&&&&&&&&&&&&&&&&&&&###++",
"  ###$$$$#######*********%%%%%##%%%%%%%%%%%%%%%%%%##$$$$$$$$$$$$$$#######$$$$$$$$$",
"  ###$$$$#######*********%%%%%##%%%%%%%%%%%%%%%%%%##$$$$$$$$$$$$$$#######$$$$$$$$$",
"++++ #############*******%%%%%%%%%%%%%%%%%%%%%%%%%#####$$$$#######++     #########",
"++++ #############*******%%%%%%%%%%%%%%%%%%%%%%%%%#####$$$$#######++     #########",
"++++ #############*******%%%%%%%%%%%%%%%%%%%%%%%%%#####$$$$#######++     #########",
"     ####%%%%%**#######**%%%%%%%%%%%%%%%%%%%%%%%%%#########+++  ++..            ++",
"     ####%%%%%**#######**%%%%%%%%%%%%%%%%%%%%%%%%%#########+++  ++..            ++",
"         #####%%*******%%%%%%%##%%%%%%%%%%%%%%%%%%##   ++..   ++                  ",
"         #####%%*******%%%%%%%##%%%%%%%%%%%%%%%%%%##   ++..   ++                  ",
"       ++  #####%%%%%%%%%%%%%%%%####%%%%%%%%%%%%%%##   ++       ..     ++       ++",
"       ++  #####%%%%%%%%%%%%%%%%####%%%%%%%%%%%%%%##   ++       ..     ++       ++",
"  ..+++         #######%%%%%%%%%%%##%%%%%%%%%%%%%%##############           ..+++  ",
"  ..+++         #######%%%%%%%%%%%##%%%%%%%%%%%%%%##############           ..+++  ",
"  ..+++         #######%%%%%%%%%%%##%%%%%%%%%%%%%%##############           ..+++  ",
"++     ++     ###########%%%%%%%%%##%%%%%%%%%%%%#######$$$$$$###++       ++     ++",
"++     ++     ###########%%%%%%%%%##%%%%%%%%%%%%#######$$$$$$###++       ++     ++",
"  ++       @@@#############%%%%%%%##%%%%%%%############$$$$## ++    ...++  ++     ",
"  ++       @@@#############%%%%%%%##%%%%%%%############$$$$## ++    ...++  ++     ",
"@@         ##############%%%%%%%####%%%%%%%#########   ######@    +++++  @@       ",
"@@         ##############%%%%%%%####%%%%%%%#########   ######@    +++++  @@       ",
"@@         ##############%%%%%%%####%%%%%%%#########   ######@    +++++  @@       ",
"  ..@@@###########     ##%%%%%&&##%%%%%%%#####  ++       ++       +++++++  ..@@@  ",
"  ..@@@###########     ##%%%%%&&##%%%%%%%#####  ++       ++       +++++++  ..@@@  ",
"     ##$$#####++++     @@##&&&&&##%%%%%##@@   ++..++       @@@      +++           ",
"     ##$$#####++++     @@##&&&&&##%%%%%##@@   ++..++       @@@      +++           ",
"@@   ##$$$$###           ##&&&$$##&&$$$##  +++..++         ...    ++...++@@     @@",
"@@   ##$$$$###           ##&&&$$##&&$$$##  +++..++         ...    ++...++@@     @@",
"       ####+++    ++...  ++#######&&###  ++                     +++++++++         ",
"       ####+++    ++...  ++#######&&###  ++                     +++++++++         ",
"       ####+++    ++...  ++#######&&###  ++                     +++++++++         ",
"..++                          ##&&&&###++     ..       @@     ++@@+++++  ..++     ",
"..++                          ##&&&&###++     ..       @@     ++@@+++++  ..++     "};
