/* XPM */
static char * opossum_2_xpm[] = {
"82 64 96 2",
"  	c #3F2917",
". 	c #402616",
"+ 	c #3F2415",
"@ 	c #3C2313",
"# 	c #382111",
"$ 	c #3D2314",
"% 	c #3B2313",
"& 	c #3B2514",
"* 	c #3E2816",
"= 	c #3A2313",
"- 	c #3A2213",
"; 	c #3F2414",
"> 	c #3F2515",
", 	c #3F2816",
"' 	c #3C2615",
") 	c #3A2212",
"! 	c #3D2414",
"~ 	c #402515",
"{ 	c #372012",
"] 	c #382012",
"^ 	c #3E2414",
"/ 	c #3E2515",
"( 	c #402716",
"_ 	c #402615",
": 	c #3F2615",
"< 	c #372011",
"[ 	c #382112",
"} 	c #3B2413",
"| 	c #361F11",
"1 	c #3B2213",
"2 	c #392212",
"3 	c #372111",
"4 	c #3C2514",
"5 	c #362011",
"6 	c #331E10",
"7 	c #392112",
"8 	c #362111",
"9 	c #3D2615",
"0 	c #3C2414",
"a 	c #3A2513",
"b 	c #382211",
"c 	c #3F2716",
"d 	c #3D2514",
"e 	c #351F10",
"f 	c #3A2112",
"g 	c #3A2413",
"h 	c #402816",
"i 	c #392413",
"j 	c #382212",
"k 	c #3C2314",
"l 	c #351F11",
"m 	c #341E10",
"n 	c #321D10",
"o 	c #3C2413",
"p 	c #3D2815",
"q 	c #3C2715",
"r 	c #3D2715",
"s 	c #3E2615",
"t 	c #3C2614",
"u 	c #412515",
"v 	c #392313",
"w 	c #341F10",
"x 	c #3E2514",
"y 	c #3D2313",
"z 	c #352011",
"A 	c #331F10",
"B 	c #3A2312",
"C 	c #3E2715",
"D 	c #3A2414",
"E 	c #3B2414",
"F 	c #3D2614",
"G 	c #3F2916",
"H 	c #362112",
"I 	c #693F55",
"J 	c #322C43",
"K 	c #3F2715",
"L 	c #3B2614",
"M 	c #372212",
"N 	c #382312",
"O 	c #321E0F",
"P 	c #372313",
"Q 	c #3D2716",
"R 	c #B05692",
"S 	c #321D0F",
"T 	c #392213",
"U 	c #3A2514",
"V 	c #362212",
"W 	c #345487",
"X 	c #392312",
"Y 	c #98CAD6",
"Z 	c #342011",
"` 	c #352112",
" .	c #FFFFFF",
"..	c #372112",
"+.	c #3D2816",
"@.	c #3C2213",
"  . + @ # $ % & * = @ @ - ; > , ' ) ! - @ ~ > ~ { ] ^ ) ! ^ ; ~ ~ ~ @ ) ^ ~ > ; / , ( + @ # $ % & * = @ @ - ; > , ' ) ! - @ ~ > ~ { ] ^ ) ! ^ ; ~ ~ ~ @ ) ^ ~ > ; ^ ",
"( _ ! % ! % @ / : ! < [ ^ > % = } @ | 1 ; ~ ~ ~ $ - 2 3 2 ! ~ _ , 4 5 6 ) ; ~ ~ ~ . _ ! % ! % @ / : ! < [ ^ > % = } @ | 1 ; ~ ~ ~ $ - 2 3 2 ! ~ _ , 4 5 6 ) ; ~ ~ ~ ",
"~ ~ ^ @ @ @ ^ ~ > @ 7 @ ~ > 2 8 2 1 [ 9 0 - ~ ~ ^ 0 a b ) ^ ~ _ c d # e % ; ~ ! f + ~ ^ @ @ @ ^ ~ > @ 7 @ ~ > 2 8 2 1 [ 9 0 - ~ ~ ^ 0 a b ) ^ ~ _ c d # e % ; ~ ^ [ ",
"@ ; > ! g ! > ~ > % 1 ^ ~ > % # # % > h i { > ^ % & ' j ^ ~ ; k > ; % 2 > _ > - l 1 + > ! g ! > ~ > % 1 ^ ~ > % # # % > h i { > ^ % & ' j ^ ~ ; k > ; % 2 > _ > 1 m ",
"n 1 o g p = $ ~ ~ + 5 7 ~ ~ ; % = ^ ; ~ ~ + ^ ) @ o j 2 ^ ~ @ m $ % # 2 > , & ) $ m 1 o g p = $ ~ ~ + 5 7 ~ ~ ; % = ^ ; ~ ~ + ^ ) @ o j 2 ^ ~ @ m $ % # 2 > , & ) ; ",
"k ) & q g ! > ~ ~ ~ r s ~ > % t t [ m k u k l @ % % ^ ^ > ~ > k ) @ % 2 > _ [ | + $ ) & q g ! > ~ ~ ~ r s ~ > % t t [ m k u k l @ % % ^ ^ > ~ > k ) @ % 2 > _ [ | ~ ",
"% @ / : ! > ~ ~ ~ ~ ( . ; % # v i 3 7 ^ ~ ^ - ; = % ~ ~ @ 9 ( > 2 ! ; ! ~ ~ k @ > @ @ / : ! > ~ ~ ~ ~ ( . ; % # v i 3 7 ^ ~ ^ - ; = % ~ ~ @ 9 ( > 2 ! ; ! ~ ~ k @ ~ ",
"% ^ . ( ~ ~ ~ ^ 1 > ~ ; - w 5 3 # @ : x ^ ~ ~ ~ y ! ~ ~ @ 9 ( > @ ^ ~ ~ ~ ~ ~ > @ % ^ . ( ~ ~ ~ ^ 1 > ~ ; - w 5 3 # @ : x ^ ~ ~ ~ y ! ~ ~ @ 9 ( > @ ^ ~ ~ ~ ~ ~ > ! ",
"~ ; 9 r ~ ~ ~ % z ^ > @ 3 A 3 2 @ _ , g @ ~ ; ~ ~ ~ > ^ + ~ ~ ~ ^ + ~ ~ ~ ; ^ y ) ; + 9 r ~ ~ ~ % z ^ > @ 3 A 3 2 @ _ , g @ ~ ; ~ ~ ~ > ^ + ~ ~ ~ ^ + ~ ~ ~ ; ^ $ 2 ",
"~ % z z + ~ ~ : * > % @ : * > + > ~ > B @ ^ ) ; ~ ~ $ m @ ~ ~ ^ w 1 ~ ~ > % j % > ~ % z z + ~ ~ : * > % @ : * > + > ~ > B @ ^ ) ; ~ ~ $ m @ ~ ~ ^ w 1 ~ ~ > % j % ; ",
"~ ^ @ $ > % 2 0 : % @ ; _ . ~ ~ ~ ~ ~ ^ @ % ^ ~ ( ( > @ ) ! ~ ; 3 t 9 % > ^ 9 C ~ ~ ^ @ $ > % 2 0 : % @ ; _ . ~ ~ ~ ~ ~ ^ @ % ^ ~ ( ( > @ ) ! ~ ; 3 t 9 % > ^ 9 C ~ ",
"h _ ~ _ c ! % ! > @ ; ~ ^ 7 ^ ~ ~ ~ ~ - 2 @ @ > D E > o & E ! > ! & & % @ > 9 F ~ ( _ ~ _ c ! % ! > @ ; ~ ^ 7 ^ ~ ~ ~ ~ - 2 @ @ > D E > o & E ! > ! & & % @ > 9 F ~ ",
"G . ; / , 0 ^ ~ ~ ~ ~ ~ ! H ^ ~ ~ ~ ! < - x } > 7 ] y = C t @ > ^ 2 % ; % ^ y @ ~ , . ; / , 0 ^ ~ ~ ~ ~ ~ ! H ^ ~ ~ ~ ! < - x } > 7 ] y = C t @ > ^ 2 % ; % ^ y @ ~ ",
"~ + @ % / m 7 ~ ~ ~ + ; : , _ ~ ~ ^ ) ! ~ : * : > @ ) ; > > ~ > ) 3 % ; ; ~ ~ ~ ~ ~ + @ % / m 7 ~ ~ ~ + ; : , _ ~ ~ ^ ) ! ~ : * : > @ ) ; > > ~ > ) 3 % ; ; ~ ~ ~ ~ ",
"> < ] : * A 7 ~ ~ > < e % : ~ ~ ! ) ^ , ( ^ g * & % ; > % $ ~ ~ ^ ) # 2 ) ^ ~ ~ ~ > < ] : * A 7 ~ ~ > < e % : ~ ~ ! ) ^ , ( ^ g I I J J > % $ ~ ~ ^ ) # 2 ) ^ ~ ~ ~ ",
"% - ) o K L g y _ , M # ^ ~ ~ ! % ! ~ ( _ > ! g j [ @ > ^ ; $ { ; ^ ) # 0 c ( ~ > @ ) ) o K L g y _ , M # ^ ~ ~ ! % ! ~ ( _ > ! I I J J > ^ ; $ { ; ^ ) # 0 c ( ~ ~ ",
"w @ @ 2 > h d y > ' N @ ~ ~ ! % ! > ! + ^ y @ % [ [ % @ > ~ $ < 7 @ @ @ > & d > % e @ @ 2 > h d y > ' N @ ~ ~ ! % ! > ! + ^ y @ I I J J @ > ~ $ < 7 @ @ @ > & d ; y ",
"6 @ ! % : ~ ~ > ! ) # % ~ ^ ) ! ~ ; ) ^ @ # ) ! % o ^ ) ^ ~ ~ ^ 6 6 = : ^ | - ^ [ m @ ! % : ~ ~ > ! ) # % ~ ^ ) ! ~ ; ) ^ @ # ) I I J J ) ^ ~ ~ ^ 6 6 = : ^ | - ^ 2 ",
"! > > : , : > ! ) ! 2 J J J J J ~ ~ > ~ @ ) ! ) ' J J J J J ~ + [ O P Q 2 @ > ~ + ^ > > : , : > ! ) ! 2 % ^ ) ^ ~ ~ ~ > ~ @ ) ! R R J J ; ~ ~ ~ + [ O P Q 2 @ > ~ > ",
"m k ! % / < < % ! ) # J J J J J ( ~ ~ h K 1 l @ : J J J J J h ~ ^ k ^ / b 2 ! ~ ^ | @ ! % / < < % ! ) # # % ^ ~ ( ( ~ ~ h K 1 l R R J J % ^ ( h ~ ^ k ^ / b 2 ! ~ ~ ",
"[ ! ^ ! ; 5 # @ % # a J J J J J 4 [ % & s ^ 7 ; ~ J J J J J s @ > u ^ @ @ @ ^ ; % 7 ! ^ ! ; 5 # @ % # a 4 ! > @ s 4 [ % & s ^ 7 R R J J @ ; . s @ > u ^ @ @ @ ^ ; % ",
"~ ~ ~ > ! 2 0 / ) # L J J J J J J J 2 ) @ ^ ~ J J J J J J J J J ; ^ @ % ! : > @ % > ~ ~ > ! 2 0 / ) # L s ~ > % ^ @ | 2 ) R R R I I J J ~ ~ ~ ! 2 ; ^ @ % ! : > @ ) ",
"~ > ~ ^ 2 3 t h ^ 2 j J J J J J J J > ~ @ % > J J J J J J J J J ! % % ! 2 q g ) > ~ > ~ ^ 2 3 t h ^ 2 j @ > ~ ~ ~ > ^ > ~ R R R I I J J > ~ ~ @ # ! % % ! 2 q g ) > ",
"~ % @ ~ ^ 2 0 _ ~ ; ; J J J J J J J > ~ > > > J J I I I I I J J 3 y @ 2 3 j w | ~ ~ % @ ~ ^ 2 0 _ ~ ; ; @ % ~ ~ ~ ! = J J R R R I I J J ) ^ y 5 S 3 y @ 2 3 j w | ~ ",
"~ 9 s ; % @ ; ~ > % ^ J J J J J J J ~ ~ ~ ~ ~ J J I I I I I J J 8 2 & L j % 1 k ~ ~ 9 s ; % @ ; ~ > % ^ ; ^ > @ ^ ; ^ J J R R R I I J J ! % @ - e 8 2 & L j % 1 k ~ ",
"~ ( d T U o ; ~ > @ s . ~ ; J J J J J J J J J J J I I I I I J J # ) 4 t @ ; ~ > ! > ( d T U o ; ~ > @ s . ~ ; 5 1 ~ ~ J J R R R I I J J c 3 # @ % # ) 4 t @ ; ~ > @ ",
"~ ~ - H * } @ ; ~ ^ c ( ~ / J J J J J J J J J J J I I I I I J J % % 1 % > _ _ ^ % > ~ - H * } @ ; ~ ^ c ( ~ / w - ~ ! J J R R R I I J J , V 5 @ ; % % 1 % > _ _ ^ ) ",
"~ ~ > > ~ > % % ^ ) ^ J J J W W W W W W W W W W W J J J J J J J ; 5 ] > > , c > > ~ ~ > > ~ > % % ^ ) ^ ~ : * X @ J J R R I I I J J ~ > > * s > ~ ; 5 ] > > , c > > ",
"~ ~ ( h > % @ @ ) ! > J J J W W W W W W W W W W W J J J J J J J % 1 ^ ; % / 0 @ ~ ~ ~ ( h > % @ @ ) ! > ! 2 = ! % J J R R I I I J J ! 2 ) / ! @ ; % 1 ^ ; % / 0 @ ~ ",
"~ $ d ( ~ ! s s ! ~ ~ J J J W W W W W W W W W W W J J J J J J J 3 ! ~ > $ + ^ ! ~ ~ $ d ( ~ ! s s ! ~ ~ ^ @ @ % @ J J R R I I I J J s % # ^ ^ - < 3 ! ~ > $ + ^ ! ~ ",
"~ @ % ^ ~ ^ C ( ~ J J W W W W W W W W W W W W W W W W J J J ! H 2 ^ ~ ~ ~ ~ ^ ^ ~ ~ @ % ^ ~ ^ C ( ~ ~ ~ ~ ; 1 ) ^ J J R R I I I J J ( > % @ + ! H 2 ^ ~ ~ ~ ~ ^ ^ ~ ",
"_ ~ y % ; ) @ ~ _ J J W W W W W W W W W W W W W W W W J J J : r : ~ ~ ~ ~ ~ % ) ~ _ ~ y % ; ) @ ~ _ ~ ~ ~ k l $ > J J R R I I I J J ~ ~ ^ ) y : r : ~ ~ ~ ~ ~ % ) ~ ",
"G _ > > > J J J J J J Y Y Y Y Y Y Y Y Y W W W W W W W J J J J J Q ( ~ ~ J J J J J J J J J J J J J J > ~ ~ > ^ > @ J J I I I I I J J ~ ; ) ! ~ @ Z Q ( ~ ~ ~ ~ % ) ~ ",
"` 0 ~ ; % J J J J J J Y Y Y Y Y Y Y Y Y W W W W W W W J J J J J : _ ~ ~ J J J J J J J J J J J J J J < $ ! @ > % @ J J I I I I I J J ~ > ! % ! ^ % : _ ~ ~ ~ ~ [ H , ",
"< - J J J I I I I Y Y J J J  . .Y Y Y Y Y Y Y W W W W W W W J J J J J J W W W J J J J W W W W W W W J J @ % @ J J I I I I I I I J J ( > y % @ x c ! ; ~ ~ ~ ! 5 .., ",
"~ @ J J J I I I I Y Y J J J  . .Y Y Y Y Y Y Y W W W W W W W J J J J J J W W W J J J J W W W W W W W J J @ y = J J I I I I I I I J J c ! ) $ 2 j q j ! ^ ! : % 2 @ ~ ",
"~ ~ J J J I I I I Y Y J J J  . .Y Y Y Y Y Y Y W W W W W W W J J J J J J W W W J J J J W W W W W W W J J @ = > J J I I I I I I I J J @ ) ^ % w 6 j j ! - z +.: > ~ ~ ",
"~ ~ J J J R R R R J J J J J J J J J Y Y Y Y Y Y Y W W W W W J J W W W W J J J J J W W W W W W W W W W W J J J I I I I I I J J J ; [ { ^ ~ ; $ $ x C : ; @ = x ( h ~ ",
"~ ~ J J J R R R R J J J J J J J J J Y Y Y Y Y Y Y W W W W W J J W W W W J J J J J W W W W W W W W W W W J J J I I I I I I J J J > @.@ > @ C ( ; o K _ ~ > y % / ( ~ ",
"~ ~ J J J I I I I W W Y Y Y Y Y Y Y Y Y J J J Y Y W W W W W W W W W W W J J J W W W W W W W W W W W W W J J J I I I I I I J J J > ~ ~ ; % t E - % > ~ ~ > ! % @ @ - ",
"_ ~ J J J I I I I W W Y Y Y Y Y Y Y Y Y J J J Y Y W W W W W W W W W W W J J J W W W W W W W W W W W W W J J J I I I I I I J J J ; ^ ^ ~ ^ = l < > ~ ~ ~ ! ) ^ @ < n ",
"  . + @ # J J J J J J J J J J J J J J J Y Y Y Y Y W W W W W W W W W W W J J J W W W W W W W W W W W W W J J J I I J J J J @ ~ > ~ { ] ^ ) ! ^ ; ~ ~ ~ @ ) ^ ~ > ; ^ ",
"( _ ! % ! J J J J J J J J J J J J J J J Y Y Y Y Y W W W W W W W W W W W J J J W W W W W W W W W W W W W J J J I I J J J J ; ~ ~ ~ $ - 2 3 2 ! ~ _ , 4 5 6 ) ; ~ ~ ~ ",
"~ ~ ^ @ @ @ ^ J J J J W W W W W Y Y Y Y Y Y Y W W W W W W W W W W W W W J J J W W W W W W W W W W W W W J J J J J 2 1 [ 9 0 - ~ ~ ^ 0 a b ) ^ ~ _ c d # e % ; ~ ^ [ ",
"@ ; > ! g ! > J J J J W W W W W Y Y Y Y Y Y Y W W W W W W W W W W W W W J J J W W W W W W W W W W W W W J J J J J # % > h i { > ^ % & ' j ^ ~ ; k > ; % 2 > _ > 1 m ",
"n 1 o g p = $ J J J J W W W W W Y Y Y Y Y Y Y W W W W W W W W W W W W W J J J W W W W W W W W W W W W W J J J J J = ^ ; ~ ~ + ^ ) @ o j 2 ^ ~ @ m $ % # 2 > , & ) ; ",
"k ) & q g ! > ~ ~ J J J J J W W W W W W W W W W W W W W W W W W W W J J J J J W W W W W W W W W W W W W J J J % t t [ m k u k l @ % % ^ ^ > ~ > k ) @ % 2 > _ [ | ~ ",
"% @ / : ! > ~ ~ ~ J J J J J W W W W W W W W W W W W W W W W W W W W J J J J J W W W W W W W W W W W W W J J J # v i 3 7 ^ ~ ^ - ; = % ~ ~ @ 9 ( > 2 ! ; ! ~ ~ k @ ~ ",
"% ^ . ( ~ ~ ~ ^ 1 > ~ ; - w J J J J J J J J J W W W W W W W W W W W J J J J J W W W W W W W W W W W J J J J J 5 3 # @ : x ^ ~ ~ ~ y ! ~ ~ @ 9 ( > @ ^ ~ ~ ~ ~ ~ > ! ",
"~ ; 9 r ~ ~ ~ % z ^ > @ 3 A J J J J J J J J J W W W W W W W W W W W J J J J J W W W W W W W W W W W J J J J J 3 2 @ _ , g @ ~ ; ~ ~ ~ > ^ + ~ ~ ~ ^ + ~ ~ ~ ; ^ $ 2 ",
"~ % z z + ~ ~ : * > % @ : * J J J J J J J J J W W W W W W W W W J J J J J J J W W W W W W W J J J J J J J J J > + > ~ > B @ ^ ) ; ~ ~ $ m @ ~ ~ ^ w 1 ~ ~ > % j % ; ",
"~ ^ @ $ > % 2 0 : % @ ; _ . J J J J J J J J J W W W W W W W W W J J J J J J J W W W W W W W J J J J J J J J J ~ ~ ~ ~ ~ ^ @ % ^ ~ ( ( > @ ) ! ~ ; 3 t 9 % > ^ 9 C ~ ",
"h _ ~ _ c ! % ! > @ ; ~ ^ 7 J J J J J J J J J W W W W W W W W W J J J J J J J W W W W W W W J J J J J J J J J ^ ~ ~ ~ ~ - 2 @ @ > D E > o & E ! > ! & & % @ > 9 F ~ ",
"G . ; / , 0 ^ ~ ~ ~ ~ ~ ! H J J J J J J W W W W W W W W W W J J J J J J J J J W W W W W W W W W W W J J J J J J J ~ ~ ! < - x } > 7 ] y = C t @ > ^ 2 % ; % ^ y @ ~ ",
"~ + @ % / m 7 ~ ~ ~ + ; : , J J J J J J W W W W W W W W W W J J J J J J J J J W W W W W W W W W W W J J J J J J J ~ ^ ) ! ~ : * : > @ ) ; > > ~ > ) 3 % ; ; ~ ~ ~ ~ ",
"> < ] : * A 7 ~ ~ > < e % : ~ ~ J J J J W W W W W J J > % $ ~ ~ ^ ) # 2 ) ^ ~ J J W W W W W W W W W W W R R R I I J J ^ , ( ^ g * & % ; > % $ ~ ~ ^ ) # 2 ) ^ ~ ~ ~ ",
"% - ) o K L g y _ , M # ^ ~ ~ ! J J J J W W W W W J J > ^ ; $ { ; ^ ) # 0 c ( J J W W W W W W W W W W W R R R I I J J ~ ( _ > ! g j [ @ > ^ ; $ { ; ^ ) # 0 c ( ~ ~ ",
"w @ @ 2 > h d y > ' N @ ~ ~ ! % J J W W W W W W W J J @ > ~ $ < 7 @ @ @ > & d J J J J J J J W W W W W W R R R R R J J ! + ^ y @ % [ [ % @ > ~ $ < 7 @ @ @ > & d ; y ",
"6 @ ! % : ~ ~ > ! ) # % ~ ^ ) ! J J W W W W W W W J J ) ^ ~ ~ ^ 6 6 = : ^ | - J J J J J J J W W W W W W R R R R R J J ) ^ @ # ) ! % o ^ ) ^ ~ ~ ^ 6 6 = : ^ | - ^ 2 ",
"! > > : , : > ! ) ! 2 % ^ ) ^ ~ J J R R R R R I I J J ; ~ ~ ~ + [ O P Q 2 @ > ~ + J J J J J J J J J J J J J J J J ~ ~ > ~ @ ) ! ) ' c ~ ; ~ ~ ~ + [ O P Q 2 @ > ~ > ",
"m k ! % / < < % ! ) # # % ^ ~ ( J J R R R R R I I J J % ^ ( h ~ ^ k ^ / b 2 ! ~ ^ J J J J J J J J J J J J J J J J ( ~ ~ h K 1 l @ : _ ; % ^ ( h ~ ^ k ^ / b 2 ! ~ ~ ",
"[ ! ^ ! ; 5 # @ % # a 4 ! > @ s J J R R R R R I I J J @ ; . s @ > u ^ @ @ @ ^ ; % J J J J J J J J J J J J J J J J 4 [ % & s ^ 7 ; ~ ~ > @ ; . s @ > u ^ @ @ @ ^ ; % ",
"~ ~ ~ > ! 2 0 / ) # L s ~ > % ^ J J R R I I I J J J J ~ ~ ~ ! 2 ; ^ @ % ! : > J J I I I I I J J / ) # L s ~ > % ^ @ | 2 ) @ ^ ~ ~ _ _ ~ ~ ~ ~ ! 2 ; ^ @ % ! : > @ ) ",
"~ > ~ ^ 2 3 t h ^ 2 j @ > ~ ~ ~ J J R R I I I J J J J > ~ ~ @ # ! % % ! 2 q g J J I I I I I J J h ^ 2 j @ > ~ ~ ~ > ^ > ~ @ % > > , h ~ > ~ ~ @ # ! % % ! 2 q g ) > "};
