/* XPM */
static char * Lose_xpm[] = {
"110 40 161 2",
"  	c #000000",
". 	c #262626",
"+ 	c #5C5C5C",
"@ 	c #BCBCBC",
"# 	c #DADADA",
"$ 	c #353535",
"% 	c #F2F2F2",
"& 	c #737373",
"* 	c #DFDFDF",
"= 	c #969696",
"- 	c #C6C6C6",
"; 	c #888888",
"> 	c #919191",
", 	c #FFFFFF",
"' 	c #666666",
") 	c #EBEBEB",
"! 	c #D4D4D4",
"~ 	c #D6D6D6",
"{ 	c #808080",
"] 	c #FEFEFE",
"^ 	c #8B8B8B",
"/ 	c #CBCBCB",
"( 	c #EEEEEE",
"_ 	c #EAEAEA",
": 	c #D0D0D0",
"< 	c #D1D1D1",
"[ 	c #E2E2E2",
"} 	c #1C1C1C",
"| 	c #F6F6F6",
"1 	c #B2B2B2",
"2 	c #F0F0F0",
"3 	c #C4C4C4",
"4 	c #686868",
"5 	c #7C7C7C",
"6 	c #8C8C8C",
"7 	c #FDFDFD",
"8 	c #515151",
"9 	c #BBBBBB",
"0 	c #6C6C6C",
"a 	c #424242",
"b 	c #565656",
"c 	c #585858",
"d 	c #F3F3F3",
"e 	c #B8B8B8",
"f 	c #D5D5D5",
"g 	c #D2D2D2",
"h 	c #3B3B3B",
"i 	c #ACACAC",
"j 	c #6E6E6E",
"k 	c #F4F4F4",
"l 	c #F9F9F9",
"m 	c #CECECE",
"n 	c #9C9C9C",
"o 	c #EDEDED",
"p 	c #E5E5E5",
"q 	c #4D4D4D",
"r 	c #AAAAAA",
"s 	c #6A6A6A",
"t 	c #FCFCFC",
"u 	c #757575",
"v 	c #FBFBFB",
"w 	c #868686",
"x 	c #F8F8F8",
"y 	c #C5C5C5",
"z 	c #555555",
"A 	c #787878",
"B 	c #ADADAD",
"C 	c #A8A8A8",
"D 	c #4F4F4F",
"E 	c #D8D8D8",
"F 	c #949494",
"G 	c #9A9A9A",
"H 	c #BFBFBF",
"I 	c #8A8A8A",
"J 	c #222222",
"K 	c #707070",
"L 	c #A3A3A3",
"M 	c #FAFAFA",
"N 	c #9B9B9B",
"O 	c #DEDEDE",
"P 	c #383838",
"Q 	c #ECECEC",
"R 	c #BEBEBE",
"S 	c #5F5F5F",
"T 	c #9F9F9F",
"U 	c #626262",
"V 	c #2E2E2E",
"W 	c #E4E4E4",
"X 	c #3D3D3D",
"Y 	c #CACACA",
"Z 	c #696969",
"` 	c #F1F1F1",
" .	c #B4B4B4",
"..	c #A4A4A4",
"+.	c #717171",
"@.	c #F5F5F5",
"#.	c #494949",
"$.	c #C2C2C2",
"%.	c #909090",
"&.	c #8D8D8D",
"*.	c #797979",
"=.	c #535353",
"-.	c #E0E0E0",
";.	c #959595",
">.	c #B7B7B7",
",.	c #CDCDCD",
"'.	c #878787",
").	c #2A2A2A",
"!.	c #B6B6B6",
"~.	c #777777",
"{.	c #CFCFCF",
"].	c #727272",
"^.	c #6D6D6D",
"/.	c #7A7A7A",
"(.	c #929292",
"_.	c #474747",
":.	c #EFEFEF",
"<.	c #838383",
"[.	c #8F8F8F",
"}.	c #C8C8C8",
"|.	c #E8E8E8",
"1.	c #DBDBDB",
"2.	c #D7D7D7",
"3.	c #E9E9E9",
"4.	c #0D0D0D",
"5.	c #ABABAB",
"6.	c #161616",
"7.	c #8E8E8E",
"8.	c #E7E7E7",
"9.	c #E1E1E1",
"0.	c #898989",
"a.	c #4B4B4B",
"b.	c #979797",
"c.	c #C7C7C7",
"d.	c #7F7F7F",
"e.	c #9E9E9E",
"f.	c #A5A5A5",
"g.	c #E6E6E6",
"h.	c #C1C1C1",
"i.	c #848484",
"j.	c #F7F7F7",
"k.	c #999999",
"l.	c #C0C0C0",
"m.	c #AEAEAE",
"n.	c #858585",
"o.	c #B9B9B9",
"p.	c #A7A7A7",
"q.	c #B1B1B1",
"r.	c #AFAFAF",
"s.	c #C3C3C3",
"t.	c #DCDCDC",
"u.	c #989898",
"v.	c #656565",
"w.	c #7E7E7E",
"x.	c #BDBDBD",
"y.	c #A0A0A0",
"z.	c #404040",
"A.	c #323232",
"B.	c #606060",
"C.	c #A2A2A2",
"D.	c #CCCCCC",
"                                                                                                                                                                                                                            ",
"                                                                                                                                                                                                                            ",
"                                                                                                                                                                                                                            ",
"                                                                                                                                                                                                                            ",
"                                                                                                                                                                                                                            ",
"                                                                                                      . +                                                                                                                   ",
"                                                                                                      @ #                                                                                                                   ",
"                          $ % &                                                                       * #                                                                                                 = -               ",
"      ; =                 > , '                                                                       ) !                                                                                                 ~ #               ",
"      { ] ^               / )                                                                         ( /                                                                                                 _ :               ",
"        < [             } | 1                                                                         2 3                                                                                                 ( 3               ",
"        4 ] 5           6 7 8                                                                         % 9                                       . 0 a                     b c                             d e               ",
"          : f           g *             h a                   1 i         j ) $                       k 1           h a                     { g l , m                 n o ] , p q                         | r               ",
"          s t u       q v 1           w x y                 z t A         B , c                       | C         w x y                 D E k 3 F G 4               H _ I J K | L                         M N               ",
"            3 O       - , K         P % Q z R 9             1 O           * , S                       x T       P % Q z R 9           U % H V                     1 W X     ; M 0                         t F               ",
"            a % Y Z 1 l `            ., { 8 ` v =           * ..        +._ , 4                       v G        ., { 8 ` v =         E :                       s @.c   #.$.d %.                          , &.              ",
"              *.d , ! : !         . k !     =.-.] T       J M #.        : T , +.                      t ;.    . k !     =.-.] T       ` >.                      E / F ,.k 3 8                           J , '.              ",
"                ).=.  _ !.        %., ~.      } {.t +.    ].o         ^._ } 7 /.                      7 (.    %., ~.      } {.t +.     .t / ;._.              =.] :.g T X                               V , <.              ",
"                    h ] [.        }.|.          . ( Y     N 1.        2.=   v <.                      , &.    }.|.          . ( Y       u 3 ) ] 3.3 ^ 4.      5.M 6.              C                       t 7.              ",
"                    '., =.        8.$.            {.1.     .{.      7.9.    x [.                    6., 0.    8.$.            {.1.            a.b.y 2 o ;     c.3.              d.@                       o e.              ",
"                    1 M           v f.            g.h.    H }.    P ) ].    k n                     . , i.    v f.            g.h.                  . 3 j.J   ~ p             6.9.U                       9 N               ",
"                    g (         $ , k.          (.] '     y c.    Y l.      ( m.                    V , n.  $ , k.          (.] '                     S ] P   g k             9 c.                                          ",
"                    ) |.          x !.        /.| o.      l.:   L g..       -./                       ] p.    x !.        /.| o.                      m.-.    q., n         f.o #.                                          ",
"                  . 7 t #.        / l r.5 ; s.v c.6.      m.| Y | 4         h.j.#.                    ` t.    / l r.5 ; s.v c.6.          K V     X @ @.j     #.d 7 - L r.* k Z                           n 1               ",
"                  ^., g 4.        _.f , , , 8.u.          v.v k w.          *., x.                    >.2.    _.f , , , 8.u.            n.l - l.2.l W 0         ' 1.7 , M < +                             3 v 5             ",
"                  X y.}               P 0 X                 z.A.              = B.                                P 0 X                 C.:.k 3.,.>                 A.=.}                                 D D.N             ",
"                                                                                                                                                                                                                            ",
"                                                                                                                                                                                                                            ",
"                                                                                                                                                                                                                            ",
"                                                                                                                                                                                                                            ",
"                                                                                                                                                                                                                            ",
"                                                                                                                                                                                                                            ",
"                                                                                                                                                                                                                            ",
"                                                                                                                                                                                                                            ",
"                                                                                                                                                                                                                            ",
"                                                                                                                                                                                                                            ",
"                                                                                                                                                                                                                            ",
"                                                                                                                                                                                                                            ",
"                                                                                                                                                                                                                            ",
"                                                                                                                                                                                                                            "};
