/* XPM */
static char * Teleportation_xpm[] = {
"200 40 170 2",
"  	c #000000",
". 	c #A3A3A3",
"+ 	c #8C8C8C",
"@ 	c #939393",
"# 	c #323232",
"$ 	c #B2B2B2",
"% 	c #6A6A6A",
"& 	c #737373",
"* 	c #AFAFAF",
"= 	c #C4C4C4",
"- 	c #EBEBEB",
"; 	c #424242",
"> 	c #7F7F7F",
", 	c #C8C8C8",
"' 	c #CBCBCB",
") 	c #7C7C7C",
"! 	c #717171",
"~ 	c #606060",
"{ 	c #2A2A2A",
"] 	c #EEEEEE",
"^ 	c #999999",
"/ 	c #E2E2E2",
"( 	c #5D5D5D",
"_ 	c #222222",
": 	c #A7A7A7",
"< 	c #A5A5A5",
"[ 	c #757575",
"} 	c #666666",
"| 	c #E4E4E4",
"1 	c #929292",
"2 	c #909090",
"3 	c #C2C2C2",
"4 	c #474747",
"5 	c #DBDBDB",
"6 	c #777777",
"7 	c #CECECE",
"8 	c #AAAAAA",
"9 	c #BBBBBB",
"0 	c #C7C7C7",
"a 	c #6E6E6E",
"b 	c #8D8D8D",
"c 	c #D0D0D0",
"d 	c #808080",
"e 	c #1C1C1C",
"f 	c #454545",
"g 	c #5A5A5A",
"h 	c #161616",
"i 	c #E3E3E3",
"j 	c #888888",
"k 	c #5C5C5C",
"l 	c #868686",
"m 	c #2E2E2E",
"n 	c #D6D6D6",
"o 	c #0D0D0D",
"p 	c #838383",
"q 	c #AEAEAE",
"r 	c #CACACA",
"s 	c #696969",
"t 	c #DCDCDC",
"u 	c #404040",
"v 	c #EDEDED",
"w 	c #B4B4B4",
"x 	c #DADADA",
"y 	c #3D3D3D",
"z 	c #D4D4D4",
"A 	c #7E7E7E",
"B 	c #E0E0E0",
"C 	c #BABABA",
"D 	c #C5C5C5",
"E 	c #C1C1C1",
"F 	c #D7D7D7",
"G 	c #D1D1D1",
"H 	c #636363",
"I 	c #818181",
"J 	c #DEDEDE",
"K 	c #EAEAEA",
"L 	c #E6E6E6",
"M 	c #787878",
"N 	c #7D7D7D",
"O 	c #262626",
"P 	c #8B8B8B",
"Q 	c #969696",
"R 	c #B1B1B1",
"S 	c #A8A8A8",
"T 	c #A0A0A0",
"U 	c #585858",
"V 	c #656565",
"W 	c #E1E1E1",
"X 	c #CDCDCD",
"Y 	c #6D6D6D",
"Z 	c #BEBEBE",
"` 	c #9A9A9A",
" .	c #C0C0C0",
"..	c #686868",
"+.	c #C6C6C6",
"@.	c #353535",
"#.	c #F6F6F6",
"$.	c #898989",
"%.	c #D9D9D9",
"&.	c #A6A6A6",
"*.	c #C3C3C3",
"=.	c #BDBDBD",
"-.	c #515151",
";.	c #B8B8B8",
">.	c #5F5F5F",
",.	c #CFCFCF",
"'.	c #828282",
").	c #EFEFEF",
"!.	c #E5E5E5",
"~.	c #D2D2D2",
"{.	c #858585",
"].	c #9F9F9F",
"^.	c #383838",
"/.	c #6C6C6C",
"(.	c #F4F4F4",
"_.	c #DDDDDD",
":.	c #989898",
"<.	c #535353",
"[.	c #B0B0B0",
"}.	c #848484",
"|.	c #ADADAD",
"1.	c #727272",
"2.	c #D5D5D5",
"3.	c #B7B7B7",
"4.	c #B6B6B6",
"5.	c #A1A1A1",
"6.	c #B9B9B9",
"7.	c #797979",
"8.	c #707070",
"9.	c #949494",
"0.	c #DFDFDF",
"a.	c #C9C9C9",
"b.	c #979797",
"c.	c #9D9D9D",
"d.	c #D8D8D8",
"e.	c #CCCCCC",
"f.	c #3B3B3B",
"g.	c #A9A9A9",
"h.	c #ACACAC",
"i.	c #767676",
"j.	c #9B9B9B",
"k.	c #919191",
"l.	c #626262",
"m.	c #F3F3F3",
"n.	c #F7F7F7",
"o.	c #B5B5B5",
"p.	c #A4A4A4",
"q.	c #ECECEC",
"r.	c #4B4B4B",
"s.	c #8F8F8F",
"t.	c #878787",
"u.	c #4F4F4F",
"v.	c #8A8A8A",
"w.	c #565656",
"x.	c #8E8E8E",
"y.	c #E7E7E7",
"z.	c #BCBCBC",
"A.	c #F1F1F1",
"B.	c #F0F0F0",
"C.	c #4D4D4D",
"D.	c #F2F2F2",
"E.	c #F5F5F5",
"F.	c #F9F9F9",
"G.	c #A2A2A2",
"H.	c #494949",
"I.	c #9C9C9C",
"J.	c #959595",
"K.	c #E8E8E8",
"L.	c #ABABAB",
"M.	c #9E9E9E",
"                                                                                                                                                                                                                                                                                                                                                                                                                ",
"                                                                                                                                                                                                                                                                                                                                                                                                                ",
"                                                                  . +                                                 @                                                                                                             #                                                                                                           $ %                                                             ",
"                                &                                 * =                                                 - ;                                                                                                         > ,                                                                                                           ' )                                                             ",
"                  ! ~         { ]                                 ^ '                                                 / (                                                                             _ :                         < =                                                                     _ :                                   ' [                 _ :                                         ",
"                  } |         1 '                                 2 3                   4 #                           5 (                                                                             6 7                         8 9                                                                     6 7                                   0 a                 6 7                                         ",
"                    0 b       c d                   e       f     g )                 h i j       k l m               n (                     k l m           k l m     o                             p 0               k l m     q $         k l m                                           e ) m       p 0               k l m           ! r 0 s                 p 0                                         ",
"                    g t     u v       a w           x y     z A         2 B h         * C     h 3 D E F               G H     I J K }     h 3 D E F       h 3 D E F     L {     < M                   N '   O P Q   h 3 D E F     R S     h 3 D E F   4 x v T U             a w         0 V m G W W       N '   O P Q   h 3 D E F         l 5 = X Y                 N '   O P Q   a w                           ",
"                      Z `    .X     _ v ` G ..    ! +.    @.#.$.        ; %.&.      { | _     *.+   . =.              ' s   T r -.;.<     *.+   . =.      *.+   . =.    L >.  ^ C ,.              y '.=.).W !.~.{.  *.+   . =.    w ].    *.+   . =.    ^.B ].r ~.`       _ v ` G ..    z ) Z ! o p   y '.=.).W !.~.{.  *.+   . =.      /.x # O (.&             y '.=.).W !.~.{._ v ` G ..                      ",
"                      m _.t x T     :.z   q K <.  [.}.    |.~.2           % v e     . 8     d G &.G S                 +.! '.D     +.}.  d G &.G S       d G &.G S       n 1.h  .  2.            3.t  .$ x O       d G &.G S       4.`   d G &.G S         J     e 5.G ^.  :.z   q K <.  c T 6.      3.t  .$ x O       d G &.G S       e t <.  + _.7.          3.t  .$ x O       :.z   q K <.                    ",
"                          h ~.8.    x N     9.0.  ,.@.  # a.* b.            ~.c.    d.;     7 3 ) o     f             3 p d.{   y i h   7 3 ) o     f   7 3 ) o     f   , p ` d   t                   /.2.        7 3 ) o     f   6.Q   7 3 ) o     f     0.        + =.  x N     9.0.  e._.f.            /.2.        7 3 ) o     f   g.S     0 |.d                 /.2.        x N     9.0.                    ",
"                            K e   _ K         -   d.    6.8.h.].            i.!.  f 2.      v 4       ^.:             =.n j.    r k.    v 4       ^.:   v 4       ^.:   ;.b.E     i                   ~ %.        v 4       ^.:   9 1   v 4       ^.:     B         &.6._ K         -   r =.              ~ %.        v 4       ^.:   B {   l.Z g.P                 ~ %.      _ K         -                     ",
"                          4 ]     l.t       ~ _.  x   1.=.  < h.              t I @ h.      m.^.      =.g             6.n._   o.9       m.^.      =.g   m.^.      =.g   p.3 <     q.                  r.B         m.^.      =.g   =.s.  m.^.      =.g   8.i g d S F D { l.t       ~ _.  D t.              r.B         m.^.      =.g r.F     D u.h.b.                r.B       l.t       ~ _.                    ",
"                          j K     4 - _   U / M   J g 2.#   $.a.              v.z Z 8.      5 $   e o.q               4.,.w.G +.o       5 $   e o.q     5 $   e o.q     x.m.^.    (.                  o -         5 $   e o.q     6.*   5 $   e o.q     ' #., $ + {     4 - _   U / M    .Q               o -         5 $   e o.q   V x   . C   R &.                o -       4 - _   U / M                     ",
"                          h.y.      z.A.| i >     7 B.s     ^.(.C.              | 0.h       s L D.] 8                 /.v.E.|.          s L D.] 8       s L D.] 8       w.].    h F.                    q.r.      s L D.] 8       b ,   s L D.] 8         W               z.A.| i >     w G.                q.r.      s L D.] 8     h - ).n _   ` +                   q.r.      z.A.| i >                       ",
"                          g f.        ^.4         e m         /.h               9.x             O                       o f                 O               O                   h 3.                    H             O                     O             /                 ^.4         u.f                 H             O           u !                             H           ^.4                           ",
"                                                                                                                                                                                                                                                          | _                                                                                                                                                   ",
"                                                                                                                                                                                                                                                          W 4                                                                                                                                                   ",
"                                                                                                                                                                                                                                              #           >                                                                                                                                                     ",
"                                                                                                                                                            o c                                                                             > ,                                                                                                                                                                 ",
"                                                                                                                                                  _ :         ).o                                                                           < =                                                         _ :                                                                                                     ",
"                                                                                                                                                  6 7         | H.                                                                          8 9                                                         6 7                                                                                                     ",
"                                                                                                      h % o     o                                 p 0         x >.      I.}.            k l m           e ) m                               q $           h % o     o                     k l m         p 0                                                                                                     ",
"                                                                                                    ~ t 5  .    L {     < M       a w             N '   O P Q ~.Y     $ = y.^.      h 3 D E F     0 V m G W W           4 x v T U           R S         ~ t 5  .    L {     < M       h 3 D E F         N '   O P Q                                                                                             ",
"                                                                                                  } _.k   c     L >.  ^ C ,.    _ v ` G ..    y '.=.).W !.~.{.r i.  ~ +.  $ 1       *.+   . =.    z ) Z ! o p             ^.B ].r ~.`       w ].      } _.k   c     L >.  ^ C ,.      *.+   . =.    y '.=.).W !.~.{.                                                                                            ",
"                                                                                                f J g   <.n.o   n 1.h  .  2.    :.z   q K <.3.t  .$ x O       = 7.  r u.  J.q     d G &.G S       c T 6.                    J     e 5.G ^.  4.`     f J g   <.n.o   n 1.h  .  2.    d G &.G S     3.t  .$ x O                                                                                                   ",
"                                                                                                G p     D K.m   , p ` d   t     x N     9.0.      /.2.         .) ) 3     P 3.    7 3 ) o     f   e._.f.                    0.        + =.  6.Q     G p     D K.m   , p ` d   t     7 3 ) o     f       /.2.                                                                                                    ",
"                                                                                              k.D     k.S ~.H.  ;.b.E     i   _ K         -       ~ %.        9 N G k     + C     v 4       ^.:   r =.                      B         &.6.  9 1   k.D     k.S ~.H.  ;.b.E     i     v 4       ^.:       ~ %.                                                                                                    ",
"                                                                                              / r.  & ~.  2.k   p.3 <     q.  l.t       ~ _.      r.B         4.^ 7       k.z.    m.^.      =.g   D t.                    8.i g d S F D {   =.s.  / r.  & ~.  2.k   p.3 <     q.    m.^.      =.g       r.B                                                                                                     ",
"                                                                                            ..J   > t H.  F s   x.m.^.    (.  4 - _   U / M       o -         [.t I       ^ Z     5 $   e o.q      .Q                     ' #., $ + {       6.* ..J   > t H.  F s   x.m.^.    (.    5 $   e o.q         o -                                                                                                     ",
"                                                                                            <.#.q.c f     0 @   w.].    h F.    z.A.| i >           q.r.      L.K.        ]. .    s L D.] 8       w G.                      W               b , <.#.q.c f     0 @   w.].    h F.    s L D.] 8             q.r.                                                                                                  ",
"                                                                                              f ^.        { o           h 3.      ^.4               H         M.].        l ^         O           u.f                       /                     f ^.        { o           h 3.        O                 H                                                                                                     ",
"                                                                                                                                                                                                                            | _                                                                                                                                                                                 ",
"                                                                                                                                                                                                                            W 4                                                                                                                                                                                 ",
"                                                                                                                                                                                                                            >                                                                                                                                                                                   ",
"                                                                                                                                                                                                                                                                                                                                                                                                                ",
"                                                                                                                                                                                                                                                                                                                                                                                                                ",
"                                                                                                                                                                                                                                                                                                                                                                                                                ",
"                                                                                                                                                                                                                                                                                                                                                                                                                ",
"                                                                                                                                                                                                                                                                                                                                                                                                                "};
