/* XPM */
static char * Winner_xpm[] = {
"110 40 158 2",
"  	c #000000",
". 	c #7C7C7C",
"+ 	c #262626",
"@ 	c #424242",
"# 	c #FCFCFC",
"$ 	c #DDDDDD",
"% 	c #161616",
"& 	c #969696",
"* 	c #C6C6C6",
"= 	c #808080",
"- 	c #B3B3B3",
"; 	c #2E2E2E",
"> 	c #D6D6D6",
", 	c #DADADA",
"' 	c #EAEAEA",
") 	c #D0D0D0",
"! 	c #EEEEEE",
"~ 	c #C4C4C4",
"{ 	c #5F5F5F",
"] 	c #565656",
"^ 	c #585858",
"/ 	c #4F4F4F",
"( 	c #F3F3F3",
"_ 	c #B8B8B8",
": 	c #C0C0C0",
"< 	c #E0E0E0",
"[ 	c #3B3B3B",
"} 	c #B6B6B6",
"| 	c #626262",
"1 	c #6E6E6E",
"2 	c #606060",
"3 	c #FEFEFE",
"4 	c #5D5D5D",
"5 	c #929292",
"6 	c #BCBCBC",
"7 	c #0D0D0D",
"8 	c #9C9C9C",
"9 	c #EDEDED",
"0 	c #FFFFFF",
"a 	c #E5E5E5",
"b 	c #4D4D4D",
"c 	c #555555",
"d 	c #BFBFBF",
"e 	c #757575",
"f 	c #ECECEC",
"g 	c #E2E2E2",
"h 	c #F6F6F6",
"i 	c #AAAAAA",
"j 	c #F9F9F9",
"k 	c #A3A3A3",
"l 	c #CBCBCB",
"m 	c #5C5C5C",
"n 	c #858585",
"o 	c #CFCFCF",
"p 	c #EFEFEF",
"q 	c #707070",
"r 	c #8A8A8A",
"s 	c #222222",
"t 	c #939393",
"u 	c #515151",
"v 	c #686868",
"w 	c #A6A6A6",
"x 	c #BEBEBE",
"y 	c #C5C5C5",
"z 	c #FAFAFA",
"A 	c #9B9B9B",
"B 	c #474747",
"C 	c #DCDCDC",
"D 	c #323232",
"E 	c #F2F2F2",
"F 	c #727272",
"G 	c #4B4B4B",
"H 	c #8B8B8B",
"I 	c #EBEBEB",
"J 	c #B9B9B9",
"K 	c #F4F4F4",
"L 	c #717171",
"M 	c #B2B2B2",
"N 	c #E4E4E4",
"O 	c #3D3D3D",
"P 	c #888888",
"Q 	c #6C6C6C",
"R 	c #8F8F8F",
"S 	c #5A5A5A",
"T 	c #949494",
"U 	c #909090",
"V 	c #777777",
"W 	c #B1B1B1",
"X 	c #FDFDFD",
"Y 	c #535353",
"Z 	c #353535",
"` 	c #898989",
" .	c #1C1C1C",
"..	c #B7B7B7",
"+.	c #6A6A6A",
"@.	c #F5F5F5",
"#.	c #494949",
"$.	c #C2C2C2",
"%.	c #AFAFAF",
"&.	c #8D8D8D",
"*.	c #BBBBBB",
"=.	c #2A2A2A",
"-.	c #C7C7C7",
";.	c #878787",
">.	c #E6E6E6",
",.	c #D1D1D1",
"'.	c #D8D8D8",
").	c #CDCDCD",
"!.	c #7F7F7F",
"~.	c #A9A9A9",
"{.	c #797979",
"].	c #ACACAC",
"^.	c #B0B0B0",
"/.	c #CECECE",
"(.	c #D2D2D2",
"_.	c #9F9F9F",
":.	c #767676",
"<.	c #C1C1C1",
"[.	c #838383",
"}.	c #9E9E9E",
"|.	c #868686",
"1.	c #404040",
"2.	c #ABABAB",
"3.	c #A8A8A8",
"4.	c #F0F0F0",
"5.	c #8E8E8E",
"6.	c #454545",
"7.	c #D3D3D3",
"8.	c #C8C8C8",
"9.	c #989898",
"0.	c #8C8C8C",
"a.	c #FBFBFB",
"b.	c #E9E9E9",
"c.	c #C3C3C3",
"d.	c #ADADAD",
"e.	c #383838",
"f.	c #959595",
"g.	c #9D9D9D",
"h.	c #D7D7D7",
"i.	c #E1E1E1",
"j.	c #DBDBDB",
"k.	c #6D6D6D",
"l.	c #696969",
"m.	c #D4D4D4",
"n.	c #A5A5A5",
"o.	c #BDBDBD",
"p.	c #DFDFDF",
"q.	c #F8F8F8",
"r.	c #7E7E7E",
"s.	c #BABABA",
"t.	c #E7E7E7",
"u.	c #E3E3E3",
"v.	c #CACACA",
"w.	c #B4B4B4",
"x.	c #666666",
"y.	c #E8E8E8",
"z.	c #979797",
"A.	c #CCCCCC",
"                                                                                                                                                                                                                            ",
"                                                                                                                                                                                                                            ",
"                                                                                                                                                                                                                            ",
"                                                                                                                                                                                                                            ",
"                                                                                                                                                                                                                            ",
"                                                                                                                                                                                                                            ",
"                                                      . +                                                                                                                                                                   ",
"                                                    @ # $ %                                                                                                                         & *                                     ",
"                                                      = - ;                                                                                                                         > ,                                     ",
"                                                                                                                                                                                    ' )                                     ",
"                                                                                                                                                                                    ! ~                                     ",
"                                                        {                                                                     ] ^                         /                         ( _                                     ",
"                : < [             % ) }       | 1     2 3 4       5 6             7       5 6             7               8 9 3 0 a b       c d 7     e f 0 g ]                     h i                                     ",
"              i j 0 -             i 0 k       l 9     m 0 n       o p         q p a       o p         q p a             d ' r s q h k       t 0 u   v p w x 0 y                     z A                                     ",
"              1 B C !           D E 0 +       F 0 %   G 0 H       6 z       ; I J K L     6 z       ; I J K L         M N O     P z Q       R 0 m s a t     A S                     # T                                     ",
"                  U 0 V         W 3 X         Y z     Z 0 `       k 0  .    - ..  , 8     k 0  .    - ..  , 8       +.@.^   #.$.( U         P 0 4 %.l                               0 &.                                    ",
"                   .h *.      =.( -.0 B       Q E       3 ;.      &.0 #.  Z >.=.  ,.-     &.0 #.  Z >.=.  ,.-       '.l T ).K ~ u           !.0 1 ! b                             s 0 ;.                                    ",
"                    ).g       ~.h @ X {.      T <       z n       F 0 {   ].^.    /.:     F 0 {   ].^.    /.:     Y 3 p (._.O               :.0 <.J                               ; 0 [.                                    ",
"                    }.# ;   7 9 _   f k       ..$.      @.|.      G 0 V 7 >.1.    o -.    G 0 V 7 >.1.    o -.    2.z %               3.    q 0 4.@                                 # 5.                                    ",
"                    / 0 |.  5.j 6.  7.8.      C 9.      p 0.        a.0.R -.      (.l       a.0.R -.      (.l     -.b.              !.6     +.0 c.                                  9 }.                                    ",
"                      p ..  > y     d.I     D @.e.      b.f.        p g.h.F       '.).      p g.h.F       '.).    > a             % i.|     2 0 :.                                  *.A                                     ",
"                      (.j./ # v     k.0 l.  _.m.        < n.        g o.g         p.o       g o.g         p.o     (.K             *.-.      ] 0 :.                                                                          ",
"                      M q.W i.        b.y   N r.        > s.        m.h 3.        t.)       m.h 3.        t.)     W 0 8         n.9 #.      B 0 r                                                                           ",
"                      r 0 @.i         d.3 u.,           v.)         y q.1.        ! ,.      y q.1.        ! ,.    #.( X * k %.p.K l.        s 0 A                                   8 M                                     ",
"                      B 0 X b         =.t.K 4           w.N         { v           K ,.      { v           K ,.      x.j.X 0 z ,.m             @.k                                   ~ a..                                   ",
"                        I j.            =.@             x.i                       y.M                     y.M           D Y  .                z./                                   / A.A                                   ",
"                        { x.                                                                                                                                                                                                ",
"                                                                                                                                                                                                                            ",
"                                                                                                                                                                                                                            ",
"                                                                                                                                                                                                                            ",
"                                                                                                                                                                                                                            ",
"                                                                                                                                                                                                                            ",
"                                                                                                                                                                                                                            ",
"                                                                                                                                                                                                                            ",
"                                                                                                                                                                                                                            ",
"                                                                                                                                                                                                                            ",
"                                                                                                                                                                                                                            ",
"                                                                                                                                                                                                                            ",
"                                                                                                                                                                                                                            ",
"                                                                                                                                                                                                                            "};
