/* XPM */
static char * Preview_green_xpm[] = {
"64 76 300 2",
"  	c None",
". 	c #658301",
"+ 	c #678600",
"@ 	c #668401",
"# 	c #638101",
"$ 	c #688701",
"% 	c #688702",
"& 	c #688700",
"* 	c #638100",
"= 	c #648109",
"- 	c #668407",
"; 	c #658300",
"> 	c #607D01",
", 	c #627F01",
"' 	c #54832F",
") 	c #49A74C",
"! 	c #45AF52",
"~ 	c #4BBA58",
"{ 	c #4CC860",
"] 	c #4AC35E",
"^ 	c #48BF5B",
"/ 	c #668402",
"( 	c #688601",
"_ 	c #526A02",
": 	c #5C811B",
"< 	c #56B75E",
"[ 	c #52D668",
"} 	c #54D769",
"| 	c #53D769",
"1 	c #53D768",
"2 	c #4ECB62",
"3 	c #47BA59",
"4 	c #648202",
"5 	c #538A2F",
"6 	c #4DC961",
"7 	c #50D265",
"8 	c #48B559",
"9 	c #648201",
"0 	c #658201",
"a 	c #50A345",
"b 	c #53D568",
"c 	c #51D366",
"d 	c #678601",
"e 	c #668501",
"f 	c #50AC4C",
"g 	c #52D667",
"h 	c #3FA951",
"i 	c #6B890B",
"j 	c #4CA549",
"k 	c #51D567",
"l 	c #3B9F4B",
"m 	c #668405",
"n 	c #678602",
"o 	c #52A948",
"p 	c #52D768",
"q 	c #52D567",
"r 	c #3FA750",
"s 	c #5C7701",
"t 	c #51A445",
"u 	c #4AC25D",
"v 	c #4AC15D",
"w 	c #50D165",
"x 	c #628004",
"y 	c #5D9630",
"z 	c #50D065",
"A 	c #30863E",
"B 	c #737373",
"C 	c #2A2A2A",
"D 	c #123E19",
"E 	c #43AF54",
"F 	c #4ECD63",
"G 	c #627F00",
"H 	c #648103",
"I 	c #637F06",
"J 	c #65793E",
"K 	c #53C55D",
"L 	c #54D869",
"M 	c #55D86A",
"N 	c #242A24",
"O 	c #FDFDFD",
"P 	c #CBCBCB",
"Q 	c #000000",
"R 	c #000100",
"S 	c #3A9D4A",
"T 	c #698802",
"U 	c #53A042",
"V 	c #4CC760",
"W 	c #171717",
"X 	c #EFEFEF",
"Y 	c #D5D5D5",
"Z 	c #656565",
"` 	c #707070",
" .	c #010802",
"..	c #40AB51",
"+.	c #617E01",
"@.	c #638917",
"#.	c #51D165",
"$.	c #0A0A0A",
"%.	c #0C0C0C",
"&.	c #E4E4E4",
"*.	c #F7F7F7",
"=.	c #393939",
"-.	c #2E803B",
";.	c #4ECC62",
">.	c #678501",
",.	c #57AC48",
"'.	c #50D064",
").	c #E7E7E7",
"!.	c #FFFFFF",
"~.	c #6F6F6F",
"{.	c #16461D",
"].	c #53D868",
"^.	c #43B255",
"/.	c #50C55D",
"(.	c #113C18",
"_.	c #939393",
":.	c #CACACA",
"<.	c #2D2D2D",
"[.	c #07220B",
"}.	c #50CF64",
"|.	c #608A1E",
"1.	c #53D668",
"2.	c #338C42",
"3.	c #43060B",
"4.	c #330306",
"5.	c #872622",
"6.	c #638000",
"7.	c #5BA43F",
"8.	c #B43831",
"9.	c #CB2533",
"0.	c #B01E2B",
"a.	c #C72432",
"b.	c #E82B3C",
"c.	c #9B5A36",
"d.	c #55B751",
"e.	c #8F6F3C",
"f.	c #D32635",
"g.	c #EB2C3D",
"h.	c #D02635",
"i.	c #4BA54F",
"j.	c #3CA14C",
"k.	c #50CA60",
"l.	c #41AD53",
"m.	c #42AE53",
"n.	c #48BE5B",
"o.	c #638002",
"p.	c #4FCE63",
"q.	c #729646",
"r.	c #5E9C36",
"s.	c #54D768",
"t.	c #5DA740",
"u.	c #51D466",
"v.	c #4CC65F",
"w.	c #678503",
"x.	c #5FB147",
"y.	c #4DCA61",
"z.	c #4DCB62",
"A.	c #4DC860",
"B.	c #5FB047",
"C.	c #5BAD47",
"D.	c #48BD5B",
"E.	c #648102",
"F.	c #5CA94A",
"G.	c #45B858",
"H.	c #4FCF64",
"I.	c #4DC960",
"J.	c #62AA53",
"K.	c #56AA47",
"L.	c #55D76A",
"M.	c #4ABF5C",
"N.	c #52D466",
"O.	c #59B54E",
"P.	c #41A84F",
"Q.	c #88C440",
"R.	c #59C158",
"S.	c #51D265",
"T.	c #54BF57",
"U.	c #51D266",
"V.	c #A4C311",
"W.	c #C0E101",
"X.	c #B1D005",
"Y.	c #A7D129",
"Z.	c #9CC72E",
"`.	c #9BC82F",
" +	c #79A42D",
".+	c #4EBF5F",
"++	c #678403",
"@+	c #658404",
"#+	c #81BC3F",
"$+	c #C0E202",
"%+	c #C1E202",
"&+	c #9AB503",
"*+	c #628001",
"=+	c #5D922D",
"-+	c #59BE56",
";+	c #BED801",
">+	c #C0DD01",
",+	c #A0B801",
"'+	c #4DCB61",
")+	c #52AF4D",
"!+	c #52D467",
"~+	c #A4C617",
"{+	c #C0E002",
"]+	c #BFDA01",
"^+	c #C0DB02",
"/+	c #BFDC01",
"(+	c #AECB01",
"_+	c #64860F",
":+	c #52D065",
"<+	c #81BE3F",
"[+	c #ACC902",
"}+	c #56B557",
"|+	c #54BE58",
"1+	c #BED802",
"2+	c #C0DA01",
"3+	c #B9D201",
"4+	c #A4C410",
"5+	c #C0DD02",
"6+	c #BADB02",
"7+	c #4FD064",
"8+	c #81B637",
"9+	c #BCD401",
"0+	c #50D266",
"a+	c #70BC4A",
"b+	c #C0DC01",
"c+	c #BFDB02",
"d+	c #B7D503",
"e+	c #4BC55F",
"f+	c #58BE56",
"g+	c #B0CF02",
"h+	c #4DC45F",
"i+	c #4AC35D",
"j+	c #44B557",
"k+	c #54C264",
"l+	c #4BC65F",
"m+	c #B7D602",
"n+	c #C0E102",
"o+	c #A6BA02",
"p+	c #A7C005",
"q+	c #C0DE02",
"r+	c #C0D901",
"s+	c #A9C602",
"t+	c #9DC425",
"u+	c #8FB92A",
"v+	c #BEDC02",
"w+	c #87B535",
"x+	c #B4CF02",
"y+	c #81B93A",
"z+	c #ACCA02",
"A+	c #7BB943",
"B+	c #A0B302",
"C+	c #4ECE63",
"D+	c #78BC45",
"E+	c #53D667",
"F+	c #82C043",
"G+	c #B7D202",
"H+	c #96C734",
"I+	c #A9C601",
"J+	c #4FCF63",
"K+	c #ABCA05",
"L+	c #4ECA61",
"M+	c #76B647",
"N+	c #A3BC01",
"O+	c #49C05C",
"P+	c #51C55D",
"Q+	c #9CBA0D",
"R+	c #52D366",
"S+	c #4ECD62",
"T+	c #84AB2D",
"U+	c #4BC35E",
"V+	c #4DCA62",
"W+	c #48A44A",
"X+	c #4DC861",
"Y+	c #46B758",
"Z+	c #47BB59",
"`+	c #46B858",
" @	c #48BD5A",
".@	c #86D38F",
"+@	c #60D471",
"@@	c #87CC8F",
"#@	c #7EC386",
"$@	c #5DCF6E",
"%@	c #4FCA62",
"&@	c #79C382",
"*@	c #F0F1F0",
"=@	c #B0D6B4",
"-@	c #E8EAE8",
";@	c #95CB9B",
">@	c #F2F2F2",
",@	c #EBEDEB",
"'@	c #8BC291",
")@	c #EEF0EE",
"!@	c #96C39B",
"~@	c #ECECEC",
"{@	c #91BD96",
"]@	c #E9E9E9",
"^@	c #ADCEB0",
"/@	c #68946D",
"(@	c #E6E6E6",
"_@	c #85B38A",
"                                                                                                                                ",
"                                                                                                                                ",
"                                                                                                                                ",
"                                                                      . + @                                                     ",
"                                                                    # $ % $ $ .                                                 ",
"                                                                    $ $ $ $ & $ *                                               ",
"                                                                  = $ % $ $ $ $ .                                               ",
"                                                                  - $ $ $ $ $ $ ;                                               ",
"                                                                  > $ $ , ' ) ! ~ { ] ^                                         ",
"                                                        / % ( (   _ $ : < [ } | } } 1 | | 1 2 3                                 ",
"                                                      $ $ $ $ % $ 4 5 6 } } | 1 1 1 1 1 1 | 1 1 7 8                             ",
"                                                    9 $ $ % $ $ 0 a b } 1 1 1 1 1 1 1 1 1 1 1 1 1 1 c                           ",
"                                                    d $ $ $ $ e f | 1 1 1 1 1 1 1 1 1 1 1 1 1 1 | 1 1 g h                       ",
"                                                    i $ & $ e j 1 1 1 1 1 1 1 1 1 1 1 1 1 1 1 1 1 } 1 1 k l                     ",
"                                                    m $ $ n o 1 1 1 1 1 1 1 1 1 1 p 1 1 1 1 p } 1 1 1 1 1 q r                   ",
"                                                    s $ $ t } 1 p 1 1 1 1 1 1 1 1 1 1 1 1 p } q u v w 1 1 1 q                   ",
"                                                      x y z } 1 1 1 p 1 1 1 1 1 1 1 1 1 1 1 } A B C D E 1 1 1 F                 ",
"                                              . G H I J K L 1 p 1 1 1 1 1 1 1 1 1 1 1 } M } w N O P Q R S 1 1 1 ]               ",
"                                          @ $ $ $ T $ U } 1 1 1 p 1 1 p 1 1 1 1 1 1 1 1 | 1 V W X Y Z `  .u p 1 1 ..            ",
"                                        +.& T $ $ $ @.#.1 1 1 1 1 1 1 1 1 1 1 1 1 1 1 1 } 1 V Q $.%.&.*.=.-.1 1 1 ;.            ",
"                                        >.$ $ $ $ $ ,.} 1 1 1 1 1 1 1 1 1 p 1 p 1 1 1 1 1 | '.Q Q Q ).!.~.{.].1 1 1 ^.          ",
"                                        $ T $ $ $ d /.1 1 1 1 1 1 1 1 1 1 1 1 1 1 1 1 1 1 1 1 (.Q Q _.:.<.[.].1 p 1 }.          ",
"                                        >.$ $ & $ |.1.1 1 1 1 1 1 1 1 1 1 1 1 1 1 1 p p 1 } 1 2.3.Q Q Q 4.5.q 1 1 1 1           ",
"                                        6.$ $ $ $ 7.1 1 1 1 1 1 1 1 1 1 1 1 1 1 1 1 1 1 1 1 1 2 8.9.0.a.b.c.1 1 1 1 1           ",
"                                          > >.T $ d.L 1 1 1 1 1 1 1 1 p 1 1 1 1 1 1 1 1 1 } 1 p u e.f.g.h.i.1 1 1 1 1 j.        ",
"                                              9 d k.L 1 1 1 1 1 1 1 1 1 1 1 1 1 1 1 1 1 | 1 1 1 1 1 { l.m.q 1 p 1 1 1 n.        ",
"                                            $ $ o.p.1 1 p 1 1 1 1 1 1 1 p 1 1 1 1 1 1 1 1 1 1 1 1 1 1 1 1 1 1 1 1 1 p           ",
"                                          >.$ $ q.7 | 1 1 1 1 1 p 1 1 1 1 1 p 1 1 1 1 1 L 1 1 1 1 1 1 1 1 1 1 1 1 1 1           ",
"                                        > $ & $ r.p s.1 1 1 1 1 1 1 1 p 1 1 1 1 1 1 1 1 1 1 1 1 1 1 1 1 1 1 1 1 1 1 g           ",
"                                        n $ $ $ t.1 } 1 1 1 1 1 1 1 1 1 1 1 1 1 1 1 1 1 | 1 1 1 u.#.1 1 p 1 1 1.v.q }.          ",
"                                        w.$ $ $ x.1 1 1 1 1 1 1 1 1 1 1 1 1 p 1 1 1 1 1 p 1 1 1 1 y.V 6 z.y.V 6 p 1 A.          ",
"                                        >.$ T $ B.L 1 1 1 1 1 1 1 1 1 1 q p 1 1 1 1 } 1 1 1 1 1 1 1 1 1 1 1 1 1 1 c             ",
"                                        # $ % $ C.1 1 s.p 1 1 1 1 1 1 1 1 D.q 1 1 1 } 1 1 1 p p 1 1 1 1 1 1 1 1 1               ",
"                                          E.@ ( F.1 1 1 1 1 1 1 1 1 1 p 1 [ G.H.1 1 1 1 1 1 1 1 1 1 1 1 1 1 1 p I.              ",
"                                          0 +.( J.} 1 | 1 1 1 1 1 1 1 1 1 1 ].v.V 1 1 1 1 1 1 1 1 1 1 1 1 1 p ;.                ",
"                                        >.& $ $ K.L 1 L.1 1 1 1 1 1 1 1 1 1 1 1 y.M.6 p 1 1 1 1 1 1 1 1 1 N.3                   ",
"                                      , $ $ $ $ O.1 1 1 1 1 1 1 1 1 1 1 1 1 1 1 1 1 P.Q.R.S.1 1 1 u.1 q y.                      ",
"                                      @ $ $ $ % T.} } 1 1 1 1 1 1 p 1 1 1 1 1 1 1 1 U.V.W.X.Y.Z.`. +                            ",
"        .+                            ++$ $ $ @+#.1 1 } 1 1 1 1 1 1 1 1 1 1 1 1 1 1 } #+$+$+$+%+$+&+                            ",
"        2                             *+$ T % =+1 } 1 1 1 1 1 1 1 1 1 1 1 1 1 1 1 1 1 -+;+>+$+$+$+,+                            ",
"        '+y.                          0 $ $ $ )+1 1 1 1 1 1 1 p 1 1 1 1 1 1 1 1 1 1 1 !+~+{+]+^+/+(+                            ",
"        A.1                             # & _+:+1 } 1 1 1 1 1 1 1 1 1 1 1 1 1 1 1 1 1 L <+$+%+$+%+[+                            ",
"        D.1 p.                              }+} 1 } 1 1 1 1 1 1 1 1 1 1 1 1 1 1 1 1 1 1 |+1+{+$+2+3+                            ",
"          1 1 V                             b 1 1 1 1 1 1 1 1 1 p 1 1 1 1 1 1 1 1 1 1 } q 4+5+2+{+6+                            ",
"          1 1 1 7+                        q 1 1 1 1 1 1 1 1 1 1 1 1 1 1 1 1 1 1 1 1 1 1 1 8+%+$+$+9+                            ",
"          1 1 | 1 S.                    0+} 1 1 1 1 1 1 1 1 p p 1 1 1 1 1 1 1 1 1 1 1 1 1 a+^+b+c+d+                            ",
"          1 | | 1 1 1.e+              c 1 } 1 1 1 1 1 1 1 1 1 p 1 1 1 1 1 1 1 1 1 1 1 1 1 f+$+$+$+g+                            ",
"          1 1 1 1 p 1 1 g h+n.i+j+k+1.s.} p 1 1 1 1 p 1 p 1 1 1 1 1 1 1 1 1 1 1 1 1 1 1 1 l+m+$+n+o+                            ",
"          p.1 } 1 1 1 1 1 1 1 1 1 1 | p 1 1 1 1 1 1 1 p 1 1 1 1 p 1 1 1 1 1 1 p 1 1 1 1 1 1 p+q+r+s+                            ",
"          p.1 1 1 1 1 1 1 1 1 | } 1 1 1 1 1 1 1 1 1 1 1 1 1 1 1 1 1 1 1 1 1 1 1 1 1 1 1 1 1 t+$+$+                              ",
"          p.1 1 } 1 1 1 1 1 | 1 p p 1 1 1 1 1 1 1 1 1 1 1 1 1 1 1 1 1 1 1 1 1 1 1 1 1 1 1 1 u+%+v+                              ",
"            1 1 } 1 1 1 1 | 1 1 1 1 1 1 1 1 1 1 1 1 1 1 1 1 1 1 1 1 p 1 1 1 1 1 1 1 1 1 1 1 w+]+x+                              ",
"            S.1 1 1 1 1 1 1 1 1 1 1 1 1 1 1 1 1 1 1 1 1 1 1 1 p 1 1 1 1 1 1 1 1 1 1 1 1 1 1 y+%+z+                              ",
"              1 } 1 p 1 1 1 1 1 1 1 1 p 1 1 1 1 1 1 1 1 1 1 1 1 1 1 1 1 1 1 1 1 1 1 1 1 } 1 A+b+B+                              ",
"              C+1 1 1 1 1 1 1 1 1 1 1 1 1 1 1 1 1 1 1 1 1 1 1 1 1 1 p 1 1 1 1 1 1 1 1 1 | 1 D+$+                                ",
"                E+| 1 1 1 p 1 1 1 1 p p 1 1 1 1 1 1 1 1 p 1 1 1 1 1 1 1 1 1 p 1 1 1 1 1 1 1 F+G+                                ",
"                V 1 1 1 1 1 1 1 1 p 1 1 1 p p 1 1 1 1 1 1 1 1 1 1 1 1 1 1 1 1 1 1 1 1 1 1 1 H+I+                                ",
"                  J+1 1 1 1 1 1 1 1 1 1 p 1 1 1 1 1 1 1 1 1 1 1 1 1 1 1 1 1 1 1 1 1 1 1 1 p.K+                                  ",
"                    L+1 1 } 1 1 1 1 1 1 1 1 1 1 1 1 1 1 1 1 1 1 1 1 1 1 1 1 1 1 1 1 1 1 1 M+N+                                  ",
"                      O+1 1 } 1 } 1 1 1 1 1 1 1 1 } 1 } 1 1 1 1 p 1 1 1 1 1 1 1 1 1 1 1 P+Q+                                    ",
"                          g 1 1 1 L 1 1 1 1 1 1 R+1 1 1 1 1 1 1 1 S+g 1 1 1 1 1 p 1 1 q T+                                      ",
"                            w 1 1 1 1 1 1 1 1 1 U+1 1 1 1 | 1 1 1 V+g 1 1 1 1 1 1 !+1 W+                                        ",
"                                F c 1 1 s.} | 1 A.1 1 1 1 | 1 1 1 y.[ 1 1 1 1 s.1 6 y.                                          ",
"                                    p 1 1 1 1 s.X+1 p 1 1 1 1 s.1 2 w s.1 1 1 1 1                                               ",
"                                    1 1 1 1 p 1 Y+V 6 L+Z+`+y.g q V U+1 1 1 1 1 1                                               ",
"                                    1 1 1 1 1 1 ^                   2 1 1 1 1 1 1                                               ",
"                                    1 1 1 1 1 1  @                  z.1 1 1 1 1 1                                               ",
"                                    ].1 1 1 1 1 D.                    1 1 1 1 1 1                                               ",
"                                    z 1 p 1 1 1                       S.1 1 1 1 1                                               ",
"                                    v..@+@U.E+@@                      ] #@$@%@z &@                                              ",
"                                      *@=@-@;@>@                        ,@'@)@!@~@                                              ",
"                                        {@]@^@                            /@(@_@                                                ",
"                                                                                                                                ",
"                                                                                                                                ",
"                                                                                                                                ",
"                                                                                                                                "};
