/* XPM */
static char * Preview_red_xpm[] = {
"64 75 321 2",
"  	c None",
". 	c #688601",
"+ 	c #688701",
"@ 	c #628000",
"# 	c #698701",
"$ 	c #688700",
"% 	c #678601",
"& 	c #688501",
"* 	c #698801",
"= 	c #638000",
"- 	c #668301",
"; 	c #678501",
"> 	c #776B15",
", 	c #BF422F",
"' 	c #DD3C42",
") 	c #E52C3B",
"! 	c #E92C3C",
"~ 	c #E72B3B",
"{ 	c #E12A3A",
"] 	c #E52A3A",
"^ 	c #CE2634",
"/ 	c #678600",
"( 	c #678500",
"_ 	c #5E7903",
": 	c #677F03",
"< 	c #BF4D39",
"[ 	c #F93041",
"} 	c #FC3142",
"| 	c #FC3143",
"1 	c #FC3243",
"2 	c #FC3042",
"3 	c #E72C3C",
"4 	c #C62432",
"5 	c #726F11",
"6 	c #DB3837",
"7 	c #FC3041",
"8 	c #E62D3D",
"9 	c #C32331",
"0 	c #6A8802",
"a 	c #8F651C",
"b 	c #F1383E",
"c 	c #E82C3C",
"d 	c #597400",
"e 	c #9B6420",
"f 	c #F82F41",
"g 	c #536B01",
"h 	c #6A8801",
"i 	c #8A6720",
"j 	c #F42F40",
"k 	c #FC3244",
"l 	c #FB3041",
"m 	c #FD3042",
"n 	c #DF2A39",
"o 	c #586F08",
"p 	c #6A880E",
"q 	c #946D1D",
"r 	c #F32F3F",
"s 	c #E32A3A",
"t 	c #627F04",
"u 	c #77760F",
"v 	c #F63040",
"w 	c #FD3142",
"x 	c #CD2534",
"y 	c #C42431",
"z 	c #D62736",
"A 	c #DB2838",
"B 	c #668102",
"C 	c #E13F39",
"D 	c #B5202D",
"E 	c #8C8C8C",
"F 	c #818181",
"G 	c #000000",
"H 	c #8B1620",
"I 	c #F22E3F",
"J 	c #FA2F41",
"K 	c #648101",
"L 	c #668401",
"M 	c #B1664F",
"N 	c #6B0E16",
"O 	c #E7E7E7",
"P 	c #F6F6F6",
"Q 	c #080808",
"R 	c #701018",
"S 	c #F72F40",
"T 	c #607D00",
"U 	c #698700",
"V 	c #7A7B0F",
"W 	c #F32E3F",
"X 	c #580A10",
"Y 	c #ABABAB",
"Z 	c #D0D0D0",
"` 	c #7B7B7B",
" .	c #BABABA",
"..	c #171717",
"+.	c #B9202D",
"@.	c #DC2938",
"#.	c #C85731",
"$.	c #590A11",
"%.	c #C9C9C9",
"&.	c #FFFFFF",
"*.	c #8B8B8B",
"=.	c #50080E",
"-.	c #6F8008",
";.	c #FD3143",
">.	c #79121B",
",.	c #BEBEBE",
"'.	c #9E9E9E",
").	c #E22A3A",
"!.	c #A26C22",
"~.	c #A51C28",
"{.	c #2A2A2A",
"].	c #9F9F9F",
"^.	c #2E2E2E",
"/.	c #E82B3C",
"(.	c #FA3041",
"_.	c #CD5432",
":.	c #DF2B3A",
"<.	c #85141E",
"[.	c #3D0509",
"}.	c #5D0C12",
"|.	c #A81D29",
"1.	c #ED2C3D",
"2.	c #EB363C",
"3.	c #BF222F",
"4.	c #DD2938",
"5.	c #F42E3F",
"6.	c #B41F2C",
"7.	c #D02635",
"8.	c #688600",
"9.	c #7C7B10",
"0.	c #FB3042",
"a.	c #D22736",
"b.	c #C02230",
"c.	c #BC212F",
"d.	c #AF1F2B",
"e.	c #CB2533",
"f.	c #A76624",
"g.	c #FA3142",
"h.	c #DA2837",
"i.	c #638100",
"j.	c #B5652B",
"k.	c #E02A39",
"l.	c #CA6030",
"m.	c #D64D36",
"n.	c #FD3243",
"o.	c #FA3042",
"p.	c #F72F41",
"q.	c #E7463A",
"r.	c #EA2C3C",
"s.	c #F92F40",
"t.	c #ED2D3E",
"u.	c #F92F41",
"v.	c #EE2D3D",
"w.	c #E7393D",
"x.	c #EF2D3E",
"y.	c #EC2D3D",
"z.	c #EC2C3D",
"A.	c #EB2D3D",
"B.	c #EC2F3F",
"C.	c #E53A3C",
"D.	c #EF2E3F",
"E.	c #F12D3F",
"F.	c #E5383B",
"G.	c #F83142",
"H.	c #D52837",
"I.	c #FB3143",
"J.	c #607C02",
"K.	c #E5393C",
"L.	c #D62837",
"M.	c #F62F41",
"N.	c #D92837",
"O.	c #E4393D",
"P.	c #E62B3B",
"Q.	c #F63041",
"R.	c #CF2634",
"S.	c #627F01",
"T.	c #F23741",
"U.	c #D12635",
"V.	c #DF4039",
"W.	c #EB2C3D",
"X.	c #6B8403",
"Y.	c #F73141",
"Z.	c #A7A615",
"`.	c #B4BC13",
" +	c #CA9828",
".+	c #DB7E34",
"++	c #DF6D38",
"@+	c #DA5A35",
"#+	c #D35C33",
"$+	c #E92D3D",
"%+	c #D42938",
"&+	c #8F7419",
"*+	c #CA722E",
"=+	c #C0E101",
"-+	c #C0E201",
";+	c #C1E202",
">+	c #A3C001",
",+	c #E93443",
"'+	c #BA5F2B",
")+	c #EB2E3E",
"!+	c #B6CD02",
"~+	c #A9C701",
"{+	c #F02E3F",
"]+	c #E52B3B",
"^+	c #DA3D38",
"/+	c #B5AD19",
"(+	c #C0DB01",
"_+	c #BFD901",
":+	c #BFDC01",
"<+	c #AEC601",
"[+	c #EA2E3E",
"}+	c #F32F40",
"|+	c #617E00",
"1+	c #887516",
"2+	c #CD742F",
"3+	c #C1E302",
"4+	c #B4D301",
"5+	c #E32C3C",
"6+	c #E12C3C",
"7+	c #658101",
"8+	c #D35135",
"9+	c #B5D102",
"0+	c #BDD401",
"a+	c #DE2B3A",
"b+	c #FB3243",
"c+	c #BAAB1C",
"d+	c #C0DC01",
"e+	c #BFDA01",
"f+	c #C0E001",
"g+	c #F83041",
"h+	c #F73041",
"i+	c #C1722B",
"j+	c #C0DF01",
"k+	c #D72F37",
"l+	c #F52F41",
"m+	c #F02E3E",
"n+	c #B3CB01",
"o+	c #B5D501",
"p+	c #E0313F",
"q+	c #CC2A38",
"r+	c #D22B3A",
"s+	c #ADBE0E",
"t+	c #B4D201",
"u+	c #B9A120",
"v+	c #B3CA01",
"w+	c #F12F40",
"x+	c #C19226",
"y+	c #A9C703",
"z+	c #EE2E3E",
"A+	c #C2812A",
"B+	c #9CB402",
"C+	c #EB2D3E",
"D+	c #CB6B2F",
"E+	c #C0DA01",
"F+	c #CC5232",
"G+	c #C1E201",
"H+	c #BADB01",
"I+	c #E92E3E",
"J+	c #D43A35",
"K+	c #AEC301",
"L+	c #F73343",
"M+	c #D63736",
"N+	c #A4C101",
"O+	c #E22C3C",
"P+	c #D84136",
"Q+	c #D87732",
"R+	c #B5CF01",
"S+	c #F93042",
"T+	c #BDA021",
"U+	c #ED3C3C",
"V+	c #A8C204",
"W+	c #EF3040",
"X+	c #AF901F",
"Y+	c #EB2E3F",
"Z+	c #F23041",
"`+	c #CF5F31",
" @	c #98AA01",
".@	c #EE2F40",
"+@	c #E92B3C",
"@@	c #7B800A",
"#@	c #E92D3E",
"$@	c #F93142",
"%@	c #EE2F3F",
"&@	c #EA2F3F",
"*@	c #BE222F",
"=@	c #D72C3A",
"-@	c #F52E3F",
";@	c #DD2A3A",
">@	c #EE2D3E",
",@	c #F03140",
"'@	c #E02C3B",
")@	c #F22F40",
"!@	c #F62F40",
"~@	c #E12939",
"{@	c #F33242",
"]@	c #EA787C",
"^@	c #F82F40",
"/@	c #F3535C",
"(@	c #E6666C",
"_@	c #EC4953",
":@	c #E36D72",
"<@	c #F52D3F",
"[@	c #E46167",
"}@	c #D02634",
"|@	c #CD9698",
"1@	c #D48B8D",
"2@	c #EFE8E8",
"3@	c #E39C9E",
"4@	c #E6E6E6",
"5@	c #CFB8B9",
"6@	c #EDD6D7",
"7@	c #E2B2B3",
"8@	c #E7C2C3",
"9@	c #EFE0E0",
"0@	c #CC8D8F",
"a@	c #EFEFEF",
"b@	c #CA7175",
"c@	c #B99FA0",
"d@	c #D6C2C2",
"e@	c #D5B9BA",
"f@	c #D4A8A9",
"                                                                                                                                ",
"                                                                                                                                ",
"                                                                                                                                ",
"                                                                        . + @                                                   ",
"                                                                      # # $ # %                                                 ",
"                                                                    & * * + * $ .                                               ",
"                                                                    # + # # # * #                                               ",
"                                                                    # # # # . = -                                               ",
"                                                                    . # ; > , ' ) ! ~ { ] ^                                     ",
"                                                        / . ; / (   _ : < [ } | } 1 | | | 2 2 3 4                               ",
"                                                      ; # $ # $ $ # 5 6 2 | 2 2 2 2 2 2 2 } 2 } 7 8 9                           ",
"                                                      # # # 0 * # a b 2 | 7 2 2 } 2 2 2 2 2 2 2 } 2 2 c                         ",
"                                                    d $ $ # $ * e f 1 | 2 2 2 2 2 2 2 2 2 2 2 2 } 2 2 2 ~                       ",
"                                                    g # h # * i j k 2 2 2 2 2 2 l 2 m 2 7 2 2 2 } m 2 2 2 n                     ",
"                                                    o p # # q r | 2 2 2 7 2 2 2 2 2 2 2 2 2 2 2 | 1 } 2 2 2 s                   ",
"                                                      t $ u v | 2 2 2 2 2 7 2 2 2 2 2 m m 2 w 2 x y z 2 2 2 2 A                 ",
"                                                        B C 2 } 2 2 2 2 m 2 l 2 m m m 2 2 7 2 D E F G H I m 2 J                 ",
"                                              K L ; L L M 2 | 2 2 2 2 2 2 2 2 m 2 2 2 2 m 2 } N O P Q G R S 2 2 I               ",
"                                          T $ $ # U # V W 2 2 2 m 2 2 2 2 2 2 2 2 2 7 2 m 2 2 X Y Z `  ...+.m 7 2 @.            ",
"                                          + # # # $ # #.2 } 7 2 2 2 2 } 2 2 2 2 2 m 2 m 7 2 2 $.G G %.&.*.=.2 2 2 J             ",
"                                          # # * # # -.S ;.2 2 l 7 2 2 m 2 2 2 m 2 m 2 2 2 2 } >.G G ,.&.'.G W 2 1 2 ).          ",
"                                          # h # # $ !.2 | m m 2 2 2 2 2 2 2 2 2 2 m 2 2 2 2 2 ~.G G {.].^.G /.2 } 2 (.          ",
"                                          $ $ # $ # _.1 2 2 2 2 2 w 2 7 2 2 2 2 2 2 2 2 2 2 2 :.<.[.G G }.|.1.| 2 } }           ",
"                                          K # # # . 2.| m 7 2 2 2 2 2 2 2 2 2 2 2 2 2 2 2 2 2 | 3.4.n 5.l 6.} } 2 | 2 7.        ",
"                                              L 8.9.0.| 2 2 2 2 2 2 2 2 m 2 m 2 2 2 2 2 2 7 2 2 | a.b.c.d.e.} 7 2 } 2 @.        ",
"                                              ; K f.} } 2 2 2 2 2 2 2 l 2 l 2 2 2 2 2 2 7 2 2 2 l | 2 g.W 2 2 2 2 } l h.        ",
"                                            i.* $ j.| } 2 m 2 2 2 2 2 2 m 2 2 2 2 2 2 2 2 2 2 2 2 2 2 m 2 2 m 2 2 | m k.        ",
"                                          = * * # l.| 2 7 2 2 m 2 2 2 2 7 m 2 2 2 2 2 2 2 7 2 2 2 2 2 2 2 7 2 2 } 2 2           ",
"                                          . U $ $ m.| 2 2 2 2 2 2 2 2 2 7 2 2 2 2 2 2 m m 2 7 2 2 | n.| 2 2 | | o.2 p.          ",
"                                          $ # U # q.2 2 2 2 7 2 2 2 m 2 2 2 2 2 m m 2 2 2 2 2 2 } r.s.2 2 2 2 t.3 u.v.          ",
"                                          # $ $ # w.m 2 2 2 2 2 2 2 2 2 2 2 2 2 2 2 2 7 l 2 2 2 | | x.y.z.A.B.(.| 2             ",
"                                          + # # * C.2 m 2 2 2 ;.2 2 2 2 2 D.2 m 2 2 2 2 2 2 2 2 2 2 } | | } m 2 | E.            ",
"                                          - # # * F.m 2 2 2 2 2 2 2 m 2 2 G.H.I.} m 2 2 2 2 2 2 2 2 2 2 2 7 2 } g.              ",
"                                            J.J.; K.2 2 2 2 2 2 2 7 2 2 7 2 o.L.M.2 2 2 7 2 2 2 2 2 7 2 2 2 | } N.              ",
"                                          ( # # * O.2 2 2 2 2 2 2 2 2 2 2 2 2 k P.r.o.2 2 2 2 m 2 2 2 2 2 ;.Q.R.                ",
"                                        S.* * # % T.2 2 2 2 2 2 2 2 2 2 2 2 2 2 | I U.V.0.2 2 2 2 2 2 } | W.                    ",
"                                        ; # # # X.Y.2 2 2 2 2 2 2 7 2 2 2 2 2 2 2 } 0.Z.`. +.+++@+#+$+1.                        ",
"          %+                            # * $ # &+} 2 2 2 2 2 2 2 7 2 m 2 2 2 2 2 m | *+=+-+;+-+-+>+                            ",
"          ,+                            * U # # '+} 2 2 2 2 2 2 2 2 2 2 2 2 2 m 2 2 2 )+!+-+;+=+-+~+                            ",
"          {+]+                          # + # . ^+} 2 2 2 2 2 2 2 2 2 2 2 2 2 2 2 m 2 | /+(+_+:+(+<+                            ",
"          [+}+                          |+$ # 1+0.2 2 2 2 2 2 2 2 2 2 2 2 2 2 2 2 l 2 } 2+-+3+-+-+4+                            ",
"          5+2 6+                            7+8+m 2 2 2 7 2 m 2 2 2 7 2 2 2 2 2 2 2 2 w ! 9+-+-+-+0+                            ",
"          a+2 [                               b+2 2 2 2 2 2 2 2 2 2 2 2 2 2 2 2 2 2 2 | 2 c+(+d+e+f+                            ",
"            2 2 g+                          h+l 2 7 2 2 2 2 7 2 2 2 2 7 2 7 2 2 2 2 } 2 2 i+-+-+-+j+                            ",
"            2 2 2 0.                      Q.| m m 2 2 m 7 2 2 2 2 7 2 2 2 2 2 2 2 2 2 2 2 k+=+-+d+_+                            ",
"            2 2 2 2 2 I                 l+1 2 } 2 2 2 2 2 2 2 2 2 2 2 2 } 2 2 2 2 2 2 w } m+n+(+f+o+                            ",
"            2 2 2 2 2 2 0.p+q+      r+h+7 2 2 7 2 2 2 2 2 2 2 2 2 2 2 2 2 2 2 2 2 2 2 2 } 0.s+-+-+t+                            ",
"            p.2 w m 2 m 2 2 0.} | | m 7 2 2 2 2 2 2 2 2 2 7 2 2 2 m 2 2 2 2 2 7 2 7 2 2 1 2 u+(+(+v+                            ",
"            w+2 2 2 2 2 2 2 2 2 2 2 2 2 2 2 2 2 2 2 2 m 7 2 2 2 2 2 2 2 2 2 2 2 m m 2 2 m m x+-+-+y+                            ",
"            z+7 2 2 2 2 2 2 2 2 2 2 2 2 2 2 2 2 2 2 2 m 2 2 2 2 2 2 2 2 2 m m 2 2 7 2 2 2 2 A+;+-+B+                            ",
"            C+2 7 } 2 2 2 2 2 2 2 2 2 m 2 m m 2 2 2 2 2 2 m m } 2 m 2 2 2 2 2 2 2 2 7 2 } 2 D+e+E+                              ",
"              0.2 2 2 2 2 2 2 2 m 2 2 2 2 2 2 2 2 m 2 2 2 2 2 2 2 2 2 m 2 m 2 2 2 2 2 2 1 2 F+G+H+                              ",
"              I+2 2 2 2 2 2 2 2 2 7 w m 7 2 7 m 2 2 2 w 2 2 2 2 } 2 2 2 2 2 2 2 2 2 2 2 ;.2 J+d+K+                              ",
"                L+2 2 2 2 7 2 2 2 7 2 2 2 2 2 2 2 2 2 7 2 2 2 2 } w l 2 2 2 2 2 2 2 2 2 } 2 M+G+N+                              ",
"                O+2 2 2 2 2 2 2 2 2 m 2 2 2 2 2 2 2 2 7 2 2 2 2 2 m 2 m 2 m 2 2 2 7 2 2 } 2 P+-+                                ",
"                  }+2 2 m 7 2 2 2 2 2 2 2 2 2 2 2 2 2 2 2 2 2 7 2 2 2 2 2 2 2 2 2 2 m 2 2 2 Q+R+                                ",
"                    S+2 2 2 2 2 7 2 2 2 2 2 2 2 2 m 2 m 2 2 m 2 2 2 2 2 7 2 7 2 2 2 2 | 2 2 T+N+                                ",
"                      j 2 2 2 2 2 2 2 2 2 2 2 7 2 2 2 2 2 m 2 2 2 2 } | 2 7 2 2 2 2 2 | 2 U+V+                                  ",
"                        W+l 2 2 2 2 2 2 2 2 2 2 2 m 2 2 2 2 2 7 2 2 } 2 2 2 2 2 2 7 | m 0.X+                                    ",
"                          Y+} 2 2 m 7 2 m 2 | } 0.2 2 2 2 2 2 2 } | Z+2 } w 2 7 2 | } 2 `+ @                                    ",
"                            s g.2 2 2 2 7 2 2 l W.2 2 2 2 w 2 2 2 ;..@2 | 2 m 2 2 2 2 +@@@                                      ",
"                                #@$@$@2 2 2 w 7 $+(.2 2 2 2 2 2 2 2 %@2 2 | 1 | 2 &@[ *@                                        ",
"                                    =@2 l 2 2 2 z+-@2 2 2 2 7 2 2 2 &@2 7 2 2 2 2 ;@                                            ",
"                                    @.2 2 m 2 2 j ]+5.u.S >@,@} 2 } '@2 2 2 2 2 2 $+                                            ",
"                                    A 2 2 w 2 7 M.                    2 2 2 2 2 m 5.                                            ",
"                                      2 2 2 2 2 o.                    2 2 2 2 2 2 -@                                            ",
"                                      l m 2 ;.2 S+                    )@2 2 2 2 m W                                             ",
"                                      2 2 2 2 2 !@                    ]+l 2 2 2 2 ~@                                            ",
"                                      {@]@2 ^@/@(@                      _@:@h+<@[@}@                                            ",
"                                      |@&.1@2@3@4@                      5@6@7@8@9@                                              ",
"                                          0@a@b@                          c@d@e@f@                                              ",
"                                                                                                                                ",
"                                                                                                                                ",
"                                                                                                                                ",
"                                                                                                                                "};
