/* XPM */
static char * Preview_blue_xpm[] = {
"64 76 319 2",
"  	c None",
". 	c #658202",
"+ 	c #688601",
"@ 	c #668400",
"# 	c #648102",
"$ 	c #698702",
"% 	c #688701",
"& 	c #658301",
"* 	c #648101",
"= 	c #64810B",
"- 	c #698701",
"; 	c #668305",
"> 	c #668301",
", 	c #607C01",
"' 	c #627F01",
") 	c #4E6E6C",
"! 	c #2D6ABB",
"~ 	c #1E69CA",
"{ 	c #2170D6",
"] 	c #1474E9",
"^ 	c #1370E0",
"/ 	c #126CDA",
"( 	c #126FDE",
"_ 	c #668304",
": 	c #688501",
"< 	c #526A04",
"[ 	c #5A7847",
"} 	c #3C76D0",
"| 	c #167EFA",
"1 	c #187FFB",
"2 	c #177FFB",
"3 	c #177EFB",
"4 	c #167EFB",
"5 	c #1476ED",
"6 	c #116BD6",
"7 	c #658209",
"8 	c #4C7079",
"9 	c #1676EB",
"0 	c #157AF4",
"a 	c #1E69D0",
"b 	c #638101",
"c 	c #658300",
"d 	c #3E71AC",
"e 	c #177DF8",
"f 	c #157BF6",
"g 	c #1065CC",
"h 	c #688602",
"i 	c #678501",
"j 	c #3771BB",
"k 	c #167DF9",
"l 	c #0F61C4",
"m 	c #6A8805",
"n 	c #668501",
"o 	c #346DB5",
"p 	c #167DF8",
"q 	c #0D5BB9",
"r 	c #668405",
"s 	c #678602",
"t 	c #3E74B4",
"u 	c #0F60C1",
"v 	c #5B7701",
"w 	c #3E72AD",
"x 	c #1371E2",
"y 	c #627F04",
"z 	c #567D7C",
"A 	c #1579F2",
"B 	c #094C9D",
"C 	c #737373",
"D 	c #2A2A2A",
"E 	c #02214A",
"F 	c #1066CD",
"G 	c #1477EF",
"H 	c #648003",
"I 	c #627E07",
"J 	c #64783C",
"K 	c #2D7AE0",
"L 	c #167BF4",
"M 	c #23252D",
"N 	c #FDFDFD",
"O 	c #CBCBCB",
"P 	c #000000",
"Q 	c #000002",
"R 	c #0D5BB8",
"S 	c #1370E1",
"T 	c #4373A5",
"U 	c #1374E8",
"V 	c #171717",
"W 	c #EFEFEF",
"X 	c #D5D5D5",
"Y 	c #656565",
"Z 	c #707070",
"` 	c #00020B",
" .	c #617D02",
"..	c #618144",
"+.	c #187BF3",
"@.	c #1575E8",
"#.	c #0A0A0A",
"$.	c #0D0D0D",
"%.	c #E4E4E4",
"&.	c #F7F7F7",
"*.	c #393939",
"=.	c #094895",
"-.	c #1477ED",
";.	c #678502",
">.	c #457AB3",
",.	c #167AF3",
"'.	c #E7E7E7",
").	c #FFFFFF",
"!.	c #6F6F6F",
"~.	c #032552",
"{.	c #688600",
"].	c #2477E3",
"^.	c #021F48",
"/.	c #929292",
"(.	c #CACACA",
"_.	c #2D2D2D",
":.	c #010F2A",
"<.	c #1578EF",
"[.	c #5D7E55",
"}.	c #167DFA",
"|.	c #0B50A4",
"1.	c #42060A",
"2.	c #340406",
"3.	c #851B31",
"4.	c #638001",
"5.	c #688700",
"6.	c #4E7CA0",
"7.	c #1576EC",
"8.	c #B22846",
"9.	c #CB2433",
"0.	c #AF1E2B",
"a.	c #C82432",
"b.	c #E92B3C",
"c.	c #9A376C",
"d.	c #5F7B01",
"e.	c #3B79C8",
"f.	c #197FFB",
"g.	c #8A4283",
"h.	c #D22635",
"i.	c #EA2B3C",
"j.	c #CF2534",
"k.	c #2E60C1",
"l.	c #0E5CBB",
"m.	c #638002",
"n.	c #678601",
"o.	c #2179E9",
"p.	c #1475EA",
"q.	c #1064CB",
"r.	c #1066CC",
"s.	c #187EF9",
"t.	c #126DDB",
"u.	c #1478F0",
"v.	c #126EDD",
"w.	c #708C67",
"x.	c #137BF5",
"y.	c #607D02",
"z.	c #567F89",
"A.	c #678503",
"B.	c #507FA1",
"C.	c #167CF7",
"D.	c #187CF4",
"E.	c #1474E8",
"F.	c #1476EB",
"G.	c #678406",
"H.	c #5083B0",
"I.	c #1476EC",
"J.	c #126FE0",
"K.	c #688503",
"L.	c #157BF5",
"M.	c #627F00",
"N.	c #4A7DB0",
"O.	c #627F05",
"P.	c #668401",
"Q.	c #4D7CAC",
"R.	c #1579F1",
"S.	c #1372E5",
"T.	c #617E01",
"U.	c #5680AC",
"V.	c #1475E9",
"W.	c #4579B0",
"X.	c #126FDF",
"Y.	c #167CF8",
"Z.	c #116AD6",
"`.	c #447DBF",
" +	c #1762C3",
".+	c #80A5A0",
"++	c #3C7CD6",
"@+	c #658302",
"#+	c #357AD5",
"$+	c #167BF5",
"%+	c #A3C134",
"&+	c #C0E202",
"*+	c #B1D014",
"=+	c #A4C56B",
"-+	c #9ABA72",
";+	c #98B978",
">+	c #749174",
",+	c #166FDD",
"'+	c #678404",
")+	c #658310",
"!+	c #799C9E",
"~+	c #C1E202",
"{+	c #99B403",
"]+	c #627F03",
"^+	c #567B75",
"/+	c #3E7BD2",
"(+	c #BED902",
"_+	c #C0DD02",
":+	c #C0E102",
"<+	c #9FB702",
"[+	c #1475EB",
"}+	c #3A74BD",
"|+	c #A3C243",
"1+	c #C1E002",
"2+	c #C0D902",
"3+	c #C0DA02",
"4+	c #C0DB02",
"5+	c #ABC802",
"6+	c #1473E6",
"7+	c #638332",
"8+	c #1C7BF2",
"9+	c #7A9F9E",
"0+	c #A7C302",
"a+	c #1478EF",
"b+	c #3E77C7",
"c+	c #3476D7",
"d+	c #BED802",
"e+	c #C0E002",
"f+	c #C1E302",
"g+	c #BFD902",
"h+	c #B1C902",
"i+	c #176FDE",
"j+	c #A3C133",
"k+	c #C0DC02",
"l+	c #B3D302",
"m+	c #7A9C8D",
"n+	c #B2C901",
"o+	c #628DB7",
"p+	c #ADCA03",
"q+	c #1370E2",
"r+	c #3C7BD2",
"s+	c #ABC902",
"t+	c #1472E4",
"u+	c #136FDF",
"v+	c #1069D2",
"w+	c #1A71E0",
"x+	c #177EFA",
"y+	c #1374E7",
"z+	c #B7D602",
"A+	c #A2B502",
"B+	c #1477EE",
"C+	c #1A80FB",
"D+	c #A7BF13",
"E+	c #BFDD02",
"F+	c #BFD802",
"G+	c #A5C103",
"H+	c #9BBA63",
"I+	c #8CAB6F",
"J+	c #BEDD02",
"K+	c #829F87",
"L+	c #B3CE02",
"M+	c #7A9E93",
"N+	c #AAC702",
"O+	c #7194A7",
"P+	c #C0DC01",
"Q+	c #9EAF02",
"R+	c #6E96AB",
"S+	c #799DA9",
"T+	c #B7D003",
"U+	c #1373E6",
"V+	c #92B485",
"W+	c #A6C301",
"X+	c #1578F0",
"Y+	c #ACCA12",
"Z+	c #6989B2",
"`+	c #A3BC01",
" @	c #126EDC",
".@	c #187EFA",
"+@	c #2677E3",
"@@	c #9DB92B",
"#@	c #177EF9",
"$@	c #7F9975",
"%@	c #157AF2",
"&@	c #1372E4",
"*@	c #2F68B8",
"=@	c #1678EE",
"-@	c #167CF6",
";@	c #1577ED",
">@	c #157BF4",
",@	c #0F60C4",
"'@	c #126DDC",
")@	c #146DD8",
"!@	c #126DDA",
"~@	c #1373E7",
"{@	c #779AED",
"]@	c #3C83F5",
"^@	c #177BF5",
"/@	c #7A99E4",
"(@	c #1371E3",
"_@	c #708FDB",
":@	c #3A80F0",
"<@	c #1877EC",
"[@	c #6A8CDC",
"}@	c #F1F1F1",
"|@	c #AAB8E5",
"1@	c #E7E8EC",
"2@	c #8CA2DF",
"3@	c #F2F2F2",
"4@	c #EAEBEE",
"5@	c #8298D6",
"6@	c #EEEFF1",
"7@	c #8FA1D4",
"8@	c #ECECEC",
"9@	c #8B9CCF",
"0@	c #E8E8E8",
"a@	c #A7B3DB",
"b@	c #6073A5",
"c@	c #E6E6E6",
"d@	c #778CC3",
"                                                                                                                                ",
"                                                                                                                                ",
"                                                                                                                                ",
"                                                                      . + @                                                     ",
"                                                                    # $ $ % $ &                                                 ",
"                                                                    $ % $ % % % *                                               ",
"                                                                  = % $ $ - $ % &                                               ",
"                                                                  ; - - $ - % % >                                               ",
"                                                                  , $ % ' ) ! ~ { ] ^ / (                                       ",
"                                                        _ + + :   < % [ } | 1 1 2 3 4 4 4 4 5 6                                 ",
"                                                      % % % $ % - 7 8 9 4 3 4 4 4 4 4 4 4 3 4 4 0 a                             ",
"                                                    b - % % $ $ c d e 3 3 4 4 4 4 4 4 4 4 4 2 4 4 4 f g                         ",
"                                                    h % % % - i j 4 4 4 4 4 4 4 4 4 4 4 4 4 4 4 2 2 4 k l                       ",
"                                                    m % $ - n o 3 4 4 4 4 4 4 4 4 4 4 4 4 4 4 4 3 1 2 4 p q                     ",
"                                                    r - % s t | 3 4 4 4 4 4 4 4 4 4 4 4 4 4 4 1 4 4 4 4 4 k u                   ",
"                                                    v $ % w 4 2 4 4 4 4 4 4 4 4 4 4 4 4 4 4 3 p x x 0 4 4 4 p                   ",
"                                                      y z A 2 4 4 4 4 4 4 4 4 4 4 4 4 4 4 4 3 B C D E F 4 4 4 G                 ",
"                                              # ' H I J K 3 4 4 4 4 4 4 4 4 4 4 4 4 4 4 4 4 L M N O P Q R 4 4 4 S               ",
"                                          & - $ $ % $ T 4 2 4 4 4 4 4 4 4 4 4 4 4 4 4 4 4 4 U V W X Y Z ` x 4 4 4 l             ",
"                                         .- % - $ $ ..+.3 3 4 4 4 4 4 4 4 4 4 4 4 4 4 4 4 4 @.P #.$.%.&.*.=.4 4 4 -.            ",
"                                        ;.% % $ - - >.4 3 4 4 4 4 4 4 4 4 4 4 4 4 4 4 4 4 4 ,.P P P '.).!.~.4 4 4 4 F           ",
"                                        - $ % % $ {.].4 3 4 4 4 4 4 4 4 4 4 4 4 4 4 4 4 4 4 3 ^.P P /.(._.:.4 4 4 4 <.          ",
"                                        i - $ $ $ [.}.1 4 4 4 4 4 4 4 4 4 4 4 4 4 4 4 4 4 4 4 |.1.P P P 2.3.k 4 2 4 4           ",
"                                        4.5.% % - 6.4 3 4 4 4 4 4 4 4 4 4 4 4 4 4 4 4 4 4 4 2 7.8.9.0.a.b.c.4 2 4 4 4           ",
"                                          d.;.% % e.3 4 4 4 4 4 4 4 4 4 4 4 4 4 4 4 4 4 4 4 4 f.x g.h.i.j.k.1 4 1 1 4 l.        ",
"                                              m.n.o.3 4 4 4 4 4 4 4 4 4 4 4 4 4 4 4 4 4 4 4 4 3 4 4 p.q.r.s.4 1 2 3 3 t.        ",
"                                            h - m.u.1 4 4 4 4 4 4 4 4 4 4 4 4 4 4 4 4 4 4 4 4 4 2 4 2 3 2 4 4 4 4 4 4 v.        ",
"                                          i $ - w.x.4 4 4 4 4 4 4 4 4 4 4 4 4 4 4 4 4 4 4 2 3 1 3 2 4 4 4 4 4 4 4 4 3           ",
"                                        y.- - - z.4 4 4 4 4 4 4 4 4 4 4 4 4 4 4 4 4 4 4 4 4 4 4 4 3 1 4 4 4 4 4 4 4 k           ",
"                                        A.% - $ B.3 4 4 4 4 4 4 4 4 4 4 4 4 4 4 4 4 4 4 4 4 4 4 C.D.4 4 4 4 4 | E.p F.          ",
"                                        G.$ % % H.4 3 4 4 4 4 4 4 4 4 4 4 4 4 4 4 4 4 4 4 4 4 4 2 I.] F.-.I.E.F.4 4 J.          ",
"                                        K.% % $ H.4 3 4 4 4 4 4 4 4 4 4 p 4 4 4 4 4 4 4 4 4 1 3 4 4 4 4 4 3 4 4 3 L.            ",
"                                        M.$ $ $ N.4 2 4 4 4 4 4 4 4 4 4 | v.p 4 4 4 4 4 4 4 2 4 4 4 4 4 4 3 2 3 1               ",
"                                          O.P.h Q.4 4 4 4 4 4 4 4 4 4 4 4 | 6 R.4 4 4 4 4 4 4 4 4 4 4 4 4 4 4 4 S.              ",
"                                          ' T.+ U.4 3 4 4 4 4 4 4 4 4 4 4 4 4 E.V.4 4 4 4 4 4 4 4 4 4 4 4 4 4 p.                ",
"                                        n % % % W.4 2 4 4 4 4 4 4 4 4 4 4 4 4 4 I.X.9 4 4 4 2 4 4 4 3 4 4 Y.Z.                  ",
"                                       .- - % % `.4 4 4 4 4 4 4 4 4 4 4 4 4 4 4 4 3  +.+++L.4 4 4 p 4 Y.p.                      ",
"                                      @+- $ - % #+4 4 4 4 4 4 4 4 4 4 4 4 4 4 4 4 4 $+%+&+*+=+-+;+>+                            ",
"        ,+                            '+- - $ )++.3 4 4 4 4 4 4 4 4 4 4 4 4 4 4 4 4 3 !+&+~+~+&+&+{+                            ",
"        5                             ]+$ $ % ^+4 3 4 4 4 4 4 4 4 4 4 4 4 4 4 4 4 4 4 /+(+_+~+:+&+<+                            ",
"        V.[+                          m.% - $ }+4 4 4 4 4 4 4 4 4 4 4 4 4 4 4 4 4 4 4 C.|+1+2+3+4+5+                            ",
"        6+4                             T.% 7+8+3 4 4 4 4 4 4 4 4 4 4 4 4 4 4 4 4 4 4 4 9+~+&+~+&+0+                            ",
"        t.4 a+                              b+4 3 4 4 4 4 4 4 4 4 4 4 4 4 4 4 4 4 4 4 3 c+d+e+f+g+h+                            ",
"        i+4 4 S.                            Y.4 4 4 4 4 4 4 4 4 4 4 4 4 4 4 4 4 4 4 4 4 k j+k+3+:+l+                            ",
"          4 4 4 a+                        Y.1 4 4 4 4 4 4 4 4 4 4 4 4 4 4 4 4 4 4 4 4 4 4 m+~+~+&+n+                            ",
"          4 4 1 4 A                     $+3 4 4 4 4 4 4 4 4 4 4 4 4 4 4 4 4 4 4 4 4 4 4 4 o+4+k+4+p+                            ",
"          4 4 4 4 4 }.q+              $+4 4 4 4 4 4 4 4 4 4 4 4 4 4 4 4 4 4 4 4 4 4 4 4 4 r+&+&+:+s+                            ",
"          | 4 2 4 4 4 4 }.t+/ u+v+w+x+4 4 4 4 4 4 4 4 4 4 4 4 4 4 4 4 4 4 4 4 4 4 4 4 4 3 y+z+~+~+A+                            ",
"          B+2 4 4 f.4 2 1 C+1 4 1 3 4 4 4 4 4 4 4 4 4 4 4 4 4 4 4 4 4 4 4 4 4 4 4 4 4 4 4 | D+E+F+G+                            ",
"          B+f.4 4 4 4 4 4 4 4 4 4 4 4 4 4 4 4 4 4 4 4 4 4 4 4 4 4 4 4 4 4 4 4 4 4 4 4 4 4 4 H+&+~+                              ",
"          [+1 4 4 4 4 4 4 4 4 4 4 4 4 4 4 4 4 4 4 4 4 4 4 4 4 4 4 4 4 4 4 4 4 4 4 4 4 4 4 3 I+&+J+                              ",
"            4 4 4 4 4 4 4 4 4 4 4 4 4 4 4 4 4 4 4 4 4 4 4 4 4 4 4 4 4 4 4 4 4 4 4 4 4 4 4 4 K+4+L+                              ",
"            L 3 4 4 4 4 4 4 4 4 4 4 4 4 4 4 4 4 4 4 4 4 4 4 4 4 4 4 4 4 4 4 4 4 4 4 4 4 4 2 M+&+N+                              ",
"            t.2 4 4 4 4 4 4 4 4 4 4 4 4 4 4 4 4 4 4 4 4 4 4 4 4 4 4 4 4 4 4 4 4 4 4 4 4 4 3 O+P+Q+                              ",
"              B+4 4 4 4 4 4 4 4 4 4 4 4 4 4 4 4 4 4 4 4 4 4 4 4 4 4 4 4 4 4 4 4 4 4 4 4 4 4 R+&+                                ",
"                k 2 4 4 4 4 4 4 4 4 4 4 4 4 4 4 4 4 4 4 4 4 4 4 4 4 4 4 4 4 4 4 4 4 4 4 4 3 S+T+                                ",
"                U+4 4 4 4 4 4 4 4 4 4 4 4 4 4 4 4 4 4 4 4 4 4 4 4 4 4 4 4 4 4 4 4 4 4 4 4 4 V+W+                                ",
"                  G 3 4 4 4 4 4 4 4 4 4 4 4 4 4 4 4 4 4 4 4 4 4 4 4 4 4 4 4 4 4 4 4 4 4 4 X+Y+                                  ",
"                    E.1 4 4 4 4 4 4 4 4 4 4 4 4 4 4 4 4 4 4 4 4 4 4 4 4 4 4 4 4 4 4 4 4 4 Z+`+                                  ",
"                       @.@4 4 4 4 4 4 4 4 4 4 4 4 4 4 4 4 4 4 4 4 4 4 4 4 4 4 4 4 4 4 4 +@@@                                    ",
"                          #@3 4 4 4 4 4 4 4 4 4 L.4 4 4 4 4 4 4 4 a+}.4 4 4 4 4 4 4 4 e $@                                      ",
"                            %@2 4 4 4 4 4 4 4 4 &@4 4 4 4 4 4 4 4 I.}.4 4 4 4 4 4 C.2 *@                                        ",
"                                =@-@4 4 4 4 4 4 V.4 4 4 4 4 4 4 4 I.}.4 4 4 4 4 4 9 V.                                          ",
"                                    3 3 4 4 4 3 p.4 4 4 4 4 3 3 4 ;@>@4 4 4 4 3 4 ,@                                            ",
"                                    4 4 3 4 1 4 Z.U I.B+'@)@I.}.k E.&@3 1 2 1 4 4                                               ",
"                                    4 4 4 4 4 4 v.                  p.4 4 4 4 4 4                                               ",
"                                    4 4 4 4 4 4 t.                  ] 4 4 4 4 4 4                                               ",
"                                    4 4 4 4 4 4 !@                    4 4 4 4 4 4                                               ",
"                                    A 4 4 4 4 4                       L.4 4 4 4 4                                               ",
"                                    ~@{@]@^@k /@                      (@_@:@<@0 [@                                              ",
"                                      }@|@1@2@3@                        4@5@6@7@8@                                              ",
"                                        9@0@a@                            b@c@d@                                                ",
"                                                                                                                                ",
"                                                                                                                                ",
"                                                                                                                                ",
"                                                                                                                                "};
