/* XPM */
static char * n_xpm[] = {
"46 47 174 2",
"  	c None",
". 	c #FFFFFF",
"+ 	c #FDFFFF",
"@ 	c #F05A26",
"# 	c #F15A24",
"$ 	c #F25A26",
"% 	c #F05B23",
"& 	c #F15B24",
"* 	c #F5916C",
"= 	c #EE3425",
"- 	c #ED1B24",
"; 	c #F04D25",
"> 	c #FEF7F6",
", 	c #F15A25",
"' 	c #ED1B23",
") 	c #ED2225",
"! 	c #F15A23",
"~ 	c #F25926",
"{ 	c #FFFEFF",
"] 	c #FFFFFE",
"^ 	c #FEFEFE",
"/ 	c #F47B51",
"( 	c #ED1C25",
"_ 	c #D51218",
": 	c #F35A22",
"< 	c #EE1C24",
"[ 	c #ED1C24",
"} 	c #F15626",
"| 	c #F8A88B",
"1 	c #F15B22",
"2 	c #B30507",
"3 	c #EC1C23",
"4 	c #B30506",
"5 	c #8CC640",
"6 	c #F15B23",
"7 	c #F25925",
"8 	c #EB1C24",
"9 	c #8EC53F",
"0 	c #8CC63E",
"a 	c #E56625",
"b 	c #F9B8A1",
"c 	c #B20405",
"d 	c #F05B24",
"e 	c #D7131A",
"f 	c #8CC53E",
"g 	c #F05A23",
"h 	c #D71219",
"i 	c #E41921",
"j 	c #F13B25",
"k 	c #FDE0D7",
"l 	c #F05A25",
"m 	c #FFFEFE",
"n 	c #EE1C26",
"o 	c #E31820",
"p 	c #EB1C23",
"q 	c #FEFFFF",
"r 	c #EF4A23",
"s 	c #8BC53E",
"t 	c #F25A24",
"u 	c #EE2A24",
"v 	c #8DC53E",
"w 	c #F05924",
"x 	c #B30306",
"y 	c #B40406",
"z 	c #B40506",
"A 	c #ED1C23",
"B 	c #F25824",
"C 	c #FFFFFC",
"D 	c #B30406",
"E 	c #ED1B25",
"F 	c #DB722B",
"G 	c #FDFFFD",
"H 	c #EE1F23",
"I 	c #8AC63F",
"J 	c #F15924",
"K 	c #F15925",
"L 	c #ED1C22",
"M 	c #EE1B24",
"N 	c #B20406",
"O 	c #F25D29",
"P 	c #F25A23",
"Q 	c #EC1B24",
"R 	c #EC1C25",
"S 	c #B30305",
"T 	c #DD6F2A",
"U 	c #FEFFFE",
"V 	c #F15425",
"W 	c #E91A22",
"X 	c #AF180C",
"Y 	c #FDEBE3",
"Z 	c #EC1C22",
"` 	c #E91A23",
" .	c #BC070A",
"..	c #988B2E",
"+.	c #A3AE3A",
"@.	c #FDF0EB",
"#.	c #EE1C25",
"$.	c #DF161D",
"%.	c #B20305",
"&.	c #B30407",
"*.	c #8CC63F",
"=.	c #F25A22",
"-.	c #B20507",
";.	c #8AC63D",
">.	c #8BC63E",
",.	c #8BC63F",
"'.	c #ED2522",
").	c #B40407",
"!.	c #F25924",
"~.	c #FFFFFD",
"{.	c #EF5C24",
"].	c #EF5B24",
"^.	c #D31117",
"/.	c #B30405",
"(.	c #F25623",
"_.	c #F15E2A",
":.	c #ED1F21",
"<.	c #EE1C23",
"[.	c #FCD7CB",
"}.	c #F05A24",
"|.	c #B20504",
"1.	c #F4794D",
"2.	c #EC1D25",
"3.	c #DE161D",
"4.	c #FCCCBC",
"5.	c #F25A25",
"6.	c #F15923",
"7.	c #EE1B22",
"8.	c #D8141A",
"9.	c #B40306",
"0.	c #CB2414",
"a.	c #C0080C",
"b.	c #E3181E",
"c.	c #B10505",
"d.	c #F68E68",
"e.	c #C90E12",
"f.	c #EC1C24",
"g.	c #EB511F",
"h.	c #B50807",
"i.	c #CA0D12",
"j.	c #ED1B22",
"k.	c #D02C15",
"l.	c #B20506",
"m.	c #F15B25",
"n.	c #F26230",
"o.	c #EB8730",
"p.	c #FFE768",
"q.	c #B20404",
"r.	c #FFE769",
"s.	c #FBB03A",
"t.	c #FBB13B",
"u.	c #F9B13B",
"v.	c #FCB13C",
"w.	c #FCAF3B",
"x.	c #FBB03B",
"y.	c #FCB03C",
"z.	c #ED9031",
"A.	c #E9862E",
"B.	c #F35925",
"C.	c #FEE567",
"D.	c #B30505",
"E.	c #FBB039",
"F.	c #FDCC53",
"G.	c #B20606",
"H.	c #FFE867",
"I.	c #F9B13A",
"J.	c #F9B139",
"K.	c #FCB03B",
"L.	c #FAB03B",
"M.	c #F6A081",
"N.	c #FEFEFF",
"O.	c #F69976",
"P.	c #DFE1E7",
"Q.	c #E0E2E8",
"                                                                                            ",
"                . . . . . . . . . . .           . . . . . +                                 ",
"              . . . . . . . . . . . . .       . . . . . . . . . . . . .                     ",
"              . . @ # # # # # # # $ . . .   . . % & * . . . . . . . . . . . .               ",
"              . . = - - - - - - - ; > . .     . , - ' ) ! , , ~ # { ] . . . . . ^           ",
"              . / ( - - _ ( - - - - : . . . . . , - - - - - - - < [ } # , | . . . .         ",
"            . . 1 - - - 2 2 2 - - - 3 % . . . . , - - - - - - - - - - 2 4 5 6 7 . . .       ",
"            . . , - - - 2 2 2 2 - - - # . . . . , - - - - - - - - - 8 2 9 0 0 a b . .       ",
"            . . , - - - c 2 2 2 - - - [ d . . . , - - - - - - - - - e 2 f 0 0 0 # . . .     ",
"            . . g - - - - h i - - - - - j k . . l - - - - - - - - - c 2 0 0 0 0 , . . .     ",
"            . m n - - o p - - - - - - - - , q . r - - - - - - - - - 4 2 0 s 0 0 t . . .     ",
"          . . & 3 - - 2 2 - - - - - - - - ' # . u - - - - - - - - - 2 2 0 0 v , m . .       ",
"          . . w - - - x y - z 2 - - - - - - & q A - - - - - - - - - 2 2 B 7 w . . . C       ",
"          . . , - - - - - - D D - - - - - - E , [ - - - - - - - - - 2 2 0 0 F # . . G       ",
"          . . , - - - - - - - - - - - - - - - - [ - - - - - - - - - 2 2 0 0 0 l . . .       ",
"          . . H - - - - - - - - - - - - - - - - 3 - - - - - - - - - 2 2 0 0 0 I J . .       ",
"          . K L - - - - - - - - - - - - - - - - - - - - - - - - - - 2 2 0 0 0 0 , . .       ",
"        . . t M - - - - - - - - - - 2 2 - - - - - - - - - - - - - - 2 N 0 0 0 5 O . .       ",
"        . . P - - - - - - - - - - - 2 2 2 - - - - - - - - - - - - L 2 D 0 0 0 , . . .       ",
"        . . , - - - - - - - - - - - Q 2 R - - - - - - - - - - - - [ 2 S 0 T , U . .         ",
"        . . V - - - - - - - - - ' - - - - - - - - - - - - - - - - W 2 X 0 0 ! . . {         ",
"        . Y Z - - - - - - - - - D 2 ` - - - - - - - - - - - - - -  .2 ..0 0 +.@.. .         ",
"        . $ #.- - - - - - - - - $.2 y - [ %.N - - - - - - - - - - &.2 *.0 0 0 =.. .         ",
"      . . 7 - - - - - - - - - - - 2 - - x 2 2 -.- - - - - - - - - S 2 ;.0 0 0 , . .         ",
"      . . , - - - - - - - - - - - - - - 2 2 2 2 - - - - - - - - - 2 2 0 0 0 >.l . .         ",
"      . . , - - - - - - - - - - - - - - 2 2 2 2 - - - - - - - - - 2 2 0 0 ,., . . C         ",
"      . . '.- - - - - - - - - - - - - - #.&.2 ).- - - - - - - - - 2 2 0 % !.. . .           ",
"      . , [ - - - - - - - - - &.- - - - - - - - - - - - - - - - - 2 2 , . . . . ~.          ",
"    . . {.- - - - - - - - - [ 2 - - - - - - - - - - - - - - - - Q 2 2 d . . . .             ",
"    . . ].- - - - - - - - - ^.2 D - - - - - - - - - - - - - - - - 2 2 % . .                 ",
"    . . , - - - - - - - - - S 2 /., - - - - - - - - - - - - - - - 2 2 $ . .                 ",
"    . . (.- - - - - - - - - 2 2 &._.:.- - - - - - - - - - - - - <.2 c J . .                 ",
"    . [.p - - - - - - - - - 2 2 # . }.- - - - - - - - - - - - - <.2 |.1.. .                 ",
"    . }.M - - - - - - - - 2.2 2 , . { }.- - - - - - - - - - - - 3.2 N 4.. .                 ",
"  . . l - - - - - - - - - A 2 2 5..   6.7.- - - - - - - - - - - D 2 N { . .                 ",
"  . . , - - - - - - - - - 8.2 N # .   . , - - - - - - - - - - - 9.2 0.. . .                 ",
"  . . , /.2 a.- b.2 3 - - 2 2 c.d.. . . q ! - - - Z e.f.- #.( - D 2 g.. . .                 ",
"  . . h.2 2 2 i.2 2 2 j.2 2 2 k.. . . . . # R - l.2 2 2 2 2 2 2 2 2 m.. . .                 ",
"  . n./.o.p.q.D r.r.2 2 2 D 2 5.. .     . . P Q 2 4 s.2 2 t.2 2 4 2 # . . ~.                ",
"  . ! c u.v.w.x.y.x.z.A.r.w.2 , . .       . { B.2 C.x.D.E.F.E.G.H.x., . .                   ",
". . g E.x.x.I.x.x.x.J.x.x.x.2 , . .       . . # &.x.x.D x.x.x.K.L.x., . .                   ",
". . M., , , , , , , # ! # # # }.. .         . . N.O.! , , , , , , }., . .                   ",
"  . . . . . . . . . . . . . . . . .           . . . . . . . . . . . . . .                   ",
"    . . . . . . . . . . . . . . .               . . . . . . . . . . . .                     ",
"                      P.. . . ~.                                Q.. .                       ",
"                                                                                            ",
"                                                                                            "};
