/* XPM */
static char * q_xpm[] = {
"53 53 168 2",
"  	c None",
". 	c #FFFFFF",
"+ 	c #FAFCF6",
"@ 	c #8CC63D",
"# 	c #8EC83C",
"$ 	c #FFCE34",
"% 	c #8DC541",
"& 	c #8DC53F",
"* 	c #90C846",
"= 	c #8CC63F",
"- 	c #8EC63E",
"; 	c #F7FBF1",
"> 	c #8CC63E",
", 	c #FECD33",
"' 	c #FECE34",
") 	c #FEFEFF",
"! 	c #FEFFFF",
"~ 	c #FFCD35",
"{ 	c #EDCD36",
"] 	c #8CC53F",
"^ 	c #FFFEFF",
"/ 	c #DBEDC2",
"( 	c #FFFFFC",
"_ 	c #FFCE35",
": 	c #FFCE33",
"< 	c #FECF31",
"[ 	c #FFCD34",
"} 	c #98C63D",
"| 	c #8BC63F",
"1 	c #8AC63E",
"2 	c #B6DA86",
"3 	c #8BC63D",
"4 	c #AAC83C",
"5 	c #66C8D1",
"6 	c #65C7D0",
"7 	c #65C8CF",
"8 	c #FECE35",
"9 	c #64C8D1",
"0 	c #56BEC7",
"a 	c #279EAB",
"b 	c #64C7CF",
"c 	c #42B1BA",
"d 	c #289EAA",
"e 	c #299DAA",
"f 	c #289CA9",
"g 	c #279CAC",
"h 	c #8CC640",
"i 	c #FFFFFD",
"j 	c #84C9AE",
"k 	c #289DAA",
"l 	c #2AA0A9",
"m 	c #64C6CF",
"n 	c #8DC540",
"o 	c #FEFFFE",
"p 	c #64C8D0",
"q 	c #66C8CE",
"r 	c #66C7D0",
"s 	c #8DC73F",
"t 	c #FFCE32",
"u 	c #64C9CF",
"v 	c #44B0BE",
"w 	c #8EC63F",
"x 	c #8AC63F",
"y 	c #64C9D1",
"z 	c #289DAB",
"A 	c #49B3BD",
"B 	c #30A3AF",
"C 	c #64C8CF",
"D 	c #64C7D0",
"E 	c #8BC63E",
"F 	c #C3E29D",
"G 	c #63C8CE",
"H 	c #8CC63C",
"I 	c #FFFEFE",
"J 	c #66C7D1",
"K 	c #279DA9",
"L 	c #58C0CA",
"M 	c #48B4BD",
"N 	c #3FAEB8",
"O 	c #5FC6CC",
"P 	c #289DA9",
"Q 	c #289EAB",
"R 	c #8EC641",
"S 	c #63C7CD",
"T 	c #65C7CF",
"U 	c #62B46F",
"V 	c #8CC53E",
"W 	c #65C7D1",
"X 	c #39A9B4",
"Y 	c #8BC540",
"Z 	c #8EC640",
"` 	c #95CA4C",
" .	c #FFFFFE",
"..	c #79C785",
"+.	c #31A4B0",
"@.	c #FCFEFB",
"#.	c #FFFFFB",
"$.	c #5DC1CB",
"%.	c #FEFEFD",
"&.	c #C0C4D0",
"*.	c #FEFFFD",
"=.	c #8DC641",
"-.	c #63C8CF",
";.	c #0B1946",
">.	c #8DC642",
",.	c #8AC640",
"'.	c #8DC63E",
").	c #F4FAED",
"!.	c #3AA497",
"~.	c #FDFEFF",
"{.	c #63C8D1",
"].	c #8DC640",
"^.	c #4CAB84",
"/.	c #C1E198",
"(.	c #66C9CE",
"_.	c #6EC6AC",
":.	c #36A6B2",
"<.	c #6CB961",
"[.	c #8AC53D",
"}.	c #79C58C",
"|.	c #67C7CF",
"1.	c #8CC73F",
"2.	c #269EA8",
"3.	c #66C8CF",
"4.	c #65C8D0",
"5.	c #65C8C6",
"6.	c #8AC63D",
"7.	c #ACD674",
"8.	c #64C7D1",
"9.	c #279DAA",
"0.	c #68C7C3",
"a.	c #8BC73F",
"b.	c #BBDE8E",
"c.	c #8DC63F",
"d.	c #65C8D1",
"e.	c #63C8D0",
"f.	c #36A7B3",
"g.	c #2C9EA7",
"h.	c #F7FBF3",
"i.	c #61C5CD",
"j.	c #88C64F",
"k.	c #60C5CE",
"l.	c #8DC73E",
"m.	c #FEFEFE",
"n.	c #63C9D1",
"o.	c #FEFFFC",
"p.	c #8AC73C",
"q.	c #8CC540",
"r.	c #55BEC7",
"s.	c #62C7CE",
"t.	c #43B0BA",
"u.	c #31A3AF",
"v.	c #66C7CF",
"w.	c #2C9EAA",
"x.	c #61C6CE",
"y.	c #51BBC4",
"z.	c #76BB5A",
"A.	c #8BC53E",
"B.	c #A9D470",
"C.	c #47AA8A",
"D.	c #299DAB",
"E.	c #8BC53F",
"F.	c #A0CE5C",
"G.	c #FBFBFB",
"H.	c #FBFDFD",
"I.	c #FFFDFC",
"J.	c #CFD1DB",
"K.	c #495576",
"                                                                                                          ",
"                                                                                                          ",
"                                                . . .                                                     ",
"                                              . . . . . .                                                 ",
"                                  . . . . . . . . + . . . .                                               ",
"                              . . . . . . . . @ # $ % & . . .                                             ",
"                      . . . . . . * = - ; . > , $ $ $ ' @ . . )                                           ",
"                  . . . . . . ! > ~ $ $ { @ > $ $ $ $ $ ] ^ . . . . .                                     ",
"                . . . . / ( . > $ $ $ $ $ _ > $ $ $ $ $ : ] . . . . . . .                                 ",
"              . . ! > < [ } | > $ $ $ $ $ $ 1 $ $ $ $ $ $ > > > > 2 . . .                                 ",
"              . ! 3 $ $ $ $ : 4 $ $ $ 5 6 6 6 6 6 6 6 6 6 6 6 6 6 7 > . . .                               ",
"              . & 8 $ $ $ $ $ : $ $ 9 6 6 6 6 6 6 6 6 6 0 a b 6 6 6 c | . . )                             ",
"            . . > $ $ $ $ $ $ $ 6 6 6 6 6 6 6 6 6 6 6 6 d e e f 6 6 6 g h . . i                           ",
"            . . > $ $ $ $ $ j 6 6 6 6 6 6 6 6 6 6 6 6 6 k e e e l 6 6 m n o . .                           ",
"              . ] $ $ $ ' 6 6 6 6 6 6 6 6 6 6 6 6 6 6 6 p e e e q 6 6 6 r > . . .                         ",
"            . . ^ s t u 6 6 6 6 6 6 6 6 6 6 6 6 6 6 6 6 6 6 6 6 6 6 6 6 6 v @ . . .                       ",
"            . . w x 6 6 6 6 6 6 6 6 6 6 6 6 6 6 6 6 6 y z 6 6 6 6 6 6 6 6 6 d = . . .                     ",
"            . ! 9 6 6 6 6 6 6 6 6 6 6 6 6 6 6 6 6 6 6 A e B 6 C 6 6 6 6 6 6 D E i . .                     ",
"            . F 6 6 6 6 6 6 6 6 6 6 6 6 6 6 6 6 6 6 6 6 f 6 G e d 6 6 6 6 6 6 6 H I . .                   ",
"          . . | 6 6 6 6 6 6 6 6 6 6 6 6 6 6 6 6 J e e K 6 6 6 k L 6 6 6 6 6 6 6 M > . . .                 ",
"          . . > 6 6 6 6 6 6 6 6 6 6 6 7 N e e e e e e e O 6 6 6 6 6 6 6 6 6 6 6 6 P > . . .               ",
"          . . > 6 6 6 6 6 6 6 6 6 e e e e e e e Q z > R E S 6 6 6 6 6 6 6 6 6 6 6 6 > . . .               ",
"          . . @ 6 6 6 T 6 6 6 6 D e e z k U V E 3 ^ . . . = W 6 6 6 6 6 6 6 6 6 6 X e E ^ . .             ",
"          . . Y 6 6 6 e e 6 6 6 6 e k Z ` . . . . . . . . ^ > 6 6 6 6 6 6 6 6 6 6 d e n  .. .             ",
"          . . ..6 6 6 e e +.6 6 m e e @.. . . . . . . . . . ! & 6 6 6 6 6 6 6 6 6 f e | . . #.            ",
"          . . 7 6 6 6 $.e 6 6 6 W e e %.. . . &.*.. . . . . . ] 7 6 6 6 6 6 6 6 6 e e > . .               ",
"          . =.-.6 6 6 6 6 6 6 6 5 e k . . . ;.o . . . >.,.'.. . > 6 6 6 6 6 6 6 d e e ).. .               ",
"        . . ] 6 6 e P 6 6 6 6 6 6 e !.~.. . . . . . = {.6 W n . ^ E 6 6 6 6 6 6 e e ]. .. .               ",
"        . . @ 6 6 e e 6 6 6 6 6 6 e ^.. . . . . /.> T 6 6 6 (.'.+ _.6 6 6 6 6 6 e e E . .  .              ",
"        . . @ 6 6 :.e 6 6 6 6 6 6 e <.i . . . [.}.6 6 6 6 6 6 |.> 6 6 6 6 6 6 6 e e > . .                 ",
"        . . ] 6 6 6 6 6 6 6 6 6 5 e 1.o . . > p 6 6 6 6 6 6 6 6 6 6 6 6 6 6 6 d e 2. .. .                 ",
"        . . 1 6 6 6 6 6 6 O 5 6 3.e = i . = 4.6 6 6 6 6 6 6 6 6 6 6 6 6 6 6 6 k e = ! . .                 ",
"        . i 5.6 6 6 6 6 Q e e 6 6 6 ] . . . 6.6 6 6 6 6 6 6 6 6 6 6 6 6 6 6 r e e > . .                   ",
"        . 7.8.6 6 6 6 6 e e e 9.6 6 0.a.> b.. V W 6 6 6 6 6 6 6 6 6 6 6 6 6 6 e e > . .                   ",
"        . c.d.6 6 6 6 6 e e e k 6 6 6 6 6 p ].> > e.6 6 6 6 6 6 6 6 6 6 6 6 f.e g.I . .                   ",
"        . h.E 6 6 6 6 6 i.e e k 6 6 6 6 6 6 6 6 6 j.4.6 6 6 6 6 6 6 6 6 6 6 6 k.E . . .                   ",
"        . . I = D 6 6 6 6 4.6 6 6 6 6 6 6 6 6 6 6 6 6 6 6 6 6 6 6 6 6 6 6 6 6 6 6 ] . . .                 ",
"          . . ! l.5 6 6 6 6 6 6 6 6 6 6 6 6 6 6 6 6 6 6 6 6 6 6 6 6 6 6 6 6 6 6 6 6 =.. . .               ",
"            . . m.> 4.6 6 6 6 6 6 6 6 6 6 6 6 6 6 6 6 6 6 6 6 6 6 6 6 6 6 6 6 6 6 6 6 3 m.. .             ",
"              . .  .> n.6 6 6 6 6 6 6 6 6 6 6 6 6 6 6 6 6 6 6 6 6 6 6 6 6 6 6 6 6 6 6 6 ] o.. .           ",
"                . . I > p 6 6 6 6 6 6 6 6 6 6 6 6 6 6 6 6 6 6 6 6 6 6 6 6 6 6 6 6 6 6 6 6 p.*.. . .       ",
"                  . . . > W 6 6 6 6 6 6 6 6 6 6 6 6 6 6 6 6 6 6 6 6 6 6 6 6 6 6 6 6 6 6 W e =  .. .       ",
"                    . . . q.r.6 6 6 6 6 6 6 6 6 6 6 6 6 6 p J e e p 6 6 6 6 6 6 6 6 s.e e e e n . . .     ",
"                      . . . | t.6 6 6 6 6 6 6 6 6 5 u.e e e e e e e 7 6 6 6 6 D v.e e e e 9.> q.. . .     ",
"                        . . . = w.6 6 6 b x.k k e e e e e P e k > q.] Q 6 6 y.e e e e k > ] . . . .       ",
"                          . .  .q.9.d e e e e e e e e z.% ] > . .  .m.w e e e e e e '.> . . . . .         ",
"                            . . . A.k e e e e | q.> B. . .. . . . . .  .= C.e D.] > i . . . .             ",
"                              . . ! E E.= > ! ) . . . . . . . . . . . . . F.= E ! . . . .                 ",
"                                . . . . . . . . . . . . . G.          . . . . . . . . H.                  ",
"                                  . . . . . . . I.                        . . . . J.                      ",
"                                      . K.                                  .                             ",
"                                                                                                          ",
"                                                                                                          "};
