/* XPM */
static char * s_xpm[] = {
"58 52 135 2",
"  	c None",
". 	c #FFFFFF",
"+ 	c #FEFFFF",
"@ 	c #FFCE34",
"# 	c #FECE33",
"$ 	c #FEFFFD",
"% 	c #FFCE35",
"& 	c #BB9BCA",
"* 	c #B99BC9",
"= 	c #B99BC8",
"- 	c #FFF2C9",
"; 	c #FFFFFE",
"> 	c #FFFEFA",
", 	c #FECD35",
"' 	c #BB9BCB",
") 	c #FECD33",
"! 	c #BC9AC8",
"~ 	c #F15A25",
"{ 	c #E42006",
"] 	c #FECE34",
"^ 	c #FFFEFF",
"/ 	c #FEEAA6",
"( 	c #DBB380",
"_ 	c #E42005",
": 	c #FEFEFE",
"< 	c #B99CC9",
"[ 	c #F05A25",
"} 	c #E42105",
"| 	c #E32004",
"1 	c #FFCD34",
"2 	c #FFFEFE",
"3 	c #FFFFFD",
"4 	c #F15A24",
"5 	c #E32105",
"6 	c #F15A23",
"7 	c #FECE36",
"8 	c #BB9BC9",
"9 	c #FECF33",
"0 	c #E52005",
"a 	c #E32005",
"b 	c #FEFFFE",
"c 	c #B99CCA",
"d 	c #BA9BC9",
"e 	c #F25A24",
"f 	c #FDFFFE",
"g 	c #C6A5AE",
"h 	c #F15924",
"i 	c #F25925",
"j 	c #EB4117",
"k 	c #FFCD35",
"l 	c #ED6034",
"m 	c #E42205",
"n 	c #FFD246",
"o 	c #C093B4",
"p 	c #EF5924",
"q 	c #F05924",
"r 	c #E52B09",
"s 	c #E41F05",
"t 	c #FCCB3A",
"u 	c #E41F04",
"v 	c #FDCE35",
"w 	c #E51F05",
"x 	c #E31F05",
"y 	c #E6340A",
"z 	c #FECF38",
"A 	c #FDFFFD",
"B 	c #FFCC34",
"C 	c #B99BC7",
"D 	c #E7310E",
"E 	c #F25A25",
"F 	c #F05B23",
"G 	c #E83410",
"H 	c #E42607",
"I 	c #E52006",
"J 	c #F35923",
"K 	c #E42004",
"L 	c #E62006",
"M 	c #FDFDFD",
"N 	c #FAAF2F",
"O 	c #F15B24",
"P 	c #F37B1D",
"Q 	c #FFD244",
"R 	c #F25A27",
"S 	c #E83513",
"T 	c #FEFEFD",
"U 	c #E32406",
"V 	c #FECE35",
"W 	c #FECE32",
"X 	c #FFCF34",
"Y 	c #FED75A",
"Z 	c #FECD34",
"` 	c #FFCE33",
" .	c #F05B22",
"..	c #F1541F",
"+.	c #FECF3A",
"@.	c #FFF4D1",
"#.	c #FFCF33",
"$.	c #FFCE36",
"%.	c #F25923",
"&.	c #FCBF2F",
"*.	c #FFCD33",
"=.	c #FEDE71",
"-.	c #F25A23",
";.	c #F26025",
">.	c #FFD553",
",.	c #FDCE33",
"'.	c #FDDC6B",
").	c #FDC732",
"!.	c #F0741B",
"~.	c #FEC432",
"{.	c #FDCF33",
"].	c #F05A24",
"^.	c #E32006",
"/.	c #FFFCFB",
"(.	c #F25924",
"_.	c #F35925",
":.	c #E52104",
"<.	c #EE6118",
"[.	c #E83511",
"}.	c #F26627",
"|.	c #E52307",
"1.	c #FDCE34",
"2.	c #F25B24",
"3.	c #FEFEFF",
"4.	c #F15B23",
"5.	c #F47527",
"6.	c #F15824",
"7.	c #F05A23",
"8.	c #FECF35",
"9.	c #F05420",
"0.	c #FFCC33",
"a.	c #F1791C",
"b.	c #FFD038",
"c.	c #FFF1C9",
"d.	c #E0E2E8",
"                                                                                                                    ",
"                                                  . . . . . .                                                       ",
"                                                . . . . . . . .                                                     ",
"                                              . . + @ # @ @ . . .                                                   ",
"                                          . . . $ % & & & * @ . . . . . . . . . .                                   ",
"                                      . . . . . @ & & & & & = % . . . . . . . . . .                                 ",
"                                    . . + - - ; @ & & & & & & @ @ @ @ @ @ @ @ > . . ;                               ",
"                                  . ; @ , ' & ) ) & ! ~ ~ ~ ~ ~ ~ ~ ~ ~ ~ ~ { ] ^ . . .                             ",
"                                . . / ( & & & & & = ~ ~ ~ ~ ~ ~ ~ ~ ~ ~ ~ ~ ~ _ @ : . .                             ",
"                          . . . . . ] & & & & & < ~ ~ ~ ~ ~ ~ ~ ~ ~ ~ ~ [ } [ ~ | 1 2 . .                           ",
"                        . . ^ ; 3 3 @ & & & & & 4 ~ ~ ~ ~ ~ ~ ~ ~ ~ ~ ~ 5 } } 6 ~ _ 7 . . . .                       ",
"                        . ; # @ 8 @ 9 & & & & [ ~ ~ ~ ~ ~ ~ ~ ~ ~ ~ ~ ~ } } } 0 ~ ~ a @ b . . .                     ",
"                      . . @ c & & & d & & & [ ~ ~ ~ ~ ~ ~ ~ ~ ~ ~ ~ ~ ~ } } } } ~ ~ e | @ f . .                     ",
"                      . ^ g & & & & & & & h ~ ~ ~ ~ ~ ~ ~ ~ ~ ~ ~ ~ 0 ~ i j } ~ ~ ~ ~ ~ { @ . . .                   ",
"                      . k & & & & & & & l ~ ~ ~ ~ ~ ~ ~ ~ ~ ~ ~ ~ 6 } m ~ ~ ~ ~ ~ ~ ~ ~ ~ _ @ . . .                 ",
"                      . n & & & & & & o ~ ~ ~ ~ ~ ~ ~ ~ ~ ~ ~ ~ ~ p } q ~ ~ ~ ~ ~ ~ ~ ~ ~ r s @ . . .               ",
"                      . : t & & & & d ~ ~ ~ ~ ~ ~ ~ ~ ~ ~ ~ ~ ~ ~ ~ ~ ~ _ _ ~ ~ ~ ~ ~ ~ ~ } } u v . .               ",
"                      . . @ & 8 & * ~ ~ ~ ~ ~ ~ ~ ~ ~ ~ ~ ~ ~ ~ ~ ~ ~ ~ } w ~ ~ ~ ~ ~ ~ x } } y z . .               ",
"                        . A B & C ~ ~ ~ ~ ~ ~ ~ ~ ~ ~ ~ ~ ~ ~ D ~ ~ ~ ~ ~ ~ ~ ~ ~ ~ E x } } } @ . . .               ",
"                        . . ; ] ~ ~ ~ ~ ~ ~ ~ ~ ~ ~ ~ ~ ~ ~ F } } G ~ ~ ~ ~ ~ ~ ~ ~ _ } } } , ; . .                 ",
"                        . + @ ~ ~ ~ ~ ~ ~ ~ ~ ~ ~ ~ ~ ~ ~ ~ } } } H @ [ ~ ~ ~ ~ ~ I } } } @ + . .                   ",
"                      . . @ J ~ ~ ~ ~ ~ ~ ~ ~ ~ ~ ~ ~ ~ ~ ~ ~ } K ) 2 @ L ~ ~ ~ ~ } } } ] ; . . M                   ",
"                      . ; N ~ ~ ~ ~ ~ ~ ~ ~ ~ ~ ~ ~ ~ ~ ~ ~ ~ ~ @ ) . . @ @ e O } } } P Q . . .                     ",
"                      . . f @ R ~ ~ ~ ~ ~ ~ ~ ~ ~ ~ ~ ~ ~ ~ ~ ~ ~ S @ ^ . T @ U } } u @ . . .                       ",
"                        . . . V W ~ ~ ~ ~ ~ ~ ~ ~ ~ ~ ~ ~ ~ ~ ~ ~ ~ [ X . . . Y ] K Z + . .                         ",
"                          . . . ; V 9 ~ ~ ~ ~ ~ ~ ~ ~ ~ ~ ~ ~ ~ ~ ~ ~ ~ k ` . . + 1 . . .                           ",
"                            . . 2 . b @  .~ ~ ~ ~ ~ ~ ~ ~ ~ ~ ~ ~ ~ ~ ~ ~ ..1 3 . . . .                             ",
"                            . ; ] % ; . +.V 4 ~ ~ ~ ~ ~ ~ ~ ~ ~ ~ ~ ~ ~ ~ ~ O % @.. . .                             ",
"                          . . @ ~ ~ #.V . . @ $.%.~ ~ ~ ~ ~ ~ ~ ~ ~ ~ ~ ~ ~ ~ ~ &.v . . . .                         ",
"                        . . *.i ~ ~ ~ [ Z =.. . *.-.~ ~ ~ ~ ~ ~ ~ ~ ~ ~ ~ ~ ~ ~ ~ [ @ 3 . . .                       ",
"                        . . 1 ~ ~ ~ ~ ~ ~ ;.` . . >.] 6 ~ ~ ~ ~ ~ ~ ~ _ 4 ~ ~ ~ ~ ~ ~ ,.'.b . .                     ",
"                      . . @ ~ ~ ~ ~ ~ ~ ~ ~ ~ ).1 f ` %.~ ~ ~ ~ ~ ~ ~ } } ~ ~ ~ ~ ~ ~ } !.@ . . .                   ",
"                      . . ~.~ ~ ~ ~ ~ ~ ~ ~ ~ ~ ~ {.V ~ ~ ~ ~ ~ ~ ~ ].} a ~ ~ %.[ ~ | } } ^./.. .                   ",
"                    . . @ ~ ~ ~ ~ ~ ~ ~ ~ ~ ~ ~ ~ ~ ~ ~ ~ ~ ~ ~ ~ ~ ~ 5 (.~ ~ } } _.:.} } @ ^ . .                   ",
"                  . . 1 ~ ~ ~ ~ ~ ~ ~ ~ ~ ~ ~ ~ ~ ~ ~ ~ ~ ~ ~ ~ ~ ~ ~ ~ ~ ~ } } _ } } } <.+ . .                     ",
"                  . . 1 ~ ~ ~ ~ ~ ~ ~ ~ ~ ~ ~ ~ ~ ~ ~ ~ ~ ~ ~ ~ ~ ~ ~ ~ ~ ~ e } [.} } } @ b . .                     ",
"                  . . @ }.~ ~ ~ ~ ~ ~ ~ ~ ~ ~ ~ ~ ~ ~ ~ ~ ~ ~ ~ ~ ~ h } } |.~ ~ } } } k ^ . .                       ",
"                  . . . 1.1 ~ ~ ~ ~ ~ ~ ~ ~ ~ ~ ~ ~ ~ ~ ~ ~ ~ ~ ~ ~ | } } } ~ 2.} } 0 *.: . .                       ",
"                    . . . f ] ~ ~ ~ ~ ~ ~ ~ ~ ~ ~ ~ ~ ~ ~ ~ ~ ~ ~ ~ } } } _ ~ } } } ] + . .                         ",
"                        . . 3.Z ~ ~ ~ ~ ~ ~ ~ ~ ~ ~ ~ ~ ~ ~ ~ ~ ~ ~ _ } } e 4.} } u ] . . .                         ",
"                          . . . @ 5.~ ~ ~ ~ ~ ~ ~ ~ ~ ~ ~ ~ ~ ~ ~ ~ ~ 6.7.~ } } } ] . . .                           ",
"                            . . . 8.@ ~ ~ ~ ~ ~ ~ ~ ~ ~ ~ ~ ~ ~ ~ ~ ~ ~ ~ 9.} } _ ] . . .                           ",
"                              . . . + 0.4 ~ ~ ~ ~ ~ ~ ~ ~ ~ ~ ~ ~ ~ ~ ~ ~ } } } @ . . .                             ",
"                                  . . . ] _ } } } } } } } } } } } } } } } } } { ` . . .                             ",
"                                    . . . # a.} } } } } } } } } } } } } } } } @ . . .                               ",
"                                      . . . b.@ @ @ @ @ @ @ @ @ @ @ @ @ @ @ @ c.. . d.                              ",
"                                        . . . . . . . . . . . . . . . . . . . . . .                                 ",
"                                          . . . . . . . . . . . . . . . . . . . 2                                   ",
"                                                                                                                    ",
"                                                                                                                    ",
"                                                                                                                    ",
"                                                                                                                    "};
