/* XPM */
static char * t_xpm[] = {
"54 50 117 2",
"  	c None",
". 	c #FFFFFF",
"+ 	c #65C7D0",
"@ 	c #63C8CE",
"# 	c #FFFFFE",
"$ 	c #66C9CF",
"% 	c #66C8D0",
"& 	c #65C7CF",
"* 	c #A5DEE4",
"= 	c #F4FBF8",
"- 	c #65C8D0",
"; 	c #FEFFFF",
"> 	c #64C7D1",
", 	c #63C8D2",
"' 	c #FFCE34",
") 	c #67C7D1",
"! 	c #FEFDFF",
"~ 	c #63C8D1",
"{ 	c #97CAA0",
"] 	c #66C7D0",
"^ 	c #64C9D1",
"/ 	c #FFCD35",
"( 	c #65C8CE",
"_ 	c #65C9D0",
": 	c #66C7CF",
"< 	c #FECE35",
"[ 	c #FDFFFF",
"} 	c #F3FAFC",
"| 	c #65C7D1",
"1 	c #009144",
"2 	c #009345",
"3 	c #05964C",
"4 	c #0A9852",
"5 	c #169D64",
"6 	c #39AF91",
"7 	c #65C8CF",
"8 	c #FFCE36",
"9 	c #FFCE33",
"0 	c #FDCE34",
"a 	c #FFCD34",
"b 	c #009245",
"c 	c #005514",
"d 	c #005413",
"e 	c #D3F0F2",
"f 	c #006421",
"g 	c #005412",
"h 	c #009244",
"i 	c #005513",
"j 	c #017C34",
"k 	c #006C22",
"l 	c #029246",
"m 	c #009141",
"n 	c #015313",
"o 	c #015413",
"p 	c #015816",
"q 	c #3CB295",
"r 	c #009146",
"s 	c #019145",
"t 	c #64C7CF",
"u 	c #64C8CE",
"v 	c #B4E3EA",
"w 	c #FEFFFE",
"x 	c #58C0BF",
"y 	c #005313",
"z 	c #009344",
"A 	c #66C8CF",
"B 	c #64C7D0",
"C 	c #6FCDD4",
"D 	c #FFFFFD",
"E 	c #009343",
"F 	c #005512",
"G 	c #018D41",
"H 	c #FEFEFF",
"I 	c #009243",
"J 	c #01742C",
"K 	c #64C6CF",
"L 	c #2F8B6C",
"M 	c #005411",
"N 	c #83D2D9",
"O 	c #64C8D1",
"P 	c #A6DFE3",
"Q 	c #64C8D0",
"R 	c #409B87",
"S 	c #FFFEFF",
"T 	c #F6F6F8",
"U 	c #FCFFFD",
"V 	c #FEFFFC",
"W 	c #B8E7E9",
"X 	c #66C8CE",
"Y 	c #0C6129",
"Z 	c #015414",
"` 	c #005414",
" .	c #FEFEFE",
"..	c #026623",
"+.	c #015512",
"@.	c #008C40",
"#.	c #64C8CF",
"$.	c #65C5CF",
"%.	c #FEFFFD",
"&.	c #00893D",
"*.	c #025414",
"=.	c #169E63",
"-.	c #019245",
";.	c #FDFEFD",
">.	c #AFE1E7",
",.	c #015412",
"'.	c #009246",
").	c #50B0AB",
"!.	c #FFFEFD",
"~.	c #025314",
"{.	c #7E8398",
"].	c #63C8D0",
"^.	c #64C7CE",
"/.	c #328D71",
"(.	c #3E9A87",
"_.	c #465274",
":.	c #EFF1F3",
"                                                                                                            ",
"                                    . . . . .   . . . . . . .   . . . . .                                   ",
"                                  . . . . . . . . . . . . . . . . . . . . .                                 ",
"                                . . . + + @ . . # + $ % & * . . = + + - ; . .                               ",
"                . . . . .     . . > , ' ' ' ) ! ~ ' ' ' ' { ] ^ % ' ' / ( ; . .                             ",
"              . . . . . . . . . # _ ' ' ' ' ' + ' ' ' ' ' ' - : ' ' ' ' < @ . . . . . . . . . [             ",
"            . . } . . . . . . . + ' ' ' ' ' ' / ' ' ' ' ' ' ' ' ' ' ' ' ' | . . . . . . . . . .             ",
"            . . 1 2 2 3 3 4 5 6 7 ' ' ' ' 8 9 0 ' ' ' ' ' / ' a ' ' a ' 9 % + + + + + + + + . . .           ",
"            . . 1 2 2 2 2 2 2 2 2 2 2 2 2 2 2 2 2 2 2 2 2 2 2 2 2 2 2 2 2 2 2 2 2 b 1 c c d e . .           ",
"            . . 1 2 2 2 2 f c g 2 2 2 2 2 2 2 2 2 2 2 2 2 2 2 2 2 2 2 2 2 2 2 2 2 2 h c c d e . .           ",
"            . . 1 2 2 2 2 i c c j 2 2 2 2 2 2 2 2 2 2 2 2 2 2 2 2 2 2 2 2 2 2 2 2 2 h c c d e . .           ",
"            . . 1 2 2 2 2 c c c c 2 2 2 2 2 2 2 2 2 2 2 2 2 2 2 2 2 2 2 2 2 2 2 2 2 h c c d e . .           ",
"            . . 1 2 2 2 2 k c c c 2 2 2 2 2 2 2 2 2 2 2 2 2 2 2 2 2 2 2 2 2 2 2 2 2 h c c d e . .           ",
"            . . 1 2 2 c l 2 b 2 2 2 2 2 2 2 2 2 2 2 2 2 2 2 2 2 2 2 2 2 2 2 2 2 2 2 h c c d e . .           ",
"            . . 1 2 m c n 2 2 2 2 2 2 2 2 2 2 2 2 2 2 2 2 2 2 2 2 2 2 2 2 2 2 2 2 2 h c c d e . .           ",
"            . . 1 2 2 h 2 2 2 2 2 2 2 2 2 2 2 2 2 2 2 2 2 2 2 2 2 2 2 2 2 2 2 2 2 2 h c c d e . .           ",
"            . . 1 2 2 2 2 c c 2 2 2 2 2 2 2 2 2 2 2 2 2 2 2 2 2 2 2 2 2 2 2 2 2 2 2 h c c d e . .           ",
"            . . 1 2 2 2 2 o p 2 2 2 2 2 2 2 2 2 2 2 2 2 2 2 2 2 2 2 2 2 2 2 2 2 2 2 h c c d e . .           ",
"            . . 1 2 2 2 2 2 2 2 2 2 1 q + 2 2 2 2 2 2 2 2 2 r 2 2 2 2 2 2 2 2 2 2 2 h c c d e . .           ",
"            . . 1 2 2 2 2 s t u + 7 v w x 2 2 2 2 2 2 2 2 2 y c c c g g z 2 2 2 2 2 h c c d e . .           ",
"            . . A B + + C D ; . . . . . E 2 2 2 2 2 2 2 2 2 i c c c c c c c c c o F G c c d e . .           ",
"            . . H . . . . . . . . . . # I 2 2 2 2 2 2 2 2 2 J c c & K L M c c c c c c c c d e . .           ",
"            . . . . . . . . . .   . . N 2 2 2 2 2 2 2 2 2 2 2 c c O . ; P Q + + Q R F c c d e . .           ",
"                . S T               . Q 2 2 2 2 2 2 2 2 2 2 2 c c 7 U . . . . . . V W X + + . . .           ",
"                                  . . A 2 2 2 2 2 2 2 2 2 2 2 c c Y # . . . . . . . . . . . . . .           ",
"                                  . . + 2 2 2 2 2 Z c 2 2 2 2 ` c c | . .       . . . . . . .  .            ",
"                                  . . + 2 2 2 2 2 c c ..2 2 2 M c c + . .                                   ",
"                                  . . + 2 2 2 2 2 c c 2 2 2 2 +.c c + . .                                   ",
"                                  . . + 2 2 c d 2 2 2 2 2 2 2 @.c c + . .                                   ",
"                                  . . & 2 2 c c 2 2 2 2 2 2 2 2 c c + . . .                                 ",
"                                  . . #.2 2 c o 2 2 2 2 2 2 2 2 c c $.; . .                                 ",
"                                  . %.: 2 2 2 2 2 &.c l 2 2 2 2 c c *.w . .                                 ",
"                                  . S =.2 2 2 2 -.c c d 2 2 2 2 i c c #.. .                                 ",
"                                  . ;.h 2 2 2 2 d c c d 2 2 2 2 o c c + . .                                 ",
"                                  . >.2 2 2 2 2 c c c ,.2 2 2 2 ` c c + . .                                 ",
"                                . . % 2 2 2 2 2 b c c h 2 2 2 2 b c c + . .                                 ",
"                                . . + 2 2 2 2 2 2 h '.2 2 2 2 2 2 c c + . . .                               ",
"                                . . + 2 2 2 2 2 2 2 2 2 2 2 2 2 2 c c ).!.. .                               ",
"                                . . + 2 2 2 2 2 2 2 2 2 2 2 2 2 2 c c ,.# . .                               ",
"                                . . + 2 2 2 2 2 2 2 2 2 2 2 2 2 2 d c c #.. .                               ",
"                                . . + 2 2 2 2 2 2 2 2 2 2 2 2 2 2 ~.c c | . .                               ",
"                                . . & 2 2 2 2 2 2 2 2 2 2 2 2 2 2 o c c + . . {.                            ",
"                                . . ].c c c c c c c c c c c c c c c c c 7 . . .                             ",
"                                . . ^.c c c c c c c c c c c c c c c c c Q . .  .                            ",
"                                . . /.c c c c c c c c c c c c c c c c c (.# . .                             ",
"                                . . ( + + + + + + + + + + + + + + + + + u . . .                             ",
"                                . . . . . . . . . . . . . . . . . . . . . . . _.                            ",
"                                  . . . . . . . . . . . . . . . . . . . . . :.                              ",
"                                                                                                            ",
"                                                                                                            "};
