/* XPM */
static char * u_xpm[] = {
"53 51 111 2",
"  	c None",
". 	c #FFFFFF",
"+ 	c #FEFFFE",
"@ 	c #FEFFFF",
"# 	c #FEFEFE",
"$ 	c #FEFFFD",
"% 	c #8CC63E",
"& 	c #8BC63F",
"* 	c #8CC53E",
"= 	c #67C7C9",
"- 	c #2C9FA6",
"; 	c #FFFFFE",
"> 	c #8CC63F",
", 	c #FFCE34",
"' 	c #FFCD34",
") 	c #65C7D0",
"! 	c #299DAA",
"~ 	c #FEFEFD",
"{ 	c #8BC63E",
"] 	c #8DC63F",
"^ 	c #8CC540",
"/ 	c #E3CD36",
"( 	c #289DA9",
"_ 	c #63C8D0",
": 	c #FFFEFE",
"< 	c #C5CA3A",
"[ 	c #299DAB",
"} 	c #289DAB",
"| 	c #8CC53F",
"1 	c #289DAA",
"2 	c #4DB7C2",
"3 	c #64C7D0",
"4 	c #8EC440",
"5 	c #FFCE33",
"6 	c #66C8D1",
"7 	c #289EAA",
"8 	c #8BC73D",
"9 	c #FECE33",
"0 	c #66C9CF",
"a 	c #8DC63E",
"b 	c #FFFEFF",
"c 	c #279DA9",
"d 	c #279DAA",
"e 	c #AED67B",
"f 	c #279DA8",
"g 	c #8AC53F",
"h 	c #64C8CF",
"i 	c #BFDE8E",
"j 	c #269EAB",
"k 	c #BCDF8F",
"l 	c #81C76E",
"m 	c #FFFFFD",
"n 	c #8BC73F",
"o 	c #299CAB",
"p 	c #EBF4DE",
"q 	c #C1E19D",
"r 	c #289DA8",
"s 	c #F4FAEC",
"t 	c #8AC640",
"u 	c #BEDF93",
"v 	c #8BC541",
"w 	c #FFCD33",
"x 	c #FDFEFA",
"y 	c #8CC640",
"z 	c #299D9D",
"A 	c #65C8CF",
"B 	c #34A292",
"C 	c #44A565",
"D 	c #8BC63D",
"E 	c #6BB63A",
"F 	c #D9EDC1",
"G 	c #FECE34",
"H 	c #3CAAB7",
"I 	c #63C7CF",
"J 	c #65C9CC",
"K 	c #99CE55",
"L 	c #65C8D1",
"M 	c #64C9CF",
"N 	c #5AC1C8",
"O 	c #B2D97D",
"P 	c #8DC53F",
"Q 	c #65C8D0",
"R 	c #50B9C2",
"S 	c #73C79E",
"T 	c #64C9D1",
"U 	c #3CACB6",
"V 	c #8CC73E",
"W 	c #33A2AF",
"X 	c #299CAA",
"Y 	c #66C8CF",
"Z 	c #4BB6C1",
"` 	c #63C8CE",
" .	c #89C63D",
"..	c #D7EBBC",
"+.	c #58B077",
"@.	c #8EC641",
"#.	c #8DC63C",
"$.	c #289CAB",
"%.	c #2B9CA9",
"&.	c #8FC540",
"*.	c #269EAA",
"=.	c #F6FAEF",
"-.	c #8BC53E",
";.	c #68C8C5",
">.	c #299EAD",
",.	c #FDFFFD",
"'.	c #8AC63D",
").	c #57BFCA",
"!.	c #8CC541",
"~.	c #C5E39E",
"{.	c #91C945",
"                                                                                                          ",
"                                                                                                          ",
"                . . . . . . . . . . . . . . . . . .                                                       ",
"          . . . . . . . . . . . . . . . . . . . . . . .                                                   ",
"        . . . . + @ @ @ @ @ @ @ @ @ @ @ @ @ @ @ @ # . .                                                   ",
"      . . $ % & * = = = = = = = = = = = = = - - - % . . . . . . . . . . . . . . . . . . . .               ",
"    . . ; > , , ' ) ) ) ) ) ) ) ) ) ) ) ) ) ! ! ! % . . . . . . . . . . . . . . . . . . . . .             ",
"    . ~ { , , , , ) ) ) ) ) ) ) ! ) ) ) ) ) ! ! ! ] . . % % % % % % % % % % % % % % % % ^ . .             ",
"    . . / , , , , ) ) ) ) ) ) ( ! ! _ ) ) ) ! ! ! % . . { ) ) ) ) ) ) ) ) ) ) ) ) ! ! ! % . .             ",
"    . : < , , , , ) ) ) ) ) ) [ ! ! ! ) ) ) ! ! ! % . . % ) ) ) ) ) ) ) ) ) ) ) ) ! ! ! % . .             ",
"    . . ^ , , , , ) ) ) ) ) ) } ! ! ! ) ) ) ! ! ! % . . % ) ) ) ) ) ) ) ) ) ) ) ) ! ! ! % . .             ",
"    . . . | , , , ) ) ) ) 1 ) ) 2 ! 3 ) ) ) ! ! ! % . . % ) ) ) ) ) ) ) ) ) ) ) ) ! ! ! % . .             ",
"      . . > 4 ' 5 ) ) ) 6 ! 7 ) ) ) ) ) ) ) ! ! ! % . . % ) ) ) ) ) ) ) ) ) ) ) ) ! ! ! % . .             ",
"    . . 8 9 , , , ) ) ) ) ! 0 ) ) ) ) ) ) ) ! ! ! % . . a ) ) ) ) ) ) ) ) ) ) ) ) ! ! ! % . .             ",
"    . b > , , , , ) ) ) ) ) ) 1 c ) ) ) ) ) ! ! d % . . e ) ) ) ) ) ) ) ) ) ) ) ) ! ! ! % . .             ",
"    . { , , , , , ) ) ) ) ) ) ( ! ) ) ) ) ) ! ! f g . . . h ) ) ) ) ) ) ) ) ) ) ) ! ! ! % . .             ",
"    . i , , , , , ) ) ) ) ) ) ) ) ) ) ) ) ) ! ! j k . . # l ) ) ) ) ) ) ) ) ) ) ) ! ! ! % . .             ",
"    . m n , , , , ) ) ) ) ) ) ) ) ) ) ) ) ) ! ! o p . . + > ) ) ) ) ) ) ) ) ) ) ) ! ! ! % . .             ",
"    . . q ^ , , , ) ) ) ) ) ) ) ) ) ) ) ) ) ! ! r s . . . t ) ) ) ) ) ) ) ) ) ) ) ! ! ! % . .             ",
"      . . u v w , ) ) ) ) ) ) ) ) ) ) ) ) ) ! ! d x . . . ^ ) ) ) ) ) ) ) ) ) ) ) ! ! ! % . .             ",
"      . + y , , , ) ) ) ) ) ) ) ) ! ! ) ) ) ! ! ! . . . . % ) ) ) ) ) ) ) ) ) ) ) ! ! ! % . .             ",
"    . . % , , , , ) ) ) ) ) ) ) 7 ! ! ) ) ) ! ! z . . . . % ) ) ) ) ) ) ) ) ) ) ) ! ! ! % . .             ",
"    . . y , , , , ) ) ) ) ) A ) 3 ! 1 ) ) ) ! ! B . . . . % ) ) ) ) ) ) ) ) ) ) ) ! ! ! % . .             ",
"    . . % , , , , ) ) ) ) A ! A ) ) ) ) ) A ! ! C # . . . D ) ) ) ) ) ) ) ) ) ) ) ! ! ! % . .             ",
"    . . ^ , , , , ) ) ) ) ! ! c ) ) ) ) ) 6 ! ! E . . . . F ) ) ) ) ) ) ) ) ) ) ) ! ! ! % . .             ",
"      . . | G , , ) ) ) ) H ! 6 ) ) ) ) ) I ! ! % . . . . . J ) ) ) ) ) ) ) ) ) ) ! ! ! % . .             ",
"      . . . K & | ) ) ) ) ) ) ) L ! ! ) ) h ! ! % . . . ; * ) ) ) ) ) ) ) ) ) ) ) ! ! ! % . .             ",
"        . . . . | ) ) ) ) ) ) ) } ! ! M ) N ! ! > . . O P ) ) ) ) ) ) ) ) ) ) ) ) ! ! ! % . .             ",
"          . . . | ) ) ) ) ) ) ) ! ! ! Q ) R ! ! { + % S ) ) ) ) ) ) ) ) ) ) ) ) ) ! ! ! % . .             ",
"            . . | ) ) ) ) ) ) ) ! ! ! T ) U ! ! % V ) ) ) ) ) ) ) ) ) ) ) ) ) ) ) ! ! ! % . .             ",
"            . . | ) ) ) ) ) ) ) W [ X ) ) c ! ! % 3 ) ) ) ) ) ) ) ) ) ) ) ) ) ) ) ! ! ! % . .             ",
"            . . | ) ) ) ) ) ) ) ) ) ) ) ) 1 ! Y ) ) ) ) ) ) ) ) ) ) ) ) ) ) ) ) Z ! ! ! % . .             ",
"            . . | ) ) ) ) ) ) ) ) ) ) ) ) } ` ) ) ) ) ) ) ) ) ) ) ) ) ) ) ) ) ) ! ! ! ! % . .             ",
"            . . | ) ) ) ) ) ) ) ) ) ) ) ) ) ) ) ) ) ) ) ) ) ) ) ) ) ) ) ) ) ) ! ! ! !  .... .             ",
"            . . % ) ) ) ) ) ) ) ) ) ) ) ) ) ) ) ) ) ) ) ) ) ) ) ) ) ) ) ) ) c ! ! ! +.@.. . .             ",
"              . ; #.) ) ) ) ) ) ) ) ) ) ) ) ) ) ) ) ) ) ) ) ) ) ) ) ) ) ) $.! ! ! %.&.. . .               ",
"              . . ; > ) ) ) ) ) ) ) ) ) ) ) ) ) ) ) ) ) ) ) ) ) ) ) ) ) ( ! ! ! 7 % . . .                 ",
"                . . # ^ ) ) ) ) ) ) ) ) ) ) ) ) ) ) ) ) ) ) ) ) ) ) ) *.! ! ! ! % ~ . .                   ",
"                  . . =.& ) ) ) ) ) ) ) ) ) ) ) ) ) ) ) ) ) ) ) ) ) 7 ! ! ! ! -.$ . .                     ",
"                    . . % ;.) ) ) ) ) ) ) ) ) ) ) ) ) ) ) ) ) ) ) >.! ! ! ! > @ . . ,.                    ",
"                      . ~ '.6 ) ) ) ) ) ) ) ) ) ) ) ) ) ) ) ) ) ).! ! ! ! > b . . m                       ",
"                      . . ; !.c ! ! ! ! ! ! ! ! ! ! ! ! ! ! ! ! ! ! ! ! > : . . .                         ",
"                        . . . % ( ! ! ! ! ! ! ! ! ! ! ! ! ! ! ! ! ! ! V ~.. . .                           ",
"                          . . . % % % % % % % % % % % % % % % % % % % {.. . .                             ",
"                            . . . . . . . . . . . . . . . . . . . . . . . .                               ",
"                              . . . . . . . . . . . . . . . . . . . . . .                                 ",
"                                                                                                          ",
"                                                                                                          ",
"                                                                                                          ",
"                                                                                                          ",
"                                                                                                          "};
