/* XPM */
static char * w_xpm[] = {
"63 50 175 2",
"  	c None",
". 	c #FFFFFF",
"+ 	c #FFFFFD",
"@ 	c #FFFFFE",
"# 	c #D6F0F1",
"$ 	c #FEFFFD",
"% 	c #B8E6EB",
"& 	c #65C7D0",
"* 	c #66C7D0",
"= 	c #65C8CE",
"- 	c #64C7D0",
"; 	c #63C8CE",
"> 	c #B69ECA",
", 	c #BB9BCA",
"' 	c #64C8D0",
") 	c #FEFEFE",
"! 	c #FEFFFF",
"~ 	c #BB9BC9",
"{ 	c #FDFFFD",
"] 	c #65C8CF",
"^ 	c #BA9BC8",
"/ 	c #65C8D0",
"( 	c #71CCD4",
"_ 	c #FEFFFE",
": 	c #FFFEFE",
"< 	c #F2FAFB",
"[ 	c #66C7CF",
"} 	c #B99BC9",
"| 	c #885E9E",
"1 	c #BA9BC7",
"2 	c #8CB4CC",
"3 	c #E4F6F6",
"4 	c #67C7D0",
"5 	c #69C8C2",
"6 	c #8CC63E",
"7 	c #BA9CCA",
"8 	c #BA9CC9",
"9 	c #B49FCA",
"0 	c #65C7CF",
"a 	c #66C8D1",
"b 	c #FFFEFD",
"c 	c #9AB969",
"d 	c #AC89BE",
"e 	c #BA9BCA",
"f 	c #8DB3CD",
"g 	c #DDF2F4",
"h 	c #8EC63E",
"i 	c #B596C6",
"j 	c #B798C5",
"k 	c #65C9D0",
"l 	c #865E9D",
"m 	c #8D94A6",
"n 	c #E1F4F6",
"o 	c #8F69A5",
"p 	c #BA9AC9",
"q 	c #FDFFFF",
"r 	c #FEFEFD",
"s 	c #BB9CC9",
"t 	c #A0A9CB",
"u 	c #FFFEFF",
"v 	c #E6E6EC",
"w 	c #FFFDFE",
"x 	c #64C8CF",
"y 	c #79BECE",
"z 	c #B99AC9",
"A 	c #63C8D0",
"B 	c #875D9D",
"C 	c #8CC540",
"D 	c #8BC53E",
"E 	c #66C8CF",
"F 	c #FFFDFB",
"G 	c #7BD0D8",
"H 	c #63C9CE",
"I 	c #E9F7F7",
"J 	c #BA9BC9",
"K 	c #9069A5",
"L 	c #895F9E",
"M 	c #70CBD5",
"N 	c #66C7CE",
"O 	c #63C8CF",
"P 	c #A4E1E4",
"Q 	c #8CC63F",
"R 	c #B99CCA",
"S 	c #CAECEF",
"T 	c #6AC9D2",
"U 	c #AD8BBE",
"V 	c #98BA64",
"W 	c #71CCD3",
"X 	c #64C7D1",
"Y 	c #64C8CE",
"Z 	c #66C7D1",
"` 	c #6FCBD3",
" .	c #67C6D0",
"..	c #62C9D0",
"+.	c #B999C7",
"@.	c #B59DCB",
"#.	c #6DCBD3",
"$.	c #B1E2E8",
"%.	c #B99BC8",
"&.	c #BB9BC8",
"*.	c #875E9E",
"=.	c #66C5CD",
"-.	c #C5EAED",
";.	c #6FCCD4",
">.	c #B896C6",
",.	c #93BF53",
"'.	c #67CAD3",
").	c #6BC5CE",
"!.	c #875E9D",
"~.	c #885E9D",
"{.	c #6FA5BF",
"].	c #70C2CE",
"^.	c #64C9D1",
"/.	c #9C76AF",
"(.	c #65C7D1",
"_.	c #BB9CC8",
":.	c #875E9F",
"<.	c #7D7BAB",
"[.	c #66C9CF",
"}.	c #65C9D1",
"|.	c #91C349",
"1.	c #B799C7",
"2.	c #885F9F",
"3.	c #C9ECEE",
"4.	c #8BC641",
"5.	c #65C8D1",
"6.	c #8CC53F",
"7.	c #8BC640",
"8.	c #8DC53E",
"9.	c #6AC8B5",
"0.	c #6CCBD1",
"a.	c #66C8D0",
"b.	c #74CDD6",
"c.	c #74C0D0",
"d.	c #B392C4",
"e.	c #875F9E",
"f.	c #6AC9D1",
"g.	c #885E9F",
"h.	c #B99CC9",
"i.	c #B99AC8",
"j.	c #7DD1D7",
"k.	c #BC9BCA",
"l.	c #885E9C",
"m.	c #F6F8F8",
"n.	c #836DA5",
"o.	c #B698C7",
"p.	c #62C7CF",
"q.	c #8C63A2",
"r.	c #8A5D9E",
"s.	c #8568A2",
"t.	c #EAF7F9",
"u.	c #BB9BCB",
"v.	c #64C8D1",
"w.	c #96D8DF",
"x.	c #B795C7",
"y.	c #9A75AC",
"z.	c #FDFDFD",
"A.	c #836AA3",
"B.	c #E8F7F7",
"C.	c #B99BCA",
"D.	c #AF8EBF",
"E.	c #885F9E",
"F.	c #90D7DD",
"G.	c #7989B2",
"H.	c #DEF3F3",
"I.	c #67C5D0",
"J.	c #885D9E",
"K.	c #7A8BB3",
"L.	c #6FA7C1",
"M.	c #70A7C1",
"N.	c #63C7D1",
"O.	c #A0DDE1",
"P.	c #68C8D1",
"Q.	c #B1E4E7",
"R.	c #FEFEFF",
"                                                                                                                              ",
"                              . . . . .                                                                                       ",
"            . . . . . . . . . . . . . . .                                                 . . . .                             ",
"          . . . . . . . . . . + + @ # @ . .                                             . . . . . . . . .                     ",
"        . . $ % & & & & * = - & ; > , * . .                                           . . & ' ) ! . . . . . . . . .           ",
"      . . . ' ~ , , , , , , , , , , ~ & . . {                                         . . ] , ^ / & & ( _ : . . . . . . .     ",
"    . . < [ [ } , , , , , | 1 , , , , = . . {                                       . . / , , , , , , , 2 = - & 3 ! . . . .   ",
"  . . 4 5 6 6 7 , , , , , | | 8 , , , 9 @ . .                                       . _ 0 , , , , , , , , , , , | a ] + . .   ",
"  . b / 6 6 6 c , , , , d | | | , , , e * . .                                       . + f , , , , , , , , , , , | | & _ . !   ",
"  . g h 6 6 6 6 , , , , i | | | j , , , k . .                                     . . & , , , , , , , , , , , l | | a . . m   ",
"  . n 6 6 6 6 6 , , , ~ , o | | p , , , & . . q                                   . q = , , , , , , , , , , , | | / r . .     ",
"  . _ 0 6 6 6 6 s , | | , , , , , , , , t u . .               . . .             . . / , , , , , , , , , , , | | | - . . v     ",
"  . . w x 6 6 6 y , | | , , , , , , , , z a . .             . . . . .           . . A , , , , , , , , , , , B | ' @ . .       ",
"    . . . & C 6 D , , , , | p , , , , , , E . . F         . . G H . .           . I J , , , , , , , , , , K | | & . . .       ",
"    . @ & 6 6 6 6 , , , L | e , , , , , , * . . .       . . M N ' @ . .       . . & , , , , , , , , , , , | | O ) . .         ",
"    . P Q 6 6 6 6 z , , , , , , , , , , , R S . .     . . T = , , & . . .     . $ 0 , , , , , , , , , , U | | & . . .         ",
"  . . & 6 6 6 6 6 V , , , , , , , , , , , , / . . . . . W 0 , , , } X . . . . . / 7 , , , , , , , , , , | | Y u . .           ",
"  . . Z 6 6 6 6 6 6 , , , , , , , , , , , , & . . . . `  ., , , , , * . . . . . .., , , , , , , , , , +.| | & . . .           ",
"    . _ ; 6 6 6 6 6 , , , , , , , , , , , , @.! . . #.& , , , , , , , & . . . $.%., , &., , , , , , , *.| =.@ . .             ",
"    . . -.0 6 6 6 6 ~ , , , , , , , , , , , , / . ;.& , , , , , , , , } / . . & , , p | >., , , , , p | | & . . .             ",
"      . . ! ] Q 6 6 ,., , , , , , , , , , , , & '.x , , , , , , , , , , ' . u )., , B | !., , , , ~ ~.| {.! . .               ",
"      . . & 6 6 6 6 6 , , , , , , , , , , , , ].x , , , , , , , , , , , , & ^., , , /.| , , K | , e | | & . . .               ",
"      . @ (.6 6 6 6 6 _., , , , , , , , , , , e , , , , , , , , , , , , , } - , , , , , , , | | | :.| <.! . .                 ",
"      . . [.6 6 6 6 6 8 , , , , , , , , , , , , , , , , , , , , , , , , , , z , , , , , , , | | R | | }.. . .                 ",
"      . . x 6 6 6 6 6 |., , , , , , , , , , , , , , , , , , , , , , , , , , , , , , 1.| | , , , | | 2.3.. .                   ",
"      . . [ 4.6 6 6 6 6 , , , , , , , , , , , , , , , , , , , , , , , , , , , , , , | | | %., 1 | | 5.. . .                   ",
"        . . 0 0 6.7.8.9.7 , , , , , , , , , , , , , , , , , , , , , , , , , , , , &.| | | , , | | | 0.. .                     ",
"        . . . . a.' ] b.J p , , , , , , , , , , , , , , , , , , , , , , , , , , , p | | | , p | *.' @ . .                     ",
"          . . . . . . . c., , , , , , , , , , , , , , , z , , , , , , , , , , , , , p | d., | | e.f.. .                       ",
"              . . . . . & , , , , , , , , , , , , , , ^ g., , , , , , , , , , , , , , , , h.| | x . . .                       ",
"                    . . / , , , , , , , , , , , , , , e | i., , , , , , , , , , , , , , , | | | 5.. .                         ",
"                      . j.k., , , , , , , , , , , , , | | | , , , , , , , , , , , , , , p | | & . . .                         ",
"                      . : N , , , , , , , , , , , , _.| | E } , , , , , , , , , , , , , l.| *.a.. . m.                        ",
"                      . . & , , , , , , , , , , , , | | n.= o., , , , , , , , , , , , , | | / . . .                           ",
"                      . . p., , , , , , , , , , , p | | O . k , , , , , , , , , , , , q.| r.' . . .                           ",
"                        . x J , , , , , , , , , , | | s.t.. ^.&., , , , , , , , , , , | | ' . . .                             ",
"                        . r - , , , , , , , , , u.| | v.@ . w.x., , , , , , , , , , y.| | O . . z.                            ",
"                        . . & , , , , , , , , , | | A.B.. . . & , , , , , , , , , , | | x . . .                               ",
"                        . . O , , , , , , J p %.| | & . . . . x C., , , , , , , , D.| E.] . . .                               ",
"                          . F.*.| | | | | | | | | G.. . . . . H.e.| | | | | | | | | | ] . . .                                 ",
"                          . u I.| | | | | | | | *.] . . +   . . & | | | | | | | | | l X . . .                                 ",
"                          . . & | | *.e.*.J.| | K.q . .     . . & L.M.M.M.M.M.M.M.M.N._ . .                                   ",
"                          . . O.& * P.Q.R.! : R.) . . @       . . . . . . . . . . . . . . .                                   ",
"                            . . . . . . . . . . . . .         . . . . . . . . . . . . . .                                     ",
"                              . . . . . . . . . . @             z.. . . . . . . . . . .                                       ",
"                                                                                                                              ",
"                                                                                                                              ",
"                                                                                                                              ",
"                                                                                                                              ",
"                                                                                                                              "};
