/* XPM */
static char * x_xpm[] = {
"47 48 132 2",
"  	c None",
". 	c #FFFFFF",
"+ 	c #FFFFFD",
"@ 	c #FEFFFF",
"# 	c #FFFFFC",
"$ 	c #FFFFFE",
"% 	c #F8931F",
"& 	c #F7931E",
"* 	c #F6981F",
"= 	c #FEFFFD",
"- 	c #FEFEFE",
"; 	c #F7931D",
"> 	c #FFCE34",
", 	c #FCE1C2",
"' 	c #F9A525",
") 	c #FAA926",
"! 	c #FFFEFE",
"~ 	c #F7941F",
"{ 	c #F8931D",
"] 	c #FFFEFF",
"^ 	c #F6931D",
"/ 	c #FABD2C",
"( 	c #F8941D",
"_ 	c #F89E33",
": 	c #F7921C",
"< 	c #FFCC33",
"[ 	c #F8931E",
"} 	c #FFFAF6",
"| 	c #F79321",
"1 	c #65C7D0",
"2 	c #66C7D1",
"3 	c #64C8CF",
"4 	c #65C8D0",
"5 	c #FBB72C",
"6 	c #F7941E",
"7 	c #F5941F",
"8 	c #FFCF34",
"9 	c #FECF33",
"0 	c #65C6D0",
"a 	c #63C9D0",
"b 	c #FFCD34",
"c 	c #F9931E",
"d 	c #FFCE33",
"e 	c #64C7CF",
"f 	c #FECD34",
"g 	c #FEA60B",
"h 	c #FECE33",
"i 	c #FFA50A",
"j 	c #FFA60C",
"k 	c #FFCD33",
"l 	c #F7941D",
"m 	c #FFD034",
"n 	c #FFCD35",
"o 	c #FFA50C",
"p 	c #FFA60A",
"q 	c #FEFEFD",
"r 	c #F7931F",
"s 	c #FEA60C",
"t 	c #F7921E",
"u 	c #F7921F",
"v 	c #FFA60B",
"w 	c #FEAB12",
"x 	c #FEC62B",
"y 	c #FEAE15",
"z 	c #FEFEFF",
"A 	c #FFD036",
"B 	c #F7931C",
"C 	c #FFFDFD",
"D 	c #FDF8EF",
"E 	c #F6931E",
"F 	c #FECE34",
"G 	c #FEE9D2",
"H 	c #F8A039",
"I 	c #F89820",
"J 	c #FDA60B",
"K 	c #FFA30C",
"L 	c #FCCD33",
"M 	c #FF8602",
"N 	c #FFA60E",
"O 	c #F5931D",
"P 	c #D99F42",
"Q 	c #F8921E",
"R 	c #FEFFFE",
"S 	c #68C7D1",
"T 	c #FFCE35",
"U 	c #6BC5C8",
"V 	c #64C7D0",
"W 	c #FEFFFC",
"X 	c #F89725",
"Y 	c #65C7D1",
"Z 	c #66C7D0",
"` 	c #FCCA92",
" .	c #F9A225",
"..	c #65C8CF",
"+.	c #CBCD67",
"@.	c #FFA60D",
"#.	c #66C9CF",
"$.	c #FFC232",
"%.	c #64C8D0",
"&.	c #FFCE32",
"*.	c #FECE36",
"=.	c #F7911E",
"-.	c #65C7CF",
";.	c #FDB015",
">.	c #FFC72D",
",.	c #FFA70B",
"'.	c #F89320",
").	c #FECD33",
"!.	c #FEA70C",
"~.	c #FDCE33",
"{.	c #FDFFFF",
"].	c #FEC52A",
"^.	c #FEA60A",
"/.	c #FEFEFC",
"(.	c #FFC729",
"_.	c #FDFDFD",
":.	c #FECE35",
"<.	c #FEFBF9",
"[.	c #F6951B",
"}.	c #F9AE57",
"|.	c #F8B058",
"1.	c #FDC833",
"2.	c #FFA40A",
"3.	c #F6941D",
"4.	c #FFFDFF",
"5.	c #F7921D",
"6.	c #FFFCFF",
"7.	c #FEA50A",
"8.	c #FFA609",
"9.	c #FEF1E4",
"0.	c #FFFEFD",
"a.	c #F79420",
"                                                                                              ",
"                                                                                              ",
"                                                                                              ",
"                                                        . +                                   ",
"                          . . . .                   . . . . .                                 ",
"                        . . . . . .                 . @ # . . .                               ",
"                      . . $ % + . . .             . . & * % = . .                             ",
"                    . . - ; > & . . . . . . . . . . , ' > ) % ! . .                           ",
"                  . . @ ~ > > > { + . . . . . . . ] ^ > > > / % . . .                         ",
"                . . . % > > > > > { + . . (     _ : > > > > > < % @ . .                       ",
"              . . . [ > > > > > > > [ } | 1 2 3 4 5 > > > > > > > 6 $ . .                     ",
"            . . . 7 8 > > > > > > > 9 % 1 4 2 0 a > > > > > > > > b ^ . . .                   ",
"          . . @ c > > > > > > > > > > d 1 e     f > > > > > > g d > > & . . .                 ",
"          . . % > > > > > > > > > > > > h       > > > > > > i j j k > > l . . .               ",
"        . . % > > > > > > > > > > > > > > m   n > > > > > > o j j j > > p : . . .             ",
"          . q r > > > > > > > > > > > > > > > > > > > > > > j j j j > s j p t . .             ",
"          . . + u > > > > > > > > > > > > > > > > > > > v > > w j x y j j t @ . .             ",
"            . . z { > > > > > > > > > > > > > > > > > > j j > > > A j j B $ . . C             ",
"              . . D E > > > > > > > > > > > > > > > > F j h > > > j j l G . . -               ",
"                . . H I > > > > > > > > > > > > > > > > > > J j i j K E . . .                 ",
"              . . . . [ L > > > > > > > > > > > > > > > > > v M j N O . . .                   ",
"              . $ r & P Q k > > > > > > > > > > > > > > > > v j j % R . .                     ",
"            . . ; S 1 1 1 1 T > > > > > > > > > > > > > > > p j ; . . .                       ",
"            . ] U 1 1 1 1 1 1 k > > > > > > > > > > > > > > > & $ . . .                       ",
"          . . % V 1 1 1 1 1 1 h > > > > > > > > > > > > > > > > ; W . . .                     ",
"      . . . . X Y 1 1 1 1 Z > > > > > > > > > > > > > > > > > > > E ` . . .                   ",
"    . . = r % % [ 1 1 1 Y > > > > > > > > > > > > > > > > > > > > >  .% @ . . .               ",
"    . ] ; 1 1 1 1 1 1 ..> > > > > > > > > > > > > > > > > > > > > > > > [ z . . .             ",
"  . . % 1 1 1 1 1 1 ..> > > > > > > > > > > > > > > > > > > > > > > > > > E q . . .           ",
"  . . ; 1 1 1 1 1 +.> > @.j > > > > > > > > > > > > > > > > > > > > > > > > 6 ; . . .         ",
"  . . & 1 1 1 #.> > > > j j > > > > > > > > > > > > > > > > > > > > > > > > > $.% ] . . .     ",
"  . . % 1 1 %.> > > > > j j > > j &.> > > > > *.> > > > > > > > > > > > > > > > h % . . .     ",
"  . . ! =.-.> > > > > > ;.d > >.j j > > > > j ,.F > > > > > > > > > > > > > > > g j '.. . .   ",
"    . . % ).> > > > > > > > > !.j j > > > j j j u > > > > > > > > > > > > > > p j p % . . .   ",
"    . R ; > > > > > > > ,.v ~.> j n > > v j j : R % > > > > > > > > > > > > o j j % ! . .     ",
"    . . {.; > > > > > ].j j j > > > > v j j { $ . c > > > > > > > > > > > p j j [ z . .       ",
"      . . {.[ > b > > v j j j > > > ^.j j t + . . /.{ > > > > > > > > > (.j j % . . . _.      ",
"        . . ] % > > > g j j j > > ^.j j ; $ . . . . @ & > > > > > > > :.j j % <.. . .         ",
"          . . @ % T > n j j > > ^.j j { $ . . .   . . $ E > > > > > > j j [.}.. . .           ",
"            . . . % 8 > > > > g j j [ ] . . .       . . |.1.> > > > p j 2.3.. . .             ",
"              . . . % F > > g j j ; 4.. . _.          . . t k > > ^.j j 5.. . .               ",
"                . . . % > ^.j j t 6.. . _.              . . '.> 7.j j % . . .                 ",
"                  . . . % 8.j { 4.. . _.                . . . % j j { @ . .                   ",
"                    . . . & [ ] . . -                     . . 9.& t . . . .                   ",
"                      . . . 0.. . .                         . . a.. . . .                     ",
"                        . . . . .                             . . . . .                       ",
"                          $ . .                               . . . .                         ",
"                                                                                              "};
