/* XPM */
static char * y_xpm[] = {
"49 46 132 2",
"  	c None",
". 	c #FFFFFF",
"+ 	c #FFFEFF",
"@ 	c #FDFDFF",
"# 	c #FEFEFE",
"$ 	c #FFFDFF",
"% 	c #FECF34",
"& 	c #FECE34",
"* 	c #FFCE33",
"= 	c #FFFFFE",
"- 	c #FFCD34",
"; 	c #FFCD36",
"> 	c #FEFCF1",
", 	c #FFCE34",
"' 	c #8CC63E",
") 	c #88C43E",
"! 	c #FECD33",
"~ 	c #FFFFFD",
"{ 	c #FEFFFD",
"] 	c #FECE35",
"^ 	c #FFCD35",
"/ 	c #FFFDF8",
"( 	c #FEFEFD",
"_ 	c #FDCF34",
": 	c #FDCE32",
"< 	c #8CC53F",
"[ 	c #89C73D",
"} 	c #8DC53F",
"| 	c #4D9A10",
"1 	c #84C139",
"2 	c #FECE33",
"3 	c #FEFCF2",
"4 	c #8BC63F",
"5 	c #9EC93B",
"6 	c #8DC63E",
"7 	c #FDCF33",
"8 	c #FFFEFC",
"9 	c #FFD34D",
"0 	c #FEFFFF",
"a 	c #81BE36",
"b 	c #8DC640",
"c 	c #DECB37",
"d 	c #88C33E",
"e 	c #4D9A11",
"f 	c #8DC540",
"g 	c #8BC63E",
"h 	c #FFCE35",
"i 	c #8EC641",
"j 	c #8AC53D",
"k 	c #4F9A0F",
"l 	c #8DC73F",
"m 	c #8CC540",
"n 	c #4A9B0E",
"o 	c #FDFFFC",
"p 	c #ED1B24",
"q 	c #EC1D24",
"r 	c #EE1C24",
"s 	c #8CC63D",
"t 	c #509C12",
"u 	c #589D13",
"v 	c #FFFEFE",
"w 	c #EE1B24",
"x 	c #8EC53F",
"y 	c #5EA51C",
"z 	c #F5CB31",
"A 	c #FFD554",
"B 	c #ED1C23",
"C 	c #ED1C26",
"D 	c #4C9B10",
"E 	c #FDDD6D",
"F 	c #565F7D",
"G 	c #EC1C23",
"H 	c #FEC733",
"I 	c #4C990F",
"J 	c #4E9B11",
"K 	c #EC1D26",
"L 	c #EC1C24",
"M 	c #4F9812",
"N 	c #FCFFFE",
"O 	c #ED1C21",
"P 	c #8CC640",
"Q 	c #94AF1E",
"R 	c #EC1B23",
"S 	c #8DC63F",
"T 	c #FDCE33",
"U 	c #EEEEF2",
"V 	c #EE1C23",
"W 	c #8DC43E",
"X 	c #67A314",
"Y 	c #FFF4D5",
"Z 	c #111D4A",
"` 	c #FFD860",
" .	c #CCC02A",
"..	c #88C43C",
"+.	c #FFF8E2",
"@.	c #F2CA30",
"#.	c #FEFEFC",
"$.	c #82BF38",
"%.	c #FDCE36",
"&.	c #FFCD33",
"*.	c #FDB932",
"=.	c #8DC53E",
"-.	c #FDCD33",
";.	c #4E9A11",
">.	c #4E9A10",
",.	c #71B32B",
"'.	c #4D9912",
").	c #8AC640",
"!.	c #FECD36",
"~.	c #4E9910",
"{.	c #61A91F",
"].	c #4F990E",
"^.	c #4C9A11",
"/.	c #7EBA33",
"(.	c #8AC63E",
"_.	c #8BC43D",
":.	c #4D990F",
"<.	c #4D9B0F",
"[.	c #4C9A10",
"}.	c #6CAD25",
"|.	c #85C03B",
"1.	c #8BC73F",
"2.	c #FFCF34",
"3.	c #C7BE29",
"4.	c #6EA414",
"5.	c #4E9911",
"6.	c #FEFFFE",
"7.	c #FCEBA4",
"8.	c #FFCF38",
"9.	c #FCCF34",
"0.	c #676E8E",
"a.	c #BFC2CE",
"                            .                             . . . .                                 ",
"                        . . . . .                       . . + . . . @                             ",
"                      . . # + . . $                   . . % & * . . . .                           ",
"                    . . = - ; = . . .               . . > , ' ) , = . . .                         ",
"                  . . . , ' ' ! ~ . .             . . { ] ' ' ' ' ^ / . . .                       ",
"                . . ( * ' ' ' ' _ = . . .         . . : ' ' ' ' ' ' & - . . . .                   ",
"              . . = & < ' ' ' ' [ * ~ . . .     . . , } ' ' ' ' | | ' 1 2 . . . .                 ",
"            . . 3 , ' ' ' ' ' ' ' 4 , . . . . . . - 5 ' ' ' ' ' | | | ' 6 7 8 . . . .             ",
"          . . 9 2 ' ' ' ' ' ' ' ' ' ' , + . . . 0 & ' ' ' ' ' a | | | ' ' b , * . . . ~           ",
"        . . & c ' ' ' ' ' ' ' ' ' ' ' } , . . . ! ' ' ' ' ' ' ' | | | d ' ' ' e , # . . .         ",
"      . . , f ' ' ' ' ' ' ' ' ' ' ' ' ' g , . h i ' ' ' ' j k ' l | | ' ' m | | n 2 o . .         ",
"      . . ] p ' ' ' ' ' ' ' ' ' ' ' ' ' ' g , g ' ' ' ' ' | | ' ' ' ' ' 6 | | | | ] + . .         ",
"      . , q p r ' ' ' ' ' ' ' ' ' ' ' ' ' ' s ' ' ' ' ' ' t | ' ' ' ' b | | | u , v . .           ",
"      . - p p p w ' ' ' ' ' ' ' ' ' ' ' ' ' ' ' ' ' ' ' ' ' ' x | ' y | | | z , . . . ~           ",
"      . A B p p p C ' ' ' ' ' ' ' ' ' ' ' ' ' ' ' ' ' ' ' ' ' D | e | | | * E . . . F             ",
"      . . , G p p p H ' ' ' ' ' ' ' ' ' ' ' ' ' ' ' ' ' ' ' ' ' I | | J , { . . .                 ",
"      . . = ^ , , , p K ' ' ' ' ' ' ' ' ' ' ' ' ' ' ' ' ' ' ' | | | e , = . . .                   ",
"        . . . . 2 p p p L ' ' ' ' ' ' ' ' ' ' ' ' ' ' ' ' 6 | | | | * . . . 0                     ",
"          . . . , p p p p p ' ' ' ' ' ' ' ' ' ' ' ' ' ' ' | | | M ! . . . N                       ",
"            . . , p p p p p O ' ' ' ' ' ' ' ' ' ' ' ' P | | | Q & . . . +                         ",
"            . . & R p p p p p p ' ' ' ' ' ' ' ' ' ' ' S | | T ^ . . . U                           ",
"              . . , p p p V p p p W ' ' ' ' ' ' ' ' ' ' J X Y . . . Z                             ",
"              . . . & , , 2 p p p p 4 ' ' ' ' ' ' ' ' ' 4 | , . . .                               ",
"                . . . . ` p p p p p p ' ' ' ' ' ' ' ' ' ' |  .= . .                               ",
"                  . . . * p p p p p p ' ' ' ' ' ' ' ' ' ' ..| , . . =                             ",
"                      . +.p p p p p p ' ' ' ' ' ' ' ' ' ' ' | @.#.. .                             ",
"                      . . , L p p p p ' ' g ' ' ' ' ' ' ' ' $.| %.. . ~                           ",
"                      . . . &.& p *., ' ' | =.' ' ' ' ' ' ' ' | -.+ . .                           ",
"                        . . . = . . , ' ;.| >.' ' ' ' ' ' ' ' ,.'., . . ~                         ",
"                          . . . . . , ' | | 4 ' ' | ' ' ' ' ' ).| !.. . .                         ",
"                              . . . , ' ' ' ' ' ~.| {.' ' ' ' ' ].^.&.. . .                       ",
"                                . . , ' ' ' ' ' | | /.' ' ' ' ' (.| , . . #                       ",
"                                . . , ' ' | J ' l _.' ' ' ' ' ' ' :.<., . . ~                     ",
"                                . . , ' [.| | ' ' ' ' ' ' ' ' ' ' ' | , . . .                     ",
"                                . . , ' | | | ' ' ' ' ' ' ' ' ' ' ' [.;.2 . . .                   ",
"                                . . , ' | | | ' ' ' ' ' ' ' ' ' ' ' g | , . . .                   ",
"                                . . , ' [.| [.' ' ' ' ' ' ' ' ' ' ' ' | D T . .                   ",
"                                . . & | }.|.1.' ' ' ' ' ' ' ' ' ' ' ' ' | , + . .                 ",
"                                . . , | | | | | | | | | | | | | | | | | | J & . .                 ",
"                                . # 2 * , , , , , , , % & 2.& 3.4.| [.[.5.| , + . .               ",
"                                . . . . . . . . . . . . . . . . . . 6.7.8.%.9.. . .               ",
"                                  . . . . . . . . . . . . . . . . . . . . . . . .                 ",
"                                            0.a.. . . . . . . . . . . . . . . .                   ",
"                                                                                                  ",
"                                                                                                  ",
"                                                                                                  "};
