/* XPM */
static char * Character_green_left_xpm[] = {
"54 64 454 2",
"  	c #70A853",
". 	c #63A04B",
"+ 	c #6EA752",
"@ 	c #70A852",
"# 	c #6EA551",
"$ 	c #6DA14B",
"% 	c #70A752",
"& 	c #71A652",
"* 	c #7B934C",
"= 	c #73A351",
"- 	c #61994A",
"; 	c #77A561",
"> 	c #8F998C",
", 	c #7EA26F",
"' 	c #6B9C45",
") 	c #668610",
"! 	c #688701",
"~ 	c #678B21",
"{ 	c #6DA34F",
"] 	c #6FA451",
"^ 	c #79924A",
"/ 	c #73994C",
"( 	c #7F8848",
"_ 	c #73A251",
": 	c #66A14E",
"< 	c #6CA551",
"[ 	c #6B9E48",
"} 	c #688702",
"| 	c #699232",
"1 	c #5A9146",
"2 	c #589045",
"3 	c #649B4C",
"4 	c #76934A",
"5 	c #6B9B43",
"6 	c #678A1F",
"7 	c #669F4C",
"8 	c #5D9A47",
"9 	c #69A14F",
"0 	c #6FA753",
"a 	c #6BA14F",
"b 	c #63923F",
"c 	c #5D7800",
"d 	c #5E7A01",
"e 	c #678601",
"f 	c #678715",
"g 	c #68A04F",
"h 	c #68A04E",
"i 	c #588F45",
"j 	c #6DA451",
"k 	c #5CA34F",
"l 	c #59B65B",
"m 	c #54C760",
"n 	c #4FCB62",
"o 	c #52D568",
"p 	c #54D769",
"q 	c #51D466",
"r 	c #4FCA61",
"s 	c #4FA74B",
"t 	c #638229",
"u 	c #648621",
"v 	c #6FA44F",
"w 	c #6EA149",
"x 	c #6EA24B",
"y 	c #6FA651",
"z 	c #6BA550",
"A 	c #437839",
"B 	c #49833C",
"C 	c #619B4A",
"D 	c #6A9F4E",
"E 	c #5DAA54",
"F 	c #50C960",
"G 	c #53D768",
"H 	c #53D769",
"I 	c #55D769",
"J 	c #50CB63",
"K 	c #568E2F",
"L 	c #628320",
"M 	c #698D22",
"N 	c #68880C",
"O 	c #6EA048",
"P 	c #65A953",
"Q 	c #50CA61",
"R 	c #53D467",
"S 	c #52A545",
"T 	c #658201",
"U 	c #66881D",
"V 	c #62A651",
"W 	c #52D166",
"X 	c #51B250",
"Y 	c #668502",
"Z 	c #6CA04D",
"` 	c #60A34F",
" .	c #50D064",
"..	c #4EAC4D",
"+.	c #668501",
"@.	c #6C9C4C",
"#.	c #64A751",
"$.	c #51D065",
"%.	c #54B24E",
"&.	c #668609",
"*.	c #6BA04F",
"=.	c #6BA451",
"-.	c #52CC63",
";.	c #51D165",
">.	c #369445",
",.	c #2C7A38",
"'.	c #348D42",
").	c #53D668",
"!.	c #56A140",
"~.	c #648E3A",
"{.	c #70A753",
"].	c #55BC5B",
"^.	c #4BC65F",
"/.	c #184D21",
"(.	c #000000",
"_.	c #D1D1D1",
":.	c #ABABAB",
"<.	c #45B657",
"[.	c #53D366",
"}.	c #63893E",
"|.	c #68953D",
"1.	c #699338",
"2.	c #68933A",
"3.	c #6C9C44",
"4.	c #74A251",
"5.	c #79964D",
"6.	c #5EAE54",
"7.	c #21602B",
"8.	c #5F5F5F",
"9.	c #4E4E4E",
"0.	c #F6F6F6",
"a.	c #AEAEAE",
"b.	c #3DA44E",
"c.	c #52D768",
"d.	c #51B957",
"e.	c #688919",
"f.	c #6C9E48",
"g.	c #709F4E",
"h.	c #7F7E43",
"i.	c #6DA551",
"j.	c #5B9246",
"k.	c #50CC63",
"l.	c #F0F0F0",
"m.	c #CDCDCD",
"n.	c #070808",
"o.	c #5D9A35",
"p.	c #698702",
"q.	c #6FA752",
"r.	c #5F9649",
"s.	c #4C813E",
"t.	c #4CA750",
"u.	c #399B49",
"v.	c #FDFDFD",
"w.	c #C8C8C8",
"x.	c #41AC52",
"y.	c #53BF57",
"z.	c #57873D",
"A.	c #65A14C",
"B.	c #54C961",
"C.	c #3C9446",
"D.	c #150101",
"E.	c #6E6E6E",
"F.	c #363636",
"G.	c #4CC65F",
"H.	c #52D466",
"I.	c #638611",
"J.	c #619441",
"K.	c #568B44",
"L.	c #4E803F",
"M.	c #6DA351",
"N.	c #52D567",
"O.	c #619E4C",
"P.	c #D02635",
"Q.	c #931823",
"R.	c #721018",
"S.	c #A71C28",
"T.	c #7B733B",
"U.	c #5D9E38",
"V.	c #67880D",
"W.	c #66A04C",
"X.	c #5C9846",
"Y.	c #669F4D",
"Z.	c #669A4C",
"`.	c #4BC55F",
" +	c #C52A32",
".+	c #F72F40",
"++	c #DC2B38",
"@+	c #907940",
"#+	c #4ECC62",
"$+	c #57B34D",
"%+	c #678A20",
"&+	c #68A953",
"*+	c #46BA59",
"=+	c #41AE53",
"-+	c #4DC961",
";+	c #51C45C",
">+	c #689032",
",+	c #769C4F",
"'+	c #7D8F4A",
")+	c #6AA953",
"!+	c #4DC55F",
"~+	c #68860A",
"{+	c #69902E",
"]+	c #6DA550",
"^+	c #6EA652",
"/+	c #52D265",
"(+	c #55D569",
"_+	c #67891D",
":+	c #689234",
"<+	c #5AC660",
"[+	c #51D265",
"}+	c #61972E",
"|+	c #688700",
"1+	c #66850F",
"2+	c #63B759",
"3+	c #4FCE63",
"4+	c #4ECA61",
"5+	c #4ECB62",
"6+	c #4DCA61",
"7+	c #4DCB61",
"8+	c #54D768",
"9+	c #63A338",
"0+	c #688808",
"a+	c #6EA853",
"b+	c #54D065",
"c+	c #53D868",
"d+	c #62A339",
"e+	c #67880C",
"f+	c #5AAE52",
"g+	c #4FCF64",
"h+	c #5FA039",
"i+	c #658718",
"j+	c #59BC5B",
"k+	c #639C40",
"l+	c #648102",
"m+	c #668A2F",
"n+	c #749F5C",
"o+	c #5CB95A",
"p+	c #52D467",
"q+	c #49BF5C",
"r+	c #55D86A",
"s+	c #5F9E3D",
"t+	c #6B8938",
"u+	c #6EA451",
"v+	c #69A44E",
"w+	c #65AB53",
"x+	c #56C861",
"y+	c #50CD62",
"z+	c #65BA4E",
"A+	c #48BE5B",
"B+	c #5EA43C",
"C+	c #699438",
"D+	c #6FA652",
"E+	c #68AA53",
"F+	c #63B156",
"G+	c #7CB139",
"H+	c #8EC339",
"I+	c #9BD03C",
"J+	c #A5CE27",
"K+	c #B8D803",
"L+	c #91C234",
"M+	c #5AAF48",
"N+	c #5B9B4C",
"O+	c #A4C31B",
"P+	c #C1E202",
"Q+	c #C0E202",
"R+	c #C0E002",
"S+	c #66BF52",
"T+	c #53C159",
"U+	c #698802",
"V+	c #688819",
"W+	c #60964E",
"X+	c #52B558",
"Y+	c #689F4E",
"Z+	c #AFCA05",
"`+	c #C0DC01",
" @	c #C0DC02",
".@	c #C0DB01",
"+@	c #B2CD06",
"@@	c #50CF64",
"#@	c #50D065",
"$@	c #63840D",
"%@	c #4BB656",
"&@	c #4CAA50",
"*@	c #6DA651",
"=@	c #4F8540",
"-@	c #3B6E36",
";@	c #B5D402",
">@	c #90C538",
",@	c #5AA33F",
"'@	c #6A973E",
")@	c #6BA752",
"!@	c #63AD54",
"~@	c #5B9646",
"{@	c #BDD702",
"]@	c #C0DE02",
"^@	c #65BE52",
"/@	c #53C85F",
"(@	c #699235",
"_@	c #6B9D47",
":@	c #7C8545",
"<@	c #779C4F",
"[@	c #59BF5C",
"}@	c #69AB54",
"|@	c #C0E102",
"1@	c #AFCB03",
"2@	c #5DBC5B",
"3@	c #5EB257",
"4@	c #6AAB54",
"5@	c #92C030",
"6@	c #5DBB5A",
"7@	c #5EB95A",
"8@	c #6AA04F",
"9@	c #B9D803",
"0@	c #C0DD02",
"a@	c #C0DB02",
"b@	c #81C144",
"c@	c #5EB458",
"d@	c #6BAA53",
"e@	c #5AC560",
"f@	c #70A451",
"g@	c #B3D30B",
"h@	c #6DC351",
"i@	c #58BE5C",
"j@	c #67A254",
"k@	c #679B4C",
"l@	c #689E4E",
"m@	c #62A752",
"n@	c #56B95A",
"o@	c #57CD62",
"p@	c #AEC81C",
"q@	c #BEDB02",
"r@	c #4EC15C",
"s@	c #58C660",
"t@	c #A1C32A",
"u@	c #B6D602",
"v@	c #4FCD63",
"w@	c #5DC05D",
"x@	c #779049",
"y@	c #8CB037",
"z@	c #AAC802",
"A@	c #63B859",
"B@	c #7DAA44",
"C@	c #BFDC01",
"D@	c #A5BF0F",
"E@	c #758F48",
"F@	c #74A75B",
"G@	c #78A564",
"H@	c #72A756",
"I@	c #6DA24F",
"J@	c #BBD804",
"K@	c #A0C21E",
"L@	c #56C65F",
"M@	c #7E8747",
"N@	c #759A4D",
"O@	c #70A459",
"P@	c #80967C",
"Q@	c #73A55C",
"R@	c #67A34D",
"S@	c #6CA550",
"T@	c #AAC81D",
"U@	c #9CC52E",
"V@	c #68AB54",
"W@	c #71A150",
"X@	c #97BC34",
"Y@	c #A0CC2E",
"Z@	c #5CBD5B",
"`@	c #78A445",
" #	c #ACC810",
".#	c #6DA752",
"+#	c #A7C91F",
"@#	c #58C159",
"##	c #53D064",
"$#	c #69B056",
"%#	c #78A647",
"&#	c #89B332",
"*#	c #54CD63",
"=#	c #8AB037",
"-#	c #69B84D",
";#	c #51D366",
">#	c #56C860",
",#	c #6CA752",
"'#	c #789F36",
")#	c #4DC860",
"!#	c #5DC15E",
"~#	c #64A04C",
"{#	c #57A24E",
"]#	c #4FCC63",
"^#	c #57C25E",
"/#	c #67AE55",
"(#	c #6AAA53",
"_#	c #51C55F",
":#	c #51D266",
"<#	c #65A14F",
"[#	c #6CA451",
"}#	c #528742",
"|#	c #68A34E",
"1#	c #53B959",
"2#	c #59C760",
"3#	c #58C760",
"4#	c #58BA5A",
"5#	c #54B054",
"6#	c #5BBC5B",
"7#	c #5BB758",
"8#	c #50BB5A",
"9#	c #4B853D",
"0#	c #649E4C",
"a#	c #71A855",
"b#	c #6AA44F",
"c#	c #56C55F",
"d#	c #6AA551",
"e#	c #59C05D",
"f#	c #70A854",
"g#	c #789A6F",
"h#	c #72A659",
"i#	c #56C660",
"j#	c #53CD63",
"k#	c #59BF5D",
"l#	c #5B9047",
"m#	c #57C660",
"n#	c #5BBE5C",
"o#	c #55C861",
"p#	c #46843A",
"q#	c #6CB56D",
"r#	c #65D074",
"s#	c #54CA66",
"t#	c #71CE7D",
"u#	c #6BCA77",
"v#	c #67A752",
"w#	c #65B05F",
"x#	c #7FD38A",
"y#	c #54D268",
"z#	c #55D469",
"A#	c #8AD592",
"B#	c #5CBC5B",
"C#	c #B6C8B0",
"D#	c #AFCEB2",
"E#	c #EBEDEB",
"F#	c #B0D2B3",
"G#	c #B4C7B0",
"H#	c #94B487",
"I#	c #C1DFC4",
"J#	c #EBEFEB",
"K#	c #ACCEB0",
"L#	c #EAEBE9",
"M#	c #6AA652",
"N#	c #76A85D",
"O#	c #79A774",
"P#	c #B8C6B3",
"Q#	c #649850",
"R#	c #64A752",
"S#	c #B6CAAF",
"T#	c #82AC76",
"U#	c #76A85E",
"                                                                                                            ",
"                                                                                                            ",
"          . +                   @         # $ $ %                                 & *             =         ",
"-         +                   ; > ,     ' ) ! ! ~ {                               ] ^           / (       _ ",
"                              + : <   [ } ! ! ! ! |                     1 2 3                             4 ",
"                                      5 ! ! ! ! ! 6                     7 8 9                               ",
"                                  0 a b c d e ! ! f                                                         ",
"    g h 0 i               j k l m n o p q r s t ! u   v w x y                                               ",
"    z A B C           D E F G H H p G G G I H J K L M ! ! ! N O                                             ",
"      z z +         P Q G G G G G G G G G G G G R S T ! ! ! ! U                                             ",
"                  V W G H G G G G G G G G G G G G p X Y ! ! ! ! Z                                           ",
"                `  .G G p G G G G G G G G G G G G G G ..+.! } ! @.                                          ",
"              #.$.G G G G G G G G G G G G G G G G G G G %.Y ! &.*.                                          ",
"            =.-.G G ;.>.,.'.).G G G G G G G G G G G G G p !.! ~.                                            ",
"          {.].G G ^./.(._.:.<.p p H G G G G G G G G G G G [.}.|.1.2.3.y             4.5.              =     ",
"          6.G G G 7.8.9.0.a.b.H H G G G G G G c.G G c.G G G d.! } ! ! e.f.          g.5.            {.h.=   ",
"    i.  j.k.G G <.(.l.m.n.(.b.G p G G G G G G G G G G G G G G o.! ! ! p.) q.                          {.    ",
"    r.s.t.G G G u.(.v.w.(.(.x.G G G G G G G G G G G G G G G G y.! ! ! ! ! z.                                ",
"      A.B.G c.G C.D.E.F.(.(.G.p G G G c.G G G G G G G G G G G H.I.! ! ! ! J.K.L.                            ",
"      M.N.G G G O.P.Q.R.S.T.G G G c.G G G G G G G G G c.c.G G p U.! ! ! V.W.X.Y.                            ",
"      Z.G G G G `. +.+++@+#+G H G G G G G G G G G G G G G G G p $+! ! %+[                                   ",
"      &+G G G G G *+=+-+G G G G p G G G G G G G G G G G G G G p ;+! >+%             ,+'+                    ",
"      )+G G G G G G G G G G G G G G G G G c.G G G G G G G G G G !+~+! {+q.          ]+,+                    ",
"      ^+/+G G G G G G G G G G G p G G G G G G G G G c.G G G G G (+_+! ! :+                                  ",
"        <+N.[+G G G G G ).G G G G G G G G G G G c.G G G G G G p G }+|+! 1+                                  ",
"        2+G 3+4+5+6+7+5+5+G G G G 8+G G G G G G G G G G G G G c.G 9+! ! 0+{.                                ",
"        a+b+G G G c+G G G G G G G G p G G G q G G G G G G G G G p d+! } e+                                  ",
"          f+G G G G G G G G c.G c.G p G G g+G.G G G G 8+G G G G G h+! ! i+                                  ",
"            j+G G G G G G G G G G G G G 6+`.G G G G G G G c.G G G k+l+m+n+                                  ",
"            q.o+N.G G G G G G G G G p+q+ .G G G G G G G G G r+G p s+! ! t+u+                                ",
"  v+v+          w+x+G G c.G G G y+z+A+G G G G G G G G G G G G G G B+! ! ! C+                        D+      ",
"  q.q.              E+F+G+H+I+J+K+L+G G G G G G G G G G G G G p p M+! ! ! %+                        N+      ",
"                        O+P+P+Q+R+S+G G G G G G G G G G G G c.p G T+! U+! V+                      W+X+g     ",
"        Y+g             Z+`+ @.@+@@@G G G G G G G G G G G G G G p #@$@! ! %+                    z %@&@      ",
"    *@=@-@*@          # ;@Q+Q+Q+>@G G G G G G G G G G G G G G G G G ,@! ! '@    =               )@q !@      ",
"    ^+~@~@+           j {@Q+Q+]@^@G G G G G G G G G G G G G G G p p /@(@_@      :@<@            [@G }@      ",
"                      j |@.@.@1@[+G G G G G G G G G c.G G G G G G G p 2@        {.            3@G G 4@      ",
"                      ^+.@P+Q+5@G G G G G G G G G G G G G G G G G G G G 6@                  7@G H G 8@      ",
"                      q.9@0@a@b@G G G G G G G G G G G c.c.G G G G G G p G c@            d@e@G p G R f@      ",
"                        g@Q+Q+h@G G G G G G G G G G G G G G G G G G G G G G i@j@k@l@m@n@q G G H G o@*     5.",
"      + .               p@`+q@r@G G G G G G G G G G G G G G G G G G G G G G p G G G G G G G G G G s@  * & g.",
"        +               t@P+u@v@G G G G G G G G G G G G G G G G G G c.G G G G p H G G G G G G p G w@  x@& _ ",
"                        y@|@z@H.G G G G G G G G G G G G G G G G G G G G G G G c.G H G G G G G p G A@      4 ",
"                        B@C@D@G c.G G G G G G G G G G G G G G G G G G G G c.G G G G H G G G p G G E@_       ",
"F@G@H@                  I@J@K@G p G G G G G G G G G G G G G G G G G G G G G G G G G G G G G G G L@  M@<@N@( ",
"O@P@Q@              R@S@  T@U@G p G G G G G G G G G G G G G G G G G G G G G G G G G G G G G p N.V@  W@  + = ",
"                    S@    X@Y@G p G G G G G G G G G G G G G G G G G G G G G G G G G G G G G G Z@            ",
"                          `@ #).G G G G G G G G G G G G G G G G G G G c.G G G G G G G G G G b+.#            ",
"                          q.+#@#G G G G G G G G G G G G G G G G G G G G c.G G G G G G G G ##$#              ",
"                            %#&#).G G G G G G G G G G G G G G G G G G G G G G G G p p G *#}@                ",
"                              =#-#G G G G G G G G ;#G G G G G G G G G G c.G G p G G G >#,#                  ",
"                          S@    '#)#G G G G G G G #+G G G H G G G -+G G G G p G G G !#^+                    ",
"                  +   v+q.A.+   ~#{#N.]#p G G G G #+G G G H G G G -+p G p G G N.^#/#                        ",
"@                 . + v+z   S@R@+   (#_#G G G G G -+G G G G G c.G -+G G G G :#<#                g [#}#      ",
"                    + |#A.    S@+     L@G G G G G 1#2#3#4#5#4#6#7#8#G G G G q ^+                2 9#0#      ",
"          a#        + b#S@      A.S@  c#G G G G G d#              e#G G G G N.D+          S@    + z q.      ",
"        f#g#h#        + A.            i#G G G G j#{.              k#G G G G Q     ^ *                   g l#",
"                            R@S@      m#G G G G 2@                n#G G G G o#    ] &                   S@p#",
"                      +     S@        q#r#s#t#u#v#                w#x#y#z#A#B#                              ",
"                      . +             C#D#E#F#G#                  H#I#J#K#L#M#                              ",
"                                      N#O#P#Q#0           . +       R#S#T#U#          * &                   ",
"                                                          +                           x@&                   ",
"                                                                                          b#+               ",
"                                                                                                            "};
