/* XPM */
static char * Character_green_xpm[] = {
"54 64 709 2",
"  	c #3C2313",
". 	c #3F2616",
"+ 	c #3F2716",
"@ 	c #3E2515",
"# 	c #3F2515",
"$ 	c #402515",
"% 	c #3D2414",
"& 	c #3C2414",
"* 	c #3B2313",
"= 	c #3D2313",
"- 	c #3E2414",
"; 	c #3B2213",
"> 	c #392313",
", 	c #3E2615",
"' 	c #402615",
") 	c #3D2615",
"! 	c #3E2715",
"~ 	c #3F2615",
"{ 	c #3F2715",
"] 	c #3F2414",
"^ 	c #3B2212",
"/ 	c #3C2314",
"( 	c #3E2415",
"_ 	c #392212",
": 	c #3F2514",
"< 	c #3A2212",
"[ 	c #362011",
"} 	c #392213",
"| 	c #3D2514",
"1 	c #382212",
"2 	c #3B2414",
"3 	c #3A2313",
"4 	c #3D2314",
"5 	c #3D2214",
"6 	c #3A2013",
"7 	c #3C2214",
"8 	c #3A2213",
"9 	c #3C2413",
"0 	c #362012",
"a 	c #3E2514",
"b 	c #3B2514",
"c 	c #423912",
"d 	c #4B4E0F",
"e 	c #494E0E",
"f 	c #413D10",
"g 	c #3E2214",
"h 	c #3B2513",
"i 	c #3A2112",
"j 	c #382112",
"k 	c #3B2314",
"l 	c #3C2515",
"m 	c #464012",
"n 	c #5C7207",
"o 	c #637F04",
"p 	c #637F03",
"q 	c #5F7705",
"r 	c #50590E",
"s 	c #3D2813",
"t 	c #382111",
"u 	c #3A2413",
"v 	c #402716",
"w 	c #422F14",
"x 	c #56650C",
"y 	c #688701",
"z 	c #688700",
"A 	c #637E04",
"B 	c #4C510F",
"C 	c #3E2215",
"D 	c #402616",
"E 	c #3D2515",
"F 	c #3D2415",
"G 	c #433514",
"H 	c #5E740A",
"I 	c #668302",
"J 	c #525B0E",
"K 	c #3F2115",
"L 	c #3E2313",
"M 	c #3F2415",
"N 	c #3C2113",
"O 	c #392012",
"P 	c #3F3512",
"Q 	c #5F7808",
"R 	c #678500",
"S 	c #64850F",
"T 	c #628E22",
"U 	c #5F8F27",
"V 	c #507A2D",
"W 	c #40602E",
"X 	c #3E5628",
"Y 	c #3D4C24",
"Z 	c #3C3119",
"` 	c #3F2016",
" .	c #3E2813",
"..	c #454210",
"+.	c #4F540F",
"@.	c #4A4B10",
"#.	c #464112",
"$.	c #596D07",
"%.	c #609130",
"&.	c #55A84A",
"*.	c #4DBC59",
"=.	c #4BC25D",
"-.	c #4FC760",
";.	c #4DC55F",
">.	c #4BBB5A",
",.	c #4AB255",
"'.	c #469C4A",
").	c #448240",
"!.	c #3E5327",
"~.	c #3A1E11",
"{.	c #3B1F12",
"].	c #3A2312",
"^.	c #3F2915",
"/.	c #494F0F",
"(.	c #607A05",
"_.	c #648103",
":.	c #668303",
"<.	c #637E05",
"[.	c #5E7507",
"}.	c #5B760E",
"|.	c #589B3A",
"1.	c #54C35E",
"2.	c #53D669",
"3.	c #54D869",
"4.	c #53D869",
"5.	c #53D868",
"6.	c #50CF64",
"7.	c #4BB959",
"8.	c #439045",
"9.	c #394D25",
"0.	c #3A2514",
"a.	c #413013",
"b.	c #5E7606",
"c.	c #688801",
"d.	c #648814",
"e.	c #54AA48",
"f.	c #52CE63",
"g.	c #53D668",
"h.	c #53D768",
"i.	c #51D065",
"j.	c #4CC05C",
"k.	c #407638",
"l.	c #413812",
"m.	c #668402",
"n.	c #648914",
"o.	c #53B14E",
"p.	c #53D467",
"q.	c #4FC961",
"r.	c #3F7738",
"s.	c #3C2815",
"t.	c #3B2413",
"u.	c #413B16",
"v.	c #698708",
"w.	c #648A16",
"x.	c #51AD4C",
"y.	c #53D567",
"z.	c #54D769",
"A.	c #4DC760",
"B.	c #3D7738",
"C.	c #3C2C17",
"D.	c #3E3113",
"E.	c #617C05",
"F.	c #648B18",
"G.	c #56B04C",
"H.	c #53D466",
"I.	c #53D769",
"J.	c #52D466",
"K.	c #50D164",
"L.	c #52D567",
"M.	c #4EC55F",
"N.	c #417638",
"O.	c #3C2C16",
"P.	c #362112",
"Q.	c #3F2315",
"R.	c #3D2014",
"S.	c #3D2413",
"T.	c #4E570D",
"U.	c #64850C",
"V.	c #59A944",
"W.	c #53D165",
"X.	c #4FCC63",
"Y.	c #51A65C",
"Z.	c #438E4D",
"`.	c #389948",
" +	c #4CC55F",
".+	c #4CBD5B",
"++	c #3F592A",
"@+	c #3D2614",
"#+	c #423612",
"$+	c #50580E",
"%+	c #54630B",
"&+	c #55660B",
"*+	c #576518",
"=+	c #5D913F",
"-+	c #54CA60",
";+	c #52D768",
">+	c #41B454",
",+	c #A8ABA8",
"'+	c #C3C2C3",
")+	c #4B4E4B",
"!+	c #256C30",
"~+	c #47BB5A",
"{+	c #52D667",
"]+	c #48A851",
"^+	c #3E3C1D",
"/+	c #3E2814",
"(+	c #494D0F",
"_+	c #617A05",
":+	c #678602",
"<+	c #63891B",
"[+	c #54B453",
"}+	c #39A74C",
"|+	c #AFADAF",
"1+	c #DCDCDC",
"2+	c #818181",
"3+	c #6D6E6D",
"4+	c #2A7436",
"5+	c #4ECD63",
"6+	c #52D366",
"7+	c #42863F",
"8+	c #3B2815",
"9+	c #3E2314",
"0+	c #413412",
"a+	c #5F7804",
"b+	c #688805",
"c+	c #5F9E36",
"d+	c #3FA850",
"e+	c #251624",
"f+	c #2E2E2E",
"g+	c #D1D1D1",
"h+	c #E7E7E7",
"i+	c #3F5541",
"j+	c #40AC51",
"k+	c #4DC65E",
"l+	c #3A4922",
"m+	c #3C2514",
"n+	c #433D11",
"o+	c #678501",
"p+	c #678B12",
"q+	c #55BA54",
"r+	c #43B154",
"s+	c #000000",
"t+	c #C5C5C5",
"u+	c #E6E6E6",
"v+	c #565856",
"w+	c #369947",
"x+	c #54D969",
"y+	c #449748",
"z+	c #3D1D12",
"A+	c #402715",
"B+	c #433F11",
"C+	c #638E1F",
"D+	c #48BD5B",
"E+	c #23451E",
"F+	c #606363",
"G+	c #898C8C",
"H+	c #361219",
"I+	c #5A9447",
"J+	c #53D969",
"K+	c #4EC05D",
"L+	c #3D361A",
"M+	c #413712",
"N+	c #617C04",
"O+	c #688702",
"P+	c #5D9F39",
"Q+	c #53D667",
"R+	c #4DCF64",
"S+	c #798845",
"T+	c #A51327",
"U+	c #950F1E",
"V+	c #A50C1E",
"W+	c #B92A2F",
"X+	c #7E9B4E",
"Y+	c #51D869",
"Z+	c #50C961",
"`+	c #3F5A2A",
" @	c #3D2013",
".@	c #3A2113",
"+@	c #3D2713",
"@@	c #484A0F",
"#@	c #5D7506",
"$@	c #688804",
"%@	c #58B44D",
"&@	c #54D768",
"*@	c #5DC660",
"=@	c #8E8746",
"-@	c #C63E36",
";@	c #E0323B",
">@	c #BF5A3D",
",@	c #57B959",
"'@	c #4FCA61",
")@	c #3E642E",
"!@	c #3F2013",
"~@	c #3F2714",
"{@	c #453C13",
"]@	c #596B0A",
"^@	c #658405",
"/@	c #53C55C",
"(@	c #57D366",
"_@	c #5EC560",
":@	c #5DAE55",
"<@	c #56B859",
"[@	c #50CC62",
"}@	c #427638",
"|@	c #401F13",
"1@	c #372112",
"2@	c #423712",
"3@	c #678601",
"4@	c #67871E",
"5@	c #52CA60",
"6@	c #50CB62",
"7@	c #437236",
"8@	c #3F2014",
"9@	c #412D14",
"0@	c #54610C",
"a@	c #6A9639",
"b@	c #54D064",
"c@	c #54D868",
"d@	c #50C760",
"e@	c #405026",
"f@	c #443614",
"g@	c #607906",
"h@	c #688600",
"i@	c #5F9E35",
"j@	c #54D365",
"k@	c #4CB758",
"l@	c #392112",
"m@	c #433713",
"n@	c #637F05",
"o@	c #61A83E",
"p@	c #54D465",
"q@	c #4FCF64",
"r@	c #4ECB62",
"s@	c #4ECE63",
"t@	c #4ECC62",
"u@	c #50D265",
"v@	c #459245",
"w@	c #3D1D11",
"x@	c #361F10",
"y@	c #443714",
"z@	c #627D05",
"A@	c #698801",
"B@	c #61A83F",
"C@	c #55D466",
"D@	c #4FC660",
"E@	c #3E4B24",
"F@	c #392111",
"G@	c #433415",
"H@	c #5C7208",
"I@	c #678502",
"J@	c #5EA540",
"K@	c #54D466",
"L@	c #4CC760",
"M@	c #50D064",
"N@	c #52D265",
"O@	c #458540",
"P@	c #3D2A16",
"Q@	c #3F2814",
"R@	c #4B4F10",
"S@	c #5F7805",
"T@	c #668300",
"U@	c #61A345",
"V@	c #54D366",
"W@	c #52D668",
"X@	c #4BC65F",
"Y@	c #51D366",
"Z@	c #48A34E",
"`@	c #3F3A1C",
" #	c #3C2615",
".#	c #3C2213",
"+#	c #413811",
"@#	c #5B6F08",
"##	c #637E03",
"$#	c #678400",
"%#	c #5FA344",
"&#	c #55D467",
"*#	c #4FCE63",
"=#	c #4DC961",
"-#	c #51D668",
";#	c #479B4A",
">#	c #3F4622",
",#	c #3F2914",
"'#	c #52600C",
")#	c #5CAA43",
"!#	c #48BF5C",
"~#	c #70C450",
"{#	c #5BC85C",
"]#	c #51D466",
"^#	c #4AB356",
"/#	c #427939",
"(#	c #3D3A1C",
"_#	c #3F2F18",
":#	c #3E5B2C",
"<#	c #40391D",
"[#	c #412B15",
"}#	c #607806",
"|#	c #59B44D",
"1#	c #54D567",
"2#	c #4ED266",
"3#	c #90C53A",
"4#	c #B3D91F",
"5#	c #A8D229",
"6#	c #9DD037",
"7#	c #97CC3A",
"8#	c #7BAD37",
"9#	c #4A813A",
"0#	c #3C5F2C",
"a#	c #3E4722",
"b#	c #3C2A16",
"c#	c #3D1A11",
"d#	c #47984A",
"e#	c #416330",
"f#	c #412B14",
"g#	c #627C06",
"h#	c #668502",
"i#	c #56C45A",
"j#	c #52D769",
"k#	c #75C44E",
"l#	c #BADD13",
"m#	c #BFE102",
"n#	c #BFE105",
"o#	c #C0E206",
"p#	c #9AB30B",
"q#	c #4D4914",
"r#	c #3D1610",
"s#	c #469E4B",
"t#	c #459A49",
"u#	c #3D351A",
"v#	c #372011",
"w#	c #402A14",
"x#	c #698700",
"y#	c #609229",
"z#	c #54CC60",
"A#	c #56C95F",
"B#	c #B0D21F",
"C#	c #C0DE02",
"D#	c #C0E002",
"E#	c #C1E102",
"F#	c #A4BD04",
"G#	c #524F11",
"H#	c #3E1A11",
"I#	c #448B42",
"J#	c #4DC35E",
"K#	c #3E5D2B",
"L#	c #515B0D",
"M#	c #648102",
"N#	c #5AAC46",
"O#	c #53D265",
"P#	c #92C637",
"Q#	c #BFE005",
"R#	c #C1DF02",
"S#	c #ACC704",
"T#	c #585612",
"U#	c #3C1D11",
"V#	c #427C3B",
"W#	c #50CC63",
"X#	c #48AA51",
"Y#	c #3E3219",
"Z#	c #3E2C13",
"`#	c #4B4E0D",
" $	c #547828",
".$	c #55C05B",
"+$	c #6CC351",
"@$	c #BDDC0A",
"#$	c #C0E102",
"$$	c #C1E002",
"%$	c #B1CA04",
"&$	c #5C5913",
"*$	c #437537",
"=$	c #51CC62",
"-$	c #51D165",
";$	c #46994A",
">$	c #402F18",
",$	c #3F4320",
"'$	c #4AA24D",
")$	c #5AD162",
"!$	c #ABCC16",
"~$	c #C0DD02",
"{$	c #C0DE01",
"]$	c #B4D204",
"^$	c #5E5E13",
"/$	c #3E2013",
"($	c #40612E",
"_$	c #489D4B",
":$	c #40401F",
"<$	c #3F3F1E",
"[$	c #469A49",
"}$	c #57D566",
"|$	c #8EC035",
"1$	c #C1E101",
"2$	c #C0E202",
"3$	c #B4CE04",
"4$	c #5D5B13",
"5$	c #3E2616",
"6$	c #3F2214",
"7$	c #50C861",
"8$	c #4AAB52",
"9$	c #416A32",
"0$	c #3C3A1C",
"a$	c #3D2114",
"b$	c #3D2012",
"c$	c #3E1F13",
"d$	c #3F4521",
"e$	c #459045",
"f$	c #55D667",
"g$	c #7EC347",
"h$	c #C1DD00",
"i$	c #B0CB05",
"j$	c #595912",
"k$	c #3B391B",
"l$	c #4FC65F",
"m$	c #4EC660",
"n$	c #46A14D",
"o$	c #43803D",
"p$	c #426D34",
"q$	c #416B32",
"r$	c #44793D",
"s$	c #48A650",
"t$	c #52D266",
"u$	c #6DC753",
"v$	c #BEDF00",
"w$	c #C1E302",
"x$	c #A7C205",
"y$	c #545111",
"z$	c #3A170F",
"A$	c #4CBE5B",
"B$	c #50CE64",
"C$	c #4DC45E",
"D$	c #51CB64",
"E$	c #67CF5D",
"F$	c #B4D100",
"G$	c #9FB606",
"H$	c #4E4A11",
"I$	c #3B1810",
"J$	c #49B054",
"K$	c #64D461",
"L$	c #ABCD18",
"M$	c #C2E201",
"N$	c #93AA09",
"O$	c #4A4013",
"P$	c #392312",
"Q$	c #3C1B11",
"R$	c #52D467",
"S$	c #60D261",
"T$	c #A2C721",
"U$	c #C1E100",
"V$	c #7E8D0D",
"W$	c #427236",
"X$	c #5DD262",
"Y$	c #9CC32B",
"Z$	c #BAD500",
"`$	c #707A0E",
" %	c #381F12",
".%	c #3F361B",
"+%	c #4BB758",
"@%	c #5CD263",
"#%	c #99C732",
"$%	c #AEC901",
"%%	c #616510",
"&%	c #3B2214",
"*%	c #3E6F34",
"=%	c #50CE63",
"-%	c #5AD363",
";%	c #96C838",
">%	c #A0B703",
",%	c #4F4813",
"'%	c #3E361B",
")%	c #479E4B",
"!%	c #5CD363",
"~%	c #96C837",
"{%	c #91A308",
"]%	c #41602D",
"^%	c #4DBF5C",
"/%	c #61D462",
"(%	c #97C12B",
"_%	c #77830D",
":%	c #3D1D15",
"<%	c #447B3A",
"[%	c #69CB59",
"}%	c #95AD09",
"|%	c #4C4413",
"1%	c #437738",
"2%	c #4DBE5B",
"3%	c #55D164",
"4%	c #80B139",
"5%	c #6E750E",
"6%	c #3D1E15",
"7%	c #3D1911",
"8%	c #3F642F",
"9%	c #4BB356",
"0%	c #6BBB4D",
"a%	c #788A13",
"b%	c #3B1C15",
"c%	c #405528",
"d%	c #49A14D",
"e%	c #51D064",
"f%	c #4EBF5A",
"g%	c #648126",
"h%	c #473B14",
"i%	c #392113",
"j%	c #3E3E1E",
"k%	c #3F7236",
"l%	c #48AE53",
"m%	c #51D266",
"n%	c #4DC65F",
"o%	c #407E3B",
"p%	c #423716",
"q%	c #3C371B",
"r%	c #3D6B32",
"s%	c #4FCC62",
"t%	c #4ECA62",
"u%	c #4CBC5A",
"v%	c #3A2B16",
"w%	c #3A1E12",
"x%	c #50CA61",
"y%	c #48B456",
"z%	c #47A34E",
"A%	c #49A951",
"B%	c #48AB51",
"C%	c #44A24D",
"D%	c #48AC52",
"E%	c #4DBC5A",
"F%	c #4CBB5A",
"G%	c #49B456",
"H%	c #4FCD63",
"I%	c #4BB457",
"J%	c #3A3C1D",
"K%	c #3E2113",
"L%	c #47A34D",
"M%	c #3F341A",
"N%	c #3D160F",
"O%	c #3B150F",
"P%	c #3C1810",
"Q%	c #3D1710",
"R%	c #3C100E",
"S%	c #3B0E0D",
"T%	c #416932",
"U%	c #393C1C",
"V%	c #3A2412",
"W%	c #3D361B",
"X%	c #46A34E",
"Y%	c #41572A",
"Z%	c #4CB959",
"`%	c #3B3C1C",
" &	c #3B1E11",
".&	c #4EC25D",
"+&	c #449E4B",
"@&	c #3A361A",
"#&	c #3E3019",
"$&	c #4CB457",
"%&	c #3D3C1D",
"&&	c #3D2213",
"*&	c #352010",
"=&	c #3D2113",
"-&	c #4BA350",
";&	c #86D38F",
">&	c #67D476",
",&	c #5FD570",
"'&	c #7ED388",
")&	c #588A57",
"!&	c #392F17",
"~&	c #3F2113",
"{&	c #407736",
"]&	c #75BE7D",
"^&	c #69CE77",
"/&	c #64CE73",
"(&	c #63CF73",
"_&	c #6EA470",
":&	c #3A270F",
"<&	c #4C593A",
"[&	c #D3D8D2",
"}&	c #BAD5BC",
"|&	c #C7DAC9",
"1&	c #C7D9C9",
"2&	c #7F7B77",
"3&	c #3B2416",
"4&	c #3E2413",
"5&	c #343000",
"6&	c #B5B8B3",
"7&	c #9BC19F",
"8&	c #DEE6DF",
"9&	c #A8C8AB",
"0&	c #B4B1B0",
"a&	c #351100",
"b&	c #372212",
"c&	c #412719",
"d&	c #645E56",
"e&	c #84917F",
"f&	c #A5ABA2",
"g&	c #6E7B67",
"h&	c #453728",
"i&	c #3E2312",
"j&	c #52443E",
"k&	c #596750",
"l&	c #B3B4B0",
"m&	c #779075",
"n&	c #6E6663",
"o&	c #3B1F0A",
"p&	c #391F0C",
"q&	c #371700",
"r&	c #361200",
"s&	c #3A1C09",
"t&	c #3F2512",
"u&	c #3E200F",
"v&	c #330B00",
"w&	c #391704",
"x&	c #3A1F0A",
"y&	c #382012",
"z&	c #3D2616",
"  . + @ # $ $ % & @ # % * = - $ -   - ; > , ' $ $ = * ) ! # # %   ~ { @ # $ # %   ] # % ^ / ( $ - * - = _ ! ",
": $ % < / = % & @ -     ; [ } @ # % = % | @ $ $ $ * 1 2 3 4 5 6 7 # | 8 =   & 9 - -     * 0 1 # # %   % | : ",
"~ $ a 9     & @ $ # ] ] % ^ % ~ -   8 3 b & ( ( a * ; -   c d e f g - &     & , ' # # - - * & , a   * 3 h 9 ",
"# @ | , % & @ $ $ ] $ $ # - @ %   = i j > 2 / k l a : $ m n o p q r s , % & @ ' $ # $ $ # - - &   % < t > u ",
"- %   # # , + $ ] % # ~ % % / 8 % # ( % % , # 4   @ v w x y y y z A B C ] a + D @ % $ ' -     < % ] @ % % , ",
"<   ] $ %   @ $ # # . , 9 - # # - & E % % # $ # =   F G H y y y y I J K L   @ $ # # ~ , 9 % # ( a & E % & # ",
"< % # % * / & # $ % 9 - - % - M @ & _ 8 - $ $ 4 N N O P Q y R S T U V W X Y Z ` ] %   ( - % - ] # % 8 } F $ ",
"  & ) * ;   - @ |   ; = ] # 4 ;   *   - $ #  ...B +.@.#.$.R %.&.*.=.-.;.>.,.'.).!.~.{./ ] ] % 8   *   - $ $ ",
"  # @ * < - - ].3 8 8 % ( $ - * 3 _   $ D ^./.(._.:.<.[.}.|.1.2.3.4.3.5.4.4.4.6.7.8.9.  - # a   3 _   # ' . ",
"% $ ] ; k # - _ _ * a E ; - % 2 0.].- ] - a.b.c.y y y d.e.f.g.h.h.h.h.h.h.h.h.h.h.i.j.k.u % % 9 b < % M - # ",
"% # $ / ; # #   * / - # 4     9 3 * # 4 ^ l.m.y y y n.o.p.h.h.h.h.h.h.h.h.h.h.h.h.h.g.q.r.s.  & * * - % } & ",
": $ $ ~ , # 4 * t.j i - 4 8 *   - @ # # 9 u.v.y z w.x.y.h.h.h.h.h.h.h.h.h.h.h.h.h.z.h.h.A.B.C.* - - # # 9 3 ",
"$ M - $ #   j t _ 3 % # # - %   ] @ | { | D.E.z F.G.H.h.h.h.h.h.h.h.h.h.h.h.h.I.J.K.L.h.h.M.N.O.# # | ~ @ 2 ",
"$ ( k ( % _ P._ * @ , & # # # # - % ] Q.R.S.T.U.V.W.h.h.h.h.h.h.h.h.h.h.h.h.h.X.Y.Z.`. +5.5..+++# % ] $ # / ",
"- | E % & | @+- # $ a   = % $ D % 8 #+$+%+&+*+=+-+h.;+h.h.h.h.h.h.h.h.h.z.3.h.>+,+'+)+!+~+5.{+]+^+< % $ - _ ",
"* & E % @ # - # $ $ -   ; % , , /+(+_+I m.:+<+[+h.h.h.;+h.h.h.h.h.h.h.h.h.I.L.}+|+1+2+3+4+5+h.6+7+8+t.- 9+3 ",
"& - $ # $ % 8 # $ #   8   & k 8 0+a+y y y b+c+6+h.h.h.h.h.h.h.h.h.h.h.h.h.z.L.d+e+f+g+h+i+j+4.h.k+l+m+% @ & ",
"j M $ M 4 % ) $ $ % 9 % # , |   n+o+y y y p+q+I.h.h.h.h.h.h.h.;+h.;+h.h.h.h.h.r+s+s+t+u+v+w+x+h.J.y+z+# - * ",
"j - ' % j   $ $ % = a A+# m+m+* B+y y y y C+f.h.h.h.h.h.h.h.h.h.h.h.h.h.h.h.z.D+E+s+F+G+H+I+J+h.h.K+L+9+% % ",
"m+% ~ b > - # - = - a : - 9 3 _ M+N+c.y O+P+Q+h.h.h.h.h.h.h.h.h.h.h.h.h.h.h.h.R+S+T+U+V+W+X+Y+h.h.Z+`+ @.@; ",
"~ @ % u * # % = - - % % 3 * * 2 +@@@#@:+$@%@&@h.h.h.h.h.h.h.h.h.h.h.h.h.h.h.z.;+*@=@-@;@>@,@5.h.h.'@)@!@; [ ",
"- %   ; < = = - ~ # # E < ; & , # ~@{@]@^@/@z.h.h.h.h.h.h.h.h.h.h.h.h.h.h.I.h.h.g.(@_@:@<@L.h.h.h.[@}@|@- j ",
"1@; * < ].  - # , - @ , / 8 % ' , 2@]@3@4@5@h.h.h.h.h.h.h.h.h.h.h.h.h.h.h.h.h.h.h.h.h.h.h.h.h.h.h.6@7@8@# - ",
"1 & ].> m+] ] % & _ * & % - $ ' 9@0@3@z a@b@h.h.h.h.h.h.h.h.h.h.;+h.h.h.h.c@h.h.h.h.h.h.h.h.h.h.h.d@e@g   ] ",
"]., S.3 & - $ # - 4 - - % M ~ ' f@g@y h@i@j@&@h.h.h.h.h.h.h.h.h.h.h.h.h.h.h.h.h.{+J.h.h.h.h.h.6.J.k@9+  l@= ",
"  # : % % % # # - - $ $ # # | a m@n@y h@o@p@h.h.h.h.h.h.h.h.h.h.;+h.h.h.h.;+h.h.h.q@r@5+s@t@t@u@6+v@w@< x@j ",
"% $ M - # # % * @ - # $ $ ~ @+% y@z@A@h@B@C@h.h.h.h.h.h.h.h.{+L.h.h.h.z.h.h.h.h.h.g.{+{+{+{+{+h.D@E@l@< F@t ",
"& ] ] @ v ' & l@- % | + ' $ # # G@H@I@h@J@K@h.h.h.h.h.h.h.h.h.L@M@{+h.h.h.h.h.;+h.h.h.h.h.h.h.N@O@P@1 *   < ",
"&   % % # @ m+3   = | # ' $ $ # Q@R@S@T@U@V@h.h.h.h.h.h.h.h.h.W@X@5+J.h.h.h.h.h.h.h.h.h.h.5.Y@Z@`@E  #% ] .#",
"% % = - ( 9 9   = ] M % ~ $ # a +#@###$#%#&#h.z.h.h.h.h.h.h.h.h.h.*#=#*#-#h.h.h.h.h.h.h.5.6@;#>#* * | & * 8 ",
"| ~ - ] # % ;   : ' - S.: - % ,#'#y y h@)#K@h.h.h.h.h.h.h.h.h.h.h.g.Y@!#~#{#]#;+;+{+h.6+^#/#(#( % * % / _ 3 ",
"9 # _#:#<#% 8 4 ~ v % ^   = @ [#}#y y h@|#1#z.h.h.h.h.h.;+h.h.h.h.h.h.2#3#4#5#6#7#8#9#0#a#b#- ' # = = % b E ",
"  ~ c#d#e#, 4 % | @ - ; 8 * 9+f#g#y y h#i#g.h.z.h.h.h.h.h.h.h.h.h.h.h.j#k#l#m#n#o#p#q#t.; * 9+$ #   = % t., ",
": $ r#s#t#u#% % ] -     * v#8 w#b.y x#y#z#z.h.h.h.h.h.h.h.h.h.h.h.h.h.h.A#B#C#D#E#F#G#  * v#l@# # =   % % a ",
"~ # H#I#J#K#& , $ # ] # - < % ^.L#M#h@N#O#h.h.h.h.h.h.h.h.h.h.h.h.h.h.h.g.P#Q#C#R#S#T#- % 8 & , a   * 3 b * ",
"# a U#V#W#X#Y#' # ] $ $ # - - & Z#`# $.$h.z.h.h.h.h.h.h.h.h.h.h.h.h.h.h.h.+$@$#$$$%$&$$ # - a &   - < j 3 * ",
"- % U#*$=$-$;$>$- % $ ~ - %   ; % ,$'$p.h.h.h.h.h.h.h.;+h.h.h.h.h.h.h.h.z.)$!$~${$]$^$~ - 4 4 < % - @ % % , ",
"].  /$($Z+h.i._$:${ ~ , 9 % - - <$[$J.h.h.h.h.h.h.h.h.h.h.h.h.h.h.h.h.h.h.}$|$1$2$3$4$5$& = ] - # & E & % ' ",
"< % 6$++7$h.I.6+8$9$0$a$ @b$c$d$e$Y@z.h.h.h.h.h.h.;+;+h.h.h.h.h.h.h.h.h.h.f$g$h$C#i$j$- % % - - # & 3 < 4 $ ",
"  | - k$l$I.h.h.4.m$n$o$p$q$r$s$t$I.h.h.h.h.h.h.h.h.h.h.h.h.h.h.h.h.h.h.h.Q+u$v$w$x$y$= # ] % 8   *   % # $ ",
"  @ # z$A$h.h.h.h.5.5.B$M.C$D$2.h.h.h.h.h.h.h.;+h.h.h.h.h.h.h.h.h.h.h.h.h.h.E$F$R#G$H$& - # ] * 3 _   # ' { ",
"- $ # I$J$y.h.h.h.h.h.h.h.z.h.h.h.h.h.h.h.h.h.h.h.h.h.h.h.h.h.h.h.h.h.h.h.h.K$L$M$N$O$E 3 - - & b P$- M - : ",
"S.# $ Q$'.R$h.z.h.h.h.h.I.h.;+h.h.h.h.h.h.h.h.h.h.h.h.h.h.h.h.h.h.h.h.h.h.h.S$T$U$V$,## % /   & 3 * - % 8 = ",
"] $ $ 9+W$-$h.z.h.h.h.I.h.h.h.h.h.h.h.h.h.h.h.h.h.h.h.h.h.h.h.h.h.h.h.h.h.h.X$Y$Z$`$ %] ( 8   * % - # # & * ",
"$ # - $ .%+%h.h.h.h.h.h.h.h.h.h.h.h.h.h.h.h.h.h.h.h.;+h.h.h.h.h.h.h.h.h.h.h.@%#%$%%%&%- # - -   # # | ~ @   ",
"$ - * - @+*%=%h.h.h.h.h.h.h.h.h.h.h.h.h.h.h.h.h.h.h.h.h.h.h.h.h.h.h.h.h.h.I.-%;%>%,%E & ] # # # # - @ ' ] % ",
"] a E % % '%)%5.h.h.h.;+h.h.h.;+;+h.h.h.h.h.h.h.h.h.h.h.h.h.h.h.;+h.h.h.h.h.!%~%{%# a * 4 % # ' - 8 4 # % l@",
"  % @ % @ { ]%^%h.h.h.h.h.h.;+h.h.h.;+h.h.h.h.h.h.h.h.h.h.h.h.h.h.h.h.h.h.h./%(%_%:%M   ; % # , @ /   - % 3 ",
"& ] $ # $ % 8+<%l$g.h.h.h.h.h.h.h.;+h.h.h.h.h.h.h.h.h.h.h.h.h.h.h.h.h.h.h.g.[%}%|%Q./ <   % % } & 9 @+% @ & ",
"j M $ # - E E !@1%2%g.z.h.h.h.h.h.h.h.h.h.h.h.h.h.h.h.h.h.h.h.h.h.h.h.h.h.3%4%5%6%% 9 % a , a *   - @ : - * ",
"1@% $ & j 9 ~ $ 7%8%9%h.I.h.z.h.h.h.h.h.Q+h.h.h.h.h.h.W@]#h.h.h.h.h.h.h.h.0%a%b%- = a { # | m+* % # - - F % ",
"m+% , b < - # - % /$c%d%e%5.h.h.h.h.h.h.X.{+h.h.h.h.h.L.*#h.h.h.h.h.g.h.f%g%h%% = - : ~ -   3 1   - @ 4 i%  ",
"# @ % > * ] -   ] - % j%k%l%=%g.h.&@I.h.r@{+h.h.I.h.h.L.5+h.h.h.h.&@m%n%o%p%- = ] ] = - ^ 3 * * % = # # ; [ ",
"- % & * 8 %   - $ # # @ 8+q%r%s%h.h.h.&@t%Y@L.L.J.L.&@L.t@6+h.h.h.h.u%0#v%=   - # $ : @ * * & , $ - # $ - 1 ",
"v#* * < ].  - ~ , - @ , / w%!.x%h.h.h.5.y%z%A%B%C%D%E%F%G%H%h.h.h.5.I%J%<   % # ! - ( , / 8 - D # S.~ D @ - ",
"1 & < ].m+a # - 9 _ * & % K%e@x%h.h.h.5.L%M%N%O%P%Q%R%S%T%q.h.h.h.5.I%U%& : @ % % < * & - - # ' # ] $ @   # ",
"V%, % 3 t.- # # - / % % % ] W%Z+h.h.h.5.X%0$  * t.b 3 4 Y%Z%5.h.h.5.I%`%; - # # -   - - % ] # + # # #   _ & ",
"* # ] - % = # # - % # $ # (  &.&h.h.h.3.+&@&2 3 1 1 j - #&)%g.h.h.5.$&%&&&  - # @ = # $ # @ & @ @   % _ *&l@",
"- $ @ % # # %   # # # $ $ ~ =&-&;&>&,&'&)&!&u b * % - M ~&{&]&^&/&(&_&:&( # - * - # # $ $ ~ , S.# % < * l@t ",
"9 # ] : v $ & l@- % m++ ' $ M <&[&}&|&1&2&3&*   @ $ - 4&] 5&6&7&8&9&0&a&. ' & l@% % m++ D $ ~ : ' ) b&<   < ",
"    = % @ a m+3   = % # $ $ $ c&d&e&f&g&h&; 8 % ~ ~ a - $ i&j&k&l&m&n&o&a : m+3     % @ ' $ $ # ] @ E % @ * ",
"S.%   - -   t.  = ] - % ~ $ # - p&q&r&s&^ * 4 - % a % # $ # t&u&v&w&x&- - 9 t.    - ] % ~ $ : @   * @ %   8 ",
"@ ~ # $ $ %     : ' - % # % | , %   % & 1 * # $ # ] - # # & @ ] @ . # $ $ % ;   - $ M % # - % , | * %   j 8 ",
"& # $ $ $   y&- { v   l@    - $ $ % & , ) @ $ $ $ - = # $ %   =   # $ $ $   y&4 ' + % y&    - $ $ -   @ z&# "};
